<svg width="20" height="20" viewBox="0 0 20 20" fill="none" xmlns="http://www.w3.org/2000/svg">
<path d="M10.0002 3.33325C10.8842 3.33325 11.7321 3.68444 12.3572 4.30956C12.9823 4.93468 13.3335 5.78253 13.3335 6.66659C13.3335 7.55064 12.9823 8.39849 12.3572 9.02361C11.7321 9.64873 10.8842 9.99992 10.0002 9.99992C9.11611 9.99992 8.26826 9.64873 7.64314 9.02361C7.01802 8.39849 6.66683 7.55064 6.66683 6.66659C6.66683 5.78253 7.01802 4.93468 7.64314 4.30956C8.26826 3.68444 9.11611 3.33325 10.0002 3.33325ZM10.0002 4.99992C9.55814 4.99992 9.13421 5.17551 8.82165 5.48807C8.50909 5.80063 8.3335 6.22456 8.3335 6.66659C8.3335 7.10861 8.50909 7.53254 8.82165 7.8451C9.13421 8.15766 9.55814 8.33325 10.0002 8.33325C10.4422 8.33325 10.8661 8.15766 11.1787 7.8451C11.4912 7.53254 11.6668 7.10861 11.6668 6.66659C11.6668 6.22456 11.4912 5.80063 11.1787 5.48807C10.8661 5.17551 10.4422 4.99992 10.0002 4.99992ZM10.0002 10.8333C12.2252 10.8333 16.6668 11.9416 16.6668 14.1666V16.6666H3.3335V14.1666C3.3335 11.9416 7.77516 10.8333 10.0002 10.8333ZM10.0002 12.4166C7.52516 12.4166 4.91683 13.6333 4.91683 14.1666V15.0833H15.0835V14.1666C15.0835 13.6333 12.4752 12.4166 10.0002 12.4166Z" fill="#001E3E"/>
</svg>
