<svg  xmlns="http://www.w3.org/2000/svg" width="24" height="24" viewBox="0 0 24 24" fill="none">
    <path d="M16 12C16 13.1046 15.1046 14 14 14C12.8954 14 12 13.1046 12 12C12 10.8954 12.8954 10 14 10C15.1046 10 16 10.8954 16 12Z" fill="#001E3E"/>
    <path d="M8 14C9.10457 14 10 13.1046 10 12C10 10.8954 9.10457 10 8 10C6.89543 10 6 10.8954 6 12C6 13.1046 6.89543 14 8 14Z" fill="#001E3E"/>
    <path fill-rule="evenodd" clip-rule="evenodd" d="M12 3.73244C12.5978 3.38663 13 2.74028 13 2C13 0.895431 12.1046 0 11 0C9.89543 0 9 0.895431 9 2C9 2.74028 9.4022 3.38663 10 3.73244V5H4C2.89543 5 2 5.89543 2 7V10H1C0.447715 10 0 10.4477 0 11V14C0 14.5523 0.447715 15 1 15H2V18C2 19.1046 2.89543 20 4 20H18C19.1046 20 20 19.1046 20 18V15H21C21.5523 15 22 14.5523 22 14V11C22 10.4477 21.5523 10 21 10H20V7C20 5.89543 19.1046 5 18 5H12V3.73244ZM18 18V7H4V18H18Z" fill="#001E3E"/>
</svg>