<svg width="24" height="24" viewBox="0 0 24 24" fill="none" xmlns="http://www.w3.org/2000/svg">
<path d="M17.4737 23V19.7H14.1579V17.5H17.4737V14.2H19.6842V17.5H23V19.7H19.6842V23H17.4737ZM4.21053 20.8C3.60263 20.8 3.08224 20.5846 2.64934 20.1537C2.21645 19.7229 2 19.205 2 18.6V5.4C2 4.795 2.21645 4.27708 2.64934 3.84625C3.08224 3.41542 3.60263 3.2 4.21053 3.2H5.31579V1H7.52632V3.2H14.1579V1H16.3684V3.2H17.4737C18.0816 3.2 18.602 3.41542 19.0349 3.84625C19.4678 4.27708 19.6842 4.795 19.6842 5.4V12.11C19.3158 12.055 18.9474 12.0275 18.5789 12.0275C18.2105 12.0275 17.8421 12.055 17.4737 12.11V9.8H4.21053V18.6H11.9474C11.9474 18.9667 11.975 19.3333 12.0303 19.7C12.0855 20.0667 12.1868 20.4333 12.3342 20.8H4.21053ZM4.21053 7.6H17.4737V5.4H4.21053V7.6Z" fill="#675B5B"/>
</svg>
