<svg width="20" height="20" viewBox="0 0 20 20" fill="none" xmlns="http://www.w3.org/2000/svg">
<g id="icon/car-outline">
<path id="Vector" d="M15.75 5.00002C15.5833 4.50002 15.0833 4.16669 14.5833 4.16669H5.41667C4.83333 4.16669 4.41667 4.50002 4.25 5.00002L2.5 10V16.6667C2.5 17.0834 2.91667 17.5 3.33333 17.5H4.16667C4.66667 17.5 5 17.0834 5 16.6667V15.8334H15V16.6667C15 17.0834 15.4167 17.5 15.8333 17.5H16.6667C17.0833 17.5 17.5 17.0834 17.5 16.6667V10L15.75 5.00002ZM5.66667 5.83335H14.25L15.1667 8.33335H4.83333L5.66667 5.83335ZM15.8333 14.1667H4.16667V10H15.8333V14.1667ZM6.25 10.8334C6.91667 10.8334 7.5 11.4167 7.5 12.0834C7.5 12.75 6.91667 13.3334 6.25 13.3334C5.58333 13.3334 5 12.75 5 12.0834C5 11.4167 5.58333 10.8334 6.25 10.8334ZM13.75 10.8334C14.4167 10.8334 15 11.4167 15 12.0834C15 12.75 14.4167 13.3334 13.75 13.3334C13.0833 13.3334 12.5 12.75 12.5 12.0834C12.5 11.4167 13.0833 10.8334 13.75 10.8334Z" fill="#001E3E"/>
</g>
</svg>
