<svg width="25" height="24" viewBox="0 0 25 24" fill="none" xmlns="http://www.w3.org/2000/svg">
<g id="icon/car-group-outline">
<path id="Vector" fill-rule="evenodd" clip-rule="evenodd" d="M20.025 4C19.825 3.4 19.225 3 18.625 3H7.625C6.925 3 6.425 3.4 6.225 4L5.875 5H7.925H18.125H18.225L19.325 8L20.125 10V15V17V19H21.125C21.625 19 22.125 18.5 22.125 18V10L20.025 4ZM15.625 6C16.225 6 16.825 6.4 17.025 7L19.125 13V21C19.125 21.5 18.625 22 18.125 22H17.125C16.625 22 16.125 21.5 16.125 21V20H4.125V21C4.125 21.5 3.725 22 3.125 22H2.125C1.625 22 1.125 21.5 1.125 21V13L3.225 7C3.425 6.4 3.925 6 4.625 6H15.625ZM15.225 8H4.925L3.925 11H16.325L15.225 8ZM3.125 18H17.125V13H3.125V18ZM7.125 15.5C7.125 14.7 6.425 14 5.625 14C4.825 14 4.125 14.7 4.125 15.5C4.125 16.3 4.825 17 5.625 17C6.425 17 7.125 16.3 7.125 15.5ZM16.125 15.5C16.125 14.7 15.425 14 14.625 14C13.825 14 13.125 14.7 13.125 15.5C13.125 16.3 13.825 17 14.625 17C15.425 17 16.125 16.3 16.125 15.5Z" fill="#001E3E"/>
</g>
</svg>
