<svg width="25" height="24" viewBox="0 0 25 24" fill="none" xmlns="http://www.w3.org/2000/svg">
<g id="cog-outline">
<path id="Vector" d="M12.4998 8C13.5607 8 14.5781 8.42143 15.3283 9.17157C16.0784 9.92172 16.4998 10.9391 16.4998 12C16.4998 13.0609 16.0784 14.0783 15.3283 14.8284C14.5781 15.5786 13.5607 16 12.4998 16C11.439 16 10.4216 15.5786 9.67141 14.8284C8.92127 14.0783 8.49984 13.0609 8.49984 12C8.49984 10.9391 8.92127 9.92172 9.67141 9.17157C10.4216 8.42143 11.439 8 12.4998 8ZM12.4998 10C11.9694 10 11.4607 10.2107 11.0856 10.5858C10.7106 10.9609 10.4998 11.4696 10.4998 12C10.4998 12.5304 10.7106 13.0391 11.0856 13.4142C11.4607 13.7893 11.9694 14 12.4998 14C13.0303 14 13.539 13.7893 13.9141 13.4142C14.2891 13.0391 14.4998 12.5304 14.4998 12C14.4998 11.4696 14.2891 10.9609 13.9141 10.5858C13.539 10.2107 13.0303 10 12.4998 10ZM10.4998 22C10.2498 22 10.0398 21.82 9.99984 21.58L9.62984 18.93C8.99984 18.68 8.45984 18.34 7.93984 17.94L5.44984 18.95C5.22984 19.03 4.95984 18.95 4.83984 18.73L2.83984 15.27C2.70984 15.05 2.76984 14.78 2.95984 14.63L5.06984 12.97L4.99984 12L5.06984 11L2.95984 9.37C2.76984 9.22 2.70984 8.95 2.83984 8.73L4.83984 5.27C4.95984 5.05 5.22984 4.96 5.44984 5.05L7.93984 6.05C8.45984 5.66 8.99984 5.32 9.62984 5.07L9.99984 2.42C10.0398 2.18 10.2498 2 10.4998 2H14.4998C14.7498 2 14.9598 2.18 14.9998 2.42L15.3698 5.07C15.9998 5.32 16.5398 5.66 17.0598 6.05L19.5498 5.05C19.7698 4.96 20.0398 5.05 20.1598 5.27L22.1598 8.73C22.2898 8.95 22.2298 9.22 22.0398 9.37L19.9298 11L19.9998 12L19.9298 13L22.0398 14.63C22.2298 14.78 22.2898 15.05 22.1598 15.27L20.1598 18.73C20.0398 18.95 19.7698 19.04 19.5498 18.95L17.0598 17.95C16.5398 18.34 15.9998 18.68 15.3698 18.93L14.9998 21.58C14.9598 21.82 14.7498 22 14.4998 22H10.4998ZM11.7498 4L11.3798 6.61C10.1798 6.86 9.11984 7.5 8.34984 8.39L5.93984 7.35L5.18984 8.65L7.29984 10.2C6.89984 11.37 6.89984 12.64 7.29984 13.8L5.17984 15.36L5.92984 16.66L8.35984 15.62C9.12984 16.5 10.1798 17.14 11.3698 17.38L11.7398 20H13.2598L13.6298 17.39C14.8198 17.14 15.8698 16.5 16.6398 15.62L19.0698 16.66L19.8198 15.36L17.6998 13.81C18.0998 12.64 18.0998 11.37 17.6998 10.2L19.8098 8.65L19.0598 7.35L16.6498 8.39C15.8798 7.5 14.8198 6.86 13.6198 6.62L13.2498 4H11.7498Z" fill="#001E3E"/>
</g>
</svg>
