<svg width="24" height="24" viewBox="0 0 24 24" fill="none" xmlns="http://www.w3.org/2000/svg">
<path d="M4.89474 19.1053H6.24474L16.4526 8.89737L15.1026 7.54737L4.89474 17.7553V19.1053ZM3.94737 21C3.67895 21 3.45395 20.9092 3.27237 20.7276C3.09079 20.5461 3 20.3211 3 20.0526V17.7553C3 17.5026 3.04737 17.2618 3.14211 17.0329C3.23684 16.8039 3.37105 16.6026 3.54474 16.4289L16.4526 3.54474C16.6421 3.37105 16.8513 3.23684 17.0803 3.14211C17.3092 3.04737 17.55 3 17.8026 3C18.0553 3 18.3 3.04737 18.5368 3.14211C18.7737 3.23684 18.9789 3.37895 19.1526 3.56842L20.4553 4.89474C20.6447 5.06842 20.7829 5.27368 20.8697 5.51053C20.9566 5.74737 21 5.98421 21 6.22105C21 6.47368 20.9566 6.71447 20.8697 6.94342C20.7829 7.17237 20.6447 7.38158 20.4553 7.57105L7.57105 20.4553C7.39737 20.6289 7.19605 20.7632 6.96711 20.8579C6.73816 20.9526 6.49737 21 6.24474 21H3.94737ZM15.7658 8.23421L15.1026 7.54737L16.4526 8.89737L15.7658 8.23421Z" fill="#675B5B"/>
</svg>
