<svg width="25" height="24" viewBox="0 0 25 24" fill="none" xmlns="http://www.w3.org/2000/svg">
<g id="event_repeat" clip-path="url(#clip0_564_6595)">
<path id="Vector" d="M5.5 22C4.95 22 4.47917 21.8042 4.0875 21.4125C3.69583 21.0208 3.5 20.55 3.5 20V6C3.5 5.45 3.69583 4.97917 4.0875 4.5875C4.47917 4.19583 4.95 4 5.5 4H6.5V2H8.5V4H16.5V2H18.5V4H19.5C20.05 4 20.5208 4.19583 20.9125 4.5875C21.3042 4.97917 21.5 5.45 21.5 6V12H19.5V10H5.5V20H12.5V22H5.5ZM19.5 24C18.2833 24 17.2208 23.6208 16.3125 22.8625C15.4042 22.1042 14.8333 21.15 14.6 20H16.15C16.3667 20.7333 16.7792 21.3333 17.3875 21.8C17.9958 22.2667 18.7 22.5 19.5 22.5C20.4667 22.5 21.2917 22.1583 21.975 21.475C22.6583 20.7917 23 19.9667 23 19C23 18.0333 22.6583 17.2083 21.975 16.525C21.2917 15.8417 20.4667 15.5 19.5 15.5C19.0167 15.5 18.5667 15.5875 18.15 15.7625C17.7333 15.9375 17.3667 16.1833 17.05 16.5H18.5V18H14.5V14H16V15.425C16.45 14.9917 16.975 14.6458 17.575 14.3875C18.175 14.1292 18.8167 14 19.5 14C20.8833 14 22.0625 14.4875 23.0375 15.4625C24.0125 16.4375 24.5 17.6167 24.5 19C24.5 20.3833 24.0125 21.5625 23.0375 22.5375C22.0625 23.5125 20.8833 24 19.5 24ZM5.5 8H19.5V6H5.5V8Z" fill="#001E3E"/>
</g>
<defs>
<clipPath id="clip0_564_6595">
<rect width="24" height="24" fill="white" transform="translate(0.5)"/>
</clipPath>
</defs>
</svg>
