<svg width="24" height="24" viewBox="0 0 24 24" fill="none" xmlns="http://www.w3.org/2000/svg">
<g id="exit">
<path id="Vector" d="M5.04545 21C4.48295 21 4.00142 20.8042 3.60085 20.4125C3.20028 20.0208 3 19.55 3 19V5C3 4.45 3.20028 3.97917 3.60085 3.5875C4.00142 3.19583 4.48295 3 5.04545 3H11.1818C11.4716 3 11.7145 3.09583 11.9105 3.2875C12.1065 3.47917 12.2045 3.71667 12.2045 4C12.2045 4.28333 12.1065 4.52083 11.9105 4.7125C11.7145 4.90417 11.4716 5 11.1818 5H5.04545V19H11.1818C11.4716 19 11.7145 19.0958 11.9105 19.2875C12.1065 19.4792 12.2045 19.7167 12.2045 20C12.2045 20.2833 12.1065 20.5208 11.9105 20.7125C11.7145 20.9042 11.4716 21 11.1818 21H5.04545ZM17.4972 13H10.1591C9.86932 13 9.62642 12.9042 9.4304 12.7125C9.23438 12.5208 9.13636 12.2833 9.13636 12C9.13636 11.7167 9.23438 11.4792 9.4304 11.2875C9.62642 11.0958 9.86932 11 10.1591 11H17.4972L15.5795 9.125C15.392 8.94167 15.2983 8.71667 15.2983 8.45C15.2983 8.18333 15.392 7.95 15.5795 7.75C15.767 7.55 16.0057 7.44583 16.2955 7.4375C16.5852 7.42917 16.8324 7.525 17.0369 7.725L20.6932 11.3C20.8977 11.5 21 11.7333 21 12C21 12.2667 20.8977 12.5 20.6932 12.7L17.0369 16.275C16.8324 16.475 16.5895 16.5708 16.3082 16.5625C16.027 16.5542 15.7841 16.45 15.5795 16.25C15.392 16.05 15.3026 15.8125 15.3111 15.5375C15.3196 15.2625 15.4176 15.0333 15.6051 14.85L17.4972 13Z" fill="#001E3E"/>
</g>
</svg>
