<svg width="32" height="32" viewBox="0 0 32 32" fill="none" xmlns="http://www.w3.org/2000/svg">
<g clip-path="url(#clip0_996_29951)">
<path d="M5.33333 17.3333C6.8 17.3333 8 16.1333 8 14.6667C8 13.2 6.8 12 5.33333 12C3.86667 12 2.66667 13.2 2.66667 14.6667C2.66667 16.1333 3.86667 17.3333 5.33333 17.3333ZM6.84 18.8C6.34667 18.72 5.85333 18.6667 5.33333 18.6667C4.01333 18.6667 2.76 18.9467 1.62667 19.44C0.64 19.8667 0 20.8267 0 21.9067V24H6V21.8533C6 20.7467 6.30667 19.7067 6.84 18.8ZM26.6667 17.3333C28.1333 17.3333 29.3333 16.1333 29.3333 14.6667C29.3333 13.2 28.1333 12 26.6667 12C25.2 12 24 13.2 24 14.6667C24 16.1333 25.2 17.3333 26.6667 17.3333ZM32 21.9067C32 20.8267 31.36 19.8667 30.3733 19.44C29.24 18.9467 27.9867 18.6667 26.6667 18.6667C26.1467 18.6667 25.6533 18.72 25.16 18.8C25.6933 19.7067 26 20.7467 26 21.8533V24H32V21.9067ZM21.6533 18.2C20.0933 17.5067 18.1733 17 16 17C13.8267 17 11.9067 17.52 10.3467 18.2C8.90667 18.84 8 20.28 8 21.8533V24H24V21.8533C24 20.28 23.0933 18.84 21.6533 18.2ZM10.76 21.3333C10.88 21.0267 10.9333 20.8133 11.9733 20.4133C13.2667 19.9067 14.6267 19.6667 16 19.6667C17.3733 19.6667 18.7333 19.9067 20.0267 20.4133C21.0533 20.8133 21.1067 21.0267 21.24 21.3333H10.76ZM16 10.6667C16.7333 10.6667 17.3333 11.2667 17.3333 12C17.3333 12.7333 16.7333 13.3333 16 13.3333C15.2667 13.3333 14.6667 12.7333 14.6667 12C14.6667 11.2667 15.2667 10.6667 16 10.6667ZM16 8C13.7867 8 12 9.78667 12 12C12 14.2133 13.7867 16 16 16C18.2133 16 20 14.2133 20 12C20 9.78667 18.2133 8 16 8Z" fill="#1E1A1A"/>
</g>
<defs>
<clipPath id="clip0_996_29951">
<rect width="32" height="32" fill="white"/>
</clipPath>
</defs>
</svg>
