<?xml version="1.0" encoding="UTF-8"?>
<svg xmlns="http://www.w3.org/2000/svg" xmlns:xlink="http://www.w3.org/1999/xlink" width="24px" height="24px" viewBox="0 0 24 24" version="1.1">
<g id="surface1">
<path style=" stroke:none;fill-rule:nonzero;fill:rgb(11.764706%,10.196079%,10.196079%);fill-opacity:1;" d="M 5.332031 12.832031 C 6.25 12.832031 7 12.082031 7 11.164062 C 7 10.25 6.25 9.5 5.332031 9.5 C 4.417969 9.5 3.667969 10.25 3.667969 11.164062 C 3.667969 12.082031 4.417969 12.832031 5.332031 12.832031 Z M 6.273438 13.746094 C 5.964844 13.699219 5.660156 13.664062 5.332031 13.664062 C 4.507812 13.664062 3.726562 13.839844 3.015625 14.148438 C 2.398438 14.414062 2 15.011719 2 15.6875 L 2 16.996094 L 5.75 16.996094 L 5.75 15.65625 C 5.75 14.964844 5.941406 14.3125 6.273438 13.746094 Z M 18.667969 12.832031 C 19.582031 12.832031 20.332031 12.082031 20.332031 11.164062 C 20.332031 10.25 19.582031 9.5 18.667969 9.5 C 17.75 9.5 17 10.25 17 11.164062 C 17 12.082031 17.75 12.832031 18.667969 12.832031 Z M 22 15.6875 C 22 15.011719 21.601562 14.414062 20.984375 14.148438 C 20.273438 13.839844 19.492188 13.664062 18.667969 13.664062 C 18.339844 13.664062 18.035156 13.699219 17.726562 13.746094 C 18.058594 14.3125 18.25 14.964844 18.25 15.65625 L 18.25 16.996094 L 22 16.996094 Z M 15.53125 13.371094 C 14.558594 12.9375 13.359375 12.621094 12 12.621094 C 10.640625 12.621094 9.441406 12.949219 8.464844 13.371094 C 7.566406 13.773438 7 14.671875 7 15.65625 L 7 16.996094 L 17 16.996094 L 17 15.65625 C 17 14.671875 16.433594 13.773438 15.53125 13.371094 Z M 8.726562 15.328125 C 8.800781 15.136719 8.832031 15.003906 9.484375 14.753906 C 10.292969 14.4375 11.140625 14.289062 12 14.289062 C 12.859375 14.289062 13.707031 14.4375 14.515625 14.753906 C 15.15625 15.003906 15.191406 15.136719 15.273438 15.328125 Z M 12 8.667969 C 12.457031 8.667969 12.832031 9.039062 12.832031 9.5 C 12.832031 9.957031 12.457031 10.332031 12 10.332031 C 11.542969 10.332031 11.167969 9.957031 11.167969 9.5 C 11.167969 9.039062 11.542969 8.667969 12 8.667969 Z M 12 7 C 10.617188 7 9.5 8.117188 9.5 9.5 C 9.5 10.882812 10.617188 12 12 12 C 13.382812 12 14.5 10.882812 14.5 9.5 C 14.5 8.117188 13.382812 7 12 7 Z M 12 7 "/>
</g>
</svg>
