<svg width="24" height="24" viewBox="0 0 24 24" fill="none" xmlns="http://www.w3.org/2000/svg">
<path d="M16.8 10.4C16.877 10.3422 16.9508 10.2811 17.0212 10.2169C17.6226 9.66831 18 8.87822 18 8V6C18 5.44772 18.4477 5 19 5C19.5523 5 20 5.44772 20 6V8C20 9.4637 19.3711 10.7805 18.3687 11.6949C18.3482 11.7136 18.3275 11.7322 18.3066 11.7505C18.1933 11.8505 18.0755 11.9454 17.9534 12.0349L17.6 12.3C16.5928 13.0554 16 14.241 16 15.5V20C16 21.1046 15.1046 22 14 22V15.5C14 14.6253 14.1907 13.7743 14.5456 13H8C6.89543 13 6 13.8954 6 15V20H14V22H6C4.89543 22 4 21.1046 4 20V15C4 12.7909 5.79086 11 8 11H15C15.6629 11 16.2755 10.785 16.7721 10.4209L16.8 10.4ZM11 10C8.79086 10 7 8.20914 7 6C7 3.79086 8.79086 2 11 2C13.2091 2 15 3.79086 15 6C15 8.20914 13.2091 10 11 10ZM11 8C12.1046 8 13 7.10457 13 6C13 4.89543 12.1046 4 11 4C9.89543 4 9 4.89543 9 6C9 7.10457 9.89543 8 11 8Z" fill="#5E5E5E"/>
</svg>
