<svg width="20" height="20" viewBox="0 0 20 20" fill="none" xmlns="http://www.w3.org/2000/svg">
<g id="location">
<path id="Vector" d="M9.99992 10C10.4583 10 10.8506 9.83683 11.177 9.51044C11.5034 9.18405 11.6666 8.79169 11.6666 8.33335C11.6666 7.87502 11.5034 7.48266 11.177 7.15627C10.8506 6.82988 10.4583 6.66669 9.99992 6.66669C9.54158 6.66669 9.14922 6.82988 8.82283 7.15627C8.49645 7.48266 8.33325 7.87502 8.33325 8.33335C8.33325 8.79169 8.49645 9.18405 8.82283 9.51044C9.14922 9.83683 9.54158 10 9.99992 10ZM9.99992 16.125C11.6944 14.5695 12.9513 13.1563 13.7708 11.8854C14.5902 10.6146 14.9999 9.48613 14.9999 8.50002C14.9999 6.98613 14.5173 5.74655 13.552 4.78127C12.5867 3.81599 11.4027 3.33335 9.99992 3.33335C8.59714 3.33335 7.41311 3.81599 6.44784 4.78127C5.48256 5.74655 4.99992 6.98613 4.99992 8.50002C4.99992 9.48613 5.40964 10.6146 6.22909 11.8854C7.04853 13.1563 8.30547 14.5695 9.99992 16.125ZM9.99992 18.3334C7.76381 16.4306 6.09367 14.6632 4.9895 13.0313C3.88534 11.3993 3.33325 9.88891 3.33325 8.50002C3.33325 6.41669 4.00339 4.75697 5.34367 3.52085C6.68395 2.28474 8.23603 1.66669 9.99992 1.66669C11.7638 1.66669 13.3159 2.28474 14.6562 3.52085C15.9964 4.75697 16.6666 6.41669 16.6666 8.50002C16.6666 9.88891 16.1145 11.3993 15.0103 13.0313C13.9062 14.6632 12.236 16.4306 9.99992 18.3334Z" fill="#FCFCFC"/>
</g>
</svg>
