<svg width="24" height="24" viewBox="0 0 24 24" fill="none" xmlns="http://www.w3.org/2000/svg">
<g id="phone-car-outline">
<path id="Vector" fill-rule="evenodd" clip-rule="evenodd" d="M13.994 10.625V9.875H20.006V10.625C20.006 10.7312 20.0402 10.8203 20.1086 10.8922C20.1771 10.9641 20.2619 11 20.3631 11H21.6429C21.744 11 21.8289 10.9641 21.8973 10.8922C21.9658 10.8203 22 10.7312 22 10.625V5.75L20.8393 2.70312C20.7698 2.48438 20.6429 2.3125 20.4583 2.1875C20.2738 2.0625 20.0685 2 19.8423 2H14.1577C13.9315 2 13.7262 2.0625 13.5417 2.1875C13.3571 2.3125 13.2302 2.48438 13.1607 2.70312L12 5.75V10.625C12 10.7312 12.0342 10.8203 12.1027 10.8922C12.1711 10.9641 12.256 11 12.3571 11H13.6369C13.7381 11 13.8229 10.9641 13.8914 10.8922C13.9598 10.8203 13.994 10.7312 13.994 10.625ZM20.5565 5.375H13.4435L14.1577 3.5H19.8423L20.5565 5.375ZM15.006 7.96875C14.8671 8.11458 14.6984 8.1875 14.5 8.1875C14.3016 8.1875 14.1329 8.11458 13.994 7.96875C13.8552 7.82292 13.7857 7.64583 13.7857 7.4375C13.7857 7.22917 13.8552 7.05208 13.994 6.90625C14.1329 6.76042 14.3016 6.6875 14.5 6.6875C14.6984 6.6875 14.8671 6.76042 15.006 6.90625C15.1448 7.05208 15.2143 7.22917 15.2143 7.4375C15.2143 7.64583 15.1448 7.82292 15.006 7.96875ZM20.006 7.96875C19.8671 8.11458 19.6984 8.1875 19.5 8.1875C19.3016 8.1875 19.1329 8.11458 18.994 7.96875C18.8552 7.82292 18.7857 7.64583 18.7857 7.4375C18.7857 7.22917 18.8552 7.05208 18.994 6.90625C19.1329 6.76042 19.3016 6.6875 19.5 6.6875C19.6984 6.6875 19.8671 6.76042 20.006 6.90625C20.1448 7.05208 20.2143 7.22917 20.2143 7.4375C20.2143 7.64583 20.1448 7.82292 20.006 7.96875ZM15.4 14.9C16.5 15.3 17.8 15.5 19 15.5C19.5 15.5 20 16 20 16.5V20C20 20.5 19.5 21 19 21C9.6 21 2 13.4 2 4C2 3.5 2.5 3 3 3H6.5C7 3 7.5 3.5 7.5 4C7.5 5.2 7.7 6.5 8 7.6C8.2 7.9 8.1 8.3 7.8 8.6L5.6 10.8C7 13.6 9.4 15.9 12.2 17.4L14.4 15.2C14.6 15 14.8 14.9 15.1 14.9H15.4ZM5.5 5H4C4.1 6.3 4.4 7.6 4.8 8.8L6 7.6C5.8 6.8 5.6 5.9 5.5 5ZM14.2 18.2C15.4 18.6 16.7 18.9 18 19V17.4C17.1 17.4 16.2 17.2 15.4 17L14.2 18.2Z" fill="#001E3E"/>
</g>
</svg>
