<svg width="24" height="24" viewBox="0 0 24 24" fill="none" xmlns="http://www.w3.org/2000/svg">
<path d="M12 19.956C14.0333 18.0241 15.5417 16.2691 16.525 14.6908C17.5083 13.1125 18 11.7111 18 10.4864C18 8.6063 17.4208 7.06684 16.2625 5.86805C15.1042 4.66925 13.6833 4.06986 12 4.06986C10.3167 4.06986 8.89583 4.66925 7.7375 5.86805C6.57917 7.06684 6 8.6063 6 10.4864C6 11.7111 6.49167 13.1125 7.475 14.6908C8.45833 16.2691 9.96667 18.0241 12 19.956ZM12 22C11.7667 22 11.5333 21.9569 11.3 21.8706C11.0667 21.7844 10.8583 21.655 10.675 21.4825C9.59167 20.4476 8.63333 19.4386 7.8 18.4554C6.96667 17.4722 6.27083 16.5192 5.7125 15.5964C5.15417 14.6736 4.72917 13.7853 4.4375 12.9314C4.14583 12.0776 4 11.2626 4 10.4864C4 7.89909 4.80417 5.83786 6.4125 4.30272C8.02083 2.76757 9.88333 2 12 2C14.1167 2 15.9792 2.76757 17.5875 4.30272C19.1958 5.83786 20 7.89909 20 10.4864C20 11.2626 19.8542 12.0776 19.5625 12.9314C19.2708 13.7853 18.8458 14.6736 18.2875 15.5964C17.7292 16.5192 17.0333 17.4722 16.2 18.4554C15.3667 19.4386 14.4083 20.4476 13.325 21.4825C13.1417 21.655 12.9333 21.7844 12.7 21.8706C12.4667 21.9569 12.2333 22 12 22ZM12 12.3493C12.55 12.3493 13.0208 12.1466 13.4125 11.7413C13.8042 11.3359 14 10.8486 14 10.2794C14 9.71022 13.8042 9.22294 13.4125 8.81759C13.0208 8.41225 12.55 8.20957 12 8.20957C11.45 8.20957 10.9792 8.41225 10.5875 8.81759C10.1958 9.22294 10 9.71022 10 10.2794C10 10.8486 10.1958 11.3359 10.5875 11.7413C10.9792 12.1466 11.45 12.3493 12 12.3493Z" fill="#5E5E5E"/>
</svg>
