<svg width="24" height="24" viewBox="0 0 24 24" fill="none" xmlns="http://www.w3.org/2000/svg">
<path d="M11.95 18C12.3 18 12.5958 17.8792 12.8375 17.6375C13.0792 17.3958 13.2 17.1 13.2 16.75C13.2 16.4 13.0792 16.1042 12.8375 15.8625C12.5958 15.6208 12.3 15.5 11.95 15.5C11.6 15.5 11.3042 15.6208 11.0625 15.8625C10.8208 16.1042 10.7 16.4 10.7 16.75C10.7 17.1 10.8208 17.3958 11.0625 17.6375C11.3042 17.8792 11.6 18 11.95 18ZM12 22C10.6167 22 9.31667 21.7375 8.1 21.2125C6.88333 20.6875 5.825 19.975 4.925 19.075C4.025 18.175 3.3125 17.1167 2.7875 15.9C2.2625 14.6833 2 13.3833 2 12C2 10.6167 2.2625 9.31667 2.7875 8.1C3.3125 6.88333 4.025 5.825 4.925 4.925C5.825 4.025 6.88333 3.3125 8.1 2.7875C9.31667 2.2625 10.6167 2 12 2C13.3833 2 14.6833 2.2625 15.9 2.7875C17.1167 3.3125 18.175 4.025 19.075 4.925C19.975 5.825 20.6875 6.88333 21.2125 8.1C21.7375 9.31667 22 10.6167 22 12C22 13.3833 21.7375 14.6833 21.2125 15.9C20.6875 17.1167 19.975 18.175 19.075 19.075C18.175 19.975 17.1167 20.6875 15.9 21.2125C14.6833 21.7375 13.3833 22 12 22ZM12 20C14.2333 20 16.125 19.225 17.675 17.675C19.225 16.125 20 14.2333 20 12C20 9.76667 19.225 7.875 17.675 6.325C16.125 4.775 14.2333 4 12 4C9.76667 4 7.875 4.775 6.325 6.325C4.775 7.875 4 9.76667 4 12C4 14.2333 4.775 16.125 6.325 17.675C7.875 19.225 9.76667 20 12 20ZM12.1 7.7C12.5167 7.7 12.8792 7.83333 13.1875 8.1C13.4958 8.36667 13.65 8.7 13.65 9.1C13.65 9.46667 13.5375 9.79167 13.3125 10.075C13.0875 10.3583 12.8333 10.625 12.55 10.875C12.1667 11.2083 11.8292 11.575 11.5375 11.975C11.2458 12.375 11.1 12.825 11.1 13.325C11.1 13.5583 11.1875 13.7542 11.3625 13.9125C11.5375 14.0708 11.7417 14.15 11.975 14.15C12.225 14.15 12.4375 14.0667 12.6125 13.9C12.7875 13.7333 12.9 13.525 12.95 13.275C13.0167 12.925 13.1667 12.6125 13.4 12.3375C13.6333 12.0625 13.8833 11.8 14.15 11.55C14.5333 11.1833 14.8625 10.7833 15.1375 10.35C15.4125 9.91667 15.55 9.43333 15.55 8.9C15.55 8.05 15.2042 7.35417 14.5125 6.8125C13.8208 6.27083 13.0167 6 12.1 6C11.4667 6 10.8625 6.13333 10.2875 6.4C9.7125 6.66667 9.275 7.075 8.975 7.625C8.85833 7.825 8.82083 8.0375 8.8625 8.2625C8.90417 8.4875 9.01667 8.65833 9.2 8.775C9.43333 8.90833 9.675 8.95 9.925 8.9C10.175 8.85 10.3833 8.70833 10.55 8.475C10.7333 8.225 10.9625 8.03333 11.2375 7.9C11.5125 7.76667 11.8 7.7 12.1 7.7Z" fill="#1E1A1A"/>
</svg>
