<svg width="24" height="24" viewBox="0 0 24 24" fill="none" xmlns="http://www.w3.org/2000/svg">
<path d="M6.76013 5.55091L4.76898 7.53525C4.55939 7.74412 4.31486 7.84421 4.0354 7.83551C3.75594 7.8268 3.51141 7.71801 3.30182 7.50914C3.10969 7.30026 3.00926 7.05657 3.00052 6.77807C2.99179 6.49956 3.09222 6.25587 3.30182 6.047L7.07452 2.28721C7.17932 2.18277 7.29285 2.10879 7.41512 2.06527C7.53738 2.02176 7.66838 2 7.80811 2C7.94783 2 8.07883 2.02176 8.2011 2.06527C8.32336 2.10879 8.43689 2.18277 8.54169 2.28721L12.3144 6.047C12.5065 6.23847 12.6026 6.47781 12.6026 6.76501C12.6026 7.05222 12.5065 7.30026 12.3144 7.50914C12.1048 7.71802 11.8559 7.82245 11.5677 7.82245C11.2795 7.82245 11.0306 7.71802 10.821 7.50914L8.85608 5.55091L8.85608 20.3551C8.85608 20.651 8.75565 20.899 8.55479 21.0992C8.35392 21.2994 8.10503 21.3995 7.8081 21.3995C7.51118 21.3995 7.26228 21.2994 7.06142 21.0992C6.86056 20.899 6.76013 20.651 6.76013 20.3551L6.76013 5.55091ZM15.1439 18.4491L15.1439 3.64491C15.1439 3.349 15.2444 3.10096 15.4452 2.90078C15.6461 2.70061 15.895 2.60052 16.1919 2.60052C16.4888 2.60052 16.7377 2.70061 16.9386 2.90078C17.1394 3.10096 17.2399 3.349 17.2399 3.64491L17.2399 18.4491L19.231 16.4648C19.4406 16.2559 19.6851 16.1558 19.9646 16.1645C20.2441 16.1732 20.4886 16.282 20.6982 16.4909C20.8903 16.6997 20.9907 16.9434 20.9995 17.2219C21.0082 17.5004 20.9078 17.7441 20.6982 17.953L16.9255 21.7128C16.8207 21.8172 16.7071 21.8912 16.5849 21.9347C16.4626 21.9782 16.3316 22 16.1919 22C16.0522 22 15.9212 21.9782 15.7989 21.9347C15.6766 21.8912 15.5631 21.8172 15.4583 21.7128L11.6856 17.953C11.4935 17.7615 11.3974 17.5222 11.3974 17.235C11.3974 16.9478 11.4935 16.6997 11.6856 16.4909C11.8952 16.282 12.1441 16.1775 12.4323 16.1775C12.7205 16.1775 12.9694 16.282 13.179 16.4909L15.1439 18.4491Z" fill="#675B5B"/>
</svg>
