<svg width="24" height="24" viewBox="0 0 24 24" fill="none" xmlns="http://www.w3.org/2000/svg">
<path d="M7.91794 22C6.39656 22 5.47666 21.1858 5.4059 19.696L4.82211 7.4136H3.99066C3.43342 7.4136 3 7.01516 3 6.46081C3 5.91511 3.43342 5.51667 3.99066 5.51667H7.74103V4.26072C7.74103 2.81421 8.66093 2 10.3061 2H13.6762C15.3214 2 16.2501 2.81421 16.2501 4.26072V5.51667H20.0005C20.5666 5.51667 21 5.91511 21 6.46081C21 7.01516 20.5754 7.4136 20.0005 7.4136H19.169L18.5941 19.696C18.5233 21.1771 17.5946 22 16.0821 22H7.91794ZM9.77543 4.33001V5.51667H14.2157V4.33001C14.2157 3.95756 13.9504 3.73235 13.5258 3.73235H10.4565C10.0408 3.73235 9.77543 3.95756 9.77543 4.33001ZM8.18329 20.0684H15.8079C16.2767 20.0684 16.5774 19.7566 16.5951 19.2369L17.1435 7.4136H6.82998L7.39607 19.2369C7.4226 19.7479 7.72334 20.0684 8.18329 20.0684ZM9.41278 18.8125C9.0059 18.8125 8.714 18.544 8.70516 18.1455L8.44865 9.39714C8.43096 8.99004 8.70516 8.72152 9.13858 8.72152C9.5543 8.72152 9.84619 8.98138 9.85504 9.38848L10.1204 18.1369C10.1292 18.5353 9.85504 18.8125 9.41278 18.8125ZM11.9956 18.8125C11.5799 18.8125 11.288 18.544 11.288 18.1455V9.37982C11.288 8.98138 11.5799 8.72152 11.9956 8.72152C12.4201 8.72152 12.712 8.98138 12.712 9.37982V18.1455C12.712 18.544 12.4201 18.8125 11.9956 18.8125ZM14.5872 18.8125C14.145 18.8125 13.8708 18.5353 13.8796 18.1369L14.145 9.38848C14.1538 8.98138 14.4369 8.72152 14.8614 8.72152C15.286 8.72152 15.5602 8.99004 15.5514 9.39714L15.286 18.1455C15.2772 18.5526 14.9941 18.8125 14.5872 18.8125Z" fill="#675B5B"/>
</svg>
