<svg width="24" height="24" viewBox="0 0 24 24" fill="none" xmlns="http://www.w3.org/2000/svg">
<path d="M12 2C13.6569 2 15 3.34315 15 5C15 6.30588 14.1656 7.41688 13.0009 7.82898L13 9H17V11H13L13.0008 19.602C16.2929 18.3098 17.9062 16.2259 17.996 13.2647L18 13H20C20 17.3277 17.4654 20.3205 12.6185 21.8562L12.0095 22.0403L11.7331 21.9637C6.76784 20.5886 4.11669 17.6522 4.00377 13.2927L4 13H6C6 16.187 7.60937 18.361 10.9997 19.6277L11 11H7V9H11L11.0001 7.82933C9.88764 7.43617 9.07632 6.4055 9.00509 5.17627L9 5C9 3.34315 10.3431 2 12 2ZM12 4C11.4477 4 11 4.44772 11 5C11 5.55228 11.4477 6 12 6C12.5523 6 13 5.55228 13 5C13 4.44772 12.5523 4 12 4Z" fill="#001E3E"/>
</svg>
