<?xml version="1.0" encoding="UTF-8"?>
<svg width="24px" height="24px" viewBox="0 0 24 24" version="1.1" xmlns="http://www.w3.org/2000/svg" xmlns:xlink="http://www.w3.org/1999/xlink">
    <!-- Generator: Sketch 62 (91390) - https://sketch.com -->
    <title>icons / 24x24 / clock</title>
    <desc>Created with Sketch.</desc>
    <g id="icons-/-24x24-/-clock" stroke="none" stroke-width="1" fill="none" fill-rule="evenodd">
        <g id="icon" fill="#001E3E" fill-rule="nonzero">
            <path d="M17,3 C19.209139,3 21,4.790861 21,7 L21,17 C21,19.209139 19.209139,21 17,21 L7,21 C4.790861,21 3,19.209139 3,17 L3,7 C3,4.790861 4.790861,3 7,3 L17,3 Z M17,5 L7,5 C5.8954305,5 5,5.8954305 5,7 L5,17 C5,18.1045695 5.8954305,19 7,19 L17,19 C18.1045695,19 19,18.1045695 19,17 L19,7 C19,5.8954305 18.1045695,5 17,5 Z M13,8 L13,12.5 L16.6,15.2 L15.4,16.8 L11,13.5 L11,8 L13,8 Z" id="shape"></path>
        </g>
    </g>
</svg>