<?xml version="1.0" encoding="UTF-8"?>
<svg width="24px" height="24px" viewBox="0 0 24 24" version="1.1" xmlns="http://www.w3.org/2000/svg" xmlns:xlink="http://www.w3.org/1999/xlink">
    <!-- Generator: Sketch 62 (91390) - https://sketch.com -->
    <title>icons / 24x24 / crosshairs</title>
    <desc>Created with Sketch.</desc>
    <g id="icons-/-24x24-/-crosshairs" stroke="none" stroke-width="1" fill="none" fill-rule="evenodd">
        <g id="icon" stroke="#000000" stroke-width="2">
            <path d="M13,11 L11,11 L11,13 L13,13 L13,11 Z M17.9880475,12.3818177 C17.8935491,13.8865935 17.2443796,15.2409018 16.2426407,16.2426407 C15.2409018,17.2443796 13.8865935,17.8935491 12.3818177,17.9880475 C12.2560476,17.9959048 12.1292235,17.9998817 12.0014631,17.9998593 L12.0004876,20 L11.999996,20 L11.9999881,17.999859 C11.8718442,17.9999119 11.7446418,17.9959413 11.6184994,17.9880674 C10.1135968,17.8936403 8.75916859,17.24445 7.75735931,16.2426407 C6.75561986,15.2409012 6.10645016,13.886592 6.01195238,12.3818153 C6.00409516,12.2560459 6.00011833,12.1292227 6.00014074,12.0014631 L4,12.0004876 L4,11.999996 L6.00014096,11.9999881 C6.00011723,11.9424008 6.00090603,11.8850036 6.00249649,11.8278073 C6.00439822,11.7577301 6.00757453,11.6879557 6.01193247,11.6185018 C6.10588524,10.113349 6.75559574,8.75912289 7.75735931,7.75735931 C8.75912289,6.75559574 10.113349,6.10588524 11.6185018,6.01193247 C11.6879557,6.00757453 11.7577301,6.00439822 11.8278051,6.00242342 C11.8850036,6.00090603 11.9424008,6.00011723 11.9999881,6.00014096 L11.999996,4 L12.0014631,6.00014074 C12.1292227,6.00011833 12.2560459,6.00409516 12.3818153,6.01195238 C13.886592,6.10645016 15.2409012,6.75561986 16.2426407,7.75735931 C17.24445,8.7591686 17.8936404,10.1135968 17.9880674,11.6184994 C17.9959413,11.7446418 17.9999119,11.8718442 17.999859,11.9999881 L20,11.999996 L20,12.0004876 L17.9998593,12.0014631 C17.9998817,12.1292235 17.9959048,12.2560476 17.9880475,12.3818177 Z" id="crosshair-icon"></path>
        </g>
    </g>
</svg>