<svg width="24" height="24" viewBox="0 0 24 24" fill="none" xmlns="http://www.w3.org/2000/svg">
<path d="M9.84437 3C6.39053 3 3.45708 5.52832 2.94751 8.94436L0.999981 22H2.98241L4.23736 13.8523C5.16228 15.6702 7.43513 16.3828 9.36472 15.483C11.2704 14.5944 12.1866 12.4383 11.4401 10.5768L11.3599 10.3917L9.25229 5.87346L8.91929 5.08623C9.21967 5.02956 9.52898 5 9.84437 5H10.8497C12.773 5 14.4728 6.24715 15.0456 8.05507L15.3224 9H21.0324V11.0179C21.0324 12.3449 20.1606 13.5142 18.8889 13.893L14.1131 15.3158L13.3017 20H5.32341L5.00641 22H14.985L15.8722 16.8786L19.4599 15.8098C21.5795 15.1784 23.0324 13.2295 23.0324 11.0179V7H16.7886C15.8171 4.6006 13.477 3 10.8497 3H9.84437ZM7.06973 5.8458L7.42495 6.68554L9.5473 11.2369C9.95423 12.1096 9.51338 13.207 8.51948 13.6704C7.57528 14.1107 6.51367 13.8009 6.06098 13.0206L5.99467 12.8936L4.76541 10.316L4.92562 9.23944C5.13843 7.81283 5.94399 6.6033 7.06973 5.8458ZM13.0715 8C12.5192 8 12.0715 8.44772 12.0715 9C12.0715 9.55228 12.5192 10 13.0715 10C13.6238 10 14.0715 9.55228 14.0715 9C14.0715 8.44772 13.6238 8 13.0715 8Z" fill="#001E3E"/>
</svg>
