<svg xmlns="http://www.w3.org/2000/svg" width="24" height="24" viewBox="0 0 24 24">
    <path fill="#001E3E" d="M6 2v1.861l1.294-.167c1.165-.151 2.346-.073 3.478.23l.375.108 1.264.396c1.026.323 2.112.403 3.172.238l.317-.057 4.1-.833v10.04l-3.704.756c-1.361.278-2.767.236-4.107-.119l-.333-.095-1.433-.44c-.785-.241-1.605-.342-2.423-.299v-2.002c.76-.031 1.52.034 2.262.194l.37.088.378.107 1.433.44c1.017.312 2.09.388 3.14.223l.313-.056 2.104-.43v-5.96l-1.701.346c-1.262.257-2.562.239-3.811-.049l-.34-.085-.336-.098-1.264-.397c-.86-.27-1.764-.37-2.66-.298l-.336.035L6 5.878V22H4V2h2z"/>
</svg>
