<svg width="24" height="24" viewBox="0 0 24 24" fill="none" xmlns="http://www.w3.org/2000/svg">
<path d="M6 2V3.861L7.29436 3.69392C8.45857 3.54287 9.63981 3.6212 10.7717 3.92309L11.1471 4.03199L12.4105 4.42846C13.4371 4.75061 14.5227 4.83135 15.583 4.6663L15.9003 4.60941L20 3.77637V13.8166L16.2961 14.5722C14.9348 14.85 13.5292 14.8084 12.1893 14.453L11.8557 14.3576L10.4235 13.9179C9.63796 13.6767 8.81766 13.5762 8.00019 13.6193L8.00049 11.6172C8.75945 11.586 9.51946 11.6511 10.2623 11.811L10.6322 11.8988L11.0104 12.0059L12.4427 12.4456C13.4601 12.758 14.5339 12.8338 15.5826 12.6692L15.8963 12.6126L18 12.183V6.223L16.2985 6.56936C15.0367 6.82575 13.7373 6.80789 12.4878 6.5203L12.1483 6.43518L11.8117 6.33671L10.5483 5.94024C9.68783 5.67022 8.78435 5.56933 7.88758 5.64193L7.5517 5.6773L6 5.878V22H4V2H6Z" fill="#001E3E"/>
</svg>
