<?xml version="1.0" encoding="UTF-8"?>
<svg width="24px" height="24px" viewBox="0 0 24 24" version="1.1" xmlns="http://www.w3.org/2000/svg" xmlns:xlink="http://www.w3.org/1999/xlink">
    <!-- Generator: Sketch 62 (91390) - https://sketch.com -->
    <title>icons / 24x24 / info / outline circle</title>
    <desc>Created with Sketch.</desc>
    <g id="icons-/-24x24-/-info-/-outline-circle" stroke="none" stroke-width="1" fill="none" fill-rule="evenodd">
        <g id="icon" fill="#001E3E" fill-rule="nonzero">
            <path d="M12,2 C17.5228475,2 22,6.4771525 22,12 C22,17.5228475 17.5228475,22 12,22 C6.4771525,22 2,17.5228475 2,12 C2,6.4771525 6.4771525,2 12,2 Z M12,4 C7.581722,4 4,7.581722 4,12 C4,16.418278 7.581722,20 12,20 C16.418278,20 20,16.418278 20,12 C20,7.581722 16.418278,4 12,4 Z M13,10.4 L13,16.4 L11,16.4 L11,10.4 L13,10.4 Z M12,6.8 C12.6627417,6.8 13.2,7.3372583 13.2,8 C13.2,8.6627417 12.6627417,9.2 12,9.2 C11.3372583,9.2 10.8,8.6627417 10.8,8 C10.8,7.3372583 11.3372583,6.8 12,6.8 Z" id="shape"></path>
        </g>
    </g>
</svg>