<?xml version="1.0" encoding="UTF-8"?>
<svg width="24px" height="24px" viewBox="0 0 24 24" version="1.1" xmlns="http://www.w3.org/2000/svg" xmlns:xlink="http://www.w3.org/1999/xlink">
    <!-- Generator: Sketch 62 (91390) - https://sketch.com -->
    <title>icons / 24x24 / keyboard / alphabetical</title>
    <desc>Created with Sketch.</desc>
    <g id="icons-/-24x24-/-keyboard-/-alphabetical" stroke="none" stroke-width="1" fill="none" fill-rule="evenodd">
        <g id="icon" fill="#001E3E" fill-rule="nonzero">
            <path d="M22,5 L22,7 L4,7 L4,17 L20,17 L20,9 L22,9 L22,17 C22,18.1045695 21.1045695,19 20,19 L4,19 C2.8954305,19 2,18.1045695 2,17 L2,7 C2,5.8954305 2.8954305,5 4,5 L22,5 Z M17.4,14.4 C17.7313708,14.4 18,14.6686292 18,15 C18,15.3313708 17.7313708,15.6 17.4,15.6 L6.6,15.6 C6.26862915,15.6 6,15.3313708 6,15 C6,14.6686292 6.26862915,14.4 6.6,14.4 L17.4,14.4 Z M16.6802734,9.66308594 C17.5796875,9.66308594 18.1158203,10.1464844 18.1802734,10.9462891 L17.228125,10.9462891 C17.1841797,10.6416016 16.9966797,10.4599609 16.6802734,10.4599609 C16.2759766,10.4599609 16.0708984,10.7617188 16.0708984,11.3652344 C16.0708984,11.9746094 16.2789062,12.2792969 16.6802734,12.2792969 C16.9908203,12.2792969 17.18125,12.1210938 17.228125,11.8164062 L18.1802734,11.8164062 C18.11875,12.5957031 17.5650391,13.0761719 16.6802734,13.0761719 C15.6050781,13.0761719 15.0308594,12.4785156 15.0308594,11.3652344 C15.0308594,10.2578125 15.6050781,9.66308594 16.6802734,9.66308594 Z M12.2300781,8.51757812 L12.2300781,10.2636719 L12.2857422,10.2636719 C12.4439453,9.90039062 12.7955078,9.68945312 13.24375,9.68945312 C14.0699219,9.68945312 14.5445312,10.3046875 14.5445312,11.3681641 C14.5445312,12.4257812 14.0611328,13.0498047 13.24375,13.0498047 C12.7808594,13.0498047 12.4146484,12.8417969 12.259375,12.4902344 L12.259375,12.4902344 L12.2037109,12.4902344 L12.2037109,13 L11.1958984,13 L11.1958984,8.51757812 L12.2300781,8.51757812 Z M9.13046875,8.77246094 L10.5513672,13 L9.37949219,13 L9.11582031,12.0712891 L7.7359375,12.0712891 L7.46347656,13 L6.39707031,13 L7.81503906,8.77246094 L9.13046875,8.77246094 Z M12.8570312,10.5039062 C12.4703125,10.5039062 12.2271484,10.8378906 12.2242187,11.3710938 C12.2271484,11.9042969 12.4673828,12.2353516 12.8570312,12.2353516 C13.24375,12.2353516 13.4810547,11.9042969 13.4810547,11.3681641 C13.4810547,10.8378906 13.2408203,10.5039062 12.8570312,10.5039062 Z M8.45957031,9.72460938 L8.40390625,9.72460938 L7.94101562,11.2978516 L8.91367187,11.2978516 L8.45957031,9.72460938 Z" id="shape"></path>
        </g>
    </g>
</svg>