<?xml version="1.0" encoding="UTF-8"?>
<svg width="24px" height="24px" viewBox="0 0 24 24" version="1.1" xmlns="http://www.w3.org/2000/svg" xmlns:xlink="http://www.w3.org/1999/xlink">
    <!-- Generator: Sketch 62 (91390) - https://sketch.com -->
    <title>icons / 24x24 / legal-banner / solid</title>
    <desc>Created with Sketch.</desc>
    <g id="icons-/-24x24-/-legal-banner-/-solid" stroke="none" stroke-width="1" fill="none" fill-rule="evenodd">
        <g id="icon" fill="#001E3E" fill-rule="nonzero">
            <path d="M20,2 L20,22.5078713 L12,19.1291324 L4,22.5078713 L4,2 L20,2 Z M12.0488281,5.38671875 C10.3613281,5.38671875 9.24804688,6.18945312 9.24804688,7.40234375 C9.24804688,8.14648438 9.65234375,8.63867188 10.5722656,9.03710938 L10.5722656,9.03710938 L10.5722656,9.14257812 C9.69335938,9.38867188 9.16601562,9.9921875 9.16601562,10.7363281 C9.16601562,11.5859375 9.74023438,12.125 11.0996094,12.5292969 L11.0996094,12.5292969 L12.2128906,12.875 C12.8808594,13.0625 13.1796875,13.296875 13.1796875,13.6367188 C13.1796875,14.1171875 12.7167969,14.4453125 12.0546875,14.4453125 C11.4101562,14.4453125 10.9121094,14.1289062 10.8476562,13.671875 L10.8476562,13.671875 L9.2421875,13.671875 C9.30078125,14.8554688 10.4316406,15.6640625 12.03125,15.6640625 C13.71875,15.6640625 14.8554688,14.84375 14.8554688,13.6308594 C14.8554688,12.8574219 14.4101562,12.3828125 13.4199219,12.0371094 L13.4199219,12.0371094 L13.4199219,11.9316406 C14.3105469,11.7089844 14.9082031,11.046875 14.9082031,10.2792969 C14.9082031,9.46484375 14.3339844,8.92578125 12.96875,8.50390625 L12.96875,8.50390625 L11.7397401,8.11176818 C11.1652066,7.92400148 10.9355469,7.70973558 10.9355469,7.390625 C10.9355469,6.921875 11.3808594,6.60546875 12.0429688,6.60546875 C12.6757812,6.60546875 13.1445312,6.8984375 13.203125,7.33789062 L13.203125,7.33789062 L14.8027344,7.33789062 C14.7089844,6.16015625 13.6191406,5.38671875 12.0488281,5.38671875 Z M11.703125,9.55859375 L12.3945312,9.77539062 L12.5330268,9.81538222 C13.0220947,9.97420247 13.3027344,10.2651367 13.3027344,10.625 C13.3027344,11.046875 12.9101562,11.4160156 12.4003906,11.4804688 L12.4003906,11.4804688 L11.7089844,11.2636719 L11.5676812,11.2221103 C11.0687663,11.0572103 10.7832031,10.7573242 10.7832031,10.4082031 C10.7832031,9.99804688 11.1875,9.62304688 11.703125,9.55859375 L11.703125,9.55859375 Z" id="shape"></path>
        </g>
    </g>
</svg>