<svg width="24" height="24" viewBox="0 0 24 24"  xmlns="http://www.w3.org/2000/svg">
<path d="M21 3.69519V18.2571L14.015 16.6442L12.5968 18.5377C11.9128 19.4496 10.7755 19.8906 9.6648 19.6902L9.46916 19.6481L8.27239 19.3489C6.99496 19.0295 6.08222 17.9178 6.00527 16.617L6 16.4385V7.73365L21 3.69519ZM7.999 15.2562L8 16.4385C8 16.8591 8.26242 17.2303 8.64904 17.3749L8.75746 17.4086L9.95423 17.7078C10.3012 17.7946 10.6643 17.689 10.9103 17.4383L10.9968 17.3377L11.884 16.1532L7.999 15.2562ZM5 7.00003V15H3V7.00003H5Z" fill="#001E3E"/>
</svg>
