<?xml version="1.0" encoding="UTF-8"?>
<svg width="24px" height="24px" viewBox="0 0 24 24" version="1.1" xmlns="http://www.w3.org/2000/svg" xmlns:xlink="http://www.w3.org/1999/xlink">
    <!-- Generator: Sketch 62 (91390) - https://sketch.com -->
    <title>icons / 24x24 / phone</title>
    <desc>Created with Sketch.</desc>
    <g id="icons-/-24x24-/-phone" stroke="none" stroke-width="1" fill="none" fill-rule="evenodd">
        <g id="icon" fill="#001E3E" fill-rule="nonzero">
            <path d="M3,3 L9.90417242,3.02148438 L11.0012183,8.23657227 L9.90417242,9.58886719 C10.1554601,10.3894322 10.6614009,11.1931431 11.4219947,12 C12.1825885,12.8068569 13.0597451,13.47037 14.0534644,13.9905396 L15.8,12.7787476 L21,13.6258545 L21,20.6187744 C15.8965251,20.7491862 11.6686988,19.2519328 8.3688941,16.1270142 C5.06908941,13.0020955 3.27945805,8.62642415 3,3 Z M5.18590649,5.00681178 L5.25026811,5.45973837 C5.84305578,9.35267106 7.34533768,12.4032098 9.74410225,14.6748425 C12.2236019,17.0229314 15.2749688,18.3236233 18.9738135,18.5795968 L18.9738135,15.3250252 L16.2753289,14.8832031 L14.1987161,16.3240113 L13.1259404,15.7624592 C11.9358533,15.1394995 10.8801953,14.3409614 9.96667458,13.3718759 C9.01114666,12.358228 8.3451435,11.3002504 7.99596801,10.1878296 L7.67428848,9.16300678 L8.84798592,7.71622585 L8.280059,5.01644015 L5.18590649,5.00681178 Z" id="shape"></path>
        </g>
    </g>
</svg>