<?xml version="1.0" encoding="UTF-8"?>
<svg width="24px" height="24px" viewBox="0 0 24 24" version="1.1" xmlns="http://www.w3.org/2000/svg" xmlns:xlink="http://www.w3.org/1999/xlink">
    <!-- Generator: Sketch 62 (91390) - https://sketch.com -->
    <title>icons / 24x24 / plus / circle outline</title>
    <desc>Created with Sketch.</desc>
    <g id="icons-/-24x24-/-plus-/-circle-outline" stroke="none" stroke-width="1" fill="none" fill-rule="evenodd">
        <g id="icon" fill="#001E3E" fill-rule="nonzero">
            <path d="M12,2 C17.5228475,2 22,6.4771525 22,12 C22,17.5228475 17.5228475,22 12,22 C6.4771525,22 2,17.5228475 2,12 C2,6.4771525 6.4771525,2 12,2 Z M12,4 C7.581722,4 4,7.581722 4,12 C4,16.418278 7.581722,20 12,20 C16.418278,20 20,16.418278 20,12 C20,7.581722 16.418278,4 12,4 Z M13,7.5 L13.0005561,10.9993204 L16.5,11 L16.5,13 L12.999849,12.9997255 L13,16.5 L11,16.5 L11.000151,12.9997255 L7.5,13 L7.5,11 L10.9994439,10.9993204 L11,7.5 L13,7.5 Z" id="shape"></path>
        </g>
    </g>
</svg>