<?xml version="1.0" encoding="UTF-8"?>
<svg width="24px" height="24px" viewBox="0 0 24 24" version="1.1" xmlns="http://www.w3.org/2000/svg" xmlns:xlink="http://www.w3.org/1999/xlink">
    <!-- Generator: Sketch 62 (91390) - https://sketch.com -->
    <title>icons / 24x24 / qr-code</title>
    <desc>Created with Sketch.</desc>
    <g id="icons-/-24x24-/-qr-code" stroke="none" stroke-width="1" fill="none" fill-rule="evenodd">
        <g id="icon" fill="#001E3E" fill-rule="nonzero">
            <path d="M11,13 L11,22 L2,22 L2,13 L11,13 Z M16,19 L16,22 L13,22 L13,19 L16,19 Z M22,19 L22,22 L19,22 L19,19 L22,19 Z M9,15 L4,15 L4,20 L9,20 L9,15 Z M19,16 L19,19 L16,19 L16,16 L19,16 Z M22,13 L22,16 L19,16 L19,13 L22,13 Z M16,13 L16,16 L13,16 L13,13 L16,13 Z M11,2 L11,11 L2,11 L2,2 L11,2 Z M22,2 L22,11 L13,11 L13,2 L22,2 Z M9,4 L4,4 L4,9 L9,9 L9,4 Z M20,4 L15,4 L15,9 L20,9 L20,4 Z M8,5 L8,8 L5,8 L5,5 L8,5 Z" id="shape"></path>
        </g>
    </g>
</svg>