<?xml version="1.0" encoding="UTF-8"?>
<svg width="24px" height="24px" viewBox="0 0 24 24" version="1.1" xmlns="http://www.w3.org/2000/svg" xmlns:xlink="http://www.w3.org/1999/xlink">
    <!-- Generator: Sketch 62 (91390) - https://sketch.com -->
    <title>icons / 24x24 / shield</title>
    <desc>Created with Sketch.</desc>
    <g id="icons-/-24x24-/-shield" stroke="none" stroke-width="1" fill="none" fill-rule="evenodd">
        <path d="M12,2 L21,6.49505615 L21,7.1133939 C21,12.4595967 18.4420319,17.4830721 14.1184731,20.6277063 L12,22.1685257 L9.88152687,20.6277063 C5.55796813,17.4830721 3,12.4595967 3,7.1133939 L3,6.49505615 L12,2 Z M12,4.23557687 L5.01270641,7.72538543 L5.03361196,8.10821735 C5.3266331,12.4376185 7.52128228,16.4379838 11.057926,19.0102747 L12,19.6954691 L12.942074,19.0102747 C16.5827366,16.3623281 18.801303,12.2010676 18.9872936,7.72538543 L12,4.23557687 Z M15.9440369,8.00252685 L17.3506897,9.42426095 L11.4005159,15.3113173 L7.93285451,12.2057335 L9.26714549,10.7158786 L11.3322708,12.5653728 L15.9440369,8.00252685 Z" id="shape" fill="#001E3E" fill-rule="nonzero"></path>
    </g>
</svg>