<?xml version="1.0" encoding="UTF-8"?>
<svg width="24px" height="24px" viewBox="0 0 24 24" version="1.1" xmlns="http://www.w3.org/2000/svg" xmlns:xlink="http://www.w3.org/1999/xlink">
    <!-- Generator: Sketch 62 (91390) - https://sketch.com -->
    <title>icons / 24x24 / speedometer</title>
    <desc>Created with Sketch.</desc>
    <g id="icons-/-24x24-/-speedometer" stroke="none" stroke-width="1" fill="none" fill-rule="evenodd">
        <g id="icon" fill="#001E3E" fill-rule="nonzero">
            <path d="M12,4.53399299 C17.5228475,4.53399299 22,9.01114549 22,14.533993 C22,15.5795234 21.8395465,16.5875778 21.5419205,17.5348755 L19.4180912,17.5349607 C19.793349,16.6082668 20,15.5952628 20,14.533993 C20,10.115715 16.418278,6.53399299 12,6.53399299 C11.722807,6.53399299 11.4489067,6.54809076 11.178977,6.57560841 L10.01402,4.7311938 C10.6558923,4.60186139 11.3200204,4.53399299 12,4.53399299 Z M4.77437785,7.62091199 L5.88375291,9.37702399 C4.70840595,10.7695799 4,12.5690579 4,14.533993 C4,15.5952628 4.20665097,16.6082668 4.58190884,17.5349607 L2.45807951,17.5348755 C2.16045347,16.5875778 2,15.5795234 2,14.533993 C2,11.8520614 3.05577452,9.41671916 4.77437785,7.62091199 Z M7.19097781,4 L12.5814889,12.5356229 C13.6482753,12.5783732 14.5,13.4567176 14.5,14.533993 C14.5,15.6385625 13.6045695,16.533993 12.5,16.533993 C11.3954305,16.533993 10.5,15.6385625 10.5,14.533993 C10.5,14.1427048 10.6123671,13.7776614 10.8065929,13.4693712 L5.5,5.06798598 L7.19097781,4 Z" id="shape"></path>
        </g>
    </g>
</svg>