<?xml version="1.0" encoding="UTF-8"?>
<svg width="24px" height="24px" viewBox="0 0 24 24" version="1.1" xmlns="http://www.w3.org/2000/svg" xmlns:xlink="http://www.w3.org/1999/xlink">
    <!-- Generator: Sketch 62 (91390) - https://sketch.com -->
    <title>icons / 24x24 / travel expenses</title>
    <desc>Created with Sketch.</desc>
    <g id="icons-/-24x24-/-travel-expenses" stroke="none" stroke-width="1" fill="none" fill-rule="evenodd">
        <g id="icon" fill="#001E3E" fill-rule="nonzero">
            <path d="M22,8 L22,22 L11,22 L11,8 L22,8 Z M20,10 L13,10 L13,20 L20,20 L20,10 Z M18.5,17 L18.5,18.8 L14.5,18.8 L14.5,17 L18.5,17 Z M12.2222222,1 C13.1549698,1 13.9199414,1.71833425 13.9941067,2.63197236 L14,2.77777778 L14,4 L18,4 L18,6 L4,6 L4,14 L9,14 L9,16 L2,16 L2,4 L7,4 L7,2.77777778 C7,1.8450302 7.71833425,1.08005858 8.63197236,1.00589328 L8.77777778,1 L12.2222222,1 Z M17.5,14 L17.5,15.8 L14.5,15.8 L14.5,14 L17.5,14 Z M18.5,11 L18.5,12.8 L14.5,12.8 L14.5,11 L18.5,11 Z M12,3 L9,3 L9,4 L12,4 L12,3 Z" id="shape"></path>
        </g>
    </g>
</svg>