<svg width="24" height="24" viewBox="0 0 24 24" fill="none" xmlns="http://www.w3.org/2000/svg">
<path d="M15.6586 15H18.6181L20.8945 19.5528L19.1056 20.4472L17.382 17H16C16 20.3137 13.3137 23 10 23C6.68632 23 4.00003 20.3137 4.00003 17C4.00003 13.6863 6.68632 11 10 11C10.5142 11 11.0133 11.0647 11.4896 11.1863L12.3107 9.33876C11.5791 9.11842 10.8034 9 10 9C8.19892 9 6.53682 9.5952 5.19971 10.5996L3.86731 9.10069C5.56077 7.78406 7.68884 7 10 7C11.7904 7 13.4709 7.47052 14.9246 8.29464L13.3135 11.9971C14.389 12.7109 15.2211 13.7622 15.6586 15ZM10 21C12.2092 21 14 19.2091 14 17C14 14.7909 12.2092 13 10 13C7.79089 13 6.00003 14.7909 6.00003 17C6.00003 19.2091 7.79089 21 10 21ZM16.5 8C14.567 8 13 6.433 13 4.5C13 2.567 14.567 1 16.5 1C18.433 1 20 2.567 20 4.5C20 6.433 18.433 8 16.5 8ZM16.5 6C17.3285 6 18 5.32843 18 4.5C18 3.67157 17.3285 3 16.5 3C15.6716 3 15 3.67157 15 4.5C15 5.32843 15.6716 6 16.5 6Z" fill="#001E3E"/>
</svg>
