<svg width="24" height="24" viewBox="0 0 24 24" fill="none" xmlns="http://www.w3.org/2000/svg">
<path d="M16.9752 12C14.7797 12 13 10.2091 13 8C13 5.79086 14.7797 4 16.9752 4C19.1706 4 20.9503 5.79086 20.9503 8C20.9503 10.2091 19.1706 12 16.9752 12ZM16 13H18C20.2091 13 22 14.7909 22 17V22H16V15C16 14.3039 15.8815 13.6356 15.6635 13.014C15.7744 13.0047 15.8867 13 16 13ZM6 11H10C12.2091 11 14 12.7909 14 15V22H2V15C2 12.7909 3.79086 11 6 11ZM7.97516 10C5.77974 10 4 8.20914 4 6C4 3.79086 5.77974 2 7.97516 2C10.1706 2 11.9503 3.79086 11.9503 6C11.9503 8.20914 10.1706 10 7.97516 10Z" fill="#001E3E"/>
</svg>
