<svg width="24" height="24" viewBox="0 0 24 24" fill="none" xmlns="http://www.w3.org/2000/svg">
<path d="M10 11C11.4805 11 12.7732 11.8043 13.4648 12.9999L18 13C20.2091 13 22 14.7909 22 17V22H16V20H20V17C20 15.8954 19.1046 15 18 15H14V22H12V15C12 13.8954 11.1046 13 10 13H6C4.89543 13 4 13.8954 4 15V20H10V22H2V15C2 12.7909 3.79086 11 6 11H10ZM17 4C19.2091 4 21 5.79086 21 8C21 10.2091 19.2091 12 17 12C14.7909 12 13 10.2091 13 8C13 5.79086 14.7909 4 17 4ZM8 2C10.2091 2 12 3.79086 12 6C12 8.20914 10.2091 10 8 10C5.79086 10 4 8.20914 4 6C4 3.79086 5.79086 2 8 2ZM17 6C15.8954 6 15 6.89543 15 8C15 9.10457 15.8954 10 17 10C18.1046 10 19 9.10457 19 8C19 6.89543 18.1046 6 17 6ZM8 4C6.89543 4 6 4.89543 6 6C6 7.10457 6.89543 8 8 8C9.10457 8 10 7.10457 10 6C10 4.89543 9.10457 4 8 4Z" fill="#001E3E"/>
</svg>
