<?xml version="1.0" encoding="UTF-8"?>
<svg width="28px" height="28px" viewBox="0 0 28 28" version="1.1" xmlns="http://www.w3.org/2000/svg" xmlns:xlink="http://www.w3.org/1999/xlink">
    <!-- Generator: Sketch 62 (91390) - https://sketch.com -->
    <title>icons / 28x28 / leaf circle</title>
    <desc>Created with Sketch.</desc>
    <g id="icons-/-28x28-/-leaf-circle" stroke="none" stroke-width="1" fill="none" fill-rule="evenodd">
        <g id="icon" fill="#069D4F" fill-rule="nonzero">
            <path d="M14,2 C20.627417,2 26,7.372583 26,14 C26,20.627417 20.627417,26 14,26 C7.372583,26 2,20.627417 2,14 C2,7.372583 7.372583,2 14,2 Z M14,4 C8.4771525,4 4,8.4771525 4,14 C4,19.5228475 8.4771525,24 14,24 C14.6852782,24 15.3544568,23.9310698 16.0009807,23.7997646 L16,16 C16,13.790861 14.209139,12 12,12 L12,13.6 C13.3254834,13.6 14.4,14.6745166 14.4,16 L14.4,21.2 L14.2,21.2 C11.2176624,21.2 8.8,18.7823377 8.8,15.8 L8.8,11.2 C8.8,10.7581722 8.4418278,10.4 8,10.4 L8,8 L14.4,8 C17.4927946,8 20,10.5072054 20,13.6 L20,16 C20,17.6402552 19.0127238,19.0499198 17.6,19.667165 L17.6007105,23.3321348 C21.3443841,21.8867144 24,18.2534834 24,14 C24,8.4771525 19.5228475,4 14,4 Z" id="shape"></path>
        </g>
    </g>
</svg>