<?xml version="1.0" encoding="UTF-8"?>
<svg width="24px" height="24px" viewBox="0 0 24 24" version="1.1" xmlns="http://www.w3.org/2000/svg" xmlns:xlink="http://www.w3.org/1999/xlink">
    <!-- Generator: Sketch 62 (91390) - https://sketch.com -->
    <title>icons / 24x24 / leaf / outline</title>
    <desc>Created with Sketch.</desc>
    <g id="icons-/-24x24-/-leaf-/-outline" stroke="none" stroke-width="1" fill="none" fill-rule="evenodd">
        <g id="icon" fill="#001E3E" fill-rule="nonzero">
            <path d="M6.29730464,4 C6.73784166,4.54505287 7,5.24620556 7,6 L7,11 C7,13.615791 8.66806253,15.8370092 11,16.659467 L11,18.7484939 C7.54758347,17.8615474 5,14.7311326 5,11 L5,6 C5,5.41759699 4.58240301,5 4,5 L4,2 L12,2 C16.0204093,2 19,4.97959069 19,9 L19,12 C18.9182687,14.3271855 17.2268761,16.5323595 15,16.9347937 L15,22 L13,22 L13,11.5458758 C13,10.0098179 11.3204099,9 9.78435198,9 L9,9 L9,7 L9.78435198,7 C12.4249794,7 15,8.90524836 15,11.5458758 L15,14.8736669 C16.1367959,14.4716526 16.9574954,13.1751503 17.0012323,11.9298028 C17.0004108,10.0177896 17,9.04118871 17,9 C17,6.08416019 14.9158398,4 12,4 L6.29730464,4 L6.29730464,4 Z" id="shape"></path>
        </g>
    </g>
</svg>