<?xml version="1.0" encoding="UTF-8"?>
<svg width="24px" height="24px" viewBox="0 0 24 24" version="1.1" xmlns="http://www.w3.org/2000/svg" xmlns:xlink="http://www.w3.org/1999/xlink">
    <!-- Generator: Sketch 62 (91390) - https://sketch.com -->
    <title>icons / 24x24 / leaf / solid</title>
    <desc>Created with Sketch.</desc>
    <g id="icons-/-24x24-/-leaf-/-solid" stroke="none" stroke-width="1" fill="none" fill-rule="evenodd">
        <g id="icon" fill="#001E3E" fill-rule="nonzero">
            <path d="M14,22 L14,12 C14,9.23857625 11.7614237,7 9,7 L9,9 C10.6568542,9 12,10.3431458 12,12 L12,18.5 L11.75,18.5 C8.02207794,18.5 5,15.4779221 5,11.75 L5,6 C5,5.44771525 4.55228475,5 4,5 L4,2 L12,2 C15.8659932,2 19,5.13400675 19,9 L19,12 C19,14.050319 17.7659048,15.8123997 16,16.5839563 L16,22 L14,22 Z" id="shape"></path>
        </g>
    </g>
</svg>