<svg width="24" height="24" viewBox="0 0 24 24" fill="none" xmlns="http://www.w3.org/2000/svg">
<path d="M6.2973 4C6.73784 4.54505 7 5.24621 7 6V11C7 13.6158 8.66806 15.837 11 16.6595V18.7485C7.54758 17.8615 5 14.7311 5 11V6C5 5.4176 4.5824 5 4 5V2H12C16.0204 2 19 4.97959 19 9V12C18.9183 14.3272 17.2269 16.5324 15 16.9348V22H13V11.5459C13 10.0098 11.3204 9 9.78435 9H9V7H9.78435C12.425 7 15 8.90525 15 11.5459V14.8737C16.1368 14.4717 16.9575 13.1751 17.0012 11.9298C17.0004 10.0178 17 9.04119 17 9C17 6.08416 14.9158 4 12 4H6.2973Z" fill="#001E3E"/>
</svg>
