<?xml version="1.0" encoding="UTF-8"?>
<svg width="28px" height="28px" viewBox="0 0 28 28" version="1.1" xmlns="http://www.w3.org/2000/svg" xmlns:xlink="http://www.w3.org/1999/xlink">
    <!-- Generator: Sketch 62 (91390) - https://sketch.com -->
    <title>icons / 28x28 / lite circle</title>
    <desc>Created with Sketch.</desc>
    <g id="icons-/-28x28-/-lite-circle" stroke="none" stroke-width="1" fill="none" fill-rule="evenodd">
        <g id="icon" fill="#069D4F" fill-rule="nonzero">
            <path d="M14,2 C20.627417,2 26,7.372583 26,14 C26,20.627417 20.627417,26 14,26 C7.372583,26 2,20.627417 2,14 C2,7.372583 7.372583,2 14,2 Z M14,4 C8.4771525,4 4,8.4771525 4,14 C4,19.5228475 8.4771525,24 14,24 C19.5228475,24 24,19.5228475 24,14 C24,8.4771525 19.5228475,4 14,4 Z M14.5362628,8 C15.3280653,8 16.0874376,8.31454231 16.6473265,8.87443121 L21.1255688,13.3526735 C22.2914771,14.5185817 22.2914771,16.4088926 21.1255688,17.5748008 L17.5748008,21.1255688 C16.4088926,22.2914771 14.5185817,22.2914771 13.3526735,21.1255688 L8.87443121,16.6473265 C8.31454231,16.0874376 8,15.3280653 8,14.5362628 L8,8 L14.5362628,8 Z M12.1050554,10.9854949 C11.4867392,10.9854949 10.9854949,11.4867392 10.9854949,12.1050554 C10.9854949,12.7233717 11.4867392,13.224616 12.1050554,13.224616 C12.7233717,13.224616 13.224616,12.7233717 13.224616,12.1050554 C13.224616,11.4867392 12.7233717,10.9854949 12.1050554,10.9854949 Z" id="shape"></path>
        </g>
    </g>
</svg>