<?xml version="1.0" encoding="UTF-8"?>
<svg width="28px" height="28px" viewBox="0 0 28 28" version="1.1" xmlns="http://www.w3.org/2000/svg" xmlns:xlink="http://www.w3.org/1999/xlink">
    <!-- Generator: Sketch 62 (91390) - https://sketch.com -->
    <title>icons / 28x28 / two-people circle</title>
    <desc>Created with Sketch.</desc>
    <g id="icons-/-28x28-/-two-people-circle" stroke="none" stroke-width="1" fill="none" fill-rule="evenodd">
        <g id="icon" fill="#069D4F" fill-rule="nonzero">
            <path d="M14,2 C20.627417,2 26,7.372583 26,14 C26,20.627417 20.627417,26 14,26 C7.372583,26 2,20.627417 2,14 C2,7.372583 7.372583,2 14,2 Z M14,4 C8.4771525,4 4,8.4771525 4,14 C4,16.2520086 4.74441627,18.3301494 6.00060068,20.0017743 L6,18.4 C6,16.6326888 7.4326888,15.2 9.2,15.2 L12.4,15.2 C14.1673112,15.2 15.6,16.6326888 15.6,18.4 L15.6009882,23.8725294 C16.1503508,23.7841297 16.6847454,23.6509799 17.2003135,23.4769382 L17.2,18.4 C17.2,17.8431523 17.1051784,17.3084514 16.9308008,16.811163 C17.0195544,16.8037704 17.1093369,16.8 17.2,16.8 L18.8,16.8 C20.5673112,16.8 22,18.2326888 22,20 L22.0084712,19.9896832 C23.259167,18.3201332 24,16.246582 24,14 C24,8.4771525 19.5228475,4 14,4 Z M17.9801242,9.6 C19.7364583,9.6 21.1602485,11.0326888 21.1602485,12.8 C21.1602485,14.5673112 19.7364583,16 17.9801242,16 C16.2237901,16 14.8,14.5673112 14.8,12.8 C14.8,11.0326888 16.2237901,9.6 17.9801242,9.6 Z M10.7801242,8 C12.5364583,8 13.9602485,9.4326888 13.9602485,11.2 C13.9602485,12.9673112 12.5364583,14.4 10.7801242,14.4 C9.02379011,14.4 7.6,12.9673112 7.6,11.2 C7.6,9.4326888 9.02379011,8 10.7801242,8 Z" id="shape"></path>
        </g>
    </g>
</svg>