<?xml version="1.0" encoding="UTF-8"?>
<svg width="24px" height="24px" viewBox="0 0 24 24" version="1.1" xmlns="http://www.w3.org/2000/svg" xmlns:xlink="http://www.w3.org/1999/xlink">
    <!-- Generator: Sketch 62 (91390) - https://sketch.com -->
    <title>icons / 24x24 / two-people / outline</title>
    <desc>Created with Sketch.</desc>
    <g id="icons-/-24x24-/-two-people-/-outline" stroke="none" stroke-width="1" fill="none" fill-rule="evenodd">
        <g id="icon" fill="#001E3E" fill-rule="nonzero">
            <path d="M10,11 C11.480515,11 12.7731656,11.8043432 13.4648015,12.9998796 L18,13 C20.209139,13 22,14.790861 22,17 L22,17 L22,22 L16,22 L16,20 L20,20 L20,17 C20,15.8954305 19.1045695,15 18,15 L18,15 L14,15 L14,22 L12,22 L12,15 C12,13.8954305 11.1045695,13 10,13 L10,13 L6,13 C4.8954305,13 4,13.8954305 4,15 L4,15 L4,20 L10,20 L10,22 L2,22 L2,15 C2,12.790861 3.790861,11 6,11 L6,11 Z M17,4 C19.209139,4 21,5.790861 21,8 C21,10.209139 19.209139,12 17,12 C14.790861,12 13,10.209139 13,8 C13,5.790861 14.790861,4 17,4 Z M8,2 C10.209139,2 12,3.790861 12,6 C12,8.209139 10.209139,10 8,10 C5.790861,10 4,8.209139 4,6 C4,3.790861 5.790861,2 8,2 Z M17,6 C15.8954305,6 15,6.8954305 15,8 C15,9.1045695 15.8954305,10 17,10 C18.1045695,10 19,9.1045695 19,8 C19,6.8954305 18.1045695,6 17,6 Z M8,4 C6.8954305,4 6,4.8954305 6,6 C6,7.1045695 6.8954305,8 8,8 C9.1045695,8 10,7.1045695 10,6 C10,4.8954305 9.1045695,4 8,4 Z" id="shape"></path>
        </g>
    </g>
</svg>