<?xml version="1.0" encoding="UTF-8"?>
<svg width="24px" height="24px" viewBox="0 0 24 24" version="1.1" xmlns="http://www.w3.org/2000/svg" xmlns:xlink="http://www.w3.org/1999/xlink">
    <!-- Generator: Sketch 62 (91390) - https://sketch.com -->
    <title>icons / 24x24 / two-people / solid</title>
    <desc>Created with Sketch.</desc>
    <g id="icons-/-24x24-/-two-people-/-solid" stroke="none" stroke-width="1" fill="none" fill-rule="evenodd">
        <g id="icon" fill="#001E3E" fill-rule="nonzero">
            <path d="M16.9751553,12 C14.7797376,12 13,10.209139 13,8 C13,5.790861 14.7797376,4 16.9751553,4 C19.1705729,4 20.9503106,5.790861 20.9503106,8 C20.9503106,10.209139 19.1705729,12 16.9751553,12 Z M16,13 L18,13 C20.209139,13 22,14.790861 22,17 L22,22 L16,22 L16,15 C16,14.3039404 15.881473,13.6355642 15.663501,13.0139537 C15.774443,13.004713 15.8866711,13 16,13 Z M6,11 L10,11 C12.209139,11 14,12.790861 14,15 L14,22 L2,22 L2,15 C2,12.790861 3.790861,11 6,11 Z M7.97515528,10 C5.77973764,10 4,8.209139 4,6 C4,3.790861 5.77973764,2 7.97515528,2 C10.1705729,2 11.9503106,3.790861 11.9503106,6 C11.9503106,8.209139 10.1705729,10 7.97515528,10 Z" id="shape"></path>
        </g>
    </g>
</svg>