<?xml version="1.0" encoding="UTF-8"?>
<svg width="28px" height="28px" viewBox="0 0 28 28" version="1.1" xmlns="http://www.w3.org/2000/svg" xmlns:xlink="http://www.w3.org/1999/xlink">
    <!-- Generator: Sketch 62 (91390) - https://sketch.com -->
    <title>icons / 28x28 / wheelchair circle</title>
    <desc>Created with Sketch.</desc>
    <g id="icons-/-28x28-/-wheelchair-circle" stroke="none" stroke-width="1" fill="none" fill-rule="evenodd">
        <g id="icon" fill="#000F1F">
            <path d="M14,2 C20.627417,2 26,7.372583 26,14 C26,20.627417 20.627417,26 14,26 C7.372583,26 2,20.627417 2,14 C2,7.372583 7.372583,2 14,2 Z M14,4 C8.4771525,4 4,8.4771525 4,14 C4,19.5228475 8.4771525,24 14,24 C19.5228475,24 24,19.5228475 24,14 C24,8.4771525 19.5228475,4 14,4 Z M11.5278888,10.3636364 C12.84977,10.3636364 14.0905138,10.7058303 15.1638063,11.3051954 L13.9742649,13.9979009 C14.7683633,14.517011 15.3827177,15.2816294 15.7057204,16.1818182 L17.890729,16.1818182 L19.5714286,19.4929356 L18.2506871,20.1434281 L16.9781191,17.6363636 L15.9577902,17.6363636 C15.9577902,20.0463335 13.9744558,22 11.5278888,22 C9.08132178,22 7.09798735,20.0463335 7.09798735,17.6363636 C7.09798735,15.2263938 9.08132178,13.2727273 11.5278888,13.2727273 C11.9075169,13.2727273 12.2759919,13.3197657 12.6276344,13.4082485 L13.2339002,12.0645554 C12.6937742,11.9043072 12.1210421,11.8181818 11.5278888,11.8181818 C10.1980991,11.8181818 8.97094824,12.2510577 7.98373706,12.9815627 L7,11.8914132 C8.25031171,10.9338592 9.82149767,10.3636364 11.5278888,10.3636364 Z M16.3269487,6 C17.7541127,6 18.9110578,7.13963882 18.9110578,8.54545455 C18.9110578,9.95127027 17.7541127,11.0909091 16.3269487,11.0909091 C14.8997846,11.0909091 13.7428395,9.95127027 13.7428395,8.54545455 C13.7428395,7.13963882 14.8997846,6 16.3269487,6 Z" id="shape"></path>
        </g>
    </g>
</svg>