<?xml version="1.0" encoding="UTF-8"?>
<svg width="24px" height="24px" viewBox="0 0 24 24" version="1.1" xmlns="http://www.w3.org/2000/svg" xmlns:xlink="http://www.w3.org/1999/xlink">
    <!-- Generator: Sketch 62 (91390) - https://sketch.com -->
    <title>icons / 24x24 / wheelchair / solid</title>
    <desc>Created with Sketch.</desc>
    <g id="icons-/-24x24-/-wheelchair-/-solid" stroke="none" stroke-width="1" fill="none" fill-rule="evenodd">
        <g id="icon" fill="#001E3E" fill-rule="nonzero">
            <path d="M16,17 C16,20.3137085 13.3137085,23 10,23 C6.6862915,23 4,20.3137085 4,17 C4,13.6862915 6.6862915,11 10,11 C10.5141805,11 11.0132547,11.0646779 11.4895306,11.1863417 L12.3106764,9.33876364 C11.5791125,9.11842245 10.8033858,9 10,9 C8.19889032,9 6.53679806,9.59520438 5.19968771,10.5996487 L3.86728281,9.10069316 C5.56074493,7.78405643 7.68880937,7 10,7 C11.7903981,7 13.4709012,7.47051668 14.9246028,8.29464362 L13.31345,11.9971137 C14.3890022,12.7108901 15.2211034,13.7622404 15.6585886,15 L18.618034,15 L20.8944272,19.5527864 L19.1055728,20.4472136 L17.381966,17 L16,17 L16,17 Z M16.5,8 C14.5670034,8 13,6.43299662 13,4.5 C13,2.56700338 14.5670034,1 16.5,1 C18.4329966,1 20,2.56700338 20,4.5 C20,6.43299662 18.4329966,8 16.5,8 Z" id="shape"></path>
        </g>
    </g>
</svg>