<?xml version="1.0" standalone="no"?>
<!DOCTYPE svg PUBLIC "-//W3C//DTD SVG 20010904//EN"
 "http://www.w3.org/TR/2001/REC-SVG-20010904/DTD/svg10.dtd">
<svg version="1.0" xmlns="http://www.w3.org/2000/svg"
 width="1592.000000pt" height="1592.000000pt" viewBox="0 0 1592.000000 1592.000000"
 preserveAspectRatio="xMidYMid meet">
<metadata>
Created by potrace 1.14, written by Peter Selinger 2001-2017
</metadata>
<g transform="translate(0.000000,1592.000000) scale(0.100000,-0.100000)"
fill="#000000" stroke="none">
<path d="M7670 15913 c-1701 -63 -3357 -677 -4675 -1732 -446 -358 -898 -810
-1256 -1256 -932 -1163 -1523 -2595 -1688 -4090 -36 -319 -45 -503 -45 -870 0
-459 24 -788 90 -1215 211 -1373 787 -2681 1658 -3765 245 -306 680 -760 957
-1001 1124 -977 2466 -1616 3904 -1859 496 -84 806 -109 1335 -109 410 0 555
7 895 45 1253 138 2484 589 3535 1294 1387 930 2441 2262 3028 3830 444 1186
598 2497 441 3755 -184 1478 -770 2858 -1707 4024 -324 402 -794 870 -1207
1202 -1480 1190 -3371 1818 -5265 1747z m6013 -7158 l215 -210 -211 -205
c-117 -113 -626 -607 -1133 -1098 -506 -491 -945 -911 -975 -933 -394 -297
-897 -374 -1394 -213 -104 34 -291 130 -380 196 -63 46 -590 567 -1075 1062
-245 250 -326 313 -500 395 -125 58 -196 74 -330 74 -176 0 -297 -30 -460
-115 -53 -27 -127 -72 -165 -100 -39 -29 -509 -489 -1055 -1034 l-985 -982
-535 526 c-295 290 -677 666 -850 835 l-315 309 215 208 c118 115 220 209 225
209 6 0 291 -276 635 -614 l625 -614 765 763 c421 420 797 791 837 824 235
199 499 318 823 373 99 17 375 17 470 0 262 -46 506 -160 740 -346 57 -45 535
-523 1060 -1058 91 -93 192 -189 225 -214 74 -57 219 -127 305 -149 153 -39
340 -33 490 15 196 63 155 26 1390 1226 613 596 1118 1083 1121 1082 4 -1 103
-96 222 -212z"/>
</g>
</svg>
