<svg width="24" height="24" viewBox="0 0 24 24" fill="none" xmlns="http://www.w3.org/2000/svg">
<path fill-rule="evenodd" clip-rule="evenodd" d="M13 1H11V3.05493C6.82838 3.51608 3.51608 6.82838 3.05493 11H1V13H3.05493C3.51608 17.1716 6.82838 20.4839 11 20.9451V23H13V20.9451C17.1716 20.4839 20.4839 17.1716 20.9451 13H23V11H20.9451C20.4839 6.82838 17.1716 3.51608 13 3.05493V1ZM12 19C15.866 19 19 15.866 19 12C19 8.13401 15.866 5 12 5C8.13401 5 5 8.13401 5 12C5 15.866 8.13401 19 12 19Z" fill="#001E3E"/>
</svg>
