<svg width="24" height="24" viewBox="0 0 24 24" fill="none" xmlns="http://www.w3.org/2000/svg">
<path d="M12.5027 2.85535L23.5592 9.01622L19.5 11.2643V17.2628L19.2214 17.553C17.6468 19.1935 15.3851 20 12.5 20C9.61487 20 7.35312 19.1935 5.77853 17.553L5.49998 17.2628V11.2643L4.49931 10.7093L4.49998 17H2.49998L2.49931 9.60235L1.44031 9.01596L12.5027 2.85535ZM17.4993 12.2453L12.5 15.0162L7.49931 12.2453L7.49998 16.4371C8.65589 17.4718 10.3058 18 12.5 18C14.6941 18 16.3441 17.4718 17.5 16.4371L17.4993 12.2453ZM12.5025 5.01754L5.33052 9.01156L12.5 12.9838L19.6699 9.01134L12.5025 5.01754Z" fill="#001E3E"/>
</svg>
