<svg width="24" height="24" viewBox="0 0 24 24" fill="none" xmlns="http://www.w3.org/2000/svg">
<path d="M15 19.375L13.4731 18.039L13.8462 17.7284L17.3198 14.6774C17.7522 14.2977 18 13.7501 18 13.1747V6C18 4.89543 17.1046 4 16 4H8C6.89543 4 6 4.89543 6 6V13.1751C6 13.7503 6.24767 14.2977 6.67975 14.6774L13.5093 20.6793L12 22L5.36598 16.1952C4.49792 15.4357 4 14.3384 4 13.1849V6C4 3.79086 5.79086 2 8 2H16C18.2091 2 20 3.79086 20 6V13.1849C20 14.3384 19.5021 15.4357 18.634 16.1952L15 19.375Z" fill="#001E3E"/>
</svg>
