<?xml version="1.0" encoding="UTF-8"?>
<svg width="24px" height="24px" viewBox="0 0 24 24" version="1.1" xmlns="http://www.w3.org/2000/svg" xmlns:xlink="http://www.w3.org/1999/xlink">
    <!-- Generator: Sketch 62 (91390) - https://sketch.com -->
    <title>icons / 24x24 / plane</title>
    <desc>Created with Sketch.</desc>
    <g id="icons-/-24x24-/-plane" stroke="none" stroke-width="1" fill="none" fill-rule="evenodd">
        <g id="icon" fill="#001E3E" fill-rule="nonzero">
            <path d="M22,19 L22,21 L2,21 L2,19 L22,19 Z M11.3214929,3.59589285 L15.0627125,6.49076333 L19.0588061,4.69913794 L19.2809156,4.61065984 C20.6580967,4.12835052 22.1926066,4.78980619 22.7699383,6.14600188 C23.3777454,7.57378645 22.7414372,9.22422369 21.3299396,9.88102782 L6.03099161,17 L2,9.88739311 L5.43099763,8.62685759 L7.59295125,10.0233613 L9.86965635,8.97890019 L5.82678471,4.17375958 L8.60558979,3.1698838 C9.52430217,2.83798823 10.5499143,2.99886291 11.3214929,3.59589285 Z M9.28837526,5.04158022 L9.19500277,5.07531213 L13.0835963,9.69708606 L7.42883624,12.2912635 L5.18297565,10.8405605 L4.89696785,10.9456387 L6.86301692,14.4146943 L20.4823964,8.07726617 C20.9187082,7.87423969 21.1153991,7.36406863 20.9275182,6.92272234 C20.7581568,6.52487953 20.2967735,6.33899227 19.8969899,6.50753153 L14.7858617,8.79885738 L10.0932651,5.16783302 C9.86459873,4.99089617 9.56064649,4.94321906 9.28837526,5.04158022 Z" id="shape"></path>
        </g>
    </g>
</svg>