<svg width="24" height="24" viewBox="0 0 24 24" fill="none" xmlns="http://www.w3.org/2000/svg">
<path d="M22 19V21H2V19H22ZM11.3215 3.59589L15.0627 6.49076L19.0588 4.69914L19.2809 4.61066C20.6581 4.12835 22.1926 4.78981 22.7699 6.146C23.3777 7.57379 22.7414 9.22422 21.3299 9.88103L6.03099 17L2 9.88739L5.431 8.62686L7.59295 10.0234L9.86966 8.9789L5.82678 4.17376L8.60559 3.16988C9.5243 2.83799 10.5499 2.99886 11.3215 3.59589ZM9.28837 5.04158L9.195 5.07531L13.0836 9.69709L7.42884 12.2913L5.18298 10.8406L4.89697 10.9456L6.86302 14.4147L20.4824 8.07727C20.9187 7.87424 21.1154 7.36407 20.9275 6.92272C20.7582 6.52488 20.2968 6.33899 19.897 6.50753L14.7859 8.79886L10.0933 5.16783C9.8646 4.9909 9.56065 4.94322 9.28837 5.04158Z" fill="#001E3E"/>
</svg>
