<?xml version="1.0" encoding="UTF-8"?>
<svg width="24px" height="24px" viewBox="0 0 24 24" version="1.1" xmlns="http://www.w3.org/2000/svg" xmlns:xlink="http://www.w3.org/1999/xlink">
    <!-- Generator: Sketch 62 (91390) - https://sketch.com -->
    <title>icons / 24x24 / envelope-reinvite</title>
    <desc>Created with Sketch.</desc>
    <g id="icons-/-24x24-/-envelope-reinvite" stroke="none" stroke-width="1" fill="none" fill-rule="evenodd">
        <g id="icon" fill="#001E3E" fill-rule="nonzero">
            <path d="M18,10 L18,22 L2,22 L2,10 L18,10 Z M4,13.044 L4,20 L16,20 L16,13.163 L12.5057464,15.804555 C11.0815902,16.8805842 9.13430066,16.9103967 7.68230119,15.9011195 L7.50345456,15.7695485 L4,13.044 Z M8.4788197,0.279232678 L8.79541834,4.94953575 C10.2623529,3.14956107 12.4969292,2 15,2 C19.418278,2 23,5.581722 23,10 C23,12.5261044 21.8291847,14.7787503 20.0006084,16.2448832 L20.0008411,13.3165298 C20.632174,12.3664763 21,11.2261933 21,10 C21,6.6862915 18.3137085,4 15,4 C13.0423442,4 11.3036663,4.937556 10.2084842,6.3881501 L14.6098418,6.8412444 L12.7176878,8.73339844 L7.87066566,8.26623268 L7.20277876,8.20232434 L6.95860452,8.1786897 L6.58666566,2.17138672 L8.4788197,0.279232678 Z M14.222,12 L5.915,12 L8.73133578,14.190844 C9.43789689,14.7403916 10.4077948,14.7812167 11.1539721,14.3099109 L11.3000803,14.2088204 L14.222,12 Z" id="shape"></path>
        </g>
    </g>
</svg>