<svg width="24" height="24" viewBox="0 0 24 24" fill="none" xmlns="http://www.w3.org/2000/svg">
<path d="M12 20C6.96489 20 2.71992 16.617 1.41406 12H3.51152C4.74717 15.497 8.08362 18 12 18C15.9164 18 19.2528 15.497 20.4885 12L22.5859 12C21.2801 16.617 17.0351 20 12 20Z" fill="#001E3E"/>
<path d="M2.36122 14.3048C2.52387 14.5997 2.69966 14.8864 2.8878 15.164L0.926093 16.7291L0.302429 15.9474L2.36122 14.3048Z" fill="#001E3E"/>
<path d="M0.926093 16.7291L2.88843 15.1649C3.07588 15.4414 3.2756 15.709 3.4868 15.9667L1.54976 17.5108L0.926093 16.7291Z" fill="#001E3E"/>
<path d="M4.8963 20.1801L5.87794 18.1405C6.15556 18.3268 6.44213 18.5008 6.73688 18.6618L5.79736 20.6138L4.8963 20.1801Z" fill="#001E3E"/>
<path d="M5.79736 20.6138L6.73688 18.6618C7.02869 18.821 7.32937 18.9679 7.63645 19.1008L6.69843 21.0475L5.79736 20.6138Z" fill="#001E3E"/>
<path fill-rule="evenodd" clip-rule="evenodd" d="M10.8717 22.0004L10.8713 19.943C11.2005 19.9766 11.5341 19.9956 11.8713 19.9995L11.8717 22.0002L10.8717 22.0004ZM11.8717 22.0002L11.8713 19.9995C11.9138 20 11.9573 20 12 20C12.2936 20 12.5844 19.9887 12.8722 19.9661L12.8717 22L11.8717 22.0002Z" fill="#001E3E"/>
<path fill-rule="evenodd" clip-rule="evenodd" d="M17.0452 21.0479L16.1502 19.1904C16.4601 19.064 16.763 18.9239 17.0581 18.7709L17.9461 20.6138L17.0452 21.0479ZM17.9461 20.6138L17.0581 18.7709C17.3557 18.6165 17.6462 18.4485 17.9271 18.2684L18.847 20.1797L17.9461 20.6138Z" fill="#001E3E"/>
<path d="M22.1941 17.5111L20.411 16.0897C20.6258 15.8351 20.8293 15.5706 21.0207 15.2969L22.8174 16.7291L22.1941 17.5111Z" fill="#001E3E"/>
<path d="M23.4407 15.9471L22.8174 16.7291L21.0213 15.2961C21.2131 15.0217 21.3928 14.7381 21.5594 14.4462L23.4407 15.9471Z" fill="#001E3E"/>
</svg>
