<svg width="24" height="24" viewBox="0 0 24 24" xmlns="http://www.w3.org/2000/svg">
<path d="M13.0249 16.9564V20H10.9749V16.9564C9.94969 16.8687 8.96341 16.6508 8.03404 16.3199L6.80153 19.3638L4.89812 18.6117L6.16433 15.4846C6.16831 15.4788 6.17238 15.4731 6.17654 15.4675C5.22978 14.9271 4.37105 14.2589 3.62601 13.4876C3.60538 13.5131 3.58641 13.537 3.56943 13.5591L1.44959 15.6532L0 14.2212L2.24815 12.0003L2.34245 11.8873C1.75906 11.0029 1.30326 10.0328 1 9.00114L2.12842 9.00195L3.17892 9L3.26537 9.22607C4.59705 12.5698 7.90882 14.8851 11.7137 14.9961L12 15.0002C15.9242 15.0002 19.3692 12.6537 20.7346 9.22577L20.82 9L23 9.00086C22.6946 10.0396 22.2346 11.0159 21.6455 11.9052C21.7097 11.9613 21.7517 12 21.7517 12L24 14.221L22.5504 15.653L20.4305 13.5588C20.4305 13.5588 20.4052 13.5341 20.3667 13.4949C19.6244 14.262 18.7695 14.9269 17.8274 15.4652C17.8326 15.4775 17.8355 15.4845 17.8355 15.4845L19.1017 18.6117L17.1983 19.3638L15.9658 16.3199C15.0364 16.6508 14.0502 16.8687 13.0249 16.9564Z" fill="#001E3E"/>
</svg>
