<svg width="24" height="24" viewBox="0 0 24 24" fill="none" xmlns="http://www.w3.org/2000/svg">
<path d="M12 4C17.035 4 21.28 7.38292 22.5859 11.9999C21.2793 16.6176 17.0347 20 12 20C6.9649 20 2.71997 16.6171 1.41406 12.0001C2.72058 7.38244 6.96526 4 12 4ZM12 6C8.22347 6 4.90818 8.34689 3.5942 11.7752L3.51096 11.999L3.59415 12.2251C4.8757 15.5693 8.06279 17.8849 11.7245 17.9958L12 18C15.7764 18 19.0917 15.6531 20.4057 12.2248L20.488 11.999L20.4058 11.7749C19.1242 8.43072 15.9371 6.11514 12.2755 6.00417L12 6ZM12 8C14.2091 8 16 9.79086 16 12C16 14.2091 14.2091 16 12 16C9.79082 16 7.99996 14.2091 7.99996 12C7.99996 9.79086 9.79082 8 12 8ZM12 10C10.8954 10 9.99996 10.8954 9.99996 12C9.99996 13.1046 10.8954 14 12 14C13.1045 14 14 13.1046 14 12C14 10.8954 13.1045 10 12 10Z" fill="#001E3E"/>
</svg>
