<svg width="24" height="24" viewBox="0 0 24 24" fill="none" xmlns="http://www.w3.org/2000/svg">
<path d="M10 3C13.866 3 17 6.13401 17 10C17 11.2731 16.6601 12.4669 16.0662 13.4955L21.7071 19.2929L20.2929 20.7071L18.483 18.817L18.498 18.8047L15.476 15.675L14.8635 15.0346L14.86 15.037L13.4714 13.5986C14.4138 12.6892 15 11.4131 15 10C15 7.23858 12.7614 5 10 5C7.23858 5 5 7.23858 5 10C5 12.7614 7.23858 15 10 15C10.6126 15 11.1995 14.8898 11.7419 14.6882L13.2194 16.2174C12.2556 16.7175 11.1608 17 10 17C6.13401 17 3 13.866 3 10C3 6.13401 6.13401 3 10 3Z" fill="#001E3E"/>
</svg>
