<?xml version="1.0" encoding="UTF-8"?>
<svg width="24px" height="24px" viewBox="0 0 24 24" version="1.1" xmlns="http://www.w3.org/2000/svg" xmlns:xlink="http://www.w3.org/1999/xlink">
    <!-- Generator: Sketch 62 (91390) - https://sketch.com -->
    <title>icons / 24x24 / magnifying-glass</title>
    <desc>Created with Sketch.</desc>
    <g id="icons-/-24x24-/-magnifying-glass" stroke="none" stroke-width="1" fill="none" fill-rule="evenodd">
        <g id="icon" fill="#001E3E" fill-rule="nonzero">
            <path d="M10,3 C13.8659932,3 17,6.13400675 17,10 C17,11.2731285 16.6601227,12.4668744 16.0661527,13.4954529 L21.7071068,19.2928932 L20.2928932,20.7071068 L18.483,18.817 L18.4979733,18.8047184 L15.476,15.675 L14.8634513,15.0345738 L14.86,15.037 L13.4713631,13.5985676 C14.4138217,12.6892198 15,11.4130645 15,10 C15,7.23857625 12.7614237,5 10,5 C7.23857625,5 5,7.23857625 5,10 C5,12.7614237 7.23857625,15 10,15 C10.6126038,15 11.199476,14.8898295 11.7418842,14.6882208 L13.2193534,16.2174019 C12.2555727,16.7174607 11.1607816,17 10,17 C6.13400675,17 3,13.8659932 3,10 C3,6.13400675 6.13400675,3 10,3 Z" id="shape"></path>
        </g>
    </g>
</svg>