<svg width="24" height="24" viewBox="0 0 24 24" fill="none" xmlns="http://www.w3.org/2000/svg">
<path d="M18 10V22H2V10H18ZM4 13.044V20H16V13.163L12.5057 15.8046C11.0816 16.8806 9.1343 16.9104 7.6823 15.9011L7.50345 15.7696L4 13.044ZM8.47882 0.279236L8.79542 4.94954C10.2624 3.14956 12.4969 2 15 2C19.4183 2 23 5.58172 23 10C23 12.5261 21.8292 14.7788 20.0006 16.2449L20.0008 13.3165C20.6322 12.3665 21 11.2262 21 10C21 6.68629 18.3137 4 15 4C13.0423 4 11.3037 4.93756 10.2085 6.38815L14.6098 6.84125L12.7177 8.7334L7.87067 8.26624L7.20278 8.20233L6.9586 8.17869L6.58667 2.17139L8.47882 0.279236ZM14.222 12H5.915L8.73134 14.1908C9.4379 14.7404 10.4078 14.7812 11.154 14.3099L11.3001 14.2088L14.222 12Z" fill="#001E3E"/>
</svg>
