<svg width="24" height="24" viewBox="0 0 24 24" fill="none" xmlns="http://www.w3.org/2000/svg">
<path d="M4.33999 2.92999L2.92999 4.33999L7.28999 8.69999L6.99999 8.99999H2.99999V15H6.99999L12 20V13.41L16.18 17.59C15.53 18.08 14.8 18.47 14 18.7V20.76C15.34 20.46 16.57 19.84 17.61 19.01L19.66 21.06L21.07 19.65L4.33999 2.92999ZM9.99999 15.17L7.82999 13H4.99999V11H7.82999L8.70999 10.12L9.99999 11.41V15.17ZM19 12C19 12.82 18.85 13.61 18.59 14.34L20.12 15.87C20.68 14.7 21 13.39 21 12C21 7.71999 18.01 4.13999 14 3.22999V5.28999C16.89 6.14999 19 8.82999 19 12ZM12 3.99999L10.12 5.87999L12 7.75999V3.99999ZM16.5 12C16.5 10.23 15.48 8.70999 14 7.96999V9.75999L16.48 12.24C16.49 12.16 16.5 12.08 16.5 12Z" fill="#001E3E"/>
</svg>
