<svg width="24" height="24" viewBox="0 0 24 24"  xmlns="http://www.w3.org/2000/svg">
<path d="M10.6242 22C9.56097 22 8.70174 20.4154 9.05103 19.3675L10.174 16H6.00058C5.86888 16 5.73739 15.9913 5.60696 15.9741L5.41223 15.9417C3.78755 15.6168 2.7339 14.0363 3.05884 12.4117L4.25884 6.41165C4.5393 5.00938 5.77054 4 7.20058 4H14.561C16.2178 4 17.561 5.34315 17.561 7V14.2759C17.561 14.9777 17.3149 15.6573 16.8656 16.1965L12.9289 20.9206C12.3589 21.6045 11.6875 22 10.6242 22ZM19.561 15L19.561 5H21.561L21.561 15H19.561Z" fill="#001E3E"/>
</svg>
