<svg width="24" height="24" viewBox="0 0 24 24"  xmlns="http://www.w3.org/2000/svg">
<path d="M9.9484 22C9.73344 22 9.51988 21.9653 9.31594 21.8974C8.26806 21.5481 7.70174 20.4154 8.05103 19.3675L9.17397 16H6.00058C5.86888 16 5.73739 15.9913 5.60696 15.9741L5.41223 15.9417C3.78755 15.6168 2.7339 14.0363 3.05884 12.4117L4.25884 6.41165C4.5393 5.00938 5.77054 4 7.20058 4H14.561C16.2178 4 17.561 5.34315 17.561 7V14.2759C17.561 14.9777 17.3149 15.6573 16.8656 16.1965L12.9289 20.9206C12.3589 21.6045 11.5146 22 10.6242 22H9.9484ZM19.561 15L19.561 5H21.561L21.561 15H19.561ZM9.9484 20H10.6242C10.921 20 11.2025 19.8682 11.3924 19.6402L15.3292 14.9161C15.479 14.7364 15.561 14.5098 15.561 14.2759L15.561 7C15.561 6.44772 15.1133 6 14.561 6H7.20058C6.7239 6 6.31349 6.33646 6.22 6.80388L5.02 12.8039C4.91169 13.3454 5.26291 13.8723 5.80447 13.9806C5.86904 13.9935 5.93473 14 6.00058 14H11.9484L9.9484 20Z" fill="#001E3E"/>
</svg>
