<svg width="24" height="24" viewBox="0 0 24 24"  xmlns="http://www.w3.org/2000/svg">
<path d="M14.6126 2C14.8275 2 15.0411 2.03466 15.245 2.10263C16.2929 2.45193 16.8592 3.58457 16.5099 4.63246L15.387 8H18.5604C18.6921 8 18.8236 8.00867 18.954 8.02593L19.1487 8.05826C20.7734 8.38319 21.8271 9.96367 21.5021 11.5883L20.3021 17.5883C20.0217 18.9906 18.7904 20 17.3604 20H10C8.34315 20 7 18.6569 7 17V9.7241C7 9.02229 7.24605 8.34269 7.69534 7.80355L11.6321 3.07945C12.2021 2.39547 13.0464 2 13.9367 2H14.6126ZM5 9V19H3V9H5ZM14.6126 4H13.9367C13.64 4 13.3585 4.13182 13.1685 4.35982L9.23178 9.08392C9.08202 9.26363 9 9.49016 9 9.7241V17C9 17.5523 9.44772 18 10 18H17.3604C17.8371 18 18.2475 17.6635 18.341 17.1961L19.541 11.1961C19.6493 10.6546 19.2981 10.1277 18.7565 10.0194C18.6919 10.0065 18.6262 10 18.5604 10H12.6126L14.6126 4Z" fill="#001E3E"/>
</svg>
