<svg width="24" height="24" viewBox="0 0 24 24" fill="none" xmlns="http://www.w3.org/2000/svg">
<path d="M12 2C17.5228 2 22 6.47715 22 12C22 17.5228 17.5228 22 12 22C6.47715 22 2 17.5228 2 12C2 6.47715 6.47715 2 12 2ZM12 4C7.58172 4 4 7.58172 4 12C4 16.4183 7.58172 20 12 20C16.4183 20 20 16.4183 20 12C20 7.58172 16.4183 4 12 4ZM14.364 8L15.7782 9.41421L13.303 11.889L15.7782 14.364L14.364 15.7782L11.889 13.303L9.41421 15.7782L8 14.364L10.474 11.889L8 9.41421L9.41421 8L11.889 10.474L14.364 8Z" fill="#001E3E"/>
</svg>
