<svg width="24" height="24" viewBox="0 0 24 24" fill="none" xmlns="http://www.w3.org/2000/svg">
<path d="M18 0.847168L20.622 8.79187L22 6.811V21.9999H2V6.811L3.377 8.79087L6 0.847168L8.622 8.79187L10 6.811V12.2922L12.0316 9.14476L14 12.2462V6.811L15.377 8.79087L18 0.847168ZM12.017 12.8539L10 15.9809V19.9999H11.5V17.5624L12.0041 16.9999L12.5 17.5624V19.9999H14V15.9789L12.017 12.8539ZM6 7.22787L4.02218 13.2206L4 13.1879V19.9989L5.5 19.9982V17.5624L6.00411 16.9999L6.5 17.5624V19.9982L8 19.9989V13.1869L7.97782 13.2206L6 7.22787ZM18 7.22787L16.0222 13.2206L16 13.1879V19.9989L17.5 19.9982V17.5624L18.0041 16.9999L18.5 17.5624V19.9982L20 19.9989V13.1869L19.9778 13.2206L18 7.22787ZM6.00411 10.9999L6.5 11.5624V13.9999H5.5V11.5624L6.00411 10.9999ZM18.0041 10.9999L18.5 11.5624V13.9999H17.5V11.5624L18.0041 10.9999Z" fill="#001E3E"/>
</svg>
