<svg width="24" height="24" viewBox="0 0 24 24"  xmlns="http://www.w3.org/2000/svg">
<path d="M17.5189 2.33351L20 5.66906V14.6465L23 16.4957V22.0002H1V16.5434L4 14.3705V5.6703L6.47043 2.3335L9 5.66344V7.9995H15V5.66467L17.5189 2.33351ZM4 16.8385L3 17.5632V20.0002L4 19.9995V16.8385ZM6.491 5.66619L6 6.32919V20.0002H7V6.33719L6.491 5.66619ZM15 10.0002H9V20.0002H11V17.0002C11 16.4479 11.4477 16.0002 12 16.0002C12.5523 16.0002 13 16.4479 13 17.0002V20.0002H15V10.0002ZM17.505 5.66619L17 6.33419V20.0002H18V6.33119L17.505 5.66619ZM20 16.9945V19.9995L21 20.0002V17.6112L20 16.9945ZM12 12.0002C12.5523 12.0002 13 12.4479 13 13.0002C13 13.5525 12.5523 14.0002 12 14.0002C11.4477 14.0002 11 13.5525 11 13.0002C11 12.4479 11.4477 12.0002 12 12.0002Z" fill="#001E3E"/>
</svg>
