<svg width="24" height="24" viewBox="0 0 24 24"  xmlns="http://www.w3.org/2000/svg">
<path d="M2 3L3.08717 3.6941C4.50264 4.59781 6.26658 4.74571 7.80642 4.10243L8.03564 4L9.13442 4.7626C11.1195 6.14031 13.7046 6.27584 15.816 5.13232L16.0486 5C17.3926 6.72541 19.4025 7.80336 21.5833 7.96846L22 8V21H2V3ZM4 6.254V16L7 15.999L7.00051 6.40142C6.03746 6.5611 5.05297 6.52032 4.10952 6.28409L4 6.254ZM8.99988 7.00452L9 15.999L20 16V9.745L19.8781 9.71794C18.3565 9.35048 16.9464 8.62223 15.7673 7.59728L15.571 7.421L15.3816 7.48762C13.2813 8.17446 10.9831 8.00494 8.99988 7.00452Z" fill="#001E3E"/>
</svg>
