<svg width="24" height="24" viewBox="0 0 24 24"  xmlns="http://www.w3.org/2000/svg">
<path d="M11.5 5C12.8255 5 13.91 6.03154 13.9947 7.33562L14 7.5V9.999L19.1169 10L22 14.7716V22L7 21.999V22H2V7.5C2 6.11929 3.11929 5 4.5 5C5.88071 5 7 6.11929 7 7.5V9.999H9V7.5C9 6.11929 10.1193 5 11.5 5ZM5 7.5C5 7.25454 4.82312 7.05039 4.58988 7.00806L4.5 7C4.22386 7 4 7.22386 4 7.5V20H5V7.5ZM17.987 11.999L14 11.998V12H9V11.998L7 11.999V19.999H9V16C9 15.4477 9.44772 15 10 15C10.5523 15 11 15.4477 11 16V19.999H12.375V16.1C12.375 15.4925 12.8675 15 13.475 15C14.0825 15 14.575 15.4925 14.575 16.1V19.999H16V16C16 15.4477 16.4477 15 17 15C17.5523 15 18 15.4477 18 16V19.999H20V15.329L17.987 11.999ZM11.5 7C11.2545 7 11.0504 7.17688 11.0081 7.41012L11 7.5V9.999H12V7.5C12 7.28522 11.8646 7.10207 11.6745 7.03128L11.5899 7.00806L11.5 7ZM11.5 2C12.3284 2 13 2.67157 13 3.5C13 4.32843 12.3284 5 11.5 5C10.6716 5 10 4.32843 10 3.5C10 2.67157 10.6716 2 11.5 2ZM4.5 2C5.32843 2 6 2.67157 6 3.5C6 4.32843 5.32843 5 4.5 5C3.67157 5 3 4.32843 3 3.5C3 2.67157 3.67157 2 4.5 2Z" fill="#001E3E"/>
</svg>
