<svg width="24" height="24" viewBox="0 0 24 24" fill="none" xmlns="http://www.w3.org/2000/svg">
<path d="M13 2L13.0006 5.14598C14.189 5.50123 15.1299 6.47493 15.41 7.73544L16.802 14H19V22H5V14H7.197L8.58995 7.73544C8.87015 6.47457 9.81153 5.50069 11.0004 5.14568L11 2H13ZM17 16H7V20H8.5V17.75C8.5 17.3358 8.83579 17 9.25 17C9.66421 17 10 17.3358 10 17.75V20H11.25V17.75C11.25 17.3358 11.5858 17 12 17C12.4142 17 12.75 17.3358 12.75 17.75V20H14V17.75C14 17.3358 14.3358 17 14.75 17C15.1642 17 15.5 17.3358 15.5 17.75V20H17V16ZM12 7C11.3001 7 10.6942 7.48609 10.5423 8.1693L9.246 14H14.753L13.4577 8.1693C13.316 7.53164 12.7787 7.06569 12.1386 7.0064L12 7Z" fill="#001E3E"/>
</svg>
