<svg width="24" height="24" viewBox="0 0 24 24" fill="none" xmlns="http://www.w3.org/2000/svg">
<path d="M18.5194 1.07331L22 6.83941V22.0002H2V6.83331L5.56634 1.07324L9 6.84277V12.2262L12.0988 9.6984L15 12.1682V6.83664L18.5194 1.07331ZM5.532 4.92618L4 7.40218V20.0002H7V7.39418L5.532 4.92618ZM18.509 4.92618L17 7.39718V20.0002H20V7.39718L18.509 4.92618ZM12.071 12.3012L9 14.8082V20.0002H11V17.0002C11 16.4479 11.4477 16.0002 12 16.0002C12.5523 16.0002 13 16.4479 13 17.0002V20.0002H15V14.7952L12.071 12.3012ZM5.5 16.0002C5.77614 16.0002 6 16.224 6 16.5002V18.0002H5V16.5002C5 16.224 5.22386 16.0002 5.5 16.0002ZM18.5 16.0002C18.7761 16.0002 19 16.224 19 16.5002V18.0002H18V16.5002C18 16.224 18.2239 16.0002 18.5 16.0002ZM5.5 12.0002C5.77614 12.0002 6 12.224 6 12.5002V14.0002H5V12.5002C5 12.224 5.22386 12.0002 5.5 12.0002ZM18.5 12.0002C18.7761 12.0002 19 12.224 19 12.5002V14.0002H18V12.5002C18 12.224 18.2239 12.0002 18.5 12.0002ZM5.5 8.00018C5.77614 8.00018 6 8.22404 6 8.50018V10.0002H5V8.50018C5 8.22404 5.22386 8.00018 5.5 8.00018ZM18.5 8.00018C18.7761 8.00018 19 8.22404 19 8.50018V10.0002H18V8.50018C18 8.22404 18.2239 8.00018 18.5 8.00018Z" fill="#001E3E"/>
</svg>
