<?xml version="1.0" encoding="utf-8"?>
<!-- Generator: Adobe Illustrator 27.5.0, SVG Export Plug-In . SVG Version: 6.00 Build 0)  -->
<svg version="1.1" id="Ebene_1" xmlns="http://www.w3.org/2000/svg" xmlns:xlink="http://www.w3.org/1999/xlink" x="0px" y="0px"
	 viewBox="0 0 399.33 70.83" style="enable-background:new 0 0 399.33 70.83;" xml:space="preserve">
<style type="text/css">
	.st0{fill:#CA0928;}
</style>
<g>
	<g>
		<g>
			<path class="st0" d="M256.24,70.02l-15.06-40.36h8.27l0.17,0.47l9.15,25.6l10.21-26.07h4.4l0.06,0.15l10.16,25.91l9.25-26.07
				h8.27l-15.05,40.52h-4.4l-10.48-27.02l-10.42,27.02h-4.46L256.24,70.02z M154.99,70.18V29.66h4.59l22.79,25.81V29.66h7.69v40.52
				h-4.49l-22.89-25.87v25.87H154.99z M218.4,36.16c7.61,0,13.34,5.89,13.34,13.7c0,8.01-5.61,13.81-13.34,13.81
				c-7.73,0-13.34-5.81-13.34-13.81C205.06,41.92,210.68,36.16,218.4,36.16 M218.34,70.83c11.93,0,21.27-9.19,21.27-20.91
				c0-11.73-9.34-20.92-21.27-20.92c-11.89,0-21.21,9.19-21.21,20.92C197.14,61.65,206.45,70.83,218.34,70.83"/>
		</g>
		<g>
			<path class="st0" d="M115.85,70.18V29.66h29.38v7.04h-21.69v9.26h19.8v6.87h-19.8v10.32h21.69v7.04H115.85z M44.85,47.2V36.64
				h9.19c4.06,0,6.58,2.05,6.58,5.34c0,3.27-2.46,5.22-6.58,5.22H44.85z M59.28,53.56c5.72-1.64,9.22-6.02,9.22-11.64
				c0-7.21-5.88-12.24-14.29-12.26H37.16v40.52h7.69V54.24H51l10.61,15.94h8.88L59.28,53.56z M0,70.18V29.66h28.85v7.04H7.69v9.32
				h19.38v7.04H7.69v17.13H0z M77.52,70.18V29.66h29.38v7.04H85.21v9.26H105v6.87h-19.8v10.32h21.69v7.04H77.52z"/>
		</g>
	</g>
	<g>
		<polygon class="st0" points="386.24,0 386.23,0.01 338.29,47.97 338.29,21.1 310.08,0.01 310.07,0 295.51,0 295.59,0.06 
			328.75,24.94 328.75,70.4 328.75,70.48 328.8,70.43 399.28,0.06 399.33,0 		"/>
	</g>
</g>
</svg>
