<?xml version="1.0" encoding="UTF-8"?>
<svg width="24px" height="24px" viewBox="0 0 24 24" version="1.1" xmlns="http://www.w3.org/2000/svg" xmlns:xlink="http://www.w3.org/1999/xlink">
    <!-- Generator: Sketch 62 (91390) - https://sketch.com -->
    <title>icons / 24x24 / fuel / 10</title>
    <desc>Created with Sketch.</desc>
    <g id="icons-/-24x24-/-fuel-/-10" stroke="none" stroke-width="1" fill="none" fill-rule="evenodd">
        <g id="icon" fill-rule="nonzero">
            <path d="M1.89919609,2 L6.58846212,4.36029076 L6.588,6.493 L8.6736672,6.49323099 L8.6736672,13.493231 L6.673,13.493 L6.6736672,17.4786802 C6.6736672,17.991516 7.05970739,18.4141874 7.55704607,18.4719525 L7.6736672,18.4786802 L10.173,18.478 L10.1736672,2.49323099 L22.1736672,2.49323099 L22.1736672,20.493231 L10.1736672,20.493231 L10.173,20.478 L7.6736672,20.4786802 C6.07598631,20.4786802 4.77000632,19.2297602 4.67875989,17.654953 L4.6736672,17.4786802 L4.673,13.493 L2.6736672,13.493231 L2.6736672,6.49323099 L4.588,6.493 L4.58846212,5.59267513 L1,3.78646197 L1.89919609,2 Z M20.1736672,4.49323099 L12.1736672,4.49323099 L12.1736672,18.493231 L20.1736672,18.493231 L20.1736672,4.49323099 Z M6.6736672,8.49323099 L4.6736672,8.49323099 L4.6736672,11.493231 L6.6736672,11.493231 L6.6736672,8.49323099 Z" id="shape-pump" fill="#001E3E"></path>
            <polygon id="shape-fill" fill="#FF5E05" points="14 16 18 16 18 17 14 17"></polygon>
        </g>
    </g>
</svg>