<?xml version="1.0" encoding="UTF-8"?>
<svg width="24px" height="24px" viewBox="0 0 24 24" version="1.1" xmlns="http://www.w3.org/2000/svg" xmlns:xlink="http://www.w3.org/1999/xlink">
    <!-- Generator: Sketch 62 (91390) - https://sketch.com -->
    <title>icons / 24x24 / brands / mercedes</title>
    <desc>Created with Sketch.</desc>
    <g id="icons-/-24x24-/-brands-/-mercedes" stroke="none" stroke-width="1" fill="none" fill-rule="evenodd">
        <g id="icon" fill="#001E3E" fill-rule="nonzero">
            <path d="M12,20 L12,20 C16.418278,20 20,16.418278 20,12 C20,7.581722 16.418278,4 12,4 C7.581722,4 4,7.581722 4,12 C4,16.418278 7.581722,20 12,20 L12,20 L12,20 Z M12,22 L12,22 C6.4771525,22 2,17.5228475 2,12 C2,6.4771525 6.4771525,2 12,2 C17.5228475,2 22,6.4771525 22,12 C22,17.5228475 17.5228475,22 12,22 L12,22 L12,22 Z M10.6000061,11.25 L11.6000061,3.5 L12.3999939,3.5 L13.4500122,11.25 L20,16.25 L20,17 L12,13.6500244 L4,17 L4,16.25 L10.6000061,11.25 L10.6000061,11.25 Z" id="shape"></path>
        </g>
    </g>
</svg>