<?xml version="1.0" encoding="UTF-8"?>
<svg width="24px" height="24px" viewBox="0 0 24 24" version="1.1" xmlns="http://www.w3.org/2000/svg" xmlns:xlink="http://www.w3.org/1999/xlink">
    <!-- Generator: Sketch 62 (91390) - https://sketch.com -->
    <title>icons / 24x24 / brands / concur</title>
    <desc>Created with Sketch.</desc>
    <defs>
        <path d="M20.8595,1 L3.1405,1 C2.5105,1 2,1.5185 2,2.158 L2,21.842 C2,22.4815 2.5105,23 3.1405,23 L20.8595,23 C21.4895,23 22,22.4815 22,21.842 L22,2.158 C22,1.5185 21.4895,1 20.8595,1 L20.8595,1 Z M5.81668889,20.0060282 C6.05304703,20.0060282 6.2585978,19.8615276 6.35455517,19.6720268 L6.77222222,19.8755276 C6.60808463,20.1610288 6.32021253,20.43953 5.81668889,20.43953 C5.13185633,20.43953 4.60055556,19.957528 4.60055556,19.252525 C4.60055556,18.546522 5.13185633,18.06452 5.81668889,18.06452 C6.32021253,18.06452 6.61111486,18.3400212 6.77222222,18.6260224 L6.35455517,18.8320232 C6.2585978,18.6460224 6.05304703,18.4985218 5.81668889,18.4985218 C5.40205207,18.4985218 5.10104897,18.8185232 5.10104897,19.252525 C5.10104897,19.6855268 5.40205207,20.0060282 5.81668889,20.0060282 L5.81668889,20.0060282 Z M8.25295962,20.43953 C7.56458743,20.43953 7.06055556,19.9435279 7.06055556,19.252525 C7.06055556,18.5600221 7.56458743,18.06452 8.25295962,18.06452 C8.9448671,18.06452 9.44788889,18.5600221 9.44788889,19.252525 C9.44788889,19.9435279 8.9448671,20.43953 8.25295962,20.43953 L8.25295962,20.43953 Z M11.9858889,20.41401 L11.5151865,20.41401 L10.411157,18.90151 L10.411157,20.41401 L9.95055556,20.41401 L9.95055556,18.09851 L10.4399446,18.09851 L11.4863989,19.54451 L11.4863989,18.09851 L11.9858889,18.09851 L11.9858889,20.41401 L11.9858889,20.41401 Z M13.6909349,20.0060282 C13.9272997,20.0060282 14.1328562,19.8615276 14.2288162,19.6720268 L14.647,19.8755276 C14.4828578,20.1610288 14.1949777,20.43953 13.6909349,20.43953 C13.0065883,20.43953 12.4757778,19.957528 12.4757778,19.252525 C12.4757778,18.546522 13.0065883,18.06452 13.6909349,18.06452 C14.1949777,18.06452 14.4858881,18.3400212 14.647,18.6260224 L14.2288162,18.8320232 C14.1328562,18.6460224 13.9272997,18.4985218 13.6909349,18.4985218 C13.2772967,18.4985218 12.9757801,18.8185232 12.9757801,19.252525 C12.9757801,19.6855268 13.2772967,20.0060282 13.6909349,20.0060282 L13.6909349,20.0060282 Z M14.8666943,15.4875136 C14.0611373,15.9820134 12.7737612,16.2510133 11.7156785,16.2590133 C8.01617689,16.2860133 5.13788889,13.3810143 5.13788889,9.95201547 C5.13788889,6.21501676 8.06365172,3.4890177 11.5924459,3.61351766 C13.037398,3.61351766 14.3843702,4.12851748 15.3217456,4.73651727 C15.5687157,4.89701722 15.5641703,4.97451719 15.5116449,5.04801716 C15.3040688,5.33801706 14.7384112,6.17901677 14.4535622,6.76951657 C14.4535622,6.76951657 14.3772994,6.92251652 14.2222487,6.82051655 C13.6171971,6.42301669 12.8005289,6.03601682 11.4495164,6.03601682 C9.36213891,6.03601682 7.77324716,7.67601626 7.77324716,9.90751548 C7.77324716,12.1400147 9.6262808,13.8040141 11.7131532,13.8005141 C12.4328515,13.7990141 13.1808326,13.5430142 13.4358836,13.4490143 C13.5601263,13.4035143 13.6131566,13.5180142 13.6131566,13.5180142 C14.1141677,14.5895139 14.7808355,15.0840137 14.9353812,15.2995136 C15.0136642,15.4090136 14.8666943,15.4875136 14.8666943,15.4875136 L14.8666943,15.4875136 Z M17.0938889,19.4795218 C17.0938889,20.0505267 16.7711648,20.43953 16.0757172,20.43953 C15.3807746,20.43953 15.0585556,20.0475267 15.0585556,19.4825218 L15.0585556,18.09851 L15.5575405,18.09851 L15.5575405,19.4660217 C15.5575405,19.7855244 15.7433972,20.0060263 16.0969291,20.0060263 C16.4494508,20.0060263 16.6327824,19.7855244 16.6327824,19.4660217 L16.6327824,18.09851 L17.0938889,18.09851 L17.0938889,19.4795218 L17.0938889,19.4795218 Z M15.5237778,12.19156 C15.5237778,11.196549 16.3263076,10.39004 17.3172222,10.39004 C18.3076318,10.39004 19.1106667,11.196549 19.1106667,12.19156 C19.1106667,13.187571 18.3076318,13.99408 17.3172222,13.99408 C16.3263076,13.99408 15.5237778,13.187571 15.5237778,12.19156 L15.5237778,12.19156 Z M18.9636848,20.41401 L18.5151902,19.56501 L18.169223,19.56501 L18.169223,20.41401 L17.6702222,20.41401 L17.6702222,18.09851 L18.7409527,18.09851 C19.2167206,18.09851 19.5081411,18.41351 19.5081411,18.84051 C19.5081411,19.24651 19.2546002,19.47251 19.0081302,19.53051 L19.5217778,20.41401 L18.9636848,20.41401 L18.9636848,20.41401 Z M8.25295963,18.49847 C8.67415949,18.49847 8.94788889,18.8224807 8.94788889,19.252495 C8.94788889,19.6785091 8.67415949,20.00602 8.25295963,20.00602 C7.83175978,20.00602 7.56055556,19.6785091 7.56055556,19.252495 C7.56055556,18.8224807 7.83175978,18.49847 8.25295963,18.49847 Z M18.6692042,18.523 C18.8646517,18.523 19.0111111,18.6385075 19.0111111,18.83152 C19.0111111,19.0240325 18.8646517,19.14054 18.6692042,19.14054 L18.6692042,19.14054 L18.1692222,19.14054 L18.1692222,18.523 Z" id="path-1"></path>
    </defs>
    <g id="icons-/-24x24-/-brands-/-concur" stroke="none" stroke-width="1" fill="none" fill-rule="evenodd">
        <g id="icon">
            <mask id="mask-2" fill="white">
                <use xlink:href="#path-1"></use>
            </mask>
            <use id="shape" fill="#001E3E" fill-rule="nonzero" xlink:href="#path-1"></use>
        </g>
    </g>
</svg>