<svg width="24" height="24" viewBox="0 0 24 24" fill="none" xmlns="http://www.w3.org/2000/svg">
<path d="M16 2C18.2091 2 20 3.79086 20 6V8H18V6C18 4.89543 17.1046 4 16 4H8C6.89543 4 6 4.89543 6 6V18C6 19.1046 6.89543 20 8 20H16C17.1046 20 18 19.1046 18 18V10H20V18C20 20.2091 18.2091 22 16 22H8C5.79086 22 4 20.2091 4 18V6C4 3.79086 5.79086 2 8 2H16ZM9 16C9.55228 16 10 16.4477 10 17C10 17.5523 9.55228 18 9 18C8.44772 18 8 17.5523 8 17C8 16.4477 8.44772 16 9 16ZM12 16C12.5523 16 13 16.4477 13 17C13 17.5523 12.5523 18 12 18C11.4477 18 11 17.5523 11 17C11 16.4477 11.4477 16 12 16ZM15 13C15.5523 13 16 13.4477 16 14V17C16 17.5523 15.5523 18 15 18C14.4477 18 14 17.5523 14 17V14C14 13.4477 14.4477 13 15 13ZM9 13C9.55228 13 10 13.4477 10 14C10 14.5523 9.55228 15 9 15C8.44772 15 8 14.5523 8 14C8 13.4477 8.44772 13 9 13ZM12 13C12.5523 13 13 13.4477 13 14C13 14.5523 12.5523 15 12 15C11.4477 15 11 14.5523 11 14C11 13.4477 11.4477 13 12 13ZM9 10C9.55228 10 10 10.4477 10 11C10 11.5523 9.55228 12 9 12C8.44772 12 8 11.5523 8 11C8 10.4477 8.44772 10 9 10ZM12 10C12.5523 10 13 10.4477 13 11C13 11.5523 12.5523 12 12 12C11.4477 12 11 11.5523 11 11C11 10.4477 11.4477 10 12 10ZM15 10C15.5523 10 16 10.4477 16 11C16 11.5523 15.5523 12 15 12C14.4477 12 14 11.5523 14 11C14 10.4477 14.4477 10 15 10ZM16 6V8H8V6H16Z" fill="#001E3E"/>
</svg>
