<svg width="24" height="24" viewBox="0 0 24 24" fill="none" xmlns="http://www.w3.org/2000/svg">
<path d="M15.5 3L18.238 5.666L19.2727 5.66667C21.2614 5.66667 22.8917 7.19909 22.9948 9.14034L23 9.33579V17.3309C23 19.3585 21.3277 21 19.2811 21H4.7189C2.66745 21 1 19.3626 1 17.3309V9.33579C1 7.30187 2.66922 5.66667 4.72727 5.66667L5.761 5.666L8.5 3H15.5ZM14.696 5H9.303L6.57654 7.66667H4.72727C3.76468 7.66667 3 8.41576 3 9.33579V17.3309C3 18.2498 3.76396 19 4.7189 19H19.2811C20.2313 19 21 18.2455 21 17.3309V9.33579C21 8.41738 20.2328 7.66667 19.2727 7.66667H17.4235L14.696 5ZM12 8.33333C14.5556 8.33333 16.6364 10.3678 16.6364 12.8889C16.6364 15.4099 14.5556 17.4444 12 17.4444C9.44437 17.4444 7.36364 15.4099 7.36364 12.8889C7.36364 10.3678 9.44437 8.33333 12 8.33333ZM12 10.3333C10.539 10.3333 9.36364 11.4826 9.36364 12.8889C9.36364 14.2952 10.539 15.4444 12 15.4444C13.461 15.4444 14.6364 14.2952 14.6364 12.8889C14.6364 11.4826 13.461 10.3333 12 10.3333Z" fill="#001E3E"/>
</svg>
