<svg width="24" height="24" viewBox="0 0 24 24" fill="none" xmlns="http://www.w3.org/2000/svg">
<path d="M12 2L21 6.49506V7.11339C21 12.4596 18.442 17.4831 14.1185 20.6277L12 22.1685L9.88153 20.6277C5.55797 17.4831 3 12.4596 3 7.11339V6.49506L12 2ZM12 4.23558L5.01271 7.72539L5.03361 8.10822C5.32663 12.4376 7.52128 16.438 11.0579 19.0103L12 19.6955L12.9421 19.0103C16.5827 16.3623 18.8013 12.2011 18.9873 7.72539L12 4.23558ZM15.944 8.00253L17.3507 9.42426L11.4005 15.3113L7.93285 12.2057L9.26715 10.7159L11.3323 12.5654L15.944 8.00253Z" fill="#001E3E"/>
</svg>
