<?xml version="1.0" encoding="UTF-8"?>
<svg width="24px" height="24px" viewBox="0 0 24 24" version="1.1" xmlns="http://www.w3.org/2000/svg" xmlns:xlink="http://www.w3.org/1999/xlink">
    <!-- Generator: Sketch 62 (91390) - https://sketch.com -->
    <title>icons / 24x24 / dog</title>
    <desc>Created with Sketch.</desc>
    <g id="icons-/-24x24-/-dog" stroke="none" stroke-width="1" fill="none" fill-rule="evenodd">
        <g id="icon" fill="#001E3E" fill-rule="nonzero">
            <path d="M14.1880383,3 C17.6418805,3 20.5753281,5.52831976 21.0849035,8.94436409 L23.0324284,22 L21.05,22 L20.3974639,17.8743447 L20.394,17.874 L19.7950505,13.8522785 C18.8701322,15.6701966 16.5972745,16.3828106 14.6676886,15.4830299 C12.761968,14.5943778 11.8458225,12.4382802 12.5922845,10.5768081 L12.6724976,10.3917008 L14.7801149,5.87345813 L15.1131195,5.08622974 C14.8127435,5.02956196 14.5034332,5 14.1880383,5 L13.1827322,5 C11.2593807,5 9.5595946,6.24714701 8.98684782,8.05506772 L8.70996437,9 L3,9 L3,11.0178887 C3,12.344851 3.87176088,13.5141714 5.14349226,13.8930225 L9.91932971,15.3157534 L10.7307343,20 L18.709,20 L19.026,22 L9.04739069,22 L8.1602594,16.8785825 L4.57248709,15.8097784 C2.4529348,15.1783598 1,13.2294925 1,11.0178887 L1,7 L7.24381829,7 C8.2153208,4.60059582 10.5553953,3 13.1827322,3 L14.1880383,3 Z M16.9626836,5.84580266 L16.607464,6.68554125 L14.4851132,11.2369373 C14.0781812,12.1096058 14.5190273,13.2069522 15.5129251,13.6704143 C16.457128,14.1107034 17.518736,13.800911 17.9714296,13.020627 L18.0377414,12.8935551 L19.267,10.316 L19.106791,9.23944151 C18.8939811,7.81282657 18.0884193,6.60330249 16.9626836,5.84580266 Z M10.9609375,8 C11.5132222,8 11.9609375,8.44771525 11.9609375,9 C11.9609375,9.55228475 11.5132222,10 10.9609375,10 C10.4086528,10 9.9609375,9.55228475 9.9609375,9 C9.9609375,8.44771525 10.4086528,8 10.9609375,8 Z" id="shape" transform="translate(12.016214, 12.500000) scale(-1, 1) translate(-12.016214, -12.500000) "></path>
        </g>
    </g>
</svg>