<svg width="24" height="24" viewBox="0 0 24 24"  xmlns="http://www.w3.org/2000/svg">
<path d="M6 17C6.82843 17 7.5 17.6716 7.5 18.5C7.5 19.3284 6.82843 20 6 20C5.17157 20 4.5 19.3284 4.5 18.5C4.5 17.6716 5.17157 17 6 17ZM12 17C12.8284 17 13.5 17.6716 13.5 18.5C13.5 19.3284 12.8284 20 12 20C11.1716 20 10.5 19.3284 10.5 18.5C10.5 17.6716 11.1716 17 12 17ZM18 17C18.8284 17 19.5 17.6716 19.5 18.5C19.5 19.3284 18.8284 20 18 20C17.1716 20 16.5 19.3284 16.5 18.5C16.5 17.6716 17.1716 17 18 17Z" fill="#001E3E"/>
</svg>
