<?xml version="1.0" encoding="UTF-8"?>
<svg width="24px" height="24px" viewBox="0 0 24 24" version="1.1" xmlns="http://www.w3.org/2000/svg" xmlns:xlink="http://www.w3.org/1999/xlink">
    <!-- Generator: Sketch 62 (91390) - https://sketch.com -->
    <title>icons / 24x24 / driver</title>
    <desc>Created with Sketch.</desc>
    <g id="icons-/-24x24-/-driver" stroke="none" stroke-width="1" fill="none" fill-rule="evenodd">
        <g id="icon" fill="#001E3E" fill-rule="nonzero">
            <path d="M11.762286,11.5831691 L11.9087735,11.7230124 L12.0208574,11.8418873 C13.3375147,13.3063882 13.2922892,15.5411788 11.9174598,16.951212 L6.95568006,22.0400428 L2.05201545,16.9568997 C0.68470407,15.5395436 0.645464498,13.3064051 1.96213705,11.8418873 C3.2342837,10.4268951 5.41264012,10.311096 6.82763229,11.5832426 L6.99149721,11.739808 L7.03648715,11.6953264 C8.3412525,10.4053055 10.4162165,10.3707592 11.762286,11.5831691 Z M18,11 C20.209139,11 22,12.790861 22,15 L22,22 L9.295,22 L11.365,20 L20,20 L20,15 C20,13.8954305 19.1045695,13 18,13 L14.5216005,13.0003236 C14.3348689,12.2776733 14.0166497,11.5871504 13.5609743,10.9993801 L18,11 Z M8.44264199,13.1175531 L6.99149721,14.5522993 L5.54035242,13.1175531 L5.49048484,13.0705343 C4.89690121,12.5368738 3.98308928,12.5854511 3.44942879,13.1790348 C2.83439329,13.8631308 2.85272262,14.9062598 3.49141219,15.568326 L6.96333468,19.1673239 L10.4854834,15.5549872 C11.087203,14.9378601 11.1412277,13.9809962 10.6350432,13.3027833 L10.5335656,13.1790348 L10.4865469,13.1291672 C9.9253453,12.5615513 9.0102579,12.5563514 8.44264199,13.1175531 Z M14.9751553,2 C17.1705729,2 18.9503106,3.790861 18.9503106,6 C18.9503106,8.209139 17.1705729,10 14.9751553,10 C12.7797376,10 11,8.209139 11,6 C11,3.790861 12.7797376,2 14.9751553,2 Z M14.9751553,4 C13.8871062,4 13,4.89265064 13,6 C13,7.10734936 13.8871062,8 14.9751553,8 C16.0632043,8 16.9503106,7.10734936 16.9503106,6 C16.9503106,4.89265064 16.0632043,4 14.9751553,4 Z" id="shape"></path>
        </g>
    </g>
</svg>