<svg width="24" height="24" viewBox="0 0 24 24" fill="none" xmlns="http://www.w3.org/2000/svg">
<path d="M9.87879 9.5C9.87879 10.3 9.18939 11 8.40152 11C7.61364 11 6.92424 10.3 6.92424 9.5C6.92424 8.7 7.61364 8 8.40152 8C9.18939 8 9.87879 8.7 9.87879 9.5ZM16.7727 9.5C16.7727 10.3 16.0833 11 15.2955 11C14.5076 11 13.8182 10.3 13.8182 9.5C13.8182 8.7 14.5076 8 15.2955 8C16.0833 8 16.7727 8.7 16.7727 9.5ZM14.803 14.12L12.7152 12L11.6712 13.06L12.7152 14.12L11.6712 15.18L12.7152 16.24L11.6712 17.3L12.7152 18.36L14.803 16.24L13.7591 15.18L14.803 14.12ZM17.6098 13C17.0744 13 16.5609 13.216 16.1822 13.6004C15.8036 13.9849 15.5909 14.5063 15.5909 15.05C15.5909 15.62 15.8174 16.12 16.1818 16.5L19.6288 20L23.0758 16.5C23.4402 16.13 23.6667 15.61 23.6667 15.05C23.6667 14.5063 23.454 13.9849 23.0753 13.6004C22.6967 13.216 22.1832 13 21.6477 13C21.1061 13 20.5841 13.23 20.2197 13.6L19.6288 14.2L19.0379 13.61C18.6735 13.23 18.1515 13 17.6098 13ZM15.7879 18.92C14.6258 19.6 13.2864 20 11.8485 20C7.49715 20 3.9697 16.4183 3.9697 12C3.9697 7.58172 7.49715 4 11.8485 4C16.0439 4 19.4614 7.33 19.7273 11.5C20.2985 11.19 20.9682 11 21.6477 11C21.1553 5.95 16.95 2 11.8485 2C6.40932 2 2 6.47715 2 12C2 17.5228 6.40932 22 11.8485 22C13.8182 22 15.6697 21.4 17.2159 20.38L15.7879 18.92Z" fill="#001E3E"/>
</svg>
