<svg width="24" height="24" viewBox="0 0 24 24" fill="none" xmlns="http://www.w3.org/2000/svg">
<path d="M20 12C20 7.58172 16.4183 4 12 4C7.58172 4 4 7.58172 4 12C4 16.4183 7.58172 20 12 20C14.1217 20 16.1566 19.1571 17.6569 17.6569C19.1571 16.1566 20 14.1217 20 12ZM22 12C22 17.5228 17.5228 22 12 22C9.34784 22 6.8043 20.9464 4.92893 19.0711C3.05357 17.1957 2 14.6522 2 12C2 9.34784 3.05357 6.8043 4.92893 4.92893C6.8043 3.05357 9.34784 2 12 2C14.6522 2 17.1957 3.05357 19.0711 4.92893C20.9464 6.8043 22 9.34784 22 12ZM10 9.5C10 10.3 9.3 11 8.5 11C7.7 11 7 10.3 7 9.5C7 8.7 7.7 8 8.5 8C9.3 8 10 8.7 10 9.5ZM17 9.5C17 10.3 16.3 11 15.5 11C14.7 11 14 10.3 14 9.5C14 8.7 14.7 8 15.5 8C16.3 8 17 8.7 17 9.5ZM12 17.23C10.25 17.23 8.71 16.5 7.81 15.42L9.23 14C9.68 14.72 10.75 15.23 12 15.23C13.25 15.23 14.32 14.72 14.77 14L16.19 15.42C15.29 16.5 13.75 17.23 12 17.23Z" fill="#001E3E"/>
</svg>
