<svg width="24" height="24" viewBox="0 0 24 24" fill="none" xmlns="http://www.w3.org/2000/svg">
<path d="M12 2C14.6522 2 17.1957 3.05357 19.0711 4.92893C20.9464 6.8043 22 9.34784 22 12C22 17.5228 17.5228 22 12 22C9.34784 22 6.8043 20.9464 4.92893 19.0711C3.05357 17.1957 2 14.6522 2 12C2 9.34784 3.05357 6.8043 4.92893 4.92893C6.8043 3.05357 9.34784 2 12 2ZM12 4C7.58172 4 4 7.58172 4 12C4 16.4183 7.58172 20 12 20C14.1217 20 16.1566 19.1571 17.6569 17.6569C19.1571 16.1566 20 14.1217 20 12C20 7.58172 16.4183 4 12 4ZM16.6667 13L18 14.4142C16.4196 16.0905 14.2802 17.0503 12 17.0503C9.8189 17.0503 7.76671 16.1721 6.20928 14.6288L6 14.4142L7.33333 13C8.56363 14.3049 10.225 15.0503 12 15.0503C13.6764 15.0503 15.2514 14.3854 16.4577 13.2123L16.6667 13ZM9.75 8C10.0815 8 10.3995 8.13884 10.6339 8.38599C10.8683 8.63314 11 8.96834 11 9.31786C11 9.67786 10.8598 10.0121 10.6341 10.25L8.5 12.5L6.36585 10.25C6.14024 10.0057 6 9.68429 6 9.31786C6 8.96834 6.1317 8.63314 6.36612 8.38599C6.60054 8.13884 6.91848 8 7.25 8C7.58537 8 7.90854 8.14786 8.13415 8.39214L8.5 8.77143L8.86585 8.38571C9.09146 8.14786 9.41463 8 9.75 8ZM16.75 8C17.0815 8 17.3995 8.13884 17.6339 8.38599C17.8683 8.63314 18 8.96834 18 9.31786C18 9.67786 17.8598 10.0121 17.6341 10.25L15.5 12.5L13.3659 10.25C13.1402 10.0057 13 9.68429 13 9.31786C13 8.96834 13.1317 8.63314 13.3661 8.38599C13.6005 8.13884 13.9185 8 14.25 8C14.5854 8 14.9085 8.14786 15.1341 8.39214L15.5 8.77143L15.8659 8.38571C16.0915 8.14786 16.4146 8 16.75 8Z" fill="#001E3E"/>
</svg>
