<?xml version="1.0" encoding="UTF-8"?>
<svg width="24px" height="24px" viewBox="0 0 24 24" version="1.1" xmlns="http://www.w3.org/2000/svg" xmlns:xlink="http://www.w3.org/1999/xlink">
    <!-- Generator: Sketch 62 (91390) - https://sketch.com -->
    <title>icons / 24x24 / flashlight-off</title>
    <desc>Created with Sketch.</desc>
    <g id="icons-/-24x24-/-flashlight-off" stroke="none" stroke-width="1" fill="none" fill-rule="evenodd">
        <g id="icon" fill="#001E3E" fill-rule="nonzero">
            <path d="M13,12.4648162 L13,19 C13,19.5522847 12.5522847,20 12,20 C11.4477153,20 11,19.5522847 11,19 L11,12.4648162 L8,10.4648162 L8,9 L14,9 L14,7 L6,7 L6,11.5351838 L9,13.5351838 L9,19 C9,20.6568542 10.3431458,22 12,22 C13.6568542,22 15,20.6568542 15,19 L15,13.5351838 L18,11.5351838 L18,7 L16,7 L16,10.4648162 L13,12.4648162 Z" id="shape"></path>
        </g>
    </g>
</svg>