<svg width="24" height="24" viewBox="0 0 24 24" fill="none" xmlns="http://www.w3.org/2000/svg">
<path d="M14 7V9H8V10.4648L11 12.4648V19C11 19.5523 11.4477 20 12 20C12.5523 20 13 19.5523 13 19V12.4648L16 10.4648V7H18V11.5352L15 13.5352V19C15 20.6569 13.6569 22 12 22C10.3431 22 9 20.6569 9 19V13.5352L6 11.5352V7H14ZM16.134 1.76795L17.866 2.76795L15.866 6.23205L14.134 5.23205L16.134 1.76795ZM7.86603 1.76795L9.86602 5.23205L8.13398 6.23205L6.13397 2.76795L7.86603 1.76795ZM13 1V5H11V1H13Z" fill="#001E3E"/>
</svg>
