<?xml version="1.0" encoding="UTF-8"?>
<svg width="24px" height="24px" viewBox="0 0 24 24" version="1.1" xmlns="http://www.w3.org/2000/svg" xmlns:xlink="http://www.w3.org/1999/xlink">
    <!-- Generator: Sketch 62 (91390) - https://sketch.com -->
    <title>icons / 24x24 / flash-light-on</title>
    <desc>Created with Sketch.</desc>
    <g id="icons-/-24x24-/-flash-light-on" stroke="none" stroke-width="1" fill="none" fill-rule="evenodd">
        <g id="icon" fill="#001E3E" fill-rule="nonzero">
            <path d="M14,7 L14,9 L8,9 L8,10.4648162 L11,12.4648162 L11,19 C11,19.5522847 11.4477153,20 12,20 C12.5522847,20 13,19.5522847 13,19 L13,19 L13,12.4648162 L16,10.4648162 L16,7 L18,7 L18,11.5351838 L15,13.5351838 L15,19 C15,20.6568542 13.6568542,22 12,22 C10.3431458,22 9,20.6568542 9,19 L9,19 L9,13.5351838 L6,11.5351838 L6,7 L14,7 Z M16.1339746,1.76794919 L17.8660254,2.76794919 L15.8660254,6.23205081 L14.1339746,5.23205081 L16.1339746,1.76794919 Z M7.8660254,1.76794919 L9.8660254,5.23205081 L8.1339746,6.23205081 L6.1339746,2.76794919 L7.8660254,1.76794919 Z M13,1 L13,5 L11,5 L11,1 L13,1 Z" id="shape"></path>
        </g>
    </g>
</svg>