<svg width="24" height="24" viewBox="0 0 24 24" fill="none" xmlns="http://www.w3.org/2000/svg">
<path d="M12 4.53399C17.5228 4.53399 22 9.01115 22 14.534C22 15.5795 21.8395 16.5876 21.5419 17.5349L19.4181 17.535C19.7933 16.6083 20 15.5953 20 14.534C20 10.1157 16.4183 6.53399 12 6.53399C11.7228 6.53399 11.4489 6.54809 11.179 6.57561L10.014 4.73119C10.6559 4.60186 11.32 4.53399 12 4.53399ZM4.77438 7.62091L5.88375 9.37702C4.70841 10.7696 4 12.5691 4 14.534C4 15.5953 4.20665 16.6083 4.58191 17.535L2.45808 17.5349C2.16045 16.5876 2 15.5795 2 14.534C2 11.8521 3.05577 9.41672 4.77438 7.62091ZM7.19098 4L12.5815 12.5356C13.6483 12.5784 14.5 13.4567 14.5 14.534C14.5 15.6386 13.6046 16.534 12.5 16.534C11.3954 16.534 10.5 15.6386 10.5 14.534C10.5 14.1427 10.6124 13.7777 10.8066 13.4694L5.5 5.06799L7.19098 4Z" fill="#001E3E"/>
</svg>
