<svg width="24" height="24" viewBox="0 0 24 24" fill="none" xmlns="http://www.w3.org/2000/svg">
<path d="M12 2C17.5228 2 22 6.47715 22 12C22 17.5228 17.5228 22 12 22C6.47715 22 2 17.5228 2 12C2 6.47715 6.47715 2 12 2ZM12 4C7.58172 4 4 7.58172 4 12C4 13.0746 4.21187 14.0997 4.59612 15.0358C5.19913 15.1847 5.60894 16.0997 6.36011 16.6173C6.8288 16.9403 7.34059 16.7471 7.45068 17.2803C7.511 17.5725 7.14205 17.6833 6.90625 18.1965L6.9165 18.1775C8.29861 19.3162 10.0694 20 12 20C16.4183 20 20 16.4183 20 12C20 11.5591 19.9643 11.1266 19.8957 10.7051C19.4921 11.7804 18.7373 12.6065 18.4644 12.8094C17.594 13.4565 16.4608 9.84643 15.0166 9.66138C14.0241 9.53421 16.0276 11 15.3622 12.8094C15.2376 13.1482 15.1169 13.5102 14.9949 13.8773L14.8722 14.2455C14.2342 16.1497 13.515 18.031 12 17.4009C11.1871 17.0628 11.5931 14.2543 10.7242 13.0144C9.7504 11.6249 7.64795 15.6812 6.87744 12C6.40313 9.73395 8.0281 9.15963 9.77576 8.75183C10.4949 8.58402 13.0446 9.24517 13.4749 8.75183C14.0591 8.08198 12.8557 7.63021 12 7.6626C11.4806 7.68226 11.2839 7.50842 10.7242 7.21582C9.96004 6.8163 9.17665 7.92773 8.59814 7.6626C8.01964 7.39746 8.2715 6.89693 9.30884 6.16272C9.54872 5.99294 9.97966 5.89156 10.4282 5.80459L10.8129 5.73231C11.3843 5.62541 11.9029 5.51681 12 5.29175C12.4402 4.27119 10.4875 5.56344 10.7242 5.11618C10.7756 4.75444 10.8939 4.50417 11.079 4.36536C11.6958 3.90284 13.6348 4.50399 14.0332 4.36536C14.0907 4.34536 14.1408 4.3241 14.1842 4.30174C13.4877 4.1049 12.7561 4 12 4Z" fill="#001E3E"/>
</svg>
