<?xml version="1.0" encoding="UTF-8"?>
<svg width="24px" height="24px" viewBox="0 0 24 24" version="1.1" xmlns="http://www.w3.org/2000/svg" xmlns:xlink="http://www.w3.org/1999/xlink">
    <!-- Generator: Sketch 62 (91390) - https://sketch.com -->
    <title>icons / 24x24 / globe</title>
    <desc>Created with Sketch.</desc>
    <g id="icons-/-24x24-/-globe" stroke="none" stroke-width="1" fill="none" fill-rule="evenodd">
        <g id="icon" fill="#001E3E" fill-rule="nonzero">
            <path d="M12,2 C17.5228475,2 22,6.4771525 22,12 C22,17.5228475 17.5228475,22 12,22 C6.4771525,22 2,17.5228475 2,12 C2,6.4771525 6.4771525,2 12,2 Z M12,4 C7.581722,4 4,7.581722 4,12 C4,13.0745928 4.21187205,14.0997003 4.59612122,15.0358274 C5.19912838,15.1846517 5.60893903,16.0997227 6.36010742,16.6173096 C6.82879798,16.9402573 7.34058903,16.7471237 7.45068359,17.2803466 C7.51100463,17.5725005 7.14204791,17.6832525 6.90625,18.1965332 L6.91650263,18.1775142 C8.29861071,19.316168 10.0694466,20 12,20 C16.418278,20 20,16.418278 20,12 C20,11.559114 19.9643353,11.1265579 19.8957336,10.7050594 C19.4921316,11.7804097 18.7373059,12.6065256 18.4643555,12.8094482 C17.5940351,13.4564804 16.4608481,9.84642768 15.0166016,9.66137695 C14.0240988,9.53420797 16.0275879,11 15.3621826,12.8094482 C14.5524175,15.0114568 13.9059324,18.1936378 12,17.4008789 C11.187085,17.0627527 11.593127,14.2542503 10.724242,13.0144453 C9.75039571,11.624872 7.64794922,15.6811523 6.87744141,12 C6.40313027,9.73394698 8.02809536,9.15963345 9.77575684,8.75183105 C10.4949195,8.58402038 13.044571,9.24517386 13.4748609,8.75183105 C14.0591005,8.08197921 12.855692,7.63020976 12,7.66259766 C11.480581,7.68225764 11.2839332,7.50842285 10.724242,7.21582031 C9.96003618,6.81629901 9.17665301,7.92773437 8.59814453,7.66259766 C8.01963605,7.39746094 8.27150149,6.89692733 9.30883789,6.16271973 C9.92567501,5.72613377 11.8058336,5.74187052 12,5.29174805 C12.4402309,4.27119146 10.4875049,5.56343672 10.724242,5.11618396 C10.7756272,4.75444115 10.893873,4.50416531 11.0789795,4.36535645 C11.6957638,3.90283819 13.6348487,4.50399379 14.0332031,4.36535645 C14.0906676,4.34535737 14.1408209,4.32410169 14.1842048,4.3017359 C13.4877469,4.10489904 12.7561237,4 12,4 Z" id="shape"></path>
        </g>
    </g>
</svg>