<svg width="24" height="24" viewBox="0 0 24 24" fill="none" xmlns="http://www.w3.org/2000/svg">
<path d="M11.24 5.27511L11.4183 5.44495L11.945 6.10192L12.5817 5.46493C14.5075 3.53833 17.6299 3.53833 19.5557 5.46493C21.4814 7.39153 21.4814 10.5152 19.5557 12.4418L12.0006 20L5.02662 13.0232L5.03561 13.0137L4.44435 12.4218C2.57691 10.5536 2.52032 7.55976 4.27458 5.62333L4.44435 5.44495C6.25343 3.63511 9.11841 3.52543 11.0555 5.11589L11.24 5.27511ZM9.75166 6.63002C8.64763 5.75351 7.06376 5.78922 6.02812 6.69364L5.89039 6.82235L5.75405 6.96473C4.75133 8.07158 4.74738 9.75419 5.72382 10.8679L5.85674 11.0099L7.82532 12.9807L7.81597 12.9888L12 17.1745L18.1438 11.0293C19.2898 9.88279 19.2898 8.0239 18.1438 6.87737C16.9977 5.73085 15.1396 5.73085 13.9936 6.87737L11.7814 9.09046L9.94542 6.7995L9.88752 6.74457L9.75166 6.63002Z" fill="#001E3E"/>
</svg>
