<?xml version="1.0" encoding="UTF-8"?>
<svg width="24px" height="24px" viewBox="0 0 24 24" version="1.1" xmlns="http://www.w3.org/2000/svg" xmlns:xlink="http://www.w3.org/1999/xlink">
    <!-- Generator: Sketch 62 (91390) - https://sketch.com -->
    <title>icons / 24x24 / heart / outline</title>
    <desc>Created with Sketch.</desc>
    <g id="icons-/-24x24-/-heart-/-outline" stroke="none" stroke-width="1" fill="none" fill-rule="evenodd">
        <g id="icon" fill="#001E3E" fill-rule="nonzero">
            <path d="M12.303565,6.20362319 C13.925631,4.60940225 16.4771755,4.60470587 18.1044929,6.15487369 L18.2640752,6.31507207 L18.3281808,6.38439501 C19.9374858,8.16378379 19.8826858,10.920938 18.2039983,12.6323951 L12,19.0014459 L5.78469199,12.6412931 C4.11447377,10.9202156 4.06690713,8.16432123 5.67669815,6.38439501 C7.20400042,4.69567559 9.75085791,4.53799893 11.4647742,5.98791125 L11.6333207,6.13826395 L12.0024395,6.49957945 L12.303565,6.20362319 Z M12,16.1655074 L16.8169341,11.2181573 C17.751383,10.2654671 17.7818876,8.73068499 16.8860609,7.74018031 L16.8517867,7.70311664 C15.9879146,6.78944218 14.5611353,6.76276444 13.6649858,7.64353023 L12.0024395,9.27753656 L10.3035404,7.60858576 C9.38846178,6.74828967 7.96261303,6.80720655 7.11881807,7.74018031 C6.21976075,8.73425698 6.24632639,10.2734052 7.17913189,11.2346153 L12,16.1655074 Z" id="shape"></path>
        </g>
    </g>
</svg>