<svg width="24" height="24" viewBox="0 0 24 24" fill="none" xmlns="http://www.w3.org/2000/svg">
<path d="M12 2C17.5228 2 22 6.47715 22 12C22 17.5228 17.5228 22 12 22C6.47715 22 2 17.5228 2 12C2 6.47715 6.47715 2 12 2ZM12 4C7.58172 4 4 7.58172 4 12C4 16.4183 7.58172 20 12 20C16.4183 20 20 16.4183 20 12C20 7.58172 16.4183 4 12 4ZM13 10.4V16.4H11V10.4H13ZM12 6.8C12.6627 6.8 13.2 7.33726 13.2 8C13.2 8.66274 12.6627 9.2 12 9.2C11.3373 9.2 10.8 8.66274 10.8 8C10.8 7.33726 11.3373 6.8 12 6.8Z" fill="#001E3E"/>
</svg>
