<?xml version="1.0" encoding="UTF-8"?>
<svg width="24px" height="24px" viewBox="0 0 24 24" version="1.1" xmlns="http://www.w3.org/2000/svg" xmlns:xlink="http://www.w3.org/1999/xlink">
    <!-- Generator: Sketch 62 (91390) - https://sketch.com -->
    <title>icons / 24x24 / keyboard / numeric</title>
    <desc>Created with Sketch.</desc>
    <g id="icons-/-24x24-/-keyboard-/-numeric" stroke="none" stroke-width="1" fill="none" fill-rule="evenodd">
        <g id="icon" fill="#001E3E" fill-rule="nonzero">
            <path d="M22,5 L22,7 L4,7 L4,17 L20,17 L20,9 L22,9 L22,17 C22,18.1045695 21.1045695,19 20,19 L4,19 C2.8954305,19 2,18.1045695 2,17 L2,7 C2,5.8954305 2.8954305,5 4,5 L22,5 Z M17.4,14.4 C17.7313708,14.4 18,14.6686292 18,15 C18,15.3313708 17.7313708,15.6 17.4,15.6 L6.6,15.6 C6.26862915,15.6 6,15.3313708 6,15 C6,14.6686292 6.26862915,14.4 6.6,14.4 L17.4,14.4 Z M15.4462891,8.65820312 C16.4365234,8.65820312 16.9785156,9.17675781 16.9755859,9.80664062 C16.9755859,10.3164062 16.6474609,10.6533203 16.1845703,10.7617188 L16.1845703,10.8173828 C16.7939453,10.9023438 17.1455078,11.2802734 17.1455078,11.8369141 C17.1455078,12.5927734 16.4248047,13.1142578 15.4082031,13.1142578 C14.4033203,13.1142578 13.7207031,12.5722656 13.6826172,11.7402344 L14.7080078,11.7402344 C14.7226562,12.0654297 14.9863281,12.2675781 15.3935547,12.2675781 C15.7861328,12.2675781 16.0527344,12.0537109 16.0527344,11.734375 C16.0527344,11.4003906 15.8007812,11.1982422 15.3876953,11.1982422 L14.8457031,11.1982422 L14.8457031,10.4716797 L15.3876953,10.4716797 C15.7451172,10.4716797 15.9765625,10.2636719 15.9765625,9.95898438 C15.9765625,9.671875 15.7568359,9.4609375 15.3935547,9.4609375 C15.0126953,9.4609375 14.78125,9.66308594 14.7636719,10.0058594 L13.7851562,10.0058594 C13.7998047,9.19433594 14.4414062,8.65820312 15.4462891,8.65820312 Z M8.64941406,8.77246094 L8.64941406,13 L7.57421875,13 L7.57421875,9.7421875 L7.51855469,9.7421875 L6.49902344,10.4306641 L6.49902344,9.50488281 L7.57421875,8.77246094 L8.64941406,8.77246094 Z M11.3740234,8.65820312 C12.3525391,8.65820312 12.9355469,9.18847656 12.9355469,9.91210938 C12.9355469,10.4130859 12.7128906,10.7441406 12.0390625,11.3535156 L12.0390625,11.3535156 L11.2070312,12.1064453 L11.2070312,12.1621094 L12.9853516,12.1621094 L12.9853516,13 L9.77148438,13 L9.77148438,12.2822266 L11.2832031,10.9140625 C11.8046875,10.4365234 11.8925781,10.2548828 11.8925781,10.0058594 C11.8925781,9.71289062 11.6875,9.46972656 11.3183594,9.46972656 C10.9257812,9.46972656 10.6943359,9.73632812 10.6943359,10.1025391 L10.6943359,10.1025391 L9.70996094,10.1025391 C9.70996094,9.24414062 10.3867188,8.65820312 11.3740234,8.65820312 Z" id="shape"></path>
        </g>
    </g>
</svg>