<svg width="24" height="24" viewBox="0 0 24 24" fill="none" xmlns="http://www.w3.org/2000/svg">
<path d="M22 5V7H4V17H20V9H22V17C22 18.1046 21.1046 19 20 19H4C2.89543 19 2 18.1046 2 17V7C2 5.89543 2.89543 5 4 5H22ZM17.4 14.4C17.7314 14.4 18 14.6686 18 15C18 15.3314 17.7314 15.6 17.4 15.6H6.6C6.26863 15.6 6 15.3314 6 15C6 14.6686 6.26863 14.4 6.6 14.4H17.4ZM15.4463 8.6582C16.4365 8.6582 16.9785 9.17676 16.9756 9.80664C16.9756 10.3164 16.6475 10.6533 16.1846 10.7617V10.8174C16.7939 10.9023 17.1455 11.2803 17.1455 11.8369C17.1455 12.5928 16.4248 13.1143 15.4082 13.1143C14.4033 13.1143 13.7207 12.5723 13.6826 11.7402H14.708C14.7227 12.0654 14.9863 12.2676 15.3936 12.2676C15.7861 12.2676 16.0527 12.0537 16.0527 11.7344C16.0527 11.4004 15.8008 11.1982 15.3877 11.1982H14.8457V10.4717H15.3877C15.7451 10.4717 15.9766 10.2637 15.9766 9.95898C15.9766 9.67188 15.7568 9.46094 15.3936 9.46094C15.0127 9.46094 14.7812 9.66309 14.7637 10.0059H13.7852C13.7998 9.19434 14.4414 8.6582 15.4463 8.6582ZM8.64941 8.77246V13H7.57422V9.74219H7.51855L6.49902 10.4307V9.50488L7.57422 8.77246H8.64941ZM11.374 8.6582C12.3525 8.6582 12.9355 9.18848 12.9355 9.91211C12.9355 10.4131 12.7129 10.7441 12.0391 11.3535L11.207 12.1064V12.1621H12.9854V13H9.77148V12.2822L11.2832 10.9141C11.8047 10.4365 11.8926 10.2549 11.8926 10.0059C11.8926 9.71289 11.6875 9.46973 11.3184 9.46973C10.9258 9.46973 10.6943 9.73633 10.6943 10.1025H9.70996C9.70996 9.24414 10.3867 8.6582 11.374 8.6582Z" fill="#001E3E"/>
</svg>
