<svg width="24" height="24" viewBox="0 0 24 24" fill="none" xmlns="http://www.w3.org/2000/svg">
<path d="M22 5V7H4V17H20V9H22V17C22 18.1046 21.1046 19 20 19H4C2.89543 19 2 18.1046 2 17V7C2 5.89543 2.89543 5 4 5H22ZM17.4 14.4C17.7314 14.4 18 14.6686 18 15C18 15.3314 17.7314 15.6 17.4 15.6H6.6C6.26863 15.6 6 15.3314 6 15C6 14.6686 6.26863 14.4 6.6 14.4H17.4ZM16.6803 9.66309C17.5797 9.66309 18.1158 10.1465 18.1803 10.9463H17.2281C17.1842 10.6416 16.9967 10.46 16.6803 10.46C16.276 10.46 16.0709 10.7617 16.0709 11.3652C16.0709 11.9746 16.2789 12.2793 16.6803 12.2793C16.9908 12.2793 17.1812 12.1211 17.2281 11.8164H18.1803C18.1187 12.5957 17.565 13.0762 16.6803 13.0762C15.6051 13.0762 15.0309 12.4785 15.0309 11.3652C15.0309 10.2578 15.6051 9.66309 16.6803 9.66309ZM12.2301 8.51758V10.2637H12.2857C12.4439 9.90039 12.7955 9.68945 13.2437 9.68945C14.0699 9.68945 14.5445 10.3047 14.5445 11.3682C14.5445 12.4258 14.0611 13.0498 13.2437 13.0498C12.7809 13.0498 12.4146 12.8418 12.2594 12.4902H12.2037V13H11.1959V8.51758H12.2301ZM9.13047 8.77246L10.5514 13H9.37949L9.11582 12.0713H7.73594L7.46348 13H6.39707L7.81504 8.77246H9.13047ZM12.857 10.5039C12.4703 10.5039 12.2271 10.8379 12.2242 11.3711C12.2271 11.9043 12.4674 12.2354 12.857 12.2354C13.2437 12.2354 13.4811 11.9043 13.4811 11.3682C13.4811 10.8379 13.2408 10.5039 12.857 10.5039ZM8.45957 9.72461H8.40391L7.94102 11.2979H8.91367L8.45957 9.72461Z" fill="#001E3E"/>
</svg>
