<?xml version="1.0" encoding="UTF-8"?>
<svg width="24px" height="24px" viewBox="0 0 24 24" version="1.1" xmlns="http://www.w3.org/2000/svg" xmlns:xlink="http://www.w3.org/1999/xlink">
    <!-- Generator: Sketch 62 (91390) - https://sketch.com -->
    <title>icons / 24x24 / legal-banner / outline</title>
    <desc>Created with Sketch.</desc>
    <g id="icons-/-24x24-/-legal-banner-/-outline" stroke="none" stroke-width="1" fill="none" fill-rule="evenodd">
        <g id="icon" fill="#001E3E" fill-rule="nonzero">
            <path d="M20,2 L20,22 L12,18.715115 L4,22 L4,2 L20,2 Z M18,4 L6,4 L6,19.0167417 L12,16.5530779 L18,19.0167417 L18,4 Z M12.0488281,5.38671875 C13.6191406,5.38671875 14.7089844,6.16015625 14.8027344,7.33789062 L13.203125,7.33789062 C13.1445312,6.8984375 12.6757812,6.60546875 12.0429688,6.60546875 C11.3808594,6.60546875 10.9355469,6.921875 10.9355469,7.390625 C10.9355469,7.70973558 11.1652066,7.92400148 11.7397401,8.11176818 L12.96875,8.50390625 C14.3339844,8.92578125 14.9082031,9.46484375 14.9082031,10.2792969 C14.9082031,11.046875 14.3105469,11.7089844 13.4199219,11.9316406 L13.4199219,12.0371094 C14.4101562,12.3828125 14.8554688,12.8574219 14.8554688,13.6308594 C14.8554688,14.84375 13.71875,15.6640625 12.03125,15.6640625 C10.4316406,15.6640625 9.30078125,14.8554688 9.2421875,13.671875 L10.8476562,13.671875 C10.9121094,14.1289062 11.4101562,14.4453125 12.0546875,14.4453125 C12.7167969,14.4453125 13.1796875,14.1171875 13.1796875,13.6367188 C13.1796875,13.296875 12.8808594,13.0625 12.2128906,12.875 L11.0996094,12.5292969 C9.74023438,12.125 9.16601562,11.5859375 9.16601562,10.7363281 C9.16601562,9.9921875 9.69335938,9.38867188 10.5722656,9.14257812 L10.5722656,9.03710938 C9.65234375,8.63867188 9.24804688,8.14648438 9.24804688,7.40234375 C9.24804688,6.18945312 10.3613281,5.38671875 12.0488281,5.38671875 Z M11.703125,9.55859375 C11.1875,9.62304688 10.7832031,9.99804688 10.7832031,10.4082031 C10.7832031,10.7573242 11.0687663,11.0572103 11.5676812,11.2221103 L11.7089844,11.2636719 L12.4003906,11.4804688 C12.9101562,11.4160156 13.3027344,11.046875 13.3027344,10.625 C13.3027344,10.2651367 13.0220947,9.97420247 12.5330268,9.81538222 L12.3945312,9.77539062 L11.703125,9.55859375 Z" id="shape"></path>
        </g>
    </g>
</svg>