<svg width="24" height="24" viewBox="0 0 24 24" fill="none" xmlns="http://www.w3.org/2000/svg">
<path d="M4.5 15.5C5.32843 15.5 6 16.1716 6 17C6 17.8284 5.32843 18.5 4.5 18.5C3.67157 18.5 3 17.8284 3 17C3 16.1716 3.67157 15.5 4.5 15.5ZM20 16V18H8V16H20ZM4.5 10.5C5.32843 10.5 6 11.1716 6 12C6 12.8284 5.32843 13.5 4.5 13.5C3.67157 13.5 3 12.8284 3 12C3 11.1716 3.67157 10.5 4.5 10.5ZM18 11V13H8V11H18ZM4.5 5.5C5.32843 5.5 6 6.17157 6 7C6 7.82843 5.32843 8.5 4.5 8.5C3.67157 8.5 3 7.82843 3 7C3 6.17157 3.67157 5.5 4.5 5.5ZM21 6V8H8V6H21Z" fill="#001E3E"/>
</svg>
