<?xml version="1.0" encoding="UTF-8"?>
<svg width="24px" height="24px" viewBox="0 0 24 24" version="1.1" xmlns="http://www.w3.org/2000/svg" xmlns:xlink="http://www.w3.org/1999/xlink">
    <!-- Generator: Sketch 62 (91390) - https://sketch.com -->
    <title>icons / 24x24 / list</title>
    <desc>Created with Sketch.</desc>
    <g id="icons-/-24x24-/-list" stroke="none" stroke-width="1" fill="none" fill-rule="evenodd">
        <g id="icon" fill="#001E3E" fill-rule="nonzero">
            <path d="M4.5,15.5 C5.32842712,15.5 6,16.1715729 6,17 C6,17.8284271 5.32842712,18.5 4.5,18.5 C3.67157288,18.5 3,17.8284271 3,17 C3,16.1715729 3.67157288,15.5 4.5,15.5 Z M20,16 L20,18 L8,18 L8,16 L20,16 Z M4.5,10.5 C5.32842712,10.5 6,11.1715729 6,12 C6,12.8284271 5.32842712,13.5 4.5,13.5 C3.67157288,13.5 3,12.8284271 3,12 C3,11.1715729 3.67157288,10.5 4.5,10.5 Z M18,11 L18,13 L8,13 L8,11 L18,11 Z M4.5,5.5 C5.32842712,5.5 6,6.17157288 6,7 C6,7.82842712 5.32842712,8.5 4.5,8.5 C3.67157288,8.5 3,7.82842712 3,7 C3,6.17157288 3.67157288,5.5 4.5,5.5 Z M21,6 L21,8 L8,8 L8,6 L21,6 Z" id="shape"></path>
        </g>
    </g>
</svg>