<svg width="24" height="24" viewBox="0 0 24 24" fill="none" xmlns="http://www.w3.org/2000/svg">
<path d="M20 2V22.5079L12 19.1291L4 22.5079V2H20ZM12.0488 5.38672C10.3613 5.38672 9.24805 6.18945 9.24805 7.40234C9.24805 8.14648 9.65234 8.63867 10.5723 9.03711V9.14258C9.69336 9.38867 9.16602 9.99219 9.16602 10.7363C9.16602 11.5859 9.74023 12.125 11.0996 12.5293L12.2129 12.875C12.8809 13.0625 13.1797 13.2969 13.1797 13.6367C13.1797 14.1172 12.7168 14.4453 12.0547 14.4453C11.4102 14.4453 10.9121 14.1289 10.8477 13.6719H9.24219C9.30078 14.8555 10.4316 15.6641 12.0312 15.6641C13.7188 15.6641 14.8555 14.8438 14.8555 13.6309C14.8555 12.8574 14.4102 12.3828 13.4199 12.0371V11.9316C14.3105 11.709 14.9082 11.0469 14.9082 10.2793C14.9082 9.46484 14.334 8.92578 12.9688 8.50391L11.7397 8.11177C11.1652 7.924 10.9355 7.70974 10.9355 7.39062C10.9355 6.92188 11.3809 6.60547 12.043 6.60547C12.6758 6.60547 13.1445 6.89844 13.2031 7.33789H14.8027C14.709 6.16016 13.6191 5.38672 12.0488 5.38672ZM11.7031 9.55859L12.3945 9.77539L12.533 9.81538C13.0221 9.9742 13.3027 10.2651 13.3027 10.625C13.3027 11.0469 12.9102 11.416 12.4004 11.4805L11.709 11.2637L11.5677 11.2221C11.0688 11.0572 10.7832 10.7573 10.7832 10.4082C10.7832 9.99805 11.1875 9.62305 11.7031 9.55859Z" fill="#001E3E"/>
</svg>
