<svg width="24" height="24" viewBox="0 0 24 24" fill="none" xmlns="http://www.w3.org/2000/svg">
<path d="M20 2V22L12 18.7151L4 22V2H20ZM18 4H6V19.0167L12 16.5531L18 19.0167V4ZM12.0488 5.38672C13.6191 5.38672 14.709 6.16016 14.8027 7.33789H13.2031C13.1445 6.89844 12.6758 6.60547 12.043 6.60547C11.3809 6.60547 10.9355 6.92188 10.9355 7.39062C10.9355 7.70974 11.1652 7.924 11.7397 8.11177L12.9688 8.50391C14.334 8.92578 14.9082 9.46484 14.9082 10.2793C14.9082 11.0469 14.3105 11.709 13.4199 11.9316V12.0371C14.4102 12.3828 14.8555 12.8574 14.8555 13.6309C14.8555 14.8438 13.7188 15.6641 12.0312 15.6641C10.4316 15.6641 9.30078 14.8555 9.24219 13.6719H10.8477C10.9121 14.1289 11.4102 14.4453 12.0547 14.4453C12.7168 14.4453 13.1797 14.1172 13.1797 13.6367C13.1797 13.2969 12.8809 13.0625 12.2129 12.875L11.0996 12.5293C9.74023 12.125 9.16602 11.5859 9.16602 10.7363C9.16602 9.99219 9.69336 9.38867 10.5723 9.14258V9.03711C9.65234 8.63867 9.24805 8.14648 9.24805 7.40234C9.24805 6.18945 10.3613 5.38672 12.0488 5.38672ZM11.7031 9.55859C11.1875 9.62305 10.7832 9.99805 10.7832 10.4082C10.7832 10.7573 11.0688 11.0572 11.5677 11.2221L11.709 11.2637L12.4004 11.4805C12.9102 11.416 13.3027 11.0469 13.3027 10.625C13.3027 10.2651 13.0221 9.9742 12.533 9.81538L12.3945 9.77539L11.7031 9.55859Z" fill="#001E3E"/>
</svg>
