<svg width="24" height="24" viewBox="0 0 24 24" fill="none" xmlns="http://www.w3.org/2000/svg">
<path d="M3 3L9.90417 3.02148L11.0012 8.23657L9.90417 9.58887C10.1555 10.3894 10.6614 11.1931 11.422 12C12.1826 12.8069 13.0597 13.4704 14.0535 13.9905L15.8 12.7787L21 13.6259V20.6188C15.8965 20.7492 11.6687 19.2519 8.36889 16.127C5.06909 13.0021 3.27946 8.62642 3 3ZM5.18591 5.00681L5.25027 5.45974C5.84306 9.35267 7.34534 12.4032 9.7441 14.6748C12.2236 17.0229 15.275 18.3236 18.9738 18.5796V15.325L16.2753 14.8832L14.1987 16.324L13.1259 15.7625C11.9359 15.1395 10.8802 14.341 9.96667 13.3719C9.01115 12.3582 8.34514 11.3003 7.99597 10.1878L7.67429 9.16301L8.84799 7.71623L8.28006 5.01644L5.18591 5.00681Z" fill="#001E3E"/>
</svg>
