<svg width="24" height="24" viewBox="0 0 24 24" fill="none" xmlns="http://www.w3.org/2000/svg">
<path d="M8.5 17C9.32843 17 10 17.6716 10 18.5C10 19.3284 9.32843 20 8.5 20C7.67157 20 7 19.3284 7 18.5C7 17.6716 7.67157 17 8.5 17ZM16.5 17C17.3284 17 18 17.6716 18 18.5C18 19.3284 17.3284 20 16.5 20C15.6716 20 15 19.3284 15 18.5C15 17.6716 15.6716 17 16.5 17ZM3.86039 4C5.23085 4 6.41873 4.92702 6.76218 6.23846L6.80213 6.41165L8.15903 13.1961C8.23227 13.5883 8.59672 13.943 9.02196 13.9931L9.13961 14H16.6694C17.0671 14 17.4227 13.7651 17.5821 13.4087L17.6239 13.2983L19.2788 8H8.5L8.09991 6H22L19.5329 13.8948C19.1601 15.0876 18.0903 15.9179 16.8558 15.9942L16.6694 16H9.13961C7.76915 16 6.58127 15.073 6.23782 13.7615L6.19787 13.5883L4.84097 6.80388C4.75528 6.37541 4.40327 6.05699 3.97804 6.00689L3.86039 6H2V4H3.86039Z" fill="#001E3E"/>
</svg>
