<?xml version="1.0" encoding="UTF-8"?>
<svg width="24px" height="24px" viewBox="0 0 24 24" version="1.1" xmlns="http://www.w3.org/2000/svg" xmlns:xlink="http://www.w3.org/1999/xlink">
    <!-- Generator: Sketch 62 (91390) - https://sketch.com -->
    <title>icons / 24x24 / speechbubbles / pair</title>
    <desc>Created with Sketch.</desc>
    <g id="icons-/-24x24-/-speechbubbles-/-pair" stroke="none" stroke-width="1" fill="none" fill-rule="evenodd">
        <g id="icon" fill="#001E3E" fill-rule="nonzero">
            <path d="M23,10 L23,23 L20,20 L14,20 C11.790861,20 10,18.209139 10,16 L10,10 L23,10 Z M21,12 L12,12 L12,16 C12,17.1045695 12.8954305,18 14,18 L21,18 L21,12 Z M15,3 L15,8 L13,8 L13,5 L4,5 L4,11 L8,11 L8,13 L5,13 L2,16 L2,3 L15,3 Z" id="shape"></path>
        </g>
    </g>
</svg>