<?xml version="1.0" encoding="UTF-8"?>
<svg width="24px" height="24px" viewBox="0 0 24 24" version="1.1" xmlns="http://www.w3.org/2000/svg" xmlns:xlink="http://www.w3.org/1999/xlink">
    <!-- Generator: Sketch 62 (91390) - https://sketch.com -->
    <title>icons / 24x24 / van</title>
    <desc>Created with Sketch.</desc>
    <g id="icons-/-24x24-/-van" stroke="none" stroke-width="1" fill="none" fill-rule="evenodd">
        <g id="icon" fill="#001E3E" fill-rule="nonzero">
            <path d="M16.3308473,3 C17.7807057,3 19.0230985,4.0368716 19.282457,5.46334369 L19.834,8.5 L21.5,8.5 L21.5,10.5 L20,10.5 L20,19 L18,19 L18,21 L15,21 L15,19 L9,19 L9,21 L6,21 L6,19 L4,19 L4,10.5 L2.5,10.5 L2.5,8.5 L4.165,8.5 L4.71754298,5.46334369 C4.97690154,4.0368716 6.21929427,3 7.66915271,3 L16.3308473,3 Z M18,10.5 L6,10.5 L6,17 L18,17 L18,10.5 Z M8.5,12 C9.32842712,12 10,12.6715729 10,13.5 C10,14.3284271 9.32842712,15 8.5,15 C7.67157288,15 7,14.3284271 7,13.5 C7,12.6715729 7.67157288,12 8.5,12 Z M15.5,12 C16.3284271,12 17,12.6715729 17,13.5 C17,14.3284271 16.3284271,15 15.5,15 C14.6715729,15 14,14.3284271 14,13.5 C14,12.6715729 14.6715729,12 15.5,12 Z M16.3308473,5 L7.66915271,5 C7.18586656,5 6.77173565,5.34562387 6.6852828,5.82111456 L6.198,8.5 L17.802,8.5 L17.3147172,5.82111456 C17.2282643,5.34562387 16.8141334,5 16.3308473,5 Z" id="shape"></path>
        </g>
    </g>
</svg>