<?xml version="1.0" encoding="UTF-8"?>
<svg width="24px" height="24px" viewBox="0 0 24 24" version="1.1" xmlns="http://www.w3.org/2000/svg" xmlns:xlink="http://www.w3.org/1999/xlink">
    <!-- Generator: Sketch 62 (91390) - https://sketch.com -->
    <title>icons / 24x24 / wrench</title>
    <desc>Created with Sketch.</desc>
    <g id="icons-/-24x24-/-wrench" stroke="none" stroke-width="1" fill="none" fill-rule="evenodd">
        <g id="icon" transform="translate(0.000000, -1.000000)" fill="#001E3E" fill-rule="nonzero">
            <path d="M11.4729766,6.98880652 L13.4729766,6.98880652 L13.4738855,2.06539512 C16.5885305,2.54678369 18.9729766,5.2393365 18.9729766,8.48880652 C18.9729766,10.7413593 17.81646,12.788386 15.9733432,13.9668452 L15.9729359,23.9888065 L8.97291177,23.9888065 L8.97356099,13.967454 C7.12991276,12.7891063 5.97297656,10.7417671 5.97297656,8.48880652 C5.97297656,5.23898811 8.35793392,2.54620633 11.4730695,2.06524036 L11.4729766,6.98880652 Z M7.97297656,8.48880652 C7.97297656,10.1977756 8.93347574,11.7348643 10.4286553,12.4989524 L10.9736381,12.7774573 L10.9730413,21.9888065 L13.9730172,21.9888065 L13.9733915,12.7770495 L14.5181252,12.4985295 C16.0128538,11.734281 16.9729766,10.1974431 16.9729766,8.48880652 C16.9729766,7.15644324 16.3939365,5.959322 15.4737773,5.1353636 L15.4729766,8.98880652 L9.47297656,8.98880652 L9.47361462,5.13407579 C8.55262023,5.95807438 7.97297656,7.15574893 7.97297656,8.48880652 Z" id="Shape" transform="translate(12.472977, 13.027023) rotate(45.000000) translate(-12.472977, -13.027023) "></path>
        </g>
    </g>
</svg>