<svg width="24" height="24" viewBox="0 0 24 24" fill="none" xmlns="http://www.w3.org/2000/svg">
<g clip-path="url(#clip0_2898_236341)">
<path d="M16.0355 7.05026L17.4497 8.46448L20.9318 4.98374C22.7938 7.52652 22.5759 11.1165 20.2782 13.4142C18.6854 15.007 16.4201 15.6367 14.2836 15.1667L7.19667 22.253L2.2469 17.3033L9.33353 10.2176C8.86309 8.08068 9.4927 5.81492 11.0858 4.22183C13.3838 1.92387 16.9743 1.7062 19.5171 3.56884L16.0355 7.05026ZM12.5 5.63605C11.2916 6.84447 10.8839 8.61053 11.4008 10.2081L11.5893 10.7904L5.07542 17.3034L7.19672 19.4247L13.7107 12.9112L14.2928 13.0995C15.8902 13.616 17.6558 13.2082 18.864 12C19.8061 11.0579 20.2431 9.80195 20.1751 8.56867L17.4497 11.2929L13.2071 7.05026L15.9333 4.32501C14.6994 4.25642 13.4426 4.69343 12.5 5.63605Z" fill="#001E3E"/>
</g>
<defs>
<clipPath id="clip0_2898_236341">
<rect width="24" height="24" fill="white"/>
</clipPath>
</defs>
</svg>
