<svg width="24" height="24" viewBox="0 0 24 24"  xmlns="http://www.w3.org/2000/svg">
<path d="M16.7899 4L18.5789 11.5125C20.7724 11.6804 22.5 13.5134 22.5 15.75C22.5 18.0972 20.5972 20 18.25 20C15.9028 20 14 18.0972 14 15.75C14 13.9882 15.072 12.4769 16.5992 11.8325L16.281 10.498L11.4806 16.5L9.43403 16.5C9.07979 18.4895 7.34129 20 5.25 20C2.90279 20 1 18.0972 1 15.75C1 13.4028 2.90279 11.5 5.25 11.5C6.42659 11.5 7.4915 11.9781 8.26106 12.7507L7.261 9.5H5V7.5H8.73857L10.788 14.163L15.693 8.032L15.21 6H13V4H16.7899Z" fill="#001E3E"/>
</svg>
