<svg width="24" height="24" viewBox="0 0 24 24"  xmlns="http://www.w3.org/2000/svg">
<path d="M16.7899 4L18.4558 11.0002C18.4705 11.0001 18.4853 11 18.5 11C20.9853 11 23 13.0147 23 15.5C23 17.9853 20.9853 20 18.5 20C16.0147 20 14 17.9853 14 15.5C14 13.7292 15.0228 12.1973 16.5099 11.4629L16.281 10.498L11.4806 16.5L9.88828 16.501C9.43319 18.5045 7.64125 20 5.5 20C3.01472 20 1 17.9853 1 15.5C1 13.0147 3.01472 11 5.5 11C6.40099 11 7.24014 11.2648 7.94387 11.7208L7.261 9.5H5V7.5H8.73857L10.788 14.163L15.693 8.032L15.21 6H13V4H16.7899ZM5.5 13C4.11929 13 3 14.1193 3 15.5C3 16.8807 4.11929 18 5.5 18C6.52484 18 7.40565 17.3833 7.79162 16.5008L5.5 16.5V14.5L7.79162 14.4992C7.40565 13.6167 6.52484 13 5.5 13ZM18.9418 13.0389L19.4728 15.2684L17.5272 15.7316L16.996 13.5028C16.391 13.9591 16 14.6839 16 15.5C16 16.8807 17.1193 18 18.5 18C19.8807 18 21 16.8807 21 15.5C21 14.27 20.1118 13.2475 18.9418 13.0389Z" fill="#001E3E"/>
</svg>
