<?xml version="1.0" encoding="UTF-8"?>
<svg width="24px" height="24px" viewBox="0 0 24 24" version="1.1" xmlns="http://www.w3.org/2000/svg" xmlns:xlink="http://www.w3.org/1999/xlink">
    <!-- Generator: Sketch 62 (91390) - https://sketch.com -->
    <title>icons / 24x24 / bike-rider / solid</title>
    <desc>Created with Sketch.</desc>
    <g id="icons-/-24x24-/-bike-rider-/-solid" stroke="none" stroke-width="1" fill="none" fill-rule="evenodd">
        <g id="icon" fill="#001E3E" fill-rule="nonzero">
            <path d="M6,13 C8.209139,13 10,14.790861 10,17 C10,19.209139 8.209139,21 6,21 C3.790861,21 2,19.209139 2,17 C2,14.790861 3.790861,13 6,13 Z M18,13 C20.209139,13 22,14.790861 22,17 C22,19.209139 20.209139,21 18,21 C15.790861,21 14,19.209139 14,17 C14,14.790861 15.790861,13 18,13 Z M11,6.58578644 L13.5355339,9.12132034 C14.0512589,9.63704538 14.7354199,9.94560951 15.4587179,9.99345544 L15.6568542,10 L17,10 L17,12 L15.6568542,12 C14.4191773,12 13.2288129,11.5411124 12.3132283,10.7175573 L12.1213203,10.5355339 L11,9.41421356 L9.48619148,10.9280221 L9.71177453,11.0633197 C11.6414155,12.2706537 12.9038747,14.3733541 12.9947432,16.7273112 L13,17 L13,18 L11,18 L11,17 C11,14.9403864 9.74316515,13.119509 7.87721434,12.3640031 L7.66741273,12.2844842 L7.00242891,12.0493406 L6.9990397,10.5867467 L11,6.58578644 Z M15,2 C16.6568542,2 18,3.34314575 18,5 C18,6.65685425 16.6568542,8 15,8 C13.3431458,8 12,6.65685425 12,5 C12,3.34314575 13.3431458,2 15,2 Z M15,4 C14.4477153,4 14,4.44771525 14,5 C14,5.55228475 14.4477153,6 15,6 C15.5522847,6 16,5.55228475 16,5 C16,4.44771525 15.5522847,4 15,4 Z" id="shape"></path>
        </g>
    </g>
</svg>