<svg width="24" height="24" viewBox="0 0 24 24" fill="none" xmlns="http://www.w3.org/2000/svg">
<path d="M6.5 14C8.433 14 10 15.567 10 17.5C10 19.433 8.433 21 6.5 21C4.567 21 3 19.433 3 17.5C3 15.567 4.567 14 6.5 14ZM17.5 14C19.433 14 21 15.567 21 17.5C21 19.433 19.433 21 17.5 21C15.567 21 14 19.433 14 17.5C14 15.567 15.567 14 17.5 14ZM11 9L13 9.64152C13.5834 10.2545 14.6991 10.9066 15.4922 10.9909L15.6569 11H17V13H15.6569C14.4137 13 13.5451 12.6787 12.6687 11.8659L12.4932 11.6967L12.033 14.1022C12.7591 15.2452 12.9722 16.3363 12.9974 17.7028L13 18V19H11V18C11.0922 16.2757 10.4747 15.2765 9.98632 14.6579L9.90626 14.5583L11 9ZM14 3C15.6569 3 17 4.34315 17 6C17 7.65685 15.6569 9 14 9C12.3431 9 11 7.65685 11 6C11 4.34315 12.3431 3 14 3ZM14 5C13.4477 5 13 5.44772 13 6C13 6.55228 13.4477 7 14 7C14.5523 7 15 6.55228 15 6C15 5.44772 14.5523 5 14 5Z" fill="#001E3E"/>
</svg>
