<?xml version="1.0" encoding="UTF-8"?>
<svg width="24px" height="24px" viewBox="0 0 24 24" version="1.1" xmlns="http://www.w3.org/2000/svg" xmlns:xlink="http://www.w3.org/1999/xlink">
    <!-- Generator: Sketch 62 (91390) - https://sketch.com -->
    <title>icons / 24x24 / black-cab / outline</title>
    <desc>Created with Sketch.</desc>
    <g id="icons-/-24x24-/-black-cab-/-outline" stroke="none" stroke-width="1" fill="none" fill-rule="evenodd">
        <g id="icon" fill="#001E3E" fill-rule="nonzero">
            <path d="M14,2 L14,3 L16.2450822,3 C17.2024393,3 18.0255342,3.67843905 18.208299,4.61818884 L18.865,8 L21,8 L21,10 L19.629,10 L19.705491,10.1581232 C19.89936,10.5627538 20,11.0057172 20,11.4543942 L20,21 L17,21 L17,19 L7,19 L7,21 L4,21 L4,11.4857798 C4,11.0069608 4.11461091,10.5350972 4.33425355,10.1096272 L4.39,10 L3,10 L3,8 L5.208,8 L5.86903675,4.61689596 C6.0523255,3.67775319 6.87514018,3 7.83200167,3 L10,3 L10,2 L14,2 Z M17.412,10 L6.641,10 L6.11141785,11.0270623 C6.03820364,11.1688856 6,11.3261735 6,11.4857798 L6,17 L9.3,16.999 L9.3,14 C9.3,13.0611159 10.0611159,12.3 11,12.3 L13,12.3 C13.9388841,12.3 14.7,13.0611159 14.7,14 L14.7,16.999 L18,17 L18,11.4543942 C18,11.3048352 17.9664533,11.1571807 17.9018303,11.0223039 L17.412,10 Z M13,13.7 L11,13.7 C10.8343146,13.7 10.7,13.8343146 10.7,14 L10.7,16.999 L13.3,16.999 L13.3,14 C13.3,13.8343146 13.1656854,13.7 13,13.7 Z M7.8,11 C8.57319865,11 9.2,11.6268014 9.2,12.4 C9.2,13.1731986 8.57319865,13.8 7.8,13.8 C7.02680135,13.8 6.4,13.1731986 6.4,12.4 C6.4,11.6268014 7.02680135,11 7.8,11 Z M16.2,11 C16.9731986,11 17.6,11.6268014 17.6,12.4 C17.6,13.1731986 16.9731986,13.8 16.2,13.8 C15.4268014,13.8 14.8,13.1731986 14.8,12.4 C14.8,11.6268014 15.4268014,11 16.2,11 Z M16.2450822,5 L7.83200167,5 L7.246,8 L16.828,8 L16.2450822,5 Z" id="shape"></path>
        </g>
    </g>
</svg>