<svg width="24" height="24" viewBox="0 0 24 24" fill="none" xmlns="http://www.w3.org/2000/svg">
<path d="M14 2V3H16.2451C17.2024 3 18.0255 3.67844 18.2083 4.61819L18.865 8H21V10H19.629L19.7055 10.1581C19.8994 10.5628 20 11.0057 20 11.4544V21H17V19H7V21H4V11.4858C4 11.007 4.11461 10.5351 4.33425 10.1096L4.39 10H3V8H5.208L5.86904 4.6169C6.05233 3.67775 6.87514 3 7.832 3H10V2H14ZM17.412 10H6.641L6.11142 11.0271C6.0382 11.1689 6 11.3262 6 11.4858V17L9.3 16.999V14C9.3 13.0611 10.0611 12.3 11 12.3H13C13.9389 12.3 14.7 13.0611 14.7 14V16.999L18 17V11.4544C18 11.3048 17.9665 11.1572 17.9018 11.0223L17.412 10ZM13 13.7H11C10.8343 13.7 10.7 13.8343 10.7 14V16.999H13.3V14C13.3 13.8343 13.1657 13.7 13 13.7ZM7.8 11C8.5732 11 9.2 11.6268 9.2 12.4C9.2 13.1732 8.5732 13.8 7.8 13.8C7.0268 13.8 6.4 13.1732 6.4 12.4C6.4 11.6268 7.0268 11 7.8 11ZM16.2 11C16.9732 11 17.6 11.6268 17.6 12.4C17.6 13.1732 16.9732 13.8 16.2 13.8C15.4268 13.8 14.8 13.1732 14.8 12.4C14.8 11.6268 15.4268 11 16.2 11ZM16.2451 5H7.832L7.246 8H16.828L16.2451 5Z" fill="#001E3E"/>
</svg>
