<?xml version="1.0" encoding="UTF-8"?>
<svg width="24px" height="24px" viewBox="0 0 24 24" version="1.1" xmlns="http://www.w3.org/2000/svg" xmlns:xlink="http://www.w3.org/1999/xlink">
    <!-- Generator: Sketch 62 (91390) - https://sketch.com -->
    <title>icons / 24x24 / black-cab / solid</title>
    <desc>Created with Sketch.</desc>
    <g id="icons-/-24x24-/-black-cab-/-solid" stroke="none" stroke-width="1" fill="none" fill-rule="evenodd">
        <g id="icon" fill="#001E3E" fill-rule="nonzero">
            <path d="M14,2 L14,3 L16.2450822,3 C17.2024393,3 18.0255342,3.67843905 18.208299,4.61818884 L18.962,8.5 L21,8.5 L21,10.5 L19.844077,10.4998113 C19.9470838,10.8067104 20,11.1290502 20,11.4543942 L20,21 L17,21 L17,19 L14.5,19 L14.5,15 C14.5,14.2203039 13.9051119,13.5795513 13.14446,13.5068666 L13,13.5 L11,13.5 C10.2203039,13.5 9.57955132,14.0948881 9.50686658,14.85554 L9.5,15 L9.5,19 L7,19 L7,21 L4,21 L4,11.4857798 C4,11.1493788 4.05657152,10.8164109 4.16639267,10.5005527 L3,10.5 L3,8.5 L5.111,8.5 L5.86903675,4.61689596 C6.0523255,3.67775319 6.87514018,3 7.83200167,3 L10,3 L10,2 L14,2 Z M13,14.5 C13.2454599,14.5 13.4496084,14.6768752 13.4919443,14.9101244 L13.5,15 L13.5,19 L10.5,19 L10.5,15 C10.5,14.7545401 10.6768752,14.5503916 10.9101244,14.5080557 L11,14.5 L13,14.5 Z M7.8,11 C7.02680135,11 6.4,11.6268014 6.4,12.4 C6.4,13.1731986 7.02680135,13.8 7.8,13.8 C8.57319865,13.8 9.2,13.1731986 9.2,12.4 C9.2,11.6268014 8.57319865,11 7.8,11 Z M16.2,11 C15.4268014,11 14.8,11.6268014 14.8,12.4 C14.8,13.1731986 15.4268014,13.8 16.2,13.8 C16.9731986,13.8 17.6,13.1731986 17.6,12.4 C17.6,11.6268014 16.9731986,11 16.2,11 Z M16.2450822,5 L7.83200167,5 L7.148,8.5 L16.925,8.5 L16.2450822,5 Z" id="shape"></path>
        </g>
    </g>
</svg>