<svg width="24" height="24" viewBox="0 0 24 24" fill="none" xmlns="http://www.w3.org/2000/svg">
<path d="M14 2V3H16.2451C17.2024 3 18.0255 3.67844 18.2083 4.61819L18.962 8.5H21V10.5L19.8441 10.4998C19.9471 10.8067 20 11.1291 20 11.4544V21H17V19H14.5V15C14.5 14.2203 13.9051 13.5796 13.1445 13.5069L13 13.5H11C10.2203 13.5 9.57955 14.0949 9.50687 14.8555L9.5 15V19H7V21H4V11.4858C4 11.1494 4.05657 10.8164 4.16639 10.5006L3 10.5V8.5H5.111L5.86904 4.6169C6.05233 3.67775 6.87514 3 7.832 3H10V2H14ZM13 14.5C13.2455 14.5 13.4496 14.6769 13.4919 14.9101L13.5 15V19H10.5V15C10.5 14.7545 10.6769 14.5504 10.9101 14.5081L11 14.5H13ZM7.8 11C7.0268 11 6.4 11.6268 6.4 12.4C6.4 13.1732 7.0268 13.8 7.8 13.8C8.5732 13.8 9.2 13.1732 9.2 12.4C9.2 11.6268 8.5732 11 7.8 11ZM16.2 11C15.4268 11 14.8 11.6268 14.8 12.4C14.8 13.1732 15.4268 13.8 16.2 13.8C16.9732 13.8 17.6 13.1732 17.6 12.4C17.6 11.6268 16.9732 11 16.2 11ZM16.2451 5H7.832L7.148 8.5H16.925L16.2451 5Z" fill="#001E3E"/>
</svg>
