<?xml version="1.0" encoding="UTF-8"?>
<svg width="24px" height="24px" viewBox="0 0 24 24" version="1.1" xmlns="http://www.w3.org/2000/svg" xmlns:xlink="http://www.w3.org/1999/xlink">
    <!-- Generator: Sketch 62 (91390) - https://sketch.com -->
    <title>icons / 24x24 / bus / solid</title>
    <desc>Created with Sketch.</desc>
    <g id="icons-/-24x24-/-bus-/-solid" stroke="none" stroke-width="1" fill="none" fill-rule="evenodd">
        <g id="icon" fill="#001E3E" fill-rule="nonzero">
            <path d="M16,3 C18.209139,3 20,4.790861 20,7 L20,10 L21,10 L21,12 L20,12 L20,19 L18,19 L18,21 L15,21 L15,19 L9,19 L9,21 L6,21 L6,19 L4,19 L4,12 L3,12 L3,10 L4,10 L4,7 C4,4.790861 5.790861,3 8,3 L16,3 Z M8.5,13 C7.67157288,13 7,13.6715729 7,14.5 C7,15.3284271 7.67157288,16 8.5,16 C9.32842712,16 10,15.3284271 10,14.5 C10,13.6715729 9.32842712,13 8.5,13 Z M15.5,13 C14.6715729,13 14,13.6715729 14,14.5 C14,15.3284271 14.6715729,16 15.5,16 C16.3284271,16 17,15.3284271 17,14.5 C17,13.6715729 16.3284271,13 15.5,13 Z M16,5 L8,5 C6.8954305,5 6,5.8954305 6,7 L6,10 L18,10 L18,7 C18,5.8954305 17.1045695,5 16,5 Z" id="shape"></path>
        </g>
    </g>
</svg>