<svg width="24" height="24" viewBox="0 0 24 24" fill="none" xmlns="http://www.w3.org/2000/svg">
<path d="M16 3C18.2091 3 20 4.79086 20 7V10H21V12H20V19H18V21H15V19H9V21H6V19H4V12H3V10H4V7C4 4.79086 5.79086 3 8 3H16ZM8.5 13C7.67157 13 7 13.6716 7 14.5C7 15.3284 7.67157 16 8.5 16C9.32843 16 10 15.3284 10 14.5C10 13.6716 9.32843 13 8.5 13ZM15.5 13C14.6716 13 14 13.6716 14 14.5C14 15.3284 14.6716 16 15.5 16C16.3284 16 17 15.3284 17 14.5C17 13.6716 16.3284 13 15.5 13ZM16 5H8C6.89543 5 6 5.89543 6 7V10H18V7C18 5.89543 17.1046 5 16 5Z" fill="#001E3E"/>
</svg>
