<svg width="24" height="24" viewBox="0 0 24 24" fill="none" xmlns="http://www.w3.org/2000/svg">
<path fill-rule="evenodd" clip-rule="evenodd" d="M11.1637 7L9.13048 7.00003C8.04118 7.00004 6.98168 7.35579 6.1131 8.01317L4.16086 9.49072L2.90882 9.67971C2.11394 9.7997 1.49561 10.4333 1.39507 11.2309L1.01437 14.251C0.879175 15.3235 1.71519 16.2715 2.79617 16.2715H3.75644C4.16252 17.2833 5.15261 17.9977 6.30957 17.9977C7.50788 17.9977 8.52718 17.2313 8.90398 16.1619L15.7688 16.1042C16.1288 17.2036 17.1631 17.9977 18.3828 17.9977C19.5994 17.9977 20.6315 17.2077 20.994 16.1128H22.0343C22.9471 16.1128 23.6483 15.3043 23.5192 14.4006L23.2756 12.695C23.1149 11.5701 22.3324 10.6325 21.2544 10.2732L18.0319 9.19905L15.0964 7.43142C14.6292 7.15011 14.0942 7.00146 13.5488 7.00146H11.1637V7ZM11.1045 9L9.13051 9.00003C8.47693 9.00003 7.84123 9.21348 7.32008 9.60791L4.96228 11.3924L3.36005 11.6343L3.02761 14.2715H3.7379C4.13172 13.2346 5.13459 12.4977 6.30957 12.4977C7.4429 12.4977 8.41611 13.1833 8.83709 14.1624L15.8816 14.1032C16.3158 13.1558 17.2724 12.4977 18.3828 12.4977C19.4969 12.4977 20.4563 13.1602 20.8884 14.1128H21.4578L21.2957 12.9778C21.2421 12.6029 20.9813 12.2903 20.6219 12.1706L17.1897 11.0265L14.0647 9.14478C13.9089 9.05101 13.7306 9.00146 13.5488 9.00146H11.1045V9ZM7.05957 15.2477C7.05957 15.662 6.72378 15.9977 6.30957 15.9977C5.89536 15.9977 5.55957 15.662 5.55957 15.2477C5.55957 14.8335 5.89536 14.4977 6.30957 14.4977C6.72378 14.4977 7.05957 14.8335 7.05957 15.2477ZM18.3828 15.9977C18.797 15.9977 19.1328 15.662 19.1328 15.2477C19.1328 14.8335 18.797 14.4977 18.3828 14.4977C17.9686 14.4977 17.6328 14.8335 17.6328 15.2477C17.6328 15.662 17.9686 15.9977 18.3828 15.9977Z" fill="#001E3E"/>
</svg>
