<?xml version="1.0" encoding="UTF-8"?>
<svg width="24px" height="24px" viewBox="0 0 24 24" version="1.1" xmlns="http://www.w3.org/2000/svg" xmlns:xlink="http://www.w3.org/1999/xlink">
    <!-- Generator: Sketch 62 (91390) - https://sketch.com -->
    <title>icons / 24x24 / car / solid</title>
    <desc>Created with Sketch.</desc>
    <g id="icons-/-24x24-/-car-/-solid" stroke="none" stroke-width="1" fill="none" fill-rule="evenodd">
        <g id="icon" fill="#001E3E" fill-rule="nonzero">
            <path d="M3,14.2762633 C3,13.5003086 3.1290072,12.7312117 3.38039962,12.0001041 L2,12 L2,10 L4.242,10 L4.40475392,9.63751966 L6.24243753,4.91255898 C6.69089852,3.75949837 7.80121089,3 9.03841178,3 L9.03841178,3 L14.8424989,3 C16.0981645,3 17.220984,3.78200436 17.6563784,4.95976823 L17.6563784,4.95976823 L19.3537301,9.56458164 L19.564,10 L22,10 L22,12 L20.510167,11.9997312 C20.8332457,12.8173374 21,13.6900087 21,14.5722279 L21,14.5722279 L21,21 L18,21 L18,19 L6,19 L6,21 L3,21 Z M7.5,13 C6.67157288,13 6,13.6715729 6,14.5 C6,15.3284271 6.67157288,16 7.5,16 C8.32842712,16 9,15.3284271 9,14.5 C9,13.6715729 8.32842712,13 7.5,13 Z M16.5,13 C15.6715729,13 15,13.6715729 15,14.5 C15,15.3284271 15.6715729,16 16.5,16 C17.3284271,16 18,15.3284271 18,14.5 C18,13.6715729 17.3284271,13 16.5,13 Z M14.8424989,5 L9.03841178,5 C8.62601148,5 8.25590736,5.25316612 8.10642036,5.63751966 L8.10642036,5.63751966 L6.408,10 L17.387,10 L15.7804588,5.65325608 C15.6498404,5.29992692 15.3336173,5.05345282 14.9665522,5.0076913 L14.8424989,5 Z" id="shape"></path>
        </g>
    </g>
</svg>