<svg width="24" height="24" viewBox="0 0 24 24" fill="none" xmlns="http://www.w3.org/2000/svg">
<path d="M3 14.2763C3 13.5003 3.12901 12.7312 3.3804 12.0001L2 12V10H4.242L4.40475 9.63752L6.24244 4.91256C6.6909 3.7595 7.80121 3 9.03841 3H14.8425C16.0982 3 17.221 3.782 17.6564 4.95977L19.3537 9.56458L19.564 10H22V12L20.5102 11.9997C20.8332 12.8173 21 13.69 21 14.5722V21H18V19H6V21H3V14.2763ZM7.5 13C6.67157 13 6 13.6716 6 14.5C6 15.3284 6.67157 16 7.5 16C8.32843 16 9 15.3284 9 14.5C9 13.6716 8.32843 13 7.5 13ZM16.5 13C15.6716 13 15 13.6716 15 14.5C15 15.3284 15.6716 16 16.5 16C17.3284 16 18 15.3284 18 14.5C18 13.6716 17.3284 13 16.5 13ZM14.8425 5H9.03841C8.62601 5 8.25591 5.25317 8.10642 5.63752L6.408 10H17.387L15.7805 5.65326C15.6498 5.29993 15.3336 5.05345 14.9666 5.00769L14.8425 5Z" fill="#001E3E"/>
</svg>
