<svg width="24" height="24" viewBox="0 0 24 24"  xmlns="http://www.w3.org/2000/svg">
<path fill-rule="evenodd" clip-rule="evenodd" d="M10.1324 7H5.41325L2.87043 10.1098C2.66661 10.3591 2.53524 10.6596 2.49069 10.9785L2.01721 14.3673C1.88118 15.3409 2.56746 16.2182 3.51093 16.3496C3.9325 17.3273 4.905 18.0117 6.03735 18.0117C7.13671 18.0117 8.0854 17.3666 8.52554 16.4343L14.5311 16.4343C14.9712 17.3666 15.9199 18.0117 17.0193 18.0117C18.1186 18.0117 19.0673 17.3666 19.5075 16.4343H20.0175C20.9209 16.4343 21.6193 15.6416 21.5055 14.7454L21.2478 12.7157C21.089 11.4655 20.1659 10.4479 18.9371 10.1683L16.2284 9.55215L13.579 7.59217C13.0626 7.21013 12.4372 7.00394 11.7948 7.00394H10.1324V7ZM9.58447 9L6.36138 9L4.46199 11.3229L4.19721 13.2181C4.68454 12.779 5.32974 12.5117 6.03735 12.5117C7.26782 12.5117 8.30954 13.3199 8.66071 14.4343L14.3959 14.4343C14.7471 13.3199 15.7888 12.5117 17.0193 12.5117C18.0184 12.5117 18.8931 13.0446 19.3747 13.8416L19.2637 12.9676C19.2108 12.5509 18.9031 12.2117 18.4935 12.1185L15.3759 11.4093L12.3895 9.20001C12.2174 9.07267 12.0089 9.00394 11.7948 9.00394H9.58447V9ZM17.7693 15.2617C17.7693 15.6759 17.4335 16.0117 17.0193 16.0117C16.6051 16.0117 16.2693 15.6759 16.2693 15.2617C16.2693 14.8475 16.6051 14.5117 17.0193 14.5117C17.4335 14.5117 17.7693 14.8475 17.7693 15.2617ZM6.03735 16.0117C6.45157 16.0117 6.78735 15.6759 6.78735 15.2617C6.78735 14.8475 6.45157 14.5117 6.03735 14.5117C5.62314 14.5117 5.28735 14.8475 5.28735 15.2617C5.28735 15.6759 5.62314 16.0117 6.03735 16.0117Z" fill="#001E3E"/>
</svg>
