<svg width="24" height="24" viewBox="0 0 24 24"  xmlns="http://www.w3.org/2000/svg">
<path fill-rule="evenodd" clip-rule="evenodd" d="M13.834 7.07007H11.3896V7.07642L5.35282 7.07629L5.34862 7.08008H2.39453V9.08008H3.12971L2.04688 10.0561C1.74006 10.3326 1.54053 10.7085 1.48338 11.1176L1.0172 14.4542C0.870809 15.5019 1.67723 16.4404 2.73511 16.4533L3.85454 16.4669C4.30353 17.3753 5.23946 17.9999 6.32129 17.9999C7.37237 17.9999 8.28573 17.4103 8.74858 16.5437L16.3368 16.5279C16.797 17.4031 17.715 17.9999 18.7725 17.9999C19.9643 17.9999 20.9791 17.2417 21.3607 16.1814H22.3195C23.2323 16.1814 23.9335 15.3729 23.8044 14.4692L23.5607 12.7636C23.4 11.6387 22.6176 10.7011 21.5396 10.3418L18.3171 9.26765L15.3815 7.50002C14.9143 7.21871 14.3793 7.07007 13.834 7.07007ZM11.6079 9.07642V9.07007H13.834C14.0158 9.07007 14.1941 9.11962 14.3498 9.21339L17.4748 11.0951L20.9071 12.2392C21.2664 12.359 21.5273 12.6715 21.5808 13.0464L21.743 14.1814H21.3071C20.8901 13.1934 19.9123 12.4999 18.7725 12.4999C17.5034 12.4999 16.4351 13.3596 16.1181 14.5284L8.97962 14.5432C8.6677 13.3669 7.59574 12.4999 6.32129 12.4999C5.07536 12.4999 4.02295 13.3285 3.68503 14.4647L3.03626 14.4568L3.45185 11.4822L6.12112 9.07631L11.6079 9.07642ZM6.32129 15.9999C6.7355 15.9999 7.07129 15.6642 7.07129 15.2499C7.07129 14.8357 6.7355 14.4999 6.32129 14.4999C5.90708 14.4999 5.57129 14.8357 5.57129 15.2499C5.57129 15.6642 5.90708 15.9999 6.32129 15.9999ZM19.5225 15.2499C19.5225 15.6642 19.1867 15.9999 18.7725 15.9999C18.3582 15.9999 18.0225 15.6642 18.0225 15.2499C18.0225 14.8357 18.3582 14.4999 18.7725 14.4999C19.1867 14.4999 19.5225 14.8357 19.5225 15.2499Z" fill="#001E3E"/>
</svg>
