<?xml version="1.0" encoding="UTF-8"?>
<svg width="24px" height="24px" viewBox="0 0 24 24" version="1.1" xmlns="http://www.w3.org/2000/svg" xmlns:xlink="http://www.w3.org/1999/xlink">
    <!-- Generator: Sketch 62 (91390) - https://sketch.com -->
    <title>icons / 24x24 / car / outline</title>
    <desc>Created with Sketch.</desc>
    <g id="icons-/-24x24-/-car-/-outline" stroke="none" stroke-width="1" fill="none" fill-rule="evenodd">
        <g id="icon" transform="translate(0.000000, 1.000000)" fill="#001E3E" fill-rule="nonzero">
            <path d="M14.8424989,2 C16.0981645,2 17.220984,2.78200436 17.6563784,3.95976823 L17.6563784,3.95976823 L19.3537301,8.56458164 L19.564,9 L22,9 L22,11 L20.510167,10.9997312 C20.8332457,11.8173374 21,12.6900087 21,13.5722279 L21,13.5722279 L21,20 L18,20 L18,18 L6,18 L6,20 L3,20 L3,13.2762633 C3,12.5003086 3.1290072,11.7312117 3.38039962,11.0001041 L2,11 L2,9 L4.242,9 L4.40475392,8.63751966 L6.24243753,3.91255898 C6.69089852,2.75949837 7.80121089,2 9.03841178,2 L9.03841178,2 Z M18.311,11 L5.539,11 L5.43287212,11.2412343 C5.18825301,11.7902224 5.04495245,12.3780503 5.00900166,12.9763639 L5,13.2762633 L5,16 L19,16 L19,13.5722279 C19,12.8181988 18.8294592,12.0739344 18.5011411,11.3951361 L18.5011411,11.3951361 L18.311,11 Z M7.5,12 C8.32842712,12 9,12.6715729 9,13.5 C9,14.3284271 8.32842712,15 7.5,15 C6.67157288,15 6,14.3284271 6,13.5 C6,12.6715729 6.67157288,12 7.5,12 Z M16.5,12 C17.3284271,12 18,12.6715729 18,13.5 C18,14.3284271 17.3284271,15 16.5,15 C15.6715729,15 15,14.3284271 15,13.5 C15,12.6715729 15.6715729,12 16.5,12 Z M14.8424989,4 L9.03841178,4 C8.62601148,4 8.25590736,4.25316612 8.10642036,4.63751966 L8.10642036,4.63751966 L6.408,9 L17.387,9 L15.7804588,4.65325608 C15.6498404,4.29992692 15.3336173,4.05345282 14.9665522,4.0076913 L14.8424989,4 Z" id="shape"></path>
        </g>
    </g>
</svg>