<svg width="24" height="24" viewBox="0 0 24 24"  xmlns="http://www.w3.org/2000/svg">
<path fill-rule="evenodd" clip-rule="evenodd" d="M15.8279 6.26001C16.6874 6.26003 17.5002 6.65173 18.0357 7.3241L20.1151 9.93472L21.6509 10.903C22.3784 11.3616 22.8571 12.1269 22.9513 12.9817L23.164 14.9135C23.2617 15.8001 22.5463 16.5652 21.6552 16.5273L21.4239 16.5174C21.0341 17.3907 20.1581 17.9994 19.1399 17.9994C18.1323 17.9994 17.264 17.4034 16.8682 16.5446L8.53192 16.5447C8.13017 17.3879 7.26999 17.9707 6.27368 17.9707C5.34351 17.9707 4.53199 17.4627 4.10142 16.709L2.91143 16.7091C1.83489 16.7091 0.969153 15.8205 1.00084 14.7423L1.09663 11.483C1.12997 10.3487 1.31715 8.80462 1.43703 7.90494C1.56391 6.95274 2.3778 6.26005 3.3217 6.26005L15.8279 6.26001ZM3.40746 8.26005C3.28811 9.16567 3.12475 10.5557 3.09577 11.5418L3.00268 14.7091L3.89184 14.7091C4.21399 13.7008 5.15858 12.9707 6.27368 12.9707C7.32721 12.9707 8.22854 13.6224 8.59654 14.5447L16.8287 14.5446C17.2038 13.6376 18.0973 12.9994 19.1399 12.9994C19.8988 12.9994 20.5787 13.3375 21.0371 13.8713L20.9633 13.2007C20.9358 12.9515 20.7963 12.7285 20.5843 12.5948L18.7618 11.4458L16.4713 8.57016C16.3152 8.37418 16.0784 8.26002 15.8278 8.26001L3.40746 8.26005ZM6.77368 15.4707C6.77368 15.7469 6.54982 15.9707 6.27368 15.9707C5.99754 15.9707 5.77368 15.7469 5.77368 15.4707C5.77368 15.1946 5.99754 14.9707 6.27368 14.9707C6.54982 14.9707 6.77368 15.1946 6.77368 15.4707ZM19.1399 15.9994C19.416 15.9994 19.6399 15.7756 19.6399 15.4994C19.6399 15.2233 19.416 14.9994 19.1399 14.9994C18.8638 14.9994 18.6399 15.2233 18.6399 15.4994C18.6399 15.7756 18.8638 15.9994 19.1399 15.9994Z" fill="#001E3E"/>
</svg>
