<svg width="24" height="24" viewBox="0 0 24 24" fill="none" xmlns="http://www.w3.org/2000/svg">
<path fill-rule="evenodd" clip-rule="evenodd" d="M5 7.21997V9.21997H5.83846L5.22138 15.1341C5.14567 15.8597 5.59854 16.5082 6.25451 16.7185C6.6842 17.4755 7.49755 17.9861 8.43018 17.9861C9.33149 17.9861 10.1214 17.5092 10.5613 16.7939H13.3525C13.7905 17.5175 14.5851 18.0011 15.4927 18.0011C16.4849 18.0011 17.3421 17.4231 17.7459 16.5854C18.4133 16.4334 18.9114 15.8363 18.9114 15.1228V13.0711C18.9114 11.7749 18.079 10.6253 16.8475 10.2209L15.7265 9.85274L14.2412 8.20879C13.6725 7.57927 12.8637 7.22002 12.0153 7.21999L5 7.21997ZM7.84932 9.21997L7.43487 13.1921C7.73986 13.0596 8.07644 12.9861 8.43018 12.9861C9.57072 12.9861 10.5329 13.7499 10.8331 14.7939H13.0941C13.3992 13.7576 14.3576 13.0011 15.4927 13.0011C16.0196 13.0011 16.5084 13.1641 16.9114 13.4424V13.0711C16.9114 12.639 16.6339 12.2558 16.2235 12.121L14.5983 11.5873L12.7572 9.54959C12.5676 9.33975 12.2981 9.22 12.0153 9.21999L7.84932 9.21997ZM8.43018 15.9861C8.70632 15.9861 8.93018 15.7623 8.93018 15.4861C8.93018 15.21 8.70632 14.9861 8.43018 14.9861C8.15403 14.9861 7.93018 15.21 7.93018 15.4861C7.93018 15.7623 8.15403 15.9861 8.43018 15.9861ZM15.4927 16.0011C15.7688 16.0011 15.9927 15.7772 15.9927 15.5011C15.9927 15.2249 15.7688 15.0011 15.4927 15.0011C15.2165 15.0011 14.9927 15.2249 14.9927 15.5011C14.9927 15.7772 15.2165 16.0011 15.4927 16.0011Z" fill="#001E3E"/>
</svg>
