<svg width="24" height="24" viewBox="0 0 24 24" fill="none" xmlns="http://www.w3.org/2000/svg">
<path d="M17.8 10.4C17.877 10.3422 17.9508 10.2811 18.0212 10.2169C18.6226 9.66831 19 8.87822 19 8V5H21V8C21 9.4637 20.3711 10.7805 19.3687 11.6949C19.3482 11.7136 19.3275 11.7322 19.3066 11.7505C19.1933 11.8505 19.0755 11.9454 18.9534 12.0349L18.6 12.3C17.5928 13.0554 17 14.241 17 15.5V22H15V15.5C15 14.6253 15.1907 13.7743 15.5456 13H9C7.89543 13 7 13.8954 7 15V20H13V22H5V15C5 12.7909 6.79086 11 9 11H16C16.6629 11 17.2755 10.785 17.7721 10.4209L17.8 10.4ZM12 10C9.79086 10 8 8.20914 8 6C8 3.79086 9.79086 2 12 2C14.2091 2 16 3.79086 16 6C16 8.20914 14.2091 10 12 10ZM12 8C13.1046 8 14 7.10457 14 6C14 4.89543 13.1046 4 12 4C10.8954 4 10 4.89543 10 6C10 7.10457 10.8954 8 12 8Z" fill="#001E3E"/>
</svg>
