<svg width="24" height="24" viewBox="0 0 24 24"  xmlns="http://www.w3.org/2000/svg">
<path d="M18.171 4.67352C19.3135 6.30511 19.4468 8.34142 18.7016 10.0414L22.5163 15.4897L22.2781 20.399L16.4657 19.4723L16.4131 15.919L13.6757 15.4442L13.5785 13.3279C13.0427 13.319 12.5105 13.232 12 13.0702L12 19.6471C12 20.5396 11.3145 21.2721 10.4413 21.3467L10.2941 21.3529H2.70588C1.81334 21.3529 1.08089 20.6675 1.00626 19.7942L1 19.6471V9.05572C1 8.16595 1.68136 7.43475 2.55164 7.35672L2.69835 7.34985L3.50108 7.34624C3.52103 6.68756 3.6723 6.02203 3.96846 5.38691C5.13549 2.88421 8.11039 1.80143 10.6131 2.96846C10.6988 3.00843 10.7829 3.05052 10.8652 3.09465C13.3146 1.6409 16.5098 2.30101 18.171 4.67352ZM8.37141 9.3238L3 9.348V19.352H10L9.99984 11.93C9.69086 11.6534 9.40851 11.3372 9.16037 10.9829C8.79633 10.4629 8.53475 9.90193 8.37141 9.3238ZM12.522 4.51936C13.1135 5.32689 13.4565 6.29854 13.4971 7.30188C13.544 7.35044 13.5873 7.40398 13.6273 7.46117C14.1025 8.13978 13.9376 9.07509 13.259 9.55026C12.5803 10.0254 11.645 9.86051 11.1699 9.1819C10.6947 8.50329 10.8596 7.56797 11.5382 7.0928L11.4788 7.14018C11.4149 6.6161 11.2136 6.11509 10.8947 5.69194C9.98277 6.87139 9.89896 8.55077 10.7987 9.83571C11.8397 11.3224 13.8273 11.7525 15.3769 10.8817L15.5712 13.1447L15.5989 13.7485L18.3896 14.2325L18.4397 17.762L20.3882 18.0725L20.4851 16.077L18.0672 12.6247L18.0761 12.6223L16.3393 10.0882C17.3415 8.90425 17.4643 7.15104 16.5327 5.82067C15.6152 4.51026 13.9622 4.02076 12.522 4.51936ZM5.78108 6.23215C5.61392 6.59061 5.52369 6.96522 5.50361 7.33737L8.18861 7.32555C8.27883 6.34775 8.62913 5.39801 9.21987 4.58767C7.85581 4.24799 6.39776 4.90966 5.78108 6.23215Z" fill="#001E3E"/>
</svg>
