<svg width="24" height="24" viewBox="0 0 24 24"  xmlns="http://www.w3.org/2000/svg">
<path d="M16.0001 4L18.311 10.037C18.4648 10.0194 18.6203 10.0075 18.7774 10.0017L19.0024 9.9976H22V11.9976L19.061 11.997L19.5879 13.3718C21.4162 13.4168 22.8967 14.864 22.9948 16.6787L23 16.8707C23 18.8037 21.433 20.3707 19.5 20.3707C17.567 20.3707 16 18.8037 16 16.8707C16 15.6178 16.6583 14.5187 17.6479 13.9004L17.1028 12.4762C15.9057 13.1229 15.0756 14.3617 15.0049 15.8002L15 16V17H9.996L9.99482 17.0627C9.89513 18.9064 8.36856 20.3707 6.5 20.3707C4.63144 20.3707 3.10487 18.9064 3.00518 17.0627L3.003 17H1V11C1 9.40232 2.24892 8.09634 3.82373 8.00509L4 8H12V10L9.44499 10.0006C9.45234 11.7637 10.2129 13.4519 11.5502 14.627L11.7465 14.7924L12.004 15H13.084L13.1011 14.8972C13.4534 13.0002 14.6978 11.4165 16.3827 10.5979L14.624 6H12.005V4H16.0001ZM7.44495 10.0004L4 10C3.48716 10 3.06449 10.386 3.00673 10.8834L3 11L2.99996 15L9.16807 15.0013C8.06181 13.5772 7.45058 11.8187 7.44495 10.0004Z" fill="#001E3E"/>
</svg>
