<?xml version="1.0" encoding="UTF-8"?>
<svg width="24px" height="24px" viewBox="0 0 24 24" version="1.1" xmlns="http://www.w3.org/2000/svg" xmlns:xlink="http://www.w3.org/1999/xlink">
    <!-- Generator: Sketch 62 (91390) - https://sketch.com -->
    <title>icons / 24x24 / person-hailing / outline</title>
    <desc>Created with Sketch.</desc>
    <g id="icons-/-24x24-/-person-hailing-/-outline" stroke="none" stroke-width="1" fill="none" fill-rule="evenodd">
        <g id="icon" fill="#001E3E" fill-rule="nonzero">
            <path d="M17.8,10.4 C17.8770131,10.3422402 17.9507956,10.2811274 18.0212057,10.2169452 C18.622633,9.66830669 19,8.87822274 19,8 L19,5 L21,5 L21,8 C21,9.46370451 20.3710551,10.7805111 19.3686763,11.6949086 C19.3481583,11.7136118 19.3274685,11.7321585 19.306608,11.7505464 C19.1933495,11.8505228 19.0755043,11.9454206 18.9534483,12.0349138 L18.6,12.3 C17.5927766,13.0554175 17,14.2409708 17,15.5 L17,22 L15,22 L15,15.5 C15,14.6253063 15.1907393,13.7742551 15.5456412,13 L9,13 C7.8954305,13 7,13.8954305 7,15 L7,20 L13,20 L13,22 L5,22 L5,15 C5,12.790861 6.790861,11 9,11 L16,11 C16.6628787,11 17.2755434,10.7850078 17.772069,10.4209483 L17.8,10.4 Z M12,10 C9.790861,10 8,8.209139 8,6 C8,3.790861 9.790861,2 12,2 C14.209139,2 16,3.790861 16,6 C16,8.209139 14.209139,10 12,10 Z M12,8 C13.1045695,8 14,7.1045695 14,6 C14,4.8954305 13.1045695,4 12,4 C10.8954305,4 10,4.8954305 10,6 C10,7.1045695 10.8954305,8 12,8 Z" id="shape"></path>
        </g>
    </g>
</svg>