<svg width="24" height="24" viewBox="0 0 24 24" fill="none" xmlns="http://www.w3.org/2000/svg">
<path d="M17.8022 3L20.2466 14H19C16.7909 14 15 15.7909 15 18V19L7.82898 19.0009C7.41688 20.1656 6.30588 21 5 21C3.34315 21 2 19.6569 2 18C2 16.3431 3.34315 15 5 15C6.30625 15 7.41751 15.8349 7.82933 17.0001L13.083 17C13.4921 14.561 15.3728 12.6209 17.7809 12.1239L16.1978 5H14V3H17.8022ZM19 15C20.6569 15 22 16.3431 22 18C22 19.6569 20.6569 21 19 21C17.3431 21 16 19.6569 16 18C16 16.3431 17.3431 15 19 15ZM5 17C4.44772 17 4 17.4477 4 18C4 18.5523 4.44772 19 5 19C5.55228 19 6 18.5523 6 18C6 17.4477 5.55228 17 5 17ZM19 17C18.4477 17 18 17.4477 18 18C18 18.5523 18.4477 19 19 19C19.5523 19 20 18.5523 20 18C20 17.4477 19.5523 17 19 17Z" fill="#001E3E"/>
</svg>
