<svg width="24" height="24" viewBox="0 0 24 24" fill="none" xmlns="http://www.w3.org/2000/svg">
<path d="M17.8022 3L20.2466 14H19C16.7909 14 15 15.7909 15 18V19L7.82898 19.0009C7.41688 20.1656 6.30588 21 5 21C3.34315 21 2 19.6569 2 18C2 16.3431 3.34315 15 5 15C6.30625 15 7.41751 15.8349 7.82933 17.0001L13.083 17C13.4921 14.561 15.3728 12.6209 17.7809 12.1239L16.1978 5H14V3H17.8022ZM19 15C20.6569 15 22 16.3431 22 18C22 19.6569 20.6569 21 19 21C17.3431 21 16 19.6569 16 18C16 16.3431 17.3431 15 19 15Z" fill="#001E3E"/>
</svg>
