<?xml version="1.0" encoding="UTF-8"?>
<svg width="24px" height="24px" viewBox="0 0 24 24" version="1.1" xmlns="http://www.w3.org/2000/svg" xmlns:xlink="http://www.w3.org/1999/xlink">
    <!-- Generator: Sketch 62 (91390) - https://sketch.com -->
    <title>icons / 24x24 / scooter / outline</title>
    <desc>Created with Sketch.</desc>
    <g id="icons-/-24x24-/-scooter-/-outline" stroke="none" stroke-width="1" fill="none" fill-rule="evenodd">
        <g id="icon" fill="#001E3E" fill-rule="nonzero">
            <path d="M17.8021716,3 L20.2466161,14 L19,14 C16.790861,14 15,15.790861 15,18 L15,18 L15,19 L7.82897577,19.0009007 C7.41688515,20.1656226 6.30588222,21 5,21 C3.34314575,21 2,19.6568542 2,18 C2,16.3431458 3.34314575,15 5,15 C6.30625206,15 7.41751442,15.8348501 7.82932572,17.0000889 L13.0829584,17 C13.4921481,14.5609823 15.3728301,12.6209308 17.7809232,12.1239265 L17.7809232,12.1239265 L16.1978284,5 L14,5 L14,3 L17.8021716,3 Z M19,15 C20.6568542,15 22,16.3431458 22,18 C22,19.6568542 20.6568542,21 19,21 C17.3431458,21 16,19.6568542 16,18 C16,16.3431458 17.3431458,15 19,15 Z M5,17 C4.44771525,17 4,17.4477153 4,18 C4,18.5522847 4.44771525,19 5,19 C5.55228475,19 6,18.5522847 6,18 C6,17.4477153 5.55228475,17 5,17 Z M19,17 C18.4477153,17 18,17.4477153 18,18 C18,18.5522847 18.4477153,19 19,19 C19.5522847,19 20,18.5522847 20,18 C20,17.4477153 19.5522847,17 19,17 Z" id="shape"></path>
        </g>
    </g>
</svg>