<?xml version="1.0" encoding="UTF-8"?>
<svg width="24px" height="24px" viewBox="0 0 24 24" version="1.1" xmlns="http://www.w3.org/2000/svg" xmlns:xlink="http://www.w3.org/1999/xlink">
    <!-- Generator: Sketch 62 (91390) - https://sketch.com -->
    <title>icons / 24x24 / train / outline</title>
    <desc>Created with Sketch.</desc>
    <g id="icons-/-24x24-/-train-/-outline" stroke="none" stroke-width="1" fill="none" fill-rule="evenodd">
        <g id="icon" fill="#001E3E" fill-rule="nonzero">
            <path d="M16,4.5 C18.209139,4.5 20,6.290861 20,8.5 L20,20.5 L17.414,20.5 L19.4748737,22.5606602 L16.6683205,22.582534 L14.586,20.5 L9.413,20.5 L7.34590073,22.5683128 L4.52512627,22.5606602 L6.585,20.5 L4,20.5 L4,8.5 C4,6.290861 5.790861,4.5 8,4.5 L16,4.5 Z M18,13.5 L6,13.5 L6,18.5 L18,18.5 L18,13.5 Z M8.5,14.5 C9.32842712,14.5 10,15.1715729 10,16 C10,16.8284271 9.32842712,17.5 8.5,17.5 C7.67157288,17.5 7,16.8284271 7,16 C7,15.1715729 7.67157288,14.5 8.5,14.5 Z M15.5,14.5 C16.3284271,14.5 17,15.1715729 17,16 C17,16.8284271 16.3284271,17.5 15.5,17.5 C14.6715729,17.5 14,16.8284271 14,16 C14,15.1715729 14.6715729,14.5 15.5,14.5 Z M16,6.5 L8,6.5 C6.8954305,6.5 6,7.3954305 6,8.5 L6,11.5 L18,11.5 L18,8.5 C18,7.3954305 17.1045695,6.5 16,6.5 Z M16,1.5 L16,3.5 L8,3.5 L8,1.5 L16,1.5 Z" id="shape"></path>
        </g>
    </g>
</svg>