<svg width="24" height="24" viewBox="0 0 24 24" fill="none" xmlns="http://www.w3.org/2000/svg">
<path d="M16 4.44995C18.2091 4.44995 20 6.24081 20 8.44995V20.45H17.414L19.4749 22.5106L16.6683 22.5325L14.586 20.45H9.413L7.3459 22.5183L4.52513 22.5106L6.585 20.45H4V8.44995C4 6.24081 5.79086 4.44995 8 4.44995H16ZM18 13.45H6V18.45H18V13.45ZM8.5 14.45C9.32843 14.45 10 15.1215 10 15.95C10 16.7784 9.32843 17.45 8.5 17.45C7.67157 17.45 7 16.7784 7 15.95C7 15.1215 7.67157 14.45 8.5 14.45ZM15.5 14.45C16.3284 14.45 17 15.1215 17 15.95C17 16.7784 16.3284 17.45 15.5 17.45C14.6716 17.45 14 16.7784 14 15.95C14 15.1215 14.6716 14.45 15.5 14.45ZM16 6.44995H8C6.89543 6.44995 6 7.34538 6 8.44995V11.45H18V8.44995C18 7.34538 17.1046 6.44995 16 6.44995ZM16 1.44995V3.44995H8V1.44995H16Z" fill="#001E3E"/>
</svg>
