<svg width="24" height="24" viewBox="0 0 24 24" fill="none" xmlns="http://www.w3.org/2000/svg">
<path d="M16 4.5C18.2091 4.5 20 6.29086 20 8.5V20.5H17.414L19.4749 22.5607L16.6683 22.5825L14.586 20.5H9.413L7.3459 22.5683L4.52513 22.5607L6.585 20.5H4V8.5C4 6.29086 5.79086 4.5 8 4.5H16ZM8.5 14.5C7.67157 14.5 7 15.1716 7 16C7 16.8284 7.67157 17.5 8.5 17.5C9.32843 17.5 10 16.8284 10 16C10 15.1716 9.32843 14.5 8.5 14.5ZM15.5 14.5C14.6716 14.5 14 15.1716 14 16C14 16.8284 14.6716 17.5 15.5 17.5C16.3284 17.5 17 16.8284 17 16C17 15.1716 16.3284 14.5 15.5 14.5ZM16 6.5H8C6.89543 6.5 6 7.39543 6 8.5V11.5H18V8.5C18 7.39543 17.1046 6.5 16 6.5ZM16 1.5V3.5H8V1.5H16Z" fill="#001E3E"/>
</svg>
