<svg width="24" height="24" viewBox="0 0 24 24" fill="none" xmlns="http://www.w3.org/2000/svg">
<path d="M16.3308 3C17.7807 3 19.0231 4.03687 19.2825 5.46334L19.834 8.5H21.5V10.5H20V19H18V21H15V19H9V21H6V19H4V10.5H2.5V8.5H4.165L4.71754 5.46334C4.9769 4.03687 6.21929 3 7.66915 3H16.3308ZM18 10.5H6V17H18V10.5ZM8.5 12C9.32843 12 10 12.6716 10 13.5C10 14.3284 9.32843 15 8.5 15C7.67157 15 7 14.3284 7 13.5C7 12.6716 7.67157 12 8.5 12ZM15.5 12C16.3284 12 17 12.6716 17 13.5C17 14.3284 16.3284 15 15.5 15C14.6716 15 14 14.3284 14 13.5C14 12.6716 14.6716 12 15.5 12ZM16.3308 5H7.66915C7.18587 5 6.77174 5.34562 6.68528 5.82111L6.198 8.5H17.802L17.3147 5.82111C17.2283 5.34562 16.8141 5 16.3308 5Z" fill="#001E3E"/>
</svg>
