<svg width="24" height="24" viewBox="0 0 24 24" fill="none" xmlns="http://www.w3.org/2000/svg">
<path fill-rule="evenodd" clip-rule="evenodd" d="M12 2C17.5228 2 22 6.47715 22 12C22 17.5228 17.5228 22 12 22C6.47715 22 2 17.5228 2 12C2 6.47715 6.47715 2 12 2ZM12 4C7.58172 4 4 7.58172 4 12C4 16.4183 7.58172 20 12 20C16.4183 20 20 16.4183 20 12C20 7.58172 16.4183 4 12 4ZM13.0427 7.5L16 16.0007H14.1267L13.4963 13.9389H10.4978L9.86745 16.0007H8L10.9514 7.5H13.0427ZM12.053 9.19661H11.947L10.9043 12.6075H13.0898L12.053 9.19661Z" fill="#001E3E"/>
</svg>
