<svg width="24" height="24" viewBox="0 0 24 24" fill="none" xmlns="http://www.w3.org/2000/svg">
<path d="M12 2C17.5228 2 22 6.47715 22 12C22 17.5228 17.5228 22 12 22C6.47715 22 2 17.5228 2 12C2 6.47715 6.47715 2 12 2ZM8.2 10H7.7C7.14772 10 6.7 10.4477 6.7 11V15C6.7 15.5523 7.14772 16 7.7 16H8.2C8.75228 16 9.2 15.5523 9.2 15V11C9.2 10.4477 8.75228 10 8.2 10ZM12.2 6H11.7C11.1477 6 10.7 6.44772 10.7 7V15C10.7 15.5523 11.1477 16 11.7 16H12.2C12.7523 16 13.2 15.5523 13.2 15V7C13.2 6.44772 12.7523 6 12.2 6ZM16.2 8H15.7C15.1477 8 14.7 8.44772 14.7 9V15C14.7 15.5523 15.1477 16 15.7 16H16.2C16.7523 16 17.2 15.5523 17.2 15V9C17.2 8.44772 16.7523 8 16.2 8Z" fill="#001E3E"/>
</svg>
