<svg width="24" height="24" viewBox="0 0 24 24" fill="none" xmlns="http://www.w3.org/2000/svg">
<path d="M12 2C17.5228 2 22 6.47715 22 12C22 17.5228 17.5228 22 12 22C6.47715 22 2 17.5228 2 12C2 6.47715 6.47715 2 12 2ZM12 4C7.58172 4 4 7.58172 4 12C4 16.4183 7.58172 20 12 20C16.4183 20 20 16.4183 20 12C20 7.58172 16.4183 4 12 4ZM8.2 10C8.75228 10 9.2 10.4477 9.2 11V15C9.2 15.5523 8.75228 16 8.2 16H7.7C7.14772 16 6.7 15.5523 6.7 15V11C6.7 10.4477 7.14772 10 7.7 10H8.2ZM12.2 6C12.7523 6 13.2 6.44772 13.2 7V15C13.2 15.5523 12.7523 16 12.2 16H11.7C11.1477 16 10.7 15.5523 10.7 15V7C10.7 6.44772 11.1477 6 11.7 6H12.2ZM16.2 8C16.7523 8 17.2 8.44772 17.2 9V15C17.2 15.5523 16.7523 16 16.2 16H15.7C15.1477 16 14.7 15.5523 14.7 15V9C14.7 8.44772 15.1477 8 15.7 8H16.2Z" fill="#001E3E"/>
</svg>
