<?xml version="1.0" encoding="UTF-8"?>
<svg width="24px" height="24px" viewBox="0 0 24 24" version="1.1" xmlns="http://www.w3.org/2000/svg" xmlns:xlink="http://www.w3.org/1999/xlink">
    <!-- Generator: Sketch 62 (91390) - https://sketch.com -->
    <title>icons / 24x24 / gift</title>
    <desc>Created with Sketch.</desc>
    <g id="icons-/-24x24-/-gift" stroke="none" stroke-width="1" fill="none" fill-rule="evenodd">
        <g id="icon" fill="#001E3E" fill-rule="nonzero">
            <path d="M14.75,3 C16.8210678,3 18.5,4.67893219 18.5,6.75 C18.5,7.38245512 18.3434317,7.97834174 18.0669401,8.50101475 L19.5,8.5 L19.5,21.5 L4.5,21.5 L4.5,8.5 L5.9330599,8.50101475 C5.65656834,7.97834174 5.5,7.38245512 5.5,6.75 C5.5,4.67893219 7.17893219,3 9.25,3 C10.3368507,3 11.3157104,3.46236429 12.0006119,4.20112557 C12.6842896,3.46236429 13.6631493,3 14.75,3 Z M11,10.5 L6.5,10.5 L6.5,19.5 L11,19.5 L11,10.5 Z M17.5,10.5 L13,10.5 L13,19.5 L17.5,19.5 L17.5,10.5 Z M9.25,5 C8.28350169,5 7.5,5.78350169 7.5,6.75 C7.5,7.71649831 8.28350169,8.5 9.25,8.5 L11,8.5 L11,6.75 L11,6.75 C11,5.78350169 10.2164983,5 9.25,5 Z M14.75,5 C13.7835017,5 13,5.78350169 13,6.75 L13,6.75 L13,8.5 L14.75,8.5 C15.7164983,8.5 16.5,7.71649831 16.5,6.75 C16.5,5.78350169 15.7164983,5 14.75,5 Z" id="Shape"></path>
        </g>
    </g>
</svg>