<svg width="24" height="24" viewBox="0 0 24 24" fill="none" xmlns="http://www.w3.org/2000/svg">
<path d="M14.75 3C16.8211 3 18.5 4.67893 18.5 6.75C18.5 7.38245 18.3434 7.97834 18.0669 8.50101L19.5 8.5V21.5H4.5V8.5L5.93306 8.50101C5.65657 7.97834 5.5 7.38245 5.5 6.75C5.5 4.67893 7.17893 3 9.25 3C10.3369 3 11.3157 3.46236 12.0006 4.20113C12.6843 3.46236 13.6631 3 14.75 3ZM11 10.5H6.5V19.5H11V10.5ZM17.5 10.5H13V19.5H17.5V10.5ZM9.25 5C8.2835 5 7.5 5.7835 7.5 6.75C7.5 7.7165 8.2835 8.5 9.25 8.5H11V6.75C11 5.7835 10.2165 5 9.25 5ZM14.75 5C13.7835 5 13 5.7835 13 6.75V8.5H14.75C15.7165 8.5 16.5 7.7165 16.5 6.75C16.5 5.7835 15.7165 5 14.75 5Z" fill="#001E3E"/>
</svg>
