<svg width="24" height="24" viewBox="0 0 24 24"  xmlns="http://www.w3.org/2000/svg">
<path fill-rule="evenodd" clip-rule="evenodd" d="M9.33924 3.35635C13.9352 2.03849 18.7711 4.48007 20.4395 8.96066L21.2077 11.024L15.028 12.536L15.029 20.9919H13.029L13.028 17.74L9.671 17.111L9.66267 17.1373L3.84174 16.129L3.28 13.9544C2.09406 9.36342 4.78125 4.66333 9.33924 3.35635ZM13.028 13.026L11.4216 13.4203C11.0906 13.5013 10.8237 13.7453 10.7133 14.0677L10.314 15.232L13.028 15.74V13.026ZM18.4767 9.43247C17.1278 6.15007 13.5671 4.35232 10.125 5.21586L9.89051 5.27887C6.37449 6.28707 4.3016 9.91271 5.21643 13.4542L5.45412 14.3787L8.32214 14.8754L8.82109 13.4201C9.13008 12.5173 9.84826 11.8195 10.75 11.5327L10.9459 11.4777L18.5486 9.61583L18.4767 9.43247Z" fill="#001E3E"/>
</svg>
