<?xml version="1.0" encoding="UTF-8"?>
<svg width="24px" height="24px" viewBox="0 0 24 24" version="1.1" xmlns="http://www.w3.org/2000/svg" xmlns:xlink="http://www.w3.org/1999/xlink">
    <!-- Generator: Sketch 62 (91390) - https://sketch.com -->
    <title>icons / 24x24 / label / plus</title>
    <desc>Created with Sketch.</desc>
    <g id="icons-/-24x24-/-label-/-plus" stroke="none" stroke-width="1" fill="none" fill-rule="evenodd">
        <g id="icon" fill-rule="nonzero">
            <path d="M5,7 L5,11.7573593 C5,12.2288553 5.16648982,12.6831857 5.46691315,13.0417527 L5.58578644,13.1715729 L11.5857864,19.1715729 C12.3257272,19.9115136 13.5012114,19.9504579 14.2869988,19.2884056 L14.4142136,19.1715729 L14.585,19 L17.413,19 L15.8284271,20.5857864 C14.3183999,22.0958137 11.9014356,22.1461479 10.3309459,20.7367892 L10.1715729,20.5857864 L4.17157288,14.5857864 C3.47500918,13.8892227 3.06188104,12.9622067 3.00641663,11.9839411 L3,11.7573593 L3,7 L5,7 Z M8.5,7 C9.32842712,7 10,7.67157288 10,8.5 C10,9.32842712 9.32842712,10 8.5,10 C7.67157288,10 7,9.32842712 7,8.5 C7,7.67157288 7.67157288,7 8.5,7 Z M11.7573593,3 C12.7424491,3 13.6900741,3.36337359 14.4210317,4.01589259 L14.5857864,4.17157288 L17.414,7 L14.586,7 L13.1715729,5.58578644 C12.8381749,5.25238843 12.3991887,5.04885439 11.9332122,5.00774062 L11.7573593,5 L3,5 L3,3 L11.7573593,3 Z" id="shape-label" fill="#001E3E"></path>
            <path d="M19,9 L19,11.999 L22,12 L22,14 L19,14 L19,17 L17,17 L17,14 L14,14 L14,12 L17,12 L17,9 L19,9 Z" id="shape-plus" fill="#069D4F"></path>
        </g>
    </g>
</svg>