<?xml version="1.0" encoding="UTF-8"?>
<svg width="24px" height="24px" viewBox="0 0 24 24" version="1.1" xmlns="http://www.w3.org/2000/svg" xmlns:xlink="http://www.w3.org/1999/xlink">
    <!-- Generator: Sketch 62 (91390) - https://sketch.com -->
    <title>icons / 24x24 / label / solid</title>
    <desc>Created with Sketch.</desc>
    <g id="icons-/-24x24-/-label-/-solid" stroke="none" stroke-width="1" fill="none" fill-rule="evenodd">
        <g id="icon" fill="#001E3E" fill-rule="nonzero">
            <path d="M3,3 L11.7573593,3 C12.8182253,3 13.8356409,3.42142736 14.5857864,4.17157288 L20.5857864,10.1715729 C22.1478836,11.73367 22.1478836,14.26633 20.5857864,15.8284271 L15.8284271,20.5857864 C14.26633,22.1478836 11.73367,22.1478836 10.1715729,20.5857864 L4.17157288,14.5857864 C3.42142736,13.8356409 3,12.8182253 3,11.7573593 L3,3 Z M8.5,10 C9.32842712,10 10,9.32842712 10,8.5 C10,7.67157288 9.32842712,7 8.5,7 C7.67157288,7 7,7.67157288 7,8.5 C7,9.32842712 7.67157288,10 8.5,10 Z" id="shape"></path>
        </g>
    </g>
</svg>