<?xml version="1.0" encoding="UTF-8"?>
<svg width="24px" height="24px" viewBox="0 0 24 24" version="1.1" xmlns="http://www.w3.org/2000/svg" xmlns:xlink="http://www.w3.org/1999/xlink">
    <!-- Generator: Sketch 62 (91390) - https://sketch.com -->
    <title>icons / 24x24 / label / checked</title>
    <desc>Created with Sketch.</desc>
    <g id="icons-/-24x24-/-label-/-checked" stroke="none" stroke-width="1" fill="none" fill-rule="evenodd">
        <g id="icon" fill-rule="nonzero">
            <path d="M4,6 L4,10.7573593 C4,11.2288553 4.16648982,11.6831857 4.46691315,12.0417527 L4.58578644,12.1715729 L10.5857864,18.1715729 C11.3257272,18.9115136 12.5012114,18.9504579 13.2869988,18.2884056 L13.4142136,18.1715729 L15.572,16.013 L15.5734866,16.0137615 L20.624807,10.9762385 C20.9583771,12.2411573 20.6623712,13.637651 19.7367892,14.6690541 L19.5857864,14.8284271 L14.8284271,19.5857864 C13.3183999,21.0958137 10.9014356,21.1461479 9.33094591,19.7367892 L9.17157288,19.5857864 L3.17157288,13.5857864 C2.47500918,12.8892227 2.06188104,11.9622067 2.00641663,10.9839411 L2,10.7573593 L2,6 L4,6 Z M7.5,6 C8.32842712,6 9,6.67157288 9,7.5 C9,8.32842712 8.32842712,9 7.5,9 C6.67157288,9 6,8.32842712 6,7.5 C6,6.67157288 6.67157288,6 7.5,6 Z M10.7573593,2 C11.7424491,2 12.6900741,2.36337359 13.4210317,3.01589259 L13.5857864,3.17157288 L16.588,6.174 L15.166,7.58 L12.1715729,4.58578644 C11.8381749,4.25238843 11.3991887,4.04885439 10.9332122,4.00774062 L10.7573593,4 L2,4 L2,2 L10.7573593,2 Z" id="shape-voucher" fill="#001E3E"></path>
            <polygon id="shape-check" fill="#069D4F" points="12.4017634 8.49499784 11 9.92155292 14.9299587 13.783214 22.3210315 6.41655076 20.909159 5 14.9199538 10.9694254"></polygon>
        </g>
    </g>
</svg>