<?xml version="1.0" encoding="UTF-8"?>
<svg width="24px" height="24px" viewBox="0 0 24 24" version="1.1" xmlns="http://www.w3.org/2000/svg" xmlns:xlink="http://www.w3.org/1999/xlink">
    <!-- Generator: Sketch 62 (91390) - https://sketch.com -->
    <title>icons / 24x24 / mortarboard</title>
    <desc>Created with Sketch.</desc>
    <g id="icons-/-24x24-/-mortarboard" stroke="none" stroke-width="1" fill="none" fill-rule="evenodd">
        <g id="icon" fill="#001E3E" fill-rule="nonzero">
            <path d="M12.5027495,2.85531117 L23.5592178,9.01617974 L19.5,11.2642924 L19.5,17.2627637 L19.221456,17.5529713 C17.6468588,19.1935024 15.3851105,20 12.5,20 C9.61488955,20 7.35314118,19.1935024 5.77854399,17.5529713 L5.5,17.2627637 L5.5,11.2642924 L4.49932501,10.7093112 L4.5,17 L2.5,17 L2.49932501,9.60231117 L1.44032501,9.01592655 L12.5027495,2.85531117 Z M17.499325,12.2453112 L12.5,15.0162049 L7.49932501,12.2453112 L7.5,16.4370944 C8.65590389,17.4718112 10.3058442,18 12.5,18 C14.6941558,18 16.3440961,17.4718112 17.5,16.4370944 L17.499325,12.2453112 Z M12.5024831,5.01750118 L5.33053853,9.01152545 L12.5,12.9837951 L19.6698677,9.01130039 L12.5024831,5.01750118 Z" id="shape"></path>
        </g>
    </g>
</svg>