<?xml version="1.0" encoding="UTF-8"?>
<svg width="24px" height="24px" viewBox="0 0 24 24" version="1.1" xmlns="http://www.w3.org/2000/svg" xmlns:xlink="http://www.w3.org/1999/xlink">
    <!-- Generator: Sketch 62 (91390) - https://sketch.com -->
    <title>icons / 24x24 / pedestrian</title>
    <desc>Created with Sketch.</desc>
    <g id="icons-/-24x24-/-pedestrian" stroke="none" stroke-width="1" fill="none" fill-rule="evenodd">
        <g id="icon" fill="#001E3E" fill-rule="nonzero">
            <path d="M9.699,16.0292199 L11.343,17.1802199 L8.03208889,21.1281062 L6.5,19.842531 L9.699,16.0292199 Z M11.6281128,8 L11.628,8 L13.0054932,8 L13.005,8.019 L13.0117972,8.01413125 L15.1717959,10.6358687 C15.3617561,10.8664364 15.6448518,11 15.9435931,11 L15.9435931,11 L17,11 L17,13 L15.9435931,13 C15.0473694,13 14.1980821,12.5993092 13.6282014,11.9076062 L13.6282014,11.9076062 L13.005,11.151 L13.0054932,12.9722452 C13.0054932,13.2688358 13.1369559,13.5477598 13.360382,13.7363507 L13.4616512,13.8114329 L14.6315258,14.5695789 C15.4848807,15.122602 16,16.0702599 16,17.087142 L16,17.087142 L16,21 L14,21 L14,17.087142 C14,16.7481813 13.8282936,16.4322953 13.5438419,16.2479543 L13.5438419,16.2479543 L12.3739674,15.4898083 C11.5206125,14.9367852 11.0054932,13.9891273 11.0054932,12.9722452 L11.0054932,12.9722452 L11.005,9.999 L10.8279811,10 C10.4848713,10 10.1689932,10.1755306 9.98667604,10.4593957 L9.92477546,10.570792 L8.40320568,13.7727139 L6.59679432,12.9142979 L8.11836411,9.71237601 C8.61538512,8.66646773 9.66998546,8 10.8279811,8 L10.8279811,8 L11.6281128,8 Z M12,3 C13.1045695,3 14,3.8954305 14,5 C14,6.1045695 13.1045695,7 12,7 C10.8954305,7 10,6.1045695 10,5 C10,3.8954305 10.8954305,3 12,3 Z" id="shape"></path>
        </g>
    </g>
</svg>