<svg width="24" height="24" viewBox="0 0 24 24" fill="none" xmlns="http://www.w3.org/2000/svg">
<g clip-path="url(#clip0_2898_236172)">
<path d="M12 11C14.2091 11 16 12.7909 16 15V22H14V15C14 13.8954 13.1046 13 12 13H6C4.89543 13 4 13.8954 4 15V20H12V22H2V15C2 12.7909 3.79086 11 6 11H12ZM8.97515 2C11.1706 2 12.9503 3.79086 12.9503 6C12.9503 8.20914 11.1706 10 8.97515 10C6.77974 10 5 8.20914 5 6C5 3.79086 6.77974 2 8.97515 2ZM8.97515 4C7.88711 4 7 4.89265 7 6C7 7.10735 7.88711 8 8.97515 8C10.0632 8 10.9503 7.10735 10.9503 6C10.9503 4.89265 10.0632 4 8.97515 4Z" fill="#001E3E"/>
<path d="M23 9V7C23 5.89 22.1 5 21 5H19V3H23V1H17V7H21V9H17V11H21C22.1 11 23 10.11 23 9Z" fill="#001E3E"/>
</g>
<defs>
<clipPath id="clip0_2898_236172">
<rect width="24" height="24" fill="white"/>
</clipPath>
</defs>
</svg>
