<svg width="24" height="24" viewBox="0 0 24 24" fill="none" xmlns="http://www.w3.org/2000/svg">
<path d="M15 11C17.2091 11 19 12.7909 19 15V22H17V15C17 13.8954 16.1046 13 15 13H9C7.89543 13 7 13.8954 7 15V20H15V22H5V15C5 12.7909 6.79086 11 9 11H15ZM11.9752 2C14.1706 2 15.9503 3.79086 15.9503 6C15.9503 8.20914 14.1706 10 11.9752 10C9.77974 10 8 8.20914 8 6C8 3.79086 9.77974 2 11.9752 2ZM11.9752 4C10.8871 4 10 4.89265 10 6C10 7.10735 10.8871 8 11.9752 8C13.0632 8 13.9503 7.10735 13.9503 6C13.9503 4.89265 13.0632 4 11.9752 4Z" fill="#001E3E"/>
</svg>
