<svg width="24" height="24" viewBox="0 0 24 24" fill="none" xmlns="http://www.w3.org/2000/svg">
<path d="M11.7623 11.5832L11.9088 11.723L12.0209 11.8419C13.3375 13.3064 13.2923 15.5412 11.9175 16.9512L6.95568 22.04L2.05202 16.9569C0.684704 15.5395 0.645464 13.3064 1.96214 11.8419C3.23428 10.4269 5.41264 10.3111 6.82763 11.5832L6.9915 11.7398L7.03649 11.6953C8.34125 10.4053 10.4162 10.3708 11.7623 11.5832ZM18 11C20.2091 11 22 12.7909 22 15V22H9.295L11.365 20H20V15C20 13.8954 19.1046 13 18 13L14.5216 13.0003C14.3349 12.2777 14.0166 11.5872 13.561 10.9994L18 11ZM8.44264 13.1176L6.9915 14.5523L5.54035 13.1176L5.49048 13.0705C4.8969 12.5369 3.98309 12.5855 3.44943 13.179C2.83439 13.8631 2.85272 14.9063 3.49141 15.5683L6.96333 19.1673L10.4855 15.555C11.0872 14.9379 11.1412 13.981 10.635 13.3028L10.5336 13.179L10.4865 13.1292C9.92534 12.5616 9.01026 12.5564 8.44264 13.1176ZM14.9752 2C17.1706 2 18.9503 3.79086 18.9503 6C18.9503 8.20914 17.1706 10 14.9752 10C12.7797 10 11 8.20914 11 6C11 3.79086 12.7797 2 14.9752 2ZM14.9752 4C13.8871 4 13 4.89265 13 6C13 7.10735 13.8871 8 14.9752 8C16.0632 8 16.9503 7.10735 16.9503 6C16.9503 4.89265 16.0632 4 14.9752 4Z" fill="#001E3E"/>
</svg>
