<?xml version="1.0" encoding="UTF-8"?>
<svg width="24px" height="24px" viewBox="0 0 24 24" version="1.1" xmlns="http://www.w3.org/2000/svg" xmlns:xlink="http://www.w3.org/1999/xlink">
    <!-- Generator: Sketch 62 (91390) - https://sketch.com -->
    <title>icons / 24x24 / person</title>
    <desc>Created with Sketch.</desc>
    <g id="icons-/-24x24-/-person" stroke="none" stroke-width="1" fill="none" fill-rule="evenodd">
        <g id="icon" fill="#001E3E" fill-rule="nonzero">
            <path d="M15,11 C17.209139,11 19,12.790861 19,15 L19,22 L17,22 L17,15 C17,13.8954305 16.1045695,13 15,13 L9,13 C7.8954305,13 7,13.8954305 7,15 L7,20 L15,20 L15,22 L5,22 L5,15 C5,12.790861 6.790861,11 9,11 L15,11 Z M11.9751553,2 C14.1705729,2 15.9503106,3.790861 15.9503106,6 C15.9503106,8.209139 14.1705729,10 11.9751553,10 C9.77973764,10 8,8.209139 8,6 C8,3.790861 9.77973764,2 11.9751553,2 Z M11.9751553,4 C10.8871062,4 10,4.89265064 10,6 C10,7.10734936 10.8871062,8 11.9751553,8 C13.0632043,8 13.9503106,7.10734936 13.9503106,6 C13.9503106,4.89265064 13.0632043,4 11.9751553,4 Z" id="shape"></path>
        </g>
    </g>
</svg>