<?xml version="1.0" encoding="UTF-8"?>
<svg width="24px" height="24px" viewBox="0 0 24 24" version="1.1" xmlns="http://www.w3.org/2000/svg" xmlns:xlink="http://www.w3.org/1999/xlink">
    <!-- Generator: Sketch 62 (91390) - https://sketch.com -->
    <title>icons / 24x24 / pin</title>
    <desc>Created with Sketch.</desc>
    <g id="icons-/-24x24-/-pin" stroke="none" stroke-width="1" fill="none" fill-rule="evenodd">
        <g id="icon" fill="#001E3E" fill-rule="nonzero">
            <path d="M15,19.375 L13.4731316,18.0389901 L13.8461972,17.7284234 L17.3198438,14.6774039 C17.752169,14.2976782 18,13.7501455 18,13.1747355 L18,6 C18,4.8954305 17.1045695,4 16,4 L8,4 C6.8954305,4 6,4.8954305 6,6 L6,13.1750648 C6,13.7502841 6.24766735,14.2976545 6.67974548,14.6773724 L13.5093322,20.6793343 L12,22 L5.36598157,16.1952339 C4.49792173,15.4356815 4,14.3383774 4,13.1849271 L4,6 C4,3.790861 5.790861,2 8,2 L16,2 C18.209139,2 20,3.790861 20,6 L20,13.1849271 C20,14.3383774 19.5020783,15.4356815 18.6340184,16.1952339 L15,19.375 L15,19.375 Z" id="shape"></path>
        </g>
    </g>
</svg>