<?xml version="1.0" encoding="UTF-8"?>
<svg width="24px" height="24px" viewBox="0 0 24 24" version="1.1" xmlns="http://www.w3.org/2000/svg" xmlns:xlink="http://www.w3.org/1999/xlink">
    <!-- Generator: Sketch 62 (91390) - https://sketch.com -->
    <title>icons / 24x24 / surge / circle outline</title>
    <desc>Created with Sketch.</desc>
    <g id="icons-/-24x24-/-surge-/-circle-outline" stroke="none" stroke-width="1" fill="none" fill-rule="evenodd">
        <g id="icon" fill="#001E3E" fill-rule="nonzero">
            <path d="M12,2 C17.5228475,2 22,6.4771525 22,12 C22,17.5228475 17.5228475,22 12,22 C6.4771525,22 2,17.5228475 2,12 C2,6.4771525 6.4771525,2 12,2 Z M12,4 C7.581722,4 4,7.581722 4,12 C4,16.418278 7.581722,20 12,20 C16.418278,20 20,16.418278 20,12 C20,7.581722 16.418278,4 12,4 Z M8.2,10 C8.75228475,10 9.2,10.4477153 9.2,11 L9.2,15 C9.2,15.5522847 8.75228475,16 8.2,16 L7.7,16 C7.14771525,16 6.7,15.5522847 6.7,15 L6.7,11 C6.7,10.4477153 7.14771525,10 7.7,10 L8.2,10 Z M12.2,6 C12.7522847,6 13.2,6.44771525 13.2,7 L13.2,15 C13.2,15.5522847 12.7522847,16 12.2,16 L11.7,16 C11.1477153,16 10.7,15.5522847 10.7,15 L10.7,7 C10.7,6.44771525 11.1477153,6 11.7,6 L12.2,6 Z M16.2,8 C16.7522847,8 17.2,8.44771525 17.2,9 L17.2,15 C17.2,15.5522847 16.7522847,16 16.2,16 L15.7,16 C15.1477153,16 14.7,15.5522847 14.7,15 L14.7,9 C14.7,8.44771525 15.1477153,8 15.7,8 L16.2,8 Z" id="shape"></path>
        </g>
    </g>
</svg>