<?xml version="1.0" encoding="UTF-8"?>
<svg width="24px" height="24px" viewBox="0 0 24 24" version="1.1" xmlns="http://www.w3.org/2000/svg" xmlns:xlink="http://www.w3.org/1999/xlink">
    <!-- Generator: Sketch 62 (91390) - https://sketch.com -->
    <title>icons / 24x24 / surge / circle solid</title>
    <desc>Created with Sketch.</desc>
    <g id="icons-/-24x24-/-surge-/-circle-solid" stroke="none" stroke-width="1" fill="none" fill-rule="evenodd">
        <g id="icon" fill="#001E3E" fill-rule="nonzero">
            <path d="M12,2 C17.5228475,2 22,6.4771525 22,12 C22,17.5228475 17.5228475,22 12,22 C6.4771525,22 2,17.5228475 2,12 C2,6.4771525 6.4771525,2 12,2 Z M8.2,10 L7.7,10 C7.14771525,10 6.7,10.4477153 6.7,11 L6.7,11 L6.7,15 C6.7,15.5522847 7.14771525,16 7.7,16 L7.7,16 L8.2,16 C8.75228475,16 9.2,15.5522847 9.2,15 L9.2,15 L9.2,11 C9.2,10.4477153 8.75228475,10 8.2,10 L8.2,10 Z M12.2,6 L11.7,6 C11.1477153,6 10.7,6.44771525 10.7,7 L10.7,7 L10.7,15 C10.7,15.5522847 11.1477153,16 11.7,16 L11.7,16 L12.2,16 C12.7522847,16 13.2,15.5522847 13.2,15 L13.2,15 L13.2,7 C13.2,6.44771525 12.7522847,6 12.2,6 L12.2,6 Z M16.2,8 L15.7,8 C15.1477153,8 14.7,8.44771525 14.7,9 L14.7,9 L14.7,15 C14.7,15.5522847 15.1477153,16 15.7,16 L15.7,16 L16.2,16 C16.7522847,16 17.2,15.5522847 17.2,15 L17.2,15 L17.2,9 C17.2,8.44771525 16.7522847,8 16.2,8 L16.2,8 Z" id="shape"></path>
        </g>
    </g>
</svg>