<svg width="24" height="24" viewBox="0 0 24 24" fill="none" xmlns="http://www.w3.org/2000/svg">
<path d="M11.7574 3C12.8182 3 13.8356 3.42143 14.5858 4.17157L20.5858 10.1716C22.1479 11.7337 22.1479 14.2663 20.5858 15.8284L15.8284 20.5858C14.2663 22.1479 11.7337 22.1479 10.1716 20.5858L4.17157 14.5858C3.42143 13.8356 3 12.8182 3 11.7574V7H5V11.7574C5 12.2878 5.21071 12.7965 5.58579 13.1716L11.5858 19.1716C12.3668 19.9526 13.6332 19.9526 14.4142 19.1716L19.1716 14.4142C19.9526 13.6332 19.9526 12.3668 19.1716 11.5858L13.1716 5.58579C12.7965 5.21071 12.2878 5 11.7574 5H3V3H11.7574ZM8.5 7C9.32843 7 10 7.67157 10 8.5C10 9.32843 9.32843 10 8.5 10C7.67157 10 7 9.32843 7 8.5C7 7.67157 7.67157 7 8.5 7Z" fill="#001E3E"/>
</svg>
