<svg width="24" height="24" viewBox="0 0 24 24"  xmlns="http://www.w3.org/2000/svg">
<path d="M3 4H21V22H23V4C23 2.89543 22.1046 2 21 2H3C1.89543 2 1 2.89543 1 4V20C1 21.1046 1.89543 22 3 22H19V20H3V4Z" fill="#001E3E"/>
<path fill-rule="evenodd" clip-rule="evenodd" d="M20 10C20 8.34315 18.6569 7 17 7H14V17H16V14H17C18.6569 14 20 12.6569 20 11V10ZM16 9H17C17.5523 9 18 9.44772 18 10V11L17.9933 11.1166C17.9355 11.614 17.5128 12 17 12H16V9Z" fill="#001E3E"/>
<path d="M12.75 17V7H10.75V17H12.75Z" fill="#001E3E"/>
<path d="M6.99979 14.6327L5.761 7H4L5.622 17H8.378L10.001 7H8.239L6.99979 14.6327Z" fill="#001E3E"/>
</svg>
