<svg width="24" height="24" viewBox="0 0 24 24" fill="none" xmlns="http://www.w3.org/2000/svg">
<path d="M9.699 16.0292L11.343 17.1802L8.03209 21.1281L6.5 19.8425L9.699 16.0292ZM11.6281 8H11.628H13.0055L13.005 8.019L13.0118 8.01413L15.1718 10.6359C15.3618 10.8664 15.6449 11 15.9436 11H17V13H15.9436C15.0474 13 14.1981 12.5993 13.6282 11.9076L13.005 11.151L13.0055 12.9722C13.0055 13.2688 13.137 13.5478 13.3604 13.7364L13.4617 13.8114L14.6315 14.5696C15.4849 15.1226 16 16.0703 16 17.0871V21H14V17.0871C14 16.7482 13.8283 16.4323 13.5438 16.248L12.374 15.4898C11.5206 14.9368 11.0055 13.9891 11.0055 12.9722L11.005 9.999L10.828 10C10.4849 10 10.169 10.1755 9.98668 10.4594L9.92478 10.5708L8.40321 13.7727L6.59679 12.9143L8.11836 9.71238C8.61539 8.66647 9.66999 8 10.828 8H11.6281ZM12 3C13.1046 3 14 3.89543 14 5C14 6.10457 13.1046 7 12 7C10.8954 7 10 6.10457 10 5C10 3.89543 10.8954 3 12 3Z" fill="#001E3E"/>
</svg>
