<svg xmlns="http://www.w3.org/2000/svg" xmlns:xlink="http://www.w3.org/1999/xlink" xmlns:lucid="lucid" width="1775" height="643.26">
    <g transform="translate(-145 -40)" lucid:page-tab-id="0_0">
        <path d="M330 60c22.1 0 40 17.9 40 40s-17.9 40-40 40H210c-22.1 0-40-17.9-40-40s17.9-40 40-40z" stroke="#000" stroke-opacity="0" stroke-width="2"
              fill="#fc0"/>
        <use xlink:href="#a" transform="matrix(1,0,0,1,175,65) translate(31.180130208333317 29.751519097222225)"/>
        <use xlink:href="#b" transform="matrix(1,0,0,1,175,65) translate(70.06142361111111 29.751519097222225)"/>
        <use xlink:href="#c" transform="matrix(1,0,0,1,175,65) translate(49.77647569444444 50.935329861111114)"/>
        <use xlink:href="#d" transform="matrix(1,0,0,1,175,65) translate(70.51215277777777 50.935329861111114)"/>
        <path d="M165 198.23h210v83.54H165z" stroke="#000" stroke-opacity="0" stroke-width="2" fill="#001e3e"/>
        <use xlink:href="#e" transform="matrix(1,0,0,1,170,203.23095703125) translate(21.515842013888886 32.81401909722223)"/>
        <use xlink:href="#f" transform="matrix(1,0,0,1,170,203.23095703125) translate(63.62521701388889 32.81401909722223)"/>
        <use xlink:href="#g" transform="matrix(1,0,0,1,170,203.23095703125) translate(79.16558159722223 32.81401909722223)"/>
        <use xlink:href="#h" transform="matrix(1,0,0,1,170,203.23095703125) translate(141.38020833333334 32.81401909722223)"/>
        <use xlink:href="#i" transform="matrix(1,0,0,1,170,203.23095703125) translate(15.3786892361111 53.997829861111114)"/>
        <use xlink:href="#j" transform="matrix(1,0,0,1,170,203.23095703125) translate(34.390190972222214 53.997829861111114)"/>
        <use xlink:href="#k" transform="matrix(1,0,0,1,170,203.23095703125) translate(64.5974392361111 53.997829861111114)"/>
        <use xlink:href="#l" transform="matrix(1,0,0,1,170,203.23095703125) translate(120.83441840277779 53.997829861111114)"/>
        <path d="M270 141v38.73" stroke="#637689" stroke-width="2" fill="none"/>
        <path d="M271 141.03h-2V140h2z" fill="#637689"/>
        <path d="M270 195l-4.64-14.27h9.28z" stroke="#637689" stroke-width="2" fill="#637689"/>
        <path d="M440 200h160v80H440z" stroke="#000" stroke-opacity="0" stroke-width="2" fill="#001e3e"/>
        <use xlink:href="#e" transform="matrix(1,0,0,1,445,205) translate(12.6638454861111 29.751519097222225)"/>
        <use xlink:href="#m" transform="matrix(1,0,0,1,445,205) translate(54.77322048611111 29.751519097222225)"/>
        <use xlink:href="#n" transform="matrix(1,0,0,1,445,205) translate(23.863389756944436 50.935329861111114)"/>
        <use xlink:href="#o" transform="matrix(1,0,0,1,445,205) translate(81.61187065972223 50.935329861111114)"/>
        <path d="M384.98 241H376v-2h8.98zm36.52 0h-11.06v-2h11.06z" fill="#637689"/>
        <path d="M376.03 241H375v-2h1.03zM436.76 240l-14.26 4.64v-9.28z" fill="#637689"/>
        <path d="M440 240l-18.5 6v-12zm-16.5 3.26l10.03-3.26-10.03-3.26z" fill="#637689"/>
        <use xlink:href="#p" transform="matrix(1,0,0,1,384.9802529115519,227.89496527777777) translate(0 19.00173611111111)"/>
        <path d="M665 200h155v80H665z" stroke="#000" stroke-opacity="0" stroke-width="2" fill="#001e3e"/>
        <use xlink:href="#e" transform="matrix(1,0,0,1,670,205) translate(11.580403645833329 29.751519097222225)"/>
        <use xlink:href="#f" transform="matrix(1,0,0,1,670,205) translate(53.689778645833336 29.751519097222225)"/>
        <use xlink:href="#q" transform="matrix(1,0,0,1,670,205) translate(69.23014322916667 29.751519097222225)"/>
        <use xlink:href="#r" transform="matrix(1,0,0,1,670,205) translate(114.52962239583334 29.751519097222225)"/>
        <use xlink:href="#s" transform="matrix(1,0,0,1,670,205) translate(15.852864583333321 50.935329861111114)"/>
        <path d="M609.18 241H601v-2h8.18zm37.32 0h-7.77v-2h7.77z" fill="#637689"/>
        <path d="M601.03 241H600v-2h1.03zM661.76 240l-14.26 4.64v-9.28z" fill="#637689"/>
        <path d="M665 240l-18.5 6v-12zm-16.5 3.26l10.03-3.26-10.03-3.26z" fill="#637689"/>
        <use xlink:href="#t" transform="matrix(1,0,0,1,609.1844365229422,227.89496527777777) translate(0 19.00173611111111)"/>
        <path d="M271 317.57l.94 2.26 2.26.94h218.68v2H273.8l-3.4-1.4-1.4-3.4v-35.2h2zm473.53.4l-1.4 3.4-3.4 1.4h-217.3v-2h216.9l2.27-.94.93-2.26V298.5h2z"
              fill="#637689"/>
        <path d="M271 282.8h-2v-1.03h2zM748.17 297.5h-9.27l4.63-14.26z" fill="#637689"/>
        <path d="M749.55 298.5h-12.03l6-18.5zm-9.28-2h6.52l-3.27-10.03z" fill="#637689"/>
        <use xlink:href="#t" transform="matrix(1,0,0,1,492.8768826267361,309.6640083090278) translate(0 19.00173611111111)"/>
        <path d="M900 185.97h280v108.06H900z" stroke="#000" stroke-opacity="0" stroke-width="2" fill="#001e3e"/>
        <use xlink:href="#u" transform="matrix(1,0,0,1,905,190.974609375) translate(41.0476345486111 22.814019097222225)"/>
        <use xlink:href="#v" transform="matrix(1,0,0,1,905,190.974609375) translate(74.61968315972221 22.814019097222225)"/>
        <use xlink:href="#w" transform="matrix(1,0,0,1,905,190.974609375) translate(104.8269314236111 22.814019097222225)"/>
        <use xlink:href="#x" transform="matrix(1,0,0,1,905,190.974609375) translate(169.73036024305554 22.814019097222225)"/>
        <use xlink:href="#y" transform="matrix(1,0,0,1,905,190.974609375) translate(51.692708333333314 43.997829861111114)"/>
        <use xlink:href="#z" transform="matrix(1,0,0,1,905,190.974609375) translate(74.76779513888887 43.997829861111114)"/>
        <use xlink:href="#A" transform="matrix(1,0,0,1,905,190.974609375) translate(143.90190972222223 43.997829861111114)"/>
        <use xlink:href="#B" transform="matrix(1,0,0,1,905,190.974609375) translate(164.326171875 43.997829861111114)"/>
        <use xlink:href="#C" transform="matrix(1,0,0,1,905,190.974609375) translate(185.88975694444446 43.997829861111114)"/>
        <use xlink:href="#D" transform="matrix(1,0,0,1,905,190.974609375) translate(42.54774305555554 65.18164062500001)"/>
        <use xlink:href="#E" transform="matrix(1,0,0,1,905,190.974609375) translate(152.46202256944446 65.18164062500001)"/>
        <use xlink:href="#F" transform="matrix(1,0,0,1,905,190.974609375) translate(198.72612847222223 65.18164062500001)"/>
        <use xlink:href="#G" transform="matrix(1,0,0,1,905,190.974609375) translate(11.372070312499972 86.36545138888891)"/>
        <use xlink:href="#H" transform="matrix(1,0,0,1,905,190.974609375) translate(80.4302300347222 86.36545138888891)"/>
        <use xlink:href="#I" transform="matrix(1,0,0,1,905,190.974609375) translate(145.33365885416666 86.36545138888891)"/>
        <path d="M847.27 241H821v-2h26.27zm34.23 0h-8.77v-2h8.77z" fill="#637689"/>
        <path d="M821.03 241H820v-2h1.03zM896.76 240l-14.26 4.64v-9.28z" fill="#637689"/>
        <path d="M900 240l-18.5 6v-12zm-16.5 3.26l10.03-3.26-10.03-3.26z" fill="#637689"/>
        <use xlink:href="#p" transform="matrix(1,0,0,1,847.2699652777778,227.89496527777777) translate(0 19.00173611111111)"/>
        <path d="M900 360h120v80H900z" stroke="#000" stroke-opacity="0" stroke-width="2" fill="#069d4f"/>
        <use xlink:href="#J" transform="matrix(1,0,0,1,905,365) translate(30.664062499999996 40.68901909722223)"/>
        <use xlink:href="#K" transform="matrix(1,0,0,1,905,365) translate(63.38541666666667 40.68901909722223)"/>
        <path d="M841 395.8l.94 2.26 2.26.94h37.3v2h-37.7l-3.4-1.4-1.4-3.4v-56.42h2zm-1.4-155.4l1.4 3.4v71.77h-2V244.2l-.94-2.26-2.26-.94H821v-2h15.2z"
              fill="#637689"/>
        <path d="M821.03 241H820v-2h1.03zM896.76 400l-14.26 4.64v-9.28z" fill="#637689"/>
        <path d="M900 400l-18.5 6v-12zm-16.5 3.26l10.03-3.26-10.03-3.26z" fill="#637689"/>
        <use xlink:href="#t" transform="matrix(1,0,0,1,825.2256944444445,315.57084782472424) translate(0 19.00173611111111)"/>
        <path d="M1260 190h220v100h-220z" stroke="#000" stroke-opacity="0" stroke-width="2" fill="#001e3e"/>
        <use xlink:href="#u" transform="matrix(1,0,0,1,1265,195) translate(13.732638888888872 30.689019097222225)"/>
        <use xlink:href="#v" transform="matrix(1,0,0,1,1265,195) translate(47.304687499999986 30.689019097222225)"/>
        <use xlink:href="#L" transform="matrix(1,0,0,1,1265,195) translate(77.51193576388887 30.689019097222225)"/>
        <use xlink:href="#M" transform="matrix(1,0,0,1,1265,195) translate(113.97026909722221 30.689019097222225)"/>
        <use xlink:href="#N" transform="matrix(1,0,0,1,1265,195) translate(177.23307291666669 30.689019097222225)"/>
        <use xlink:href="#O" transform="matrix(1,0,0,1,1265,195) translate(11.153971354166671 51.872829861111114)"/>
        <use xlink:href="#P" transform="matrix(1,0,0,1,1265,195) translate(58.89919704861112 51.872829861111114)"/>
        <use xlink:href="#Q" transform="matrix(1,0,0,1,1265,195) translate(120.14160156250001 51.872829861111114)"/>
        <use xlink:href="#R" transform="matrix(1,0,0,1,1265,195) translate(182.46256510416669 51.872829861111114)"/>
        <use xlink:href="#S" transform="matrix(1,0,0,1,1265,195) translate(10.402018229166657 73.05664062500001)"/>
        <use xlink:href="#T" transform="matrix(1,0,0,1,1265,195) translate(33.477105034722214 73.05664062500001)"/>
        <use xlink:href="#U" transform="matrix(1,0,0,1,1265,195) translate(74.50792100694444 73.05664062500001)"/>
        <use xlink:href="#V" transform="matrix(1,0,0,1,1265,195) translate(96.92979600694444 73.05664062500001)"/>
        <use xlink:href="#W" transform="matrix(1,0,0,1,1265,195) translate(143.83192274305557 73.05664062500001)"/>
        <path d="M927.1 151H524.2l-2.26.94-.94 2.26V199h-2v-45.2l1.4-3.4 3.4-1.4h403.3zm442.5-.6l1.4 3.4v17.7h-2v-17.3l-.94-2.26-2.26-.94H952.9v-2h413.3z"
              fill="#637689"/>
        <path d="M521 200h-2v-1.03h2zM1370 186.76l-4.64-14.26h9.28z" fill="#637689"/>
        <path d="M1370 190l-6-18.5h12zm-3.26-16.5l3.26 10.03 3.26-10.03z" fill="#637689"/>
        <use xlink:href="#X" transform="matrix(1,0,0,1,927.11083984375,137.74365234375) translate(0 19.2392578125)"/>
        <path d="M1207.1 241H1181v-2h26.1zm34.4 0h-8.6v-2h8.6z" fill="#637689"/>
        <path d="M1181.03 241H1180v-2h1.03zM1256.76 240l-14.26 4.64v-9.28z" fill="#637689"/>
        <path d="M1260 240l-18.5 6v-12zm-16.5 3.26l10.03-3.26-10.03-3.26z" fill="#637689"/>
        <use xlink:href="#X" transform="matrix(1,0,0,1,1207.11083984375,227.74365234375) translate(0 19.2392578125)"/>
        <path d="M1260 355h220v100h-220z" stroke="#000" stroke-opacity="0" stroke-width="2" fill="#001e3e"/>
        <use xlink:href="#u" transform="matrix(1,0,0,1,1265,360) translate(8.932291666666657 30.689019097222225)"/>
        <use xlink:href="#v" transform="matrix(1,0,0,1,1265,360) translate(42.50434027777777 30.689019097222225)"/>
        <use xlink:href="#Y" transform="matrix(1,0,0,1,1265,360) translate(72.71158854166666 30.689019097222225)"/>
        <use xlink:href="#Z" transform="matrix(1,0,0,1,1265,360) translate(141.845703125 30.689019097222225)"/>
        <use xlink:href="#S" transform="matrix(1,0,0,1,1265,360) translate(9.828559027777771 51.872829861111114)"/>
        <use xlink:href="#O" transform="matrix(1,0,0,1,1265,360) translate(32.90364583333333 51.872829861111114)"/>
        <use xlink:href="#P" transform="matrix(1,0,0,1,1265,360) translate(80.64887152777777 51.872829861111114)"/>
        <use xlink:href="#aa" transform="matrix(1,0,0,1,1265,360) translate(141.89127604166666 51.872829861111114)"/>
        <use xlink:href="#A" transform="matrix(1,0,0,1,1265,360) translate(0.18988715277777146 73.05664062500001)"/>
        <use xlink:href="#S" transform="matrix(1,0,0,1,1265,360) translate(20.61414930555555 73.05664062500001)"/>
        <use xlink:href="#T" transform="matrix(1,0,0,1,1265,360) translate(43.68923611111111 73.05664062500001)"/>
        <use xlink:href="#U" transform="matrix(1,0,0,1,1265,360) translate(84.72005208333334 73.05664062500001)"/>
        <use xlink:href="#V" transform="matrix(1,0,0,1,1265,360) translate(107.14192708333334 73.05664062500001)"/>
        <use xlink:href="#W" transform="matrix(1,0,0,1,1265,360) translate(154.04405381944446 73.05664062500001)"/>
        <path d="M1201 400.8l.94 2.26 2.26.94h37.3v2h-37.7l-3.4-1.4-1.4-3.4v-71.35h2zm-1.4-160.4l1.4 3.4v61.54h-2V244.2l-.94-2.26-2.26-.94H1181v-2h15.2z"
              fill="#637689"/>
        <path d="M1181.03 241H1180v-2h1.03zM1256.76 405l-14.26 4.64v-9.28z" fill="#637689"/>
        <path d="M1260 405l-18.5 6v-12zm-16.5 3.26l10.03-3.26-10.03-3.26z" fill="#637689"/>
        <g>
            <use xlink:href="#ab" transform="matrix(1,0,0,1,1185.041015625,305.34050385534715) translate(0 19.2392578125)"/>
        </g>
        <path d="M1260 520h220v100h-220z" stroke="#000" stroke-opacity="0" stroke-width="2" fill="#001e3e"/>
        <g>
            <use xlink:href="#u" transform="matrix(1,0,0,1,1265,525) translate(17.04806857638887 30.689019097222225)"/>
            <use xlink:href="#ac" transform="matrix(1,0,0,1,1265,525) translate(50.620117187499986 30.689019097222225)"/>
            <use xlink:href="#ad" transform="matrix(1,0,0,1,1265,525) translate(87.07845052083333 30.689019097222225)"/>
            <use xlink:href="#ae" transform="matrix(1,0,0,1,1265,525) translate(28.4033203125 51.872829861111114)"/>
            <use xlink:href="#U" transform="matrix(1,0,0,1,1265,525) translate(92.73708767361111 51.872829861111114)"/>
            <use xlink:href="#af" transform="matrix(1,0,0,1,1265,525) translate(115.15896267361111 51.872829861111114)"/>
            <use xlink:href="#ag" transform="matrix(1,0,0,1,1265,525) translate(19.71788194444443 73.05664062500001)"/>
            <use xlink:href="#ah" transform="matrix(1,0,0,1,1265,525) translate(109.8611111111111 73.05664062500001)"/>
        </g>
        <path d="M1371 501.5h-2v-11.4h2zm0-35.92h-2V456h2z" fill="#637689"/>
        <path d="M1371 456.03h-2V455h2zM1370 516.76l-4.64-14.26h9.28z" fill="#637689"/>
        <path d="M1370 520l-6-18.5h12zm-3.26-16.5l3.26 10.03 3.26-10.03z" fill="#637689"/>
        <g>
            <use xlink:href="#X" transform="matrix(1,0,0,1,1357.11083984375,465.5843197919178) translate(0 19.2392578125)"/>
        </g>
        <path d="M1560 200h160v80h-160z" stroke="#000" stroke-opacity="0" stroke-width="2" fill="#069d4f"/>
        <g>
            <use xlink:href="#ai" transform="matrix(1,0,0,1,1565,205) translate(26.423068576388886 29.751519097222225)"/>
            <use xlink:href="#aj" transform="matrix(1,0,0,1,1565,205) translate(93.0126953125 29.751519097222225)"/>
            <use xlink:href="#ak" transform="matrix(1,0,0,1,1565,205) translate(114.18131510416667 29.751519097222225)"/>
            <use xlink:href="#al" transform="matrix(1,0,0,1,1565,205) translate(27.159830729166657 50.935329861111114)"/>
            <use xlink:href="#am" transform="matrix(1,0,0,1,1565,205) translate(63.6181640625 50.935329861111114)"/>
        </g>
        <path d="M1495.73 241H1481v-2h14.73zm45.77 0h-15.85v-2h15.85z" fill="#637689"/>
        <path d="M1481.03 241H1480v-2h1.03zM1556.76 240l-14.26 4.64v-9.28z" fill="#637689"/>
        <path d="M1560 240l-18.5 6v-12zm-16.5 3.26l10.03-3.26-10.03-3.26z" fill="#637689"/>
        <g>
            <use xlink:href="#ab" transform="matrix(1,0,0,1,1495.7313683971674,227.74365234375) translate(0 19.2392578125)"/>
        </g>
        <path d="M1560 365h160v80h-160z" stroke="#000" stroke-opacity="0" stroke-width="2" fill="#069d4f"/>
        <g>
            <use xlink:href="#ai" transform="matrix(1,0,0,1,1565,370) translate(3.5834418402777715 29.751519097222225)"/>
            <use xlink:href="#an" transform="matrix(1,0,0,1,1565,370) translate(70.17306857638889 29.751519097222225)"/>
            <use xlink:href="#R" transform="matrix(1,0,0,1,1565,370) translate(130.03309461805554 29.751519097222225)"/>
            <use xlink:href="#w" transform="matrix(1,0,0,1,1565,370) translate(12.9372829861111 50.935329861111114)"/>
            <use xlink:href="#ao" transform="matrix(1,0,0,1,1565,370) translate(77.84071180555556 50.935329861111114)"/>
        </g>
        <path d="M1560 530h160v80h-160z" stroke="#000" stroke-opacity="0" stroke-width="2" fill="#069d4f"/>
        <g>
            <use xlink:href="#ap" transform="matrix(1,0,0,1,1565,535) translate(8.3837890625 29.751519097222225)"/>
            <use xlink:href="#aq" transform="matrix(1,0,0,1,1565,535) translate(80.75358072916667 29.751519097222225)"/>
            <use xlink:href="#ao" transform="matrix(1,0,0,1,1565,535) translate(45.38899739583333 50.935329861111114)"/>
        </g>
        <path d="M1780 530h120v80h-120z" stroke="#000" stroke-opacity="0" stroke-width="2" fill="#ff5e05"/>
        <g>
            <use xlink:href="#ar" transform="matrix(1,0,0,1,1785,535) translate(28.275282118055554 29.751519097222225)"/>
            <use xlink:href="#as" transform="matrix(1,0,0,1,1785,535) translate(72.3291015625 29.751519097222225)"/>
            <use xlink:href="#at" transform="matrix(1,0,0,1,1785,535) translate(15.359157986111114 50.935329861111114)"/>
        </g>
        <path d="M1495.73 406H1481v-2h14.73zm45.77 0h-15.85v-2h15.85z" fill="#637689"/>
        <path d="M1481.03 406H1480v-2h1.03zM1556.76 405l-14.26 4.64v-9.28z" fill="#637689"/>
        <path d="M1560 405l-18.5 6v-12zm-16.5 3.26l10.03-3.26-10.03-3.26z" fill="#637689"/>
        <g>
            <use xlink:href="#ab" transform="matrix(1,0,0,1,1495.7313683971674,392.74365234375) translate(0 19.2392578125)"/>
        </g>
        <path d="M1494.72 571H1481v-2h13.72zm46.78 0h-16.87v-2h16.87z" fill="#637689"/>
        <path d="M1481.03 571H1480v-2h1.03zM1556.76 570l-14.26 4.64v-9.28z" fill="#637689"/>
        <path d="M1560 570l-18.5 6v-12zm-16.5 3.26l10.03-3.26-10.03-3.26z" fill="#637689"/>
        <g>
            <use xlink:href="#ab" transform="matrix(1,0,0,1,1494.7168013368773,557.74365234375) translate(0 19.2392578125)"/>
        </g>
        <path d="M1371 655.8l.94 2.26 2.26.94h222.9v2h-223.3l-3.4-1.4-1.4-3.4V621h2zm470 .4l-1.4 3.4-3.4 1.4h-213.3v-2h212.9l2.26-.94.94-2.26v-27.3h2z"
              fill="#637689"/>
        <path d="M1371 621.03h-2V620h2zM1844.64 627.5h-9.28l4.64-14.26z" fill="#637689"/>
        <path d="M1846 628.5h-12l6-18.5zm-9.26-2h6.52l-3.26-10.03z" fill="#637689"/>
        <g>
            <use xlink:href="#X" transform="matrix(1,0,0,1,1597.11083984375,647.74365234375) translate(0 19.2392578125)"/>
        </g>
        <path d="M1836.2 319l3.4 1.4 1.4 3.4v187.7h-2V324.2l-.94-2.26-2.26-.94h-206.34v-2zm-464.26-.94l2.26.94h229.48v2H1373.8l-3.4-1.4-1.4-3.4V291h2v24.8z"
              fill="#637689"/>
        <path d="M1371 291.03h-2V290h2zM1840 526.76l-4.64-14.26h9.28z" fill="#637689"/>
        <path d="M1840 530l-6-18.5h12zm-3.26-16.5l3.26 10.03 3.26-10.03z" fill="#637689"/>
        <g>
            <use xlink:href="#X" transform="matrix(1,0,0,1,1603.6831475360577,307.74365234375) translate(0 19.2392578125)"/>
        </g>
        <defs>
            <path d="M1481 0h-394L451-1106h-9c33 431 14 683 19 1106H184v-1462h391l635 1095h7c-26-429-11-678-15-1095h279V0" id="au"/>
            <path
                d="M836-686c0-141-77-236-213-236-140 0-206 98-215 236h428zm223 627C946-4 838 19 666 20 308 22 92-191 92-551c0-356 187-588 529-588 314 0 504 195 501 508v148H401c5 169 104 277 279 276 158-2 261-33 379-88v236"
                id="av"/>
            <path
                d="M1079 0c-64-298-133-592-202-885h-7L666 0H338L20-1118h304c74 305 149 505 192 862h6c25-292 125-597 189-862h336c64 284 150 545 182 862h6c7-69 49-308 65-367l134-495h299L1411 0h-332"
                id="aw"/>
            <g id="a">
                <use transform="matrix(0.007595486111111112,0,0,0.007595486111111112,0,0)" xlink:href="#au"/>
                <use transform="matrix(0.007595486111111112,0,0,0.007595486111111112,12.646484375000002,0)" xlink:href="#av"/>
                <use transform="matrix(0.007595486111111112,0,0,0.007595486111111112,21.525607638888893,0)" xlink:href="#aw"/>
            </g>
            <path
                d="M954-63C853 0 774 20 614 20 266 20 92-171 92-553c0-369 188-586 549-586 129 0 245 25 348 76l-90 236c-84-31-156-66-258-66-159 0-238 113-238 338 0 219 79 328 238 328 137 0 223-38 313-97v261"
                id="ax"/>
            <path
                d="M633-893c-183 0-230 133-230 332s48 336 232 336c183 0 229-137 229-336s-47-332-231-332zm4-246c347 5 535 225 539 578S978 25 631 20C283 15 96-208 92-561c-4-355 196-583 545-578"
                id="ay"/>
            <path
                d="M1384-895c-176 0-222 133-223 334V0H856v-653c-1-144-37-242-168-242-78 0-135 29-170 86s-53 152-53 283V0H160v-1118h233l41 143h17c56-98 174-164 325-164 167 0 281 55 340 164h27c55-99 179-165 330-164 265 2 385 133 385 410V0h-306v-653c-1-144-37-242-168-242"
                id="az"/>
            <path
                d="M782-1139c293 0 422 256 422 578 0 230-70 418-202 512-65 46-141 69-228 69-131 0-234-48-309-143h-16c32 222 9 383 16 615H160v-1610h248l43 145h14c71-111 177-166 317-166zm111 574c0-190-40-330-209-330-184 0-221 128-219 332 2 209 40 336 223 336 137 0 205-113 205-338"
                id="aA"/>
            <path d="M795-1139c261-1 398 148 397 410V0H887v-653c-1-148-42-242-180-242-202 0-242 139-242 369V0H160v-1118h233l41 143h17c62-102 185-163 344-164"
                  id="aB"/>
            <path
                d="M498-350c-2 85 52 126 133 127 53 0 117-12 192-35v227C747 3 654 20 543 20c-247 0-350-124-350-370v-539H47v-129l168-102 88-236h195v238h313v229H498v539"
                id="aC"/>
            <g id="b">
                <use transform="matrix(0.007595486111111112,0,0,0.007595486111111112,0,0)" xlink:href="#ax"/>
                <use transform="matrix(0.007595486111111112,0,0,0.007595486111111112,7.998046875000001,0)" xlink:href="#ay"/>
                <use transform="matrix(0.007595486111111112,0,0,0.007595486111111112,17.62912326388889,0)" xlink:href="#az"/>
                <use transform="matrix(0.007595486111111112,0,0,0.007595486111111112,32.903645833333336,0)" xlink:href="#aA"/>
                <use transform="matrix(0.007595486111111112,0,0,0.007595486111111112,42.747395833333336,0)" xlink:href="#ay"/>
                <use transform="matrix(0.007595486111111112,0,0,0.007595486111111112,52.37847222222223,0)" xlink:href="#aB"/>
                <use transform="matrix(0.007595486111111112,0,0,0.007595486111111112,62.601996527777786,0)" xlink:href="#av"/>
                <use transform="matrix(0.007595486111111112,0,0,0.007595486111111112,71.79253472222223,0)" xlink:href="#aB"/>
                <use transform="matrix(0.007595486111111112,0,0,0.007595486111111112,82.01605902777779,0)" xlink:href="#aC"/>
            </g>
            <path d="M451-930c71-134 228-244 436-200l-23 286c-220-45-399 61-399 275V0H160v-1118h231l45 188h15" id="aD"/>
            <g id="c">
                <use transform="matrix(0.007595486111111112,0,0,0.007595486111111112,0,0)" xlink:href="#ay"/>
                <use transform="matrix(0.007595486111111112,0,0,0.007595486111111112,9.63107638888889,0)" xlink:href="#aD"/>
            </g>
            <path
                d="M836-831c-99-39-182-77-306-82-139-6-173 83-92 144 51 39 327 139 383 188 71 62 119 126 119 249C940-74 747 21 463 20 305 20 202 0 94-45v-252c93 45 253 94 379 94 111 0 166-32 166-96 0-68-41-76-98-109-79-46-276-119-333-167-74-61-116-125-116-252 0-368 555-367 836-224"
                id="aE"/>
            <path d="M479-1407c-1 99-61 150-166 150-111 0-166-50-166-150 0-99 55-149 166-149s166 50 166 149zM465 0H160v-1118h305V0" id="aF"/>
            <path
                d="M618-1141c286 0 465 117 465 396V0H870l-59-152h-8C704-33 632 18 432 20 216 22 86-113 86-334c0-119 44-202 124-262 109-82 356-99 570-100 11-142-39-219-174-219-89 0-194 27-315 81l-101-206c129-67 271-101 428-101zm-71 938c137 0 235-88 233-223v-92c-190 3-382 4-381 186 0 86 49 129 148 129"
                id="aG"/>
            <path d="M465 0H160v-1556h305V0" id="aH"/>
            <g id="d">
                <use transform="matrix(0.007595486111111112,0,0,0.007595486111111112,0,0)" xlink:href="#av"/>
                <use transform="matrix(0.007595486111111112,0,0,0.007595486111111112,9.190538194444445,0)" xlink:href="#aE"/>
                <use transform="matrix(0.007595486111111112,0,0,0.007595486111111112,16.922743055555557,0)" xlink:href="#aE"/>
                <use transform="matrix(0.007595486111111112,0,0,0.007595486111111112,24.654947916666668,0)" xlink:href="#av"/>
                <use transform="matrix(0.007595486111111112,0,0,0.007595486111111112,33.845486111111114,0)" xlink:href="#aB"/>
                <use transform="matrix(0.007595486111111112,0,0,0.007595486111111112,44.06901041666667,0)" xlink:href="#aC"/>
                <use transform="matrix(0.007595486111111112,0,0,0.007595486111111112,50.82139756944445,0)" xlink:href="#aF"/>
                <use transform="matrix(0.007595486111111112,0,0,0.007595486111111112,55.56857638888889,0)" xlink:href="#aG"/>
                <use transform="matrix(0.007595486111111112,0,0,0.007595486111111112,64.96419270833334,0)" xlink:href="#aH"/>
            </g>
            <path fill="#fff"
                  d="M643-1462c464-5 754 260 754 717 0 491-297 749-799 745H184v-1462h459zm432 725c0-314-139-471-416-471H494v952h133c299 0 448-160 448-481"
                  id="aI"/>
            <path fill="#fff"
                  d="M633-893c-183 0-230 133-230 332s48 336 232 336c183 0 229-137 229-336s-47-332-231-332zm4-246c347 5 535 225 539 578S978 25 631 20C283 15 96-208 92-561c-4-355 196-583 545-578"
                  id="aJ"/>
            <path fill="#fff"
                  d="M836-686c0-141-77-236-213-236-140 0-206 98-215 236h428zm223 627C946-4 838 19 666 20 308 22 92-191 92-551c0-356 187-588 529-588 314 0 504 195 501 508v148H401c5 169 104 277 279 276 158-2 261-33 379-88v236"
                  id="aK"/>
            <path fill="#fff"
                  d="M836-831c-99-39-182-77-306-82-139-6-173 83-92 144 51 39 327 139 383 188 71 62 119 126 119 249C940-74 747 21 463 20 305 20 202 0 94-45v-252c93 45 253 94 379 94 111 0 166-32 166-96 0-68-41-76-98-109-79-46-276-119-333-167-74-61-116-125-116-252 0-368 555-367 836-224"
                  id="aL"/>
            <g id="e">
                <use transform="matrix(0.007595486111111112,0,0,0.007595486111111112,0,0)" xlink:href="#aI"/>
                <use transform="matrix(0.007595486111111112,0,0,0.007595486111111112,11.514756944444446,0)" xlink:href="#aJ"/>
                <use transform="matrix(0.007595486111111112,0,0,0.007595486111111112,21.145833333333336,0)" xlink:href="#aK"/>
                <use transform="matrix(0.007595486111111112,0,0,0.007595486111111112,30.33637152777778,0)" xlink:href="#aL"/>
            </g>
            <path fill="#fff" d="M479-1407c-1 99-61 150-166 150-111 0-166-50-166-150 0-99 55-149 166-149s166 50 166 149zM465 0H160v-1118h305V0" id="aM"/>
            <path fill="#fff"
                  d="M498-350c-2 85 52 126 133 127 53 0 117-12 192-35v227C747 3 654 20 543 20c-247 0-350-124-350-370v-539H47v-129l168-102 88-236h195v238h313v229H498v539"
                  id="aN"/>
            <g id="f">
                <use transform="matrix(0.007595486111111112,0,0,0.007595486111111112,0,0)" xlink:href="#aM"/>
                <use transform="matrix(0.007595486111111112,0,0,0.007595486111111112,4.747178819444445,0)" xlink:href="#aN"/>
            </g>
            <path fill="#fff"
                  d="M618-1141c286 0 465 117 465 396V0H870l-59-152h-8C704-33 632 18 432 20 216 22 86-113 86-334c0-119 44-202 124-262 109-82 356-99 570-100 11-142-39-219-174-219-89 0-194 27-315 81l-101-206c129-67 271-101 428-101zm-71 938c137 0 235-88 233-223v-92c-190 3-382 4-381 186 0 86 49 129 148 129"
                  id="aO"/>
            <path fill="#fff" d="M465 0H160v-1556h305V0" id="aP"/>
            <path fill="#fff" d="M451-930c71-134 228-244 436-200l-23 286c-220-45-399 61-399 275V0H160v-1118h231l45 188h15" id="aQ"/>
            <path fill="#fff"
                  d="M92-557c0-327 132-582 430-582 141 0 248 55 322 164h10c-38-188-18-371-23-581h306V0H903l-59-145h-13C762-35 656 20 514 20 222 20 92-237 92-557zm309 4c0 190 54 330 220 330 191 0 231-123 231-332 0-214-44-336-236-336-161 0-215 151-215 338"
                  id="aR"/>
            <path fill="#fff"
                  d="M0-1118h334l211 629c18 55 30 119 37 194h6c7-69 23-133 43-194l207-629h327L692 143C611 389 392 544 70 475V233c95 21 196 18 262-37 50-42 89-123 112-204"
                  id="aS"/>
            <g id="g">
                <use transform="matrix(0.007595486111111112,0,0,0.007595486111111112,0,0)" xlink:href="#aO"/>
                <use transform="matrix(0.007595486111111112,0,0,0.007595486111111112,9.395616319444445,0)" xlink:href="#aP"/>
                <use transform="matrix(0.007595486111111112,0,0,0.007595486111111112,14.14279513888889,0)" xlink:href="#aQ"/>
                <use transform="matrix(0.007595486111111112,0,0,0.007595486111111112,20.895182291666668,0)" xlink:href="#aK"/>
                <use transform="matrix(0.007595486111111112,0,0,0.007595486111111112,30.085720486111114,0)" xlink:href="#aO"/>
                <use transform="matrix(0.007595486111111112,0,0,0.007595486111111112,39.48133680555556,0)" xlink:href="#aR"/>
                <use transform="matrix(0.007595486111111112,0,0,0.007595486111111112,49.32508680555556,0)" xlink:href="#aS"/>
            </g>
            <path fill="#fff" d="M389-571L29-1118h346l217 356 219-356h346L793-571 1174 0H827L592-383 356 0H10" id="aT"/>
            <g id="h">
                <use transform="matrix(0.007595486111111112,0,0,0.007595486111111112,0,0)" xlink:href="#aK"/>
                <use transform="matrix(0.007595486111111112,0,0,0.007595486111111112,8.87912326388889,0)" xlink:href="#aT"/>
                <use transform="matrix(0.007595486111111112,0,0,0.007595486111111112,17.872178819444446,0)" xlink:href="#aM"/>
                <use transform="matrix(0.007595486111111112,0,0,0.007595486111111112,22.619357638888893,0)" xlink:href="#aL"/>
                <use transform="matrix(0.007595486111111112,0,0,0.007595486111111112,30.351562500000004,0)" xlink:href="#aN"/>
            </g>
            <path fill="#fff"
                  d="M795-1139c261-1 398 148 397 410V0H887v-653c-1-148-42-242-180-242-202 0-242 139-242 369V0H160v-1118h233l41 143h17c62-102 185-163 344-164"
                  id="aU"/>
            <g id="i">
                <use transform="matrix(0.007595486111111112,0,0,0.007595486111111112,0,0)" xlink:href="#aM"/>
                <use transform="matrix(0.007595486111111112,0,0,0.007595486111111112,4.747178819444445,0)" xlink:href="#aU"/>
            </g>
            <path fill="#fff"
                  d="M791-1139c262-1 402 148 401 410V0H887v-653c0-161-60-242-180-242-201 0-242 142-242 369V0H160v-1556h305c-1 210 6 368-14 581h16c68-109 176-164 324-164"
                  id="aV"/>
            <g id="j">
                <use transform="matrix(0.007595486111111112,0,0,0.007595486111111112,0,0)" xlink:href="#aN"/>
                <use transform="matrix(0.007595486111111112,0,0,0.007595486111111112,6.752387152777779,0)" xlink:href="#aV"/>
                <use transform="matrix(0.007595486111111112,0,0,0.007595486111111112,16.975911458333336,0)" xlink:href="#aK"/>
            </g>
            <path fill="#fff"
                  d="M549-1139c43 0 163 15 194 21h390v155l-175 45c32 50 48 106 48 168 2 289-261 415-574 373-89 78-53 146 121 146h190c229-1 375 93 377 311 0 131-55 232-164 304S691 492 487 492c-156 0-275-28-357-82S6 280 6 182C6 26 113-51 254-84c-55-22-119-89-117-162 3-107 68-140 144-190C169-483 89-600 90-756c1-259 185-383 459-383zM467 14c-100-2-199 51-197 144 3 184 368 146 487 90 62-30 93-71 93-123 0-42-19-70-55-87-64-30-222-23-328-24zm82-569c118 0 165-80 166-197 0-135-55-202-166-202-112 0-168 67-168 202 0 117 52 197 168 197"
                  id="aW"/>
            <g id="k">
                <use transform="matrix(0.007595486111111112,0,0,0.007595486111111112,0,0)" xlink:href="#aI"/>
                <use transform="matrix(0.007595486111111112,0,0,0.007595486111111112,11.514756944444446,0)" xlink:href="#aK"/>
                <use transform="matrix(0.007595486111111112,0,0,0.007595486111111112,20.705295138888893,0)" xlink:href="#aL"/>
                <use transform="matrix(0.007595486111111112,0,0,0.007595486111111112,28.437500000000004,0)" xlink:href="#aM"/>
                <use transform="matrix(0.007595486111111112,0,0,0.007595486111111112,33.18467881944445,0)" xlink:href="#aW"/>
                <use transform="matrix(0.007595486111111112,0,0,0.007595486111111112,41.97265625000001,0)" xlink:href="#aU"/>
            </g>
            <path fill="#fff"
                  d="M596-1225c-134-8-223 103-163 219 11 21 33 41 61 60s93 53 196 102c137 65 230 130 281 196s76 147 76 242c-3 286-231 426-539 426C352 20 214-9 94-68v-288c159 68 260 115 438 120 123 3 211-41 211-155 0-73-44-105-95-141-63-46-329-160-390-220-78-77-147-167-147-315 0-273 208-420 495-416 177 2 298 46 434 103l-100 241c-131-51-199-78-344-86"
                  id="aX"/>
            <path fill="#fff"
                  d="M1384-895c-176 0-222 133-223 334V0H856v-653c-1-144-37-242-168-242-78 0-135 29-170 86s-53 152-53 283V0H160v-1118h233l41 143h17c56-98 174-164 325-164 167 0 281 55 340 164h27c55-99 179-165 330-164 265 2 385 133 385 410V0h-306v-653c-1-144-37-242-168-242"
                  id="aY"/>
            <path fill="#fff"
                  d="M479-1483c251 0 448 128 449 363 0 73-17 137-50 190s-97 113-190 180c-64 47-104 84-122 108-27 36-26 95-25 157H276c-10-218 54-292 191-392 69-51 117-91 139-122s33-66 33-105c-1-95-79-134-182-133-100 0-214 33-342 98L6-1358c149-83 306-125 473-125zM420 27c-110 0-177-61-176-170 0-113 63-170 176-170 109-1 174 61 174 170 0 105-67 170-174 170"
                  id="aZ"/>
            <g id="l">
                <use transform="matrix(0.007595486111111112,0,0,0.007595486111111112,0,0)" xlink:href="#aX"/>
                <use transform="matrix(0.007595486111111112,0,0,0.007595486111111112,8.567708333333334,0)" xlink:href="#aS"/>
                <use transform="matrix(0.007595486111111112,0,0,0.007595486111111112,17.41644965277778,0)" xlink:href="#aL"/>
                <use transform="matrix(0.007595486111111112,0,0,0.007595486111111112,25.14865451388889,0)" xlink:href="#aN"/>
                <use transform="matrix(0.007595486111111112,0,0,0.007595486111111112,31.90104166666667,0)" xlink:href="#aK"/>
                <use transform="matrix(0.007595486111111112,0,0,0.007595486111111112,41.091579861111114,0)" xlink:href="#aY"/>
                <use transform="matrix(0.007595486111111112,0,0,0.007595486111111112,56.36610243055556,0)" xlink:href="#aZ"/>
            </g>
            <g id="m">
                <use transform="matrix(0.007595486111111112,0,0,0.007595486111111112,0,0)" xlink:href="#aL"/>
                <use transform="matrix(0.007595486111111112,0,0,0.007595486111111112,7.732204861111112,0)" xlink:href="#aJ"/>
                <use transform="matrix(0.007595486111111112,0,0,0.007595486111111112,17.36328125,0)" xlink:href="#aY"/>
                <use transform="matrix(0.007595486111111112,0,0,0.007595486111111112,32.63780381944444,0)" xlink:href="#aK"/>
                <use transform="matrix(0.007595486111111112,0,0,0.007595486111111112,41.828342013888886,0)" xlink:href="#aN"/>
                <use transform="matrix(0.007595486111111112,0,0,0.007595486111111112,48.580729166666664,0)" xlink:href="#aV"/>
                <use transform="matrix(0.007595486111111112,0,0,0.007595486111111112,58.80425347222222,0)" xlink:href="#aM"/>
                <use transform="matrix(0.007595486111111112,0,0,0.007595486111111112,63.55143229166666,0)" xlink:href="#aU"/>
                <use transform="matrix(0.007595486111111112,0,0,0.007595486111111112,73.77495659722223,0)" xlink:href="#aW"/>
            </g>
            <g id="n">
                <use transform="matrix(0.007595486111111112,0,0,0.007595486111111112,0,0)" xlink:href="#aL"/>
                <use transform="matrix(0.007595486111111112,0,0,0.007595486111111112,7.732204861111112,0)" xlink:href="#aM"/>
                <use transform="matrix(0.007595486111111112,0,0,0.007595486111111112,12.479383680555557,0)" xlink:href="#aY"/>
                <use transform="matrix(0.007595486111111112,0,0,0.007595486111111112,27.753906250000004,0)" xlink:href="#aM"/>
                <use transform="matrix(0.007595486111111112,0,0,0.007595486111111112,32.50108506944445,0)" xlink:href="#aP"/>
                <use transform="matrix(0.007595486111111112,0,0,0.007595486111111112,37.24826388888889,0)" xlink:href="#aO"/>
                <use transform="matrix(0.007595486111111112,0,0,0.007595486111111112,46.643880208333336,0)" xlink:href="#aQ"/>
            </g>
            <g id="o">
                <use transform="matrix(0.007595486111111112,0,0,0.007595486111111112,0,0)" xlink:href="#aK"/>
                <use transform="matrix(0.007595486111111112,0,0,0.007595486111111112,8.87912326388889,0)" xlink:href="#aT"/>
                <use transform="matrix(0.007595486111111112,0,0,0.007595486111111112,17.872178819444446,0)" xlink:href="#aM"/>
                <use transform="matrix(0.007595486111111112,0,0,0.007595486111111112,22.619357638888893,0)" xlink:href="#aL"/>
                <use transform="matrix(0.007595486111111112,0,0,0.007595486111111112,30.351562500000004,0)" xlink:href="#aN"/>
                <use transform="matrix(0.007595486111111112,0,0,0.007595486111111112,37.103949652777786,0)" xlink:href="#aZ"/>
            </g>
            <path fill="#637689" d="M1481 0h-394L451-1106h-9c33 431 14 683 19 1106H184v-1462h391l635 1095h7c-26-429-11-678-15-1095h279V0" id="ba"/>
            <path fill="#637689"
                  d="M633-893c-183 0-230 133-230 332s48 336 232 336c183 0 229-137 229-336s-47-332-231-332zm4-246c347 5 535 225 539 578S978 25 631 20C283 15 96-208 92-561c-4-355 196-583 545-578"
                  id="bb"/>
            <g id="p">
                <use transform="matrix(0.008680555555555556,0,0,0.008680555555555556,0,0)" xlink:href="#ba"/>
                <use transform="matrix(0.008680555555555556,0,0,0.008680555555555556,14.453125,0)" xlink:href="#bb"/>
            </g>
            <path fill="#fff"
                  d="M637-1325c-111 0-131 91-123 207h264v229H514V0H209v-889H41v-147l168-82c-18-311 94-449 395-449 105 0 199 16 281 47l-78 224c-61-19-118-29-170-29"
                  id="bc"/>
            <path fill="#fff"
                  d="M639-223c202 0 242-139 242-369v-526h305V0H952l-41-143h-16C834-43 709 20 551 20c-263 0-397-147-397-409v-729h305v653c1 148 42 242 180 242"
                  id="bd"/>
            <g id="q">
                <use transform="matrix(0.007595486111111112,0,0,0.007595486111111112,0,0)" xlink:href="#bc"/>
                <use transform="matrix(0.007595486111111112,0,0,0.007595486111111112,6.023220486111112,0)" xlink:href="#bd"/>
                <use transform="matrix(0.007595486111111112,0,0,0.007595486111111112,16.246744791666668,0)" xlink:href="#aP"/>
                <use transform="matrix(0.007595486111111112,0,0,0.007595486111111112,20.993923611111114,0)" xlink:href="#bc"/>
                <use transform="matrix(0.007595486111111112,0,0,0.007595486111111112,27.017144097222225,0)" xlink:href="#aM"/>
                <use transform="matrix(0.007595486111111112,0,0,0.007595486111111112,31.76432291666667,0)" xlink:href="#aP"/>
                <use transform="matrix(0.007595486111111112,0,0,0.007595486111111112,36.511501736111114,0)" xlink:href="#aP"/>
            </g>
            <g id="r">
                <use transform="matrix(0.007595486111111112,0,0,0.007595486111111112,0,0)" xlink:href="#aO"/>
                <use transform="matrix(0.007595486111111112,0,0,0.007595486111111112,9.395616319444445,0)" xlink:href="#aP"/>
                <use transform="matrix(0.007595486111111112,0,0,0.007595486111111112,14.14279513888889,0)" xlink:href="#aP"/>
            </g>
            <path fill="#fff"
                  d="M403-553c0 196 45 334 220 334 192 0 229-123 229-336s-44-336-234-336c-143 0-215 113-215 338zm428 408C771-45 666 20 514 20 221 20 92-235 92-557c0-325 133-582 428-582 160 0 251 63 324 164h8l27-143h258V492H831c5-223-13-428 13-637h-13"
                  id="be"/>
            <g id="s">
                <use transform="matrix(0.007595486111111112,0,0,0.007595486111111112,0,0)" xlink:href="#aQ"/>
                <use transform="matrix(0.007595486111111112,0,0,0.007595486111111112,6.752387152777779,0)" xlink:href="#aK"/>
                <use transform="matrix(0.007595486111111112,0,0,0.007595486111111112,15.942925347222223,0)" xlink:href="#be"/>
                <use transform="matrix(0.007595486111111112,0,0,0.007595486111111112,25.786675347222225,0)" xlink:href="#bd"/>
                <use transform="matrix(0.007595486111111112,0,0,0.007595486111111112,36.010199652777786,0)" xlink:href="#aM"/>
                <use transform="matrix(0.007595486111111112,0,0,0.007595486111111112,40.75737847222223,0)" xlink:href="#aQ"/>
                <use transform="matrix(0.007595486111111112,0,0,0.007595486111111112,47.50976562500001,0)" xlink:href="#aK"/>
                <use transform="matrix(0.007595486111111112,0,0,0.007595486111111112,56.70030381944445,0)" xlink:href="#aY"/>
                <use transform="matrix(0.007595486111111112,0,0,0.007595486111111112,71.9748263888889,0)" xlink:href="#aK"/>
                <use transform="matrix(0.007595486111111112,0,0,0.007595486111111112,81.16536458333334,0)" xlink:href="#aU"/>
                <use transform="matrix(0.007595486111111112,0,0,0.007595486111111112,91.3888888888889,0)" xlink:href="#aN"/>
                <use transform="matrix(0.007595486111111112,0,0,0.007595486111111112,98.14127604166669,0)" xlink:href="#aL"/>
                <use transform="matrix(0.007595486111111112,0,0,0.007595486111111112,105.8734809027778,0)" xlink:href="#aZ"/>
            </g>
            <path fill="#637689" d="M639-860l305-602h334L793-569V0H485v-559L0-1462h336" id="bf"/>
            <path fill="#637689"
                  d="M836-686c0-141-77-236-213-236-140 0-206 98-215 236h428zm223 627C946-4 838 19 666 20 308 22 92-191 92-551c0-356 187-588 529-588 314 0 504 195 501 508v148H401c5 169 104 277 279 276 158-2 261-33 379-88v236"
                  id="bg"/>
            <path fill="#637689"
                  d="M836-831c-99-39-182-77-306-82-139-6-173 83-92 144 51 39 327 139 383 188 71 62 119 126 119 249C940-74 747 21 463 20 305 20 202 0 94-45v-252c93 45 253 94 379 94 111 0 166-32 166-96 0-68-41-76-98-109-79-46-276-119-333-167-74-61-116-125-116-252 0-368 555-367 836-224"
                  id="bh"/>
            <g id="t">
                <use transform="matrix(0.008680555555555556,0,0,0.008680555555555556,0,0)" xlink:href="#bf"/>
                <use transform="matrix(0.008680555555555556,0,0,0.008680555555555556,10.208333333333334,0)" xlink:href="#bg"/>
                <use transform="matrix(0.008680555555555556,0,0,0.008680555555555556,20.711805555555557,0)" xlink:href="#bh"/>
            </g>
            <path fill="#fff"
                  d="M1133-1128c-95-42-202-97-328-97-258 0-367 218-367 498 0 326 122 489 367 489 103 0 227-26 373-77v260C1058-5 924 20 776 20c-443 0-662-290-657-749 5-455 236-754 686-754 142 0 285 34 428 103"
                  id="bi"/>
            <g id="u">
                <use transform="matrix(0.007595486111111112,0,0,0.007595486111111112,0,0)" xlink:href="#bi"/>
                <use transform="matrix(0.007595486111111112,0,0,0.007595486111111112,9.912109375000002,0)" xlink:href="#aO"/>
                <use transform="matrix(0.007595486111111112,0,0,0.007595486111111112,19.307725694444446,0)" xlink:href="#aU"/>
            </g>
            <g id="v">
                <use transform="matrix(0.007595486111111112,0,0,0.007595486111111112,0,0)" xlink:href="#aN"/>
                <use transform="matrix(0.007595486111111112,0,0,0.007595486111111112,6.752387152777779,0)" xlink:href="#aV"/>
                <use transform="matrix(0.007595486111111112,0,0,0.007595486111111112,16.975911458333336,0)" xlink:href="#aK"/>
            </g>
            <g id="w">
                <use transform="matrix(0.007595486111111112,0,0,0.007595486111111112,0,0)" xlink:href="#aK"/>
                <use transform="matrix(0.007595486111111112,0,0,0.007595486111111112,8.87912326388889,0)" xlink:href="#aT"/>
                <use transform="matrix(0.007595486111111112,0,0,0.007595486111111112,17.872178819444446,0)" xlink:href="#aM"/>
                <use transform="matrix(0.007595486111111112,0,0,0.007595486111111112,22.619357638888893,0)" xlink:href="#aL"/>
                <use transform="matrix(0.007595486111111112,0,0,0.007595486111111112,30.351562500000004,0)" xlink:href="#aN"/>
                <use transform="matrix(0.007595486111111112,0,0,0.007595486111111112,37.103949652777786,0)" xlink:href="#aM"/>
                <use transform="matrix(0.007595486111111112,0,0,0.007595486111111112,41.85112847222223,0)" xlink:href="#aU"/>
                <use transform="matrix(0.007595486111111112,0,0,0.007595486111111112,52.074652777777786,0)" xlink:href="#aW"/>
            </g>
            <path fill="#fff"
                  d="M782-1139c293 0 422 256 422 578 0 230-70 418-202 512-65 46-141 69-228 69-131 0-234-48-309-143h-16c32 222 9 383 16 615H160v-1610h248l43 145h14c71-111 177-166 317-166zm111 574c0-190-40-330-209-330-184 0-221 128-219 332 2 209 40 336 223 336 137 0 205-113 205-338"
                  id="bj"/>
            <g id="x">
                <use transform="matrix(0.007595486111111112,0,0,0.007595486111111112,0,0)" xlink:href="#bj"/>
                <use transform="matrix(0.007595486111111112,0,0,0.007595486111111112,9.843750000000002,0)" xlink:href="#aO"/>
                <use transform="matrix(0.007595486111111112,0,0,0.007595486111111112,19.239366319444446,0)" xlink:href="#aN"/>
                <use transform="matrix(0.007595486111111112,0,0,0.007595486111111112,25.991753472222225,0)" xlink:href="#aN"/>
                <use transform="matrix(0.007595486111111112,0,0,0.007595486111111112,32.744140625,0)" xlink:href="#aK"/>
                <use transform="matrix(0.007595486111111112,0,0,0.007595486111111112,41.93467881944444,0)" xlink:href="#aQ"/>
                <use transform="matrix(0.007595486111111112,0,0,0.007595486111111112,48.99848090277778,0)" xlink:href="#aU"/>
            </g>
            <path fill="#fff"
                  d="M782-1139c292 0 422 259 422 578 0 185-39 328-116 429S907 20 774 20c-131 0-234-48-309-143h-21L393 0H160v-1556h305c-3 221 8 361-12 583h12c71-111 177-166 317-166zM465-596c-3 221 29 369 223 369 63 0 110-31 150-87 71-99 72-401-1-498-40-53-88-83-153-83-174 0-216 109-219 299"
                  id="bk"/>
            <g id="y">
                <use transform="matrix(0.007595486111111112,0,0,0.007595486111111112,0,0)" xlink:href="#bk"/>
                <use transform="matrix(0.007595486111111112,0,0,0.007595486111111112,9.843750000000002,0)" xlink:href="#aK"/>
            </g>
            <g id="z">
                <use transform="matrix(0.007595486111111112,0,0,0.007595486111111112,0,0)" xlink:href="#bd"/>
                <use transform="matrix(0.007595486111111112,0,0,0.007595486111111112,10.223524305555557,0)" xlink:href="#bj"/>
                <use transform="matrix(0.007595486111111112,0,0,0.007595486111111112,20.067274305555557,0)" xlink:href="#aR"/>
                <use transform="matrix(0.007595486111111112,0,0,0.007595486111111112,29.911024305555557,0)" xlink:href="#aO"/>
                <use transform="matrix(0.007595486111111112,0,0,0.007595486111111112,39.306640625,0)" xlink:href="#aN"/>
                <use transform="matrix(0.007595486111111112,0,0,0.007595486111111112,46.05902777777778,0)" xlink:href="#aK"/>
                <use transform="matrix(0.007595486111111112,0,0,0.007595486111111112,55.24956597222222,0)" xlink:href="#aR"/>
            </g>
            <g id="A">
                <use transform="matrix(0.007595486111111112,0,0,0.007595486111111112,0,0)" xlink:href="#aN"/>
                <use transform="matrix(0.007595486111111112,0,0,0.007595486111111112,6.752387152777779,0)" xlink:href="#aJ"/>
            </g>
            <g id="B">
                <use transform="matrix(0.007595486111111112,0,0,0.007595486111111112,0,0)" xlink:href="#bc"/>
                <use transform="matrix(0.007595486111111112,0,0,0.007595486111111112,6.023220486111112,0)" xlink:href="#aM"/>
                <use transform="matrix(0.007595486111111112,0,0,0.007595486111111112,10.770399305555557,0)" xlink:href="#aN"/>
            </g>
            <path fill="#fff"
                  d="M1079 0c-64-298-133-592-202-885h-7L666 0H338L20-1118h304c74 305 149 505 192 862h6c25-292 125-597 189-862h336c64 284 150 545 182 862h6c7-69 49-308 65-367l134-495h299L1411 0h-332"
                  id="bl"/>
            <g id="C">
                <use transform="matrix(0.007595486111111112,0,0,0.007595486111111112,0,0)" xlink:href="#aU"/>
                <use transform="matrix(0.007595486111111112,0,0,0.007595486111111112,10.223524305555557,0)" xlink:href="#aK"/>
                <use transform="matrix(0.007595486111111112,0,0,0.007595486111111112,19.102647569444446,0)" xlink:href="#bl"/>
            </g>
            <g id="D">
                <use transform="matrix(0.007595486111111112,0,0,0.007595486111111112,0,0)" xlink:href="#aQ"/>
                <use transform="matrix(0.007595486111111112,0,0,0.007595486111111112,6.752387152777779,0)" xlink:href="#aK"/>
                <use transform="matrix(0.007595486111111112,0,0,0.007595486111111112,15.942925347222223,0)" xlink:href="#be"/>
                <use transform="matrix(0.007595486111111112,0,0,0.007595486111111112,25.786675347222225,0)" xlink:href="#bd"/>
                <use transform="matrix(0.007595486111111112,0,0,0.007595486111111112,36.010199652777786,0)" xlink:href="#aM"/>
                <use transform="matrix(0.007595486111111112,0,0,0.007595486111111112,40.75737847222223,0)" xlink:href="#aQ"/>
                <use transform="matrix(0.007595486111111112,0,0,0.007595486111111112,47.50976562500001,0)" xlink:href="#aK"/>
                <use transform="matrix(0.007595486111111112,0,0,0.007595486111111112,56.70030381944445,0)" xlink:href="#aY"/>
                <use transform="matrix(0.007595486111111112,0,0,0.007595486111111112,71.9748263888889,0)" xlink:href="#aK"/>
                <use transform="matrix(0.007595486111111112,0,0,0.007595486111111112,81.16536458333334,0)" xlink:href="#aU"/>
                <use transform="matrix(0.007595486111111112,0,0,0.007595486111111112,91.3888888888889,0)" xlink:href="#aN"/>
                <use transform="matrix(0.007595486111111112,0,0,0.007595486111111112,98.14127604166669,0)" xlink:href="#aL"/>
            </g>
            <g id="E">
                <use transform="matrix(0.007595486111111112,0,0,0.007595486111111112,0,0)" xlink:href="#bl"/>
                <use transform="matrix(0.007595486111111112,0,0,0.007595486111111112,13.314887152777779,0)" xlink:href="#aV"/>
                <use transform="matrix(0.007595486111111112,0,0,0.007595486111111112,23.538411458333336,0)" xlink:href="#aM"/>
                <use transform="matrix(0.007595486111111112,0,0,0.007595486111111112,28.28559027777778,0)" xlink:href="#aP"/>
                <use transform="matrix(0.007595486111111112,0,0,0.007595486111111112,33.03276909722222,0)" xlink:href="#aK"/>
            </g>
            <g id="F">
                <use transform="matrix(0.007595486111111112,0,0,0.007595486111111112,0,0)" xlink:href="#aL"/>
                <use transform="matrix(0.007595486111111112,0,0,0.007595486111111112,7.732204861111112,0)" xlink:href="#aN"/>
                <use transform="matrix(0.007595486111111112,0,0,0.007595486111111112,14.48459201388889,0)" xlink:href="#aM"/>
                <use transform="matrix(0.007595486111111112,0,0,0.007595486111111112,19.231770833333336,0)" xlink:href="#aP"/>
                <use transform="matrix(0.007595486111111112,0,0,0.007595486111111112,23.97894965277778,0)" xlink:href="#aP"/>
            </g>
            <g id="G">
                <use transform="matrix(0.007595486111111112,0,0,0.007595486111111112,0,0)" xlink:href="#bc"/>
                <use transform="matrix(0.007595486111111112,0,0,0.007595486111111112,6.023220486111112,0)" xlink:href="#bd"/>
                <use transform="matrix(0.007595486111111112,0,0,0.007595486111111112,16.246744791666668,0)" xlink:href="#aP"/>
                <use transform="matrix(0.007595486111111112,0,0,0.007595486111111112,20.993923611111114,0)" xlink:href="#bc"/>
                <use transform="matrix(0.007595486111111112,0,0,0.007595486111111112,27.017144097222225,0)" xlink:href="#aM"/>
                <use transform="matrix(0.007595486111111112,0,0,0.007595486111111112,31.76432291666667,0)" xlink:href="#aP"/>
                <use transform="matrix(0.007595486111111112,0,0,0.007595486111111112,36.511501736111114,0)" xlink:href="#aP"/>
                <use transform="matrix(0.007595486111111112,0,0,0.007595486111111112,41.25868055555556,0)" xlink:href="#aM"/>
                <use transform="matrix(0.007595486111111112,0,0,0.007595486111111112,46.005859375,0)" xlink:href="#aU"/>
                <use transform="matrix(0.007595486111111112,0,0,0.007595486111111112,56.22938368055556,0)" xlink:href="#aW"/>
            </g>
            <g id="H">
                <use transform="matrix(0.007595486111111112,0,0,0.007595486111111112,0,0)" xlink:href="#aK"/>
                <use transform="matrix(0.007595486111111112,0,0,0.007595486111111112,8.87912326388889,0)" xlink:href="#aT"/>
                <use transform="matrix(0.007595486111111112,0,0,0.007595486111111112,17.872178819444446,0)" xlink:href="#aM"/>
                <use transform="matrix(0.007595486111111112,0,0,0.007595486111111112,22.619357638888893,0)" xlink:href="#aL"/>
                <use transform="matrix(0.007595486111111112,0,0,0.007595486111111112,30.351562500000004,0)" xlink:href="#aN"/>
                <use transform="matrix(0.007595486111111112,0,0,0.007595486111111112,37.103949652777786,0)" xlink:href="#aM"/>
                <use transform="matrix(0.007595486111111112,0,0,0.007595486111111112,41.85112847222223,0)" xlink:href="#aU"/>
                <use transform="matrix(0.007595486111111112,0,0,0.007595486111111112,52.074652777777786,0)" xlink:href="#aW"/>
            </g>
            <g id="I">
                <use transform="matrix(0.007595486111111112,0,0,0.007595486111111112,0,0)" xlink:href="#aQ"/>
                <use transform="matrix(0.007595486111111112,0,0,0.007595486111111112,6.752387152777779,0)" xlink:href="#aK"/>
                <use transform="matrix(0.007595486111111112,0,0,0.007595486111111112,15.942925347222223,0)" xlink:href="#be"/>
                <use transform="matrix(0.007595486111111112,0,0,0.007595486111111112,25.786675347222225,0)" xlink:href="#bd"/>
                <use transform="matrix(0.007595486111111112,0,0,0.007595486111111112,36.010199652777786,0)" xlink:href="#aM"/>
                <use transform="matrix(0.007595486111111112,0,0,0.007595486111111112,40.75737847222223,0)" xlink:href="#aQ"/>
                <use transform="matrix(0.007595486111111112,0,0,0.007595486111111112,47.50976562500001,0)" xlink:href="#aK"/>
                <use transform="matrix(0.007595486111111112,0,0,0.007595486111111112,56.70030381944445,0)" xlink:href="#aY"/>
                <use transform="matrix(0.007595486111111112,0,0,0.007595486111111112,71.9748263888889,0)" xlink:href="#aK"/>
                <use transform="matrix(0.007595486111111112,0,0,0.007595486111111112,81.16536458333334,0)" xlink:href="#aU"/>
                <use transform="matrix(0.007595486111111112,0,0,0.007595486111111112,91.3888888888889,0)" xlink:href="#aN"/>
                <use transform="matrix(0.007595486111111112,0,0,0.007595486111111112,98.14127604166669,0)" xlink:href="#aL"/>
                <use transform="matrix(0.007595486111111112,0,0,0.007595486111111112,105.8734809027778,0)" xlink:href="#aZ"/>
            </g>
            <path fill="#fff" d="M776-240c213 0 289-110 289-329v-893h309v946c-8 356-241 531-606 536-358 5-595-195-594-540v-942h309v895c2 220 76 327 293 327"
                  id="bm"/>
            <g id="J">
                <use transform="matrix(0.007595486111111112,0,0,0.007595486111111112,0,0)" xlink:href="#bm"/>
                <use transform="matrix(0.007595486111111112,0,0,0.007595486111111112,11.757812500000002,0)" xlink:href="#aL"/>
                <use transform="matrix(0.007595486111111112,0,0,0.007595486111111112,19.490017361111114,0)" xlink:href="#aK"/>
            </g>
            <path fill="#fff" d="M416-485H172l-51-977h346zM293 27c-110 0-177-61-176-170 0-113 63-170 176-170 109-1 174 61 174 170 0 105-67 170-174 170"
                  id="bn"/>
            <g id="K">
                <use transform="matrix(0.007595486111111112,0,0,0.007595486111111112,0,0)" xlink:href="#aM"/>
                <use transform="matrix(0.007595486111111112,0,0,0.007595486111111112,4.747178819444445,0)" xlink:href="#aN"/>
                <use transform="matrix(0.007595486111111112,0,0,0.007595486111111112,11.499565972222223,0)" xlink:href="#bn"/>
            </g>
            <g id="L">
                <use transform="matrix(0.007595486111111112,0,0,0.007595486111111112,0,0)" xlink:href="#aU"/>
                <use transform="matrix(0.007595486111111112,0,0,0.007595486111111112,10.223524305555557,0)" xlink:href="#aK"/>
                <use transform="matrix(0.007595486111111112,0,0,0.007595486111111112,19.102647569444446,0)" xlink:href="#bl"/>
            </g>
            <g id="M">
                <use transform="matrix(0.007595486111111112,0,0,0.007595486111111112,0,0)" xlink:href="#bj"/>
                <use transform="matrix(0.007595486111111112,0,0,0.007595486111111112,9.843750000000002,0)" xlink:href="#aO"/>
                <use transform="matrix(0.007595486111111112,0,0,0.007595486111111112,19.239366319444446,0)" xlink:href="#aN"/>
                <use transform="matrix(0.007595486111111112,0,0,0.007595486111111112,25.991753472222225,0)" xlink:href="#aN"/>
                <use transform="matrix(0.007595486111111112,0,0,0.007595486111111112,32.744140625,0)" xlink:href="#aK"/>
                <use transform="matrix(0.007595486111111112,0,0,0.007595486111111112,41.93467881944444,0)" xlink:href="#aQ"/>
                <use transform="matrix(0.007595486111111112,0,0,0.007595486111111112,48.99848090277778,0)" xlink:href="#aU"/>
            </g>
            <g id="N">
                <use transform="matrix(0.007595486111111112,0,0,0.007595486111111112,0,0)" xlink:href="#bk"/>
                <use transform="matrix(0.007595486111111112,0,0,0.007595486111111112,9.843750000000002,0)" xlink:href="#aK"/>
            </g>
            <g id="O">
                <use transform="matrix(0.007595486111111112,0,0,0.007595486111111112,0,0)" xlink:href="#aY"/>
                <use transform="matrix(0.007595486111111112,0,0,0.007595486111111112,15.274522569444446,0)" xlink:href="#aO"/>
                <use transform="matrix(0.007595486111111112,0,0,0.007595486111111112,24.670138888888893,0)" xlink:href="#aR"/>
                <use transform="matrix(0.007595486111111112,0,0,0.007595486111111112,34.51388888888889,0)" xlink:href="#aK"/>
            </g>
            <path fill="#fff"
                  d="M954-63C853 0 774 20 614 20 266 20 92-171 92-553c0-369 188-586 549-586 129 0 245 25 348 76l-90 236c-84-31-156-66-258-66-159 0-238 113-238 338 0 219 79 328 238 328 137 0 223-38 313-97v261"
                  id="bo"/>
            <g id="P">
                <use transform="matrix(0.007595486111111112,0,0,0.007595486111111112,0,0)" xlink:href="#aW"/>
                <use transform="matrix(0.007595486111111112,0,0,0.007595486111111112,8.787977430555557,0)" xlink:href="#aK"/>
                <use transform="matrix(0.007595486111111112,0,0,0.007595486111111112,17.978515625,0)" xlink:href="#aU"/>
                <use transform="matrix(0.007595486111111112,0,0,0.007595486111111112,28.202039930555557,0)" xlink:href="#aK"/>
                <use transform="matrix(0.007595486111111112,0,0,0.007595486111111112,37.392578125,0)" xlink:href="#aQ"/>
                <use transform="matrix(0.007595486111111112,0,0,0.007595486111111112,44.456380208333336,0)" xlink:href="#aM"/>
                <use transform="matrix(0.007595486111111112,0,0,0.007595486111111112,49.20355902777778,0)" xlink:href="#bo"/>
            </g>
            <g id="Q">
                <use transform="matrix(0.007595486111111112,0,0,0.007595486111111112,0,0)" xlink:href="#aK"/>
                <use transform="matrix(0.007595486111111112,0,0,0.007595486111111112,9.190538194444445,0)" xlink:href="#aU"/>
                <use transform="matrix(0.007595486111111112,0,0,0.007595486111111112,19.4140625,0)" xlink:href="#aJ"/>
                <use transform="matrix(0.007595486111111112,0,0,0.007595486111111112,29.04513888888889,0)" xlink:href="#bd"/>
                <use transform="matrix(0.007595486111111112,0,0,0.007595486111111112,39.26866319444444,0)" xlink:href="#aW"/>
                <use transform="matrix(0.007595486111111112,0,0,0.007595486111111112,48.056640625,0)" xlink:href="#aV"/>
            </g>
            <g id="R">
                <use transform="matrix(0.007595486111111112,0,0,0.007595486111111112,0,0)" xlink:href="#aN"/>
                <use transform="matrix(0.007595486111111112,0,0,0.007595486111111112,6.752387152777779,0)" xlink:href="#aJ"/>
            </g>
            <g id="S">
                <use transform="matrix(0.007595486111111112,0,0,0.007595486111111112,0,0)" xlink:href="#bk"/>
                <use transform="matrix(0.007595486111111112,0,0,0.007595486111111112,9.843750000000002,0)" xlink:href="#aK"/>
            </g>
            <g id="T">
                <use transform="matrix(0.007595486111111112,0,0,0.007595486111111112,0,0)" xlink:href="#bd"/>
                <use transform="matrix(0.007595486111111112,0,0,0.007595486111111112,10.223524305555557,0)" xlink:href="#aL"/>
                <use transform="matrix(0.007595486111111112,0,0,0.007595486111111112,17.955729166666668,0)" xlink:href="#aK"/>
                <use transform="matrix(0.007595486111111112,0,0,0.007595486111111112,27.146267361111114,0)" xlink:href="#aR"/>
            </g>
            <g id="U">
                <use transform="matrix(0.007595486111111112,0,0,0.007595486111111112,0,0)" xlink:href="#bk"/>
                <use transform="matrix(0.007595486111111112,0,0,0.007595486111111112,9.532335069444446,0)" xlink:href="#aS"/>
            </g>
            <g id="V">
                <use transform="matrix(0.007595486111111112,0,0,0.007595486111111112,0,0)" xlink:href="#aJ"/>
                <use transform="matrix(0.007595486111111112,0,0,0.007595486111111112,9.63107638888889,0)" xlink:href="#aN"/>
                <use transform="matrix(0.007595486111111112,0,0,0.007595486111111112,16.383463541666668,0)" xlink:href="#aV"/>
                <use transform="matrix(0.007595486111111112,0,0,0.007595486111111112,26.606987847222225,0)" xlink:href="#aK"/>
                <use transform="matrix(0.007595486111111112,0,0,0.007595486111111112,35.79752604166667,0)" xlink:href="#aQ"/>
            </g>
            <g id="W">
                <use transform="matrix(0.007595486111111112,0,0,0.007595486111111112,0,0)" xlink:href="#aN"/>
                <use transform="matrix(0.007595486111111112,0,0,0.007595486111111112,6.752387152777779,0)" xlink:href="#aK"/>
                <use transform="matrix(0.007595486111111112,0,0,0.007595486111111112,15.942925347222223,0)" xlink:href="#aO"/>
                <use transform="matrix(0.007595486111111112,0,0,0.007595486111111112,25.338541666666668,0)" xlink:href="#aY"/>
                <use transform="matrix(0.007595486111111112,0,0,0.007595486111111112,40.613064236111114,0)" xlink:href="#aL"/>
                <use transform="matrix(0.007595486111111112,0,0,0.007595486111111112,48.34526909722223,0)" xlink:href="#aZ"/>
            </g>
            <g id="X">
                <use transform="matrix(0.0087890625,0,0,0.0087890625,0,0)" xlink:href="#ba"/>
                <use transform="matrix(0.0087890625,0,0,0.0087890625,14.6337890625,0)" xlink:href="#bb"/>
            </g>
            <g id="Y">
                <use transform="matrix(0.007595486111111112,0,0,0.007595486111111112,0,0)" xlink:href="#bd"/>
                <use transform="matrix(0.007595486111111112,0,0,0.007595486111111112,10.223524305555557,0)" xlink:href="#bj"/>
                <use transform="matrix(0.007595486111111112,0,0,0.007595486111111112,20.067274305555557,0)" xlink:href="#aR"/>
                <use transform="matrix(0.007595486111111112,0,0,0.007595486111111112,29.911024305555557,0)" xlink:href="#aO"/>
                <use transform="matrix(0.007595486111111112,0,0,0.007595486111111112,39.306640625,0)" xlink:href="#aN"/>
                <use transform="matrix(0.007595486111111112,0,0,0.007595486111111112,46.05902777777778,0)" xlink:href="#aK"/>
                <use transform="matrix(0.007595486111111112,0,0,0.007595486111111112,55.24956597222222,0)" xlink:href="#aR"/>
            </g>
            <g id="Z">
                <use transform="matrix(0.007595486111111112,0,0,0.007595486111111112,0,0)" xlink:href="#bj"/>
                <use transform="matrix(0.007595486111111112,0,0,0.007595486111111112,9.843750000000002,0)" xlink:href="#aO"/>
                <use transform="matrix(0.007595486111111112,0,0,0.007595486111111112,19.239366319444446,0)" xlink:href="#aN"/>
                <use transform="matrix(0.007595486111111112,0,0,0.007595486111111112,25.991753472222225,0)" xlink:href="#aN"/>
                <use transform="matrix(0.007595486111111112,0,0,0.007595486111111112,32.744140625,0)" xlink:href="#aK"/>
                <use transform="matrix(0.007595486111111112,0,0,0.007595486111111112,41.93467881944444,0)" xlink:href="#aQ"/>
                <use transform="matrix(0.007595486111111112,0,0,0.007595486111111112,48.99848090277778,0)" xlink:href="#aU"/>
            </g>
            <g id="aa">
                <use transform="matrix(0.007595486111111112,0,0,0.007595486111111112,0,0)" xlink:href="#aK"/>
                <use transform="matrix(0.007595486111111112,0,0,0.007595486111111112,9.190538194444445,0)" xlink:href="#aU"/>
                <use transform="matrix(0.007595486111111112,0,0,0.007595486111111112,19.4140625,0)" xlink:href="#aJ"/>
                <use transform="matrix(0.007595486111111112,0,0,0.007595486111111112,29.04513888888889,0)" xlink:href="#bd"/>
                <use transform="matrix(0.007595486111111112,0,0,0.007595486111111112,39.26866319444444,0)" xlink:href="#aW"/>
                <use transform="matrix(0.007595486111111112,0,0,0.007595486111111112,48.056640625,0)" xlink:href="#aV"/>
            </g>
            <g id="ab">
                <use transform="matrix(0.0087890625,0,0,0.0087890625,0,0)" xlink:href="#bf"/>
                <use transform="matrix(0.0087890625,0,0,0.0087890625,10.3359375,0)" xlink:href="#bg"/>
                <use transform="matrix(0.0087890625,0,0,0.0087890625,20.970703125,0)" xlink:href="#bh"/>
            </g>
            <g id="ac">
                <use transform="matrix(0.007595486111111112,0,0,0.007595486111111112,0,0)" xlink:href="#aU"/>
                <use transform="matrix(0.007595486111111112,0,0,0.007595486111111112,10.223524305555557,0)" xlink:href="#aK"/>
                <use transform="matrix(0.007595486111111112,0,0,0.007595486111111112,19.102647569444446,0)" xlink:href="#bl"/>
            </g>
            <g id="ad">
                <use transform="matrix(0.007595486111111112,0,0,0.007595486111111112,0,0)" xlink:href="#aQ"/>
                <use transform="matrix(0.007595486111111112,0,0,0.007595486111111112,6.752387152777779,0)" xlink:href="#aK"/>
                <use transform="matrix(0.007595486111111112,0,0,0.007595486111111112,15.942925347222223,0)" xlink:href="#be"/>
                <use transform="matrix(0.007595486111111112,0,0,0.007595486111111112,25.786675347222225,0)" xlink:href="#bd"/>
                <use transform="matrix(0.007595486111111112,0,0,0.007595486111111112,36.010199652777786,0)" xlink:href="#aM"/>
                <use transform="matrix(0.007595486111111112,0,0,0.007595486111111112,40.75737847222223,0)" xlink:href="#aQ"/>
                <use transform="matrix(0.007595486111111112,0,0,0.007595486111111112,47.50976562500001,0)" xlink:href="#aK"/>
                <use transform="matrix(0.007595486111111112,0,0,0.007595486111111112,56.70030381944445,0)" xlink:href="#aY"/>
                <use transform="matrix(0.007595486111111112,0,0,0.007595486111111112,71.9748263888889,0)" xlink:href="#aK"/>
                <use transform="matrix(0.007595486111111112,0,0,0.007595486111111112,81.16536458333334,0)" xlink:href="#aU"/>
                <use transform="matrix(0.007595486111111112,0,0,0.007595486111111112,91.3888888888889,0)" xlink:href="#aN"/>
                <use transform="matrix(0.007595486111111112,0,0,0.007595486111111112,98.14127604166669,0)" xlink:href="#aL"/>
            </g>
            <g id="ae">
                <use transform="matrix(0.007595486111111112,0,0,0.007595486111111112,0,0)" xlink:href="#bc"/>
                <use transform="matrix(0.007595486111111112,0,0,0.007595486111111112,6.023220486111112,0)" xlink:href="#bd"/>
                <use transform="matrix(0.007595486111111112,0,0,0.007595486111111112,16.246744791666668,0)" xlink:href="#aP"/>
                <use transform="matrix(0.007595486111111112,0,0,0.007595486111111112,20.993923611111114,0)" xlink:href="#bc"/>
                <use transform="matrix(0.007595486111111112,0,0,0.007595486111111112,27.017144097222225,0)" xlink:href="#aM"/>
                <use transform="matrix(0.007595486111111112,0,0,0.007595486111111112,31.76432291666667,0)" xlink:href="#aP"/>
                <use transform="matrix(0.007595486111111112,0,0,0.007595486111111112,36.511501736111114,0)" xlink:href="#aP"/>
                <use transform="matrix(0.007595486111111112,0,0,0.007595486111111112,41.25868055555556,0)" xlink:href="#aK"/>
                <use transform="matrix(0.007595486111111112,0,0,0.007595486111111112,50.44921875,0)" xlink:href="#aR"/>
            </g>
            <g id="af">
                <use transform="matrix(0.007595486111111112,0,0,0.007595486111111112,0,0)" xlink:href="#aO"/>
                <use transform="matrix(0.007595486111111112,0,0,0.007595486111111112,9.395616319444445,0)" xlink:href="#bj"/>
                <use transform="matrix(0.007595486111111112,0,0,0.007595486111111112,19.239366319444446,0)" xlink:href="#bj"/>
                <use transform="matrix(0.007595486111111112,0,0,0.007595486111111112,29.08311631944445,0)" xlink:href="#aP"/>
                <use transform="matrix(0.007595486111111112,0,0,0.007595486111111112,33.83029513888889,0)" xlink:href="#aS"/>
                <use transform="matrix(0.007595486111111112,0,0,0.007595486111111112,42.679036458333336,0)" xlink:href="#aM"/>
                <use transform="matrix(0.007595486111111112,0,0,0.007595486111111112,47.42621527777778,0)" xlink:href="#aU"/>
                <use transform="matrix(0.007595486111111112,0,0,0.007595486111111112,57.649739583333336,0)" xlink:href="#aW"/>
            </g>
            <g id="ag">
                <use transform="matrix(0.007595486111111112,0,0,0.007595486111111112,0,0)" xlink:href="#aQ"/>
                <use transform="matrix(0.007595486111111112,0,0,0.007595486111111112,6.752387152777779,0)" xlink:href="#aK"/>
                <use transform="matrix(0.007595486111111112,0,0,0.007595486111111112,15.942925347222223,0)" xlink:href="#aO"/>
                <use transform="matrix(0.007595486111111112,0,0,0.007595486111111112,25.338541666666668,0)" xlink:href="#aL"/>
                <use transform="matrix(0.007595486111111112,0,0,0.007595486111111112,33.07074652777778,0)" xlink:href="#aJ"/>
                <use transform="matrix(0.007595486111111112,0,0,0.007595486111111112,42.70182291666667,0)" xlink:href="#aU"/>
                <use transform="matrix(0.007595486111111112,0,0,0.007595486111111112,52.92534722222223,0)" xlink:href="#aO"/>
                <use transform="matrix(0.007595486111111112,0,0,0.007595486111111112,62.32096354166667,0)" xlink:href="#bk"/>
                <use transform="matrix(0.007595486111111112,0,0,0.007595486111111112,72.16471354166667,0)" xlink:href="#aP"/>
                <use transform="matrix(0.007595486111111112,0,0,0.007595486111111112,76.91189236111111,0)" xlink:href="#aK"/>
            </g>
            <path fill="#fff" d="M426 0L0-1118h319l216 637c24 81 39 157 45 229h6c3-64 15-141 45-229l215-637h319L739 0H426" id="bp"/>
            <g id="ah">
                <use transform="matrix(0.007595486111111112,0,0,0.007595486111111112,0,0)" xlink:href="#aJ"/>
                <use transform="matrix(0.007595486111111112,0,0,0.007595486111111112,9.319661458333334,0)" xlink:href="#bp"/>
                <use transform="matrix(0.007595486111111112,0,0,0.007595486111111112,18.16840277777778,0)" xlink:href="#aK"/>
                <use transform="matrix(0.007595486111111112,0,0,0.007595486111111112,27.35894097222222,0)" xlink:href="#aQ"/>
                <use transform="matrix(0.007595486111111112,0,0,0.007595486111111112,34.42274305555556,0)" xlink:href="#aQ"/>
                <use transform="matrix(0.007595486111111112,0,0,0.007595486111111112,41.48654513888889,0)" xlink:href="#aM"/>
                <use transform="matrix(0.007595486111111112,0,0,0.007595486111111112,46.233723958333336,0)" xlink:href="#aR"/>
                <use transform="matrix(0.007595486111111112,0,0,0.007595486111111112,56.077473958333336,0)" xlink:href="#aK"/>
                <use transform="matrix(0.007595486111111112,0,0,0.007595486111111112,65.26801215277779,0)" xlink:href="#aL"/>
                <use transform="matrix(0.007595486111111112,0,0,0.007595486111111112,73.0002170138889,0)" xlink:href="#aZ"/>
            </g>
            <path fill="#fff"
                  d="M881-995c0-154-85-213-246-213H494v434h102c173 1 285-62 285-221zm-230-467c334-1 543 136 543 456 0 330-225 489-567 486H494V0H184v-1462h467"
                  id="bq"/>
            <g id="ai">
                <use transform="matrix(0.007595486111111112,0,0,0.007595486111111112,0,0)" xlink:href="#bq"/>
                <use transform="matrix(0.007595486111111112,0,0,0.007595486111111112,9.76779513888889,0)" xlink:href="#aQ"/>
                <use transform="matrix(0.007595486111111112,0,0,0.007595486111111112,16.520182291666668,0)" xlink:href="#aJ"/>
                <use transform="matrix(0.007595486111111112,0,0,0.007595486111111112,26.151258680555557,0)" xlink:href="#bj"/>
                <use transform="matrix(0.007595486111111112,0,0,0.007595486111111112,35.99500868055556,0)" xlink:href="#aJ"/>
                <use transform="matrix(0.007595486111111112,0,0,0.007595486111111112,45.62608506944444,0)" xlink:href="#aL"/>
                <use transform="matrix(0.007595486111111112,0,0,0.007595486111111112,53.35828993055556,0)" xlink:href="#aK"/>
            </g>
            <g id="aj">
                <use transform="matrix(0.007595486111111112,0,0,0.007595486111111112,0,0)" xlink:href="#aO"/>
                <use transform="matrix(0.007595486111111112,0,0,0.007595486111111112,9.395616319444445,0)" xlink:href="#aL"/>
            </g>
            <use transform="matrix(0.007595486111111112,0,0,0.007595486111111112,0,0)" xlink:href="#aO" id="ak"/>
            <g id="al">
                <use transform="matrix(0.007595486111111112,0,0,0.007595486111111112,0,0)" xlink:href="#aU"/>
                <use transform="matrix(0.007595486111111112,0,0,0.007595486111111112,10.223524305555557,0)" xlink:href="#aK"/>
                <use transform="matrix(0.007595486111111112,0,0,0.007595486111111112,19.102647569444446,0)" xlink:href="#bl"/>
            </g>
            <g id="am">
                <use transform="matrix(0.007595486111111112,0,0,0.007595486111111112,0,0)" xlink:href="#bj"/>
                <use transform="matrix(0.007595486111111112,0,0,0.007595486111111112,9.843750000000002,0)" xlink:href="#aO"/>
                <use transform="matrix(0.007595486111111112,0,0,0.007595486111111112,19.239366319444446,0)" xlink:href="#aN"/>
                <use transform="matrix(0.007595486111111112,0,0,0.007595486111111112,25.991753472222225,0)" xlink:href="#aN"/>
                <use transform="matrix(0.007595486111111112,0,0,0.007595486111111112,32.744140625,0)" xlink:href="#aK"/>
                <use transform="matrix(0.007595486111111112,0,0,0.007595486111111112,41.93467881944444,0)" xlink:href="#aQ"/>
                <use transform="matrix(0.007595486111111112,0,0,0.007595486111111112,48.99848090277778,0)" xlink:href="#aU"/>
            </g>
            <g id="an">
                <use transform="matrix(0.007595486111111112,0,0,0.007595486111111112,0,0)" xlink:href="#bo"/>
                <use transform="matrix(0.007595486111111112,0,0,0.007595486111111112,7.998046875000001,0)" xlink:href="#aV"/>
                <use transform="matrix(0.007595486111111112,0,0,0.007595486111111112,18.221571180555557,0)" xlink:href="#aO"/>
                <use transform="matrix(0.007595486111111112,0,0,0.007595486111111112,27.6171875,0)" xlink:href="#aU"/>
                <use transform="matrix(0.007595486111111112,0,0,0.007595486111111112,37.84071180555556,0)" xlink:href="#aW"/>
                <use transform="matrix(0.007595486111111112,0,0,0.007595486111111112,46.628689236111114,0)" xlink:href="#aK"/>
            </g>
            <g id="ao">
                <use transform="matrix(0.007595486111111112,0,0,0.007595486111111112,0,0)" xlink:href="#bj"/>
                <use transform="matrix(0.007595486111111112,0,0,0.007595486111111112,9.843750000000002,0)" xlink:href="#aO"/>
                <use transform="matrix(0.007595486111111112,0,0,0.007595486111111112,19.239366319444446,0)" xlink:href="#aN"/>
                <use transform="matrix(0.007595486111111112,0,0,0.007595486111111112,25.991753472222225,0)" xlink:href="#aN"/>
                <use transform="matrix(0.007595486111111112,0,0,0.007595486111111112,32.744140625,0)" xlink:href="#aK"/>
                <use transform="matrix(0.007595486111111112,0,0,0.007595486111111112,41.93467881944444,0)" xlink:href="#aQ"/>
                <use transform="matrix(0.007595486111111112,0,0,0.007595486111111112,48.99848090277778,0)" xlink:href="#aU"/>
            </g>
            <path fill="#fff"
                  d="M817-1485c460 0 694 282 694 752 0 468-238 753-696 753-459 0-696-285-696-755 0-471 238-750 698-750zm0 258c-273 0-374 198-373 494 0 296 98 493 371 493 247 0 371-164 371-493s-123-494-369-494"
                  id="br"/>
            <g id="ap">
                <use transform="matrix(0.007595486111111112,0,0,0.007595486111111112,0,0)" xlink:href="#br"/>
                <use transform="matrix(0.007595486111111112,0,0,0.007595486111111112,12.380642361111112,0)" xlink:href="#bp"/>
                <use transform="matrix(0.007595486111111112,0,0,0.007595486111111112,21.229383680555557,0)" xlink:href="#aK"/>
                <use transform="matrix(0.007595486111111112,0,0,0.007595486111111112,30.419921875,0)" xlink:href="#aQ"/>
                <use transform="matrix(0.007595486111111112,0,0,0.007595486111111112,37.483723958333336,0)" xlink:href="#aQ"/>
                <use transform="matrix(0.007595486111111112,0,0,0.007595486111111112,44.54752604166667,0)" xlink:href="#aM"/>
                <use transform="matrix(0.007595486111111112,0,0,0.007595486111111112,49.294704861111114,0)" xlink:href="#aR"/>
                <use transform="matrix(0.007595486111111112,0,0,0.007595486111111112,59.138454861111114,0)" xlink:href="#aK"/>
            </g>
            <g id="aq">
                <use transform="matrix(0.007595486111111112,0,0,0.007595486111111112,0,0)" xlink:href="#aK"/>
                <use transform="matrix(0.007595486111111112,0,0,0.007595486111111112,8.87912326388889,0)" xlink:href="#aT"/>
                <use transform="matrix(0.007595486111111112,0,0,0.007595486111111112,17.872178819444446,0)" xlink:href="#aM"/>
                <use transform="matrix(0.007595486111111112,0,0,0.007595486111111112,22.619357638888893,0)" xlink:href="#aL"/>
                <use transform="matrix(0.007595486111111112,0,0,0.007595486111111112,30.351562500000004,0)" xlink:href="#aN"/>
                <use transform="matrix(0.007595486111111112,0,0,0.007595486111111112,37.103949652777786,0)" xlink:href="#aM"/>
                <use transform="matrix(0.007595486111111112,0,0,0.007595486111111112,41.85112847222223,0)" xlink:href="#aU"/>
                <use transform="matrix(0.007595486111111112,0,0,0.007595486111111112,52.074652777777786,0)" xlink:href="#aW"/>
            </g>
            <path fill="#fff"
                  d="M1268-424c0 285-235 424-537 424H184v-1462c456 17 1047-96 1047 370 0 167-86 294-225 316v10c175 38 262 140 262 342zm-355-627c0-133-104-157-256-157H494v325h180c151-2 239-31 239-168zM696-256c158 0 250-52 250-199 0-121-87-182-260-182H494v381h202"
                  id="bs"/>
            <g id="ar">
                <use transform="matrix(0.007595486111111112,0,0,0.007595486111111112,0,0)" xlink:href="#bs"/>
                <use transform="matrix(0.007595486111111112,0,0,0.007595486111111112,10.45138888888889,0)" xlink:href="#bd"/>
                <use transform="matrix(0.007595486111111112,0,0,0.007595486111111112,20.674913194444446,0)" xlink:href="#aM"/>
                <use transform="matrix(0.007595486111111112,0,0,0.007595486111111112,25.422092013888893,0)" xlink:href="#aP"/>
                <use transform="matrix(0.007595486111111112,0,0,0.007595486111111112,30.169270833333336,0)" xlink:href="#aR"/>
            </g>
            <use transform="matrix(0.007595486111111112,0,0,0.007595486111111112,0,0)" xlink:href="#aO" id="as"/>
            <path fill="#fff" d="M453-608l133-170 313-340h344L799-633 1270 0H918L596-453 465-348V0H160v-1556h305v694l-16 254h4" id="bt"/>
            <g id="at">
                <use transform="matrix(0.007595486111111112,0,0,0.007595486111111112,0,0)" xlink:href="#aL"/>
                <use transform="matrix(0.007595486111111112,0,0,0.007595486111111112,7.732204861111112,0)" xlink:href="#aU"/>
                <use transform="matrix(0.007595486111111112,0,0,0.007595486111111112,17.955729166666668,0)" xlink:href="#aJ"/>
                <use transform="matrix(0.007595486111111112,0,0,0.007595486111111112,27.275390625,0)" xlink:href="#bl"/>
                <use transform="matrix(0.007595486111111112,0,0,0.007595486111111112,40.59027777777778,0)" xlink:href="#bc"/>
                <use transform="matrix(0.007595486111111112,0,0,0.007595486111111112,46.61349826388889,0)" xlink:href="#aP"/>
                <use transform="matrix(0.007595486111111112,0,0,0.007595486111111112,51.360677083333336,0)" xlink:href="#aO"/>
                <use transform="matrix(0.007595486111111112,0,0,0.007595486111111112,60.75629340277778,0)" xlink:href="#bt"/>
                <use transform="matrix(0.007595486111111112,0,0,0.007595486111111112,70.09114583333333,0)" xlink:href="#aK"/>
            </g>
        </defs>
    </g>
</svg>
