<?xml version="1.0" encoding="UTF-8"?>
<svg width="28px" height="20px" viewBox="0 0 28 20" version="1.1" xmlns="http://www.w3.org/2000/svg" xmlns:xlink="http://www.w3.org/1999/xlink">
    <!-- Generator: Sketch 55.2 (78181) - https://sketchapp.com -->
    <title>icon/flags/AI</title>
    <desc>Created with Sketch.</desc>
    <defs>
        <rect id="path-1" x="0" y="0" width="28" height="20" rx="2"></rect>
        <path d="M0,3.33333333 L0,0 L1.33333333,0.666666667 L2.66666667,0 L4,0.666666667 L5.33333333,0 L5.33333333,3.33333333 C5.33333333,5.33333333 2.66666667,6.66666667 2.66666667,6.66666667 C2.66666667,6.66666667 0,5.33333333 0,3.33333333 Z" id="path-3"></path>
        <linearGradient x1="50%" y1="0%" x2="50%" y2="100%" id="linearGradient-5">
            <stop stop-color="#FFA51B" offset="0%"></stop>
            <stop stop-color="#FF9A00" offset="100%"></stop>
        </linearGradient>
    </defs>
    <g id="icon/flags/AI" stroke="none" stroke-width="1" fill="none" fill-rule="evenodd">
        <g id="ic_flags/AI">
            <mask id="mask-2" fill="white">
                <use xlink:href="#path-1"></use>
            </mask>
            <use id="Mask" fill="#FFFFFF" xlink:href="#path-1"></use>
            <rect id="Mask-Copy" fill="#0A17A7" mask="url(#mask-2)" x="0" y="0" width="28" height="20"></rect>
            <g id="Rectangle-1105" mask="url(#mask-2)">
                <g transform="translate(17.333333, 6.666667)">
                    <mask id="mask-4" fill="white">
                        <use xlink:href="#path-3"></use>
                    </mask>
                    <use id="Mask" stroke="none" fill="#FFFFFF" fill-rule="evenodd" xlink:href="#path-3"></use>
                    <rect id="Rectangle-1106" stroke="none" fill="#9ACCFF" fill-rule="evenodd" mask="url(#mask-4)" x="0" y="5.33333333" width="5.33333333" height="1.33333333"></rect>
                    <path d="M2.66666667,2.66666667 C2.29847683,2.66666667 2,2.36818983 2,2 C2,1.63181017 2.29847683,1.33333333 2.66666667,1.33333333 C3.0348565,1.33333333 3.33333333,1.63181017 3.33333333,2 C3.33333333,2.36818983 3.0348565,2.66666667 2.66666667,2.66666667 Z M1.33333333,4 C0.9651435,4 0.666666667,3.70152317 0.666666667,3.33333333 C0.666666667,2.9651435 0.9651435,2.66666667 1.33333333,2.66666667 C1.70152317,2.66666667 2,2.9651435 2,3.33333333 C2,3.70152317 1.70152317,4 1.33333333,4 Z M4,4 C3.63181017,4 3.33333333,3.70152317 3.33333333,3.33333333 C3.33333333,2.9651435 3.63181017,2.66666667 4,2.66666667 C4.36818983,2.66666667 4.66666667,2.9651435 4.66666667,3.33333333 C4.66666667,3.70152317 4.36818983,4 4,4 Z" id="Oval-170" stroke="none" fill="url(#linearGradient-5)" fill-rule="evenodd" mask="url(#mask-4)"></path>
                </g>
            </g>
            <path d="M4.33333333,4.15331164 L-0.901085803,-0.333333333 L0.666666667,-0.333333333 L0.860412731,-0.27124449 L5.44015502,3 L6.57106792,3 L12.3333333,-0.601415881 L12.3333333,0.333333333 C12.3333333,0.628978368 12.1628101,0.960008269 11.9158002,1.1364439 L7.66666667,4.1715393 L7.66666667,5.18002169 L11.9660302,8.86519043 C12.3427037,9.18805344 12.1509712,9.66666667 11.6666667,9.66666667 C11.4092185,9.66666667 11.0776031,9.56030345 10.8616414,9.40604508 L6.55984498,6.33333333 L5.42893208,6.33333333 L-0.333333333,9.93474921 L-0.333333333,8.49512737 L4.33333333,5.16179403 L4.33333333,4.15331164 Z" id="Rectangle-36" stroke="#FFFFFF" stroke-width="0.666666667" fill="#FF2E3B" mask="url(#mask-2)"></path>
            <path d="M0,3.33333333 L0,6 L4.66666667,6 L4.66666667,9.33948135 C4.66666667,9.70427573 4.97256724,10 5.33957926,10 L6.66042074,10 C7.0320601,10 7.33333333,9.69934988 7.33333333,9.33948135 L7.33333333,6 L11.9911963,6 C12.3642483,6 12.6666667,5.69409943 12.6666667,5.3270874 L12.6666667,4.00624593 C12.6666667,3.63460657 12.3646425,3.33333333 11.9911963,3.33333333 L7.33333333,3.33333333 L7.33333333,0 L4.66666667,0 L4.66666667,3.33333333 L0,3.33333333 Z" id="Rectangle-2" fill="#FFFFFF" mask="url(#mask-2)"></path>
            <polygon id="Rectangle-36" fill="#FF2E3B" mask="url(#mask-2)" points="0 4 5.33333333 4 5.33333333 3.33333333 5.33333333 0 6.66666667 0 6.66666667 3.33333333 6.66666667 4 12 4 12 5.33333333 6.66666667 5.33333333 6.66666667 6 6.66666667 9.33333333 5.33333333 9.33333333 5.33333333 6 5.33333333 5.33333333 0 5.33333333"></polygon>
        </g>
    </g>
</svg>