<?xml version="1.0" encoding="UTF-8"?>
<svg width="28px" height="20px" viewBox="0 0 28 20" version="1.1" xmlns="http://www.w3.org/2000/svg" xmlns:xlink="http://www.w3.org/1999/xlink">
    <!-- Generator: Sketch 55.2 (78181) - https://sketchapp.com -->
    <title>icon/flags/AZ</title>
    <desc>Created with Sketch.</desc>
    <defs>
        <rect id="path-1" x="0" y="0" width="28" height="20" rx="2"></rect>
        <path d="M15.1114252,8.33699899 C15.0745975,8.33456805 15.037443,8.33333333 15,8.33333333 C14.0795254,8.33333333 13.3333333,9.07952542 13.3333333,10 C13.3333333,10.9204746 14.0795254,11.6666667 15,11.6666667 C15.037443,11.6666667 15.0745975,11.6654319 15.1114252,11.663001 C14.7935634,11.8758579 14.4112792,12 14,12 C12.8954305,12 12,11.1045695 12,10 C12,8.8954305 12.8954305,8 14,8 C14.4112792,8 14.7935634,8.12414214 15.1114252,8.33699899 Z M15.3333333,10.6666667 C14.9651435,10.6666667 14.6666667,10.3681898 14.6666667,10 C14.6666667,9.63181017 14.9651435,9.33333333 15.3333333,9.33333333 C15.7015232,9.33333333 16,9.63181017 16,10 C16,10.3681898 15.7015232,10.6666667 15.3333333,10.6666667 Z" id="path-3"></path>
        <filter x="-12.5%" y="-12.5%" width="125.0%" height="150.0%" filterUnits="objectBoundingBox" id="filter-4">
            <feOffset dx="0" dy="1" in="SourceAlpha" result="shadowOffsetOuter1"></feOffset>
            <feColorMatrix values="0 0 0 0 0   0 0 0 0 0   0 0 0 0 0  0 0 0 0.06 0" type="matrix" in="shadowOffsetOuter1"></feColorMatrix>
        </filter>
    </defs>
    <g id="icon/flags/AZ" stroke="none" stroke-width="1" fill="none" fill-rule="evenodd">
        <g id="ic_flags/AZ">
            <mask id="mask-2" fill="white">
                <use xlink:href="#path-1"></use>
            </mask>
            <use id="Mask" fill="#FFFFFF" xlink:href="#path-1"></use>
            <rect id="Rectangle-2" fill="#24AAD5" mask="url(#mask-2)" x="0" y="0" width="28" height="6.66666667"></rect>
            <rect id="Rectangle-2" fill="#21BF75" mask="url(#mask-2)" x="0" y="13.3333333" width="28" height="6.66666667"></rect>
            <rect id="Rectangle-2" fill="#ED1845" mask="url(#mask-2)" x="0" y="6.66666667" width="28" height="6.66666667"></rect>
            <g id="Oval-68" mask="url(#mask-2)">
                <use fill="black" fill-opacity="1" filter="url(#filter-4)" xlink:href="#path-3"></use>
                <use fill="#FFFFFF" fill-rule="evenodd" xlink:href="#path-3"></use>
            </g>
        </g>
    </g>
</svg>