<?xml version="1.0" encoding="utf-8"?>
<!-- Generator: Adobe Illustrator 23.0.3, SVG Export Plug-In . SVG Version: 6.00 Build 0)  -->
<svg width="28px" height="20px" version="1.1" id="Ebene_1" xmlns="http://www.w3.org/2000/svg" xmlns:xlink="http://www.w3.org/1999/xlink" x="0px" y="0px"
	 viewBox="0 0 28 20" style="enable-background:new 0 0 28 20;" xml:space="preserve">
<style type="text/css">
	.st0{fill:#FFFFFF;}
	.st1{filter:url(#Adobe_OpacityMaskFilter);}
	.st2{fill-rule:evenodd;clip-rule:evenodd;fill:#FFFFFF;}
	.st3{mask:url(#mask-2_1_);fill-rule:evenodd;clip-rule:evenodd;fill:#E7243B;}
</style>
<title>icon/flags/BH</title>
<desc>Created with Sketch.</desc>
<g>
	<g>
		<path class="st0" d="M2,0H26c1.1,0,2,0.9,2,2.1v15.9c0,1.1-0.9,2.1-2,2.1H2c-1.1,0-2-0.9-2-2.1V2.1C0,0.9,0.9,0,2,0z"/>
		<defs>
			<filter id="Adobe_OpacityMaskFilter" filterUnits="userSpaceOnUse" x="8" y="0" width="20" height="20">
				<feColorMatrix  type="matrix" values="1 0 0 0 0  0 1 0 0 0  0 0 1 0 0  0 0 0 1 0"/>
			</filter>
		</defs>
		<mask maskUnits="userSpaceOnUse" x="8" y="0" width="20" height="20" id="mask-2_1_">
			<g class="st1">
				<path id="path-1_1_" class="st2" d="M2,0h24c1.1,0,2,0.9,2,2v16c0,1.1-0.9,2-2,2H2c-1.1,0-2-0.9-2-2V2C0,0.9,0.9,0,2,0z"/>
			</g>
		</mask>
		<path id="Combined-Shape" class="st3" d="M8,0h20v20H10l-2-1.3l2-1.3L8,16l2-1.3l-2-1.3l2-1.3l-2-1.3l2-1.3L8,8l2-1.3L8,5.3L10,4
			L8,2.7l2-1.3L8,0z"/>
	</g>
</g>
</svg>
