<?xml version="1.0" encoding="UTF-8"?>
<svg width="28px" height="20px" viewBox="0 0 28 20" version="1.1" xmlns="http://www.w3.org/2000/svg" xmlns:xlink="http://www.w3.org/1999/xlink">
    <!-- Generator: Sketch 55.2 (78181) - https://sketchapp.com -->
    <title>icon/flags/BI</title>
    <desc>Created with Sketch.</desc>
    <defs>
        <rect id="path-1" x="0" y="0" width="28" height="20" rx="2"></rect>
    </defs>
    <g id="icon/flags/BI" stroke="none" stroke-width="1" fill="none" fill-rule="evenodd">
        <g id="ic_flags/BI">
            <mask id="mask-2" fill="white">
                <use xlink:href="#path-1"></use>
            </mask>
            <use id="Mask" fill="#FFFFFF" xlink:href="#path-1"></use>
            <rect id="Mask-Copy" fill="#E4233B" mask="url(#mask-2)" x="0" y="0" width="28" height="20"></rect>
            <polygon id="Rectangle-253" fill="#34CD4E" mask="url(#mask-2)" points="0 0 12 10 0 20"></polygon>
            <polygon id="Rectangle-253" fill="#34CD4E" mask="url(#mask-2)" transform="translate(22.000000, 10.000000) scale(-1, 1) translate(-22.000000, -10.000000) " points="16 0 28 10 16 20"></polygon>
            <path d="M11.0379053,6.39375132 C11.843656,5.73115499 12.8753699,5.33333333 14,5.33333333 C15.1246301,5.33333333 16.156344,5.73115499 16.9620947,6.39375132 L29.2824692,-1.91644623 L30.7736503,0.29432063 L18.4542388,8.60386859 C18.5922709,9.0446966 18.6666667,9.51366027 18.6666667,10 C18.6666667,10.4863397 18.5922709,10.9553034 18.4542388,11.3961314 L30.7736503,19.7056794 L29.2824692,21.9164462 L16.9620947,13.6062487 C16.156344,14.268845 15.1246301,14.6666667 14,14.6666667 C12.8753699,14.6666667 11.843656,14.268845 11.0379053,13.6062487 L-1.2824692,21.9164462 L-2.77365027,19.7056794 L9.5457612,11.3961314 C9.40772915,10.9553034 9.33333333,10.4863397 9.33333333,10 C9.33333333,9.51366027 9.40772915,9.0446966 9.5457612,8.60386859 L-2.77365027,0.29432063 L-1.2824692,-1.91644623 L11.0379053,6.39375132 Z" id="Rectangle-2" fill="#FFFFFF" mask="url(#mask-2)"></path>
            <path d="M14,8.66666667 L13.057191,8.94280904 L13.3333333,8 L13.057191,7.05719096 L14,7.33333333 L14.942809,7.05719096 L14.6666667,8 L14.942809,8.94280904 L14,8.66666667 Z M12,12 L11.057191,12.2761424 L11.3333333,11.3333333 L11.057191,10.3905243 L12,10.6666667 L12.942809,10.3905243 L12.6666667,11.3333333 L12.942809,12.2761424 L12,12 Z M16,12 L15.057191,12.2761424 L15.3333333,11.3333333 L15.057191,10.3905243 L16,10.6666667 L16.942809,10.3905243 L16.6666667,11.3333333 L16.942809,12.2761424 L16,12 Z" id="Star-2" fill="#DF2239" mask="url(#mask-2)"></path>
        </g>
    </g>
</svg>