<?xml version="1.0" encoding="UTF-8"?>
<svg width="28px" height="20px" viewBox="0 0 28 20" version="1.1" xmlns="http://www.w3.org/2000/svg" xmlns:xlink="http://www.w3.org/1999/xlink">
    <!-- Generator: Sketch 55.2 (78181) - https://sketchapp.com -->
    <title>icon/flags/CAS</title>
    <desc>Created with Sketch.</desc>
    <defs>
        <rect id="path-1" x="0" y="0" width="28" height="20" rx="2"></rect>
    </defs>
    <g id="icon/flags/CAS" stroke="none" stroke-width="1" fill="none" fill-rule="evenodd">
        <g id="ic_flags/CAS">
            <mask id="mask-2" fill="white">
                <use xlink:href="#path-1"></use>
            </mask>
            <use id="Mask" fill="#FFFFFF" xlink:href="#path-1"></use>
            <rect id="Mask-Copy" fill="#4499FC" mask="url(#mask-2)" x="0" y="0" width="28" height="20"></rect>
            <path d="M5.63923391,8.8196169 C5.47028969,8.73514479 5.39969317,8.53394694 5.48128827,8.37075674 L5.85204506,7.62924318 C5.93375832,7.46581666 5.95205498,7.18949823 5.89583333,7.0208333 L5.4375,5.64583333 C5.37997034,5.47324435 5.46605301,5.39969317 5.62924322,5.48128827 L6.3707568,5.85204504 C6.53418331,5.9337583 6.81003826,5.96415709 6.99365236,5.91825356 L9.00634766,5.41507975 C9.18693686,5.36993245 9.47670491,5.29749044 9.66031901,5.25158691 L11.6730143,4.74841309 C11.8536035,4.70326579 12.1075287,4.55913798 12.2294254,4.43724124 L13.7705746,2.8960921 C13.8972827,2.76938393 14.1432292,2.66666667 14.3317992,2.66666667 L17.0015341,2.66666667 C17.1847818,2.66666667 17.3333333,2.80935669 17.3333333,3.00312297 L17.3333333,3.6635437 C17.3333333,3.84936338 17.2291667,4.10416667 17.0926514,4.24068197 L16.9073486,4.4259847 C16.7744236,4.55890968 16.8198338,4.68059095 17.0008206,4.69704429 L23.6658461,5.30295571 C23.8503942,5.31973281 23.9336402,5.46605301 23.8520451,5.62924322 L23.4812883,6.37075679 C23.399575,6.5341833 23.1763967,6.66666667 23.003074,6.66666667 L21.6635927,6.66666667 C21.4811955,6.66666667 21.2287089,6.7712911 21.1010844,6.89891561 L20.2322489,7.76775106 C20.1039814,7.89601861 20.1438351,8.04794502 20.3125,8.10416667 L21.6875,8.5625 C21.860089,8.62002966 22.0663598,8.79938634 22.1479549,8.96257655 L22.5187117,9.70409012 C22.600425,9.86751663 22.533947,10.0663598 22.3707568,10.1479549 L21.6292432,10.5187117 C21.4658167,10.600425 21.3996932,10.7993863 21.4812883,10.9625765 L21.8520451,11.7040901 C21.9337583,11.8675166 21.8453776,12 21.6666667,12 C21.4825717,12 21.2669735,11.8672803 21.1853784,11.7040901 L20.8146216,10.9625765 C20.7329083,10.79915 20.5620422,10.771291 20.4344177,10.8989156 L19.5655823,11.767751 C19.4373147,11.8960186 19.4375,12.1041666 19.5740153,12.2406819 L19.759318,12.4259847 C19.892243,12.5589096 20,12.8093566 20,13.0031229 L20,13.6635437 C20,13.8493633 19.8672803,14.0663598 19.7040901,14.1479549 L18.9625765,14.5187117 C18.79915,14.6004249 18.5239766,14.6666666 18.3302104,14.6666666 L17.6697896,14.6666666 C17.4839699,14.6666666 17.2291667,14.7708333 17.0926514,14.9073486 L16.9073486,15.0926513 C16.7744236,15.2255763 16.7708333,15.4375 16.9073486,15.5740153 L17.0926514,15.759318 C17.2255763,15.892243 17.3333333,16.14269 17.3333333,16.3364564 L17.3333333,16.9968775 C17.3333333,17.1826972 17.2006137,17.2669741 17.0374234,17.185379 L16.2959099,16.8146222 C16.1324834,16.7329089 15.8953756,16.5620428 15.7677511,16.4344182 L14.8989156,15.5655823 C14.7706481,15.4373147 14.6003068,15.2006136 14.5187117,15.0374234 L14.1479549,14.2959098 C14.0662417,14.1324833 13.9427083,14.1432291 13.8769531,14.3076172 L12.7897135,17.0257167 C12.7217566,17.195609 12.5120443,17.3333339 12.3333333,17.3333339 C12.1492384,17.3333339 11.9125163,17.2021083 11.8146057,17.0552424 L10.852061,15.6114248 C10.7496705,15.4578391 10.6666667,15.1906433 10.6666667,14.996877 L10.6666667,14.3364562 C10.6666667,14.1506366 10.5232951,13.9641571 10.339681,13.9182535 L8.32698567,13.4150797 C8.14639647,13.3699324 8,13.4879557 8,13.6666666 C8,13.8507615 8.13271967,14.0663598 8.29590988,14.1479549 L9.03742345,14.5187117 C9.20084996,14.6004249 9.22916666,14.7708332 9.09265136,14.9073484 L8.90734863,15.0926509 C8.77442365,15.2255758 8.56204223,15.4379572 8.43441772,15.5655818 L7.56558227,16.4344176 C7.43731472,16.5626852 7.20061366,16.6003068 7.03742345,16.5187117 L6.29590988,16.1479549 C6.13248336,16.0662417 5.95205497,15.8561649 5.89583333,15.6875 L5.4375,14.3125 C5.37997034,14.139911 5.33333333,13.8453776 5.33333333,13.6666666 C5.33333333,13.4825717 5.4375,13.2291666 5.5740153,13.0926513 L5.75931803,12.9073486 C5.89224301,12.7744236 5.85616493,12.6187216 5.6875,12.5625 L4.3125,12.1041667 C4.13991101,12.046637 4,11.85731 4,11.6635437 L4,11.003123 C4,10.8173033 4.15693665,10.6666667 4.33025932,10.6666667 L5.66974068,10.6666667 C5.85213786,10.6666667 6.13271968,10.7330265 6.2959099,10.8146216 L7.03742351,11.1853784 C7.20085003,11.2670916 7.39969325,11.2006136 7.48128835,11.0374234 L7.85204514,10.2959098 C7.93375839,10.1324833 7.8713812,9.93569051 7.69409949,9.84704966 L5.63923391,8.8196169 Z M14,17.3333333 C13.6318102,17.3333333 13.3333333,17.0348565 13.3333333,16.6666667 C13.3333333,16.2984768 13.6318102,16 14,16 C14.3681898,16 14.6666667,16.2984768 14.6666667,16.6666667 C14.6666667,17.0348565 14.3681898,17.3333333 14,17.3333333 Z M10,10.6666667 C10.3681898,10.6666667 10.6666667,10.3681898 10.6666667,10 C10.6666667,9.63181017 10.3681898,9.33333333 10,9.33333333 C9.63181017,9.33333333 9.33333333,9.63181017 9.33333333,10 C9.33333333,10.3681898 9.63181017,10.6666667 10,10.6666667 Z M22.6666667,13.3333333 L22.6666667,12.3364563 C22.6666667,12.1506366 22.8093567,12 23.003123,12 L23.6635437,12 C23.8493634,12 23.8672803,12.0663598 23.7040901,12.1479549 L22.6666666,12.6666667 L23.3333334,13.3333333 L22.8146216,14.3707568 C22.7329084,14.5341833 22.5239766,14.6666667 22.3302104,14.6666667 L21.6697896,14.6666667 C21.4839699,14.6666667 21.4379578,14.5620422 21.5655823,14.4344177 L22.6666667,13.3333333 Z" id="Rectangle-1078" fill="#FFFFFF" mask="url(#mask-2)"></path>
        </g>
    </g>
</svg>