<?xml version="1.0" encoding="UTF-8"?>
<svg width="28px" height="20px" viewBox="0 0 28 20" version="1.1" xmlns="http://www.w3.org/2000/svg" xmlns:xlink="http://www.w3.org/1999/xlink">
    <!-- Generator: Sketch 55.2 (78181) - https://sketchapp.com -->
    <title>icon/flags/CEU</title>
    <desc>Created with Sketch.</desc>
    <defs>
        <rect id="path-1" x="0" y="0" width="28" height="20" rx="2"></rect>
    </defs>
    <g id="icon/flags/CEU" stroke="none" stroke-width="1" fill="none" fill-rule="evenodd">
        <g id="ic_flags/CEU">
            <mask id="mask-2" fill="white">
                <use xlink:href="#path-1"></use>
            </mask>
            <use id="Mask" fill="#FFFFFF" xlink:href="#path-1"></use>
            <rect id="Mask-Copy" fill="#4499FC" mask="url(#mask-2)" x="0" y="0" width="28" height="20"></rect>
            <path d="M17.5655823,17.7677511 C17.4373147,17.8960186 17.2287089,17.8953756 17.1010844,17.7677511 L16.232249,16.8989156 C16.1039814,16.7706481 15.952055,16.5228316 15.8958333,16.3541667 L15.4375,14.9791667 C15.3799704,14.8065777 15.1787109,14.6666667 15,14.6666667 C14.8159051,14.6666667 14.7025096,14.8100382 14.7484131,14.9936523 L15.2515869,17.0063476 C15.2967342,17.1869369 15.2291667,17.4375 15.0926514,17.5740153 L14.9073486,17.759318 C14.7744237,17.892243 14.5625,17.8958333 14.4259847,17.759318 L14.240682,17.5740153 C14.107757,17.4410903 14,17.1906433 14,16.996877 L14,16.3364563 C14,16.1506366 13.9336402,15.8672803 13.8520451,15.7040901 L13.4812883,14.9625765 C13.399575,14.79915 13.1763967,14.6666667 13.003074,14.6666667 L11.6635927,14.6666667 C11.4811955,14.6666667 11.2006137,14.7330265 11.0374235,14.8146216 L10.2959099,15.1853784 C10.1324834,15.2670916 9.95205499,15.4771684 9.89583335,15.6458333 L9.43750001,17.0208333 C9.37997035,17.1934223 9.20061367,17.3996932 9.03742346,17.4812883 L8.29590989,17.8520451 C8.13248338,17.9337583 7.86728034,17.9336402 7.70409013,17.8520451 L6.96257656,17.4812883 C6.79915005,17.399575 6.66666668,17.1899617 6.66666668,17.0063476 L6.66666668,14.9936523 C6.66666668,14.8130631 6.82360332,14.6666667 6.996926,14.6666667 L8.33640736,14.6666667 C8.51880454,14.6666667 8.66666668,14.5239766 8.66666668,14.3302104 L8.66666668,13.6697896 C8.66666668,13.4839699 8.7146117,13.1894983 8.77083335,13.0208333 L9.22916668,11.6458333 C9.28669634,11.4732443 9.47602337,11.3333333 9.66978964,11.3333333 L10.3302104,11.3333333 C10.5160301,11.3333333 10.7993864,11.2669735 10.9625766,11.1853784 L11.7040901,10.8146216 C11.8675166,10.7329083 12.14269,10.6666667 12.3364563,10.6666667 L12.9968771,10.6666667 C13.1826968,10.6666667 13.3333335,10.5120443 13.3333335,10.3333333 C13.3333335,10.1492384 13.4375001,9.89583333 13.5740154,9.75931803 L13.7593182,9.57401529 C13.8922431,9.44109031 14.06636,9.466053 14.147955,9.62924321 L14.5187118,10.3707568 C14.600425,10.5341833 14.8236033,10.6666667 14.996926,10.6666667 L16.3364073,10.6666667 C16.5188045,10.6666667 16.7146117,10.5228316 16.7708333,10.3541667 L17.2291667,8.97916666 C17.2866963,8.80657767 17.4760234,8.66666666 17.6697896,8.66666666 L18.3302104,8.66666666 C18.51603,8.66666666 18.6666667,8.51204426 18.6666667,8.33333333 C18.6666667,8.14923841 18.5239766,7.99999999 18.3302104,7.99999999 L17.6697896,7.99999999 C17.4839699,7.99999999 17.3333333,7.85730997 17.3333333,7.66354369 L17.3333333,7.00312296 C17.3333333,6.81730328 17.3996932,6.53394698 17.4812883,6.37075678 L17.8520451,5.62924321 C17.9337583,5.46581669 17.8958333,5.22916666 17.759318,5.09265136 L17.5740153,4.90734863 C17.4410903,4.77442365 17.2287089,4.77129109 17.1010844,4.8989156 L16.2322491,5.76775105 C16.1039815,5.8960186 16.0000001,6.14269002 16.0000001,6.33645629 L16.0000001,6.99687703 C16.0000001,7.18269671 15.9520551,7.47716839 15.8958335,7.64583333 L15.4375001,9.02083333 C15.3799705,9.19342231 15.1787111,9.33333333 15.0000001,9.33333333 C14.8159052,9.33333333 14.5625001,9.22916666 14.4259848,9.09265136 L14.2406821,8.90734863 C14.1077571,8.77442365 14.0000001,8.51204426 14.0000001,8.33333333 C14,8.14923841 13.8672803,8.06635983 13.7040901,8.14795493 L12.9625766,8.51871172 C12.79915,8.60042498 12.5625,8.56249999 12.4259848,8.42598469 L12.2406821,8.24068195 C12.1077571,8.10775697 12.0000001,7.85730996 12.0000001,7.66354369 L12.0000001,7.00312296 C12.0000001,6.81730327 12.1046246,6.56204223 12.2322491,6.43441771 L13.1010845,5.56558223 C13.229352,5.43731468 13.4408621,5.2258046 13.5627589,5.10390786 L15.1039079,3.56275875 C15.2306161,3.43605059 15.4771684,3.2853883 15.6458333,3.22916666 L17.0208332,2.77083333 C17.1934222,2.71330366 17.4760232,2.66666666 17.6697895,2.66666666 L18.3302103,2.66666666 C18.51603,2.66666666 18.7330265,2.79938633 18.8146216,2.96257654 L19.1853784,3.70409011 C19.2670917,3.86751663 19.3333333,4.15693664 19.3333333,4.33025932 L19.3333333,5.66974067 C19.3333333,5.85213786 19.4375,6.10416666 19.5740153,6.24068196 L19.759318,6.42598469 C19.892243,6.55890967 19.952055,6.81050173 19.8958333,6.97916666 L19.4375,8.35416666 C19.3799704,8.52675564 19.4645589,8.75415038 19.6114248,8.85206095 L21.0552419,9.81460571 C21.2088276,9.91699614 21.466053,10.0663598 21.6292432,10.1479549 L22.3707568,10.5187117 C22.5341833,10.600425 22.579183,10.7978922 22.4812724,10.9447581 L21.5187276,12.3885752 C21.4163372,12.5421609 21.3333333,12.8236033 21.3333333,12.996926 L21.3333333,14.3364073 C21.3333333,14.5188045 21.1894983,14.7146117 21.0208333,14.7708333 L19.6458333,15.2291667 C19.4732444,15.2866963 19.2669735,15.466053 19.1853784,15.6292432 L18.8146216,16.3707568 C18.7329084,16.5341833 18.5620422,16.7712911 18.4344177,16.8989156 L17.5655823,17.7677511 Z M11.3333333,17.3333333 C10.9651435,17.3333333 10.6666667,17.0348565 10.6666667,16.6666667 C10.6666667,16.2984768 10.9651435,16 11.3333333,16 C11.7015232,16 12,16.2984768 12,16.6666667 C12,17.0348565 11.7015232,17.3333333 11.3333333,17.3333333 Z M8.66666667,9.33333333 C8.29847683,9.33333333 8,9.0348565 8,8.66666667 C8,8.29847683 8.29847683,8 8.66666667,8 C9.0348565,8 9.33333333,8.29847683 9.33333333,8.66666667 C9.33333333,9.0348565 9.0348565,9.33333333 8.66666667,9.33333333 Z" id="Rectangle-1073" fill="#FFFFFF" mask="url(#mask-2)"></path>
            <path d="M9.85204506,8.96257655 C9.93375832,8.79915003 10,8.51204427 10,8.33333333 L10,8.33333333 C10,8.14923842 9.93364016,7.86728032 9.85204506,7.70409012 L9.48128827,6.96257655 C9.39957502,6.79915003 9.47602336,6.66666667 9.66978963,6.66666667 L10.3302104,6.66666667 C10.5160301,6.66666667 10.6666667,6.82360331 10.6666667,6.99692599 L10.6666667,8.33640734 C10.6666667,8.51880453 10.7330265,8.79938634 10.8146216,8.96257655 L11.1853784,9.70409012 C11.2670916,9.86751663 11.1763967,10 11.003074,10 L9.66359266,10 C9.48119547,10 9.39969317,9.86728032 9.48128827,9.70409012 L9.85204506,8.96257655 Z" id="Rectangle-1078" fill="#FFFFFF" mask="url(#mask-2)"></path>
        </g>
    </g>
</svg>