<?xml version="1.0" encoding="UTF-8"?>
<svg width="28px" height="20px" viewBox="0 0 28 20" version="1.1" xmlns="http://www.w3.org/2000/svg" xmlns:xlink="http://www.w3.org/1999/xlink">
    <!-- Generator: Sketch 55.2 (78181) - https://sketchapp.com -->
    <title>icon/flags/CNA</title>
    <desc>Created with Sketch.</desc>
    <defs>
        <rect id="path-1" x="0" y="0" width="28" height="20" rx="2"></rect>
    </defs>
    <g id="icon/flags/CNA" stroke="none" stroke-width="1" fill="none" fill-rule="evenodd">
        <g id="ic_flags/CNA">
            <mask id="mask-2" fill="white">
                <use xlink:href="#path-1"></use>
            </mask>
            <use id="Mask" fill="#FFFFFF" xlink:href="#path-1"></use>
            <rect id="Mask-Copy" fill="#4499FC" mask="url(#mask-2)" x="0" y="0" width="28" height="20"></rect>
            <path d="M13.4812883,14.9625765 C13.399575,14.79915 13.2669735,14.533947 13.1853784,14.3707568 L12.8146216,13.6292432 C12.7329084,13.4658167 12.5120443,13.3333333 12.3333333,13.3333333 L12.3333333,13.3333333 C12.1492384,13.3333333 11.8987198,13.2320531 11.7633511,13.0966844 L9.56998221,10.9033155 C9.43928464,10.772618 9.33333333,10.5239766 9.33333333,10.3302104 L9.33333333,9.66978962 C9.33333333,9.48396994 9.2287089,9.22870889 9.10108439,9.10108438 L8.23224894,8.23224893 C8.10398139,8.10398138 7.9641571,7.85662841 7.91825358,7.67301431 L7.41507975,5.660319 C7.36993245,5.4797298 7.18949827,5.2853883 7.02083333,5.22916666 L5.64583333,4.77083332 C5.47324435,4.71330366 5.20061366,4.60030682 5.03742345,4.51871172 L4.29590988,4.14795493 C4.13248337,4.06624167 4,3.85730997 4,3.66354369 L4,3.00312296 C4,2.81730327 4.14269002,2.66666666 4.3364563,2.66666666 L4.99687703,2.66666666 C5.18269672,2.66666666 5.4375,2.77083332 5.5740153,2.90734862 L5.75931803,3.09265136 C5.89224301,3.22557634 6.14269002,3.33333332 6.3364563,3.33333332 L6.99687703,3.33333332 C7.18269672,3.33333332 7.4375,3.22916666 7.5740153,3.09265136 L7.75931803,2.90734862 C7.89224301,2.77442364 8.14337158,2.66666666 8.32698568,2.66666666 L10.339681,2.66666666 C10.5202702,2.66666666 10.7993863,2.73302649 10.9625765,2.8146216 L11.7040901,3.18537838 C11.8675166,3.26709164 12.14269,3.33333332 12.3364563,3.33333332 L12.996877,3.33333332 C13.1826967,3.33333332 13.466053,3.26697349 13.6292432,3.18537838 L14.3707568,2.8146216 C14.5341833,2.73290834 14.8100382,2.66666666 14.9936523,2.66666666 L17.0063477,2.66666666 C17.1869369,2.66666666 17.3333333,2.80935668 17.3333333,3.00312296 L17.3333333,3.66354369 C17.3333333,3.84936337 17.1906433,3.99999999 16.996877,3.99999999 L16.3364563,4 C16.1506366,4 16,4.15693665 16,4.33025932 L16,5.66974068 C16,5.85213786 16.1327197,6.06635984 16.2959099,6.14795494 L17.0374235,6.51871173 C17.20085,6.60042498 17.3333333,6.50973002 17.3333333,6.33640734 L17.3333333,4.99692599 C17.3333333,4.8145288 17.49027,4.66666667 17.6635927,4.66666667 L19.003074,4.66666667 C19.1854712,4.66666667 19.3333333,4.82128906 19.3333333,5 L19.3333333,5 C19.3333333,5.18409492 19.49027,5.33333333 19.6635927,5.33333333 L21.003074,5.33333333 C21.1854712,5.33333333 21.3333333,5.47602336 21.3333333,5.66978963 L21.3333333,6.33021037 C21.3333333,6.51603005 21.2853883,6.81050173 21.2291667,6.97916667 L20.7708333,8.35416666 C20.7133037,8.52675564 20.559138,8.77419534 20.4372412,8.89609209 L18.8960921,10.4372412 C18.7693839,10.5639494 18.6003068,10.7993863 18.5187117,10.9625765 L18.1479549,11.7040901 C18.0662417,11.8675166 18,12.14269 18,12.3364563 L18,12.996877 C18,13.1826967 17.8453776,13.3333333 17.6666667,13.3333333 L17.6666667,13.3333333 C17.4825718,13.3333333 17.2669735,13.2006137 17.1853784,13.0374235 L16.8146216,12.2959099 C16.7329084,12.1324834 16.50973,12 16.3364073,12 L14.996926,12 C14.8145288,12 14.6003068,12.1327197 14.5187117,12.2959099 L14.1479549,13.0374234 C14.0662417,13.20085 14.0663598,13.466053 14.1479549,13.6292432 L14.5187117,14.3707568 C14.600425,14.5341833 14.8093567,14.6666667 15.003123,14.6666667 L15.6635437,14.6666667 C15.8493634,14.6666667 16.1046244,14.7712911 16.2322489,14.8989156 L17.1010844,15.767751 C17.2293519,15.8960186 17.3333333,16.14269 17.3333333,16.3364563 L17.3333333,16.996877 C17.3333333,17.1826967 17.1906433,17.3333333 16.996877,17.3333333 L16.3364563,17.3333333 C16.1506366,17.3333333 15.9336402,17.2006136 15.8520451,17.0374234 L15.4812883,16.2959099 C15.399575,16.1324834 15.1906433,16 14.996877,16 L14.3364563,16 C14.1506366,16 13.9336402,15.8672803 13.8520451,15.7040901 L13.4812883,14.9625765 Z" id="Rectangle-1064" fill="#FFFFFF" mask="url(#mask-2)"></path>
        </g>
    </g>
</svg>