<?xml version="1.0" encoding="utf-8"?>
<!-- Generator: Adobe Illustrator 23.0.3, SVG Export Plug-In . SVG Version: 6.00 Build 0)  -->
<svg width="28px" height="20px" version="1.1" id="Ebene_1" xmlns="http://www.w3.org/2000/svg" xmlns:xlink="http://www.w3.org/1999/xlink" x="0px" y="0px"
	 viewBox="0 0 28 20" style="enable-background:new 0 0 28 20;" xml:space="preserve">
<style type="text/css">
	.st0{fill:#FFFFFF;}
	.st1{filter:url(#Adobe_OpacityMaskFilter);}
	.st2{fill-rule:evenodd;clip-rule:evenodd;fill:#FFFFFF;}
	.st3{mask:url(#mask-2_1_);fill-rule:evenodd;clip-rule:evenodd;fill:#E7832C;}
	.st4{filter:url(#Adobe_OpacityMaskFilter_1_);}
	.st5{mask:url(#mask-2_2_);fill-rule:evenodd;clip-rule:evenodd;fill:#445128;}
	.st6{filter:url(#Adobe_OpacityMaskFilter_2_);}
	
		.st7{opacity:0.75;mask:url(#mask-2_3_);fill:none;stroke:#445128;stroke-width:1.3333;stroke-linecap:round;enable-background:new    ;}
	.st8{filter:url(#Adobe_OpacityMaskFilter_3_);}
	
		.st9{opacity:0.75;mask:url(#mask-2_4_);fill:none;stroke:#445128;stroke-width:1.3333;stroke-linecap:round;enable-background:new    ;}
</style>
<title>icon/flags/CY</title>
<desc>Created with Sketch.</desc>
<g>
	<g>
		<path class="st0" d="M2,0H26c1.1,0,2,0.9,2,2.1v15.9c0,1.1-0.9,2.1-2,2.1H2c-1.1,0-2-0.9-2-2.1V2.1C0,0.9,0.9,0,2,0z"/>
		<defs>
			<filter id="Adobe_OpacityMaskFilter" filterUnits="userSpaceOnUse" x="7.3" y="2.9" width="13.7" height="8.9">
				<feColorMatrix  type="matrix" values="1 0 0 0 0  0 1 0 0 0  0 0 1 0 0  0 0 0 1 0"/>
			</filter>
		</defs>
		<mask maskUnits="userSpaceOnUse" x="7.3" y="2.9" width="13.7" height="8.9" id="mask-2_1_">
			<g class="st1">
				<path id="path-1_1_" class="st2" d="M2,0h24c1.1,0,2,0.9,2,2v16c0,1.1-0.9,2-2,2H2c-1.1,0-2-0.9-2-2V2C0,0.9,0.9,0,2,0z"/>
			</g>
		</mask>
		<path id="Line" class="st3" d="M20.7,3c0.3-0.2,0.4-0.1,0.2,0.2l-0.6,0.9c-0.2,0.3-0.6,0.7-0.9,0.9l-0.9,0.6
			c-0.3,0.2-0.8,0.6-1,0.8l0.3-0.3c-0.3,0.3-0.3,0.7,0,0.9l0.4,0.4c0.3,0.3,0.3,0.7,0,0.9l-0.4,0.4c-0.3,0.3-0.7,0.3-1.1,0.2L16.6,9
			c-0.3-0.2-0.7,0-0.9,0.3l-0.1,0.1c-0.2,0.3-0.6,0.7-0.9,0.8L14,10.5c-0.3,0.1-0.9,0.2-1.3,0.2l0,0c-0.4,0-0.8,0.3-1,0.6l-0.1,0.1
			c-0.2,0.3-0.6,0.5-0.9,0.3L9.3,11c-0.3-0.2-0.8-0.5-1.1-0.8L7.8,9.8C7.5,9.5,7.3,9,7.3,8.7l0,0C7.3,8.3,7.6,8,8,8H7.3
			c0.4,0,0.9-0.2,1.1-0.5l0.4-0.4C9.1,6.9,9.6,6.7,10,6.7l0,0c0.4,0,0.8-0.3,0.9-0.6l0.2-0.7c0.1-0.3,0.5-0.6,0.9-0.5l2,0.4
			c0.4,0.1,0.9,0.1,1.3,0l1.4-0.3c0.4-0.1,0.9-0.3,1.2-0.5l0.1-0.1c0.3-0.2,0.9-0.4,1.2-0.6l0.1-0.1c0.3-0.2,0.9-0.4,1.2-0.6L20.7,3
			z"/>
		<defs>
			<filter id="Adobe_OpacityMaskFilter_1_" filterUnits="userSpaceOnUse" x="13" y="14.3" width="2" height="2">
				<feColorMatrix  type="matrix" values="1 0 0 0 0  0 1 0 0 0  0 0 1 0 0  0 0 0 1 0"/>
			</filter>
		</defs>
		<mask maskUnits="userSpaceOnUse" x="13" y="14.3" width="2" height="2" id="mask-2_2_">
			<g class="st4">
				<path id="path-1_2_" class="st2" d="M2,0h24c1.1,0,2,0.9,2,2v16c0,1.1-0.9,2-2,2H2c-1.1,0-2-0.9-2-2V2C0,0.9,0.9,0,2,0z"/>
			</g>
		</mask>
		<circle id="Oval-81" class="st5" cx="14" cy="15.3" r="1"/>
		<defs>
			<filter id="Adobe_OpacityMaskFilter_2_" filterUnits="userSpaceOnUse" x="15.3" y="12" width="4" height="3.3">
				<feColorMatrix  type="matrix" values="1 0 0 0 0  0 1 0 0 0  0 0 1 0 0  0 0 0 1 0"/>
			</filter>
		</defs>
		<mask maskUnits="userSpaceOnUse" x="15.3" y="12" width="4" height="3.3" id="mask-2_3_">
			<g class="st6">
				<path id="path-1_3_" class="st2" d="M2,0h24c1.1,0,2,0.9,2,2v16c0,1.1-0.9,2-2,2H2c-1.1,0-2-0.9-2-2V2C0,0.9,0.9,0,2,0z"/>
			</g>
		</mask>
		<path class="st7" d="M16,14.7c0,0,2-0.7,2.7-2"/>
		<defs>
			<filter id="Adobe_OpacityMaskFilter_3_" filterUnits="userSpaceOnUse" x="8.7" y="12" width="4" height="3.3">
				<feColorMatrix  type="matrix" values="1 0 0 0 0  0 1 0 0 0  0 0 1 0 0  0 0 0 1 0"/>
			</filter>
		</defs>
		<mask maskUnits="userSpaceOnUse" x="8.7" y="12" width="4" height="3.3" id="mask-2_4_">
			<g class="st8">
				<path id="path-1_4_" class="st2" d="M2,0h24c1.1,0,2,0.9,2,2v16c0,1.1-0.9,2-2,2H2c-1.1,0-2-0.9-2-2V2C0,0.9,0.9,0,2,0z"/>
			</g>
		</mask>
		<path class="st9" d="M12,14.7c0,0-2-0.7-2.7-2"/>
	</g>
</g>
</svg>
