<?xml version="1.0" encoding="UTF-8"?>
<svg width="28px" height="20px" viewBox="0 0 28 20" version="1.1" xmlns="http://www.w3.org/2000/svg" xmlns:xlink="http://www.w3.org/1999/xlink">
    <!-- Generator: Sketch 55.2 (78181) - https://sketchapp.com -->
    <title>icon/flags/FK</title>
    <desc>Created with Sketch.</desc>
    <defs>
        <rect id="path-1" x="0" y="0" width="28" height="20" rx="2"></rect>
        <path d="M0,4.66666667 L3.43775544e-17,1.33245595 C1.53913554e-17,0.59656085 0.591622194,0 1.33307666,0 L5.33359001,0 C6.06982792,0 6.66666667,0.587946256 6.66666667,1.33245595 L6.66666667,4.66666667 C6.66666667,8 3.33333333,9.33333333 3.33333333,9.33333333 C3.33333333,9.33333333 0,8 0,4.66666667 Z" id="path-3"></path>
        <path d="M0,4.66666667 L3.43775544e-17,1.33245595 C1.53913554e-17,0.59656085 0.591622194,0 1.33307666,0 L5.33359001,0 C6.06982792,0 6.66666667,0.587946256 6.66666667,1.33245595 L6.66666667,4.66666667 C6.66666667,8 3.33333333,9.33333333 3.33333333,9.33333333 C3.33333333,9.33333333 0,8 0,4.66666667 Z" id="path-5"></path>
    </defs>
    <g id="icon/flags/FK" stroke="none" stroke-width="1" fill="none" fill-rule="evenodd">
        <g id="ic_flags/FK">
            <mask id="mask-2" fill="white">
                <use xlink:href="#path-1"></use>
            </mask>
            <use id="Mask" fill="#FFFFFF" xlink:href="#path-1"></use>
            <rect id="Mask-Copy" fill="#07319C" mask="url(#mask-2)" x="0" y="0" width="28" height="20"></rect>
            <g id="Rectangle-1105" mask="url(#mask-2)">
                <g transform="translate(17.333333, 5.333333)">
                    <g id="Rectangle-1238" stroke="none" stroke-width="1" fill="none" fill-rule="evenodd">
                        <mask id="mask-4" fill="white">
                            <use xlink:href="#path-3"></use>
                        </mask>
                        <use id="Mask" fill="#0072C4" xlink:href="#path-3"></use>
                        <path d="M1.53580729,3.93436096 C0.85262045,4.62442734 2.19153817,4.53690604 2.19153817,4.53690604 L3.14515142,4.23157801 C3.14515142,4.23157801 3.57388374,4.28344731 3.86328123,4.37068683 C4.05498674,4.42847688 4.58846042,4.66666673 4.58846042,4.66666673 C4.58846042,4.66666673 5.71516919,4.44173655 5.31901034,3.93436092 C4.92285148,3.42698529 2.21899413,3.24429458 1.53580729,3.93436096 Z" id="Path-66" fill="#005121" mask="url(#mask-4)"></path>
                        <g id="Group-2" mask="url(#mask-4)">
                            <g transform="translate(1.000000, 1.333333)" id="Group">
                                <g transform="translate(0.066667, 0.000000)">
                                    <path d="M3.30992593,1.88419048 C3.33733333,1.87796825 3.40133333,1.87936508 3.42518519,1.90844444 C3.46266667,1.95390476 3.53940741,1.93879365 3.57688889,1.98260317 C3.61422222,2.02653968 3.65762963,2.06704762 3.65762963,2.12952381 C3.65762963,2.192 3.65037037,2.34692063 3.6517037,2.38095238 C3.65362963,2.43339683 3.66266667,2.44152381 3.71659259,2.44012698 C3.78162963,2.43847619 3.87140741,2.43339683 3.87422222,2.31695238 C3.87614815,2.23580952 3.79540741,2.18514286 3.77185185,1.89650794 C3.80725926,1.86615873 3.83881481,1.83911111 3.82696296,1.79873016 C3.81511111,1.75822222 3.89392593,1.73790476 3.88607407,1.67707937 C3.87807407,1.61638095 3.96474074,1.5791746 3.92933333,1.51174603 C3.89392593,1.44419048 3.97259259,1.44088889 3.94118519,1.38679365 C3.90962963,1.3328254 3.9922963,1.28546032 3.95688889,1.23834921 C3.92148148,1.19098413 4.00414815,1.1471746 3.96088889,1.08977778 C3.91748148,1.03238095 3.98444444,0.998603175 3.94118519,0.954666667 C3.96874074,0.910857143 3.94503704,0.785904762 3.85837037,0.715047619 C3.77185185,0.644063492 3.64977778,0.606984127 3.57881481,0.579936508 C3.44681481,0.529650794 3.20074074,0.552888889 3.02740741,0.573206349 C2.85407407,0.593396825 2.53111111,0.613714286 2.43259259,0.600253968 C2.33422222,0.586793651 2.10192593,0.573206349 1.91866667,0.603555556 C1.856,0.613968254 1.78474074,0.595174603 1.74740741,0.559746032 C1.71748148,0.531428571 1.70014815,0.53447619 1.67259259,0.536126984 C1.64503704,0.537777778 1.62918519,0.529269841 1.61540741,0.495492063 C1.59111111,0.436063492 1.53674074,0.476952381 1.51111111,0.402666667 C1.49392593,0.353015873 1.40459259,0.395936508 1.37718519,0.353777778 C1.34948148,0.311619048 1.31614815,0.306539683 1.24118519,0.311619048 C1.23733333,0.286222222 1.196,0.26768254 1.15851852,0.274412698 C1.16444444,0.232253968 1.12311111,0.19847619 1.05422222,0.200126984 C1.06207407,0.147809524 0.96562963,0.107301587 0.916296296,0.139428571 C0.884888889,0.100571429 0.821777778,0.108952381 0.806074074,0.139428571 C0.772592593,0.100571429 0.666222222,0.112380952 0.640592593,0.154539683 C0.595407407,0.129269841 0.507407407,0.191365079 0.514666667,0.289650794 C0.516592593,0.316698413 0.51837037,0.344761905 0.473185185,0.353777778 C0.388592593,0.370666667 0.339407407,0.465142857 0.26637037,0.478603175 C0.19362963,0.492190476 0.120740741,0.515809524 0.106962963,0.55631746 C0.0931851852,0.596825397 0.118814815,0.639111111 0.0912592593,0.659301587 C0.0637037037,0.679619048 0.108888889,0.69815873 0.122666667,0.708190476 C0.136444444,0.718349206 0.158074074,0.735238095 0.162074074,0.758857143 C0.167703704,0.792380952 0.222962963,0.802412698 0.280296296,0.765587302 C0.303851852,0.75047619 0.345185185,0.796063492 0.412148148,0.763936508 C0.479111111,0.731936508 0.574222222,0.748825397 0.557925926,0.801142857 C0.550074074,0.826412698 0.567703704,0.853460317 0.589481481,0.878730159 C0.611111111,0.904 0.643555556,0.98031746 0.624888889,1.02387302 C0.597333333,1.088 0.652444444,1.12355556 0.638666667,1.1808254 C0.624888889,1.23834921 0.646518519,1.29066667 0.617037037,1.36825397 C0.587407407,1.44584127 0.586962963,1.54298413 0.630814815,1.57079365 C0.691851852,1.60965079 0.654962963,1.68660317 0.707555556,1.71936508 C0.750814815,1.74628571 0.725333333,1.81219048 0.806074074,1.83238095 C0.886814815,1.85269841 0.839555556,1.90666667 0.924148148,1.91847619 C1.00888889,1.93028571 1.03837037,1.99111111 1.12696296,1.97752381 C1.1922963,1.96761905 1.22666667,1.98349206 1.26474074,1.99847619 C1.27259259,2.05257143 1.25511111,2.25104762 1.25111111,2.30171429 C1.24755556,2.34653968 1.22355556,2.41803175 1.22355556,2.46209524 C1.22355556,2.48901587 1.27866667,2.49574603 1.34177778,2.49574603 C1.40459259,2.49574603 1.4322963,2.47047619 1.41644444,2.39961905 C1.40074074,2.32863492 1.39688889,2.15580952 1.40088889,2.04774603 C1.45555556,2.07403175 1.50755556,2.11085714 1.50518519,2.15149206 C1.50118519,2.21726984 1.50222222,2.33536508 1.49125926,2.39619048 C1.48355556,2.44012698 1.49525926,2.50933333 1.49925926,2.55492063 C1.50325926,2.57168254 1.60948148,2.57003175 1.65288889,2.55492063 C1.69614815,2.53968254 1.69614815,2.4991746 1.69214815,2.3151746 C1.69022222,2.22412698 1.59362963,2.13104762 1.71585185,2.0855873 C1.77496296,2.06361905 1.85762963,2.01295238 1.88918519,1.96584127 C1.92059259,1.91847619 1.98962963,1.93701587 2.03881481,1.9607619 C2.088,1.98438095 2.16681481,2.02044444 2.21614815,2.00457143 C2.27911111,1.98438095 2.34607407,2.03492063 2.40118519,2.00457143 C2.4562963,1.97422222 2.52725926,2.02653968 2.57244444,1.98946032 C2.61777778,1.95225397 2.69659259,1.98768254 2.73007407,1.95225397 C2.76355556,1.9168254 2.90133333,1.97257143 2.95066667,1.92533333 C2.99985185,1.87796825 3.06681481,1.93879365 3.11214815,1.90336508 C3.124,1.89396825 3.13807407,1.89193651 3.15348148,1.89307937 C3.1517037,1.97295238 3.13674074,2.10006349 3.13377778,2.13968254 C3.13022222,2.18463492 3.10622222,2.256 3.10622222,2.29993651 C3.10622222,2.32698413 3.16133333,2.33371429 3.2242963,2.33371429 C3.28740741,2.33371429 3.31496296,2.30844444 3.29925926,2.2375873 C3.28340741,2.16673016 3.30607407,1.99238095 3.30992593,1.88419048" id="Fill-41" fill="#A3A3A3"></path>
                                    <path d="M0.123259259,0.653333333 C0.14962963,0.63415873 0.125185185,0.594285714 0.13837037,0.555936508 C0.151555556,0.517714286 0.221333333,0.495365079 0.291111111,0.482666667 C0.360888889,0.46984127 0.408,0.380571429 0.489185185,0.364571429 C0.532444444,0.356063492 0.530666667,0.32952381 0.528740741,0.304 C0.521925926,0.211174603 0.606074074,0.152507937 0.649481481,0.176507937 C0.673925926,0.136507937 0.775851852,0.125333333 0.807851852,0.162031746 C0.822962963,0.133333333 0.883259259,0.125333333 0.913481481,0.162031746 C0.960592593,0.131809524 1.05303704,0.170031746 1.04548148,0.219428571 C1.11155556,0.217904762 1.15111111,0.249777778 1.14548148,0.289650794 C1.18133333,0.283301587 1.22088889,0.300825397 1.22474074,0.324698413 C1.21866667,0.363936508 1.3082963,0.373968254 1.26681481,0.399365079 C1.23051852,0.421587302 1.196,0.412825397 1.15466667,0.38247619 C1.11333333,0.352 0.975407407,0.379047619 0.955703704,0.394285714 C0.936,0.40952381 0.91437037,0.416253968 0.898518519,0.404444444 C0.882814815,0.392634921 0.845481481,0.373968254 0.827703704,0.375746032 C0.809925926,0.377396825 0.772592593,0.377396825 0.750814815,0.341968254 C0.729185185,0.306539683 0.674074074,0.301460317 0.664296296,0.314920635 C0.654518519,0.328380952 0.685925926,0.377396825 0.717481481,0.395936508 C0.748888889,0.414603175 0.733185185,0.450031746 0.770666667,0.470222222 C0.795111111,0.483555556 0.772592593,0.529269841 0.758814815,0.55631746 C0.745037037,0.583365079 0.691851852,0.574857143 0.687851852,0.554666667 C0.684,0.53447619 0.670074074,0.520888889 0.638666667,0.551238095 C0.607111111,0.581714286 0.540296296,0.573206349 0.524444444,0.564825397 C0.508740741,0.55631746 0.465333333,0.541206349 0.435851852,0.549587302 C0.406222222,0.558095238 0.44962963,0.571555556 0.45362963,0.583365079 C0.457481481,0.595174603 0.406222222,0.600253968 0.376740741,0.600253968 C0.347259259,0.600253968 0.337333333,0.617015873 0.355111111,0.620444444 C0.372888889,0.623873016 0.44162963,0.627301587 0.469333333,0.613714286 C0.496888889,0.600253968 0.581481481,0.613714286 0.589481481,0.639111111 C0.597333333,0.664380952 0.540296296,0.674539683 0.506666667,0.671111111 C0.457185185,0.66615873 0.384592593,0.693079365 0.349185185,0.701460317 C0.313777778,0.709968254 0.219259259,0.688 0.181777778,0.69815873 C0.144444444,0.708190476 0.107555556,0.668444444 0.123259259,0.653333333" id="Fill-43" fill="#A3A3A3"></path>
                                    <path d="M0.756740741,0.860190476 C0.721333333,0.873650794 0.733185185,0.91415873 0.764740741,0.931047619 C0.796296296,0.947936508 0.867111111,0.954666667 0.912444444,0.946285714 C0.95762963,0.937777778 0.967555556,0.951365079 0.938074074,0.968253968 C0.908444444,0.985015873 0.983259259,0.988444444 0.977333333,1.01549206 C0.971555556,1.0424127 1.00488889,1.03733333 1.03644444,1.03568254 C1.068,1.03403175 1.10933333,1.01371429 1.14474074,0.995174603 C1.18014815,0.976634921 1.20577778,0.990095238 1.1722963,1.02222222 C1.13896296,1.05422222 1.02666667,1.09485714 0.938074074,1.08977778 C0.849333333,1.08469841 0.802074074,1.10488889 0.821777778,1.1335873 C0.841481481,1.16228571 0.936,1.16736508 0.985185185,1.15212698 C1.03451852,1.13701587 1.02666667,1.16406349 0.989185185,1.18247619 C0.951703704,1.20114286 0.898518519,1.20279365 0.853333333,1.20114286 C0.808,1.19949206 0.768592593,1.23834921 0.827703704,1.26019048 C0.886814815,1.28215873 0.96562963,1.26869841 0.995111111,1.2872381 C1.02474074,1.30577778 1.11525926,1.27707937 1.11718519,1.30920635 C1.11911111,1.34120635 1.09155556,1.35301587 1.03837037,1.34971429 C0.985185185,1.34628571 1.00088889,1.37028571 1.04044444,1.38336508 C1.07585185,1.39530159 1.13896296,1.39530159 1.1722963,1.39187302 C1.20577778,1.38857143 1.196,1.42222222 1.16251852,1.43403175 C1.12903704,1.44584127 1.02074074,1.46273016 0.967555556,1.46107937 C0.91437037,1.45942857 0.939851852,1.49320635 1.00888889,1.49320635 C1.21955556,1.49320635 1.29051852,1.39352381 1.3437037,1.32431746 C1.36977778,1.2904127 1.42044444,1.272 1.4322963,1.29231746 C1.44414815,1.31250794 1.44607407,1.3175873 1.42251852,1.33447619 C1.39881481,1.35136508 1.40459259,1.36152381 1.448,1.3631746 C1.49125926,1.3648254 1.55437037,1.35301587 1.59185185,1.34298413 C1.62918519,1.3328254 1.73940741,1.39669841 1.64888889,1.39860317 C1.48933333,1.40203175 1.29244444,1.45942857 1.22755556,1.48304762 C1.16251852,1.50666667 1.05407407,1.55111111 0.987259259,1.5488254 C0.938074074,1.5471746 0.918222222,1.56571429 0.938074074,1.58768254 C0.95762963,1.60965079 1.02074074,1.60965079 1.05614815,1.59949206 C1.09155556,1.58933333 1.09940741,1.59949206 1.07585185,1.61968254 C1.0522963,1.64 0.993185185,1.64838095 0.951703704,1.6552381 C0.910518519,1.66196825 0.890074074,1.68838095 0.922222222,1.69904762 C0.983259259,1.71936508 0.928148148,1.73790476 0.971555556,1.74806349 C1.01481481,1.75822222 0.967555556,1.79022222 1.01481481,1.80038095 C1.06207407,1.81053968 1.08962963,1.80546032 1.12503704,1.78184127 C1.16059259,1.75822222 1.18014815,1.74463492 1.21762963,1.74806349 C1.25511111,1.75149206 1.28074074,1.73447619 1.30237037,1.70920635 C1.324,1.68393651 1.39688889,1.63834921 1.42044444,1.66031746 C1.44414815,1.68228571 1.49333333,1.64165079 1.50325926,1.66361905 C1.51303704,1.6855873 1.55437037,1.67212698 1.5642963,1.70247619 C1.57511111,1.73625397 1.62133333,1.74298413 1.65288889,1.7311746 C1.6842963,1.71936508 1.70992593,1.69066667 1.70992593,1.64838095 C1.70992593,1.60622222 1.72177778,1.58933333 1.73362963,1.63492063 C1.74533333,1.68050794 1.78874074,1.69396825 1.81037037,1.67212698 C1.832,1.65015873 1.83985185,1.57422222 1.82414815,1.53879365 C1.80844444,1.5032381 1.80637037,1.45765079 1.82222222,1.44926984 C1.83792593,1.44088889 1.87540741,1.51847619 1.89111111,1.55225397 C1.90696296,1.58603175 1.94814815,1.57587302 1.95022222,1.54209524 C1.95214815,1.50831746 1.98962963,1.49142857 2.01718519,1.5168254 C2.04474074,1.54209524 2.02903704,1.62653968 2.03688889,1.66704762 C2.04474074,1.70755556 2.12148148,1.65688889 2.12948148,1.67034921 C2.13733333,1.68393651 2.16681481,1.6872381 2.17866667,1.65853968 C2.19051852,1.62984127 2.21807407,1.60457143 2.23377778,1.62146032 C2.24962963,1.63834921 2.27318519,1.66704762 2.28296296,1.69904762 C2.29288889,1.7311746 2.3282963,1.74806349 2.34992593,1.71428571 C2.37155556,1.68050794 2.38740741,1.61473016 2.37955556,1.56901587 C2.37155556,1.52355556 2.38548148,1.49485714 2.40503704,1.51847619 C2.42474074,1.54209524 2.42281481,1.60622222 2.42474074,1.65853968 C2.42681481,1.71085714 2.4917037,1.70590476 2.4917037,1.62819048 C2.4917037,1.5927619 2.51140741,1.58603175 2.51733333,1.60622222 C2.52325926,1.62653968 2.52325926,1.66031746 2.52918519,1.67542857 C2.5437037,1.71288889 2.59422222,1.69231746 2.6,1.66704762 C2.60592593,1.64165079 2.59614815,1.55047619 2.5842963,1.51009524 C2.57244444,1.46946032 2.59614815,1.44088889 2.61585185,1.46273016 C2.63555556,1.48469841 2.63940741,1.54209524 2.64340741,1.60622222 C2.64725926,1.67034921 2.68859259,1.67377778 2.71037037,1.6552381 C2.732,1.63657143 2.732,1.58260317 2.72222222,1.54374603 C2.7122963,1.50501587 2.74385185,1.50501587 2.75762963,1.52863492 C2.77140741,1.55225397 2.79511111,1.53701587 2.79111111,1.51847619 C2.78725926,1.49993651 2.80681481,1.48304762 2.82651852,1.50831746 C2.84622222,1.53371429 2.8402963,1.59111111 2.83051852,1.63657143 C2.82059259,1.68228571 2.8797037,1.67707937 2.90725926,1.63834921 C2.93481481,1.59949206 2.92103704,1.49320635 2.89748148,1.45942857 C2.87377778,1.42565079 2.87585185,1.38171429 2.88948148,1.34298413 C2.90340741,1.30412698 2.92903704,1.30234921 2.93096296,1.31936508 C2.93288889,1.33612698 2.94474074,1.3648254 2.96637037,1.38679365 C2.988,1.4087619 2.99985185,1.41219048 3.0037037,1.37828571 C3.0077037,1.34463492 3.02740741,1.35301587 3.03525926,1.37828571 C3.04325926,1.40368254 3.05688889,1.42387302 3.07659259,1.40203175 C3.0962963,1.38006349 3.12192593,1.39695238 3.10622222,1.43073016 C3.09037037,1.46450794 3.09037037,1.49485714 3.10222222,1.52863492 C3.11407407,1.5624127 3.15540741,1.55733333 3.15940741,1.51847619 C3.16755556,1.43771429 3.17911111,1.49142857 3.18888889,1.52685714 C3.19866667,1.5624127 3.2282963,1.56063492 3.23422222,1.54044444 C3.24014815,1.52012698 3.24607407,1.5151746 3.24607407,1.53701587 C3.24607407,1.55898413 3.25585185,1.57752381 3.28148148,1.57752381 C3.30711111,1.57752381 3.30118519,1.53371429 3.31288889,1.50666667 C3.32474074,1.47961905 3.34637037,1.5168254 3.376,1.5791746 C3.40548148,1.64165079 3.42711111,1.58260317 3.49614815,1.72444444 C3.5242963,1.78222222 3.56503704,1.7328254 3.56311111,1.71263492 C3.56103704,1.69231746 3.56696296,1.67885714 3.60044444,1.67885714 C3.63392593,1.67885714 3.66148148,1.67212698 3.64977778,1.65015873 C3.63792593,1.62819048 3.64577778,1.58768254 3.64385185,1.54209524 C3.64192593,1.49650794 3.6477037,1.4712381 3.65362963,1.49650794 C3.65955556,1.52177778 3.67925926,1.55733333 3.71066667,1.57587302 C3.74222222,1.5944127 3.76385185,1.54374603 3.73822222,1.51174603 C3.71274074,1.47961905 3.67733333,1.40368254 3.67925926,1.33955556 C3.68074074,1.29231746 3.70281481,1.30742857 3.70281481,1.34120635 C3.70281481,1.37498413 3.72251852,1.43580952 3.75214815,1.44926984 C3.78162963,1.46273016 3.79348148,1.40025397 3.7797037,1.36825397 C3.76592593,1.33612698 3.75807407,1.29231746 3.78755556,1.28380952 C3.81703704,1.27542857 3.7797037,1.24 3.75407407,1.21460317 C3.72844444,1.18933333 3.71274074,1.16406349 3.75807407,1.16571429 C3.80325926,1.16736508 3.76592593,1.13866667 3.74414815,1.12012698 C3.72251852,1.1015873 3.68518519,1.06438095 3.74414815,1.06946032 C3.80325926,1.07453968 3.7837037,1.04419048 3.76,1.02730159 C3.7362963,1.0104127 3.72251852,0.978285714 3.76385185,0.980063492 C3.80533333,0.981714286 3.83081481,0.961396825 3.82696296,0.946285714 C3.81185185,0.887746032 3.71274074,0.81968254 3.6517037,0.767365079 C3.59066667,0.715047619 3.49214815,0.662730159 3.43896296,0.654222222 C3.38577778,0.645714286 3.38385185,0.679619048 3.39762963,0.699809524 C3.41140741,0.72 3.43896296,0.733587302 3.44296296,0.713269841 C3.44681481,0.693079365 3.48814815,0.715047619 3.50785185,0.741968254 C3.52755556,0.769015873 3.59451852,0.802793651 3.636,0.833142857 C3.67733333,0.863492063 3.58074074,0.848380952 3.53348148,0.807873016 C3.50651852,0.784634921 3.50977778,0.812825397 3.54533333,0.844952381 C3.58074074,0.877079365 3.53540741,0.890539683 3.49807407,0.863492063 C3.46059259,0.836571429 3.36414815,0.760634921 3.30311111,0.711619048 C3.24207407,0.662730159 3.23214815,0.674539683 3.23022222,0.706539683 C3.2282963,0.738666667 3.24992593,0.760634921 3.28933333,0.787555556 C3.32874074,0.814603175 3.37792593,0.856761905 3.41540741,0.885460317 C3.45274074,0.91415873 3.42133333,0.932698413 3.39762963,0.912380952 C3.37392593,0.892190476 3.29333333,0.836571429 3.24607407,0.797714286 C3.19866667,0.758857143 3.15540741,0.74031746 3.12592593,0.745396825 C3.0962963,0.75047619 3.09837037,0.779174603 3.13377778,0.80952381 C3.16918519,0.839873016 3.21259259,0.897269841 3.21259259,0.931047619 C3.21259259,0.964825397 3.18103704,0.988444444 3.16518519,0.927746032 C3.14948148,0.866920635 3.07466667,0.796063492 3.01955556,0.741968254 C2.96444444,0.688 2.90918519,0.67784127 2.86785185,0.681269841 C2.82651852,0.684571429 2.82844444,0.725079365 2.82844444,0.757206349 C2.82844444,0.789206349 2.80088889,0.770666667 2.79896296,0.747047619 C2.79703704,0.723428571 2.76548148,0.703238095 2.7477037,0.704888889 C2.73007407,0.706539683 2.736,0.755555556 2.73007407,0.77752381 C2.72414815,0.799365079 2.69659259,0.81968254 2.69659259,0.769015873 C2.69659259,0.718349206 2.63155556,0.693079365 2.604,0.691301587 C2.57644444,0.689650794 2.55081481,0.699809524 2.56459259,0.721777778 C2.57837037,0.743619048 2.57244444,0.802793651 2.56266667,0.836571429 C2.55274074,0.870222222 2.52325926,0.811174603 2.51733333,0.748698413 C2.51140741,0.686349206 2.41896296,0.642412698 2.35392593,0.660952381 C2.28888889,0.679619048 2.33822222,0.72 2.32637037,0.758857143 C2.31451852,0.797714286 2.29674074,0.762285714 2.29081481,0.721777778 C2.28503704,0.681269841 2.25348148,0.655873016 2.21022222,0.666031746 C2.16681481,0.676190476 2.13733333,0.696380952 2.13925926,0.723428571 C2.14118519,0.75047619 2.14118519,0.774095238 2.13140741,0.817904762 C2.12148148,0.86184127 2.10385185,0.839873016 2.10577778,0.811174603 C2.10785185,0.78247619 2.09792593,0.735238095 2.088,0.708190476 C2.07822222,0.681269841 2.06237037,0.706539683 2.06637037,0.74031746 C2.07037037,0.774095238 2.06044444,0.85168254 2.04474074,0.899047619 C2.02903704,0.946285714 2.00533333,0.947936508 2.01718519,0.883809524 C2.02903704,0.81968254 1.99940741,0.725079365 1.96992593,0.681269841 C1.94874074,0.649904762 1.90103704,0.639111111 1.90103704,0.682920635 C1.90103704,0.726857143 1.91481481,0.758857143 1.95022222,0.790984127 C1.98562963,0.822984127 1.95807407,0.902349206 1.92266667,0.944634921 C1.88711111,0.986793651 1.88918519,0.925968254 1.90103704,0.880380952 C1.91274074,0.834793651 1.84785185,0.81968254 1.82222222,0.811174603 C1.79659259,0.802793651 1.84977778,0.757206349 1.86162963,0.696380952 C1.86740741,0.666412698 1.85955556,0.647492063 1.836,0.645714286 C1.8122963,0.644063492 1.74933333,0.701460317 1.72177778,0.743619048 C1.72962963,0.699809524 1.72177778,0.660952381 1.69807407,0.660952381 C1.67451852,0.660952381 1.64888889,0.703238095 1.63125926,0.733587302 C1.61348148,0.763936508 1.5957037,0.747047619 1.61348148,0.715047619 C1.63125926,0.682920635 1.65866667,0.596825397 1.62325926,0.578285714 C1.58785185,0.559746032 1.5562963,0.63568254 1.51896296,0.622095238 C1.49777778,0.61447619 1.52681481,0.56647619 1.53866667,0.544507937 C1.55037037,0.522539683 1.52681481,0.505650794 1.47362963,0.54615873 C1.42044444,0.586793651 1.39688889,0.652571429 1.38296296,0.693079365 C1.36933333,0.733587302 1.27481481,0.799365079 1.22355556,0.834793651 C1.1722963,0.870222222 1.15066667,0.856761905 1.1762963,0.84152381 C1.20192593,0.826412698 1.25303704,0.779174603 1.27866667,0.760634921 C1.3042963,0.741968254 1.29244444,0.731047619 1.24325926,0.763047619 C1.19407407,0.795174603 1.10444444,0.853460317 1.01274074,0.873650794 C0.958962963,0.885587302 0.951703704,0.875428571 1.00488889,0.860190476 C1.05807407,0.844952381 1.18014815,0.77231746 1.20977778,0.738666667 C1.2282963,0.717460317 1.18014815,0.735238095 1.15659259,0.74031746 C1.13303704,0.745396825 1.11333333,0.738666667 1.16059259,0.721777778 C1.2077037,0.704888889 1.35748148,0.571555556 1.38903704,0.522539683 C1.42044444,0.473650794 1.39288889,0.454984127 1.37318519,0.456761905 C1.35348148,0.458412698 1.32592593,0.470222222 1.33185185,0.450031746 C1.33777778,0.429714286 1.324,0.402666667 1.29837037,0.411174603 C1.27274074,0.419555556 1.27481481,0.468571429 1.26488889,0.495492063 C1.25511111,0.522539683 1.19985185,0.558095238 1.16444444,0.558095238 C1.12903704,0.558095238 1.07985185,0.564825397 1.04237037,0.590095238 C1.00488889,0.615365079 0.987259259,0.591746032 1.00488889,0.571555556 C1.02266667,0.551238095 1.06207407,0.54615873 1.10148148,0.544507937 C1.14088889,0.542857143 1.18414815,0.537777778 1.21762963,0.505650794 C1.25111111,0.473650794 1.25303704,0.448253968 1.22755556,0.446603175 C1.20192593,0.444952381 1.15851852,0.416253968 1.14474074,0.404444444 C1.07481481,0.344380952 0.946666667,0.428063492 0.896592593,0.476952381 C0.869037037,0.504 0.774518519,0.581714286 0.745037037,0.601904762 C0.715407407,0.622095238 0.727259259,0.650793651 0.776444444,0.612063492 C0.825777778,0.573206349 0.841481481,0.600253968 0.796296296,0.628952381 C0.750814815,0.657650794 0.717481481,0.699809524 0.733185185,0.715047619 C0.748888889,0.73015873 0.809925926,0.711619048 0.843407407,0.693079365 C0.876888889,0.674539683 0.892740741,0.72 0.809925926,0.735238095 C0.75437037,0.74552381 0.734962963,0.765079365 0.778518519,0.767365079 C0.812,0.769015873 0.863111111,0.755555556 0.910518519,0.731936508 C0.95762963,0.708190476 0.995111111,0.721777778 0.955703704,0.745396825 C0.916296296,0.769015873 0.82962963,0.801142857 0.78637037,0.801142857 C0.750074074,0.801142857 0.792296296,0.846730159 0.756740741,0.860190476 Z" id="Fill-44" fill="#FFFFFF"></path>
                                    <path d="M0.985185185,0.482904996 C1.03259259,0.433571662 1.07392593,0.411971662 1.11718519,0.447438329 C1.15644444,0.479571662 1.16059259,0.493571662 1.11125926,0.482904996 C1.06207407,0.472238329 1.02859259,0.482904996 0.999111111,0.514771662 C0.969481481,0.546771662 0.936,0.534238329 0.985185185,0.482904996" id="Fill-45" fill="#A3A3A3"></path>
                                    <path d="M0.205481481,0.608205785 C0.240888889,0.572739118 0.297925926,0.572739118 0.323555556,0.533805785 C0.349185185,0.494739118 0.376740741,0.509005785 0.345185185,0.546205785 C0.313777778,0.583405785 0.252740741,0.590605785 0.227111111,0.617139118 C0.201481481,0.643672451 0.187703704,0.625939118 0.205481481,0.608205785" id="Fill-46" fill="#A3A3A3"></path>
                                    <path d="M0.426074074,0.472674287 C0.447407407,0.469740953 0.489037037,0.444274287 0.514666667,0.414140953 C0.540296296,0.38400762 0.595407407,0.373340953 0.628740741,0.40880762 C0.662222222,0.444274287 0.68,0.456674287 0.697777778,0.463874287 C0.715407407,0.470940953 0.715407407,0.49400762 0.687851852,0.500940953 C0.660296296,0.508140953 0.622962963,0.513474287 0.603259259,0.504540953 C0.583555556,0.495740953 0.553925926,0.488674287 0.53037037,0.49400762 C0.506666667,0.49920762 0.496888889,0.488674287 0.516592593,0.479740953 C0.536296296,0.470940953 0.559851852,0.444274287 0.571703704,0.43360762 C0.583555556,0.423074287 0.614962963,0.431874287 0.597333333,0.442540953 C0.579555556,0.45320762 0.587407407,0.476140953 0.605185185,0.485074287 C0.622962963,0.49400762 0.65837037,0.49400762 0.674074074,0.47800762 C0.650518519,0.454940953 0.611111111,0.42480762 0.595407407,0.41600762 C0.579555556,0.407074287 0.565777778,0.403474287 0.546074074,0.42480762 C0.52637037,0.446140953 0.479111111,0.497474287 0.433925926,0.495740953 C0.388592593,0.49400762 0.400444444,0.476140953 0.426074074,0.472674287" id="Fill-47" fill="#A3A3A3"></path>
                                    <path d="M1.67051852,0.790690572 C1.65303704,0.815090572 1.63703704,0.846557238 1.63511111,0.871357238 C1.63318519,0.896157238 1.65585185,0.913090572 1.65866667,0.882023905 C1.66162963,0.850957238 1.66459259,0.832423905 1.68918519,0.809357238 C1.71392593,0.786290572 1.69022222,0.763223905 1.67051852,0.790690572" id="Fill-48" fill="#A3A3A3"></path>
                                    <path d="M1.42933333,0.790122326 C1.44977778,0.78185566 1.48444444,0.76265566 1.50118519,0.744922326 C1.51792593,0.727322326 1.52874074,0.738788993 1.512,0.75825566 C1.49525926,0.777722326 1.45688889,0.800788993 1.43911111,0.806122326 C1.42148148,0.81145566 1.4077037,0.79905566 1.42933333,0.790122326" id="Fill-49" fill="#A3A3A3"></path>
                                    <path d="M1.45985185,0.888761905 C1.43155556,0.922793651 1.32,1.00368254 1.28651852,1.01879365 C1.25303704,1.03403175 1.26488889,1.056 1.30237037,1.04419048 C1.27481481,1.06603175 1.21362963,1.1015873 1.17437037,1.11161905 C1.13496296,1.12177778 1.12696296,1.15212698 1.18607407,1.1335873 C1.24518519,1.11504762 1.32785185,1.06603175 1.34948148,1.04419048 C1.37125926,1.02222222 1.3437037,1.01206349 1.37718519,0.988444444 C1.41066667,0.964825397 1.47259259,0.921650794 1.48148148,0.904 C1.49525926,0.877079365 1.47955556,0.865142857 1.45985185,0.888761905" id="Fill-50" fill="#A3A3A3"></path>
                                    <path d="M1.33777778,1.16406349 C1.38,1.14349206 1.45881481,1.07073016 1.48148148,1.02895238 C1.49525926,1.00368254 1.52281481,1.00698413 1.50118519,1.04584127 C1.47955556,1.08469841 1.39881481,1.15390476 1.37125926,1.17244444 C1.3437037,1.19098413 1.29244444,1.18590476 1.33777778,1.16406349" id="Fill-51" fill="#A3A3A3"></path>
                                    <path d="M2.23377778,0.763936508 C2.22222222,0.78768254 2.22,0.843301587 2.224,0.870222222 C2.22785185,0.897269841 2.25155556,0.917587302 2.24755556,0.877079365 C2.2437037,0.836571429 2.2437037,0.796063492 2.25733333,0.784253968 C2.27125926,0.77231746 2.25348148,0.723428571 2.23377778,0.763936508" id="Fill-52" fill="#A3A3A3"></path>
                                    <path d="M2.47407407,0.863492063 C2.49407407,0.881904762 2.50355556,0.968253968 2.50162963,1.00025397 C2.4997037,1.03238095 2.53318519,1.03238095 2.53111111,0.986793651 C2.52918519,0.941206349 2.52518519,0.883809524 2.50755556,0.853460317 C2.48977778,0.822984127 2.44651852,0.838222222 2.47407407,0.863492063" id="Fill-53" fill="#A3A3A3"></path>
                                    <path d="M2.68474074,0.919238095 C2.69688889,0.941333333 2.7122963,0.983365079 2.7122963,1.01371429 C2.7122963,1.04419048 2.73792593,1.03060317 2.73985185,0.995174603 C2.74177778,0.959746032 2.736,0.929396825 2.72222222,0.905777778 C2.70844444,0.88215873 2.66696296,0.887111111 2.68474074,0.919238095" id="Fill-54" fill="#A3A3A3"></path>
                                    <path d="M2.81481481,0.892835992 C2.804,0.865635992 2.78725926,0.841369325 2.77525926,0.844969325 C2.76355556,0.848569325 2.77140741,0.873369325 2.78725926,0.899902659 C2.80281481,0.926569325 2.82651852,0.922969325 2.81481481,0.892835992" id="Fill-55" fill="#A3A3A3"></path>
                                    <path d="M1.99155556,1.08126984 C1.98562963,1.152 1.94814815,1.21460317 1.90296296,1.23657143 C1.85762963,1.25853968 1.86548148,1.29396825 1.92059259,1.25853968 C1.97585185,1.22311111 2.01718519,1.16228571 2.02903704,1.10831746 C2.04074074,1.05422222 1.99555556,1.03403175 1.99155556,1.08126984" id="Fill-56" fill="#A3A3A3"></path>
                                    <path d="M1.89303704,1.04926984 C1.86948148,1.07288889 1.8557037,1.12355556 1.8557037,1.16228571 C1.8557037,1.20114286 1.87140741,1.17244444 1.87540741,1.15047619 C1.87940741,1.12850794 1.88711111,1.09815873 1.90696296,1.088 C1.92651852,1.07784127 1.91674074,1.02565079 1.89303704,1.04926984" id="Fill-57" fill="#A3A3A3"></path>
                                    <path d="M3.59851852,1.09815873 C3.61925926,1.13231746 3.64977778,1.18768254 3.65955556,1.21968254 C3.66948148,1.25180952 3.64577778,1.26019048 3.63792593,1.23149206 C3.62992593,1.20279365 3.59259259,1.13866667 3.57881481,1.11669841 C3.56503704,1.09485714 3.57481481,1.05930159 3.59851852,1.09815873" id="Fill-58" fill="#A3A3A3"></path>
                                </g>
                            </g>
                        </g>
                        <path d="M-1.33333333,4 C-1.33333333,4 0.934579849,4.67379697 1.31738361,4.67379697 C1.42495804,4.67379697 2.89396667,4.33689848 3.3343811,4.33689849 C3.4990909,4.33689849 5.01968067,4.56767928 5.41670545,4.67379697 C5.81373023,4.77991466 8.00209582,4 8.00209582,4" id="Path-63" stroke="#FFFFFF" stroke-width="0.666666667" stroke-linecap="round" stroke-linejoin="round" mask="url(#mask-4)"></path>
                        <path d="M-1.33333333,5.33333333 C-1.33333333,5.33333333 0.934579849,6.0071303 1.31738361,6.0071303 C1.42495804,6.0071303 2.89396667,5.67023182 3.3343811,5.67023182 C3.4990909,5.67023182 5.01968067,5.90101261 5.41670545,6.0071303 C5.81373023,6.113248 8.00209582,5.33333333 8.00209582,5.33333333" id="Path-63" stroke="#FFFFFF" stroke-width="0.666666667" stroke-linecap="round" stroke-linejoin="round" mask="url(#mask-4)"></path>
                        <path d="M-1.33333333,8 C-1.33333333,8 0.934579849,8.67379697 1.31738361,8.67379697 C1.42495804,8.67379697 2.30067054,8.12858073 3.3343811,8.12858073 C4.36809166,8.12858073 5.01968067,8.56767928 5.41670545,8.67379697 C5.81373023,8.77991466 8.00209582,8 8.00209582,8 L15.1794434,9.14794922" id="Path-63" stroke="#FFFFFF" stroke-width="1.33333333" stroke-linecap="round" stroke-linejoin="round" mask="url(#mask-4)"></path>
                    </g>
                    <mask id="mask-6" fill="white">
                        <use xlink:href="#path-5"></use>
                    </mask>
                    <path stroke="#FFFFFF" stroke-width="0.666666667" d="M3.33333333,8.96929032 C3.42569808,8.92582876 3.5469172,8.86389271 3.68982914,8.78290927 C4.06055492,8.57283133 4.43163045,8.31307846 4.77701176,8.00223528 C5.75332073,7.12355721 6.33333333,6.02153326 6.33333333,4.66666667 L6.33333333,1.33245595 C6.33333333,0.775386147 5.8890907,0.333333333 5.33359001,0.333333333 L1.33307666,0.333333333 C0.777686185,0.333333333 0.333333333,0.778683065 0.333333333,1.33245595 L0.333333333,4.66666667 C0.333333333,6.02153326 0.913345938,7.12355721 1.88965491,8.00223528 C2.23503622,8.31307846 2.60611175,8.57283133 2.97683752,8.78290927 C3.11974947,8.86389271 3.24096859,8.92582876 3.33333333,8.96929032 Z"></path>
                </g>
            </g>
            <path d="M4.33333333,4.15331164 L-0.901085803,-0.333333333 L0.666666667,-0.333333333 L0.860412731,-0.27124449 L5.44015502,3 L6.57106792,3 L12.3333333,-0.601415881 L12.3333333,0.333333333 C12.3333333,0.628978368 12.1628101,0.960008269 11.9158002,1.1364439 L7.66666667,4.1715393 L7.66666667,5.18002169 L11.9660302,8.86519043 C12.3427037,9.18805344 12.1509712,9.66666667 11.6666667,9.66666667 C11.4092185,9.66666667 11.0776031,9.56030345 10.8616414,9.40604508 L6.55984498,6.33333333 L5.42893208,6.33333333 L-0.333333333,9.93474921 L-0.333333333,8.49512737 L4.33333333,5.16179403 L4.33333333,4.15331164 Z" id="Rectangle-36" stroke="#FFFFFF" stroke-width="0.666666667" fill="#DB1E36" mask="url(#mask-2)"></path>
            <path d="M0,3.33333333 L0,6 L4.66666667,6 L4.66666667,9.33948135 C4.66666667,9.70427573 4.97256724,10 5.33957926,10 L6.66042074,10 C7.0320601,10 7.33333333,9.69934988 7.33333333,9.33948135 L7.33333333,6 L11.9911963,6 C12.3642483,6 12.6666667,5.69409943 12.6666667,5.3270874 L12.6666667,4.00624593 C12.6666667,3.63460657 12.3646425,3.33333333 11.9911963,3.33333333 L7.33333333,3.33333333 L7.33333333,0 L4.66666667,0 L4.66666667,3.33333333 L0,3.33333333 Z" id="Rectangle-2" fill="#FFFFFF" mask="url(#mask-2)"></path>
            <polygon id="Rectangle-36" fill="#DB1E36" mask="url(#mask-2)" points="0 4 5.33333333 4 5.33333333 3.33333333 5.33333333 0 6.66666667 0 6.66666667 3.33333333 6.66666667 4 12 4 12 5.33333333 6.66666667 5.33333333 6.66666667 6 6.66666667 9.33333333 5.33333333 9.33333333 5.33333333 6 5.33333333 5.33333333 0 5.33333333"></polygon>
        </g>
    </g>
</svg>