<?xml version="1.0" encoding="UTF-8"?>
<svg width="28px" height="20px" viewBox="0 0 28 20" version="1.1" xmlns="http://www.w3.org/2000/svg" xmlns:xlink="http://www.w3.org/1999/xlink">
    <!-- Generator: Sketch 55.2 (78181) - https://sketchapp.com -->
    <title>icon/flags/GB</title>
    <desc>Created with Sketch.</desc>
    <defs>
        <rect id="path-1" x="0" y="0" width="28" height="20" rx="2"></rect>
    </defs>
    <g id="icon/flags/GB" stroke="none" stroke-width="1" fill="none" fill-rule="evenodd">
        <g id="ic_flags/GB">
            <mask id="mask-2" fill="white">
                <use xlink:href="#path-1"></use>
            </mask>
            <use id="Mask" fill="#FFFFFF" xlink:href="#path-1"></use>
            <rect id="Color" fill="#0A17A7" mask="url(#mask-2)" x="0" y="0" width="28" height="20"></rect>
            <path d="M6.67374124,13.3333333 L4.4408921e-16,13.3333333 L4.4408921e-16,6.66666667 L6.67374124,6.66666667 L-2.77365027,0.29432063 L-1.2824692,-1.91644623 L10.6666667,6.14334768 L10.6666667,-1.33333333 L17.3333333,-1.33333333 L17.3333333,6.14334768 L29.2824692,-1.91644623 L30.7736503,0.29432063 L21.3262588,6.66666667 L28,6.66666667 L28,13.3333333 L21.3262588,13.3333333 L30.7736503,19.7056794 L29.2824692,21.9164462 L17.3333333,13.8566523 L17.3333333,21.3333333 L10.6666667,21.3333333 L10.6666667,13.8566523 L-1.2824692,21.9164462 L-2.77365027,19.7056794 L6.67374124,13.3333333 Z" id="Rectangle-2" fill="#FFFFFF" mask="url(#mask-2)"></path>
            <path d="M18.8511699,6.61066923 C18.6973723,6.71184843 18.4906727,6.66919279 18.3894935,6.51539517 C18.2883143,6.36159756 18.33097,6.154898 18.4847676,6.0537188 L31.1501322,-2.27847521 C31.3039298,-2.37965442 31.5106293,-2.33699878 31.6118085,-2.18320116 C31.7129878,-2.02940355 31.6703321,-1.82270399 31.5165345,-1.72152479 L18.8511699,6.61066923 Z M20.1990835,13.4211026 L31.5529246,21.0739347 C31.70558,21.176829 31.7459194,21.3839931 31.643025,21.5366486 C31.5401306,21.689304 31.3329665,21.7296433 31.1803111,21.6267489 L19.8264699,13.9739169 C19.6738145,13.8710225 19.6334752,13.6638584 19.7363696,13.511203 C19.8392639,13.3585476 20.046428,13.3182083 20.1990835,13.4211026 Z M8.19182286,6.03404639 C8.34448491,6.13693097 8.38483753,6.34409244 8.28195295,6.4967545 C8.17906838,6.64941655 7.97190691,6.68976917 7.81924485,6.58688459 L-4.02377273,-1.39456072 C-4.17643478,-1.49744529 -4.2167874,-1.70460677 -4.11390282,-1.85726882 C-4.01101825,-2.00993087 -3.80385678,-2.05028349 -3.65119472,-1.94739892 L8.19182286,6.03404639 Z M9.47426297,13.8826988 L-3.65325981,22.5882652 C-3.80668434,22.6900092 -4.01353935,22.6481139 -4.1152834,22.4946894 C-4.21702746,22.3412649 -4.17513216,22.1344099 -4.02170763,22.0326658 L9.10581515,13.3270994 C9.25923968,13.2253554 9.46609469,13.2672507 9.56783874,13.4206752 C9.6695828,13.5740997 9.6276875,13.7809547 9.47426297,13.8826988 Z" id="Combined-Shape" fill="#DB1F35" fill-rule="nonzero" mask="url(#mask-2)"></path>
            <polygon id="Rectangle-2-Copy-3" fill="#E6273E" mask="url(#mask-2)" points="0 12 12 12 12 20 16 20 16 12 28 12 28 8 16 8 16 0 12 0 12 8 0 8"></polygon>
        </g>
    </g>
</svg>