<?xml version="1.0" encoding="UTF-8"?>
<svg width="28px" height="20px" viewBox="0 0 28 20" version="1.1" xmlns="http://www.w3.org/2000/svg" xmlns:xlink="http://www.w3.org/1999/xlink">
    <!-- Generator: Sketch 55.2 (78181) - https://sketchapp.com -->
    <title>icon/flags/HK</title>
    <desc>Created with Sketch.</desc>
    <defs>
        <rect id="path-1" x="0" y="0" width="28" height="20" rx="2"></rect>
    </defs>
    <g id="icon/flags/HK" stroke="none" stroke-width="1" fill="none" fill-rule="evenodd">
        <g id="ic_flags/HK">
            <mask id="mask-2" fill="white">
                <use xlink:href="#path-1"></use>
            </mask>
            <use id="Mask" fill="#FFFFFF" xlink:href="#path-1"></use>
            <rect id="Rectangle-2" fill="#F0371D" mask="url(#mask-2)" x="0" y="0" width="28" height="20"></rect>
            <path d="M16,9.58717391 C14.9360352,8.92050724 14.6666667,10.1318424 14.6666667,9.58717391 C14.6666667,8.48260441 15.860574,7.58717391 17.3333333,7.58717391 C18.8060927,7.58717391 20,8.48260441 20,9.58717391 C18.7348633,9.58717391 18.6084815,10.2538406 18,10.2538406 C17.2534653,10.2538406 17.0639648,10.2538406 16,9.58717391 Z M17.6666667,9.33333333 C17.8507616,9.33333333 18,9.18409492 18,9 C18,8.81590508 17.8507616,8.66666667 17.6666667,8.66666667 C17.4825718,8.66666667 17.3333333,8.81590508 17.3333333,9 C17.3333333,9.18409492 17.4825718,9.33333333 17.6666667,9.33333333 Z M15.2520717,11.9499423 C15.5573261,10.7320402 14.3220385,10.8501787 14.840049,10.6818669 C15.890557,10.3405362 17.1110997,11.1993063 17.5662074,12.5999836 C18.021315,14.000661 17.5386477,15.4128376 16.4881396,15.7541683 C16.0971909,14.5509518 15.4240991,14.6367669 15.236068,14.0580666 C15.0053761,13.34807 14.9468172,13.1678443 15.2520717,11.9499423 Z M16.0085167,13.4565954 C16.0654052,13.6316801 16.2534566,13.7274971 16.4285412,13.6706086 C16.6036259,13.6137201 16.6994429,13.4256688 16.6425544,13.2505841 C16.5856659,13.0754994 16.3976146,12.9796825 16.2225299,13.0365709 C16.0474452,13.0934594 15.9516283,13.2815107 16.0085167,13.4565954 Z M12.7738228,11.9687557 C14.0264453,11.8827176 13.5323641,10.744396 13.8525122,11.1850421 C14.5017618,12.0786576 14.0621914,13.5048372 12.870704,14.3705034 C11.6792167,15.2361696 10.1870045,15.2135122 9.53775487,14.3198967 C10.561272,13.576268 10.2716601,12.962638 10.763932,12.6049816 C11.3678913,12.1661795 11.5212004,12.0547939 12.7738228,11.9687557 Z M11.5746649,13.1537592 C11.425729,13.2619674 11.3927127,13.470424 11.500921,13.6193599 C11.6091293,13.7682958 11.8175859,13.8013121 11.9665218,13.6931038 C12.1154577,13.5848956 12.148474,13.376439 12.0402657,13.2275031 C11.9320574,13.0785672 11.7236009,13.0455509 11.5746649,13.1537592 Z M11.9901092,9.61761473 C12.459018,10.7823422 13.3889466,9.96068233 13.0687985,10.4013284 C12.4195488,11.2949439 10.9273367,11.3176013 9.73584935,10.4519351 C8.54436202,9.58626883 8.10479154,8.16008922 8.7540412,7.26647372 C9.7775583,8.01010243 10.2716601,7.54504311 10.763932,7.90269956 C11.3678913,8.34150163 11.5212004,8.45288722 11.9901092,9.61761473 Z M10.4925438,8.84333398 C10.3436079,8.7351257 10.1351513,8.76814198 10.026943,8.9170779 C9.91873475,9.06601381 9.95175102,9.27447037 10.1006869,9.38267864 C10.2496229,9.49088692 10.4580794,9.45787065 10.5662877,9.30893473 C10.674496,9.15999881 10.6414797,8.95154226 10.4925438,8.84333398 Z M13.9839963,8.14571621 C13.0211754,8.95159558 14.0899842,9.58210339 13.5719737,9.41379157 C12.5214656,9.07246082 12.0387983,7.66028423 12.4939059,6.25960687 C12.9490136,4.85892951 14.1695563,4.0001594 15.2200643,4.34149015 C14.8291155,5.54470667 15.4240991,5.87091421 15.236068,6.44961451 C15.0053761,7.15961117 14.9468172,7.33983684 13.9839963,8.14571621 Z M14.2576079,6.48218097 C14.3144964,6.3070963 14.2186794,6.11904492 14.0435947,6.06215646 C13.8685101,6.005268 13.6804587,6.10108497 13.6235702,6.27616964 C13.5666818,6.45125431 13.6624987,6.63930568 13.8375834,6.69619414 C14.0126681,6.7530826 14.2007194,6.65726564 14.2576079,6.48218097 Z" id="Oval-145" fill="#FFFFFF" mask="url(#mask-2)"></path>
        </g>
    </g>
</svg>