<?xml version="1.0" encoding="utf-8"?>
<!-- Generator: Adobe Illustrator 23.0.3, SVG Export Plug-In . SVG Version: 6.00 Build 0)  -->
<svg width="28px" height="20px" version="1.1" id="Ebene_1" xmlns="http://www.w3.org/2000/svg" xmlns:xlink="http://www.w3.org/1999/xlink" x="0px" y="0px"
	 viewBox="0 0 28 20" style="enable-background:new 0 0 28 20;" xml:space="preserve">
<style type="text/css">
	.st0{fill:#F5F5F5;}
	.st1{filter:url(#Adobe_OpacityMaskFilter);}
	.st2{fill-rule:evenodd;clip-rule:evenodd;fill:#FFFFFF;}
	.st3{mask:url(#mask-2_1_);fill-rule:evenodd;clip-rule:evenodd;fill:#FF202D;}
	.st4{filter:url(#Adobe_OpacityMaskFilter_1_);}
	.st5{opacity:0.5;mask:url(#mask-2_2_);fill-rule:evenodd;clip-rule:evenodd;fill:#1895DB;enable-background:new    ;}
	.st6{filter:url(#Adobe_OpacityMaskFilter_2_);}
	.st7{opacity:0.5;mask:url(#mask-2_3_);fill-rule:evenodd;clip-rule:evenodd;fill:#191F94;enable-background:new    ;}
	.st8{filter:url(#Adobe_OpacityMaskFilter_3_);}
	.st9{mask:url(#mask-2_4_);fill-rule:evenodd;clip-rule:evenodd;fill:#2027AC;}
	.st10{filter:url(#Adobe_OpacityMaskFilter_4_);}
	.st11{mask:url(#mask-2_5_);fill-rule:evenodd;clip-rule:evenodd;fill:url(#Rectangle-657_1_);}
</style>
<title>icon/flags/HR</title>
<desc>Created with Sketch.</desc>
<g>
	<g>
		<path class="st0" d="M2,0H26c1.1,0,2,0.9,2,2v15.5c0,1.1-0.9,2-2,2H2c-1.1,0-2-0.9-2-2V2C0,0.9,0.9,0,2,0z"/>
		<defs>
			<filter id="Adobe_OpacityMaskFilter" filterUnits="userSpaceOnUse" x="0" y="0" width="28" height="6.7">
				<feColorMatrix  type="matrix" values="1 0 0 0 0  0 1 0 0 0  0 0 1 0 0  0 0 0 1 0"/>
			</filter>
		</defs>
		<mask maskUnits="userSpaceOnUse" x="0" y="0" width="28" height="6.7" id="mask-2_1_">
			<g class="st1">
				<path id="path-1_1_" class="st2" d="M2,0h24c1.1,0,2,0.9,2,2v16c0,1.1-0.9,2-2,2H2c-1.1,0-2-0.9-2-2V2C0,0.9,0.9,0,2,0z"/>
			</g>
		</mask>
		<rect id="Rectangle-2" y="0" class="st3" width="28" height="6.7"/>
		<defs>
			<filter id="Adobe_OpacityMaskFilter_1_" filterUnits="userSpaceOnUse" x="10.7" y="4.7" width="6.7" height="2">
				<feColorMatrix  type="matrix" values="1 0 0 0 0  0 1 0 0 0  0 0 1 0 0  0 0 0 1 0"/>
			</filter>
		</defs>
		<mask maskUnits="userSpaceOnUse" x="10.7" y="4.7" width="6.7" height="2" id="mask-2_2_">
			<g class="st4">
				<path id="path-1_2_" class="st2" d="M2,0h24c1.1,0,2,0.9,2,2v16c0,1.1-0.9,2-2,2H2c-1.1,0-2-0.9-2-2V2C0,0.9,0.9,0,2,0z"/>
			</g>
		</mask>
		<path id="Rectangle-675" class="st5" d="M10.7,5.3l0.7-0.7L12,5.3v1.3h-1.3V5.3z M13.3,5.3L14,4.7l0.7,0.7v1.3h-1.3V5.3z M16,5.3
			l0.7-0.7l0.7,0.7v1.3H16V5.3z"/>
		<defs>
			<filter id="Adobe_OpacityMaskFilter_2_" filterUnits="userSpaceOnUse" x="12" y="4.7" width="4" height="2">
				<feColorMatrix  type="matrix" values="1 0 0 0 0  0 1 0 0 0  0 0 1 0 0  0 0 0 1 0"/>
			</filter>
		</defs>
		<mask maskUnits="userSpaceOnUse" x="12" y="4.7" width="4" height="2" id="mask-2_3_">
			<g class="st6">
				<path id="path-1_3_" class="st2" d="M2,0h24c1.1,0,2,0.9,2,2v16c0,1.1-0.9,2-2,2H2c-1.1,0-2-0.9-2-2V2C0,0.9,0.9,0,2,0z"/>
			</g>
		</mask>
		<path class="st7" d="M12,5.3l0.7-0.7l0.7,0.7v1.3H12V5.3z M14.7,5.3l0.7-0.7L16,5.3v1.3h-1.3V5.3z"/>
		<defs>
			<filter id="Adobe_OpacityMaskFilter_3_" filterUnits="userSpaceOnUse" x="0" y="13.3" width="28" height="6.7">
				<feColorMatrix  type="matrix" values="1 0 0 0 0  0 1 0 0 0  0 0 1 0 0  0 0 0 1 0"/>
			</filter>
		</defs>
		<mask maskUnits="userSpaceOnUse" x="0" y="13.3" width="28" height="6.7" id="mask-2_4_">
			<g class="st8">
				<path id="path-1_4_" class="st2" d="M2,0h24c1.1,0,2,0.9,2,2v16c0,1.1-0.9,2-2,2H2c-1.1,0-2-0.9-2-2V2C0,0.9,0.9,0,2,0z"/>
			</g>
		</mask>
		<rect y="13.3" class="st9" width="28" height="6.7"/>
		<defs>
			<filter id="Adobe_OpacityMaskFilter_4_" filterUnits="userSpaceOnUse" x="10.7" y="6.7" width="6.7" height="8">
				<feColorMatrix  type="matrix" values="1 0 0 0 0  0 1 0 0 0  0 0 1 0 0  0 0 0 1 0"/>
			</filter>
		</defs>
		<mask maskUnits="userSpaceOnUse" x="10.7" y="6.7" width="6.7" height="8" id="mask-2_5_">
			<g class="st10">
				<path id="path-1_5_" class="st2" d="M2,0h24c1.1,0,2,0.9,2,2v16c0,1.1-0.9,2-2,2H2c-1.1,0-2-0.9-2-2V2C0,0.9,0.9,0,2,0z"/>
			</g>
		</mask>
		
			<linearGradient id="Rectangle-657_1_" gradientUnits="userSpaceOnUse" x1="-240.05" y1="379.5148" x2="-240.05" y2="378.5148" gradientTransform="matrix(6.6667 0 0 -8 1614.3334 3042.7847)">
			<stop  offset="0" style="stop-color:#FF212E"/>
			<stop  offset="1" style="stop-color:#FD0D1B"/>
		</linearGradient>
		<path id="Rectangle-657" class="st11" d="M13.3,6.7h1.3V8h-1.3V6.7z M16,6.7h0.7L17.3,8H16V6.7z M11.3,6.7H12V8h-1.3L11.3,6.7z
			 M12,8h1.3v1.3H12V8z M14.7,8H16v1.3h-1.3V8z M13.3,9.3h1.3v1.3h-1.3V9.3z M16,9.3h1.3v1.3H16V9.3z M14.7,10.7H16V12h-1.3V10.7z
			 M10.7,9.3H12v1.3h-1.3V9.3z M12,10.7h1.3V12H12V10.7z M10.7,12H12v1.3h-1.3V12z M13.3,12h1.3v1.3h-1.3V12z M16,12h1.3v1.3H16V12z
			 M14.7,13.3H16v1.3h-1.3V13.3z M12,13.3h1.3v1.3H12V13.3z"/>
	</g>
</g>
</svg>
