<?xml version="1.0" encoding="UTF-8"?>
<svg width="28px" height="20px" viewBox="0 0 28 20" version="1.1" xmlns="http://www.w3.org/2000/svg" xmlns:xlink="http://www.w3.org/1999/xlink">
    <!-- Generator: Sketch 55.2 (78181) - https://sketchapp.com -->
    <title>icon/flags/IM</title>
    <desc>Created with Sketch.</desc>
    <defs>
        <rect id="path-1" x="0" y="0" width="28" height="20" rx="2"></rect>
    </defs>
    <g id="icon/flags/IM" stroke="none" stroke-width="1" fill="none" fill-rule="evenodd">
        <g id="ic_flags/IM">
            <mask id="mask-2" fill="white">
                <use xlink:href="#path-1"></use>
            </mask>
            <use id="Mask" fill="#D01129" xlink:href="#path-1"></use>
            <g id="Group-9" mask="url(#mask-2)">
                <g transform="translate(8.000000, 2.666667)" id="Group-8">
                    <g>
                        <path d="M5.88815534,7.3741896 C6.54908738,7.3741896 7.0848932,6.8116208 7.0848932,6.11779817 C7.0848932,5.42385321 6.54908738,4.8612844 5.88815534,4.8612844 C5.2272233,4.8612844 4.69153398,5.42385321 4.69153398,6.11779817 C4.69153398,6.8116208 5.2272233,7.3741896 5.88815534,7.3741896" id="Fill-3" fill="#FFF101"></path>
                        <path d="M5.88815534,7.3741896 C6.54908738,7.3741896 7.0848932,6.8116208 7.0848932,6.11779817 C7.0848932,5.42385321 6.54908738,4.8612844 5.88815534,4.8612844 C5.2272233,4.8612844 4.69153398,5.42385321 4.69153398,6.11779817 C4.69153398,6.8116208 5.2272233,7.3741896 5.88815534,7.3741896 L5.88815534,7.3741896 Z" id="Stroke-4"></path>
                        <path d="M4.79732039,5.61259939 C5.13623301,5.49908257 5.57592233,5.63119266 5.86520388,5.92269113 C6.17231068,5.86397554 6.48023301,5.45908257 6.57565049,5.09859327 C6.47079612,3.90067278 5.72446602,2.99314985 5.49751456,2.37039755 C5.42574757,2.17357798 5.09300971,1.86409786 4.74699029,2.00819572 C4.46248544,2.12672783 4.31860194,2.03449541 3.36302913,2.53492355 C2.8463301,2.80550459 2.41141748,3.08342508 2.18225243,3.13186544 C1.95297087,3.18030581 1.7111068,3.22348624 1.52772816,3.07266055 C1.27549515,2.86519878 0.992621359,2.80782875 0.826019417,2.65149847 C0.621902913,2.45993884 0.490951456,2.31535168 0.352893204,2.25675841 C0.214834951,2.19804281 -0.0188737864,2.32844037 0.0798058252,2.63877676 C0.302446602,3.33969419 0.827300971,3.45321101 1.05262136,4.1083792 C1.15899029,4.41810398 1.31021359,4.65088685 1.64819417,4.41614679 C1.98617476,4.18140673 2.46384466,3.86960245 3.27821359,3.83681957 C3.82508738,3.8146789 4.39025243,3.6035474 4.64994175,3.25712538 C4.64737864,3.55681957 4.74803883,3.80244648 4.72147573,4.19229358 C4.69502913,4.582263 4.6992233,5.06727829 4.79732039,5.61259939" id="Fill-5" fill="#FFFFFF"></path>
                        <path d="M4.79732039,5.61259939 C5.13623301,5.49908257 5.57592233,5.63119266 5.86520388,5.92269113 C6.17231068,5.86397554 6.48023301,5.45908257 6.57565049,5.09859327 C6.47079612,3.90067278 5.72446602,2.99314985 5.49751456,2.37039755 C5.42574757,2.17357798 5.09300971,1.86409786 4.74699029,2.00819572 C4.46248544,2.12672783 4.31860194,2.03449541 3.36302913,2.53492355 C2.8463301,2.80550459 2.41141748,3.08342508 2.18225243,3.13186544 C1.95297087,3.18030581 1.7111068,3.22348624 1.52772816,3.07266055 C1.27549515,2.86519878 0.992621359,2.80782875 0.826019417,2.65149847 C0.621902913,2.45993884 0.490951456,2.31535168 0.352893204,2.25675841 C0.214834951,2.19804281 -0.0188737864,2.32844037 0.0798058252,2.63877676 C0.302446602,3.33969419 0.827300971,3.45321101 1.05262136,4.1083792 C1.15899029,4.41810398 1.31021359,4.65088685 1.64819417,4.41614679 C1.98617476,4.18140673 2.46384466,3.86960245 3.27821359,3.83681957 C3.82508738,3.8146789 4.39025243,3.6035474 4.64994175,3.25712538 C4.64737864,3.55681957 4.74803883,3.80244648 4.72147573,4.19229358 C4.69502913,4.582263 4.6992233,5.06727829 4.79732039,5.61259939 L4.79732039,5.61259939 Z M1.31697087,2.92954128 C1.1758835,2.85761468 1.02116505,3.01810398 0.93168932,3.40525994 L1.31697087,2.92954128 Z M1.1351068,2.83522936 C1.00019417,2.7711315 0.887650485,2.80415902 0.719533981,3.17834862 L1.1351068,2.83522936 Z M0.864582524,2.68379205 C0.761359223,2.60232416 0.62807767,2.72012232 0.561436893,2.89577982 L0.864582524,2.68379205 Z" id="Stroke-6"></path>
                        <path d="M5.43798058,5.64550459 C5.3375534,5.05577982 5.51965049,4.97076453 5.30225243,4.2795107 C5.17153398,3.86385321 5.088,3.34287462 5.08590291,3.10042813 L4.99852427,3.1270948 C5.00062136,3.36954128 5.08427184,3.8906422 5.21487379,4.30629969 C5.42516505,4.9746789 5.26170874,5.07620795 5.34163107,5.61553517 C5.3663301,5.62079511 5.41817476,5.63816514 5.43798058,5.64550459" id="Fill-7" fill="#FFF101"></path>
                        <path d="M5.43798058,5.64550459 C5.3375534,5.05577982 5.51965049,4.97076453 5.30225243,4.2795107 C5.17153398,3.86385321 5.088,3.34287462 5.08590291,3.10042813 L4.99852427,3.1270948 C5.00062136,3.36954128 5.08427184,3.8906422 5.21487379,4.30629969 C5.42516505,4.9746789 5.26170874,5.07620795 5.34163107,5.61553517 C5.3663301,5.62079511 5.41817476,5.63816514 5.43798058,5.64550459 L5.43798058,5.64550459 Z" id="Stroke-8"></path>
                        <path d="M4.92349515,5.58079511 C4.92419417,5.5058104 4.91965049,5.42752294 4.90858252,5.36024465 C5.06225243,5.32146789 5.32543689,5.47058104 5.31809709,5.35975535 C5.3158835,5.32464832 5.31926214,5.2111315 5.32135922,5.15094801 C5.31798058,5.24501529 4.95203883,5.08623853 4.88900971,5.12721713 C4.82132039,4.78409786 4.90520388,4.43107034 4.85149515,4.21565749 C4.97370874,4.18055046 5.1983301,4.25712538 5.17083495,4.15657492 C5.1552233,4.10507645 5.12539806,3.97700306 5.10570874,3.89688073 C5.12493204,3.98079511 4.94656311,3.91131498 4.88621359,3.95926606 C4.85487379,3.77321101 4.80908738,3.42018349 4.81001942,3.25883792 L4.64994175,3.25712538 C4.64737864,3.55681957 4.74803883,3.80244648 4.72147573,4.19229358 C4.69502913,4.582263 4.6992233,5.06727829 4.79732039,5.61259939 C4.83238835,5.60183486 4.89017476,5.58801223 4.92349515,5.58079511" id="Fill-9" fill="#FFF101"></path>
                        <path d="M4.92349515,5.58079511 C4.92419417,5.5058104 4.91965049,5.42752294 4.90858252,5.36024465 C5.06225243,5.32146789 5.32543689,5.47058104 5.31809709,5.35975535 C5.3158835,5.32464832 5.31926214,5.2111315 5.32135922,5.15094801 C5.31798058,5.24501529 4.95203883,5.08623853 4.88900971,5.12721713 C4.82132039,4.78409786 4.90520388,4.43107034 4.85149515,4.21565749 C4.97370874,4.18055046 5.1983301,4.25712538 5.17083495,4.15657492 C5.1552233,4.10507645 5.12539806,3.97700306 5.10570874,3.89688073 C5.12493204,3.98079511 4.94656311,3.91131498 4.88621359,3.95926606 C4.85487379,3.77321101 4.80908738,3.42018349 4.81001942,3.25883792 L4.64994175,3.25712538 C4.64737864,3.55681957 4.74803883,3.80244648 4.72147573,4.19229358 C4.69502913,4.582263 4.6992233,5.06727829 4.79732039,5.61259939 C4.83238835,5.60183486 4.89017476,5.58801223 4.92349515,5.58079511 L4.92349515,5.58079511 Z M3.72151456,2.35094801 C3.55607767,2.42544343 3.77533981,2.92623853 3.96850485,3.28415902 L3.72151456,2.35094801 Z M3.96932039,3.39474006 C3.90291262,3.42945838 3.83405825,3.46137683 3.7632233,3.48909548 L3.96932039,3.39474006 Z M2.73739806,3.66984709 C2.68438835,3.68440639 2.63335922,3.70022562 2.58384466,3.71730479 L2.73739806,3.66984709 Z" id="Stroke-10"></path>
                        <path d="M4.5192233,2.84134557 C4.28062136,3.2030581 3.71067961,3.45272171 3.18372816,3.50788991 C2.56695146,3.57247706 2.1528932,3.78801223 1.848,3.99902141 C1.82178641,3.94948012 1.77448544,3.92281346 1.73266019,3.89015291 C1.28656311,3.54324159 1.46994175,3.07314985 1.63887379,3.14030581 C1.57514563,3.11437309 1.53809709,3.07938838 1.50326214,3.05308869 C1.44431068,3.00721713 1.27421359,3.18299694 1.29553398,3.46214067 C1.30462136,3.58103976 1.4015534,3.7564526 1.48042718,3.84941896 C1.33642718,3.82189602 1.26745631,3.78324159 1.18287379,3.6759633 C1.23040777,3.64489297 1.29192233,3.62727829 1.3415534,3.62324159 C1.32466019,3.58067278 1.30112621,3.53345566 1.29553398,3.46214067 C1.22504854,3.46152905 1.13906796,3.48733945 1.06532039,3.53993884 C0.888349515,3.35486239 0.706135922,3.20721713 0.600466019,2.98874618 C0.431417476,2.63877676 0.603378641,2.41785933 0.826019417,2.65149847 C0.621902913,2.45993884 0.490951456,2.31535168 0.352893204,2.25675841 C0.214834951,2.19804281 -0.0188737864,2.32844037 0.0798058252,2.63877676 C0.302446602,3.33969419 0.827300971,3.45321101 1.05262136,4.1083792 C1.15899029,4.41810398 1.31580583,4.65944954 1.64819417,4.41614679 C1.692,4.38409786 1.70365049,4.37651376 1.74174757,4.34813456 C1.84718447,4.28415902 2.01425243,4.39155963 1.99642718,4.62507645 C2.08182524,4.4106422 2.02730097,4.34495413 1.95483495,4.21639144 C1.90124272,4.24636086 1.9055534,4.07082569 1.87246602,4.04770642 C2.06213592,3.92391437 2.29281553,3.79975535 2.58384466,3.71131498 C2.59456311,3.81614679 2.62205825,3.92746177 2.71398058,3.91131498 C2.76326214,3.89981651 2.81324272,3.88941896 2.86578641,3.88024465 C2.77386408,3.89639144 2.748,3.77455657 2.73739806,3.66984709 C2.87533981,3.63657492 3.02609709,3.61137615 3.19130097,3.59718654 C3.3816699,3.58079511 3.5784466,3.54018349 3.7632233,3.47718654 C3.79071845,3.577737 3.84757282,3.74715596 3.94229126,3.71388379 C4.02629126,3.68562691 4.10796117,3.65370031 4.18462136,3.61663609 C4.05285437,3.68256881 4.00100971,3.49431193 3.96932039,3.39474006 C4.21013592,3.28477064 4.41530097,3.13480122 4.53798058,2.95584098 L4.5192233,2.84134557" id="Fill-11" fill="#FFF101"></path>
                        <path d="M4.5192233,2.84134557 C4.28062136,3.2030581 3.71067961,3.45272171 3.18372816,3.50788991 C2.56695146,3.57247706 2.1528932,3.78801223 1.848,3.99902141 C1.82178641,3.94948012 1.77448544,3.92281346 1.73266019,3.89015291 C1.28656311,3.54324159 1.46994175,3.07314985 1.63887379,3.14030581 C1.57514563,3.11437309 1.53809709,3.07938838 1.50326214,3.05308869 C1.44431068,3.00721713 1.27421359,3.18299694 1.29553398,3.46214067 C1.30462136,3.58103976 1.4015534,3.7564526 1.48042718,3.84941896 C1.33642718,3.82189602 1.26745631,3.78324159 1.18287379,3.6759633 C1.23040777,3.64489297 1.29192233,3.62727829 1.3415534,3.62324159 C1.32466019,3.58067278 1.30112621,3.53345566 1.29553398,3.46214067 C1.22504854,3.46152905 1.13906796,3.48733945 1.06532039,3.53993884 C0.888349515,3.35486239 0.706135922,3.20721713 0.600466019,2.98874618 C0.431417476,2.63877676 0.603378641,2.41785933 0.826019417,2.65149847 C0.621902913,2.45993884 0.490951456,2.31535168 0.352893204,2.25675841 C0.214834951,2.19804281 -0.0188737864,2.32844037 0.0798058252,2.63877676 C0.302446602,3.33969419 0.827300971,3.45321101 1.05262136,4.1083792 C1.15899029,4.41810398 1.31580583,4.65944954 1.64819417,4.41614679 C1.692,4.38409786 1.70365049,4.37651376 1.74174757,4.34813456 C1.84718447,4.28415902 2.01425243,4.39155963 1.99642718,4.62507645 C2.08182524,4.4106422 2.02730097,4.34495413 1.95483495,4.21639144 C1.90124272,4.24636086 1.9055534,4.07082569 1.87246602,4.04770642 C2.06213592,3.92391437 2.29281553,3.79975535 2.58384466,3.71131498 C2.59456311,3.81614679 2.62205825,3.92746177 2.71398058,3.91131498 C2.76326214,3.89981651 2.81324272,3.88941896 2.86578641,3.88024465 C2.77386408,3.89639144 2.748,3.77455657 2.73739806,3.66984709 C2.87533981,3.63657492 3.02609709,3.61137615 3.19130097,3.59718654 C3.3816699,3.58079511 3.5784466,3.54018349 3.7632233,3.47718654 C3.79071845,3.577737 3.84757282,3.74715596 3.94229126,3.71388379 C4.02629126,3.68562691 4.10796117,3.65370031 4.18462136,3.61663609 C4.05285437,3.68256881 4.00100971,3.49431193 3.96932039,3.39474006 C4.21013592,3.28477064 4.41530097,3.13480122 4.53798058,2.95584098 L4.5192233,2.84134557 L4.5192233,2.84134557 Z" id="Stroke-12"></path>
                        <path d="M5.57315899,3.02092919 C5.68943083,2.92625029 5.78927549,2.88147965 5.68896481,2.68099035 C5.52492598,2.3531616 5.62684398,2.352036 5.26765952,2.14347331 C4.90183427,1.93136322 4.9480867,1.91472713 4.46400903,2.09393202 C4.34494107,2.13796872 4.37150418,2.18298401 4.39235855,2.36426842 C4.43721291,2.75497178 4.52248544,3.06960245 4.60042718,3.39107034 C4.90473786,3.3493578 5.37288714,3.18423194 5.57315899,3.02092919 Z" id="Fill-13" fill="#FFF101"></path>
                        <path d="M4.4375534,2.93211009 C4.37370874,2.74030581 4.39083495,2.76636086 4.62221359,2.8248318 C4.69794175,2.57198777 4.80253257,2.35858246 4.86113451,2.15393414 C4.92661024,1.92482099 4.94711509,1.88359775 5.04346461,1.93974454 C5.16672674,2.0114265 5.30210538,2.08714515 5.39029956,2.13264974 C5.54431898,2.21191579 5.52160053,2.23968338 5.44808597,2.36567726 C5.3745714,2.49167114 5.13413592,2.74703364 4.98582524,3.01345566 C5.18143689,3.15804281 5.24423301,3.1711315 5.10524272,3.2333945 C4.94970874,3.30299694 4.69130097,3.38923547 4.58248544,3.40966361 C4.56256311,3.28379205 4.49825243,3.11400612 4.4375534,2.93211009 Z" id="Fill-15" fill="#FFF101"></path>
                        <polyline id="Fill-17" fill="#FFF101" points="2.1408932 4.73577982 2.12551456 4.93308869 1.98699029 4.80097859 1.83203883 4.91143731 1.84229126 4.71449541 1.66392233 4.65785933 1.81631068 4.54311927 1.74908738 4.36012232 1.92792233 4.41492355 2.02240777 4.24550459 2.09417476 4.42642202 2.27871845 4.39718654 2.18831068 4.56978593 2.32438835 4.70311927 2.1408932 4.73577982"></polyline>
                        <polygon id="Stroke-18" points="2.1408932 4.73577982 2.12551456 4.93308869 1.98699029 4.80097859 1.83203883 4.91143731 1.84229126 4.71449541 1.66392233 4.65785933 1.81631068 4.54311927 1.74908738 4.36012232 1.92792233 4.41492355 2.02240777 4.24550459 2.09417476 4.42642202 2.27871845 4.39718654 2.18831068 4.56978593 2.32438835 4.70311927"></polygon>
                        <path d="M6.01700971,7.36232416 C5.75382524,7.11082569 5.64291262,6.64501529 5.73879612,6.23620795 C5.5367767,5.98642202 5.04885437,5.90874618 4.70376699,6.00220183 C3.7681165,6.69663609 3.39273786,7.82899083 2.99254369,8.34678899 C2.86601942,8.51045872 2.77712621,8.9675841 3.06908738,9.21027523 C3.30908738,9.40966361 3.30500971,9.58654434 4.19545631,10.2052599 C4.67697087,10.5398165 5.12365049,10.7963303 5.27825243,10.9805505 C5.43297087,11.1647706 5.58943689,11.3631804 5.55669903,11.6052599 C5.51172816,11.9383486 5.60574757,12.2243425 5.56019417,12.4538226 C5.50415534,12.7351682 5.4504466,12.9266055 5.47106796,13.0814679 C5.49180583,13.2363303 5.71607767,13.3836086 5.92275728,13.1387156 C6.38947573,12.5858104 6.2207767,12.0518654 6.64858252,11.5193884 C6.85071845,11.2677676 6.9672233,11.0138226 6.60466019,10.8238532 C6.24198058,10.6340061 5.74601942,10.355474 5.31168932,9.63155963 C5.02007767,9.1453211 4.56337864,8.73688073 4.14768932,8.67400612 C4.39619417,8.5266055 4.54858252,8.31217125 4.88341748,8.1412844 C5.21825243,7.97039755 5.61623301,7.72428135 6.01700971,7.36232416" id="Fill-19" fill="#FFFFFF"></path>
                        <path d="M6.01700971,7.36232416 C5.75382524,7.11082569 5.64291262,6.64501529 5.73879612,6.23620795 C5.5367767,5.98642202 5.04885437,5.90874618 4.70376699,6.00220183 C3.7681165,6.69663609 3.39273786,7.82899083 2.99254369,8.34678899 C2.86601942,8.51045872 2.77712621,8.9675841 3.06908738,9.21027523 C3.30908738,9.40966361 3.30500971,9.58654434 4.19545631,10.2052599 C4.67697087,10.5398165 5.12365049,10.7963303 5.27825243,10.9805505 C5.43297087,11.1647706 5.58943689,11.3631804 5.55669903,11.6052599 C5.51172816,11.9383486 5.60574757,12.2243425 5.56019417,12.4538226 C5.50415534,12.7351682 5.4504466,12.9266055 5.47106796,13.0814679 C5.49180583,13.2363303 5.71607767,13.3836086 5.92275728,13.1387156 C6.38947573,12.5858104 6.2207767,12.0518654 6.64858252,11.5193884 C6.85071845,11.2677676 6.9672233,11.0138226 6.60466019,10.8238532 C6.24198058,10.6340061 5.74601942,10.355474 5.31168932,9.63155963 C5.02007767,9.1453211 4.56337864,8.73688073 4.14768932,8.67400612 C4.39619417,8.5266055 4.54858252,8.31217125 4.88341748,8.1412844 C5.21825243,7.97039755 5.61623301,7.72428135 6.01700971,7.36232416 L6.01700971,7.36232416 Z M5.544,11.8685015 C5.55530097,12.0326606 5.76500971,12.0930887 6.12897087,11.9809174 L5.544,11.8685015 Z M5.55716505,12.0809786 C5.57161165,12.2355963 5.65526214,12.3214679 6.048,12.2872171 L5.55716505,12.0809786 Z M5.56753398,12.4026911 C5.55192233,12.5372477 5.71572816,12.599633 5.89386408,12.5722324 L5.56753398,12.4026911 Z" id="Stroke-20"></path>
                        <path d="M5.72365049,6.76330275 C5.28757282,7.14948012 5.1263301,7.02629969 4.66485437,7.56966361 C4.38745631,7.89639144 3.99949515,8.2329052 3.80050485,8.3559633 L3.86621359,8.42201835 C4.06520388,8.29896024 4.45316505,7.96244648 4.73067961,7.63571865 C5.1768932,7.11033639 5.3423301,7.20819572 5.74730097,6.8658104 C5.73926214,6.84085627 5.72749515,6.78495413 5.72365049,6.76330275" id="Fill-21" fill="#FFF101"></path>
                        <path d="M5.72365049,6.76330275 C5.28757282,7.14948012 5.1263301,7.02629969 4.66485437,7.56966361 C4.38745631,7.89639144 3.99949515,8.2329052 3.80050485,8.3559633 L3.86621359,8.42201835 C4.06520388,8.29896024 4.45316505,7.96244648 4.73067961,7.63571865 C5.1768932,7.11033639 5.3423301,7.20819572 5.74730097,6.8658104 C5.73926214,6.84085627 5.72749515,6.78495413 5.72365049,6.76330275 L5.72365049,6.76330275 Z" id="Stroke-22"></path>
                        <path d="M5.92753398,7.26348624 C5.86543689,7.30030581 5.8031068,7.34360856 5.75312621,7.38727829 C5.64431068,7.26691131 5.63568932,6.95302752 5.54807767,7.01529052 C5.5201165,7.03461774 5.42481553,7.08844037 5.37401942,7.11657492 C5.45347573,7.07266055 5.50532039,7.48477064 5.57067961,7.52159021 C5.32147573,7.75474006 4.98838835,7.85492355 4.83763107,8.01149847 C4.74757282,7.91779817 4.69840777,7.67547401 4.62920388,7.75070336 C4.59460194,7.79058104 4.50384466,7.88171254 4.44757282,7.93969419 C4.5072233,7.88024465 4.53902913,8.07718654 4.60869903,8.10801223 C4.47099029,8.22960245 4.20267961,8.44770642 4.06904854,8.5275841 L4.14768932,8.67400612 C4.39619417,8.5266055 4.54858252,8.31217125 4.88341748,8.1412844 C5.21825243,7.97039755 5.61623301,7.72428135 6.01700971,7.36232416 C5.99056311,7.33577982 5.95013592,7.29015291 5.92753398,7.26348624" id="Fill-23" fill="#FFF101"></path>
                        <path d="M5.92753398,7.26348624 C5.86543689,7.30030581 5.8031068,7.34360856 5.75312621,7.38727829 C5.64431068,7.26691131 5.63568932,6.95302752 5.54807767,7.01529052 C5.5201165,7.03461774 5.42481553,7.08844037 5.37401942,7.11657492 C5.45347573,7.07266055 5.50532039,7.48477064 5.57067961,7.52159021 C5.32147573,7.75474006 4.98838835,7.85492355 4.83763107,8.01149847 C4.74757282,7.91779817 4.69840777,7.67547401 4.62920388,7.75070336 C4.59460194,7.79058104 4.50384466,7.88171254 4.44757282,7.93969419 C4.5072233,7.88024465 4.53902913,8.07718654 4.60869903,8.10801223 C4.47099029,8.22960245 4.20267961,8.44770642 4.06904854,8.5275841 L4.14768932,8.67400612 C4.39619417,8.5266055 4.54858252,8.31217125 4.88341748,8.1412844 C5.21825243,7.97039755 5.61623301,7.72428135 6.01700971,7.36232416 C5.99056311,7.33577982 5.95013592,7.29015291 5.92753398,7.26348624 L5.92753398,7.26348624 Z M3.86446602,9.97125382 C4.00869903,10.0844037 4.31219417,9.63474006 4.51071845,9.28024465 L3.86446602,9.97125382 Z M4.60159223,9.22409786 C4.65984466,9.26923547 4.71728155,9.31792049 4.77262136,9.37027523 L4.60159223,9.22409786 Z M5.44438835,10.2067278 C5.48692168,10.2546055 5.52905502,10.2998233 5.57145502,10.3426612 L5.44438835,10.2067278 Z" id="Stroke-24"></path>
                        <path d="M3.87017476,9.00073394 C4.28784466,9.03681957 4.77867961,9.43021407 5.08765049,9.88183486 C5.44928155,10.4103976 5.83421359,10.6790214 6.16066019,10.8507645 C6.13293204,10.8994495 6.13456311,10.9557187 6.12862136,11.0101529 C6.06547573,11.5892355 5.58605825,11.6574924 5.55693204,11.4703364 C5.56741748,11.5412844 5.55704854,11.5924159 5.55285437,11.6373089 C5.54446602,11.7138838 5.77456311,11.7805505 5.99405825,11.6216514 C6.08761165,11.5538838 6.18372816,11.378104 6.22112621,11.2599388 C6.27029126,11.404526 6.27285437,11.4866055 6.22683495,11.6171254 C6.17732039,11.5894801 6.1321165,11.542263 6.10392233,11.4993272 C6.07724272,11.5359021 6.05009709,11.5809174 5.99405825,11.6216514 C6.0287767,11.6861162 6.09308738,11.751315 6.17335922,11.7920489 C6.10916505,12.0455046 6.07852427,12.2850153 5.95106796,12.4902752 C5.74706796,12.8189602 5.47875728,12.7730887 5.56019417,12.4538226 C5.50415534,12.7351682 5.4504466,12.9266055 5.47106796,13.0814679 C5.49180583,13.2363303 5.71607767,13.3836086 5.92275728,13.1387156 C6.38947573,12.5858104 6.2207767,12.0518654 6.64858252,11.5193884 C6.85071845,11.2677676 6.97153398,11.004526 6.60466019,10.8238532 C6.55619417,10.8001223 6.54419417,10.7933945 6.50178641,10.772844 C6.39623301,10.7089908 6.40135922,10.5033639 6.60279612,10.4028135 C6.38330097,10.4324159 6.35638835,10.5148624 6.28660194,10.6450153 C6.33798058,10.6786544 6.19106796,10.7625688 6.18850485,10.8042813 C5.99161165,10.6937003 5.77398058,10.546055 5.55541748,10.3255046 C5.63662136,10.2634862 5.71467961,10.1827523 5.65526214,10.1072783 C5.62112621,10.0682569 5.58757282,10.0278899 5.5536699,9.98470948 C5.61308738,10.0603058 5.52559223,10.1445872 5.44438835,10.2067278 C5.34803883,10.0979817 5.25192233,9.97345566 5.1575534,9.83033639 C5.04885437,9.6653211 4.91697087,9.50678899 4.77262136,9.37027523 C4.84182524,9.29492355 4.95308738,9.15865443 4.87829126,9.08905199 C4.81304854,9.02678899 4.74582524,8.96844037 4.67697087,8.91743119 C4.79720388,9.00428135 4.66776699,9.14556575 4.60159223,9.22409786 C4.39036893,9.06018349 4.1641165,8.94850153 3.9552233,8.9266055 L3.87017476,9.00073394" id="Fill-25" fill="#FFF101"></path>
                        <path d="M3.87017476,9.00073394 C4.28784466,9.03681957 4.77867961,9.43021407 5.08765049,9.88183486 C5.44928155,10.4103976 5.83421359,10.6790214 6.16066019,10.8507645 C6.13293204,10.8994495 6.13456311,10.9557187 6.12862136,11.0101529 C6.06547573,11.5892355 5.58605825,11.6574924 5.55693204,11.4703364 C5.56741748,11.5412844 5.55704854,11.5924159 5.55285437,11.6373089 C5.54446602,11.7138838 5.77456311,11.7805505 5.99405825,11.6216514 C6.08761165,11.5538838 6.18372816,11.378104 6.22112621,11.2599388 C6.27029126,11.404526 6.27285437,11.4866055 6.22683495,11.6171254 C6.17732039,11.5894801 6.1321165,11.542263 6.10392233,11.4993272 C6.07724272,11.5359021 6.05009709,11.5809174 5.99405825,11.6216514 C6.0287767,11.6861162 6.09308738,11.751315 6.17335922,11.7920489 C6.10916505,12.0455046 6.07852427,12.2850153 5.95106796,12.4902752 C5.74706796,12.8189602 5.47875728,12.7730887 5.56019417,12.4538226 C5.50415534,12.7351682 5.4504466,12.9266055 5.47106796,13.0814679 C5.49180583,13.2363303 5.71607767,13.3836086 5.92275728,13.1387156 C6.38947573,12.5858104 6.2207767,12.0518654 6.64858252,11.5193884 C6.85071845,11.2677676 6.97153398,11.004526 6.60466019,10.8238532 C6.55619417,10.8001223 6.54419417,10.7933945 6.50178641,10.772844 C6.39623301,10.7089908 6.40135922,10.5033639 6.60279612,10.4028135 C6.38330097,10.4324159 6.35638835,10.5148624 6.28660194,10.6450153 C6.33798058,10.6786544 6.19106796,10.7625688 6.18850485,10.8042813 C5.99161165,10.6937003 5.77398058,10.546055 5.55541748,10.3255046 C5.63662136,10.2634862 5.71467961,10.1827523 5.65526214,10.1072783 C5.62112621,10.0682569 5.58757282,10.0278899 5.5536699,9.98470948 C5.61308738,10.0603058 5.52559223,10.1445872 5.44438835,10.2067278 C5.34803883,10.0979817 5.25192233,9.97345566 5.1575534,9.83033639 C5.04885437,9.6653211 4.91697087,9.50678899 4.77262136,9.37027523 C4.84182524,9.29492355 4.95308738,9.15865443 4.87829126,9.08905199 C4.81304854,9.02678899 4.74582524,8.96844037 4.67697087,8.91743119 C4.79720388,9.00428135 4.66776699,9.14556575 4.60159223,9.22409786 C4.39036893,9.06018349 4.1641165,8.94850153 3.9552233,8.9266055 L3.87017476,9.00073394 L3.87017476,9.00073394 Z" id="Stroke-26"></path>
                        <path d="M3.32178641,8.03107034 C3.18547573,7.97272171 3.25273568,7.89385158 3.13751237,8.08528889 C2.94912403,8.39831641 2.91272086,8.32623425 2.92041018,8.75718227 C2.92821601,9.19571438 3.00932039,9.12574923 3.39926214,9.47633027 C3.69902913,9.24036697 4.05681553,8.88366972 4.28295146,8.65198777 C4.09642718,8.39620795 3.55654369,8.13174312 3.32178641,8.03107034 Z" id="Fill-27" fill="#FFF101"></path>
                        <path d="M3.98586408,9.02960245 C3.85957282,9.18360856 3.87250485,9.15510703 3.80504854,8.91535168 C3.55864078,8.97284404 3.36857218,9.03926604 3.17063043,9.08831803 C2.94880519,9.14324158 2.90464985,9.14519876 2.90266926,9.02960243 C2.90022266,8.8815902 2.89509645,8.72073393 2.88845567,8.61773699 C2.87692169,8.43816512 2.91105761,8.44477063 3.05179548,8.448685 C3.19253334,8.45247705 3.4848932,8.48880734 3.77883495,8.49039755 C3.80027184,8.24024465 3.77965049,8.17663609 3.90058252,8.27192661 C4.03561165,8.37847095 4.236,8.57039755 4.30730097,8.65908257 C4.21339806,8.74006116 4.10563107,8.8835474 3.98586408,9.02960245 Z" id="Fill-29" fill="#FFF101"></path>
                        <polyline id="Fill-31" fill="#FFF101" points="6.62190291 10.2162691 6.79234951 10.1314985 6.75262136 10.3234251 6.92132039 10.4091743 6.7536699 10.4982263 6.79607767 10.6888073 6.62516505 10.6075841 6.50784466 10.7602446 6.46368932 10.5701529 6.27669903 10.5689297 6.39017476 10.4133333 6.2736699 10.2601835 6.46135922 10.2560245 6.50330097 10.0656881 6.62190291 10.2162691"></polyline>
                        <polygon id="Stroke-32" points="6.62190291 10.2162691 6.79234951 10.1314985 6.75262136 10.3234251 6.92132039 10.4091743 6.7536699 10.4982263 6.79607767 10.6888073 6.62516505 10.6075841 6.50784466 10.7602446 6.46368932 10.5701529 6.27669903 10.5689297 6.39017476 10.4133333 6.2736699 10.2601835 6.46135922 10.2560245 6.50330097 10.0656881"></polygon>
                        <path d="M6.85025243,5.37847095 C6.77452427,5.74336391 6.44563107,6.07718654 6.06058252,6.19449541 C5.95549515,6.50299694 6.13537864,6.9853211 6.38504854,7.25259939 C7.4255534,7.75608563 8.54737864,7.53125382 9.17452427,7.63620795 C9.37281553,7.6693578 9.7943301,7.52159021 9.84850485,7.13492355 C9.89300971,6.81700306 10.0408544,6.73235474 10.1059806,5.61321101 C10.141165,5.00807339 10.1293981,4.47363914 10.2040777,4.24097859 C10.2787573,4.00831804 10.3641553,3.76672783 10.5801553,3.67547401 C10.8773592,3.54984709 11.0662136,3.32122324 11.2784854,3.24795107 C11.5384078,3.15816514 11.7231845,3.11131498 11.8405049,3.0151682 C11.9579417,2.91902141 11.9672621,2.64134557 11.6620194,2.57590214 C10.9725437,2.42788991 10.6165049,2.84831804 9.96337864,2.72550459 C9.65475728,2.66752294 9.38702913,2.68844037 9.41172816,3.11327217 C9.43642718,3.53798165 9.45471845,4.12819572 9.07467961,4.88501529 C8.81941748,5.3933945 8.71095146,6.01284404 8.86683495,6.422263 C8.62100971,6.26996942 8.36796117,6.23865443 8.05968932,6.01969419 C7.75130097,5.80061162 7.34924272,5.56195719 6.85025243,5.37847095" id="Fill-33" fill="#FFFFFF"></path>
                        <path d="M6.85025243,5.37847095 C6.77452427,5.74336391 6.44563107,6.07718654 6.06058252,6.19449541 C5.95549515,6.50299694 6.13537864,6.9853211 6.38504854,7.25259939 C7.4255534,7.75608563 8.54737864,7.53125382 9.17452427,7.63620795 C9.37281553,7.6693578 9.7943301,7.52159021 9.84850485,7.13492355 C9.89300971,6.81700306 10.0408544,6.73235474 10.1059806,5.61321101 C10.141165,5.00807339 10.1293981,4.47363914 10.2040777,4.24097859 C10.2787573,4.00831804 10.3641553,3.76672783 10.5801553,3.67547401 C10.8773592,3.54984709 11.0662136,3.32122324 11.2784854,3.24795107 C11.5384078,3.15816514 11.7231845,3.11131498 11.8405049,3.0151682 C11.9579417,2.91902141 11.9672621,2.64134557 11.6620194,2.57590214 C10.9725437,2.42788991 10.6165049,2.84831804 9.96337864,2.72550459 C9.65475728,2.66752294 9.38702913,2.68844037 9.41172816,3.11327217 C9.43642718,3.53798165 9.45471845,4.12819572 9.07467961,4.88501529 C8.81941748,5.3933945 8.71095146,6.01284404 8.86683495,6.422263 C8.62100971,6.26996942 8.36796117,6.23865443 8.05968932,6.01969419 C7.75130097,5.80061162 7.34924272,5.56195719 6.85025243,5.37847095 L6.85025243,5.37847095 Z M10.8036117,3.55535168 C10.9333981,3.46299694 10.8784078,3.24207951 10.6038058,2.96721713 L10.8036117,3.55535168 Z M10.9723107,3.43718654 C11.0925437,3.34666667 11.1215534,3.22764526 10.8970485,2.88770642 L10.9723107,3.43718654 Z M11.2358317,3.26691131 C11.3716984,3.21370031 11.3368984,3.03363914 11.209165,2.88525994 L11.2358317,3.26691131 Z" id="Stroke-34"></path>
                        <path d="M6.50283495,5.94458716 C7.03945631,6.14801223 7.01848544,6.35620795 7.69735922,6.50422018 C8.10559223,6.59314985 8.57708738,6.77761468 8.77817476,6.89700306 L8.79972816,6.80415902 C8.59875728,6.68477064 8.12714563,6.50042813 7.71902913,6.41137615 C7.06252427,6.26825688 7.06054369,6.0688685 6.57565049,5.87180428 C6.5591068,5.89174312 6.51879612,5.93027523 6.50283495,5.94458716" id="Fill-35" fill="#FFF101"></path>
                        <path d="M6.50283495,5.94458716 C7.03945631,6.14801223 7.01848544,6.35620795 7.69735922,6.50422018 C8.10559223,6.59314985 8.57708738,6.77761468 8.77817476,6.89700306 L8.79972816,6.80415902 C8.59875728,6.68477064 8.12714563,6.50042813 7.71902913,6.41137615 C7.06252427,6.26825688 7.06054369,6.0688685 6.57565049,5.87180428 C6.5591068,5.89174312 6.51879612,5.93027523 6.50283495,5.94458716 L6.50283495,5.94458716 Z" id="Stroke-36"></path>
                        <path d="M6.81343689,5.50911315 C6.87495146,5.54715596 6.94182524,5.58214067 7.00275728,5.60587156 C6.95801942,5.76489297 6.70333981,5.92978593 6.79852427,5.97834862 C6.82846602,5.99412844 6.92038835,6.05382263 6.96897087,6.08587156 C6.89312621,6.03559633 7.20699029,5.78238532 7.2047767,5.70446483 C7.52178641,5.81455657 7.77087379,6.06740061 7.97545631,6.12623853 C7.94330097,6.25492355 7.76784466,6.42079511 7.86454369,6.44611621 C7.91475728,6.45761468 8.03533981,6.49455657 8.11130097,6.51669725 C8.03242718,6.49223242 8.17899029,6.36477064 8.1695534,6.28611621 C8.33871845,6.35045872 8.65269903,6.48538226 8.78539806,6.56697248 L8.86683495,6.422263 C8.62100971,6.26996942 8.36796117,6.23865443 8.05968932,6.01969419 C7.75130097,5.80061162 7.34924272,5.56195719 6.85025243,5.37847095 C6.84163107,5.41565749 6.82415534,5.47522936 6.81343689,5.50911315" id="Fill-37" fill="#FFF101"></path>
                        <path d="M6.81343689,5.50911315 C6.87495146,5.54715596 6.94182524,5.58214067 7.00275728,5.60587156 C6.95801942,5.76489297 6.70333981,5.92978593 6.79852427,5.97834862 C6.82846602,5.99412844 6.92038835,6.05382263 6.96897087,6.08587156 C6.89312621,6.03559633 7.20699029,5.78238532 7.2047767,5.70446483 C7.52178641,5.81455657 7.77087379,6.06740061 7.97545631,6.12623853 C7.94330097,6.25492355 7.76784466,6.42079511 7.86454369,6.44611621 C7.91475728,6.45761468 8.03533981,6.49455657 8.11130097,6.51669725 C8.03242718,6.49223242 8.17899029,6.36477064 8.1695534,6.28611621 C8.33871845,6.35045872 8.65269903,6.48538226 8.78539806,6.56697248 L8.86683495,6.422263 C8.62100971,6.26996942 8.36796117,6.23865443 8.05968932,6.01969419 C7.75130097,5.80061162 7.34924272,5.56195719 6.85025243,5.37847095 C6.84163107,5.41565749 6.82415534,5.47522936 6.81343689,5.50911315 L6.81343689,5.50911315 Z M10.0784854,6.03107034 C10.0998058,5.84342508 9.57704854,5.7924159 9.18535922,5.78911315 L10.0784854,6.03107034 Z M9.0936699,5.73443425 C9.10300324,5.65896024 9.1160699,5.58238532 9.13380324,5.50593272 L9.0936699,5.73443425 Z M9.48267961,4.47681957 C9.50094628,4.42214067 9.51721294,4.36892966 9.53134628,4.3164526 L9.48267961,4.47681957 Z" id="Stroke-38"></path>
                        <path d="M9.27506796,6.51119266 C9.096,6.1133945 9.1751068,5.47033639 9.39320388,4.9635474 C9.64834951,4.37039755 9.67747573,3.88611621 9.65580583,3.50348624 C9.70986408,3.50446483 9.75541748,3.47474006 9.80341748,3.45296636 C10.3125437,3.22091743 10.6085825,3.62262997 10.4686602,3.74262997 C10.5220194,3.69761468 10.5694369,3.68159021 10.608466,3.66299694 C10.6758058,3.63217125 10.6158058,3.38972477 10.3749903,3.26960245 C10.2723495,3.21834862 10.079301,3.21883792 9.96302913,3.24391437 C10.0578641,3.12685015 10.1241553,3.0835474 10.2548738,3.06018349 C10.2568544,3.11902141 10.2405437,3.18373089 10.2191068,3.23082569 C10.2626796,3.23669725 10.3133592,3.23889908 10.3749903,3.26960245 C10.4107573,3.20574924 10.4324272,3.11474006 10.4259029,3.0212844 C10.667068,2.95302752 10.8799223,2.86116208 11.112932,2.87437309 C11.4860971,2.89553517 11.5824466,3.16244648 11.2784854,3.24795107 C11.5384078,3.15816514 11.7231845,3.11131498 11.8405049,3.0151682 C11.9579417,2.91902141 11.9672621,2.64134557 11.6620194,2.57590214 C10.9725437,2.42788991 10.6165049,2.84831804 9.96337864,2.72550459 C9.65475728,2.66752294 9.37724272,2.68929664 9.41172816,3.11327217 C9.41627184,3.16917431 9.41673786,3.18348624 9.42104854,3.23229358 C9.42104854,3.36024465 9.24897087,3.45834862 9.06535922,3.32538226 C9.19945631,3.51033639 9.2808932,3.49357798 9.42314563,3.49198777 C9.42524272,3.42825688 9.56784466,3.51987768 9.60349515,3.50140673 C9.61083495,3.73577982 9.59778641,4.0075841 9.52520388,4.3164526 C9.43339806,4.27376147 9.32796117,4.2430581 9.2952233,4.33480122 C9.28007767,4.3853211 9.26365049,4.4359633 9.24500971,4.48831804 C9.27763107,4.39657492 9.39099029,4.43412844 9.48267961,4.47681957 C9.44120388,4.61883792 9.38656311,4.76856269 9.31572816,4.92587156 C9.23394175,5.10715596 9.16916505,5.30629969 9.12873786,5.50593272 C9.03203883,5.48061162 8.86392233,5.4475841 8.8438835,5.55045872 C8.82524272,5.64085627 8.81067961,5.7311315 8.80299029,5.81932722 C8.81452427,5.66654434 8.99568932,5.71351682 9.0936699,5.73443425 C9.06407767,6.00844037 9.08504854,6.26996942 9.17137864,6.47107034 L9.27506796,6.51119266" id="Fill-39" fill="#FFF101"></path>
                        <path d="M9.27506796,6.51119266 C9.096,6.1133945 9.1751068,5.47033639 9.39320388,4.9635474 C9.64834951,4.37039755 9.67747573,3.88611621 9.65580583,3.50348624 C9.70986408,3.50446483 9.75541748,3.47474006 9.80341748,3.45296636 C10.3125437,3.22091743 10.6085825,3.62262997 10.4686602,3.74262997 C10.5220194,3.69761468 10.5694369,3.68159021 10.608466,3.66299694 C10.6758058,3.63217125 10.6158058,3.38972477 10.3749903,3.26960245 C10.2723495,3.21834862 10.079301,3.21883792 9.96302913,3.24391437 C10.0578641,3.12685015 10.1241553,3.0835474 10.2548738,3.06018349 C10.2568544,3.11902141 10.2405437,3.18373089 10.2191068,3.23082569 C10.2626796,3.23669725 10.3133592,3.23889908 10.3749903,3.26960245 C10.4107573,3.20574924 10.4324272,3.11474006 10.4259029,3.0212844 C10.667068,2.95302752 10.8799223,2.86116208 11.112932,2.87437309 C11.4860971,2.89553517 11.5824466,3.16244648 11.2784854,3.24795107 C11.5384078,3.15816514 11.7231845,3.11131498 11.8405049,3.0151682 C11.9579417,2.91902141 11.9672621,2.64134557 11.6620194,2.57590214 C10.9725437,2.42788991 10.6165049,2.84831804 9.96337864,2.72550459 C9.65475728,2.66752294 9.37724272,2.68929664 9.41172816,3.11327217 C9.41627184,3.16917431 9.41673786,3.18348624 9.42104854,3.23229358 C9.42104854,3.36024465 9.24897087,3.45834862 9.06535922,3.32538226 C9.19945631,3.51033639 9.2808932,3.49357798 9.42314563,3.49198777 C9.42524272,3.42825688 9.56784466,3.51987768 9.60349515,3.50140673 C9.61083495,3.73577982 9.59778641,4.0075841 9.52520388,4.3164526 C9.43339806,4.27376147 9.32796117,4.2430581 9.2952233,4.33480122 C9.28007767,4.3853211 9.26365049,4.4359633 9.24500971,4.48831804 C9.27763107,4.39657492 9.39099029,4.43412844 9.48267961,4.47681957 C9.44120388,4.61883792 9.38656311,4.76856269 9.31572816,4.92587156 C9.23394175,5.10715596 9.16916505,5.30629969 9.12873786,5.50593272 C9.03203883,5.48061162 8.86392233,5.4475841 8.8438835,5.55045872 C8.82524272,5.64085627 8.81067961,5.7311315 8.80299029,5.81932722 C8.81452427,5.66654434 8.99568932,5.71351682 9.0936699,5.73443425 C9.06407767,6.00844037 9.08504854,6.26996942 9.17137864,6.47107034 L9.27506796,6.51119266 L9.27506796,6.51119266 Z" id="Stroke-40"></path>
                        <path d="M8.55856311,7.34277197 C8.57860194,7.49592182 8.5655534,7.60907166 8.78108738,7.61800133 C9.13351456,7.63280255 9.10485437,7.67842946 9.45646602,7.45604414 C9.81425243,7.22962212 9.82379765,7.27433348 9.91805008,6.74454755 C9.94123454,6.61427232 9.89078794,6.61586254 9.73082677,6.54418058 C9.38632192,6.38956284 9.08516505,6.40012232 8.78108738,6.31021407 C8.66330097,6.60782875 8.52407767,7.07904108 8.55856311,7.34277197 Z" id="Fill-41" fill="#FFF101"></path>
                        <path d="M9.24104854,6.39168196 C9.43130097,6.4293578 9.40124272,6.43192661 9.23732039,6.61321101 C9.408,6.80844037 9.53865122,6.94579992 9.67822404,7.10139625 C9.83445705,7.27558586 9.85810753,7.31472959 9.7637386,7.37430145 C9.64292307,7.4505094 9.51290365,7.53564702 9.43123375,7.5932617 C9.28874831,7.69356751 9.27721433,7.6590721 9.20999103,7.52916384 C9.14276773,7.39937791 9.04543689,7.11743119 8.89992233,6.84954128 C8.68275728,6.95498471 8.64058252,7.00562691 8.65875728,6.84807339 C8.67914563,6.67192661 8.73728155,6.39376147 8.77479612,6.28464832 C8.88850485,6.32941896 9.06069903,6.35571865 9.24104854,6.39168196 Z" id="Fill-43" fill="#FFF101"></path>
                        <path d="M8.77479612,6.28464832 C8.88850485,6.32941896 9.06069903,6.35571865 9.24104854,6.39168196 C9.43130097,6.4293578 9.40124272,6.43192661 9.23732039,6.61321101 C9.408,6.80844037 9.65592233,7.11926606 9.79549515,7.27486239 C9.95172816,7.44905199 9.97537864,7.48819572 9.88100971,7.54776758 C9.76019417,7.62397554 9.63017476,7.70911315 9.54850485,7.76672783 C9.40601942,7.86703364 9.39448544,7.83253823 9.32726214,7.70262997 C9.26003883,7.57284404 9.04543689,7.11743119 8.89992233,6.84954128 C8.68275728,6.95498471 8.64058252,7.00562691 8.65875728,6.84807339 C8.67914563,6.67192661 8.73728155,6.39376147 8.77479612,6.28464832 L8.77479612,6.28464832 Z" id="Stroke-44"></path>
                        <polyline id="Fill-45" fill="#FFF101" points="8.90178641 3.40146789 8.74671845 3.28880734 8.92497087 3.2288685 8.9112233 3.03266055 9.06850485 3.14055046 9.20458252 3.00672783 9.22299029 3.20269113 9.40753398 3.23302752 9.27285437 3.36831804 9.36535922 3.53883792 9.18023301 3.51351682 9.11207767 3.69602446 9.01491262 3.52746177 8.8368932 3.58458716 8.90178641 3.40146789"></polyline>
                        <polygon id="Stroke-46" points="8.90178641 3.40146789 8.74671845 3.28880734 8.92497087 3.2288685 8.9112233 3.03266055 9.06850485 3.14055046 9.20458252 3.00672783 9.22299029 3.20269113 9.40753398 3.23302752 9.27285437 3.36831804 9.36535922 3.53883792 9.18023301 3.51351682 9.11207767 3.69602446 9.01491262 3.52746177 8.8368932 3.58458716"></polygon>
                    </g>
                    <g transform="translate(0.000000, 1.957187)">
                        <path d="M4.7995334,3.66269646 C5.13327613,3.55091127 5.57052683,3.67916581 5.86016192,3.97102054 C6.16034621,3.91684745 6.48009599,3.53096613 6.58266615,3.14345384 C6.53281302,2.56846581 6.34815429,2.05147383 6.016454,1.4169276 C5.95009311,1.28997849 5.73479048,0.895728035 5.72115438,0.870223859 C5.61601034,0.673568505 5.54973399,0.535107319 5.50431527,0.410478837 C5.40691421,0.143358328 5.04473792,-0.0812108402 4.74430565,0.0439025075 C4.70512649,0.0602255616 4.66702674,0.0732294584 4.62521455,0.0849303269 C4.59834684,0.0924490798 4.57092023,0.0992199297 4.53337416,0.107814944 C4.14336475,0.197095588 3.92696603,0.273862909 3.35977907,0.570895541 C3.34397297,0.579172762 3.32803874,0.587563988 3.31194982,0.596081926 C3.15677931,0.678233688 2.69050908,0.937099353 2.64281771,0.962795447 C2.41990318,1.0829017 2.28033965,1.1461468 2.18081533,1.16718402 C1.84990697,1.2370951 1.68379632,1.23412559 1.53221849,1.1094555 C1.48246836,1.068536 1.42933455,1.03155978 1.3708636,0.996361102 C1.32475122,0.968602114 1.27672933,0.942692901 1.21862034,0.913588171 C1.18919706,0.8988511 1.0903049,0.850800608 1.07358363,0.842503439 C0.957657598,0.784980421 0.888248354,0.742450685 0.830871612,0.688611445 C0.798816235,0.658528056 0.631629389,0.49785332 0.589718134,0.459602697 C0.510682464,0.387470196 0.450957983,0.341451054 0.392755892,0.310317319 C0.380279799,0.30364355 0.367924963,0.297705259 0.355622043,0.29248378 C0.174891762,0.215619946 -0.0149906749,0.407607961 0.0728990269,0.684011287 C0.167013508,0.980302386 0.286861516,1.15024065 0.562544174,1.44157915 C0.572674101,1.45228104 0.572674101,1.45228104 0.582798017,1.46297368 C0.846028884,1.74104045 0.955774436,1.89209984 1.04577262,2.1537892 C1.18169063,2.54955489 1.35271592,2.67334745 1.65221149,2.46533666 C2.19129555,2.09092277 2.60924512,1.9142136 3.27849257,1.88727267 C3.85398306,1.86397343 4.40505798,1.63897176 4.65566358,1.3046673 L4.64266049,1.29987019 C4.64202261,1.37445494 4.64749956,1.44867509 4.65898083,1.53807464 C4.66414871,1.57831459 4.66613852,1.59191791 4.68072586,1.68912867 C4.71589888,1.92352353 4.72644975,2.05496787 4.71421274,2.23456148 C4.68272787,2.69882281 4.70250017,3.16950164 4.79016534,3.65683175 L4.7995334,3.66269646 Z M4.80447544,3.65399394 C4.71705647,3.16803246 4.69733899,2.69865856 4.72873889,2.23565004 C4.7410731,2.05463 4.73044321,1.92220123 4.69511151,1.68674894 C4.68054571,1.58968169 4.67856022,1.57610798 4.67341332,1.53603134 C4.66201775,1.44729904 4.65659212,1.37377448 4.65722301,1.30000749 L4.64421992,1.29521037 C4.39664523,1.62547164 3.84954291,1.84885131 3.27793303,1.87199344 C2.60558805,1.89905907 2.18528814,2.07676196 1.64417686,2.45258383 C1.35465903,2.65366471 1.19265427,2.53640145 1.0594712,2.14859934 C0.968561286,1.88425892 0.857748109,1.73172999 0.593126987,1.45219461 C0.58300163,1.44150044 0.58300163,1.44150044 0.572875227,1.43080228 C0.298646075,1.14099983 0.179947695,0.972691682 0.0867133516,0.679171431 C0.00272513253,0.415037833 0.18104946,0.234736093 0.35015947,0.306657872 C0.362067761,0.311711869 0.374038618,0.317465602 0.386144881,0.323941541 C0.443073244,0.354393927 0.501948327,0.399758587 0.58016417,0.471142867 C0.621905898,0.50923877 0.78898579,0.669810718 0.821166833,0.700012042 C0.879855933,0.755082728 0.950258012,0.798220813 1.06736104,0.856327861 C1.08416282,0.864664976 1.18302251,0.912699693 1.2123501,0.92738884 C1.27015427,0.956340897 1.31786612,0.982082834 1.36362001,1.00962601 C1.42151171,1.04447599 1.47406806,1.08105035 1.52323776,1.12149246 C1.67937697,1.24991419 1.84872604,1.2529416 2.18368883,1.18217393 C2.28498448,1.16076229 2.42534412,1.09715642 2.64946665,0.976399302 C2.69728378,0.950635454 3.16349154,0.691804469 3.31850674,0.609734934 C3.33457689,0.601226933 3.35049212,0.592845712 3.36627907,0.584578522 C3.93232597,0.288142929 4.14759049,0.211777963 4.53647646,0.122754499 C4.57422114,0.114114016 4.6018444,0.107294622 4.62896513,0.0997050622 C4.67130698,0.0878559739 4.70994509,0.0746683269 4.74967595,0.0581154199 C5.04174994,-0.0635171663 5.3959741,0.156121252 5.49071434,0.415944492 C5.5364463,0.5414325 5.60299052,0.680453313 5.70845539,0.877708733 C5.72215205,0.903326178 5.93740533,1.29748627 6.00368736,1.42428451 C6.33451114,2.05715396 6.51852857,2.57235049 6.56839949,3.1421064 C6.46742459,3.52173404 6.15150221,3.90299637 5.86389941,3.95798301 C5.57692183,3.66441673 5.1341916,3.53455493 4.79510738,3.64812922 L4.80447544,3.65399394 Z M1.32015134,0.96547732 C1.16669601,0.887245509 1.01157135,1.07000761 0.924613114,1.44627056 L0.937236472,1.45302601 L1.32251803,0.977307354 L1.32015134,0.96547732 Z M1.31142372,0.967402126 L0.926142169,1.44312078 L0.938765526,1.44987623 C1.02383725,1.08177613 1.17215944,0.907028431 1.31379041,0.97923216 L1.31142372,0.967402126 Z M1.1381087,0.871077479 C0.978834211,0.79540514 0.866972135,0.875078016 0.712948376,1.21790033 L0.724035019,1.22717176 L1.13960783,0.884052492 L1.1381087,0.871077479 L1.1381087,0.871077479 Z M1.13210489,0.885008148 L1.13060576,0.872033135 L0.715032942,1.2151524 L0.726119585,1.22442383 C0.877189236,0.888176697 0.981859958,0.813625806 1.13210489,0.885008148 L1.13210489,0.885008148 Z M0.86895776,0.720494266 C0.766109171,0.639322114 0.627359821,0.744167974 0.554672249,0.93576413 L0.565473284,0.944956393 L0.868618916,0.732968626 L0.86895776,0.720494266 L0.86895776,0.720494266 Z M0.860207288,0.732716743 L0.860546133,0.720242383 L0.557400502,0.932230151 L0.568201537,0.941422414 C0.637881631,0.757753628 0.767667704,0.659680862 0.860207288,0.732716743 L0.860207288,0.732716743 Z" id="Shape" fill="#000000" fill-rule="nonzero"></path>
                        <path d="M5.44514846,3.6869724 C5.41063981,3.48433198 5.40704732,3.36270648 5.41741133,3.13666442 C5.41840937,3.11493286 5.41840937,3.11493286 5.41936432,3.0932553 C5.43098014,2.82337266 5.41043974,2.64194144 5.30916677,2.31992695 C5.18819647,1.93526654 5.09548959,1.40970453 5.09318417,1.14317216 L4.99649188,1.16256684 C4.99356115,1.43797939 5.08658951,1.96523494 5.20795881,2.35150835 C5.30866057,2.67157379 5.32899458,2.8511221 5.31745565,3.11920522 C5.31650303,3.14082919 5.31650303,3.14082919 5.31550587,3.16254185 C5.30593947,3.37118609 5.30810348,3.48182786 5.33443608,3.65952401 C5.3606766,3.67020552 5.40813717,3.68536643 5.43555714,3.69552745 L5.44514846,3.6869724 L5.44514846,3.6869724 Z M5.43081271,3.68966368 L5.44040403,3.68110864 C5.4123959,3.67072966 5.3643891,3.65539427 5.34307851,3.65085594 C5.32267507,3.4807027 5.32052899,3.37097777 5.33005213,3.16327709 C5.33104953,3.14155937 5.33104953,3.14155937 5.33200391,3.11989553 C5.3436192,2.85003825 5.32307626,2.66864505 5.22178785,2.34671505 C5.1008657,1.96186474 5.00810903,1.43614902 5.00580552,1.16983883 L5.0879353,1.15058301 C5.08094172,1.41153515 5.17392054,1.93863883 5.29533806,2.32472128 C5.39602394,2.64486905 5.41635555,2.82445599 5.40481606,3.09256502 C5.40386287,3.11420268 5.40386287,3.11420268 5.40286507,3.13592918 C5.39245303,3.36301874 5.39607628,3.48568574 5.43081271,3.68966368 L5.43081271,3.68966368 Z" id="Shape" fill="#000000" fill-rule="nonzero"></path>
                        <path d="M4.93077635,3.62368339 C4.93151408,3.54454699 4.92644841,3.46674118 4.91575783,3.40175683 C4.94887382,3.40075403 4.99665578,3.40238951 5.05842458,3.4131683 C5.07947329,3.41684135 5.1005465,3.42121709 5.13024778,3.42787555 C5.22344567,3.44876874 5.23689495,3.451406 5.2652826,3.45196905 C5.30618077,3.45278023 5.32771007,3.43750619 5.3253611,3.40203846 C5.32356577,3.37356427 5.32528048,3.29033722 5.32863591,3.19404099 L5.31408284,3.19347336 C5.31344788,3.2111518 5.293423,3.21864158 5.251798,3.21586685 C5.21732366,3.21356879 5.17781085,3.20581654 5.10218693,3.18808881 C5.09802132,3.18711171 5.09802132,3.18711171 5.09385626,3.18613313 C4.95526165,3.15356348 4.91093852,3.14678116 4.88517624,3.1635306 L4.89613992,3.16847993 C4.89170305,3.14598931 4.88784613,3.12307405 4.88453699,3.09968199 C4.86612777,2.96954853 4.86503403,2.85940646 4.87313446,2.64384865 C4.88147316,2.42195062 4.88014181,2.34317715 4.85853933,2.25653479 C4.88369405,2.25714774 4.92137788,2.25483265 4.97424994,2.25668418 C4.98676335,2.25712239 4.99808025,2.25767638 5.01833879,2.25877946 C5.08772088,2.26255731 5.11182658,2.26279775 5.13661425,2.25775586 C5.1716765,2.25062408 5.18704802,2.23097539 5.17783376,2.19727862 C5.1698846,2.17104628 5.15842494,2.1261248 5.14086539,2.0538072 C5.13974701,2.04919936 5.13974701,2.04919936 5.1386293,2.04458744 C5.1415343,2.05657808 5.11800543,1.95913202 5.11275938,1.93778415 L5.09862909,1.94148207 C5.10273002,1.95938364 5.09698316,1.9680595 5.07980212,1.97284128 C5.0648441,1.97700434 5.04844761,1.97744467 5.00575388,1.97621885 C4.99645749,1.97595287 4.99645749,1.97595287 4.98705297,1.9757436 C4.9336859,1.97472027 4.90299803,1.97915568 4.88181959,1.99598313 L4.89338387,2.00074805 C4.85426325,1.76850065 4.81648879,1.44227072 4.81730084,1.30169775 L4.65001594,1.29229397 C4.64202261,1.37445494 4.64749956,1.44867509 4.65898083,1.53807464 C4.66414871,1.57831459 4.66613852,1.59191791 4.68072586,1.68912867 C4.71589888,1.92352353 4.72644975,2.05496787 4.71421274,2.23456148 C4.68272787,2.69882281 4.70250017,3.16950164 4.79016534,3.65683175 C4.82988351,3.6533825 4.88371061,3.64003205 4.92496631,3.63109616 L4.93077635,3.62368339 Z M4.92202399,3.61612097 C4.88041626,3.62513311 4.82624285,3.63856946 4.7952771,3.64807476 C4.71705647,3.16803246 4.69733899,2.69865856 4.72873889,2.23565004 C4.7410731,2.05463 4.73044321,1.92220123 4.69511151,1.68674894 C4.68054571,1.58968169 4.67856022,1.57610798 4.67341332,1.53603134 C4.66201775,1.44729904 4.65659212,1.37377448 4.65722301,1.30000749 L4.80994523,1.30929624 C4.80191923,1.44334206 4.83977964,1.77031431 4.87904331,2.00341097 L4.89060759,2.00817589 C4.90819954,1.9941981 4.93674708,1.99007204 4.98678704,1.99103157 C4.99608439,1.99123844 4.99608439,1.99123844 5.00535578,1.99150365 C5.04974441,1.99277814 5.06663485,1.99232454 5.08353358,1.98762135 C5.10796214,1.98082247 5.11885317,1.96438059 5.11278838,1.9379063 L5.09865809,1.94160423 C5.10389512,1.96291544 5.12741235,2.06031326 5.12451565,2.04835691 C5.12563425,2.05297248 5.12563425,2.05297248 5.12675365,2.05758454 C5.14439208,2.13022701 5.15588662,2.17528519 5.16389639,2.20170716 C5.17040084,2.22550543 5.1612802,2.23716392 5.13384448,2.24274443 C5.11074831,2.24744227 5.08696407,2.24720504 5.01909302,2.24350946 C4.99874943,2.24240175 4.9873638,2.24184439 4.9747354,2.24140216 C4.92050967,2.23950322 4.88161411,2.24189275 4.84957358,2.2510967 C4.86553408,2.34496644 4.86685491,2.42311668 4.85858268,2.64324582 C4.85044754,2.85972701 4.85154816,2.97056122 4.87013191,3.10192845 C4.87348091,3.12560228 4.87738577,3.14880234 4.8818795,3.17158123 L4.89284318,3.17653057 C4.91333036,3.16321076 4.96007706,3.17036393 5.09067544,3.20105448 C5.09484303,3.20203365 5.09484303,3.20203365 5.09901359,3.20301191 C5.17542577,3.22092442 5.21535882,3.22875912 5.25087526,3.23112665 C5.29984941,3.23439127 5.32755889,3.22402726 5.3286356,3.19404958 L5.31408254,3.19348195 C5.31069962,3.29056699 5.308985,3.37378975 5.31083144,3.40307383 C5.31246709,3.42777164 5.29897444,3.43734405 5.26555766,3.43668126 C5.23858589,3.43614629 5.22500814,3.43348384 5.1332887,3.41292209 C5.10338856,3.40621905 5.08212593,3.40180398 5.06081222,3.39808469 C4.99728369,3.38699882 4.94777903,3.38530438 4.90688097,3.39562451 C4.9119368,3.46836502 4.91694357,3.54526625 4.91621394,3.62353374 L4.92202399,3.61612097 Z M3.71864451,0.386735133 C3.6370484,0.423477456 3.6376879,0.55370131 3.70364291,0.756552548 C3.75638665,0.918771215 3.84982455,1.12257438 3.96216968,1.33074157 L3.97552056,1.32492552 L3.72853027,0.391714514 L3.71864451,0.386735133 Z M3.71449885,0.395808422 L3.96148914,1.32901943 L3.97484003,1.32320338 C3.86290317,1.1157927 3.7698253,0.912774799 3.71742505,0.751612589 C3.6538714,0.556146943 3.65326573,0.432812283 3.72438461,0.400787803 L3.71449885,0.395808422 Z M3.96641533,1.43054306 C3.89788232,1.46637246 3.82939523,1.49782576 3.76096855,1.52460202 L3.76581582,1.54109778 L3.97191291,1.44674236 L3.96641533,1.43054306 L3.96641533,1.43054306 Z M3.97222545,1.44660855 L3.96672787,1.43040924 L3.76063078,1.52476466 L3.76547805,1.54126042 C3.83435783,1.51430685 3.90327739,1.48265494 3.97222545,1.44660855 L3.97222545,1.44660855 Z M2.73577555,1.7052075 C2.68315661,1.71965947 2.63198412,1.73548701 2.58183557,1.75278487 L2.5856585,1.76966857 L2.73921189,1.72221087 L2.73577555,1.7052075 L2.73577555,1.7052075 Z M2.73902057,1.72225965 L2.73558422,1.70525629 L2.58203082,1.75271398 L2.58585376,1.76959768 C2.63574555,1.75238839 2.68666022,1.7366406 2.73902057,1.72225965 L2.73902057,1.72225965 Z" id="Shape" fill="#000000" fill-rule="nonzero"></path>
                        <path d="M4.51323727,0.879806047 C4.28781507,1.22153854 3.74044375,1.48473589 3.18300568,1.54309583 C2.64573906,1.59935691 2.23363768,1.76578768 1.84399261,2.03545157 C1.83633204,2.00404093 1.81523768,1.98447386 1.76334479,1.94651997 C1.763249,1.9464499 1.763249,1.9464499 1.76315321,1.94637984 C1.75000759,1.93676528 1.74411822,1.93238581 1.73700565,1.92683175 C1.53928012,1.77306874 1.4493695,1.58066449 1.46239107,1.40335535 C1.47314705,1.2568958 1.55656571,1.15857404 1.63629546,1.1902692 L1.64150517,1.17599067 C1.61278182,1.16430236 1.5880811,1.1502586 1.56298752,1.13237454 C1.54931216,1.12262818 1.50862134,1.09053166 1.50751314,1.08969499 C1.42250377,1.02354616 1.26954377,1.26031137 1.28827573,1.50556526 C1.29669241,1.6156889 1.38407751,1.79016163 1.47499002,1.89731771 L1.48173128,1.88471077 C1.33773267,1.8571881 1.2710132,1.81857709 1.1884828,1.71390156 C1.23016917,1.69686812 1.28932867,1.67797086 1.34211578,1.67367747 L1.34827483,1.66311456 C1.34568128,1.65657912 1.33568119,1.63235601 1.33360223,1.62718289 C1.31568143,1.58259024 1.30621615,1.54800627 1.30279098,1.5043268 C1.22009453,1.496654 1.13311875,1.52515369 1.06122876,1.57642818 C1.05953215,1.56590824 1.04822617,1.55424723 1.03631636,1.542108 C1.00574318,1.51094588 0.902658679,1.40868499 0.888293097,1.39420877 C0.746650162,1.25147501 0.666625311,1.15145843 0.606958355,1.02809789 C0.52914208,0.867000276 0.520009246,0.721930926 0.572190748,0.648660918 C0.62240976,0.578146516 0.718699294,0.592499432 0.820871929,0.699719356 L0.830872002,0.688611811 C0.798816235,0.658528056 0.631629389,0.49785332 0.589718134,0.459602697 C0.510682464,0.387470196 0.450957983,0.341451054 0.392755892,0.310317319 C0.380279799,0.30364355 0.367924963,0.297705259 0.355622043,0.29248378 C0.174891762,0.215619946 -0.0149906749,0.407607961 0.0728990269,0.684011287 C0.167013508,0.980302386 0.286861516,1.15024065 0.562544174,1.44157915 C0.572674101,1.45228104 0.572674101,1.45228104 0.582798017,1.46297368 C0.846028884,1.74104045 0.955774436,1.89209984 1.04577262,2.1537892 C1.10834506,2.33598745 1.17530955,2.45583937 1.26149445,2.51873941 C1.36584052,2.59489397 1.49393556,2.58119479 1.65235848,2.46523184 C1.6705187,2.45194558 1.68312961,2.44285627 1.70441612,2.42759222 C1.70473708,2.4273613 1.70473708,2.4273613 1.70505803,2.42713033 C1.71941238,2.41680007 1.73071224,2.40854241 1.74596097,2.39718336 C1.85990301,2.32808539 2.0049695,2.46028584 1.98916891,2.66727912 L2.0031451,2.67083925 C2.05857591,2.53165266 2.05985424,2.44941326 2.01802024,2.35934508 C2.01106094,2.34436176 2.00294696,2.32893623 1.9918123,2.30914368 C1.98704376,2.30066731 1.96650734,2.26490193 1.96110134,2.2553111 C1.94133588,2.25809171 1.93449748,2.25428854 1.92723781,2.23922251 C1.92077642,2.22581314 1.91618865,2.20852009 1.90885987,2.17368346 C1.90793476,2.16927761 1.90793476,2.16927761 1.90701094,2.16487432 C1.89612431,2.11306299 1.88987869,2.09350321 1.87650017,2.08415519 L1.8763102,2.09701288 C2.10019794,1.95088784 2.32629715,1.84035318 2.58586908,1.76147229 C2.59138785,1.89953107 2.63039208,1.97656285 2.71518209,1.9616689 C2.76698852,1.94959228 2.81661463,1.93939392 2.8669809,1.93059979 L2.8645849,1.91551764 C2.79318876,1.92805887 2.75909485,1.85462663 2.74463881,1.71185235 C2.88166679,1.68570669 3.03230405,1.66132728 3.19189466,1.64761981 C3.38487042,1.63100391 3.58206012,1.58980319 3.76547215,1.52727151 C3.8035005,1.69499937 3.8606795,1.79342717 3.94460153,1.7639475 C4.03386743,1.73391987 4.11445794,1.70178955 4.18766702,1.6663939 L4.18148874,1.65254795 C4.10317663,1.69173327 4.05038648,1.64242789 4.00576114,1.52387289 C4.00042016,1.50968364 3.99528396,1.49479138 3.98964803,1.47742719 C3.98632643,1.46719341 3.97564212,1.43329409 3.97622658,1.43513053 C4.22426756,1.32946789 4.42477025,1.17688859 4.5438905,1.00312059 L4.52639947,0.882863004 L4.51323727,0.879806047 L4.51323727,0.879806047 Z M4.52520934,0.888511995 L4.51204713,0.885455039 L4.53080442,0.999950451 C4.41465667,1.16546724 4.21623849,1.31646027 3.96641622,1.43054266 C3.96181152,1.43808282 3.97251711,1.47204965 3.97586337,1.48235942 C3.98156861,1.49993713 3.98678048,1.51504879 3.99221739,1.5294929 C4.03953996,1.65521357 4.09900887,1.71075683 4.18775397,1.66635113 L4.1815757,1.65250518 C4.10894135,1.68762296 4.02889339,1.71953697 3.94006958,1.74941654 C3.86898677,1.77438545 3.81490112,1.68128253 3.77022211,1.51789024 C3.57864238,1.57489197 3.38256275,1.61586076 3.19070583,1.63238032 C3.0304225,1.64614729 2.87909235,1.67063884 2.73576774,1.70520938 C2.74546807,1.86468467 2.78292695,1.94536445 2.86698792,1.93059857 L2.86459191,1.91551641 C2.81395975,1.92435697 2.76407775,1.93460791 2.71240099,1.94666524 C2.64023458,1.95933092 2.60504256,1.88982809 2.59108462,1.7533124 C2.32087885,1.82608165 2.09358249,1.93720157 1.86862184,2.08402687 L1.86843187,2.09688456 C1.87694597,2.10283365 1.88313293,2.12220974 1.89278981,2.16816845 C1.89371176,2.17256285 1.89371176,2.17256285 1.89463954,2.1769814 C1.90225391,2.21317558 1.90701662,2.23112803 1.91424312,2.24612523 C1.92477529,2.26798271 1.93974257,2.27630676 1.95825794,2.26595274 C1.95401598,2.27276301 1.97454813,2.30852094 1.97927321,2.31692006 C1.99022768,2.33639231 1.99816957,2.35149068 2.00493069,2.3660473 C2.04481409,2.45191588 2.04360649,2.52960481 1.98970927,2.66494057 L2.00368546,2.66850069 C2.02033444,2.45039331 1.8640099,2.30793328 1.73810419,2.3843286 C1.72235356,2.39602098 1.71111733,2.40423215 1.69682455,2.4145181 C1.69650449,2.41474842 1.69650449,2.41474842 1.69618438,2.41497873 C1.67489993,2.43024121 1.66224181,2.43936455 1.64403128,2.45268761 C1.49020759,2.565284 1.36860373,2.57828898 1.26980652,2.50618414 C1.18676946,2.44558146 1.12109775,2.32804335 1.0594712,2.14859934 C0.968561286,1.88425892 0.857748109,1.73172999 0.593126987,1.45219461 C0.58300163,1.44150044 0.58300163,1.44150044 0.572875227,1.43080228 C0.298646075,1.14099983 0.179947695,0.972691682 0.0867133516,0.679171431 C0.00272513253,0.415037833 0.18104946,0.234736093 0.35015947,0.306657872 C0.362067761,0.311711869 0.374038618,0.317465602 0.386144881,0.323941541 C0.443073244,0.354393927 0.501948327,0.399758587 0.58016417,0.471142867 C0.621905898,0.50923877 0.78898579,0.669810718 0.821166833,0.700012042 L0.831166906,0.688904497 C0.723498837,0.575917668 0.617107126,0.56005892 0.560527699,0.63950422 C0.504406252,0.718306453 0.513910259,0.869271651 0.593971919,1.03501773 C0.654552452,1.16026708 0.735481786,1.2614141 0.878208983,1.40524047 C0.892643075,1.41978572 0.995685806,1.52200518 1.02617252,1.55307916 C1.03803919,1.56517442 1.04930094,1.57678982 1.06018175,1.588169 C1.13888795,1.5395237 1.2229766,1.51197005 1.2954738,1.51259913 C1.29184762,1.55111606 1.30171468,1.58716802 1.32018467,1.63312724 C1.32230556,1.63840467 1.33228797,1.66258497 1.33483196,1.66899553 L1.34099102,1.65843262 C1.28596959,1.66290774 1.22455792,1.6825244 1.17902547,1.71228645 C1.26207308,1.83121661 1.33187206,1.87160975 1.47912309,1.89975406 L1.48586435,1.88714712 C1.39687408,1.78225674 1.31091591,1.61063301 1.3027922,1.50434259 C1.2848607,1.26956895 1.42849455,1.0472396 1.49892657,1.10204447 C1.49986674,1.10275525 1.54078683,1.1350326 1.55480851,1.14502579 C1.5807667,1.16352606 1.60642559,1.17811459 1.6362424,1.19024786 L1.64145211,1.17596933 C1.55029626,1.13973193 1.45926558,1.24702563 1.44787107,1.40217982 C1.43445183,1.58490378 1.5267024,1.78231539 1.72832631,1.93910999 C1.73558827,1.94478074 1.74156021,1.9492216 1.75482914,1.95892636 C1.75492494,1.95899643 1.75492494,1.95899643 1.75502073,1.95906649 C1.80511726,1.99570655 1.82504177,2.01418846 1.84163478,2.04554773 C2.23977976,1.77985033 2.64967297,1.61431134 3.1844508,1.55831088 C3.74574803,1.49954692 4.29698657,1.23449005 4.52520934,0.888511995 L4.52520934,0.888511995 Z" id="Shape" fill="#000000" fill-rule="nonzero"></path>
                        <path d="M6.0219109,5.39948353 C5.76272349,5.15180463 5.64987247,4.69012786 5.74586644,4.28084951 C5.55102579,4.03504233 5.07281884,3.93717416 4.70194835,4.03761232 C4.34823232,4.2995285 4.05588257,4.63334584 3.77867129,5.05916512 C3.6230822,5.29816274 3.14469602,6.16340969 3.03751571,6.31594262 C3.02036985,6.34034362 3.00352584,6.3632599 2.98688956,6.38478505 C2.81519334,6.60688846 2.81106498,7.04836016 3.06456758,7.25908282 C3.07591997,7.26851422 3.08690471,7.27804604 3.09764126,7.28776705 C3.13052036,7.3175362 3.16040646,7.34833646 3.19567624,7.38800344 C3.21024624,7.40438992 3.2887725,7.4955753 3.31489948,7.52482119 C3.3686287,7.58496434 3.42220888,7.64046402 3.48631289,7.70101775 C3.65152205,7.85707712 3.87489413,8.0345026 4.19143779,8.25444897 C4.35238308,8.36627385 4.85816676,8.70031876 4.85551051,8.69852682 C5.07785127,8.84852079 5.20380663,8.94622025 5.27278916,9.02841828 C5.49574985,9.29389314 5.57655928,9.44683375 5.54948979,9.64699862 C5.53064827,9.78655328 5.53324287,9.90041281 5.55133647,10.111005 C5.56984075,10.3263769 5.57182945,10.4005523 5.5530658,10.4950762 C5.54872024,10.5168933 5.49126115,10.7903364 5.47972101,10.856513 C5.4597969,10.9707672 5.45419823,11.0528078 5.46385655,11.1253399 C5.49100983,11.3281102 5.74413932,11.4046998 5.92820709,11.1865994 C6.129411,10.9482401 6.20514436,10.7616447 6.3138793,10.340708 C6.41369008,9.95431866 6.48209381,9.78128242 6.65414829,9.56713138 C6.91253522,9.24548877 6.92915012,9.02814281 6.60791158,8.8598259 C6.03000122,8.55731482 5.6748421,8.26530978 5.31785034,7.67029814 C5.01094593,7.15856018 4.54984244,6.7699226 4.14872757,6.70925243 L4.15127089,6.72347606 C4.22683225,6.67865686 4.29387822,6.62851773 4.3865811,6.55081586 C4.40564479,6.53483702 4.4747322,6.476194 4.47158081,6.47885942 C4.50623388,6.44955007 4.53305686,6.42729146 4.56012999,6.40556764 C4.66935563,6.31792361 4.76934641,6.25081594 4.88660076,6.19097384 C5.28568046,5.98729895 5.66377799,5.73423956 6.02175812,5.41093364 L6.0219109,5.39948353 Z M6.0122613,5.39934159 C5.65528828,5.72173795 5.27824013,5.97409499 4.88023419,6.17722188 C4.76202423,6.23755169 4.66123427,6.30519572 4.55128704,6.39341876 C4.5240989,6.41523486 4.49718642,6.43756775 4.46244494,6.46695188 C4.46556425,6.46431358 4.39651768,6.52292194 4.37749535,6.53886611 C4.28534593,6.61610408 4.21886386,6.66582151 4.14410775,6.71016308 L4.14665107,6.72438672 C4.54291334,6.78432292 5.00069165,7.17015789 5.30552759,7.67844684 C5.66417251,8.27621388 6.02132774,8.56986007 6.60141132,8.87350875 C6.91194348,9.03621591 6.89620466,9.24210149 6.6430165,9.55727261 C6.46922285,9.77358835 6.40015322,9.94830909 6.29982398,10.3367055 C6.19163427,10.7555315 6.11663181,10.9403261 5.91730794,11.1764582 C5.74140911,11.3848792 5.50368622,11.3129513 5.47827859,11.1232169 C5.46887915,11.0526289 5.47437787,10.972053 5.49404598,10.8592668 C5.50553021,10.7934109 5.56292646,10.5202668 5.56732154,10.4982011 C5.58649707,10.4016023 5.58448804,10.3266685 5.56584068,10.1096312 C5.54784224,9.90014663 5.54526862,9.78720766 5.56390851,9.64914642 C5.59179247,9.44295903 5.50940715,9.28703589 5.28371389,9.01830741 C5.21352059,8.93466665 5.08689285,8.83644566 4.86338269,8.68566279 C4.86591359,8.68737016 4.36025215,8.35340598 4.19947468,8.24169771 C3.88349388,8.02214244 3.6606831,7.84516279 3.49605317,7.68965058 C3.43226914,7.6293991 3.37897988,7.57420076 3.32552127,7.51436054 C3.29951207,7.48524648 3.22100119,7.39407896 3.20632148,7.37756909 C3.17071972,7.33752874 3.14047304,7.30635687 3.1071518,7.2761874 C3.09626061,7.26632638 3.08511786,7.25665745 3.07360564,7.24709327 C2.82715322,7.04223104 2.83119089,6.61045727 2.99819733,6.39442048 C3.01497957,6.3727065 3.03195975,6.34960496 3.04923464,6.32502032 C3.15700425,6.17164874 3.63557002,5.30607696 3.79069418,5.06779353 C4.06700062,4.64336414 4.35821191,4.31084674 4.70797012,4.05125827 C5.07153946,3.9533116 5.54402489,4.05000883 5.73324574,4.28397003 C5.63450882,4.69168604 5.74877452,5.15915034 6.01210852,5.4107917 L6.0122613,5.39934159 Z M5.53673739,9.91186615 C5.54902965,10.0904248 5.77731568,10.1400773 6.13102173,10.0310666 L6.13028185,10.0162106 L5.54531097,9.90379465 L5.53673739,9.91186615 Z M5.54268903,9.91883532 L6.1276599,10.0312512 L6.12692002,10.0163951 C5.78088757,10.1230408 5.56260776,10.0755646 5.55126261,9.91076382 L5.54268903,9.91883532 Z M5.54991828,10.1245385 C5.56697483,10.3070897 5.68878926,10.369029 6.04860274,10.3376496 L6.05070541,10.3229326 L5.55987046,10.1166941 L5.54991828,10.1245385 L5.54991828,10.1245385 Z M5.56441181,10.1230456 L5.55445964,10.13089 L6.04529459,10.3371286 L6.04739726,10.3224116 C5.69448779,10.3531889 5.58049965,10.295229 5.56441181,10.1230456 L5.56441181,10.1230456 Z M5.56030586,10.4445801 C5.54474601,10.5786902 5.70069869,10.6524852 5.89491957,10.6226104 L5.89709343,10.6081936 L5.57076333,10.4386523 L5.56030586,10.4445801 L5.56030586,10.4445801 Z M5.5747621,10.4464291 L5.56430463,10.4523568 L5.89063472,10.6218981 L5.89280859,10.6074814 C5.70663399,10.6361185 5.56076224,10.5670937 5.5747621,10.4464291 L5.5747621,10.4464291 Z" id="Shape" fill="#000000" fill-rule="nonzero"></path>
                        <path d="M5.71895583,4.80027211 C5.56417237,4.93734372 5.47533203,4.99434055 5.26159945,5.11001216 C5.24510448,5.11893921 5.2327119,5.12568896 5.22058708,5.1323694 C5.00987191,5.24846765 4.8671468,5.36280086 4.6594197,5.60738883 C4.40263875,5.90983321 4.01546771,6.25696819 3.79680943,6.39218923 L3.86117788,6.47035404 C4.08990661,6.33537005 4.47823884,5.98722634 4.73611405,5.68362062 C4.94254015,5.44056972 5.08385168,5.32734105 5.29291221,5.21211194 C5.30503334,5.20543106 5.317432,5.1986759 5.33394162,5.18973846 C5.53318494,5.08187867 5.61366775,5.03142072 5.7518678,4.91457856 C5.74749007,4.88534955 5.73600731,4.83399122 5.73080869,4.80471497 L5.71895583,4.80027211 L5.71895583,4.80027211 Z M5.72834514,4.8119603 L5.71649228,4.80751745 C5.72180684,4.83744665 5.73342565,4.88941343 5.74040329,4.91107342 C5.60548577,5.01870669 5.52570346,5.06872547 5.32726783,5.17614802 C5.31072914,5.18510119 5.29830165,5.19187206 5.28614324,5.19857349 C5.07558028,5.31463071 4.93287305,5.42897771 4.725245,5.67344381 C4.46832008,5.97593072 4.08112467,6.32305526 3.86251817,6.45824428 L3.80554057,6.39325453 C4.02425023,6.26928263 4.41255895,5.9211276 4.67028982,5.61756438 C4.87681332,5.37439359 5.018142,5.26117902 5.22735409,5.14590893 C5.23944183,5.13924892 5.25180573,5.13251479 5.26827179,5.12360339 C5.48289643,5.00744898 5.57253938,4.94993724 5.72834514,4.8119603 L5.72834514,4.8119603 Z" id="Shape" fill="#000000" fill-rule="nonzero"></path>
                        <path d="M5.92395339,5.29964262 C5.85843605,5.33849018 5.79675247,5.38202781 5.74846853,5.42421512 C5.72692957,5.39000896 5.70244982,5.33805686 5.67677383,5.26025812 C5.66990118,5.23943385 5.64579541,5.16079804 5.64011714,5.14373125 C5.62644771,5.10264602 5.61500715,5.07679705 5.60196228,5.06070115 C5.58531152,5.04015601 5.56560206,5.03641799 5.54399613,5.05177268 C5.52097298,5.06768591 5.44516278,5.11134024 5.37062197,5.15262632 L5.37741116,5.16615359 C5.39246073,5.15783591 5.40880644,5.1725781 5.42748365,5.21239736 C5.44288177,5.2452257 5.45607813,5.28471404 5.4796924,5.36385523 C5.4959587,5.41837033 5.49628698,5.41946204 5.50225057,5.43842427 C5.52730541,5.5180902 5.54574949,5.55903569 5.56723698,5.57114049 L5.56583539,5.55869572 C5.49495438,5.62501048 5.41392306,5.68403155 5.31479304,5.74450734 C5.25091578,5.78347664 5.04072368,5.89968392 5.01021855,5.91777149 C4.92980328,5.96545254 4.87396776,6.00581932 4.83251031,6.04887659 C4.81852708,6.02367217 4.79676559,5.9878769 4.76844486,5.93094087 C4.76501361,5.92404267 4.74004093,5.87270385 4.7329902,5.85886379 C4.7198313,5.83303382 4.70922156,5.81478064 4.69886062,5.80101001 C4.67385174,5.76777092 4.64873322,5.76128228 4.6239664,5.78820551 C4.60576453,5.80917779 4.57345807,5.843023 4.51926054,5.89848823 C4.51798188,5.89979672 4.51798188,5.89979672 4.51670302,5.90110508 C4.53019057,5.88730725 4.457481,5.96158664 4.44247263,5.97705103 L4.45258581,5.98805262 C4.47042626,5.97027226 4.48506629,5.97898437 4.50719652,6.01689692 C4.51108612,6.02356043 4.51514537,6.03101865 4.52021229,6.04071215 C4.52269588,6.0454635 4.52685664,6.05353688 4.53369965,6.06677719 C4.5616076,6.12037982 4.58045976,6.14662749 4.60587136,6.15787094 L4.6040125,6.14497441 C4.43277911,6.29616528 4.18203503,6.49406272 4.06544599,6.56375356 L4.14134672,6.72057488 C4.22683225,6.67865686 4.29387822,6.62851773 4.3865811,6.55081586 C4.40564479,6.53483702 4.4747322,6.476194 4.47158081,6.47885942 C4.50623388,6.44955007 4.53305686,6.42729146 4.56012999,6.40556764 C4.66935563,6.31792361 4.76934641,6.25081594 4.88660076,6.19097384 C5.28568046,5.98729895 5.66377799,5.73423956 6.02175812,5.41093364 C5.99884018,5.37632438 5.96038612,5.33355968 5.93297353,5.30121721 L5.92395339,5.29964262 Z M5.92209443,5.31138218 C5.94974532,5.3440058 5.98844732,5.38704623 6.01197811,5.41066399 C5.65528828,5.72173795 5.27824013,5.97409499 4.88023419,6.17722188 C4.76202423,6.23755169 4.66123427,6.30519572 4.55128704,6.39341876 C4.5240989,6.41523486 4.49718642,6.43756775 4.46244494,6.46695188 C4.46556425,6.46431358 4.39651768,6.52292194 4.37749535,6.53886611 C4.28534593,6.61610408 4.21886386,6.66582151 4.14410775,6.71016308 L4.07539114,6.56664225 C4.19020409,6.50677451 4.44152275,6.3084236 4.61338556,6.15667697 L4.61152669,6.14378043 C4.5903765,6.13442246 4.57270849,6.10982346 4.5464781,6.05944292 C4.53967671,6.04628294 4.53548875,6.03815676 4.53297906,6.03335549 C4.52780985,6.0234663 4.5236451,6.01581423 4.51961321,6.00890696 C4.49333459,5.96388756 4.46975718,5.94985693 4.44255982,5.97696267 L4.452673,5.98796426 C4.4676553,5.97252673 4.54032626,5.8982868 4.52686598,5.91205672 C4.5281458,5.91074739 4.5281458,5.91074739 4.52942547,5.90943786 C4.58386257,5.85372746 4.61625504,5.81979213 4.63458656,5.79866562 C4.65200771,5.77973231 4.66725603,5.78367127 4.68743308,5.8104884 C4.69713775,5.8233868 4.70736401,5.84098024 4.72014871,5.86607566 C4.72712089,5.87976156 4.7520469,5.93100442 4.75553618,5.93801928 C4.78451609,5.99628051 4.80690273,6.03310409 4.8325057,6.05974247 C4.88309904,6.01784307 4.93799429,5.97815606 5.01737972,5.93108564 C5.04760482,5.91316411 5.25790411,5.79689757 5.32210944,5.75772813 C5.42202122,5.69677541 5.50382412,5.63719234 5.57552383,5.57011162 L5.57412224,5.55766685 C5.55759473,5.54835621 5.53959,5.50838606 5.51607926,5.43362985 C5.51015076,5.41477921 5.50982192,5.41368562 5.49358948,5.35928401 C5.46973465,5.27933661 5.45640312,5.23944379 5.44054836,5.2056419 C5.41860903,5.15886789 5.39608484,5.13855335 5.37062767,5.15262316 L5.37741686,5.16615044 C5.45250878,5.12455912 5.52840555,5.08085494 5.55208159,5.06448967 C5.56738037,5.05361804 5.57886509,5.05579619 5.59087115,5.07061031 C5.60239153,5.08482514 5.61327037,5.10940494 5.62636875,5.14877383 C5.63196988,5.16560878 5.65606818,5.24422022 5.66301344,5.26526448 C5.68932255,5.3449816 5.71455505,5.39853122 5.74784495,5.43535504 C5.80534465,5.39441292 5.86631474,5.35137889 5.93111457,5.31295677 L5.92209443,5.31138218 Z M3.86010765,8.02019179 C3.93124284,8.07599687 4.03837011,8.0103135 4.17271509,7.84896152 C4.28017798,7.71989565 4.40158808,7.53301049 4.51699533,7.32693321 L4.50552292,7.31770156 L3.85927049,8.00871074 L3.86010765,8.02019179 Z M3.86966155,8.01942382 L4.51591397,7.32841465 L4.50444156,7.319183 C4.38945471,7.52450957 4.26851331,7.71067328 4.16175093,7.8388978 C4.03229521,7.99437767 3.93083263,8.05658782 3.86882439,8.00794277 L3.86966155,8.01942382 Z M4.59726843,7.27306277 C4.65728094,7.31956422 4.7142189,7.36812753 4.76774711,7.41876839 L4.77721826,7.40715954 L4.60618914,7.26098217 L4.59726843,7.27306277 L4.59726843,7.27306277 Z M4.60591604,7.26075986 L4.59699533,7.27284046 L4.76802445,7.41901783 L4.77749561,7.40740898 C4.72360634,7.35642654 4.66630114,7.30755 4.60591604,7.26075986 L4.60591604,7.26075986 Z M5.43906358,8.25560009 C5.48087067,8.30192739 5.52127229,8.34450911 5.56115807,8.38417928 L5.57239691,8.37244758 L5.45060505,8.24418608 L5.43906358,8.25560009 L5.43906358,8.25560009 Z M5.45075929,8.24432653 L5.43919157,8.2557665 L5.5612605,8.38431974 L5.5725249,8.37256135 C5.53276424,8.33301562 5.4924715,8.29054868 5.45075929,8.24432653 L5.45075929,8.24432653 Z" id="Shape" fill="#000000" fill-rule="nonzero"></path>
                        <path d="M3.8695776,7.05116691 C4.2641762,7.08525923 4.75489021,7.45135936 5.08173652,7.92910857 C5.39667343,8.38942273 5.73990657,8.68077139 6.15739821,8.90041318 C6.1352784,8.9232468 6.12970469,8.95226412 6.12438365,9.01869059 C6.12431623,9.01953227 6.12431623,9.01953227 6.1242488,9.02037358 C6.12304408,9.03540006 6.1223533,9.04324479 6.12138716,9.05209586 C6.09340017,9.30875299 5.97964286,9.48669836 5.82687471,9.56350203 C5.70068721,9.62694237 5.57786546,9.60025199 5.56411829,9.51191697 L5.5497366,9.51432215 C5.55637606,9.55924703 5.55545782,9.59272117 5.5491449,9.64729476 C5.54722409,9.66365339 5.54637059,9.67120911 5.5456076,9.67937596 C5.53351744,9.78973426 5.80531642,9.81038706 5.99819156,9.67075899 C6.08476875,9.60804479 6.18486248,9.44157759 6.22803624,9.30516318 L6.21426861,9.3053229 C6.26341766,9.44986302 6.26492461,9.52988769 6.2200063,9.65728462 C6.18519008,9.62802844 6.14010892,9.58377888 6.10991715,9.53780104 L6.09814147,9.53749204 C6.09495969,9.54185392 6.07628397,9.56824479 6.07042537,9.57617661 C6.05893842,9.59172852 6.04838774,9.60463823 6.03673049,9.61698761 C6.02258976,9.6319679 6.00726995,9.64556278 5.98991352,9.65817896 C6.02486745,9.7372032 6.09187177,9.80200294 6.17019065,9.84174585 C6.15309459,9.88512387 6.15007247,9.89818945 6.12115551,10.0256714 C6.06349074,10.2798898 6.02443188,10.4009424 5.94496828,10.5289133 C5.85106352,10.6802127 5.73598698,10.7610594 5.64945229,10.7502523 C5.56616926,10.7398513 5.5298575,10.645121 5.56722785,10.4986139 L5.55306681,10.4950711 C5.54872024,10.5168933 5.49126115,10.7903364 5.47972101,10.856513 C5.4597969,10.9707672 5.45419823,11.0528078 5.46385655,11.1253399 C5.49100983,11.3281102 5.74413932,11.4046998 5.92820709,11.1865994 C6.129411,10.9482401 6.20514436,10.7616447 6.3138793,10.340708 C6.41369008,9.95431866 6.48209381,9.78128242 6.65414829,9.56713138 C6.77311952,9.4190348 6.8384501,9.29826895 6.84725587,9.18847025 C6.8579205,9.05549365 6.78260452,8.9458537 6.60775229,8.85974496 C6.58674452,8.84945871 6.58330241,8.84774027 6.55020329,8.83111797 C6.54993336,8.83098241 6.54993336,8.83098241 6.5496634,8.83084686 C6.53329524,8.82262827 6.52139754,8.81674062 6.5048378,8.80871591 C6.39082363,8.73970851 6.42733552,8.54167617 6.60592257,8.45253158 L6.60186842,8.43804395 C6.44056013,8.45979897 6.37804408,8.50418564 6.31557617,8.61768186 C6.30839135,8.63073575 6.28297124,8.6790157 6.28025679,8.68407819 C6.29193961,8.70033339 6.29256088,8.70777366 6.28519233,8.72059856 C6.27836479,8.73248183 6.26638559,8.7457865 6.24469767,8.76679132 C6.24139484,8.76998301 6.24139484,8.76998301 6.23806867,8.77317902 C6.19402932,8.81546875 6.18232453,8.82892686 6.18123841,8.84660258 L6.19193935,8.84035341 C5.95952658,8.70982353 5.75540289,8.55951813 5.56046315,8.36280584 C5.67154326,8.2890825 5.71570561,8.21486906 5.66087458,8.14522089 C5.62588808,8.10521179 5.59247572,8.0649288 5.55928846,8.02265986 L5.54805378,8.0323891 C5.59420767,8.0911103 5.55083522,8.15862322 5.44009952,8.24336289 C5.35026864,8.13208717 5.25483814,8.00725986 5.16354023,7.86879809 C5.05347031,7.70170165 4.92091982,7.54304767 4.77749463,7.40740806 C4.8969151,7.28876725 4.94937819,7.18780042 4.88312096,7.12614394 C4.81374895,7.05993943 4.74690373,7.00269602 4.68116884,6.95399784 L4.67284369,6.96654324 C4.72071504,7.00112304 4.72963624,7.04577878 4.70754179,7.10184002 C4.69487645,7.13397633 4.67298326,7.16789822 4.64131143,7.20765247 C4.62934336,7.22267472 4.61751637,7.23672676 4.5961387,7.26184538 C4.3846199,7.08902871 4.15861664,6.98305523 3.95594664,6.96181152 L3.8655238,7.03766491 L3.8695776,7.05116691 L3.8695776,7.05116691 Z M3.87077192,7.03592789 L3.87482572,7.04942989 L3.95987426,6.97530145 C4.15425825,6.99796491 4.37791138,7.10283642 4.59726423,7.27305952 C4.62838706,7.24690328 4.64036577,7.23267096 4.65248179,7.21746302 C4.68502249,7.17661816 4.70764717,7.14156289 4.72099832,7.10768644 C4.7455536,7.04538123 4.7350765,6.99293731 4.68109806,6.95394606 L4.67277291,6.96649146 C4.73798282,7.01480072 4.80437189,7.0716535 4.87339364,7.13752293 C4.9295266,7.18975896 4.87990133,7.28526432 4.76737977,7.40778184 C4.91032911,7.55361058 5.04213207,7.71136982 5.15156464,7.8774987 C5.24325898,8.01656169 5.33912692,8.14196119 5.43905696,8.25474858 C5.56594954,8.16597787 5.61361623,8.0917806 5.55928603,8.02265677 L5.54805135,8.03238601 C5.58140483,8.07486666 5.61498784,8.11535538 5.6498994,8.15526343 C5.6965592,8.21454857 5.65672151,8.28149455 5.55113417,8.36213543 C5.74633899,8.57157932 5.95154372,8.72268074 6.18507036,8.8538362 L6.1957713,8.84758702 C6.19647216,8.83618103 6.20880255,8.82200362 6.24789718,8.78446216 C6.25123759,8.78125247 6.25123759,8.78125247 6.25457179,8.77803048 C6.27728521,8.75603246 6.28987597,8.74204856 6.29766218,8.72849672 C6.30874,8.70921587 6.30733532,8.6923936 6.29045486,8.68134145 C6.29572157,8.68640485 6.32108312,8.63823612 6.32818525,8.62533246 C6.38840021,8.51592956 6.44695977,8.47435202 6.60372381,8.45320987 L6.59966967,8.43872224 C6.41149208,8.53265411 6.37214631,8.74605677 6.49815127,8.8222819 C6.51522846,8.83059167 6.52706805,8.83645055 6.54338048,8.84464117 C6.54364998,8.84477649 6.54364998,8.84477649 6.54391947,8.84491182 C6.57706288,8.86155637 6.58053108,8.86328783 6.60158267,8.87359552 C6.77134264,8.95719652 6.84284178,9.06128018 6.83274413,9.18718725 C6.82425978,9.292978 6.76018893,9.41141521 6.6430165,9.55727261 C6.46922285,9.77358835 6.40015322,9.94830909 6.29982398,10.3367055 C6.19163427,10.7555315 6.11663181,10.9403261 5.91730794,11.1764582 C5.74140911,11.3848792 5.50368622,11.3129513 5.47827859,11.1232169 C5.46887915,11.0526289 5.47437787,10.972053 5.49404598,10.8592668 C5.50553021,10.7934109 5.56292646,10.5202668 5.56732154,10.4982011 L5.5531605,10.4946583 C5.51377979,10.6490468 5.55390191,10.7537175 5.64773218,10.7654358 C5.74080056,10.7770589 5.86055587,10.6929251 5.95716851,10.5372627 C6.03782545,10.4073701 6.07728451,10.2850771 6.13532238,10.029214 C6.16420087,9.90190158 6.16721615,9.88886557 6.18039621,9.83682718 C6.10083853,9.7895704 6.03606245,9.72692559 6.00039663,9.66070168 C6.01631225,9.6575873 6.0323161,9.6433854 6.04707406,9.62775123 C6.05918987,9.61491608 6.0701112,9.60155284 6.08193341,9.58554702 C6.08790703,9.57745946 6.10661826,9.55101843 6.10970319,9.54678931 L6.09792751,9.5464803 C6.12938379,9.5943838 6.17617784,9.64031465 6.22341619,9.66668905 C6.27981825,9.53168964 6.27824198,9.44798351 6.22798382,9.30018169 L6.21421618,9.30034141 C6.17195121,9.43388435 6.07348799,9.59763983 5.98992323,9.65817191 C5.80529456,9.79183011 5.55007139,9.77243684 5.56008823,9.68099589 C5.56084728,9.67288228 5.56168135,9.66549851 5.56360176,9.64913832 C5.57006205,9.59329079 5.57101432,9.55857626 5.56412748,9.51197754 L5.54974579,9.51438272 C5.56546258,9.61537395 5.69948703,9.64449878 5.83316412,9.57729308 C5.99059749,9.49814399 6.10731532,9.31556762 6.13585565,9.05383599 C6.13684332,9.04478768 6.13754405,9.0368299 6.13876058,9.02165617 C6.13882809,9.02081393 6.13882809,9.02081393 6.13889552,9.01997208 C6.14403316,8.95583507 6.14929848,8.92842331 6.16690961,8.89750173 C5.74843507,8.66815557 5.40704137,8.37836829 5.09356433,7.9201879 C4.76445517,7.43913109 4.27027339,7.07044381 3.87077192,7.03592789 L3.87077192,7.03592789 Z" id="Shape" fill="#000000" fill-rule="nonzero"></path>
                        <path d="M6.62502005,8.26599188 L6.79546665,8.18122124 L6.78523407,8.17268824 L6.74550592,8.36461485 L6.91814753,8.45886906 L6.91803331,8.44516583 L6.75038283,8.53421782 L6.78898706,8.73336014 L6.79908023,8.72465578 L6.62816761,8.64343253 L6.50217782,8.79825719 L6.51491886,8.80124662 L6.47076352,8.61115488 L6.2767444,8.60409801 L6.28248035,8.61639113 L6.39595608,8.4607948 L6.27935939,8.29822564 L6.27382355,8.3106405 L6.46151287,8.30648148 L6.51039513,8.11022483 L6.49768961,8.11337374 L6.61629155,8.26395478 L6.62502005,8.26599188 Z M6.62751428,8.25421035 L6.50891234,8.10362931 L6.49620681,8.10677822 L6.45426506,8.29711462 L6.27351626,8.29535338 L6.26798042,8.30776824 L6.38448527,8.46091809 L6.27091771,8.60709511 L6.27665366,8.61938823 L6.46364395,8.62061147 L6.50077046,8.80486959 L6.5135115,8.80785902 L6.63083189,8.65519847 L6.79307511,8.73858582 L6.80316828,8.72988145 L6.76076051,8.53930041 L6.92460747,8.4588097 L6.92449325,8.44510648 L6.75579422,8.35935724 L6.79946496,8.17593561 L6.78923238,8.16740262 L6.61878578,8.25217326 L6.62751428,8.25421035 Z" id="Shape" fill="#000000" fill-rule="nonzero"></path>
                        <path d="M6.84313782,3.41965669 C6.76856982,3.77895949 6.44409757,4.11250659 6.05855336,4.22996647 C5.95317237,4.52992703 6.11149258,5.01348239 6.37984999,5.30076615 C6.52459354,5.3713549 6.67272548,5.42867155 6.8269696,5.4754332 C7.30177935,5.61937961 7.6902083,5.65070313 8.46138471,5.65260371 C8.85574216,5.65357561 9.00959917,5.65916261 9.17337813,5.68657136 C9.44245974,5.73155577 9.80866983,5.51458594 9.85570888,5.17884969 C9.86319173,5.1253959 9.87381424,5.07639817 9.88940045,5.02017503 C9.89908345,4.98524614 9.94184769,4.84544587 9.93778525,4.85900589 C9.95964514,4.78603966 9.97680264,4.72216831 9.99350307,4.64843769 C10.0477622,4.40888945 10.0874457,4.09989305 10.1132486,3.65649072 C10.1231784,3.48570767 10.1258679,3.41807711 10.1387756,3.05369774 C10.154866,2.59946993 10.169828,2.41443399 10.2109779,2.28623368 C10.3187452,1.95049016 10.4043282,1.80081036 10.5828735,1.72538009 C10.6871253,1.68131323 10.7805286,1.62495514 10.896419,1.54160119 C10.9249577,1.5210748 11.0201876,1.45062693 11.0374395,1.43812467 C11.090242,1.39985915 11.1309207,1.37256785 11.1703031,1.34979673 C11.2090453,1.3273958 11.2452614,1.31028066 11.2807596,1.29802736 C11.3181328,1.2851174 11.5414298,1.21100579 11.5957891,1.19120569 C11.711685,1.1489912 11.7867306,1.11174938 11.8449852,1.06400839 C11.9987259,0.938139273 11.9353424,0.669512474 11.6634762,0.611224911 C11.368127,0.547821238 11.1733026,0.572160617 10.7797458,0.681525118 C10.7662792,0.685267769 10.7662792,0.685267769 10.7528193,0.689003583 C10.4057778,0.785248282 10.222066,0.809194546 9.9646623,0.760792519 C9.57006497,0.686658296 9.38257804,0.78017196 9.40446013,1.15655144 C9.44383294,1.8335823 9.38058406,2.30224972 9.06823847,2.92426313 C8.79962947,3.4592239 8.70963883,4.07280605 8.86007364,4.46791437 L8.87053528,4.45849196 C8.78777631,4.40722114 8.71138823,4.37162639 8.57414938,4.31602829 C8.30695778,4.20778382 8.2160614,4.16434573 8.06376933,4.05617527 C7.69670814,3.79541085 7.29862529,3.57805728 6.85265925,3.41406886 L6.84313782,3.41965669 Z M6.84784561,3.42849995 C7.29255884,3.59202769 7.68953688,3.80877803 8.0556088,4.06883966 C8.20910463,4.17786514 8.30070908,4.2216416 8.56890695,4.33029373 C8.70544923,4.38560964 8.78124293,4.42092743 8.86313462,4.47166094 L8.87359626,4.46223854 C8.72498049,4.07190783 8.81432239,3.46274908 9.08112087,2.93139413 C9.39491264,2.30650074 9.45851714,1.83519822 9.41899617,1.15561968 C9.39784316,0.791780507 9.57543748,0.703201022 9.96209608,0.775843773 C10.2221056,0.8247358 10.4076046,0.800556588 10.7565384,0.703787091 C10.770005,0.700049417 10.770005,0.700049417 10.7834719,0.696306683 C11.1750222,0.587499757 11.3679713,0.563394662 11.6605608,0.626205896 C11.9203552,0.681905284 11.97988,0.934178947 11.8360273,1.05195265 C11.779308,1.09843545 11.7055271,1.1350497 11.591016,1.17675978 C11.5368851,1.19647666 11.3137518,1.27053395 11.2762098,1.28350221 C11.2397915,1.2960731 11.2027657,1.3135709 11.163278,1.33640288 C11.1233896,1.3594666 11.0823374,1.38700842 11.029167,1.42554062 C11.0118296,1.43810484 10.916628,1.50853179 10.8881887,1.52898664 C10.7730965,1.61176646 10.6805398,1.66761377 10.577436,1.71119536 C10.3935157,1.78889641 10.3062655,1.9414921 10.1971774,2.28135042 C10.1553686,2.41160367 10.1403826,2.59693673 10.1242225,3.05312943 C10.11132,3.41736468 10.1086323,3.48494864 10.0987126,3.65555861 C10.0729576,4.09813796 10.0333835,4.40628193 9.97933511,4.64489997 C9.96272215,4.71824445 9.94565606,4.78177547 9.9238932,4.85441784 C9.92801685,4.84065351 9.88516642,4.98073554 9.87541761,5.01590179 C9.85965566,5.07275891 9.84888769,5.12242759 9.8413007,5.17662525 C9.79557018,5.50302209 9.43740225,5.71522714 9.17566925,5.67147126 C9.01084405,5.64388741 8.8566238,5.63828722 8.46141889,5.63731323 C7.69155491,5.63541589 7.30411317,5.60417197 6.83100957,5.46074281 C6.67745374,5.41418983 6.53000839,5.35713884 6.38809628,5.28846948 C6.12544426,5.00658104 5.96901862,4.52881225 6.06743876,4.2398835 C6.4530667,4.12569527 6.78160498,3.78796843 6.85736703,3.42291212 L6.84784561,3.42849995 Z M10.8076968,1.60449386 C10.9488785,1.50403036 10.8756782,1.27159805 10.6088302,1.00449698 L10.5969475,1.01259911 L10.7967533,1.60073367 L10.8076968,1.60449386 Z M10.81047,1.5955966 L10.6106641,1.00746205 L10.5987814,1.01556418 C10.8598402,1.27687058 10.9298313,1.49911275 10.7995265,1.59183642 L10.81047,1.5955966 Z M10.9765538,1.48621306 C11.1185153,1.37933449 11.1087084,1.2375923 10.9030323,0.926163418 L10.8898411,0.931608156 L10.9651033,1.48108828 L10.9765538,1.48621306 L10.9765538,1.48621306 Z M10.9680675,1.47378694 L10.9795181,1.47891172 L10.9042559,0.9294316 L10.8910648,0.934876337 C11.0927954,1.24033099 11.1019727,1.3729737 10.9680675,1.47378694 L10.9680675,1.47378694 Z M11.2401531,1.31675615 C11.3755624,1.26372428 11.3560167,1.08510659 11.2167544,0.92333493 L11.2018984,0.928562471 L11.2285651,1.31021385 L11.2401531,1.31675615 L11.2401531,1.31675615 Z M11.2333854,1.30269339 L11.2449734,1.30923569 L11.2183067,0.927584318 L11.2034507,0.932811859 C11.3369499,1.08788884 11.3552334,1.25497265 11.2333854,1.30269339 L11.2333854,1.30269339 Z" id="Shape" fill="#000000" fill-rule="nonzero"></path>
                        <path d="M6.50036218,3.99459153 C6.5387149,4.00913047 6.57504939,4.02401071 6.60972541,4.03932197 C6.74818735,4.10046012 6.80873275,4.13717233 6.99349009,4.26160405 C7.21863479,4.41323616 7.37487651,4.48453233 7.69587876,4.55451921 C8.07376623,4.63683839 8.55362159,4.81527909 8.77459061,4.94647147 L8.80680259,4.84878294 C8.58138486,4.70847971 8.10001012,4.52951194 7.72051074,4.44670428 C7.40140176,4.37713794 7.24676014,4.30658325 7.02309074,4.15595324 C6.83656287,4.03033617 6.77491887,3.99300701 6.63395611,3.93102346 C6.61585989,3.92306627 6.59731851,3.91522578 6.57827895,3.90748796 C6.55646837,3.92609747 6.52030474,3.96168209 6.49810617,3.98158692 L6.50036218,3.99459153 L6.50036218,3.99459153 Z M6.50530773,3.98020969 L6.50756373,3.9932143 C6.53026504,3.97285868 6.56686726,3.93684248 6.58114083,3.91963965 C6.59193843,3.92943529 6.61035691,3.93722381 6.62833054,3.9451271 C6.76828067,4.00666537 6.82938412,4.0436672 7.01522817,4.16882375 C7.24031532,4.32040854 7.39657863,4.39170312 7.71754882,4.46167521 C8.09565133,4.54417807 8.57561876,4.72262263 8.79614243,4.8536265 L8.77110032,4.93800605 C8.55938584,4.80113556 8.07812199,4.62217109 7.69883848,4.5395478 C7.37970017,4.46996731 7.22508003,4.3994111 7.00135297,4.24873375 C6.81591673,4.12384479 6.75483736,4.08680881 6.61537095,4.02522714 C6.58046223,4.00981312 6.54389435,3.9948373 6.50530773,3.98020969 L6.50530773,3.98020969 Z" id="Shape" fill="#000000" fill-rule="nonzero"></path>
                        <path d="M6.80974136,3.55851407 C6.874466,3.5985421 6.94124866,3.63288386 7.00022489,3.65585302 C6.99373521,3.65376619 6.99120805,3.66114951 6.98820154,3.66867776 C6.97059285,3.71276961 6.93955913,3.75739662 6.8879206,3.81855678 C6.87891891,3.82921829 6.84126646,3.87289064 6.83216782,3.88372635 C6.81221861,3.90748417 6.79859399,3.92523395 6.78862638,3.94107223 C6.76288423,3.98197583 6.76271279,4.0113913 6.79534182,4.02803849 C6.81986724,4.04096452 6.89197372,4.08692056 6.96509705,4.13515857 L6.9728581,4.12222033 C6.95880296,4.11290358 6.96230693,4.09146733 6.98453294,4.05590344 C7.00311763,4.02616601 7.02952473,3.99359183 7.07980527,3.93608751 C7.08306377,3.9323624 7.08306377,3.9323624 7.08632603,3.9286375 C7.18608508,3.8147531 7.21296845,3.77920395 7.21205502,3.74705035 L7.20249008,3.7545368 C7.31873772,3.79490751 7.42761763,3.85342825 7.56926694,3.94509367 C7.570957,3.94618736 7.73882672,4.05720295 7.783351,4.08456268 C7.85939817,4.13129292 7.91889692,4.1607124 7.97353263,4.17642562 C7.96241772,4.19110534 7.95096482,4.21785705 7.93393063,4.24929883 C7.92513044,4.26554226 7.91532964,4.28222907 7.90196065,4.30405517 C7.84486418,4.39727038 7.84566622,4.39589807 7.83574687,4.42224887 C7.8210205,4.46136953 7.82830841,4.48732072 7.86278166,4.49634771 C7.8893512,4.50243534 7.93361432,4.51493521 8.00746097,4.53676056 C8.01029505,4.53759834 8.01029505,4.53759834 8.01312828,4.53843648 C8.03879863,4.54604339 8.03879863,4.54604339 8.06360564,4.5534028 C8.08762386,4.56051345 8.09687522,4.56324037 8.10935322,4.56687737 L8.11336396,4.5521787 C8.09590031,4.54676188 8.0918363,4.53657587 8.09755487,4.51699794 C8.10234597,4.50059531 8.10773717,4.49053025 8.13515465,4.44353389 C8.14103741,4.43345023 8.14527066,4.42602656 8.14927414,4.41868457 C8.17022039,4.38027124 8.17971483,4.35245313 8.17677785,4.32797413 L8.16707331,4.3361178 C8.37683355,4.41590083 8.6658253,4.54512612 8.78171847,4.61638323 L8.87310394,4.46896563 C8.78777631,4.40722114 8.71138823,4.37162639 8.57414938,4.31602829 C8.30695778,4.20778382 8.2160614,4.16434573 8.06376933,4.05617527 C7.69670814,3.79541085 7.29862529,3.57805728 6.85265925,3.41406886 C6.83563361,3.45201514 6.81960618,3.5081686 6.80652651,3.54951682 L6.80974136,3.55851407 Z M6.82034727,3.55433639 C6.83354152,3.51262593 6.84967348,3.45610624 6.85732739,3.42309262 C7.29255884,3.59202769 7.68953688,3.80877803 8.0556088,4.06883966 C8.20910463,4.17786514 8.30070908,4.2216416 8.56890695,4.33029373 C8.70544923,4.38560964 8.78124293,4.42092743 8.86313462,4.47166094 L8.77912907,4.60589675 C8.67222613,4.5313423 8.38256835,4.40181918 8.17203349,4.32174152 L8.16232894,4.3298852 C8.16474781,4.35004595 8.15609226,4.37540617 8.13663578,4.41108741 C8.1327178,4.4182726 8.12855013,4.42558126 8.12273609,4.43554712 C8.09437198,4.48416612 8.08896214,4.49426596 8.08363182,4.5125147 C8.07570148,4.53966474 8.08333993,4.55880973 8.10923799,4.56684271 L8.11324872,4.55214403 C8.10079529,4.54851419 8.09156355,4.54579306 8.06756173,4.53868727 C8.042761,4.53132972 8.042761,4.53132972 8.01707833,4.52371916 C8.01424319,4.52288045 8.01424319,4.52288045 8.01140698,4.52204204 C7.93723387,4.50012021 7.89285636,4.48758804 7.8660953,4.48145999 C7.84184639,4.47510683 7.83742935,4.4593784 7.8492905,4.4278692 C7.85866403,4.4029684 7.85814808,4.40385119 7.91420937,4.312326 C7.92770882,4.29028692 7.9376341,4.27338817 7.9465891,4.256859 C7.96419564,4.22436077 7.97612897,4.19648685 7.9824995,4.17099212 C7.92421771,4.14638888 7.865749,4.11747871 7.79070696,4.07136611 C7.7464246,4.04415504 7.57878113,3.93328907 7.57690805,3.93207695 C7.43437775,3.83984141 7.32460024,3.78083822 7.20706332,3.74001977 L7.19749838,3.74750622 C7.19822636,3.77313159 7.16960401,3.81098029 7.0756071,3.91828665 C7.07234146,3.92201541 7.07234146,3.92201541 7.06907742,3.92574685 C7.01824281,3.98388484 6.99153015,4.01683595 6.97235707,4.04751486 C6.94613219,4.08947736 6.94124912,4.11935049 6.96508364,4.13514971 L6.9728447,4.12221146 C6.89918,4.07361632 6.82701397,4.02762232 6.80179081,4.01432928 C6.7791003,4.00275198 6.77921094,3.98376897 6.80077657,3.94950175 C6.8102877,3.93438882 6.82355277,3.91710745 6.8430917,3.89383824 C6.85211003,3.88309817 6.88974459,3.83944656 6.89881817,3.8286999 C6.95145329,3.7663594 6.98323397,3.72065825 7.00163176,3.6745905 C7.00483938,3.66655867 7.00754653,3.65864949 7.00974055,3.6508508 C6.94717955,3.61888516 6.88115741,3.58493449 6.81713242,3.54533914 L6.82034727,3.55433639 Z M10.0857157,4.07478942 C10.0962314,3.98223841 9.98850411,3.91771969 9.78820887,3.87627577 C9.62804167,3.84313491 9.41322905,3.82620251 9.1854177,3.82428159 L9.18354,3.83932941 L10.0766662,4.0812866 L10.0857157,4.07478942 Z M10.0803047,4.06648098 L9.18717845,3.8245238 L9.18530075,3.83957162 C9.41228402,3.84148556 9.62626891,3.8583527 9.78539307,3.89127775 C9.9783933,3.93121223 10.08042,3.99231677 10.0712552,4.07297816 L10.0803047,4.06648098 Z M9.1029885,3.77810955 C9.1126418,3.70004812 9.12589416,3.62405223 9.14299245,3.55033746 L9.12661441,3.54752995 L9.08648108,3.77603148 L9.1029885,3.77810955 L9.1029885,3.77810955 Z M9.08643476,3.77638586 L9.10294219,3.77846394 L9.14307552,3.54996241 L9.12669749,3.5471549 C9.10948409,3.62136593 9.09614706,3.6978474 9.08643476,3.77638586 L9.08643476,3.77638586 Z M9.49166037,2.52187335 C9.51046576,2.46558185 9.52662372,2.41243529 9.54044956,2.36109994 L9.52433152,2.3572155 L9.47566486,2.51758247 L9.49166037,2.52187335 L9.49166037,2.52187335 Z M9.4757177,2.51739271 L9.49171322,2.52168358 L9.54037989,2.36131661 L9.52426185,2.35743217 C9.51051267,2.40848288 9.49443655,2.46136028 9.4757177,2.51739271 L9.4757177,2.51739271 Z" id="Shape" fill="#000000" fill-rule="nonzero"></path>
                        <path d="M9.28165125,4.55073922 C9.11247119,4.17490696 9.16913148,3.54560172 9.3998395,3.0095089 C9.6220736,2.49287013 9.69077593,2.03497511 9.66307454,1.54584589 C9.69232194,1.55460713 9.71974498,1.54509241 9.7745866,1.51805255 C9.77584812,1.51743044 9.77584812,1.51743044 9.77710871,1.51680861 C9.79148863,1.50971538 9.79814786,1.50649848 9.80630539,1.50279808 C10.0319668,1.3999464 10.2356033,1.41441524 10.375317,1.51490062 C10.490729,1.59790764 10.5300878,1.72289045 10.4640538,1.77952237 L10.473221,1.7914032 C10.5114292,1.75916973 10.5217314,1.75372522 10.6016672,1.71733075 C10.6066153,1.71506542 10.6066153,1.71506542 10.6114747,1.71277252 C10.7084914,1.66836273 10.5897368,1.41107045 10.3781149,1.30551034 C10.2831414,1.25808516 10.0958225,1.25028329 9.96156401,1.27923893 L9.96857565,1.29168121 C10.0634073,1.17462102 10.1285377,1.13333282 10.2560958,1.11053378 C10.2494022,1.15690108 10.2354283,1.2200524 10.212537,1.27034246 L10.2181799,1.28122221 C10.2257519,1.28221216 10.2257519,1.28221216 10.2334704,1.28314831 C10.2992816,1.29108007 10.3280916,1.2975141 10.3718689,1.31932308 C10.4195766,1.24789885 10.4395249,1.15463981 10.433165,1.06353897 C10.4664336,1.06054464 10.5042004,1.04912006 10.5581522,1.03226932 C10.7290671,0.978887503 10.758342,0.970175902 10.8307673,0.95343278 C10.9335197,0.929678678 11.0235906,0.919777529 11.1125394,0.924820682 C11.2843072,0.934561584 11.4085562,0.998776618 11.4429401,1.08286324 C11.4760284,1.16378141 11.4160845,1.24414287 11.276601,1.28337972 L11.2807611,1.29802684 C11.3181328,1.2851174 11.5414298,1.21100579 11.5957891,1.19120569 C11.711685,1.1489912 11.7867306,1.11174938 11.8449852,1.06400839 C11.9987259,0.938139273 11.9353424,0.669512474 11.6634762,0.611224911 C11.368127,0.547821238 11.1733026,0.572160617 10.7797458,0.681525118 C10.7662792,0.685267769 10.7662792,0.685267769 10.7528193,0.689003583 C10.4057778,0.785248282 10.222066,0.809194546 9.9646623,0.760792519 C9.78301413,0.726665716 9.65074441,0.72764938 9.55578878,0.774549875 C9.44078844,0.831350853 9.38803722,0.954669005 9.40447301,1.15673617 C9.40631334,1.1793782 9.40630822,1.1793101 9.40932367,1.22031398 C9.40944083,1.22190589 9.40944083,1.22190589 9.40955828,1.22349571 C9.41092273,1.2419453 9.41207132,1.25626163 9.4137981,1.27581296 C9.41376699,1.41403446 9.23227412,1.47978338 9.06949347,1.36190224 L9.0595654,1.37282653 C9.11958658,1.45561106 9.17144862,1.50176325 9.22674508,1.52417504 C9.27097944,1.54210332 9.30405206,1.54470842 9.39428956,1.54292717 C9.40849505,1.54264932 9.41483547,1.54253981 9.42322315,1.54244605 C9.4308135,1.52319298 9.43722131,1.51886765 9.45289797,1.51964805 C9.46697346,1.52034875 9.48375838,1.52481173 9.51512347,1.5351965 C9.51726214,1.5359053 9.51726214,1.5359053 9.51940222,1.53661642 C9.57417212,1.55482122 9.59176668,1.55882228 9.60671737,1.55107614 L9.59621753,1.54447143 C9.60486596,1.82063137 9.58292272,2.0817334 9.51813434,2.35743464 C9.4014959,2.29337839 9.31859618,2.29032487 9.28840462,2.37493234 C9.27258839,2.42765261 9.25616376,2.47797071 9.23818916,2.5284544 L9.25183137,2.53380546 C9.2771574,2.46257947 9.35451314,2.46832118 9.47972779,2.52662192 C9.43290725,2.66398132 9.37767445,2.81322896 9.30914525,2.96541727 C9.22635925,3.14891732 9.16179839,3.3487296 9.12161553,3.54715617 C8.96432393,3.49781417 8.85450235,3.50060194 8.83674961,3.59174028 C8.81682599,3.68835653 8.80305319,3.77755134 8.79573906,3.86144374 L8.81024908,3.86274477 C8.81656391,3.77909649 8.87479264,3.75255415 8.97819276,3.76378628 C9.00133035,3.76629966 9.02510844,3.77044441 9.05539002,3.77680978 C9.06373079,3.77856306 9.08998442,3.78426261 9.09221904,3.78473967 C9.05543122,4.06345982 9.08098253,4.32191664 9.16474025,4.51702537 L9.27254998,4.56117972 L9.28165125,4.55073922 L9.28165125,4.55073922 Z M9.26848467,4.55727301 L9.27758594,4.54683251 L9.17389662,4.50671019 C9.09546001,4.31843047 9.07017417,4.06265879 9.10090509,3.7781091 C9.09292793,3.76928761 9.06664422,3.76358153 9.05824891,3.76181679 C9.02755606,3.75536496 9.00336976,3.75114906 8.97969146,3.74857694 C8.86925045,3.73657998 8.80288092,3.76683312 8.7957315,3.86153658 L8.81024153,3.8628376 C8.81749747,3.77961263 8.83117729,3.69101999 8.85100016,3.59488995 C8.86604154,3.51767358 8.96991397,3.51503682 9.12697583,3.55616422 C9.17580655,3.35307759 9.24000263,3.15439427 9.32230877,2.97195785 C9.39113731,2.81910479 9.44662386,2.66917147 9.48964124,2.52187431 C9.35301464,2.45089692 9.26800996,2.44458747 9.23818805,2.52845754 L9.25183026,2.53380859 C9.26989668,2.48306699 9.28640426,2.43249478 9.30216889,2.37991014 C9.32787989,2.30789002 9.40266392,2.3106446 9.52225519,2.3662564 C9.59740328,2.08394315 9.61946281,1.82145741 9.61077277,1.54396894 L9.60027292,1.53736423 C9.59065597,1.54234688 9.57241581,1.53819902 9.52379754,1.52203893 C9.52165241,1.52132614 9.52165241,1.52132614 9.51950323,1.52061385 C9.48686368,1.50980712 9.46939162,1.50516143 9.45358768,1.50437469 C9.43068693,1.50323466 9.41658522,1.51275345 9.41586842,1.53453725 C9.41462998,1.52725072 9.40824715,1.52736097 9.39401581,1.52763935 C9.30568408,1.52938298 9.27384659,1.52687517 9.23198956,1.50991042 C9.17953232,1.48864938 9.12967415,1.44428045 9.07115305,1.36356491 L9.06122498,1.3744892 C9.23274734,1.49870084 9.4283301,1.42784763 9.4283301,1.27510703 C9.42657939,1.25493108 9.42543681,1.24068957 9.42407768,1.22231197 C9.42396051,1.22072583 9.42396051,1.22072583 9.42384356,1.21913684 C9.42082469,1.17808637 9.42082839,1.17813573 9.41898334,1.15543555 C9.40302474,0.959235175 9.45310264,0.842166534 9.56198792,0.788385905 C9.65347652,0.743197847 9.78319543,0.742233153 9.96209608,0.775843773 C10.2221056,0.8247358 10.4076046,0.800556588 10.7565384,0.703787091 C10.770005,0.700049417 10.770005,0.700049417 10.7834719,0.696306683 C11.1750222,0.587499757 11.3679713,0.563394662 11.6605608,0.626205896 C11.9203552,0.681905284 11.97988,0.934178947 11.8360273,1.05195265 C11.779308,1.09843545 11.7055271,1.1350497 11.591016,1.17675978 C11.5368851,1.19647666 11.3137518,1.27053395 11.2762098,1.28350221 L11.2803698,1.29814934 C11.4273622,1.25680023 11.4936016,1.16799897 11.456322,1.07683095 C11.4193433,0.986398659 11.2900453,0.919574183 11.1133248,0.909552412 C11.0229335,0.904427475 10.9315858,0.914468971 10.8276358,0.938499943 C10.7547137,0.955357909 10.7253376,0.964099627 10.5539999,1.0176135 C10.5001583,1.03442984 10.462497,1.0458225 10.4240077,1.0567161 C10.4247874,1.1527026 10.4055018,1.24286416 10.3687138,1.30854015 C10.3324915,1.28278164 10.3024347,1.27606916 10.2351312,1.26795754 C10.227465,1.26702766 10.227465,1.26702766 10.2200337,1.26605608 L10.2256766,1.27693583 C10.2495355,1.22452008 10.2640435,1.15895486 10.2621508,1.1027269 C10.1225819,1.11888684 10.0544502,1.16207768 9.9574826,1.28177445 L9.96449425,1.29421673 C10.095928,1.2658703 10.2801938,1.27354501 10.3718629,1.3193201 C10.5744489,1.42037295 10.6859694,1.66199193 10.6055559,1.69880225 C10.6007308,1.70107858 10.6007308,1.70107858 10.5958733,1.7033024 C10.5146311,1.74029173 10.5037219,1.74605704 10.4640994,1.77948365 L10.4732665,1.79136448 C10.5487646,1.72661591 10.5058124,1.590222 10.3835471,1.50228593 C10.2395665,1.39873175 10.0306306,1.38388638 9.80051799,1.48876682 C9.79218653,1.49254611 9.78543282,1.49580864 9.77091622,1.5029693 C9.76965576,1.50359106 9.76965576,1.50359106 9.76839636,1.50421212 C9.71550734,1.53028925 9.68963566,1.5392657 9.65593135,1.53865557 C9.67610531,2.03353093 9.60777131,2.48897101 9.38656776,3.00321401 C9.15426284,3.54301753 9.09720213,4.17677011 9.26848467,4.55727301 L9.26848467,4.55727301 Z" id="Shape" fill="#000000" fill-rule="nonzero"></path>
                    </g>
                </g>
            </g>
        </g>
    </g>
</svg>