<?xml version="1.0" encoding="utf-8"?>
<!-- Generator: Adobe Illustrator 23.0.3, SVG Export Plug-In . SVG Version: 6.00 Build 0)  -->
<svg width="28px" height="20px" version="1.1" id="Ebene_1" xmlns="http://www.w3.org/2000/svg" xmlns:xlink="http://www.w3.org/1999/xlink" x="0px" y="0px"
	 viewBox="0 0 28 20" style="enable-background:new 0 0 28 20;" xml:space="preserve">
<style type="text/css">
	.st0{fill:#FFFFFF;}
	.st1{filter:url(#Adobe_OpacityMaskFilter);}
	.st2{fill-rule:evenodd;clip-rule:evenodd;fill:#FFFFFF;}
	.st3{mask:url(#mask-2_1_);}
	.st4{fill-rule:evenodd;clip-rule:evenodd;fill:#E01B41;}
	.st5{filter:url(#Adobe_OpacityMaskFilter_1_);}
	.st6{mask:url(#mask-4_1_);fill-rule:evenodd;clip-rule:evenodd;fill:#0E4B9C;}
	.st7{filter:url(#Adobe_OpacityMaskFilter_2_);}
	.st8{opacity:0.75;mask:url(#mask-2_2_);fill-rule:evenodd;clip-rule:evenodd;fill:#262626;enable-background:new    ;}
</style>
<title>icon/flags/KR</title>
<desc>Created with Sketch.</desc>
<g>
	<g>
		<path class="st0" d="M2,0H26c1.1,0,2,0.9,2,2.1v15.9c0,1.1-0.9,2.1-2,2.1H2c-1.1,0-2-0.9-2-2.1V2.1C0,0.9,0.9,0,2,0z"/>
		<defs>
			<filter id="Adobe_OpacityMaskFilter" filterUnits="userSpaceOnUse" x="8.7" y="5.3" width="10.2" height="9.3">
				<feColorMatrix  type="matrix" values="1 0 0 0 0  0 1 0 0 0  0 0 1 0 0  0 0 0 1 0"/>
			</filter>
		</defs>
		<mask maskUnits="userSpaceOnUse" x="8.7" y="5.3" width="10.2" height="9.3" id="mask-2_1_">
			<g class="st1">
				<path id="path-1_1_" class="st2" d="M2,0h24c1.1,0,2,0.9,2,2v16c0,1.1-0.9,2-2,2H2c-1.1,0-2-0.9-2-2V2C0,0.9,0.9,0,2,0z"/>
			</g>
		</mask>
		<g id="Oval-9" class="st3">
			<g transform="translate(9.333333, 5.333333)">
				<g id="Mask">
					<circle class="st4" cx="4.7" cy="4.7" r="4.7"/>
				</g>
				<defs>
					<filter id="Adobe_OpacityMaskFilter_1_" filterUnits="userSpaceOnUse" x="-0.6" y="3.8" width="10.2" height="5.5">
						<feColorMatrix  type="matrix" values="1 0 0 0 0  0 1 0 0 0  0 0 1 0 0  0 0 0 1 0"/>
					</filter>
				</defs>
				<mask maskUnits="userSpaceOnUse" x="-0.6" y="3.8" width="10.2" height="5.5" id="mask-4_1_">
					<g class="st5">
						<circle id="path-3_1_" class="st2" cx="4.7" cy="4.7" r="4.7"/>
					</g>
				</mask>
				<path id="Rectangle-277" class="st6" d="M0,5.3c1.3,1.2,3.3,2,4.7,0s4-2,4.7,0c0.7,2,0,4,0,4H0C0,9.3-1.3,4.1,0,5.3z"/>
			</g>
		</g>
		<defs>
			<filter id="Adobe_OpacityMaskFilter_2_" filterUnits="userSpaceOnUse" x="4.5" y="3.4" width="19.1" height="13.2">
				<feColorMatrix  type="matrix" values="1 0 0 0 0  0 1 0 0 0  0 0 1 0 0  0 0 0 1 0"/>
			</filter>
		</defs>
		<mask maskUnits="userSpaceOnUse" x="4.5" y="3.4" width="19.1" height="13.2" id="mask-2_2_">
			<g class="st7">
				<path id="path-1_2_" class="st2" d="M2,0h24c1.1,0,2,0.9,2,2v16c0,1.1-0.9,2-2,2H2c-1.1,0-2-0.9-2-2V2C0,0.9,0.9,0,2,0z"/>
			</g>
		</mask>
		<path id="Rectangle-278" class="st8" d="M18.9,5.2c-0.1-0.2,0-0.4,0.1-0.5l0.6-0.3c0.2-0.1,0.4,0,0.5,0.1l1.7,2.9
			c0.1,0.2,0,0.4-0.1,0.5l-0.6,0.3c-0.2,0.1-0.4,0-0.5-0.1L18.9,5.2z M20.7,4.2c-0.1-0.2,0-0.4,0.1-0.5l0.6-0.3
			c0.2-0.1,0.4,0,0.5,0.1l1.7,2.9c0.1,0.2,0,0.4-0.1,0.5l-0.6,0.3c-0.2,0.1-0.4,0-0.5-0.1L20.7,4.2z M4.5,13.6
			c-0.1-0.2,0-0.4,0.1-0.5l0.6-0.3c0.2-0.1,0.4,0,0.5,0.1l1.7,2.9c0.1,0.2,0,0.4-0.1,0.5l-0.6,0.3c-0.2,0.1-0.4,0-0.5-0.1L4.5,13.6z
			 M6.2,12.6c-0.1-0.2,0-0.4,0.1-0.5l0.6-0.3c0.2-0.1,0.4,0,0.5,0.1l1.7,2.9c0.1,0.2,0,0.4-0.1,0.5l-0.6,0.3c-0.2,0.1-0.4,0-0.5-0.1
			L6.2,12.6z M20.6,11.9c0.1-0.2,0.3-0.2,0.5-0.1l0.6,0.3c0.2,0.1,0.2,0.3,0.1,0.5l-1.7,2.9c-0.1,0.2-0.3,0.2-0.5,0.1l-0.6-0.3
			c-0.2-0.1-0.2-0.3-0.1-0.5L20.6,11.9z M22.3,12.9c0.1-0.2,0.3-0.2,0.5-0.1l0.6,0.3c0.2,0.1,0.2,0.3,0.1,0.5l-1.7,2.9
			c-0.1,0.2-0.3,0.2-0.5,0.1l-0.6-0.3c-0.2-0.1-0.2-0.3-0.1-0.5L22.3,12.9z M6.2,3.6c0.1-0.2,0.3-0.2,0.5-0.1l0.6,0.3
			c0.2,0.1,0.2,0.3,0.1,0.5L5.7,7.1C5.6,7.3,5.4,7.3,5.2,7.2L4.6,6.9C4.5,6.8,4.4,6.6,4.5,6.4L6.2,3.6z M7.9,4.6
			C8,4.4,8.2,4.3,8.4,4.4l0.6,0.3c0.2,0.1,0.2,0.3,0.1,0.5L7.4,8.1C7.3,8.3,7.1,8.3,6.9,8.2L6.4,7.9C6.2,7.8,6.1,7.6,6.2,7.4
			L7.9,4.6z"/>
	</g>
</g>
</svg>
