<?xml version="1.0" encoding="UTF-8"?>
<svg width="28px" height="20px" viewBox="0 0 28 20" version="1.1" xmlns="http://www.w3.org/2000/svg" xmlns:xlink="http://www.w3.org/1999/xlink">
    <!-- Generator: Sketch 55.2 (78181) - https://sketchapp.com -->
    <title>icon/flags/KY</title>
    <desc>Created with Sketch.</desc>
    <defs>
        <rect id="path-1" x="0" y="0" width="28" height="20" rx="2"></rect>
        <linearGradient x1="50%" y1="0%" x2="50%" y2="100%" id="linearGradient-3">
            <stop stop-color="#FFFFFF" offset="0%"></stop>
            <stop stop-color="#F0F0F0" offset="100%"></stop>
        </linearGradient>
        <path d="M0,4.66666667 L0,0 L6.66666667,0 L6.66666667,4.66666667 C6.66666667,8 3.33333333,9.33333333 3.33333333,9.33333333 C3.33333333,9.33333333 0,8 0,4.66666667 Z" id="path-4"></path>
    </defs>
    <g id="icon/flags/KY" stroke="none" stroke-width="1" fill="none" fill-rule="evenodd">
        <g id="ic_flags/KY">
            <mask id="mask-2" fill="white">
                <use xlink:href="#path-1"></use>
            </mask>
            <use id="Mask" fill="#FFFFFF" xlink:href="#path-1"></use>
            <rect id="Mask-Copy" fill="#07319C" mask="url(#mask-2)" x="0" y="0" width="28" height="20"></rect>
            <ellipse id="Oval-180" fill="#FAD051" mask="url(#mask-2)" cx="20.6666667" cy="5.33333333" rx="2" ry="1.33333333"></ellipse>
            <g id="Rectangle-1105" mask="url(#mask-2)">
                <g transform="translate(17.333333, 5.333333)">
                    <mask id="mask-5" fill="white">
                        <use xlink:href="#path-4"></use>
                    </mask>
                    <use id="Mask" stroke="none" fill="url(#linearGradient-3)" fill-rule="evenodd" xlink:href="#path-4"></use>
                    <polygon id="Rectangle-1106" stroke="none" fill="#CF142C" fill-rule="evenodd" mask="url(#mask-5)" points="1.95399252e-13 0 6.66666667 0 6.66666667 1.33333333 4 1.33333333 2.66666667 1.33333333 1.95399252e-13 1.33333333"></polygon>
                    <path d="M2.59348099e-13,8 L6.66666667,8 L6.66666667,9.33333333 L4,9.33333333 L2.66666667,9.33333333 L2.59348099e-13,9.33333333 L2.59348099e-13,8 Z M2.59348099e-13,5.33333333 L6.66666667,5.33333333 L6.66666667,6.66666667 L4,6.66666667 L2.66666667,6.66666667 L2.59348099e-13,6.66666667 L2.59348099e-13,5.33333333 Z M2.59348099e-13,2.66666667 L6.66666667,2.66666667 L6.66666667,4 L4,4 L2.66666667,4 L2.59348099e-13,4 L2.59348099e-13,2.66666667 Z" id="Rectangle-1106" stroke="none" fill="#125FBA" fill-rule="evenodd" mask="url(#mask-5)"></path>
                </g>
            </g>
            <path d="M4.33333333,4.15331164 L-0.901085803,-0.333333333 L0.666666667,-0.333333333 L0.860412731,-0.27124449 L5.44015502,3 L6.57106792,3 L12.3333333,-0.601415881 L12.3333333,0.333333333 C12.3333333,0.628978368 12.1628101,0.960008269 11.9158002,1.1364439 L7.66666667,4.1715393 L7.66666667,5.18002169 L11.9660302,8.86519043 C12.3427037,9.18805344 12.1509712,9.66666667 11.6666667,9.66666667 C11.4092185,9.66666667 11.0776031,9.56030345 10.8616414,9.40604508 L6.55984498,6.33333333 L5.42893208,6.33333333 L-0.333333333,9.93474921 L-0.333333333,8.49512737 L4.33333333,5.16179403 L4.33333333,4.15331164 Z" id="Rectangle-36" stroke="#FFFFFF" stroke-width="0.666666667" fill="#DB1E36" mask="url(#mask-2)"></path>
            <path d="M0,3.33333333 L0,6 L4.66666667,6 L4.66666667,9.33948135 C4.66666667,9.70427573 4.97256724,10 5.33957926,10 L6.66042074,10 C7.0320601,10 7.33333333,9.69934988 7.33333333,9.33948135 L7.33333333,6 L11.9911963,6 C12.3642483,6 12.6666667,5.69409943 12.6666667,5.3270874 L12.6666667,4.00624593 C12.6666667,3.63460657 12.3646425,3.33333333 11.9911963,3.33333333 L7.33333333,3.33333333 L7.33333333,0 L4.66666667,0 L4.66666667,3.33333333 L0,3.33333333 Z" id="Rectangle-2" fill="#FFFFFF" mask="url(#mask-2)"></path>
            <polygon id="Rectangle-36" fill="#DB1E36" mask="url(#mask-2)" points="0 4 5.33333333 4 5.33333333 3.33333333 5.33333333 0 6.66666667 0 6.66666667 3.33333333 6.66666667 4 12 4 12 5.33333333 6.66666667 5.33333333 6.66666667 6 6.66666667 9.33333333 5.33333333 9.33333333 5.33333333 6 5.33333333 5.33333333 0 5.33333333"></polygon>
        </g>
    </g>
</svg>