<?xml version="1.0" encoding="UTF-8"?>
<svg width="28px" height="20px" viewBox="0 0 28 20" version="1.1" xmlns="http://www.w3.org/2000/svg" xmlns:xlink="http://www.w3.org/1999/xlink">
    <!-- Generator: Sketch 55.2 (78181) - https://sketchapp.com -->
    <title>icon/flags/KZ</title>
    <desc>Created with Sketch.</desc>
    <defs>
        <rect id="path-1" x="0" y="0" width="28" height="20" rx="2"></rect>
    </defs>
    <g id="icon/flags/KZ" stroke="none" stroke-width="1" fill="none" fill-rule="evenodd">
        <g id="ic_flags/KZ">
            <mask id="mask-2" fill="white">
                <use xlink:href="#path-1"></use>
            </mask>
            <use id="Mask" fill="#FFFFFF" xlink:href="#path-1"></use>
            <rect id="Mask-Copy" fill="#30C6E0" mask="url(#mask-2)" x="0" y="0" width="28" height="20"></rect>
            <circle id="Oval-9" fill="#FFCD4B" mask="url(#mask-2)" cx="14" cy="10" r="4"></circle>
            <path d="M14,14.713613 L12.3681798,17.1494714 L11.95484,14.2468186 L9.42774145,15.7334309 L10.3147489,12.9388896 L7.39289497,13.1818141 L9.40456711,11.0488776 L6.66666667,10 L9.40456711,8.95112243 L7.39289497,6.81818591 L10.3147489,7.06111036 L9.42774145,4.26656913 L11.95484,5.75318142 L12.3681798,2.85052864 L14,5.28638699 L15.6318202,2.85052864 L16.04516,5.75318142 L18.5722585,4.26656913 L17.6852511,7.06111036 L20.607105,6.81818591 L18.5954329,8.95112243 L21.3333333,10 L18.5954329,11.0488776 L20.607105,13.1818141 L17.6852511,12.9388896 L18.5722585,15.7334309 L16.04516,14.2468186 L15.6318202,17.1494714 L14,14.713613 Z M14,14.6666667 C16.5773288,14.6666667 18.6666667,12.5773288 18.6666667,10 C18.6666667,7.42267117 16.5773288,5.33333333 14,5.33333333 C11.4226712,5.33333333 9.33333333,7.42267117 9.33333333,10 C9.33333333,12.5773288 11.4226712,14.6666667 14,14.6666667 Z" id="Star-28" fill="#FFCD4B" mask="url(#mask-2)"></path>
            <path d="M1.33333333,1.66978963 C1.33333333,1.48396995 1.47602336,1.33333333 1.66978963,1.33333333 L2.33021037,1.33333333 C2.51603005,1.33333333 2.66666667,1.47602336 2.66666667,1.66978963 L2.66666667,2.33021037 C2.66666667,2.51603005 2.52397664,2.66666667 2.33021037,2.66666667 L1.66978963,2.66666667 C1.48396995,2.66666667 1.33333333,2.52397664 1.33333333,2.33021037 L1.33333333,1.66978963 Z M1.33333333,4.3364563 C1.33333333,4.15063662 1.47602336,4 1.66978963,4 L2.33021037,4 C2.51603005,4 2.66666667,4.14269002 2.66666667,4.3364563 L2.66666667,4.99687703 C2.66666667,5.18269672 2.52397664,5.33333333 2.33021037,5.33333333 L1.66978963,5.33333333 C1.48396995,5.33333333 1.33333333,5.19064331 1.33333333,4.99687703 L1.33333333,4.3364563 Z M1.33333333,7.00312297 C1.33333333,6.81730328 1.47602336,6.66666667 1.66978963,6.66666667 L2.33021037,6.66666667 C2.51603005,6.66666667 2.66666667,6.80935669 2.66666667,7.00312297 L2.66666667,7.6635437 C2.66666667,7.84936338 2.52397664,8 2.33021037,8 L1.66978963,8 C1.48396995,8 1.33333333,7.85730998 1.33333333,7.6635437 L1.33333333,7.00312297 Z M1.33333333,9.66978963 C1.33333333,9.48396995 1.47602336,9.33333333 1.66978963,9.33333333 L2.33021037,9.33333333 C2.51603005,9.33333333 2.66666667,9.47602336 2.66666667,9.66978963 L2.66666667,10.3302104 C2.66666667,10.5160301 2.52397664,10.6666667 2.33021037,10.6666667 L1.66978963,10.6666667 C1.48396995,10.6666667 1.33333333,10.5239766 1.33333333,10.3302104 L1.33333333,9.66978963 Z M1.33333333,12.3364563 C1.33333333,12.1506366 1.47602336,12 1.66978963,12 L2.33021037,12 C2.51603005,12 2.66666667,12.14269 2.66666667,12.3364563 L2.66666667,12.996877 C2.66666667,13.1826967 2.52397664,13.3333333 2.33021037,13.3333333 L1.66978963,13.3333333 C1.48396995,13.3333333 1.33333333,13.1906433 1.33333333,12.996877 L1.33333333,12.3364563 Z M1.33333333,15.003123 C1.33333333,14.8173033 1.47602336,14.6666667 1.66978963,14.6666667 L2.33021037,14.6666667 C2.51603005,14.6666667 2.66666667,14.8093567 2.66666667,15.003123 L2.66666667,15.6635437 C2.66666667,15.8493634 2.52397664,16 2.33021037,16 L1.66978963,16 C1.48396995,16 1.33333333,15.85731 1.33333333,15.6635437 L1.33333333,15.003123 Z M1.33333333,17.6697896 C1.33333333,17.4839699 1.47602336,17.3333333 1.66978963,17.3333333 L2.33021037,17.3333333 C2.51603005,17.3333333 2.66666667,17.4760234 2.66666667,17.6697896 L2.66666667,18.3302104 C2.66666667,18.5160301 2.52397664,18.6666667 2.33021037,18.6666667 L1.66978963,18.6666667 C1.48396995,18.6666667 1.33333333,18.5239766 1.33333333,18.3302104 L1.33333333,17.6697896 Z M2.66666667,16.3364563 C2.66666667,16.1506366 2.80935669,16 3.00312297,16 L3.6635437,16 C3.84936338,16 4,16.14269 4,16.3364563 L4,16.996877 C4,17.1826967 3.85730998,17.3333333 3.6635437,17.3333333 L3.00312297,17.3333333 C2.81730328,17.3333333 2.66666667,17.1906433 2.66666667,16.996877 L2.66666667,16.3364563 Z M2.66666667,13.6697896 C2.66666667,13.4839699 2.80935669,13.3333333 3.00312297,13.3333333 L3.6635437,13.3333333 C3.84936338,13.3333333 4,13.4760234 4,13.6697896 L4,14.3302104 C4,14.5160301 3.85730998,14.6666667 3.6635437,14.6666667 L3.00312297,14.6666667 C2.81730328,14.6666667 2.66666667,14.5239766 2.66666667,14.3302104 L2.66666667,13.6697896 Z M2.66666667,11.003123 C2.66666667,10.8173033 2.80935669,10.6666667 3.00312297,10.6666667 L3.6635437,10.6666667 C3.84936338,10.6666667 4,10.8093567 4,11.003123 L4,11.6635437 C4,11.8493634 3.85730998,12 3.6635437,12 L3.00312297,12 C2.81730328,12 2.66666667,11.85731 2.66666667,11.6635437 L2.66666667,11.003123 Z M2.66666667,8.3364563 C2.66666667,8.15063662 2.80935669,8 3.00312297,8 L3.6635437,8 C3.84936338,8 4,8.14269002 4,8.3364563 L4,8.99687703 C4,9.18269672 3.85730998,9.33333333 3.6635437,9.33333333 L3.00312297,9.33333333 C2.81730328,9.33333333 2.66666667,9.19064331 2.66666667,8.99687703 L2.66666667,8.3364563 Z M2.66666667,5.66978963 C2.66666667,5.48396995 2.80935669,5.33333333 3.00312297,5.33333333 L3.6635437,5.33333333 C3.84936338,5.33333333 4,5.47602336 4,5.66978963 L4,6.33021037 C4,6.51603005 3.85730998,6.66666667 3.6635437,6.66666667 L3.00312297,6.66666667 C2.81730328,6.66666667 2.66666667,6.52397664 2.66666667,6.33021037 L2.66666667,5.66978963 Z M2.66666667,3.00312297 C2.66666667,2.81730328 2.80935669,2.66666667 3.00312297,2.66666667 L3.6635437,2.66666667 C3.84936338,2.66666667 4,2.80935669 4,3.00312297 L4,3.6635437 C4,3.84936338 3.85730998,4 3.6635437,4 L3.00312297,4 C2.81730328,4 2.66666667,3.85730998 2.66666667,3.6635437 L2.66666667,3.00312297 Z" id="Rectangle-294" fill="#FFCD4B" mask="url(#mask-2)"></path>
        </g>
    </g>
</svg>