<?xml version="1.0" encoding="utf-8"?>
<!-- Generator: Adobe Illustrator 23.0.3, SVG Export Plug-In . SVG Version: 6.00 Build 0)  -->
<svg width="28px" height="20px" version="1.1" id="Ebene_1" xmlns="http://www.w3.org/2000/svg" xmlns:xlink="http://www.w3.org/1999/xlink" x="0px" y="0px"
	 viewBox="0 0 28 20" style="enable-background:new 0 0 28 20;" xml:space="preserve">
<style type="text/css">
	.st0{fill:#FFFFFF;}
	.st1{filter:url(#Adobe_OpacityMaskFilter);}
	.st2{fill-rule:evenodd;clip-rule:evenodd;fill:#FFFFFF;}
	.st3{mask:url(#mask-2_1_);fill-rule:evenodd;clip-rule:evenodd;fill:#149047;}
	.st4{filter:url(#Adobe_OpacityMaskFilter_1_);}
	.st5{mask:url(#mask-2_2_);fill-rule:evenodd;clip-rule:evenodd;fill:#F84F4B;}
</style>
<title>icon/flags/MG</title>
<desc>Created with Sketch.</desc>
<g>
	<g>
		<path class="st0" d="M2,0H26c1.1,0,2,0.9,2,2.1v15.9c0,1.1-0.9,2.1-2,2.1H2c-1.1,0-2-0.9-2-2.1V2.1C0,0.9,0.9,0,2,0z"/>
		<defs>
			<filter id="Adobe_OpacityMaskFilter" filterUnits="userSpaceOnUse" x="9.1" y="9.3" width="18.9" height="10.7">
				<feColorMatrix  type="matrix" values="1 0 0 0 0  0 1 0 0 0  0 0 1 0 0  0 0 0 1 0"/>
			</filter>
		</defs>
		<mask maskUnits="userSpaceOnUse" x="9.1" y="9.3" width="18.9" height="10.7" id="mask-2_1_">
			<g class="st1">
				<path id="path-1_1_" class="st2" d="M1.6,0H26c1.1,0,2,0.9,2,2v16c0,1.1-0.9,2-2,2H1.6c-1.1,0-2-0.9-2-2V2C-0.4,0.9,0.5,0,1.6,0
					z"/>
			</g>
		</mask>
		<path id="Combined-Shape" class="st3" d="M9.1,9.3H28V20H9.1V9.3z"/>
		<defs>
			<filter id="Adobe_OpacityMaskFilter_1_" filterUnits="userSpaceOnUse" x="9.1" y="0" width="18.9" height="9.3">
				<feColorMatrix  type="matrix" values="1 0 0 0 0  0 1 0 0 0  0 0 1 0 0  0 0 0 1 0"/>
			</filter>
		</defs>
		<mask maskUnits="userSpaceOnUse" x="9.1" y="0" width="18.9" height="9.3" id="mask-2_2_">
			<g class="st4">
				<path id="path-1_2_" class="st2" d="M1.6,0H26c1.1,0,2,0.9,2,2v16c0,1.1-0.9,2-2,2H1.6c-1.1,0-2-0.9-2-2V2C-0.4,0.9,0.5,0,1.6,0
					z"/>
			</g>
		</mask>
		<path class="st5" d="M9.1,0H28v9.3H9.1V0z"/>
	</g>
</g>
</svg>
