<?xml version="1.0" encoding="UTF-8"?>
<svg width="28px" height="20px" viewBox="0 0 28 20" version="1.1" xmlns="http://www.w3.org/2000/svg" xmlns:xlink="http://www.w3.org/1999/xlink">
    <!-- Generator: Sketch 55.2 (78181) - https://sketchapp.com -->
    <title>icon/flags/MO</title>
    <desc>Created with Sketch.</desc>
    <defs>
        <rect id="path-1" x="0" y="0" width="28" height="20" rx="2"></rect>
    </defs>
    <g id="icon/flags/MO" stroke="none" stroke-width="1" fill="none" fill-rule="evenodd">
        <g id="ic_flags/MO">
            <mask id="mask-2" fill="white">
                <use xlink:href="#path-1"></use>
            </mask>
            <use id="Mask" fill="#FFFFFF" xlink:href="#path-1"></use>
            <rect id="Rectangle-2" fill="#079D7B" mask="url(#mask-2)" x="0" y="0" width="28" height="20"></rect>
            <g id="Oval-9" mask="url(#mask-2)">
                <g transform="translate(8.000000, 2.666667)">
                    <path d="M3.26910733,9.2030638 C3.87198848,9.22095137 4.87037371,9.33333333 6,9.33333333 C7.11448938,9.33333333 8.10123136,9.22394301 8.70644456,9.20383328 C8.50902029,9.25478617 8.31419502,9.29789732 8.12365053,9.33333333 L11.3333333,9.33333333 C11.1751933,9.80803868 10.9623465,10.2553256 10.7028302,10.6666667 L1.29716981,10.6666667 C1.03765349,10.2553256 0.824806705,9.80803868 0.666666667,9.33333333 L3.83315478,9.33333333 C3.64839563,9.2971105 3.4598776,9.25373696 3.26910733,9.2030638 Z M2.71315752,9.03579257 C1.21882805,8.53133057 0.194684417,7.72222755 0.355673329,7.12140875 C0.535307365,6.45100541 2.12246193,6.29379356 3.90068228,6.77026626 C3.99404731,6.79528335 4.08608274,6.82154994 4.1766448,6.8489629 C4.13639419,6.57791425 4.11495985,6.29338343 4.11495985,6 C4.11495985,4.15905083 4.95892107,2.66666667 6,2.66666667 C7.04107893,2.66666667 7.88504015,4.15905083 7.88504015,6 C7.88504015,6.29185898 7.86382798,6.57495711 7.82398112,6.84473663 C7.92623293,6.81330224 8.03040441,6.7833244 8.13628589,6.75495355 C9.91450624,6.27848084 11.5016608,6.43569269 11.6812948,7.10609604 C11.8436395,7.71197441 10.8008072,8.52965974 9.28595925,9.03315914 C9.0183419,8.23948109 7.64900546,8 6,8 C4.34917214,8 2.9786318,8.24001071 2.71315752,9.03579257 Z M9.55476746,12 C8.58351552,12.8338666 7.3467334,13.3333333 6,13.3333333 C4.6532666,13.3333333 3.41648448,12.8338666 2.44523254,12 L9.55476746,12 Z" id="Mask" fill="#FFFFFF"></path>
                    <path d="M6,1.33333333 C5.63181017,1.33333333 5.33333333,1.0348565 5.33333333,0.666666667 C5.33333333,0.298476833 5.63181017,0 6,0 C6.36818983,0 6.66666667,0.298476833 6.66666667,0.666666667 C6.66666667,1.0348565 6.36818983,1.33333333 6,1.33333333 Z M0.666666667,4.66666667 C0.298476833,4.66666667 0,4.36818983 0,4 C0,3.63181017 0.298476833,3.33333333 0.666666667,3.33333333 C1.0348565,3.33333333 1.33333333,3.63181017 1.33333333,4 C1.33333333,4.36818983 1.0348565,4.66666667 0.666666667,4.66666667 Z M11.3333333,4.66666667 C10.9651435,4.66666667 10.6666667,4.36818983 10.6666667,4 C10.6666667,3.63181017 10.9651435,3.33333333 11.3333333,3.33333333 C11.7015232,3.33333333 12,3.63181017 12,4 C12,4.36818983 11.7015232,4.66666667 11.3333333,4.66666667 Z M9.33333333,2.66666667 C8.9651435,2.66666667 8.66666667,2.36818983 8.66666667,2 C8.66666667,1.63181017 8.9651435,1.33333333 9.33333333,1.33333333 C9.70152317,1.33333333 10,1.63181017 10,2 C10,2.36818983 9.70152317,2.66666667 9.33333333,2.66666667 Z M2.66666667,2.66666667 C2.29847683,2.66666667 2,2.36818983 2,2 C2,1.63181017 2.29847683,1.33333333 2.66666667,1.33333333 C3.0348565,1.33333333 3.33333333,1.63181017 3.33333333,2 C3.33333333,2.36818983 3.0348565,2.66666667 2.66666667,2.66666667 Z" id="Oval-184" fill="#FCD117"></path>
                </g>
            </g>
        </g>
    </g>
</svg>