<?xml version="1.0" encoding="utf-8"?>
<!-- Generator: Adobe Illustrator 23.0.3, SVG Export Plug-In . SVG Version: 6.00 Build 0)  -->
<svg width="28px" height="20px" version="1.1" id="Ebene_1" xmlns="http://www.w3.org/2000/svg" xmlns:xlink="http://www.w3.org/1999/xlink" x="0px" y="0px"
	 viewBox="0 0 28 20" style="enable-background:new 0 0 28 20;" xml:space="preserve">
<style type="text/css">
	.st0{fill:#FFFFFF;}
	.st1{fill-rule:evenodd;clip-rule:evenodd;fill:#FFFFFF;}
	.st2{filter:url(#Adobe_OpacityMaskFilter);}
	.st3{mask:url(#mask-4_1_);fill-rule:evenodd;clip-rule:evenodd;fill:#EE1B44;stroke:#0543A8;stroke-width:1.3333;}
	.st4{filter:url(#Adobe_OpacityMaskFilter_1_);}
	.st5{mask:url(#mask-4_2_);fill-rule:evenodd;clip-rule:evenodd;fill:#FFFFFF;}
</style>
<title>icon/flags/NP</title>
<desc>Created with Sketch.</desc>
<g>
	<g>
		<path class="st0" d="M2,0h23.9c1.1,0,2,0.9,2,2v15.9c0,1.1-0.9,2-2,2H2c-1.1,0-2-0.9-2-2V2C0,0.9,0.9,0,2,0z"/>
		<g id="Mask">
			<path class="st1" d="M0,2c0-1.1,0.9-2,2-2l0,0c0.4,0,0.9,0.2,1.2,0.4l14.4,9.6c0.6,0.4,0.5,0.7-0.2,0.7H8l9.7,8.5
				c0.6,0.5,0.4,0.9-0.3,0.9H2c-1.1,0-2-0.9-2-2V2z"/>
		</g>
		<defs>
			<filter id="Adobe_OpacityMaskFilter" filterUnits="userSpaceOnUse" x="0" y="0" width="18.7" height="20.1">
				<feColorMatrix  type="matrix" values="1 0 0 0 0  0 1 0 0 0  0 0 1 0 0  0 0 0 1 0"/>
			</filter>
		</defs>
		<mask maskUnits="userSpaceOnUse" x="0" y="0" width="18.7" height="20.1" id="mask-4_1_">
			<g class="st2">
				<path id="path-3_1_" class="st1" d="M0,2c0-1.1,0.9-2,2-2l0,0c0.4,0,0.9,0.2,1.2,0.4l14.4,9.6c0.6,0.4,0.5,0.7-0.2,0.7H8
					l9.7,8.5c0.6,0.5,0.4,0.9-0.3,0.9H2c-1.1,0-2-0.9-2-2V2z"/>
			</g>
		</mask>
		<path id="Mask-Copy" class="st3" d="M0.7,0.7v18.7h16.3L6.2,10h10.3L2.9,0.9C2.7,0.8,2.2,0.7,2,0.7H0.7z M17.4,19.8
			C17.4,19.8,17.4,19.8,17.4,19.8C17.4,19.8,17.4,19.8,17.4,19.8L17.4,19.8z M17.4,10.6C17.4,10.6,17.4,10.6,17.4,10.6
			C17.4,10.6,17.4,10.6,17.4,10.6L17.4,10.6z"/>
		<defs>
			<filter id="Adobe_OpacityMaskFilter_1_" filterUnits="userSpaceOnUse" x="2.8" y="5.5" width="5.2" height="11.6">
				<feColorMatrix  type="matrix" values="1 0 0 0 0  0 1 0 0 0  0 0 1 0 0  0 0 0 1 0"/>
			</filter>
		</defs>
		<mask maskUnits="userSpaceOnUse" x="2.8" y="5.5" width="5.2" height="11.6" id="mask-4_2_">
			<g class="st4">
				<path id="path-3_2_" class="st1" d="M0,2c0-1.1,0.9-2,2-2l0,0c0.4,0,0.9,0.2,1.2,0.4l14.4,9.6c0.6,0.4,0.5,0.7-0.2,0.7H8
					l9.7,8.5c0.6,0.5,0.4,0.9-0.3,0.9H2c-1.1,0-2-0.9-2-2V2z"/>
			</g>
		</mask>
		<path id="Star-93" class="st5" d="M6.9,7.8c0.4-0.1,0.7-0.2,1.1-0.4c-0.3,1.1-1.3,2-2.6,2s-2.3-0.8-2.6-2c0.3,0.2,0.7,0.3,1.1,0.4
			l0.5-0.5L3.5,6.6l1.1,0.1L4.6,5.5l0.8,0.8l0.8-0.8L6.1,6.6l1.1-0.1L6.3,7.3L6.9,7.8z M5.3,16l-1,1.1l0.1-1.5l-1.5,0.1l1.1-1
			l-1.1-1l1.5,0.1l-0.1-1.5l1,1.1l1-1.1l-0.1,1.5l1.5-0.1l-1.1,1l1.1,1l-1.5-0.1l0.1,1.5L5.3,16z"/>
	</g>
</g>
</svg>
