<?xml version="1.0" encoding="utf-8"?>
<!-- Generator: Adobe Illustrator 23.0.3, SVG Export Plug-In . SVG Version: 6.00 Build 0)  -->
<svg width="28px" height="20px" version="1.1" id="Ebene_1" xmlns="http://www.w3.org/2000/svg" xmlns:xlink="http://www.w3.org/1999/xlink" x="0px" y="0px"
	 viewBox="0 0 28 20" style="enable-background:new 0 0 28 20;" xml:space="preserve">
<style type="text/css">
	.st0{fill:#FFFFFF;}
	.st1{filter:url(#Adobe_OpacityMaskFilter);}
	.st2{fill-rule:evenodd;clip-rule:evenodd;fill:#FFFFFF;}
	.st3{mask:url(#mask-2_1_);fill-rule:evenodd;clip-rule:evenodd;fill:#D82332;}
	.st4{filter:url(#Adobe_OpacityMaskFilter_1_);}
	.st5{mask:url(#mask-2_2_);fill-rule:evenodd;clip-rule:evenodd;fill:#D82332;}
	.st6{filter:url(#Adobe_OpacityMaskFilter_2_);}
	.st7{mask:url(#mask-2_3_);}
	.st8{fill-rule:evenodd;clip-rule:evenodd;fill:#064A89;}
	.st9{fill-rule:evenodd;clip-rule:evenodd;fill:#514537;}
	.st10{fill-rule:evenodd;clip-rule:evenodd;fill:#EEA339;}
	.st11{fill-rule:evenodd;clip-rule:evenodd;fill:#D82332;}
	.st12{filter:url(#Adobe_OpacityMaskFilter_3_);}
	.st13{mask:url(#mask-4_1_);fill-rule:evenodd;clip-rule:evenodd;fill:#064A89;}
</style>
<title>icon/flags/PF</title>
<desc>Created with Sketch.</desc>
<g>
	<g>
		<path class="st0" d="M2,0H26c1.1,0,2,0.9,2,2v15.5c0,1.1-0.9,2-2,2H2c-1.1,0-2-0.9-2-2V2C0,0.9,0.9,0,2,0z"/>
		<defs>
			<filter id="Adobe_OpacityMaskFilter" filterUnits="userSpaceOnUse" x="0" y="0" width="28" height="5.3">
				<feColorMatrix  type="matrix" values="1 0 0 0 0  0 1 0 0 0  0 0 1 0 0  0 0 0 1 0"/>
			</filter>
		</defs>
		<mask maskUnits="userSpaceOnUse" x="0" y="0" width="28" height="5.3" id="mask-2_1_">
			<g class="st1">
				<path id="path-1_1_" class="st2" d="M2,0h24c1.1,0,2,0.9,2,2v16c0,1.1-0.9,2-2,2H2c-1.1,0-2-0.9-2-2V2C0,0.9,0.9,0,2,0z"/>
			</g>
		</mask>
		<rect id="Rectangle-2" y="0" class="st3" width="28" height="5.3"/>
		<defs>
			<filter id="Adobe_OpacityMaskFilter_1_" filterUnits="userSpaceOnUse" x="0" y="14.7" width="28" height="5.3">
				<feColorMatrix  type="matrix" values="1 0 0 0 0  0 1 0 0 0  0 0 1 0 0  0 0 0 1 0"/>
			</filter>
		</defs>
		<mask maskUnits="userSpaceOnUse" x="0" y="14.7" width="28" height="5.3" id="mask-2_2_">
			<g class="st4">
				<path id="path-1_2_" class="st2" d="M2,0h24c1.1,0,2,0.9,2,2v16c0,1.1-0.9,2-2,2H2c-1.1,0-2-0.9-2-2V2C0,0.9,0.9,0,2,0z"/>
			</g>
		</mask>
		<rect y="14.7" class="st5" width="28" height="5.3"/>
		<defs>
			<filter id="Adobe_OpacityMaskFilter_2_" filterUnits="userSpaceOnUse" x="10.7" y="6.7" width="6.7" height="12">
				<feColorMatrix  type="matrix" values="1 0 0 0 0  0 1 0 0 0  0 0 1 0 0  0 0 0 1 0"/>
			</filter>
		</defs>
		<mask maskUnits="userSpaceOnUse" x="10.7" y="6.7" width="6.7" height="12" id="mask-2_3_">
			<g class="st6">
				<path id="path-1_3_" class="st2" d="M2,0h24c1.1,0,2,0.9,2,2v16c0,1.1-0.9,2-2,2H2c-1.1,0-2-0.9-2-2V2C0,0.9,0.9,0,2,0z"/>
			</g>
		</mask>
		<g id="Group-5" class="st7">
			<g transform="translate(10.666667, 6.666667)">
				<g id="Group-3">
					<path id="Fill-7" class="st8" d="M2.4,4.1L2.1,4.4c0.3,0.1,0.6,0,0.8-0.3H2.4"/>
					<path id="Fill-8" class="st8" d="M0.1,4.3c0.2,0.2,0.5,0.2,0.7,0C1,4.2,1.1,4.2,1.3,4.2c0,0.1,0,0.2,0.1,0.4H0.2
						C0.2,4.5,0.1,4.3,0.1,4.3"/>
					<path id="Fill-9" class="st8" d="M0.3,4.8c0.2-0.1,0.5,0,0.6,0.1c0.2,0.1,0.5,0.1,0.6,0C1.6,5,1.6,5,1.7,5.1H0.5
						C0.4,5,0.3,4.8,0.3,4.8"/>
					<path id="Fill-10" class="st8" d="M5.6,5.7c0.1-0.1,0.1-0.1,0.2-0.2c-0.1,0-0.2-0.1-0.3-0.1C5.4,5.2,5.2,5.2,5,5.4
						c-0.2,0.2-0.5,0.2-0.7,0c-0.2-0.2-0.5-0.1-0.7,0C3.5,5.5,3.3,5.5,3.2,5.5S3,5.5,2.8,5.4c-0.2-0.1-0.4-0.1-0.7,0
						c-0.2,0.2-0.5,0.1-0.7,0c-0.2-0.1-0.3-0.1-0.5,0c-0.1,0-0.2,0.1-0.3,0.1c0,0.1,0.1,0.2,0.2,0.2H5.6"/>
					<path id="Fill-11" class="st8" d="M5,6.2c0.1,0,0.2-0.1,0.3-0.2C5.2,6,5.1,6,5,5.9c-0.3-0.1-0.4-0.1-0.6,0
						C4.1,6,3.9,6.1,3.7,5.9C3.5,5.8,3.3,5.8,3.2,5.8S3,5.8,2.8,5.9C2.6,6.1,2.3,6,2.1,5.9c-0.2-0.1-0.4-0.1-0.6,0
						C1.4,6,1.2,6,1.2,6c0.1,0.1,0.2,0.2,0.3,0.2H5"/>
					<path id="Fill-12" class="st8" d="M3.9,5.1C3.8,5.1,3.8,5,3.7,4.9C3.6,4.8,3.5,4.7,3.3,4.7S2.9,4.8,2.8,4.9
						C2.8,5,2.7,5.1,2.6,5.1H3.9"/>
					<path id="Fill-13" class="st8" d="M3.5,4.6c0,0-0.1-0.2-0.1-0.2c-0.1,0-0.1,0-0.2,0s-0.2,0-0.2,0C3,4.5,3,4.6,3,4.6H3.5"/>
					<path id="Fill-14" class="st8" d="M4.1,4.1l0.3,0.3c-0.3,0.1-0.6,0-0.8-0.3H4.1"/>
					<path id="Fill-15" class="st8" d="M6.4,4.3c-0.2,0.2-0.5,0.2-0.7,0C5.5,4.2,5.4,4.2,5.3,4.2c0,0.1,0,0.2-0.1,0.4h1.1
						C6.4,4.5,6.4,4.3,6.4,4.3"/>
					<path id="Fill-16" class="st8" d="M6.3,4.8C6,4.7,5.8,4.8,5.7,4.8C5.5,5,5.2,4.9,5.1,4.9C5,5,5,5,4.9,5.1h1.2
						C6.1,5,6.2,4.8,6.3,4.8"/>
					<path id="Fill-17" class="st8" d="M4.5,6.4C4.1,6.6,3.7,6.7,3.3,6.7C2.8,6.7,2.4,6.6,2,6.4c0.1,0,0.2,0,0.3-0.1
						c0.1-0.1,0.4-0.1,0.5,0c0.1,0.1,0.3,0.2,0.4,0.2c0.2,0,0.3-0.1,0.4-0.2s0.4-0.1,0.5,0C4.3,6.4,4.4,6.4,4.5,6.4"/>
					<path id="Fill-18" class="st9" d="M4,0.1C3.3-0.1,2.6,0,2.6,0.7v1.8c0,0.2,0,0.2,0.2,0.3C3.4,2.9,3.4,2.9,4,3V1.1
						c-0.4,0-0.6-0.3-0.6-0.6C3.4,0.3,3.6,0.1,4,0.1"/>
					<path id="Fill-19" class="st9" d="M2.2,5.2c-0.4,0-0.8-0.3-0.8-1V2.6c0-0.1,0-0.2,0-0.2c0,0,0,0,0.1-0.1c0,0,0.1-0.1,0-0.1
						c-0.1-0.1,0-0.1,0-0.1c0,0,0.1-0.1,0-0.1c0,0,0,0,0-0.1c0,0,0-0.1,0-0.1c0,0,0-0.1,0-0.1c0,0,0,0,0.1,0h0.2c0,0,0,0,0,0.1
						c0,0-0.1,0.1,0,0.1c0.1,0.1,0.1,0.1,0,0.1C1.7,1.9,1.7,2,1.7,2c0.1,0.1,0.1,0.1,0,0.1c0,0,0,0.1,0,0.1c0,0,0,0.1,0,0.1V4
						c0,0.3,0.2,0.4,0.6,0.4s0.5-0.2,0.6-0.3C2.9,4.7,2.7,5.2,2.2,5.2"/>
					<path id="Fill-20" class="st9" d="M3.3,3.6c0.1,0,0.1,0.1,0.1,0.2h0.1c0-0.1,0-0.2-0.1-0.2c0,0,0,0,0,0c0,0,0.1-0.1,0.1-0.2
						c0,0-0.1,0-0.1,0c0,0,0,0.1-0.1,0.1c0-0.1,0-0.1-0.1-0.1c0,0-0.1,0.1-0.1,0.1c0,0-0.1-0.1-0.1-0.1c0,0-0.1,0-0.1,0
						c0,0.1,0.1,0.2,0.1,0.2c0,0,0,0,0,0C3.1,3.6,3.1,3.7,3.1,3.8h0.1C3.2,3.7,3.2,3.6,3.3,3.6"/>
					<path id="Fill-21" class="st9" d="M2.7,3.6c0.1,0,0.1,0.1,0.1,0.2H3c0-0.1,0-0.2-0.1-0.2c0,0,0,0,0,0c0,0,0.1-0.1,0.1-0.2
						c0,0-0.1,0-0.1,0c0,0,0,0.1-0.1,0.1c0-0.1,0-0.1-0.1-0.1c0,0-0.1,0.1-0.1,0.1c0,0-0.1-0.1-0.1-0.1c0,0-0.1,0-0.1,0
						c0,0.1,0.1,0.2,0.1,0.2c0,0,0,0,0,0C2.6,3.6,2.5,3.7,2.5,3.8h0.1C2.6,3.7,2.7,3.6,2.7,3.6"/>
					<path id="Fill-22" class="st9" d="M2.2,3.6c0.1,0,0.1,0.1,0.1,0.2h0.1c0-0.1,0-0.2-0.1-0.2c0,0,0,0,0,0c0,0,0.1-0.1,0.1-0.2
						c0,0-0.1,0-0.1,0c0,0,0,0.1-0.1,0.1c0-0.1,0-0.1-0.1-0.1c0,0-0.1,0.1-0.1,0.1c0,0-0.1-0.1-0.1-0.1c0,0-0.1,0-0.1,0
						c0,0.1,0.1,0.2,0.1,0.2c0,0,0,0,0,0C2,3.6,2,3.7,2,3.8h0.1C2.1,3.7,2.2,3.6,2.2,3.6"/>
					<path id="Fill-23" class="st9" d="M3.8,3.6c-0.1,0-0.1,0.1-0.1,0.2H3.6c0-0.1,0-0.2,0.1-0.2c0,0,0,0,0,0c0,0-0.1-0.1-0.1-0.2
						c0,0,0.1,0,0.1,0c0,0,0,0.1,0.1,0.1c0-0.1,0-0.1,0.1-0.1c0,0,0.1,0.1,0.1,0.1c0,0,0.1-0.1,0.1-0.1c0,0,0.1,0,0.1,0
						C4,3.3,4,3.4,3.9,3.5c0,0,0,0,0,0C4,3.6,4,3.7,4,3.8H3.9C3.9,3.7,3.9,3.6,3.8,3.6"/>
					<path id="Fill-24" class="st9" d="M4.3,3.6c-0.1,0-0.1,0.1-0.1,0.2H4.1c0-0.1,0-0.2,0.1-0.2c0,0,0,0,0,0c0,0-0.1-0.1-0.1-0.2
						c0,0,0.1,0,0.1,0c0,0,0,0.1,0.1,0.1c0-0.1,0-0.1,0.1-0.1c0,0,0.1,0.1,0.1,0.1c0,0,0.1-0.1,0.1-0.1c0,0,0.1,0,0.1,0
						c0,0.1-0.1,0.2-0.1,0.2c0,0,0,0,0,0c0.1,0.1,0.1,0.2,0.1,0.2H4.4C4.4,3.7,4.4,3.6,4.3,3.6"/>
					<polygon id="Fill-25" class="st9" points="1.9,3.9 4.7,3.9 4.7,4 1.9,4 					"/>
					<path id="Fill-26" class="st9" d="M4.4,5.2c0.4,0,0.8-0.3,0.8-1V2.6c0-0.1,0-0.2,0-0.2c0,0,0,0-0.1-0.1c0,0-0.1-0.1,0-0.1
						c0.1-0.1,0-0.1,0-0.1c0,0-0.1-0.1,0-0.1c0,0,0,0,0-0.1c0,0,0-0.1,0-0.1c0,0,0-0.1,0-0.1c0,0,0,0-0.1,0H4.8c0,0,0,0,0,0.1
						c0,0,0.1,0.1,0,0.1c-0.1,0.1-0.1,0.1,0,0.1C4.9,1.9,4.9,2,4.8,2c-0.1,0.1-0.1,0.1,0,0.1c0,0,0,0.1,0,0.1c0,0,0,0.1,0,0.1V4
						c0,0.3-0.2,0.4-0.6,0.4c-0.4,0-0.5-0.2-0.6-0.3C3.7,4.7,3.9,5.2,4.4,5.2"/>
					<path id="Fill-29" class="st10" d="M1.9,3c0,0,0-0.1,0-0.2L2.5,3L1.9,3"/>
					<path id="Fill-31" class="st10" d="M1.2,3.1L0,2.9c0-0.3,0.1-0.5,0.2-0.8l1,0.4V3.1"/>
					<path id="Fill-33" class="st10" d="M3.8,1L4,0.1c0.3,0.1,0.5,0.2,0.7,0.3L4.1,1.8l0-0.7C4,1.1,3.9,1.1,3.8,1"/>
					<path id="Fill-35" class="st10" d="M1.3,3.2L0,3.1c0,0.3,0,0.5,0,0.8c0,0,1.2,0,1.2,0V3.2"/>
					<path id="Fill-37" class="st10" d="M1.3,2.3c0-0.1,0-0.1,0-0.1c0,0,0-0.1,0-0.1c0,0,0-0.1,0-0.1c0,0,0-0.1,0-0.1
						c0,0,0-0.1,0-0.1c0,0,0,0,0-0.1c0,0-0.1-0.1,0-0.1L0.8,1.2C0.6,1.4,0.4,1.6,0.3,1.9L1.3,2.3"/>
					<path id="Fill-39" class="st10" d="M2.5,2.6L1.9,2C2,1.9,2,1.9,1.9,1.8C1.8,1.7,1.8,1.7,2,1.6c0,0,0-0.1,0-0.1H1.5
						c0,0-0.1,0-0.1,0L1,1c0.2-0.2,0.4-0.4,0.6-0.5L2.5,2V2.6"/>
					<path id="Fill-41" class="st10" d="M1.9,2.7c0-0.2,0-0.3,0-0.3c0,0,0-0.1,0-0.1s0-0.1,0-0.1l0.6,0.5v0.3L1.9,2.7"/>
					<path id="Fill-43" class="st10" d="M2.4,1.8V1.1c0-0.5,0-0.7,0.1-0.7L2.4,0.1C2.2,0.2,1.9,0.3,1.7,0.4L2.4,1.8"/>
					<path id="Fill-45" class="st10" d="M4.7,3c0,0,0-0.1,0-0.2L4.1,3L4.7,3"/>
					<path id="Fill-47" class="st10" d="M5.3,3.1l1.2-0.2c0-0.3-0.1-0.5-0.2-0.8l-1,0.4V3.1"/>
					<path id="Fill-49" class="st10" d="M5.3,3.2l1.3-0.1c0,0.3,0,0.5,0,0.8c0,0-1.2,0-1.2,0V3.2"/>
					<path id="Fill-51" class="st10" d="M5.3,2.3c0-0.1,0-0.1,0-0.1c0,0,0-0.1,0-0.1c0,0,0-0.1,0-0.1c0,0,0-0.1,0-0.1
						c0,0,0-0.1,0-0.1c0,0,0,0,0-0.1c0,0,0.1-0.1,0-0.1l0.5-0.4c0.2,0.2,0.3,0.4,0.4,0.7L5.3,2.3"/>
					<path id="Fill-53" class="st10" d="M4.1,2.6L4.7,2c-0.1-0.1-0.1-0.1,0-0.2c0.1-0.1,0.1-0.1-0.1-0.2c0,0,0-0.1,0-0.1h0.4
						c0,0,0.1,0,0.1,0L5.7,1C5.5,0.9,5.3,0.7,5,0.5L4.1,2V2.6"/>
					<path id="Fill-55" class="st10" d="M4.7,2.7c0-0.2,0-0.3,0-0.3c0,0,0-0.1,0-0.1s0-0.1,0-0.1L4.1,2.6v0.3L4.7,2.7"/>
					<path id="Fill-57" class="st11" d="M1.5,2.4C1.5,2.4,1.5,2.4,1.5,2.4l0,1.8c0,0.6,0.3,0.9,0.7,0.9c0.3,0,0.5-0.3,0.6-0.6
						C2.7,4.5,2.5,4.6,2.3,4.6c-0.2,0-0.6-0.2-0.6-0.5V2.4C1.7,2.4,1.7,2.4,1.5,2.4"/>
					<path id="Fill-58" class="st11" d="M3.5,0.1c-0.4,0-0.8,0-0.8,0.7v1.6c0,0.3,0,0.2,0.2,0.3c0.4,0.1,0.5,0.1,1,0.2V1.3
						c-0.4,0-0.6-0.3-0.6-0.6C3.2,0.4,3.3,0.1,3.5,0.1"/>
					<path id="Fill-59" class="st11" d="M5.1,2.4C5,2.4,5,2.4,5.1,2.4l0,1.8c0,0.6-0.3,0.9-0.7,0.9C4,5.1,3.8,4.8,3.7,4.4
						c0.1,0.1,0.4,0.1,0.5,0.1c0.2,0,0.6-0.2,0.6-0.5V2.4C4.9,2.4,4.9,2.4,5.1,2.4"/>
				</g>
				<g id="Oval-210">
					<g id="Mask">
					</g>
					<defs>
						<filter id="Adobe_OpacityMaskFilter_3_" filterUnits="userSpaceOnUse" x="0" y="5.3" width="6.7" height="6.7">
							<feColorMatrix  type="matrix" values="1 0 0 0 0  0 1 0 0 0  0 0 1 0 0  0 0 0 1 0"/>
						</filter>
					</defs>
					<mask maskUnits="userSpaceOnUse" x="0" y="5.3" width="6.7" height="6.7" id="mask-4_1_">
						<g class="st12">
							<circle id="path-3_1_" class="st2" cx="3.3" cy="3.3" r="3.3"/>
						</g>
					</mask>
					<circle class="st13" cx="3.3" cy="8.7" r="3.3"/>
				</g>
			</g>
		</g>
	</g>
</g>
</svg>
