<?xml version="1.0" encoding="utf-8"?>
<!-- Generator: Adobe Illustrator 23.0.3, SVG Export Plug-In . SVG Version: 6.00 Build 0)  -->
<svg width="28px" height="20px" version="1.1" id="Ebene_1" xmlns="http://www.w3.org/2000/svg" xmlns:xlink="http://www.w3.org/1999/xlink" x="0px" y="0px"
	 viewBox="0 0 28 20" style="enable-background:new 0 0 28 20;" xml:space="preserve">
<style type="text/css">
	.st0{fill:#FFFFFF;}
	.st1{filter:url(#Adobe_OpacityMaskFilter);}
	.st2{fill-rule:evenodd;clip-rule:evenodd;fill:#FFFFFF;}
	.st3{mask:url(#mask-2_1_);fill-rule:evenodd;clip-rule:evenodd;fill:#DD1C34;}
	.st4{filter:url(#Adobe_OpacityMaskFilter_1_);}
	.st5{mask:url(#mask-2_2_);fill-rule:evenodd;clip-rule:evenodd;fill:#0D4BC3;}
	.st6{filter:url(#Adobe_OpacityMaskFilter_2_);}
	.st7{mask:url(#mask-2_3_);fill-rule:evenodd;clip-rule:evenodd;fill:#FDD64D;}
</style>
<title>icon/flags/PH</title>
<desc>Created with Sketch.</desc>
<g>
	<g>
		<path class="st0" d="M2,0H26c1.1,0,2,0.9,2,2.1v15.9c0,1.1-0.9,2.1-2,2.1H2c-1.1,0-2-0.9-2-2.1V2.1C0,0.9,0.9,0,2,0z"/>
		<defs>
			<filter id="Adobe_OpacityMaskFilter" filterUnits="userSpaceOnUse" x="0" y="10" width="28" height="10">
				<feColorMatrix  type="matrix" values="1 0 0 0 0  0 1 0 0 0  0 0 1 0 0  0 0 0 1 0"/>
			</filter>
		</defs>
		<mask maskUnits="userSpaceOnUse" x="0" y="10" width="28" height="10" id="mask-2_1_">
			<g class="st1">
				<path id="path-1_1_" class="st2" d="M2,0h24c1.1,0,2,0.9,2,2v16c0,1.1-0.9,2-2,2H2c-1.1,0-2-0.9-2-2V2C0,0.9,0.9,0,2,0z"/>
			</g>
		</mask>
		<path id="Combined-Shape" class="st3" d="M0,20l13-10h15v10H0z"/>
		<defs>
			<filter id="Adobe_OpacityMaskFilter_1_" filterUnits="userSpaceOnUse" x="0" y="0" width="28" height="10">
				<feColorMatrix  type="matrix" values="1 0 0 0 0  0 1 0 0 0  0 0 1 0 0  0 0 0 1 0"/>
			</filter>
		</defs>
		<mask maskUnits="userSpaceOnUse" x="0" y="0" width="28" height="10" id="mask-2_2_">
			<g class="st4">
				<path id="path-1_2_" class="st2" d="M2,0h24c1.1,0,2,0.9,2,2v16c0,1.1-0.9,2-2,2H2c-1.1,0-2-0.9-2-2V2C0,0.9,0.9,0,2,0z"/>
			</g>
		</mask>
		<path class="st5" d="M0,0h28v10H13L0,0z"/>
		<defs>
			<filter id="Adobe_OpacityMaskFilter_2_" filterUnits="userSpaceOnUse" x="1.3" y="2.7" width="9.3" height="14.7">
				<feColorMatrix  type="matrix" values="1 0 0 0 0  0 1 0 0 0  0 0 1 0 0  0 0 0 1 0"/>
			</filter>
		</defs>
		<mask maskUnits="userSpaceOnUse" x="1.3" y="2.7" width="9.3" height="14.7" id="mask-2_3_">
			<g class="st6">
				<path id="path-1_3_" class="st2" d="M2,0h24c1.1,0,2,0.9,2,2v16c0,1.1-0.9,2-2,2H2c-1.1,0-2-0.9-2-2V2C0,0.9,0.9,0,2,0z"/>
			</g>
		</mask>
		<path id="Oval-206" class="st7" d="M4.5,11.3l-1.1,1.8l0.4-2c-0.1-0.1-0.1-0.1-0.2-0.2l-2,0.4l1.8-1.1c0,0,0-0.1,0-0.1
			s0-0.1,0-0.1L1.6,8.7l2,0.4C3.7,9.1,3.8,9,3.8,9l-0.4-2l1.1,1.8c0,0,0.1,0,0.1,0c0,0,0.1,0,0.1,0l1.1-1.8L5.5,9
			C5.6,9,5.6,9.1,5.7,9.2l2-0.4L6,9.9c0,0,0,0.1,0,0.1s0,0.1,0,0.1l1.8,1.1l-2-0.4C5.6,10.9,5.6,11,5.5,11l0.4,2l-1.1-1.8
			c0,0-0.1,0-0.1,0C4.6,11.3,4.6,11.3,4.5,11.3z M10,10.7c-0.4,0-0.7-0.3-0.7-0.7S9.6,9.3,10,9.3s0.7,0.3,0.7,0.7S10.4,10.7,10,10.7
			z M2,4C1.6,4,1.3,3.7,1.3,3.3S1.6,2.7,2,2.7S2.7,3,2.7,3.3S2.4,4,2,4z M2,17.3c-0.4,0-0.7-0.3-0.7-0.7C1.3,16.3,1.6,16,2,16
			s0.7,0.3,0.7,0.7C2.7,17,2.4,17.3,2,17.3z"/>
	</g>
</g>
</svg>
