<?xml version="1.0" encoding="utf-8"?>
<!-- Generator: Adobe Illustrator 23.0.3, SVG Export Plug-In . SVG Version: 6.00 Build 0)  -->
<svg width="28px" height="20px" version="1.1" id="Ebene_1" xmlns="http://www.w3.org/2000/svg" xmlns:xlink="http://www.w3.org/1999/xlink" x="0px" y="0px"
	 viewBox="0 0 28 20" style="enable-background:new 0 0 28 20;" xml:space="preserve">
<style type="text/css">
	.st0{fill:#FFFFFF;}
	.st1{filter:url(#Adobe_OpacityMaskFilter);}
	.st2{fill-rule:evenodd;clip-rule:evenodd;fill:#FFFFFF;}
	.st3{mask:url(#mask-2_1_);fill-rule:evenodd;clip-rule:evenodd;fill:#17508F;}
	.st4{filter:url(#Adobe_OpacityMaskFilter_1_);}
	.st5{mask:url(#mask-2_2_);fill-rule:evenodd;clip-rule:evenodd;fill:#E1444D;}
	.st6{filter:url(#Adobe_OpacityMaskFilter_2_);}
	.st7{mask:url(#mask-2_3_);}
	.st8{filter:url(#Adobe_OpacityMaskFilter_3_);}
	.st9{mask:url(#mask-4_1_);fill:none;stroke:#E1444D;stroke-width:1.3333;stroke-linecap:square;}
	.st10{filter:url(#Adobe_OpacityMaskFilter_4_);}
	.st11{mask:url(#mask-4_2_);fill:none;stroke:#E1444D;stroke-width:1.3333;stroke-linecap:square;}
</style>
<title>icon/flags/RS</title>
<desc>Created with Sketch.</desc>
<g>
	<g>
		<path class="st0" d="M2,0H26c1.1,0,2,0.9,2,2.1v15.9c0,1.1-0.9,2.1-2,2.1H2c-1.1,0-2-0.9-2-2.1V2.1C0,0.9,0.9,0,2,0z"/>
		<defs>
			<filter id="Adobe_OpacityMaskFilter" filterUnits="userSpaceOnUse" x="0" y="6.7" width="28" height="6.7">
				<feColorMatrix  type="matrix" values="1 0 0 0 0  0 1 0 0 0  0 0 1 0 0  0 0 0 1 0"/>
			</filter>
		</defs>
		<mask maskUnits="userSpaceOnUse" x="0" y="6.7" width="28" height="6.7" id="mask-2_1_">
			<g class="st1">
				<path id="path-1_1_" class="st2" d="M2,0h24c1.1,0,2,0.9,2,2v16c0,1.1-0.9,2-2,2H2c-1.1,0-2-0.9-2-2V2C0,0.9,0.9,0,2,0z"/>
			</g>
		</mask>
		<rect id="Rectangle-2" y="6.7" class="st3" width="28" height="6.7"/>
		<defs>
			<filter id="Adobe_OpacityMaskFilter_1_" filterUnits="userSpaceOnUse" x="0" y="0" width="28" height="6.7">
				<feColorMatrix  type="matrix" values="1 0 0 0 0  0 1 0 0 0  0 0 1 0 0  0 0 0 1 0"/>
			</filter>
		</defs>
		<mask maskUnits="userSpaceOnUse" x="0" y="0" width="28" height="6.7" id="mask-2_2_">
			<g class="st4">
				<path id="path-1_2_" class="st2" d="M2,0h24c1.1,0,2,0.9,2,2v16c0,1.1-0.9,2-2,2H2c-1.1,0-2-0.9-2-2V2C0,0.9,0.9,0,2,0z"/>
			</g>
		</mask>
		<rect y="0" class="st5" width="28" height="6.7"/>
		<defs>
			<filter id="Adobe_OpacityMaskFilter_2_" filterUnits="userSpaceOnUse" x="5.1" y="6.4" width="7.2" height="8.5">
				<feColorMatrix  type="matrix" values="1 0 0 0 0  0 1 0 0 0  0 0 1 0 0  0 0 0 1 0"/>
			</filter>
		</defs>
		<mask maskUnits="userSpaceOnUse" x="5.1" y="6.4" width="7.2" height="8.5" id="mask-2_3_">
			<g class="st6">
				<path id="path-1_3_" class="st2" d="M2,0h24c1.1,0,2,0.9,2,2v16c0,1.1-0.9,2-2,2H2c-1.1,0-2-0.9-2-2V2C0,0.9,0.9,0,2,0z"/>
			</g>
		</mask>
		<g id="Rectangle-1668" class="st7">
			<g transform="translate(5.333333, 6.666667)">
				<g id="Mask">
					<path class="st2" d="M0.7,3.3c0-0.9,0.5-2.7,0.5-2.7C1.3,0.3,1.6,0,2,0h2.7C5,0,5.4,0.3,5.5,0.6c0,0,0.5,1.8,0.5,2.7
						C6,4.2,5.5,6,5.5,6C5.4,6.4,5.1,6.9,4.9,7.2c0,0-0.6,0.8-1.6,0.8S1.8,7.2,1.8,7.2C1.5,6.9,1.3,6.4,1.2,6C1.2,6,0.7,4.2,0.7,3.3
						z"/>
				</g>
				<defs>
					<filter id="Adobe_OpacityMaskFilter_3_" filterUnits="userSpaceOnUse" x="-0.3" y="-0.3" width="7.2" height="8.5">
						<feColorMatrix  type="matrix" values="1 0 0 0 0  0 1 0 0 0  0 0 1 0 0  0 0 0 1 0"/>
					</filter>
				</defs>
				<mask maskUnits="userSpaceOnUse" x="-0.3" y="-0.3" width="7.2" height="8.5" id="mask-4_1_">
					<g class="st8">
						<path id="path-3_1_" class="st2" d="M0.7,3.3c0-0.9,0.5-2.7,0.5-2.7C1.3,0.3,1.6,0,2,0h2.7C5,0,5.4,0.3,5.5,0.6
							c0,0,0.5,1.8,0.5,2.7C6,4.2,5.5,6,5.5,6C5.4,6.4,5.1,6.9,4.9,7.2c0,0-0.6,0.8-1.6,0.8S1.8,7.2,1.8,7.2C1.5,6.9,1.3,6.4,1.2,6
							C1.2,6,0.7,4.2,0.7,3.3z"/>
					</g>
				</mask>
				<path id="Line" class="st9" d="M6,0.7L0.7,7.3"/>
				<defs>
					<filter id="Adobe_OpacityMaskFilter_4_" filterUnits="userSpaceOnUse" x="-0.3" y="-0.3" width="7.2" height="8.5">
						<feColorMatrix  type="matrix" values="1 0 0 0 0  0 1 0 0 0  0 0 1 0 0  0 0 0 1 0"/>
					</filter>
				</defs>
				<mask maskUnits="userSpaceOnUse" x="-0.3" y="-0.3" width="7.2" height="8.5" id="mask-4_2_">
					<g class="st10">
						<path id="path-3_2_" class="st2" d="M0.7,3.3c0-0.9,0.5-2.7,0.5-2.7C1.3,0.3,1.6,0,2,0h2.7C5,0,5.4,0.3,5.5,0.6
							c0,0,0.5,1.8,0.5,2.7C6,4.2,5.5,6,5.5,6C5.4,6.4,5.1,6.9,4.9,7.2c0,0-0.6,0.8-1.6,0.8S1.8,7.2,1.8,7.2C1.5,6.9,1.3,6.4,1.2,6
							C1.2,6,0.7,4.2,0.7,3.3z"/>
					</g>
				</mask>
				<path class="st11" d="M0.7,0.7L6,7.3"/>
			</g>
		</g>
	</g>
</g>
</svg>
