<?xml version="1.0" encoding="utf-8"?>
<!-- Generator: Adobe Illustrator 23.0.3, SVG Export Plug-In . SVG Version: 6.00 Build 0)  -->
<svg width="28px" height="20px" version="1.1" id="Ebene_1" xmlns="http://www.w3.org/2000/svg" xmlns:xlink="http://www.w3.org/1999/xlink" x="0px" y="0px"
	 viewBox="0 0 28 20" style="enable-background:new 0 0 28 20;" xml:space="preserve">
<style type="text/css">
	.st0{fill:#FFFFFF;}
	.st1{filter:url(#Adobe_OpacityMaskFilter);}
	.st2{fill-rule:evenodd;clip-rule:evenodd;fill:#FFFFFF;}
	.st3{mask:url(#mask-2_1_);fill-rule:evenodd;clip-rule:evenodd;fill:url(#Combined-Shape_1_);}
	.st4{filter:url(#Adobe_OpacityMaskFilter_1_);}
	.st5{mask:url(#mask-2_2_);fill-rule:evenodd;clip-rule:evenodd;fill:#0858B4;}
	.st6{filter:url(#Adobe_OpacityMaskFilter_2_);}
	.st7{mask:url(#mask-2_3_);fill-rule:evenodd;clip-rule:evenodd;fill:#ED3535;}
	.st8{filter:url(#Adobe_OpacityMaskFilter_3_);}
	.st9{mask:url(#mask-2_4_);fill-rule:evenodd;clip-rule:evenodd;fill:#08964F;}
	.st10{filter:url(#Adobe_OpacityMaskFilter_4_);}
	.st11{mask:url(#mask-2_5_);fill-rule:evenodd;clip-rule:evenodd;fill:#FFDD67;}
</style>
<title>icon/flags/SC</title>
<desc>Created with Sketch.</desc>
<g>
	<g>
		<path class="st0" d="M2,0H26c1.1,0,2,0.9,2,2v15.8c0,1.1-0.9,2-2,2H2c-1.1,0-2-0.9-2-2V2C0,0.9,0.9,0,2,0z"/>
		<defs>
			<filter id="Adobe_OpacityMaskFilter" filterUnits="userSpaceOnUse" x="0" y="0" width="28" height="20">
				<feColorMatrix  type="matrix" values="1 0 0 0 0  0 1 0 0 0  0 0 1 0 0  0 0 0 1 0"/>
			</filter>
		</defs>
		<mask maskUnits="userSpaceOnUse" x="0" y="0" width="28" height="20" id="mask-2_1_">
			<g class="st1">
				<path id="path-1_1_" class="st2" d="M2,0h24c1.1,0,2,0.9,2,2v16c0,1.1-0.9,2-2,2H2c-1.1,0-2-0.9-2-2V2C0,0.9,0.9,0,2,0z"/>
			</g>
		</mask>
		
			<linearGradient id="Combined-Shape_1_" gradientUnits="userSpaceOnUse" x1="-272.3929" y1="410.3398" x2="-272.3929" y2="409.3398" gradientTransform="matrix(28 0 0 -20 7641 8206.7949)">
			<stop  offset="0" style="stop-color:#1DBE4F"/>
			<stop  offset="1" style="stop-color:#159B3F"/>
		</linearGradient>
		<path id="Combined-Shape" class="st3" d="M28,6.7L0,20l28-6.7V20H0V0h28V6.7z"/>
		<defs>
			<filter id="Adobe_OpacityMaskFilter_1_" filterUnits="userSpaceOnUse" x="0" y="0" width="9.3" height="20">
				<feColorMatrix  type="matrix" values="1 0 0 0 0  0 1 0 0 0  0 0 1 0 0  0 0 0 1 0"/>
			</filter>
		</defs>
		<mask maskUnits="userSpaceOnUse" x="0" y="0" width="9.3" height="20" id="mask-2_2_">
			<g class="st4">
				<path id="path-1_2_" class="st2" d="M2,0h24c1.1,0,2,0.9,2,2v16c0,1.1-0.9,2-2,2H2c-1.1,0-2-0.9-2-2V2C0,0.9,0.9,0,2,0z"/>
			</g>
		</mask>
		<polygon id="Rectangle-253" class="st5" points="0,0 9.3,0 0,20 		"/>
		<defs>
			<filter id="Adobe_OpacityMaskFilter_2_" filterUnits="userSpaceOnUse" x="0" y="0" width="28" height="20">
				<feColorMatrix  type="matrix" values="1 0 0 0 0  0 1 0 0 0  0 0 1 0 0  0 0 0 1 0"/>
			</filter>
		</defs>
		<mask maskUnits="userSpaceOnUse" x="0" y="0" width="28" height="20" id="mask-2_3_">
			<g class="st6">
				<path id="path-1_3_" class="st2" d="M2,0h24c1.1,0,2,0.9,2,2v16c0,1.1-0.9,2-2,2H2c-1.1,0-2-0.9-2-2V2C0,0.9,0.9,0,2,0z"/>
			</g>
		</mask>
		<polygon class="st7" points="18.7,0 28,0 28,6.7 0,20 		"/>
		<defs>
			<filter id="Adobe_OpacityMaskFilter_3_" filterUnits="userSpaceOnUse" x="0" y="13.3" width="28" height="6.7">
				<feColorMatrix  type="matrix" values="1 0 0 0 0  0 1 0 0 0  0 0 1 0 0  0 0 0 1 0"/>
			</filter>
		</defs>
		<mask maskUnits="userSpaceOnUse" x="0" y="13.3" width="28" height="6.7" id="mask-2_4_">
			<g class="st8">
				<path id="path-1_4_" class="st2" d="M2,0h24c1.1,0,2,0.9,2,2v16c0,1.1-0.9,2-2,2H2c-1.1,0-2-0.9-2-2V2C0,0.9,0.9,0,2,0z"/>
			</g>
		</mask>
		<polygon class="st9" points="28,20 28,13.3 0,20 		"/>
		<defs>
			<filter id="Adobe_OpacityMaskFilter_4_" filterUnits="userSpaceOnUse" x="0" y="0" width="18.7" height="20">
				<feColorMatrix  type="matrix" values="1 0 0 0 0  0 1 0 0 0  0 0 1 0 0  0 0 0 1 0"/>
			</filter>
		</defs>
		<mask maskUnits="userSpaceOnUse" x="0" y="0" width="18.7" height="20" id="mask-2_5_">
			<g class="st10">
				<path id="path-1_5_" class="st2" d="M2,0h24c1.1,0,2,0.9,2,2v16c0,1.1-0.9,2-2,2H2c-1.1,0-2-0.9-2-2V2C0,0.9,0.9,0,2,0z"/>
			</g>
		</mask>
		<polygon class="st11" points="9.3,0 18.7,0 0,20 		"/>
	</g>
</g>
</svg>
