<?xml version="1.0" encoding="utf-8"?>
<!-- Generator: Adobe Illustrator 23.0.3, SVG Export Plug-In . SVG Version: 6.00 Build 0)  -->
<svg width="28px" height="20px" version="1.1" id="Ebene_1" xmlns="http://www.w3.org/2000/svg" xmlns:xlink="http://www.w3.org/1999/xlink" x="0px" y="0px"
	 viewBox="0 0 28 20" style="enable-background:new 0 0 28 20;" xml:space="preserve">
<style type="text/css">
	.st0{fill:#FFFFFF;}
	.st1{filter:url(#Adobe_OpacityMaskFilter);}
	.st2{fill-rule:evenodd;clip-rule:evenodd;fill:#FFFFFF;}
	.st3{mask:url(#mask-3_1_);fill-rule:evenodd;clip-rule:evenodd;fill:#E12237;}
	.st4{filter:url(#Adobe_OpacityMaskFilter_1_);}
	.st5{mask:url(#mask-3_2_);fill-rule:evenodd;clip-rule:evenodd;fill:#FFFFFF;}
</style>
<title>icon/flags/SG</title>
<desc>Created with Sketch.</desc>
<g>
	<g>
		<path class="st0" d="M2,0H26c1.1,0,2,0.9,2,2v15.9c0,1.1-0.9,2-2,2H2c-1.1,0-2-0.9-2-2V2C0,0.9,0.9,0,2,0z"/>
		<defs>
			<filter id="Adobe_OpacityMaskFilter" filterUnits="userSpaceOnUse" x="0" y="0" width="28" height="10.7">
				<feColorMatrix  type="matrix" values="1 0 0 0 0  0 1 0 0 0  0 0 1 0 0  0 0 0 1 0"/>
			</filter>
		</defs>
		<mask maskUnits="userSpaceOnUse" x="0" y="0" width="28" height="10.7" id="mask-3_1_">
			<g class="st1">
				<path id="path-2_1_" class="st2" d="M2,0h24c1.1,0,2,0.9,2,2v16c0,1.1-0.9,2-2,2H2c-1.1,0-2-0.9-2-2V2C0,0.9,0.9,0,2,0z"/>
			</g>
		</mask>
		<rect id="Rectangle-2" y="0" class="st3" width="28" height="10.7"/>
		<defs>
			<filter id="Adobe_OpacityMaskFilter_1_" filterUnits="userSpaceOnUse" x="2.7" y="1.3" width="10.7" height="8">
				<feColorMatrix  type="matrix" values="1 0 0 0 0  0 1 0 0 0  0 0 1 0 0  0 0 0 1 0"/>
			</filter>
		</defs>
		<mask maskUnits="userSpaceOnUse" x="2.7" y="1.3" width="10.7" height="8" id="mask-3_2_">
			<g class="st4">
				<path id="path-2_2_" class="st2" d="M2,0h24c1.1,0,2,0.9,2,2v16c0,1.1-0.9,2-2,2H2c-1.1,0-2-0.9-2-2V2C0,0.9,0.9,0,2,0z"/>
			</g>
		</mask>
		<path id="Oval-12" class="st5" d="M9.2,2.2C8.8,2.1,8.4,2,8,2C6.2,2,4.7,3.5,4.7,5.3S6.2,8.7,8,8.7c0.4,0,0.8-0.1,1.2-0.2
			C8.5,9,7.6,9.4,6.7,9.4c-2.2,0-4-1.8-4-4s1.8-4,4-4C7.6,1.3,8.5,1.7,9.2,2.2z M7.3,5.3C7,5.3,6.7,5,6.7,4.7C6.7,4.3,7,4,7.3,4
			S8,4.3,8,4.7C8,5,7.7,5.3,7.3,5.3z M8.7,8C8.3,8,8,7.7,8,7.3s0.3-0.7,0.7-0.7S9.3,7,9.3,7.3S9,8,8.7,8z M11.3,8
			c-0.4,0-0.7-0.3-0.7-0.7s0.3-0.7,0.7-0.7S12,7,12,7.3S11.7,8,11.3,8z M12.7,5.3C12.3,5.3,12,5,12,4.7C12,4.3,12.3,4,12.7,4
			s0.7,0.3,0.7,0.7C13.3,5,13,5.3,12.7,5.3z M10,3.3C9.6,3.3,9.3,3,9.3,2.7S9.6,2,10,2s0.7,0.3,0.7,0.7S10.4,3.3,10,3.3z"/>
	</g>
</g>
</svg>
