<?xml version="1.0" encoding="UTF-8"?>
<svg width="28px" height="20px" viewBox="0 0 28 20" version="1.1" xmlns="http://www.w3.org/2000/svg" xmlns:xlink="http://www.w3.org/1999/xlink">
    <!-- Generator: Sketch 55.2 (78181) - https://sketchapp.com -->
    <title>icon/flags/SH</title>
    <desc>Created with Sketch.</desc>
    <defs>
        <rect id="path-1" x="0" y="0" width="28" height="20" rx="2"></rect>
        <linearGradient x1="50%" y1="0%" x2="50%" y2="100%" id="linearGradient-3">
            <stop stop-color="#07319C" offset="0%"></stop>
            <stop stop-color="#00247E" offset="100%"></stop>
        </linearGradient>
        <path d="M0,4.66666667 L3.43775544e-17,1.33245595 C1.53913554e-17,0.59656085 0.591622194,0 1.33307666,0 L5.33359001,0 C6.06982792,0 6.66666667,0.587946256 6.66666667,1.33245595 L6.66666667,4.66666667 C6.66666667,8 3.33333333,9.33333333 3.33333333,9.33333333 C3.33333333,9.33333333 0,8 0,4.66666667 Z" id="path-4"></path>
        <path d="M0,4.66666667 L3.43775544e-17,1.33245595 C1.53913554e-17,0.59656085 0.591622194,0 1.33307666,0 L5.33359001,0 C6.06982792,0 6.66666667,0.587946256 6.66666667,1.33245595 L6.66666667,4.66666667 C6.66666667,8 3.33333333,9.33333333 3.33333333,9.33333333 C3.33333333,9.33333333 0,8 0,4.66666667 Z" id="path-6"></path>
    </defs>
    <g id="icon/flags/SH" stroke="none" stroke-width="1" fill="none" fill-rule="evenodd">
        <g id="ic_flags/SH">
            <mask id="mask-2" fill="white">
                <use xlink:href="#path-1"></use>
            </mask>
            <use id="Mask" fill="#FFFFFF" xlink:href="#path-1"></use>
            <rect id="Mask-Copy" fill="url(#linearGradient-3)" mask="url(#mask-2)" x="0" y="0" width="28" height="20"></rect>
            <g id="Rectangle-1105" mask="url(#mask-2)">
                <g transform="translate(17.333333, 5.333333)">
                    <g id="Rectangle-1238" stroke="none" stroke-width="1" fill="none" fill-rule="evenodd">
                        <mask id="mask-5" fill="white">
                            <use xlink:href="#path-4"></use>
                        </mask>
                        <use id="Mask" fill="#8FC5FF" xlink:href="#path-4"></use>
                        <path d="M2.75653334,6.5502279 C2.75653334,6.5502279 3.42384628,5.68612867 3.81635034,5.68612867 C4.2088544,5.68612867 4.28094963,6.25990043 4.88451008,6.25990043 C5.48807053,6.25990042 5.80638158,5.34547635 6.38774717,5.34547635 C6.96911275,5.34547634 6.38774697,8.34551779 6.38774697,8.34551779 L5.5999552,9.15806909 L0.988616665,9.6906833 L2.75653334,6.5502279 Z" id="Path-61" fill="#366CC9" mask="url(#mask-5)"></path>
                        <polygon id="Path-61" fill="#CF6200" mask="url(#mask-5)" points="0.79285826 5.2178679 1.38137054 4.66666667 1.95963446 6.08236376 2.7359279 4.66666667 3.40353107 8.70204894 2.29330031 8.47616863 -1.33333333 6.81802231"></polygon>
                        <rect fill="#FFFF00" mask="url(#mask-5)" x="0" y="0" width="6.66666667" height="4"></rect>
                    </g>
                    <mask id="mask-7" fill="white">
                        <use xlink:href="#path-6"></use>
                    </mask>
                    <path stroke="#FFFFFF" stroke-width="0.666666667" d="M3.33333333,8.96929032 C3.42569808,8.92582876 3.5469172,8.86389271 3.68982914,8.78290927 C4.06055492,8.57283133 4.43163045,8.31307846 4.77701176,8.00223528 C5.75332073,7.12355721 6.33333333,6.02153326 6.33333333,4.66666667 L6.33333333,1.33245595 C6.33333333,0.775386147 5.8890907,0.333333333 5.33359001,0.333333333 L1.33307666,0.333333333 C0.777686185,0.333333333 0.333333333,0.778683065 0.333333333,1.33245595 L0.333333333,4.66666667 C0.333333333,6.02153326 0.913345938,7.12355721 1.88965491,8.00223528 C2.23503622,8.31307846 2.60611175,8.57283133 2.97683752,8.78290927 C3.11974947,8.86389271 3.24096859,8.92582876 3.33333333,8.96929032 Z"></path>
                </g>
            </g>
            <path d="M4.33333333,4.15331164 L-0.901085803,-0.333333333 L0.666666667,-0.333333333 L0.860412731,-0.27124449 L5.44015502,3 L6.57106792,3 L12.3333333,-0.601415881 L12.3333333,0.333333333 C12.3333333,0.628978368 12.1628101,0.960008269 11.9158002,1.1364439 L7.66666667,4.1715393 L7.66666667,5.18002169 L11.9660302,8.86519043 C12.3427037,9.18805344 12.1509712,9.66666667 11.6666667,9.66666667 C11.4092185,9.66666667 11.0776031,9.56030345 10.8616414,9.40604508 L6.55984498,6.33333333 L5.42893208,6.33333333 L-0.333333333,9.93474921 L-0.333333333,8.49512737 L4.33333333,5.16179403 L4.33333333,4.15331164 Z" id="Rectangle-36" stroke="#FFFFFF" stroke-width="0.666666667" fill="#DB1E36" mask="url(#mask-2)"></path>
            <path d="M0,3.33333333 L0,6 L4.66666667,6 L4.66666667,9.33948135 C4.66666667,9.70427573 4.97256724,10 5.33957926,10 L6.66042074,10 C7.0320601,10 7.33333333,9.69934988 7.33333333,9.33948135 L7.33333333,6 L11.9911963,6 C12.3642483,6 12.6666667,5.69409943 12.6666667,5.3270874 L12.6666667,4.00624593 C12.6666667,3.63460657 12.3646425,3.33333333 11.9911963,3.33333333 L7.33333333,3.33333333 L7.33333333,0 L4.66666667,0 L4.66666667,3.33333333 L0,3.33333333 Z" id="Rectangle-2" fill="#FFFFFF" mask="url(#mask-2)"></path>
            <polygon id="Rectangle-36" fill="#DB1E36" mask="url(#mask-2)" points="0 4 5.33333333 4 5.33333333 3.33333333 5.33333333 0 6.66666667 0 6.66666667 3.33333333 6.66666667 4 12 4 12 5.33333333 6.66666667 5.33333333 6.66666667 6 6.66666667 9.33333333 5.33333333 9.33333333 5.33333333 6 5.33333333 5.33333333 0 5.33333333"></polygon>
        </g>
    </g>
</svg>