<?xml version="1.0" encoding="utf-8"?>
<!-- Generator: Adobe Illustrator 23.0.3, SVG Export Plug-In . SVG Version: 6.00 Build 0)  -->
<svg width="28px" height="20px" version="1.1" id="Ebene_1" xmlns="http://www.w3.org/2000/svg" xmlns:xlink="http://www.w3.org/1999/xlink" x="0px" y="0px"
	 viewBox="0 0 28 20" style="enable-background:new 0 0 28 20;" xml:space="preserve">
<style type="text/css">
	.st0{fill:#FFFFFF;}
	.st1{filter:url(#Adobe_OpacityMaskFilter);}
	.st2{fill-rule:evenodd;clip-rule:evenodd;fill:#FFFFFF;}
	.st3{mask:url(#mask-2_1_);fill-rule:evenodd;clip-rule:evenodd;fill:#0C47B7;}
	.st4{filter:url(#Adobe_OpacityMaskFilter_1_);}
	.st5{mask:url(#mask-2_2_);fill-rule:evenodd;clip-rule:evenodd;fill:#E53B35;}
	.st6{filter:url(#Adobe_OpacityMaskFilter_2_);}
	.st7{mask:url(#mask-2_3_);}
	.st8{fill:none;stroke:#FFFFFF;stroke-width:1.3333;}
	.st9{filter:url(#Adobe_OpacityMaskFilter_3_);}
	.st10{mask:url(#mask-4_1_);fill-rule:evenodd;clip-rule:evenodd;fill:#FFFFFF;}
	.st11{filter:url(#Adobe_OpacityMaskFilter_4_);}
	.st12{mask:url(#mask-4_2_);fill-rule:evenodd;clip-rule:evenodd;fill:#1251A1;}
</style>
<title>icon/flags/SK</title>
<desc>Created with Sketch.</desc>
<g>
	<g>
		<path class="st0" d="M2,0H26c1.1,0,2,0.9,2,2v15.8c0,1.1-0.9,2-2,2H2c-1.1,0-2-0.9-2-2V2C0,0.9,0.9,0,2,0z"/>
		<defs>
			<filter id="Adobe_OpacityMaskFilter" filterUnits="userSpaceOnUse" x="0" y="6.7" width="28" height="6.7">
				<feColorMatrix  type="matrix" values="1 0 0 0 0  0 1 0 0 0  0 0 1 0 0  0 0 0 1 0"/>
			</filter>
		</defs>
		<mask maskUnits="userSpaceOnUse" x="0" y="6.7" width="28" height="6.7" id="mask-2_1_">
			<g class="st1">
				<path id="path-1_1_" class="st2" d="M2,0h24c1.1,0,2,0.9,2,2v16c0,1.1-0.9,2-2,2H2c-1.1,0-2-0.9-2-2V2C0,0.9,0.9,0,2,0z"/>
			</g>
		</mask>
		<rect id="Rectangle-2" y="6.7" class="st3" width="28" height="6.7"/>
		<defs>
			<filter id="Adobe_OpacityMaskFilter_1_" filterUnits="userSpaceOnUse" x="0" y="13.3" width="28" height="6.7">
				<feColorMatrix  type="matrix" values="1 0 0 0 0  0 1 0 0 0  0 0 1 0 0  0 0 0 1 0"/>
			</filter>
		</defs>
		<mask maskUnits="userSpaceOnUse" x="0" y="13.3" width="28" height="6.7" id="mask-2_2_">
			<g class="st4">
				<path id="path-1_2_" class="st2" d="M2,0h24c1.1,0,2,0.9,2,2v16c0,1.1-0.9,2-2,2H2c-1.1,0-2-0.9-2-2V2C0,0.9,0.9,0,2,0z"/>
			</g>
		</mask>
		<rect y="13.3" class="st5" width="28" height="6.7"/>
		<defs>
			<filter id="Adobe_OpacityMaskFilter_2_" filterUnits="userSpaceOnUse" x="4.1" y="2.7" width="11.9" height="14.7">
				<feColorMatrix  type="matrix" values="1 0 0 0 0  0 1 0 0 0  0 0 1 0 0  0 0 0 1 0"/>
			</filter>
		</defs>
		<mask maskUnits="userSpaceOnUse" x="4.1" y="2.7" width="11.9" height="14.7" id="mask-2_3_">
			<g class="st6">
				<path id="path-1_3_" class="st2" d="M2,0h24c1.1,0,2,0.9,2,2v16c0,1.1-0.9,2-2,2H2c-1.1,0-2-0.9-2-2V2C0,0.9,0.9,0,2,0z"/>
			</g>
		</mask>
		<g id="Rectangle-1693" class="st7">
			<g transform="translate(4.666667, 4.000000)">
				<path class="st8" d="M0.3,1.3c0-1.1,1-2,2.1-2h6c1.1,0,2,0.9,2.1,2l0.2,6c0,0.9-0.5,2.1-1.2,2.7l-2.1,1.8
					c-1.1,0.9-2.8,0.9-3.9,0L1.2,10C0.5,9.4,0,8.2,0.1,7.3L0.3,1.3z"/>
				<defs>
					<filter id="Adobe_OpacityMaskFilter_3_" filterUnits="userSpaceOnUse" x="2.7" y="1.3" width="5.3" height="8">
						<feColorMatrix  type="matrix" values="1 0 0 0 0  0 1 0 0 0  0 0 1 0 0  0 0 0 1 0"/>
					</filter>
				</defs>
				<mask maskUnits="userSpaceOnUse" x="2.7" y="1.3" width="5.3" height="8" id="mask-4_1_">
					<g class="st9">
						<path id="path-3_1_" class="st2" d="M0.9,1.3C1,0.6,1.6,0,2.3,0h6c0.7,0,1.4,0.6,1.4,1.3l0.2,6c0,0.7-0.4,1.7-1,2.2l-2.1,1.8
							c-0.8,0.7-2.2,0.7-3,0L1.7,9.5c-0.6-0.5-1-1.5-1-2.2L0.9,1.3z"/>
					</g>
				</mask>
				<path id="Rectangle-1694" class="st10" d="M4.7,7c0-0.2-0.2-0.3-0.3-0.3H3c-0.2,0-0.3-0.1-0.3-0.3V5.7c0-0.2,0.2-0.3,0.3-0.3
					h1.3c0.2,0,0.3-0.1,0.3-0.3V4.3C4.7,4.2,4.5,4,4.3,4H3.7C3.5,4,3.3,3.9,3.3,3.7V3c0-0.2,0.1-0.3,0.3-0.3h0.7
					c0.2,0,0.3-0.1,0.3-0.3V1.7c0-0.2,0.1-0.3,0.3-0.3h0.7C5.8,1.3,6,1.5,6,1.7v0.7c0,0.2,0.1,0.3,0.3,0.3H7c0.2,0,0.3,0.1,0.3,0.3
					v0.7C7.3,3.8,7.2,4,7,4H6.3C6.2,4,6,4.1,6,4.3V5c0,0.2,0.2,0.3,0.3,0.3h1.3C7.9,5.3,8,5.5,8,5.7v0.7c0,0.2-0.2,0.3-0.3,0.3H6.3
					C6.1,6.7,6,6.8,6,7v2c0,0.2-0.1,0.3-0.3,0.3H5C4.8,9.3,4.7,9.2,4.7,9V7z"/>
				<defs>
					<filter id="Adobe_OpacityMaskFilter_4_" filterUnits="userSpaceOnUse" x="1.3" y="8.7" width="8" height="4.7">
						<feColorMatrix  type="matrix" values="1 0 0 0 0  0 1 0 0 0  0 0 1 0 0  0 0 0 1 0"/>
					</filter>
				</defs>
				<mask maskUnits="userSpaceOnUse" x="1.3" y="8.7" width="8" height="4.7" id="mask-4_2_">
					<g class="st11">
						<path id="path-3_2_" class="st2" d="M0.9,1.3C1,0.6,1.6,0,2.3,0h6c0.7,0,1.4,0.6,1.4,1.3l0.2,6c0,0.7-0.4,1.7-1,2.2l-2.1,1.8
							c-0.8,0.7-2.2,0.7-3,0L1.7,9.5c-0.6-0.5-1-1.5-1-2.2L0.9,1.3z"/>
					</g>
				</mask>
				<path id="Oval-215" class="st12" d="M4.1,9.4C4.3,9,4.8,8.7,5.3,8.7s1,0.3,1.2,0.8c1.6,0.3,2.8,1,2.8,1.9c0,1.1-1.8,2-4,2
					s-4-0.9-4-2C1.3,10.4,2.5,9.7,4.1,9.4z"/>
			</g>
		</g>
	</g>
</g>
</svg>
