<?xml version="1.0" encoding="utf-8"?>
<!-- Generator: Adobe Illustrator 23.0.3, SVG Export Plug-In . SVG Version: 6.00 Build 0)  -->
<svg width="28px" height="20px" version="1.1" id="Ebene_1" xmlns="http://www.w3.org/2000/svg" xmlns:xlink="http://www.w3.org/1999/xlink" x="0px" y="0px"
	 viewBox="0 0 28 20" style="enable-background:new 0 0 28 20;" xml:space="preserve">
<style type="text/css">
	.st0{fill:#FFFFFF;}
	.st1{filter:url(#Adobe_OpacityMaskFilter);}
	.st2{fill-rule:evenodd;clip-rule:evenodd;fill:#FFFFFF;}
	.st3{mask:url(#mask-3_1_);fill-rule:evenodd;clip-rule:evenodd;fill:#7CCCF5;}
	.st4{filter:url(#Adobe_OpacityMaskFilter_1_);}
	.st5{mask:url(#mask-3_2_);fill:none;stroke:#445F42;stroke-width:1.3333;stroke-linecap:round;}
	.st6{filter:url(#Adobe_OpacityMaskFilter_2_);}
	.st7{mask:url(#mask-3_3_);fill-rule:evenodd;clip-rule:evenodd;fill:#D89F3D;}
</style>
<title>icon/flags/SM</title>
<desc>Created with Sketch.</desc>
<g>
	<g>
		<path class="st0" d="M2,0H26c1.1,0,2,0.9,2,2v15.8c0,1.1-0.9,2-2,2H2c-1.1,0-2-0.9-2-2V2C0,0.9,0.9,0,2,0z"/>
		<defs>
			<filter id="Adobe_OpacityMaskFilter" filterUnits="userSpaceOnUse" x="0" y="9.3" width="28" height="10.7">
				<feColorMatrix  type="matrix" values="1 0 0 0 0  0 1 0 0 0  0 0 1 0 0  0 0 0 1 0"/>
			</filter>
		</defs>
		<mask maskUnits="userSpaceOnUse" x="0" y="9.3" width="28" height="10.7" id="mask-3_1_">
			<g class="st1">
				<path id="path-2_1_" class="st2" d="M2,0h24c1.1,0,2,0.9,2,2v16c0,1.1-0.9,2-2,2H2c-1.1,0-2-0.9-2-2V2C0,0.9,0.9,0,2,0z"/>
			</g>
		</mask>
		<rect id="Rectangle-2" y="9.3" class="st3" width="28" height="10.7"/>
		<defs>
			<filter id="Adobe_OpacityMaskFilter_1_" filterUnits="userSpaceOnUse" x="10.7" y="8.7" width="6.7" height="3.6">
				<feColorMatrix  type="matrix" values="1 0 0 0 0  0 1 0 0 0  0 0 1 0 0  0 0 0 1 0"/>
			</filter>
		</defs>
		<mask maskUnits="userSpaceOnUse" x="10.7" y="8.7" width="6.7" height="3.6" id="mask-3_2_">
			<g class="st4">
				<path id="path-2_2_" class="st2" d="M2,0h24c1.1,0,2,0.9,2,2v16c0,1.1-0.9,2-2,2H2c-1.1,0-2-0.9-2-2V2C0,0.9,0.9,0,2,0z"/>
			</g>
		</mask>
		<path id="Oval-5" class="st5" d="M11.3,9.3c0,1,0.5,1.8,1.3,2.3 M15.4,11.6c0.7-0.5,1.2-1.3,1.2-2.2"/>
		<defs>
			<filter id="Adobe_OpacityMaskFilter_2_" filterUnits="userSpaceOnUse" x="12.7" y="6.7" width="2.7" height="4">
				<feColorMatrix  type="matrix" values="1 0 0 0 0  0 1 0 0 0  0 0 1 0 0  0 0 0 1 0"/>
			</filter>
		</defs>
		<mask maskUnits="userSpaceOnUse" x="12.7" y="6.7" width="2.7" height="4" id="mask-3_3_">
			<g class="st6">
				<path id="path-2_3_" class="st2" d="M2,0h24c1.1,0,2,0.9,2,2v16c0,1.1-0.9,2-2,2H2c-1.1,0-2-0.9-2-2V2C0,0.9,0.9,0,2,0z"/>
			</g>
		</mask>
		<ellipse class="st7" cx="14" cy="8.7" rx="1.3" ry="2"/>
	</g>
</g>
</svg>
