<?xml version="1.0" encoding="utf-8"?>
<!-- Generator: Adobe Illustrator 23.0.3, SVG Export Plug-In . SVG Version: 6.00 Build 0)  -->
<svg width="28px" height="20px" version="1.1" id="Ebene_1" xmlns="http://www.w3.org/2000/svg" xmlns:xlink="http://www.w3.org/1999/xlink" x="0px" y="0px"
	 viewBox="0 0 28 20" style="enable-background:new 0 0 28 20;" xml:space="preserve">
<style type="text/css">
	.st0{fill:#FFFFFF;}
	.st1{filter:url(#Adobe_OpacityMaskFilter);}
	.st2{fill-rule:evenodd;clip-rule:evenodd;fill:#FFFFFF;}
	.st3{mask:url(#mask-2_1_);fill-rule:evenodd;clip-rule:evenodd;fill:#262626;}
	.st4{filter:url(#Adobe_OpacityMaskFilter_1_);}
	.st5{mask:url(#mask-2_2_);fill-rule:evenodd;clip-rule:evenodd;fill:#E32139;}
	.st6{filter:url(#Adobe_OpacityMaskFilter_2_);}
	.st7{mask:url(#mask-2_3_);fill-rule:evenodd;clip-rule:evenodd;fill:#128A49;}
	.st8{filter:url(#Adobe_OpacityMaskFilter_3_);}
	.st9{mask:url(#mask-2_4_);fill-rule:evenodd;clip-rule:evenodd;fill:#128A49;}
</style>
<title>icon/flags/SY</title>
<desc>Created with Sketch.</desc>
<g>
	<g>
		<path class="st0" d="M2,0H26c1.1,0,2,0.9,2,2v15.8c0,1.1-0.9,2-2,2H2c-1.1,0-2-0.9-2-2V2C0,0.9,0.9,0,2,0z"/>
		<defs>
			<filter id="Adobe_OpacityMaskFilter" filterUnits="userSpaceOnUse" x="0" y="13.3" width="28" height="6.7">
				<feColorMatrix  type="matrix" values="1 0 0 0 0  0 1 0 0 0  0 0 1 0 0  0 0 0 1 0"/>
			</filter>
		</defs>
		<mask maskUnits="userSpaceOnUse" x="0" y="13.3" width="28" height="6.7" id="mask-2_1_">
			<g class="st1">
				<path id="path-1_1_" class="st2" d="M2,0h24c1.1,0,2,0.9,2,2v16c0,1.1-0.9,2-2,2H2c-1.1,0-2-0.9-2-2V2C0,0.9,0.9,0,2,0z"/>
			</g>
		</mask>
		<rect id="Rectangle-2" y="13.3" class="st3" width="28" height="6.7"/>
		<defs>
			<filter id="Adobe_OpacityMaskFilter_1_" filterUnits="userSpaceOnUse" x="0" y="0" width="28" height="6.7">
				<feColorMatrix  type="matrix" values="1 0 0 0 0  0 1 0 0 0  0 0 1 0 0  0 0 0 1 0"/>
			</filter>
		</defs>
		<mask maskUnits="userSpaceOnUse" x="0" y="0" width="28" height="6.7" id="mask-2_2_">
			<g class="st4">
				<path id="path-1_2_" class="st2" d="M2,0h24c1.1,0,2,0.9,2,2v16c0,1.1-0.9,2-2,2H2c-1.1,0-2-0.9-2-2V2C0,0.9,0.9,0,2,0z"/>
			</g>
		</mask>
		<rect y="0" class="st5" width="28" height="6.7"/>
		<defs>
			<filter id="Adobe_OpacityMaskFilter_2_" filterUnits="userSpaceOnUse" x="6.8" y="7.3" width="5.1" height="4.8">
				<feColorMatrix  type="matrix" values="1 0 0 0 0  0 1 0 0 0  0 0 1 0 0  0 0 0 1 0"/>
			</filter>
		</defs>
		<mask maskUnits="userSpaceOnUse" x="6.8" y="7.3" width="5.1" height="4.8" id="mask-2_3_">
			<g class="st6">
				<path id="path-1_3_" class="st2" d="M2,0h24c1.1,0,2,0.9,2,2v16c0,1.1-0.9,2-2,2H2c-1.1,0-2-0.9-2-2V2C0,0.9,0.9,0,2,0z"/>
			</g>
		</mask>
		<polygon id="Star-33" class="st7" points="9.3,11.1 7.8,12.2 8.3,10.3 6.8,9.2 8.7,9.1 9.3,7.3 10,9.1 11.9,9.2 10.4,10.3 
			10.9,12.2 		"/>
		<defs>
			<filter id="Adobe_OpacityMaskFilter_3_" filterUnits="userSpaceOnUse" x="16.1" y="7.3" width="5.1" height="4.8">
				<feColorMatrix  type="matrix" values="1 0 0 0 0  0 1 0 0 0  0 0 1 0 0  0 0 0 1 0"/>
			</filter>
		</defs>
		<mask maskUnits="userSpaceOnUse" x="16.1" y="7.3" width="5.1" height="4.8" id="mask-2_4_">
			<g class="st8">
				<path id="path-1_4_" class="st2" d="M2,0h24c1.1,0,2,0.9,2,2v16c0,1.1-0.9,2-2,2H2c-1.1,0-2-0.9-2-2V2C0,0.9,0.9,0,2,0z"/>
			</g>
		</mask>
		<polygon class="st9" points="18.7,11.1 17.1,12.2 17.6,10.3 16.1,9.2 18,9.1 18.7,7.3 19.3,9.1 21.2,9.2 19.7,10.3 20.2,12.2 		
			"/>
	</g>
</g>
</svg>
