<?xml version="1.0" encoding="utf-8"?>
<!-- Generator: Adobe Illustrator 23.0.3, SVG Export Plug-In . SVG Version: 6.00 Build 0)  -->
<svg width="28px" height="20px" version="1.1" id="Ebene_1" xmlns="http://www.w3.org/2000/svg" xmlns:xlink="http://www.w3.org/1999/xlink" x="0px" y="0px"
	 viewBox="0 0 28 20" style="enable-background:new 0 0 28 20;" xml:space="preserve">
<style type="text/css">
	.st0{fill:#FFFFFF;}
	.st1{filter:url(#Adobe_OpacityMaskFilter);}
	.st2{fill-rule:evenodd;clip-rule:evenodd;fill:#FFFFFF;}
	.st3{mask:url(#mask-3_1_);fill-rule:evenodd;clip-rule:evenodd;fill:#E20F1B;}
	.st4{filter:url(#Adobe_OpacityMaskFilter_1_);}
	.st5{mask:url(#mask-3_2_);fill-rule:evenodd;clip-rule:evenodd;fill:url(#Rectangle-1703_1_);}
</style>
<title>icon/flags/TO</title>
<desc>Created with Sketch.</desc>
<g>
	<g>
		<path class="st0" d="M2,0H26c1.1,0,2,0.9,2,2v15.8c0,1.1-0.9,2-2,2H2c-1.1,0-2-0.9-2-2V2C0,0.9,0.9,0,2,0z"/>
		<defs>
			<filter id="Adobe_OpacityMaskFilter" filterUnits="userSpaceOnUse" x="0" y="0" width="28" height="20">
				<feColorMatrix  type="matrix" values="1 0 0 0 0  0 1 0 0 0  0 0 1 0 0  0 0 0 1 0"/>
			</filter>
		</defs>
		<mask maskUnits="userSpaceOnUse" x="0" y="0" width="28" height="20" id="mask-3_1_">
			<g class="st1">
				<path id="path-2_1_" class="st2" d="M2,0h24c1.1,0,2,0.9,2,2v16c0,1.1-0.9,2-2,2H2c-1.1,0-2-0.9-2-2V2C0,0.9,0.9,0,2,0z"/>
			</g>
		</mask>
		<path id="Combined-Shape" class="st3" d="M16,0h12v20H0v-9.3h16V0z"/>
		<defs>
			<filter id="Adobe_OpacityMaskFilter_1_" filterUnits="userSpaceOnUse" x="4" y="1.3" width="8" height="8">
				<feColorMatrix  type="matrix" values="1 0 0 0 0  0 1 0 0 0  0 0 1 0 0  0 0 0 1 0"/>
			</filter>
		</defs>
		<mask maskUnits="userSpaceOnUse" x="4" y="1.3" width="8" height="8" id="mask-3_2_">
			<g class="st4">
				<path id="path-2_2_" class="st2" d="M2,0h24c1.1,0,2,0.9,2,2v16c0,1.1-0.9,2-2,2H2c-1.1,0-2-0.9-2-2V2C0,0.9,0.9,0,2,0z"/>
			</g>
		</mask>
		
			<linearGradient id="Rectangle-1703_1_" gradientUnits="userSpaceOnUse" x1="-247.125" y1="379.5148" x2="-247.125" y2="378.5148" gradientTransform="matrix(8 0 0 -8 1985 3037.4512)">
			<stop  offset="0" style="stop-color:#DF101B"/>
			<stop  offset="1" style="stop-color:#C00711"/>
		</linearGradient>
		<path id="Rectangle-1703" class="st5" d="M9.3,4h2.3C11.9,4,12,4.1,12,4.3v2c0,0.2-0.2,0.3-0.3,0.3H9.3V9c0,0.2-0.1,0.3-0.3,0.3H7
			C6.8,9.3,6.7,9.2,6.7,9V6.7H4.3C4.1,6.7,4,6.5,4,6.3v-2C4,4.1,4.2,4,4.3,4h2.3V1.7c0-0.2,0.1-0.3,0.3-0.3h2c0.2,0,0.3,0.2,0.3,0.3
			V4z"/>
	</g>
</g>
</svg>
