<?xml version="1.0" encoding="utf-8"?>
<!-- Generator: Adobe Illustrator 23.0.3, SVG Export Plug-In . SVG Version: 6.00 Build 0)  -->
<svg width="28px" height="20px" version="1.1" id="Ebene_1" xmlns="http://www.w3.org/2000/svg" xmlns:xlink="http://www.w3.org/1999/xlink" x="0px" y="0px"
	 viewBox="0 0 28 20" style="enable-background:new 0 0 28 20;" xml:space="preserve">
<style type="text/css">
	.st0{fill:#FFFFFF;}
	.st1{filter:url(#Adobe_OpacityMaskFilter);}
	.st2{fill-rule:evenodd;clip-rule:evenodd;fill:#FFFFFF;}
	.st3{mask:url(#mask-2_1_);fill-rule:evenodd;clip-rule:evenodd;fill:#0E4DC5;}
	.st4{filter:url(#Adobe_OpacityMaskFilter_1_);}
	.st5{mask:url(#mask-2_2_);fill-rule:evenodd;clip-rule:evenodd;fill:#FED443;}
</style>
<title>icon/flags/UY</title>
<desc>Created with Sketch.</desc>
<g>
	<g>
		<path class="st0" d="M2,0H26c1.1,0,2,0.9,2,2v15.8c0,1.1-0.9,2-2,2H2c-1.1,0-2-0.9-2-2V2C0,0.9,0.9,0,2,0z"/>
		<defs>
			<filter id="Adobe_OpacityMaskFilter" filterUnits="userSpaceOnUse" x="0" y="2.7" width="28" height="17.3">
				<feColorMatrix  type="matrix" values="1 0 0 0 0  0 1 0 0 0  0 0 1 0 0  0 0 0 1 0"/>
			</filter>
		</defs>
		<mask maskUnits="userSpaceOnUse" x="0" y="2.7" width="28" height="17.3" id="mask-2_1_">
			<g class="st1">
				<path id="path-1_1_" class="st2" d="M2,0h24c1.1,0,2,0.9,2,2v16c0,1.1-0.9,2-2,2H2c-1.1,0-2-0.9-2-2V2C0,0.9,0.9,0,2,0z"/>
			</g>
		</mask>
		<path id="Combined-Shape" class="st3" d="M0,13.3h13.3V2.7H28v2.7H13.3V8H28v2.7H13.3v2.7H28V16H0V13.3z M0,18.7h28V20H0V18.7z"/>
		<defs>
			<filter id="Adobe_OpacityMaskFilter_1_" filterUnits="userSpaceOnUse" x="2.7" y="2.9" width="8" height="7.8">
				<feColorMatrix  type="matrix" values="1 0 0 0 0  0 1 0 0 0  0 0 1 0 0  0 0 0 1 0"/>
			</filter>
		</defs>
		<mask maskUnits="userSpaceOnUse" x="2.7" y="2.9" width="8" height="7.8" id="mask-2_2_">
			<g class="st4">
				<path id="path-1_2_" class="st2" d="M2,0h24c1.1,0,2,0.9,2,2v16c0,1.1-0.9,2-2,2H2c-1.1,0-2-0.9-2-2V2C0,0.9,0.9,0,2,0z"/>
			</g>
		</mask>
		<path id="Star-28" class="st5" d="M6.7,9.3l-0.9,1.3L5.6,9.1L4.2,9.9l0.5-1.5L3.1,8.5l1.1-1.2L2.7,6.8l1.5-0.6L3.1,5l1.6,0.1
			L4.2,3.6l1.4,0.8l0.2-1.6l0.9,1.3l0.9-1.3l0.2,1.6l1.4-0.8L8.7,5.1L10.3,5L9.2,6.2l1.5,0.6L9.2,7.3l1.1,1.2L8.7,8.4l0.5,1.5
			L7.8,9.1l-0.2,1.6L6.7,9.3z M6.7,9.3c1.4,0,2.5-1.1,2.5-2.5S8.1,4.2,6.7,4.2S4.1,5.3,4.1,6.8S5.3,9.3,6.7,9.3z M6.7,8.7
			c-1.1,0-2-0.9-2-2s0.9-2,2-2s2,0.9,2,2S7.8,8.7,6.7,8.7z"/>
	</g>
</g>
</svg>
