<?xml version="1.0" encoding="utf-8"?>
<!-- Generator: Adobe Illustrator 23.0.3, SVG Export Plug-In . SVG Version: 6.00 Build 0)  -->
<svg width="28px" height="20px" version="1.1" id="Ebene_1" xmlns="http://www.w3.org/2000/svg" xmlns:xlink="http://www.w3.org/1999/xlink" x="0px" y="0px"
	 viewBox="0 0 28 20" style="enable-background:new 0 0 28 20;" xml:space="preserve">
<style type="text/css">
	.st0{fill:#FFFFFF;}
	.st1{filter:url(#Adobe_OpacityMaskFilter);}
	.st2{fill-rule:evenodd;clip-rule:evenodd;fill:#FFFFFF;}
	.st3{mask:url(#mask-2_1_);fill-rule:evenodd;clip-rule:evenodd;fill:#04AAC8;}
	.st4{filter:url(#Adobe_OpacityMaskFilter_1_);}
	.st5{mask:url(#mask-2_2_);fill-rule:evenodd;clip-rule:evenodd;fill:#23C840;}
	.st6{filter:url(#Adobe_OpacityMaskFilter_2_);}
	.st7{mask:url(#mask-2_3_);fill-rule:evenodd;clip-rule:evenodd;fill:#FFFFFF;}
</style>
<title>icon/flags/UZ</title>
<desc>Created with Sketch.</desc>
<g>
	<g>
		<path class="st0" d="M2,0h23.9c1.1,0,2,0.9,2,2v15.5c0,1.1-0.9,2-2,2H2c-1.1,0-2-0.9-2-2V2C0,0.9,0.9,0,2,0z"/>
		<defs>
			<filter id="Adobe_OpacityMaskFilter" filterUnits="userSpaceOnUse" x="0" y="0" width="28" height="6.7">
				<feColorMatrix  type="matrix" values="1 0 0 0 0  0 1 0 0 0  0 0 1 0 0  0 0 0 1 0"/>
			</filter>
		</defs>
		<mask maskUnits="userSpaceOnUse" x="0" y="0" width="28" height="6.7" id="mask-2_1_">
			<g class="st1">
				<path id="path-1_1_" class="st2" d="M2,0h24c1.1,0,2,0.9,2,2v16c0,1.1-0.9,2-2,2H2c-1.1,0-2-0.9-2-2V2C0,0.9,0.9,0,2,0z"/>
			</g>
		</mask>
		<rect id="Rectangle-2" y="0" class="st3" width="28" height="6.7"/>
		<defs>
			<filter id="Adobe_OpacityMaskFilter_1_" filterUnits="userSpaceOnUse" x="0" y="13.3" width="28" height="6.7">
				<feColorMatrix  type="matrix" values="1 0 0 0 0  0 1 0 0 0  0 0 1 0 0  0 0 0 1 0"/>
			</filter>
		</defs>
		<mask maskUnits="userSpaceOnUse" x="0" y="13.3" width="28" height="6.7" id="mask-2_2_">
			<g class="st4">
				<path id="path-1_2_" class="st2" d="M2,0h24c1.1,0,2,0.9,2,2v16c0,1.1-0.9,2-2,2H2c-1.1,0-2-0.9-2-2V2C0,0.9,0.9,0,2,0z"/>
			</g>
		</mask>
		<rect y="13.3" class="st5" width="28" height="6.7"/>
		<defs>
			<filter id="Adobe_OpacityMaskFilter_2_" filterUnits="userSpaceOnUse" x="2.7" y="1.3" width="10.7" height="4">
				<feColorMatrix  type="matrix" values="1 0 0 0 0  0 1 0 0 0  0 0 1 0 0  0 0 0 1 0"/>
			</filter>
		</defs>
		<mask maskUnits="userSpaceOnUse" x="2.7" y="1.3" width="10.7" height="4" id="mask-2_3_">
			<g class="st6">
				<path id="path-1_3_" class="st2" d="M2,0h24c1.1,0,2,0.9,2,2v16c0,1.1-0.9,2-2,2H2c-1.1,0-2-0.9-2-2V2C0,0.9,0.9,0,2,0z"/>
			</g>
		</mask>
		<path id="Oval-68" class="st7" d="M5.8,1.7c0,0-0.1,0-0.1,0C4.7,1.7,4,2.4,4,3.3S4.7,5,5.7,5c0,0,0.1,0,0.1,0
			C5.5,5.2,5.1,5.3,4.7,5.3c-1.1,0-2-0.9-2-2s0.9-2,2-2C5.1,1.3,5.5,1.5,5.8,1.7z M7.3,5.3C7,5.3,6.7,5,6.7,4.7S7,4,7.3,4
			S8,4.3,8,4.7S7.7,5.3,7.3,5.3z M10,2.7C9.6,2.7,9.3,2.4,9.3,2S9.6,1.3,10,1.3s0.7,0.3,0.7,0.7S10.4,2.7,10,2.7z M12.7,2.7
			C12.3,2.7,12,2.4,12,2s0.3-0.7,0.7-0.7s0.7,0.3,0.7,0.7S13,2.7,12.7,2.7z M12.7,5.3C12.3,5.3,12,5,12,4.7S12.3,4,12.7,4
			s0.7,0.3,0.7,0.7S13,5.3,12.7,5.3z M10,5.3C9.6,5.3,9.3,5,9.3,4.7S9.6,4,10,4s0.7,0.3,0.7,0.7S10.4,5.3,10,5.3z"/>
	</g>
</g>
</svg>
