<?xml version="1.0" encoding="UTF-8"?>
<svg width="28px" height="20px" viewBox="0 0 28 20" version="1.1" xmlns="http://www.w3.org/2000/svg" xmlns:xlink="http://www.w3.org/1999/xlink">
    <!-- Generator: Sketch 55.2 (78181) - https://sketchapp.com -->
    <title>icon/flags/VE</title>
    <desc>Created with Sketch.</desc>
    <defs>
        <rect id="path-1" x="0" y="0" width="28" height="20" rx="2"></rect>
    </defs>
    <g id="icon/flags/VE" stroke="none" stroke-width="1" fill="none" fill-rule="evenodd">
        <g id="ic_flags/VE">
            <mask id="mask-2" fill="white">
                <use xlink:href="#path-1"></use>
            </mask>
            <use id="Mask" fill="#FFFFFF" xlink:href="#path-1"></use>
            <rect id="Rectangle-2-Copy-4" fill="#063191" mask="url(#mask-2)" x="0" y="6.66666667" width="28" height="6.66666667"></rect>
            <rect id="Rectangle-2" fill="#E2213B" mask="url(#mask-2)" x="0" y="13.3333333" width="28" height="6.66666667"></rect>
            <path d="M14,9.33333333 C13.6318102,9.33333333 13.3333333,9.0348565 13.3333333,8.66666667 C13.3333333,8.29847683 13.6318102,8 14,8 C14.3681898,8 14.6666667,8.29847683 14.6666667,8.66666667 C14.6666667,9.0348565 14.3681898,9.33333333 14,9.33333333 Z M11.3333333,10 C10.9651435,10 10.6666667,9.70152317 10.6666667,9.33333333 C10.6666667,8.9651435 10.9651435,8.66666667 11.3333333,8.66666667 C11.7015232,8.66666667 12,8.9651435 12,9.33333333 C12,9.70152317 11.7015232,10 11.3333333,10 Z M16.6666667,10 C16.2984768,10 16,9.70152317 16,9.33333333 C16,8.9651435 16.2984768,8.66666667 16.6666667,8.66666667 C17.0348565,8.66666667 17.3333333,8.9651435 17.3333333,9.33333333 C17.3333333,9.70152317 17.0348565,10 16.6666667,10 Z M10,12 C9.63181017,12 9.33333333,11.7015232 9.33333333,11.3333333 C9.33333333,10.9651435 9.63181017,10.6666667 10,10.6666667 C10.3681898,10.6666667 10.6666667,10.9651435 10.6666667,11.3333333 C10.6666667,11.7015232 10.3681898,12 10,12 Z M18,12 C17.6318102,12 17.3333333,11.7015232 17.3333333,11.3333333 C17.3333333,10.9651435 17.6318102,10.6666667 18,10.6666667 C18.3681898,10.6666667 18.6666667,10.9651435 18.6666667,11.3333333 C18.6666667,11.7015232 18.3681898,12 18,12 Z" id="Oval-61" fill="#FFFFFF" mask="url(#mask-2)"></path>
            <rect id="Rectangle-2" fill="#FFD044" mask="url(#mask-2)" x="0" y="0" width="28" height="6.66666667"></rect>
        </g>
    </g>
</svg>