<?xml version="1.0" encoding="UTF-8"?>
<svg width="28px" height="20px" viewBox="0 0 28 20" version="1.1" xmlns="http://www.w3.org/2000/svg" xmlns:xlink="http://www.w3.org/1999/xlink">
    <!-- Generator: Sketch 55.2 (78181) - https://sketchapp.com -->
    <title>icon/flags/VG</title>
    <desc>Created with Sketch.</desc>
    <defs>
        <rect id="path-1" x="0" y="0" width="28" height="20" rx="2"></rect>
        <path d="M0,4.66666667 L3.43775544e-17,1.33245595 C1.53913554e-17,0.59656085 0.591622194,0 1.33307666,0 L5.33359001,0 C6.06982792,0 6.66666667,0.587946256 6.66666667,1.33245595 L6.66666667,4.66666667 C6.66666667,8 3.33333333,9.33333333 3.33333333,9.33333333 C3.33333333,9.33333333 0,8 0,4.66666667 Z" id="path-3"></path>
    </defs>
    <g id="icon/flags/VG" stroke="none" stroke-width="1" fill="none" fill-rule="evenodd">
        <g id="ic_flags/VG">
            <mask id="mask-2" fill="white">
                <use xlink:href="#path-1"></use>
            </mask>
            <use id="Mask" fill="#FFFFFF" xlink:href="#path-1"></use>
            <rect id="Mask-Copy" fill="#07319C" mask="url(#mask-2)" x="0" y="0" width="28" height="20"></rect>
            <g id="Rectangle-1105" mask="url(#mask-2)">
                <g transform="translate(17.333333, 5.333333)">
                    <mask id="mask-4" fill="white">
                        <use xlink:href="#path-3"></use>
                    </mask>
                    <use id="Mask" stroke="none" fill="#008339" fill-rule="evenodd" xlink:href="#path-3"></use>
                    <path d="M2,2.66666667 C1.63181017,2.66666667 1.33333333,2.36818983 1.33333333,2 C1.33333333,1.63181017 1.63181017,1.33333333 2,1.33333333 C2.36818983,1.33333333 2.66666667,1.63181017 2.66666667,2 C2.66666667,2.36818983 2.36818983,2.66666667 2,2.66666667 Z M2,4 C1.63181017,4 1.33333333,3.70152317 1.33333333,3.33333333 C1.33333333,2.9651435 1.63181017,2.66666667 2,2.66666667 C2.36818983,2.66666667 2.66666667,2.9651435 2.66666667,3.33333333 C2.66666667,3.70152317 2.36818983,4 2,4 Z M2,5.33333333 C1.63181017,5.33333333 1.33333333,5.0348565 1.33333333,4.66666667 C1.33333333,4.29847683 1.63181017,4 2,4 C2.36818983,4 2.66666667,4.29847683 2.66666667,4.66666667 C2.66666667,5.0348565 2.36818983,5.33333333 2,5.33333333 Z M2,6.66666667 C1.63181017,6.66666667 1.33333333,6.36818983 1.33333333,6 C1.33333333,5.63181017 1.63181017,5.33333333 2,5.33333333 C2.36818983,5.33333333 2.66666667,5.63181017 2.66666667,6 C2.66666667,6.36818983 2.36818983,6.66666667 2,6.66666667 Z M4.66666667,6.66666667 C4.29847683,6.66666667 4,6.36818983 4,6 C4,5.63181017 4.29847683,5.33333333 4.66666667,5.33333333 C5.0348565,5.33333333 5.33333333,5.63181017 5.33333333,6 C5.33333333,6.36818983 5.0348565,6.66666667 4.66666667,6.66666667 Z M4.66666667,5.33333333 C4.29847683,5.33333333 4,5.0348565 4,4.66666667 C4,4.29847683 4.29847683,4 4.66666667,4 C5.0348565,4 5.33333333,4.29847683 5.33333333,4.66666667 C5.33333333,5.0348565 5.0348565,5.33333333 4.66666667,5.33333333 Z M4.66666667,4 C4.29847683,4 4,3.70152317 4,3.33333333 C4,2.9651435 4.29847683,2.66666667 4.66666667,2.66666667 C5.0348565,2.66666667 5.33333333,2.9651435 5.33333333,3.33333333 C5.33333333,3.70152317 5.0348565,4 4.66666667,4 Z M4.66666667,2.66666667 C4.29847683,2.66666667 4,2.36818983 4,2 C4,1.63181017 4.29847683,1.33333333 4.66666667,1.33333333 C5.0348565,1.33333333 5.33333333,1.63181017 5.33333333,2 C5.33333333,2.36818983 5.0348565,2.66666667 4.66666667,2.66666667 Z" id="Oval-197" stroke="none" fill="#FFD033" fill-rule="evenodd" mask="url(#mask-4)"></path>
                    <ellipse id="Oval-193" stroke="none" fill="#FFFFFF" fill-rule="evenodd" mask="url(#mask-4)" cx="3.33333333" cy="4" rx="1" ry="2"></ellipse>
                </g>
            </g>
            <path d="M16.6666667,13.3333333 C16.6666667,14.6048534 18.4878665,15.3333333 20.6666667,15.3333333 C22.8454669,15.3333333 24.6666667,14.6048534 24.6666667,13.3333333 C24.6666667,12.9651435 24.3681898,12.6666667 24,12.6666667 C23.6318102,12.6666667 23.3333333,12.9651435 23.3333333,13.3333333 C23.3333333,13.3460798 23.171739,13.4989005 22.7760955,13.6571579 C22.2390168,13.8719894 21.4823891,14 20.6666667,14 C19.8509442,14 19.0943165,13.8719894 18.5572378,13.6571579 C18.1615943,13.4989005 18,13.3460798 18,13.3333333 C18,12.9651435 17.7015232,12.6666667 17.3333333,12.6666667 C16.9651435,12.6666667 16.6666667,12.9651435 16.6666667,13.3333333 L16.6666667,13.3333333 Z" id="Shape" fill="#FFD033" fill-rule="nonzero" mask="url(#mask-2)"></path>
            <path d="M4.33333333,4.15331164 L-0.901085803,-0.333333333 L0.666666667,-0.333333333 L0.860412731,-0.27124449 L5.44015502,3 L6.57106792,3 L12.3333333,-0.601415881 L12.3333333,0.333333333 C12.3333333,0.628978368 12.1628101,0.960008269 11.9158002,1.1364439 L7.66666667,4.1715393 L7.66666667,5.18002169 L11.9660302,8.86519043 C12.3427037,9.18805344 12.1509712,9.66666667 11.6666667,9.66666667 C11.4092185,9.66666667 11.0776031,9.56030345 10.8616414,9.40604508 L6.55984498,6.33333333 L5.42893208,6.33333333 L-0.333333333,9.93474921 L-0.333333333,8.49512737 L4.33333333,5.16179403 L4.33333333,4.15331164 Z" id="Rectangle-36" stroke="#FFFFFF" stroke-width="0.666666667" fill="#DB1E36" mask="url(#mask-2)"></path>
            <path d="M0,3.33333333 L0,6 L4.66666667,6 L4.66666667,9.33948135 C4.66666667,9.70427573 4.97256724,10 5.33957926,10 L6.66042074,10 C7.0320601,10 7.33333333,9.69934988 7.33333333,9.33948135 L7.33333333,6 L11.9911963,6 C12.3642483,6 12.6666667,5.69409943 12.6666667,5.3270874 L12.6666667,4.00624593 C12.6666667,3.63460657 12.3646425,3.33333333 11.9911963,3.33333333 L7.33333333,3.33333333 L7.33333333,0 L4.66666667,0 L4.66666667,3.33333333 L0,3.33333333 Z" id="Rectangle-2" fill="#FFFFFF" mask="url(#mask-2)"></path>
            <polygon id="Rectangle-36" fill="#DB1E36" mask="url(#mask-2)" points="0 4 5.33333333 4 5.33333333 3.33333333 5.33333333 0 6.66666667 0 6.66666667 3.33333333 6.66666667 4 12 4 12 5.33333333 6.66666667 5.33333333 6.66666667 6 6.66666667 9.33333333 5.33333333 9.33333333 5.33333333 6 5.33333333 5.33333333 0 5.33333333"></polygon>
        </g>
    </g>
</svg>