<?xml version="1.0" encoding="UTF-8"?>
<svg width="28px" height="20px" viewBox="0 0 28 20" version="1.1" xmlns="http://www.w3.org/2000/svg" xmlns:xlink="http://www.w3.org/1999/xlink">
    <!-- Generator: Sketch 55.2 (78181) - https://sketchapp.com -->
    <title>icon/flags/WW</title>
    <desc>Created with Sketch.</desc>
    <defs>
        <rect id="path-1" x="0" y="0" width="28" height="20" rx="2"></rect>
    </defs>
    <g id="icon/flags/WW" stroke="none" stroke-width="1" fill="none" fill-rule="evenodd">
        <g id="ic_flags/WW">
            <mask id="mask-2" fill="white">
                <use xlink:href="#path-1"></use>
            </mask>
            <use id="Mask" fill="#FFFFFF" xlink:href="#path-1"></use>
            <rect id="Mask-Copy" fill="#4499FC" mask="url(#mask-2)" x="0" y="0" width="28" height="20"></rect>
            <path d="M13.6144933,15.9878147 C13.7419554,15.9958973 13.8704986,16 14,16 C14.1295014,16 14.2580446,15.9958973 14.3855067,15.9878147 C15.3010732,14.9034282 15.8882961,12.9157126 15.9856455,10.6666667 L12.0143545,10.6666667 C12.1117039,12.9157126 12.6989268,14.9034282 13.6144933,15.9878147 Z M11.7826774,15.5769775 C11.1326062,14.2529522 10.7528335,12.5280305 10.679691,10.6666667 L8.03661919,10.6666667 C8.28414644,12.9058327 9.76385953,14.77363 11.7826774,15.5769775 Z M13.6144933,4.01218533 C12.6989268,5.09657175 12.1117039,7.08428744 12.0143545,9.33333333 L15.9856455,9.33333333 C15.8882961,7.08428744 15.3010732,5.09657175 14.3855067,4.01218533 C14.2580446,4.00410274 14.1295014,4 14,4 C13.8704986,4 13.7419554,4.00410274 13.6144933,4.01218533 Z M11.7826774,4.42302254 C9.76385953,5.22636998 8.28414644,7.09416728 8.03661919,9.33333333 L10.679691,9.33333333 C10.7528335,7.47196945 11.1326062,5.74704779 11.7826774,4.42302254 Z M16.2173226,15.5769775 C18.2361405,14.77363 19.7158536,12.9058327 19.9633808,10.6666667 L17.320309,10.6666667 C17.2471665,12.5280305 16.8673938,14.2529522 16.2173226,15.5769775 Z M16.2173226,4.42302254 C16.8673938,5.74704779 17.2471665,7.47196945 17.320309,9.33333333 L19.9633808,9.33333333 C19.7158536,7.09416728 18.2361405,5.22636998 16.2173226,4.42302254 Z M14,17.3333333 C9.94991183,17.3333333 6.66666667,14.0500882 6.66666667,10 C6.66666667,5.94991183 9.94991183,2.66666667 14,2.66666667 C18.0500882,2.66666667 21.3333333,5.94991183 21.3333333,10 C21.3333333,14.0500882 18.0500882,17.3333333 14,17.3333333 Z" id="Oval-143" fill="#FFFFFF" mask="url(#mask-2)"></path>
        </g>
    </g>
</svg>