<?xml version="1.0" encoding="UTF-8"?>
<svg width="24px" height="24px" viewBox="0 0 24 24" version="1.1" xmlns="http://www.w3.org/2000/svg" xmlns:xlink="http://www.w3.org/1999/xlink">
    <!-- Generator: Sketch 62 (91390) - https://sketch.com -->
    <title>icons / 24x24 / brands / apple-pay colored</title>
    <desc>Created with Sketch.</desc>
    <g id="icons-/-24x24-/-brands-/-apple-pay-colored" stroke="none" stroke-width="1" fill="none" fill-rule="evenodd">
        <g id="icon" fill="#000000" fill-rule="nonzero">
            <path d="M22.5,4.5 C23.3284271,4.5 24,5.17157288 24,6 L24,18 C24,18.8284271 23.3284271,19.5 22.5,19.5 L1.5,19.5 C0.671572875,19.5 0,18.8284271 0,18 L0,6 C0,5.17157288 0.671572875,4.5 1.5,4.5 L22.5,4.5 Z M22.5,5 L1.5,5 C0.94771525,5 0.5,5.44771525 0.5,6 L0.5,18 C0.5,18.5522847 0.94771525,19 1.5,19 L22.5,19 C23.0522847,19 23.5,18.5522847 23.5,18 L23.5,6 C23.5,5.44771525 23.0522847,5 22.5,5 Z M17.9788,10.48478 L18.97096,13.6516 L18.98973,13.6516 L19.98188,10.48478 L20.83877,10.48478 L19.36181,14.58465 C19.02359,15.525026 18.63649,15.833603 17.81722,15.833603 C17.75336,15.833603 17.54663,15.826153 17.4903,15.811238 L17.4903,15.168257 C17.54293,15.175579 17.67067,15.183029 17.73828,15.183029 C18.11037,15.183029 18.3208,15.027017 18.44861,14.625519 L18.52378,14.387626 L17.09945,10.48478 L17.9788,10.48478 Z M6.590819,10.00925 C6.778684,10.02363 7.320578,10.08082 7.667393,10.58817 C7.638492,10.60989 7.024337,10.96014 7.031639,11.6965 C7.03881,12.57593 7.811754,12.86922 7.819012,12.87637 C7.811754,12.89796 7.696395,13.29127 7.414583,13.6986 C7.168916,14.056254 6.915961,14.406602 6.511345,14.413752 C6.121171,14.420902 5.991036,14.184853 5.543335,14.184853 C5.095301,14.184853 4.950839,14.406602 4.582251,14.420902 C4.192135,14.435044 3.896082,14.041611 3.650414,13.68429 C3.144549,12.96204 2.761634,11.64661 3.281827,10.7598 C3.534752,10.31652 3.9972,10.0378 4.49559,10.03056 C4.878506,10.02363 5.232549,10.28101 5.46386,10.28101 C5.69507,10.28101 6.106684,9.98073 6.590819,10.00925 Z M15.18547,10.43646 C16.14753,10.43646 16.77513,10.93454 16.77513,11.70764 L16.77513,14.376443 L15.99719,14.376443 L15.99719,13.73346 L15.97842,13.73346 C15.75668,14.153465 15.26811,14.417312 14.73821,14.417312 C13.95656,14.417312 13.41168,13.95644 13.41168,13.26514 C13.41168,12.57743 13.94157,12.18342 14.91863,12.12399 L15.96711,12.06075 L15.96711,11.76342 C15.96711,11.32852 15.67774,11.09063 15.16293,11.09063 C14.73821,11.09063 14.43006,11.30621 14.3662,11.63703 L13.60703,11.63703 C13.62964,10.94192 14.29103,10.43646 15.18547,10.43646 Z M11.41781,9.01278 C12.47005,9.01278 13.20283,9.73018 13.20283,10.77466 C13.20283,11.82287 12.45505,12.54403 11.3915,12.54403 L10.22646,12.54403 L10.22646,14.376443 L9.384651,14.376443 L9.384651,9.01278 L11.41781,9.01278 Z M15.96711,12.6183 L15.03136,12.6778 C14.50524,12.71122 14.23094,12.90451 14.23094,13.24278 C14.23094,13.56986 14.51654,13.7818 14.96373,13.7818 C15.53493,13.7818 15.96711,13.42115 15.96711,12.91943 L15.96711,12.6183 Z M11.19606,9.71533 L10.22646,9.71533 L10.22646,11.84516 L11.1923,11.84516 C11.92515,11.84516 12.34225,11.45492 12.34225,10.77839 C12.34225,10.10193 11.92515,9.71533 11.19606,9.71533 Z M6.594607,8.60377 C6.630911,8.94813 6.493243,9.28512 6.290371,9.53608 C6.080198,9.78003 5.747133,9.97343 5.413764,9.94483 C5.370304,9.61491 5.537046,9.26381 5.725431,9.04873 C5.935243,8.79755 6.297629,8.61839 6.594607,8.60377 Z" id="Shape"></path>
        </g>
    </g>
</svg>