<?xml version="1.0" encoding="UTF-8"?>
<svg width="24px" height="24px" viewBox="0 0 24 24" version="1.1" xmlns="http://www.w3.org/2000/svg" xmlns:xlink="http://www.w3.org/1999/xlink">
    <!-- Generator: Sketch 62 (91390) - https://sketch.com -->
    <title>icons / 24x24 / calculator</title>
    <desc>Created with Sketch.</desc>
    <g id="icons-/-24x24-/-calculator" stroke="none" stroke-width="1" fill="none" fill-rule="evenodd">
        <g id="icon" fill="#001E3E" fill-rule="nonzero">
            <path d="M16,2 C18.209139,2 20,3.790861 20,6 L20,8 L18,8 L18,6 C18,4.8954305 17.1045695,4 16,4 L8,4 C6.8954305,4 6,4.8954305 6,6 L6,18 C6,19.1045695 6.8954305,20 8,20 L16,20 C17.1045695,20 18,19.1045695 18,18 L18,10 L20,10 L20,18 C20,20.209139 18.209139,22 16,22 L8,22 C5.790861,22 4,20.209139 4,18 L4,6 C4,3.790861 5.790861,2 8,2 L16,2 Z M9,16 C9.55228475,16 10,16.4477153 10,17 C10,17.5522847 9.55228475,18 9,18 C8.44771525,18 8,17.5522847 8,17 C8,16.4477153 8.44771525,16 9,16 Z M12,16 C12.5522847,16 13,16.4477153 13,17 C13,17.5522847 12.5522847,18 12,18 C11.4477153,18 11,17.5522847 11,17 C11,16.4477153 11.4477153,16 12,16 Z M15,13 C15.5522847,13 16,13.4477153 16,14 L16,17 C16,17.5522847 15.5522847,18 15,18 C14.4477153,18 14,17.5522847 14,17 L14,14 C14,13.4477153 14.4477153,13 15,13 Z M9,13 C9.55228475,13 10,13.4477153 10,14 C10,14.5522847 9.55228475,15 9,15 C8.44771525,15 8,14.5522847 8,14 C8,13.4477153 8.44771525,13 9,13 Z M12,13 C12.5522847,13 13,13.4477153 13,14 C13,14.5522847 12.5522847,15 12,15 C11.4477153,15 11,14.5522847 11,14 C11,13.4477153 11.4477153,13 12,13 Z M9,10 C9.55228475,10 10,10.4477153 10,11 C10,11.5522847 9.55228475,12 9,12 C8.44771525,12 8,11.5522847 8,11 C8,10.4477153 8.44771525,10 9,10 Z M12,10 C12.5522847,10 13,10.4477153 13,11 C13,11.5522847 12.5522847,12 12,12 C11.4477153,12 11,11.5522847 11,11 C11,10.4477153 11.4477153,10 12,10 Z M15,10 C15.5522847,10 16,10.4477153 16,11 C16,11.5522847 15.5522847,12 15,12 C14.4477153,12 14,11.5522847 14,11 C14,10.4477153 14.4477153,10 15,10 Z M16,6 L16,8 L8,8 L8,6 L16,6 Z" id="shape"></path>
        </g>
    </g>
</svg>