<svg width="24" height="24" viewBox="0 0 24 24" fill="none" xmlns="http://www.w3.org/2000/svg">
<path d="M16.1869 6C19.5917 6 22.3657 8.67828 22.3657 12C22.3657 15.3217 19.5917 18 16.1869 18C15.4908 18 14.8099 17.8878 14.1662 17.6716C13.5504 17.8841 12.8886 18 12.1998 18C11.3757 18 10.5731 17.8335 9.83069 17.5147L10.098 17.623C9.44498 17.8667 8.73805 18 8 18C4.68629 18 2 15.3137 2 12C2 8.68629 4.68629 6 8 6C8.73881 6 9.44642 6.13353 10.1 6.37778C10.7644 6.12936 11.4735 6 12.1998 6C12.889 6 13.5511 6.11601 14.1676 6.32957C14.8111 6.11188 15.4917 6 16.1869 6ZM8 8C5.79086 8 4 9.79086 4 12C4 14.2091 5.79086 16 8 16C10.2091 16 12 14.2091 12 12C12 9.79086 10.2091 8 8 8ZM12.4818 8.00976L12.5283 8.06356C13.445 9.11717 14 10.4938 14 12C14 13.5318 13.426 14.9296 12.4813 15.9899C14.5622 15.8457 16.2047 14.1143 16.2047 12C16.2047 9.88574 14.5622 8.15427 12.4818 8.00976ZM16.7028 8.03013L16.7317 8.06347C17.6492 9.11706 18.2047 10.4937 18.2047 12C18.2047 13.5218 17.6377 14.9112 16.7034 15.9688C18.7731 15.7262 20.3657 14.035 20.3657 12C20.3657 9.96497 18.7731 8.27378 16.7028 8.03013Z" fill="#001E3E"/>
</svg>
