<?xml version="1.0" encoding="UTF-8"?>
<svg width="24px" height="24px" viewBox="0 0 24 24" version="1.1" xmlns="http://www.w3.org/2000/svg" xmlns:xlink="http://www.w3.org/1999/xlink">
    <!-- Generator: Sketch 62 (91390) - https://sketch.com -->
    <title>icons / 24x24 / face-id</title>
    <desc>Created with Sketch.</desc>
    <defs>
        <path d="M21,16.25 C21.4142136,16.25 21.75,16.5857864 21.75,17 L21.75,18 C21.75,20.0710678 20.0710678,21.75 18,21.75 L17,21.75 C16.5857864,21.75 16.25,21.4142136 16.25,21 C16.25,20.5857864 16.5857864,20.25 17,20.25 L18,20.25 C19.2426407,20.25 20.25,19.2426407 20.25,18 L20.25,17 C20.25,16.5857864 20.5857864,16.25 21,16.25 Z M3,16.25 C3.41421356,16.25 3.75,16.5857864 3.75,17 L3.75,18 C3.75,19.2426407 4.75735931,20.25 6,20.25 L7,20.25 C7.41421356,20.25 7.75,20.5857864 7.75,21 C7.75,21.4142136 7.41421356,21.75 7,21.75 L6,21.75 C3.92893219,21.75 2.25,20.0710678 2.25,18 L2.25,17 C2.25,16.5857864 2.58578644,16.25 3,16.25 Z M8.99479618,15.0052038 C10.6545244,16.6649321 13.3454756,16.6649321 15.0052038,15.0052038 C15.298097,14.7123106 15.7729708,14.7123106 16.065864,15.0052038 C16.3587572,15.298097 16.3587572,15.7729708 16.065864,16.065864 C13.8203493,18.3113787 10.1796507,18.3113787 7.93413601,16.065864 C7.64124279,15.7729708 7.64124279,15.298097 7.93413601,15.0052038 C8.22702923,14.7123106 8.70190296,14.7123106 8.99479618,15.0052038 Z M12,8.25 C12.4142136,8.25 12.75,8.58578644 12.75,9 L12.75,12.5 C12.75,13.4664983 11.9664983,14.25 11,14.25 C10.5857864,14.25 10.25,13.9142136 10.25,13.5 C10.25,13.0857864 10.5857864,12.75 11,12.75 C11.1380712,12.75 11.25,12.6380712 11.25,12.5 L11.25,9 C11.25,8.58578644 11.5857864,8.25 12,8.25 Z M16,8.25 C16.4142136,8.25 16.75,8.58578644 16.75,9 L16.75,11 C16.75,11.4142136 16.4142136,11.75 16,11.75 C15.5857864,11.75 15.25,11.4142136 15.25,11 L15.25,9 C15.25,8.58578644 15.5857864,8.25 16,8.25 Z M8,8.25 C8.41421356,8.25 8.75,8.58578644 8.75,9 L8.75,11 C8.75,11.4142136 8.41421356,11.75 8,11.75 C7.58578644,11.75 7.25,11.4142136 7.25,11 L7.25,9 C7.25,8.58578644 7.58578644,8.25 8,8.25 Z M7,2.25 C7.41421356,2.25 7.75,2.58578644 7.75,3 C7.75,3.41421356 7.41421356,3.75 7,3.75 L6,3.75 C4.75735931,3.75 3.75,4.75735931 3.75,6 L3.75,7 C3.75,7.41421356 3.41421356,7.75 3,7.75 C2.58578644,7.75 2.25,7.41421356 2.25,7 L2.25,6 C2.25,3.92893219 3.92893219,2.25 6,2.25 L7,2.25 Z M18,2.25 C20.0710678,2.25 21.75,3.92893219 21.75,6 L21.75,7 C21.75,7.41421356 21.4142136,7.75 21,7.75 C20.5857864,7.75 20.25,7.41421356 20.25,7 L20.25,6 C20.25,4.75735931 19.2426407,3.75 18,3.75 L17,3.75 C16.5857864,3.75 16.25,3.41421356 16.25,3 C16.25,2.58578644 16.5857864,2.25 17,2.25 L18,2.25 Z" id="path-1"></path>
    </defs>
    <g id="icons-/-24x24-/-face-id" stroke="none" stroke-width="1" fill="none" fill-rule="evenodd">
        <g id="icon">
            <mask id="mask-2" fill="white">
                <use xlink:href="#path-1"></use>
            </mask>
            <use id="shape" fill="#001E3E" fill-rule="nonzero" xlink:href="#path-1"></use>
        </g>
    </g>
</svg>