<svg width="24" height="24" viewBox="0 0 24 24" fill="none" xmlns="http://www.w3.org/2000/svg">
<path d="M21 16.25C21.4142 16.25 21.75 16.5858 21.75 17V18C21.75 20.0711 20.0711 21.75 18 21.75H17C16.5858 21.75 16.25 21.4142 16.25 21C16.25 20.5858 16.5858 20.25 17 20.25H18C19.2426 20.25 20.25 19.2426 20.25 18V17C20.25 16.5858 20.5858 16.25 21 16.25ZM3 16.25C3.41421 16.25 3.75 16.5858 3.75 17V18C3.75 19.2426 4.75736 20.25 6 20.25H7C7.41421 20.25 7.75 20.5858 7.75 21C7.75 21.4142 7.41421 21.75 7 21.75H6C3.92893 21.75 2.25 20.0711 2.25 18V17C2.25 16.5858 2.58579 16.25 3 16.25ZM8.9948 15.0052C10.6545 16.6649 13.3455 16.6649 15.0052 15.0052C15.2981 14.7123 15.773 14.7123 16.0659 15.0052C16.3588 15.2981 16.3588 15.773 16.0659 16.0659C13.8203 18.3114 10.1797 18.3114 7.93414 16.0659C7.64124 15.773 7.64124 15.2981 7.93414 15.0052C8.22703 14.7123 8.7019 14.7123 8.9948 15.0052ZM12 8.25C12.4142 8.25 12.75 8.58579 12.75 9V12.5C12.75 13.4665 11.9665 14.25 11 14.25C10.5858 14.25 10.25 13.9142 10.25 13.5C10.25 13.0858 10.5858 12.75 11 12.75C11.1381 12.75 11.25 12.6381 11.25 12.5V9C11.25 8.58579 11.5858 8.25 12 8.25ZM16 8.25C16.4142 8.25 16.75 8.58579 16.75 9V11C16.75 11.4142 16.4142 11.75 16 11.75C15.5858 11.75 15.25 11.4142 15.25 11V9C15.25 8.58579 15.5858 8.25 16 8.25ZM8 8.25C8.41421 8.25 8.75 8.58579 8.75 9V11C8.75 11.4142 8.41421 11.75 8 11.75C7.58579 11.75 7.25 11.4142 7.25 11V9C7.25 8.58579 7.58579 8.25 8 8.25ZM7 2.25C7.41421 2.25 7.75 2.58579 7.75 3C7.75 3.41421 7.41421 3.75 7 3.75H6C4.75736 3.75 3.75 4.75736 3.75 6V7C3.75 7.41421 3.41421 7.75 3 7.75C2.58579 7.75 2.25 7.41421 2.25 7V6C2.25 3.92893 3.92893 2.25 6 2.25H7ZM18 2.25C20.0711 2.25 21.75 3.92893 21.75 6V7C21.75 7.41421 21.4142 7.75 21 7.75C20.5858 7.75 20.25 7.41421 20.25 7V6C20.25 4.75736 19.2426 3.75 18 3.75H17C16.5858 3.75 16.25 3.41421 16.25 3C16.25 2.58579 16.5858 2.25 17 2.25H18Z" fill="#001E3E"/>
</svg>
