<?xml version="1.0" encoding="UTF-8"?>
<svg width="24px" height="24px" viewBox="0 0 24 24" version="1.1" xmlns="http://www.w3.org/2000/svg" xmlns:xlink="http://www.w3.org/1999/xlink">
    <!-- Generator: Sketch 62 (91390) - https://sketch.com -->
    <title>icons / 24x24 / brands / google-pay colored</title>
    <desc>Created with Sketch.</desc>
    <g id="icons-/-24x24-/-brands-/-google-pay-colored" stroke="none" stroke-width="1" fill="none" fill-rule="evenodd">
        <g id="icon" fill-rule="nonzero">
            <path d="M22.0848544,4.00550353 C22.1538356,4.00608285 22.2228168,4.006807 22.2922328,4.00868979 C22.4425133,4.01274502 22.5943879,4.02157963 22.7433641,4.04837314 C22.8942242,4.0754563 23.0347952,4.11977421 23.172033,4.18958215 C23.3069521,4.25808662 23.4299879,4.34773624 23.5372276,4.4546206 C23.6440326,4.56164979 23.7337371,4.68475507 23.8024284,4.8197364 C23.8724241,4.95674535 23.9167691,5.09723022 23.9435791,5.24828765 C23.9705339,5.3970278 23.979229,5.54866456 23.9832867,5.69899784 L23.9854243,5.80253301 L23.9854243,5.80253301 L23.986475,5.90595956 L23.986475,17.4512082 C23.9860402,17.5201472 23.9851707,17.589231 23.9832867,17.6581699 C23.979229,17.8083584 23.9705339,17.96014 23.9435791,18.1087353 C23.9167691,18.2597927 23.8724241,18.4002776 23.8024284,18.5374313 C23.7337371,18.6722679 23.6440326,18.795518 23.5372276,18.9024023 C23.4299879,19.0094315 23.3069521,19.0990811 23.172033,19.1674408 C23.0347952,19.2373935 22.8942242,19.2817115 22.7433641,19.3089395 C22.5943879,19.3354433 22.4425133,19.3444228 22.2922328,19.348478 C22.2228168,19.3500711 22.1538356,19.3510849 22.0848544,19.3513746 L21.9618911,19.3518815 L21.9618911,19.3518815 L2.02503674,19.3518815 L1.90205528,19.3513746 C1.83292916,19.3510849 1.76394795,19.3500711 1.69482183,19.348478 C1.54425151,19.3444228 1.39237692,19.3354433 1.24369054,19.3089395 C1.09268547,19.2817115 0.952114526,19.2373935 0.81502163,19.1674408 C0.680102507,19.0990811 0.556776867,19.0094315 0.449682098,18.9024023 C0.342732247,18.795518 0.253027697,18.6722679 0.184481247,18.5374313 C0.114630531,18.4002776 0.0702854711,18.2597927 0.0433306308,18.1087353 C0.0163757902,17.96014 0.00753576186,17.8083584 0.00347804394,17.6581699 L0.0013404961,17.5546891 L0.0013404961,17.5546891 L0.000289836995,17.4512082 L0.000289836995,5.90595956 C0.000724592488,5.8370206 0.00159410347,5.76808163 0.00347804394,5.69899784 C0.00753576186,5.54866456 0.0163757902,5.3970278 0.0433306308,5.24828765 C0.0702854711,5.09723022 0.114630531,4.95674535 0.184481247,4.8197364 C0.253027697,4.68475507 0.342732247,4.56164979 0.449682098,4.4546206 C0.556776867,4.34773624 0.680102507,4.25808662 0.81502163,4.18958215 C0.952114526,4.11977421 1.09268547,4.0754563 1.24369054,4.04837314 C1.39237692,4.02157963 1.54425151,4.01274502 1.69482183,4.00868979 L1.79843855,4.00660786 L1.79843855,4.00660786 L1.90205528,4.00550353 L22.0848544,4.00550353 Z M22.0812315,4.51704222 L1.90509857,4.51704222 C1.84003016,4.51747671 1.77438208,4.51820086 1.70887892,4.52008365 C1.59381363,4.52312507 1.45947419,4.52935275 1.33426461,4.55180136 C1.22557573,4.57135338 1.13427708,4.60104348 1.04718106,4.64550621 C0.960085045,4.68982412 0.880814626,4.7471767 0.811688504,4.81640532 C0.742417463,4.88563394 0.684884821,4.96471099 0.640829596,5.05131918 C0.596194701,5.13894118 0.566486406,5.2300391 0.547212247,5.33822693 C0.524460042,5.46422881 0.518228547,5.59819633 0.51504034,5.7129015 L0.513102055,5.81111418 L0.513102055,5.81111418 L0.51214197,5.90943548 L0.51214197,17.4483116 C0.512576726,17.5133402 0.513301318,17.5789481 0.51504034,17.6444111 C0.518228547,17.7589715 0.524460042,17.8927941 0.54692241,18.0177822 C0.566486406,18.1271287 0.596194701,18.2180818 0.640684676,18.3052693 C0.685029736,18.3926016 0.742417463,18.4715338 0.811398669,18.5403279 C0.880959546,18.6099911 0.959795209,18.6673437 1.04645647,18.7112271 C1.13456692,18.7561243 1.22557573,18.7859592 1.33426461,18.8053664 C1.46092338,18.8279599 1.60091464,18.8343323 1.708734,18.837229 L1.80575694,18.8389669 L1.80575694,18.8389669 L1.90451889,18.8398359 L22.0807967,18.8398359 C22.1484736,18.8395462 22.2144116,18.8386773 22.2806393,18.8370841 C22.3859951,18.8343323 22.5258414,18.8279599 22.6536595,18.8052216 C22.761334,18.7859592 22.8523428,18.7561243 22.9392939,18.7118064 C23.0268247,18.6674885 23.1056603,18.6101359 23.1752212,18.5406176 C23.2443474,18.4715338 23.30188,18.3924568 23.346225,18.3052693 C23.39086,18.2179369 23.4204233,18.1272735 23.4396975,18.0192305 C23.4623047,17.8940976 23.4685363,17.7595507 23.4715795,17.6444111 L23.473699,17.5465243 L23.473699,17.5465243 L23.4746228,17.4487461 L23.4746228,5.91001479 C23.474333,5.84324828 23.4734635,5.77807489 23.4715795,5.71304633 C23.4685363,5.59761701 23.4623047,5.46307017 23.4399873,5.33924073 C23.4204233,5.22974944 23.39086,5.13908601 23.3465148,5.05218816 C23.3020249,4.96485582 23.2443474,4.88563394 23.1749314,4.81611566 C23.1058052,4.7471767 23.0266797,4.68953446 22.9401634,4.64565104 C22.8526326,4.60118831 22.761334,4.57135338 22.6526451,4.55180136 C22.5274355,4.52935275 22.3930961,4.52312507 22.2783206,4.52008365 C22.2123827,4.51820086 22.1467346,4.51747671 22.0812315,4.51704222 Z M18.408098,10.5258885 L19.4905099,13.1782417 L19.5032441,13.1782417 L20.5601875,10.5258885 L21.3030191,10.5258885 L19.0193423,15.8435123 L18.3147135,15.8435123 L19.1636639,13.9834204 L17.6652664,10.5258885 L18.408098,10.5258885 Z M15.9164284,10.405327 C16.4215539,10.405327 16.8205607,10.5431116 17.1134486,10.814375 C17.4063365,11.0856384 17.5506581,11.464546 17.5506581,11.9424863 L17.5506581,14.2202376 L16.8969662,14.2202376 L16.8969662,13.7078512 L16.8672529,13.7078512 C16.5828545,14.1298165 16.2093163,14.3407991 15.7381488,14.3407991 C15.3391421,14.3407991 14.9995619,14.2202376 14.7321425,13.9791146 C14.4689679,13.7552147 14.3204015,13.4236705 14.328891,13.0749033 C14.328891,12.6916899 14.4732126,12.3902861 14.757611,12.1620804 C15.0420094,11.9338747 15.4240371,11.8219248 15.8994494,11.8219248 C16.3069456,11.8219248 16.6380363,11.8994286 16.9012109,12.0458247 L16.9012109,11.8865113 C16.9012109,11.649694 16.7993369,11.4257941 16.6210573,11.2707864 C16.4385329,11.1071672 16.2050716,11.0167461 15.9631207,11.0167461 C15.581093,11.0167461 15.2797156,11.1803653 15.0589884,11.5076037 L14.4562336,11.1243903 C14.7788348,10.64645 15.2669813,10.405327 15.9164284,10.405327 Z M12.6776824,8.82080432 C13.1148919,8.81219278 13.5393671,8.98011774 13.849234,9.29013305 C14.4689679,9.87571752 14.5071706,10.8617384 13.9256396,11.4946864 L13.849234,11.5721902 L13.849234,11.5721902 C13.5308776,11.8778997 13.1403604,12.0329074 12.6776824,12.0329074 L11.5485783,12.0329074 L11.5485783,14.2202376 L10.8651731,14.2202376 L10.8651731,8.82080432 L12.6776824,8.82080432 Z M16.0055682,12.3816746 C15.7296593,12.3816746 15.4961979,12.4505669 15.3094288,12.5840457 C15.1269045,12.7175245 15.0335199,12.8854495 15.0335199,13.0878206 C15.0335199,13.2686629 15.118415,13.4365878 15.2584918,13.5399263 C15.4113029,13.6604878 15.598072,13.7250743 15.7890858,13.7207685 C16.077729,13.7207685 16.3536379,13.6045128 16.557386,13.3978359 C16.7823579,13.1825475 16.8969662,12.9285072 16.8969662,12.6357149 C16.6847286,12.4634842 16.3875959,12.3773688 16.0055682,12.3816746 Z M12.6946614,9.48389262 L11.5485783,9.48389262 L11.5485783,11.3698191 L12.6946614,11.3698191 C12.9493465,11.3784306 13.1955422,11.2750922 13.369577,11.0899442 C13.7261362,10.7153423 13.7176467,10.1125348 13.3483532,9.75085025 C13.1743184,9.57861952 12.940857,9.48389262 12.6946614,9.48389262 Z" id="Combined-Shape" fill="#3C4043"></path>
            <g id="Super-G" transform="translate(2.753451, 8.347170)">
                <path d="M6.03179305,3.21210307 C6.03179305,3.00112043 6.01481404,2.79013779 5.98085602,2.58346092 L3.0986692,2.58346092 L3.0986692,3.77615871 L4.74987786,3.77615871 C4.68196182,4.15937208 4.4612347,4.50383353 4.13863352,4.71912194 L4.13863352,5.49416022 L5.12341606,5.49416022 C5.70070238,4.95593919 6.03179305,4.15937208 6.03179305,3.21210307 Z" id="Path" fill="#4285F4"></path>
                <path d="M3.0986692,6.2433639 C3.92215115,6.2433639 4.61829053,5.96779471 5.12341606,5.49416022 L4.13863352,4.71912194 C3.86272462,4.90857574 3.51041018,5.01621995 3.0986692,5.01621995 C2.30065576,5.01621995 1.62574014,4.46938738 1.38378926,3.73740679 L0.369293453,3.73740679 L0.369293453,4.53827968 C0.887153235,5.58458135 1.94409656,6.2433639 3.0986692,6.2433639 Z" id="Path" fill="#34A853"></path>
                <path d="M1.38378926,3.73740679 C1.25644669,3.35419342 1.25644669,2.93653391 1.38378926,2.54901477 L1.38378926,1.75244765 L0.369293453,1.75244765 C-0.0679160375,2.6265186 -0.0679160375,3.65990297 0.369293453,4.53397391 L1.38378926,3.73740679 Z" id="Path" fill="#FBBC04"></path>
                <path d="M3.0986692,1.27020162 C3.53587869,1.26159008 3.95610917,1.42951504 4.27022084,1.73522458 L5.14463982,0.848236337 C4.58857727,0.322932614 3.85847987,0.0344461455 3.0986692,0.0430576819 C1.94409656,0.0430576819 0.887153235,0.706145986 0.369293453,1.75244765 L1.38378926,2.55332054 C1.62574014,1.81703418 2.30065576,1.27020162 3.0986692,1.27020162 Z" id="Path" fill="#EA4335"></path>
            </g>
        </g>
    </g>
</svg>