<svg width="24" height="24" viewBox="0 0 24 24" fill="none" xmlns="http://www.w3.org/2000/svg">
<path d="M14 2C15.6569 2 17 3.34315 17 5V9H15V5C15 4.44772 14.5523 4 14 4H8C7.44772 4 7 4.44772 7 5V19C7 19.5523 7.44772 20 8 20H14C14.5523 20 15 19.5523 15 19V13H11.5V11H20.5L18 8H20.5L24 12L20.5 16H18L20.5 13H17V19C17 20.6569 15.6569 22 14 22H8C6.34315 22 5 20.6569 5 19V5C5 3.34315 6.34315 2 8 2H14ZM11 17C11.5523 17 12 17.4477 12 18C12 18.5523 11.5523 19 11 19C10.4477 19 10 18.5523 10 18C10 17.4477 10.4477 17 11 17Z" fill="#001E3E"/>
</svg>
