<?xml version="1.0" encoding="UTF-8"?>
<svg width="24px" height="24px" viewBox="0 0 24 24" version="1.1" xmlns="http://www.w3.org/2000/svg" xmlns:xlink="http://www.w3.org/1999/xlink">
    <!-- Generator: Sketch 62 (91390) - https://sketch.com -->
    <title>icons / 24x24 / brands / paypal colored</title>
    <desc>Created with Sketch.</desc>
    <g id="icons-/-24x24-/-brands-/-paypal-colored" stroke="none" stroke-width="1" fill="none" fill-rule="evenodd">
        <g id="icon">
            <path d="M16.8805329,5.27811808 C16.1178082,4.38333182 14.7399396,4 12.9770191,4 L7.859485,4 C7.49925353,4 7.19252012,4.26988632 7.13633877,4.63629629 L5.00547236,18.5489967 C4.96337827,18.8235452 5.16948836,19.0716748 5.43932655,19.0716748 L8.59856324,19.0716748 L8.38054606,20.4953554 C8.34381855,20.7355422 8.52393429,20.9527635 8.76006367,20.9527635 L11.422892,20.9527635 C11.7381784,20.9527635 12.0065072,20.7165482 12.0556449,20.396069 L12.081807,20.2567227 L12.5834143,16.9814804 L12.6157814,16.8005201 C12.6649192,16.4798682 12.933248,16.2438256 13.2483666,16.2438256 L13.6466673,16.2438256 C16.2264814,16.2438256 18.2464944,15.1646257 18.8366502,12.0437521 C19.083345,10.7397332 18.9558888,9.65120896 18.303682,8.88592669 C18.1062926,8.65454622 17.8609394,8.46305298 17.5746661,8.3069575 C17.7755773,6.98826149 17.5733245,6.09088515 16.8805329,5.27811808 Z" id="Fill-8" fill="#009CDE"></path>
            <path d="M16.8805312,5.27823844 C16.1178066,4.38336792 14.7399382,4 12.977018,4 L7.85948458,4 C7.49925316,4 7.1925198,4.26991174 7.13633846,4.63635621 L5.00547236,18.5503667 C4.96337828,18.824941 5.16948834,19.073094 5.43932649,19.073094 L8.59856272,19.073094 L9.39214516,13.8914104 L9.36749245,14.05391 C9.42367379,13.6874655 9.72789157,13.4173811 10.088123,13.4173811 L11.5897581,13.4173811 C14.5386916,13.4173811 16.8476609,12.1836962 17.5223401,8.61595697 C17.5422971,8.51044444 17.5594031,8.40804031 17.5746643,8.30736306 C17.7755754,6.98854288 17.5733226,6.09108204 16.8805312,5.27823844 Z" id="Fill-9" fill="#012169"></path>
            <path d="M10.6007987,7.83264305 C10.6849869,7.79119788 10.7789019,7.76805765 10.8773451,7.76805765 L14.8886929,7.76805765 C15.3639704,7.76805765 15.8070483,7.80017767 16.2120571,7.8673534 C16.3279416,7.88652179 16.440472,7.90862589 16.5499837,7.93366568 C16.6593276,7.95853279 16.7656529,7.98650829 16.8684564,8.01759217 C16.919942,8.03296143 16.9704214,8.04919413 17.0202299,8.06629026 C17.2191286,8.13415675 17.4042755,8.21445678 17.5746643,8.30736306 C17.7755754,6.98854288 17.5733226,6.09108204 16.8805312,5.27823844 C16.1178066,4.38336792 14.7399382,4 12.977018,4 L7.85948458,4 C7.49925316,4 7.1925198,4.26991174 7.13633846,4.63635621 L5.00547236,18.5503667 C4.96337828,18.824941 5.16948834,19.073094 5.43932649,19.073094 L8.59856272,19.073094 L10.2445922,8.32497726 C10.2784687,8.10445437 10.4158195,7.92399514 10.6007987,7.83264305 Z" id="Fill-10" fill="#003087"></path>
        </g>
    </g>
</svg>