<?xml version="1.0" encoding="UTF-8"?>
<svg width="24px" height="24px" viewBox="0 0 24 24" version="1.1" xmlns="http://www.w3.org/2000/svg" xmlns:xlink="http://www.w3.org/1999/xlink">
    <!-- Generator: Sketch 62 (91390) - https://sketch.com -->
    <title>icons / 24x24 / tipping</title>
    <desc>Created with Sketch.</desc>
    <g id="icons-/-24x24-/-tipping" stroke="none" stroke-width="1" fill="none" fill-rule="evenodd">
        <g id="icon" fill="#001E3E" fill-rule="nonzero">
            <path d="M16.1869236,6 C19.5916628,6 22.3657064,8.67827763 22.3657064,12 C22.3657064,15.3217224 19.5916628,18 16.1869236,18 C15.4907918,18 14.8098554,17.8877843 14.1662017,17.6715718 C13.5503509,17.884112 12.8886113,18 12.1997993,18 C11.3756716,18 10.573094,17.8334608 9.83068698,17.5146925 L10.0980378,17.6229682 C9.44498196,17.86674 8.73805326,18 8,18 C4.6862915,18 2,15.3137085 2,12 C2,8.6862915 4.6862915,6 8,6 C8.73880637,6 9.44642464,6.13353214 10.1000367,6.37777834 C10.7643921,6.12935664 11.4735354,6 12.1997993,6 C12.8889863,6 13.5510714,6.11601421 14.1675526,6.32956777 C14.811125,6.11187655 15.4917387,6 16.1869236,6 Z M8,8 C5.790861,8 4,9.790861 4,12 C4,14.209139 5.790861,16 8,16 C10.209139,16 12,14.209139 12,12 C12,9.790861 10.209139,8 8,8 Z M12.4817611,8.00975914 L12.5283011,8.06355929 C13.4449811,9.11716934 14,10.4937689 14,12 C14,13.5318178 13.4259645,14.9295623 12.4812736,15.9898537 C14.5622292,15.8457272 16.2047023,14.1142612 16.2047023,12 C16.2047023,9.88573884 14.5622292,8.15427283 12.4817611,8.00975914 Z M16.7027951,8.0301298 L16.7317266,8.06347022 C17.6491845,9.11706048 18.2047023,10.4936691 18.2047023,12 C18.2047023,13.5217805 17.6377308,14.911164 16.7033832,15.9688458 C18.7730958,15.7262215 20.3657064,14.0350272 20.3657064,12 C20.3657064,9.96497284 18.7730958,8.27377848 16.7027951,8.0301298 Z" id="Shape"></path>
        </g>
    </g>
</svg>