<?xml version="1.0" encoding="UTF-8"?>
<svg width="24px" height="24px" viewBox="0 0 24 24" version="1.1" xmlns="http://www.w3.org/2000/svg" xmlns:xlink="http://www.w3.org/1999/xlink">
    <!-- Generator: Sketch 62 (91390) - https://sketch.com -->
    <title>icons / 24x24 / touch-id</title>
    <desc>Created with Sketch.</desc>
    <defs>
        <path d="M13.8965,19.315 C13.741,20.03 13.506,20.882 13.149,21.7655 C13.09,21.9115 12.9495,22 12.801,22 C12.7545,22 12.707,21.991 12.6605,21.973 C12.4685,21.895 12.376,21.6765 12.4535,21.4845 C12.7455,20.7625 12.951,20.057 13.0975,19.437 C13.3675,19.4075 13.6335,19.3655 13.8965,19.315 Z M11.0815,20.5065 C11.147,20.3105 11.358,20.2035 11.556,20.2695 C11.7525,20.3345 11.8585,20.547 11.793,20.7435 L11.793,20.7435 L11.4595,21.7435 C11.4075,21.9005 11.261,22 11.104,22 C11.065,22 11.025,21.994 10.985,21.981 C10.789,21.9155 10.6825,21.703 10.748,21.5065 L10.748,21.5065 Z M15.754,12.765 C15.8095,13.243 15.856,13.809 15.875,14.4895 C15.8865,14.9055 15.883,15.315 15.874,15.721 C15.847,16.7955 15.7465,17.834 15.5715,18.8315 L15.5715,18.8315 L15.463984,19.395984 C15.3104,20.14224 15.1156,20.8652 14.876,21.56 C14.8225,21.715 14.677,21.8125 14.5215,21.8125 C14.481,21.8125 14.4395,21.806 14.399,21.792 C14.2035,21.7245 14.0995,21.511 14.167,21.315 C14.411,20.608 14.606,19.8695 14.7575,19.1065 C14.8498333,19.08 14.9414444,19.052 15.0324259,19.0226667 L14.7575,19.106 C14.955,18.114 15.0735,17.076 15.114,15.999 L15.114,15.999 L15.1291852,15.5078704 C15.1355556,15.1789444 15.1353333,14.8468333 15.126,14.5105 C15.11,13.937 15.0735,13.4505 15.029,13.0305 C15.2755,12.952 15.516,12.8615 15.754,12.765 Z M10.243,13.3365 C10.496,13.381 10.75,13.4245 11.009,13.45 C11.09,14.2475 11.1585,15.265 11.07,16.4535 L11.07,16.4535 L11.0410029,16.7904277 C10.9631484,17.5890156 10.8119375,18.4575625 10.5455,19.382 C10.5036667,19.3759167 10.4619028,19.3697083 10.4202153,19.363331 L10.5455,19.382 C10.353,20.0505 10.102,20.747 9.774,21.4675 C9.7115,21.6055 9.575,21.687 9.4325,21.687 C9.3805,21.687 9.328,21.6765 9.2775,21.6535 C9.089,21.568 9.006,21.3455 9.0915,21.157 C9.3905,20.5 9.622,19.8625 9.8015,19.2495 L9.8015,19.2495 L9.90967383,18.8602969 C10.1457187,17.96025 10.2693125,17.117625 10.324,16.3485 L10.324,16.3485 L10.3448845,15.9920445 C10.3933,14.93814 10.31815,14.0385 10.243,13.3365 Z M9.5895,9.695 C9.635,9.7015 9.682,9.712 9.723,9.7295 C9.749,9.742 9.776,9.75 9.7995,9.7685 C9.9615,9.897 9.9895,10.133 9.861,10.295 C9.461,10.8005 9.25,11.4115 9.25,12.0625 C9.25,12.347 9.29,12.712 9.337,13.1305 L9.337,13.1305 L9.34025,13.16325 L9.34025,13.16325 L9.344,13.1965 C9.436,14.007 9.547,15.0095 9.494,16.1705 C9.2425,16.1055 8.9945,16.033 8.751,15.9495 L8.84003056,15.9797958 C9.05502944,16.050818 9.27341236,16.1134205 9.4945,16.171 C9.455,17.043 9.3215,18.005 9.0155,19.0465 C9.01516388,19.0463954 9.01482777,19.0462908 9.01449167,19.0461861 C8.83924568,19.6431887 8.60983158,20.2643576 8.306,20.9095 C8.242,21.0455 8.107,21.125 7.9665,21.125 C7.913,21.125 7.8585,21.1135 7.807,21.0895 C7.6195,21.0015 7.5395,20.778 7.6275,20.5905 C7.9215,19.966 8.141,19.365 8.307,18.787 C8.30733191,18.7871318 8.30766382,18.7872635 8.30799573,18.7873953 C8.60407918,17.7578773 8.72500867,16.8067196 8.7515,15.95 L8.7515,15.95 C8.783,14.914 8.6815,14.0155 8.5985,13.2805 C8.582,13.1365 8.57,13.01 8.556,12.878 C8.55633075,12.8781214 8.5566615,12.8782429 8.55699227,12.8783643 C8.52544208,12.5788648 8.5,12.2997301 8.5,12.0625 C8.5,11.2525 8.7745,10.4595 9.2725,9.8295 C9.352,9.73 9.4715,9.688 9.5895,9.695 Z M16.485,10.395 C16.6805,10.328 16.8945,10.4325 16.961,10.629 C17.0725,10.956 17.167,11.308 17.242,11.6745 C17.261,11.767 17.2795,11.8685 17.2975,11.9705 L17.2975,11.9705 L17.3406077,12.2276056 C17.4525802,12.9361543 17.5394444,13.8245 17.571,14.8045 C17.602,15.7675 17.5775,16.815 17.4685,17.867 C17.367,18.844 17.1945,19.822 16.9215,20.7325 C16.873,20.8955 16.7235,21 16.5625,21 C16.527,21 16.4905,20.995 16.455,20.9845 C16.2565,20.9245 16.144,20.7155 16.2035,20.5175 C16.4095,19.8295 16.554,19.0935 16.653,18.3475 L16.653,18.3475 L16.7155162,17.8253218 C16.8066389,16.9529722 16.83775,16.07825 16.8265,15.257 L16.8265,15.257 L16.818786,14.8908697 C16.7911481,13.9257778 16.7083333,13.0546667 16.603,12.372 C16.6823333,12.3306667 16.7608333,12.2880556 16.8386111,12.2443519 L16.603,12.372 C16.5725,12.175 16.541,11.9885 16.5075,11.8255 C16.4385,11.4895 16.3525,11.1685 16.251,10.871 C16.184,10.675 16.289,10.462 16.485,10.395 Z M7.19014577,17.8125029 L7.268,17.8215 C7.47,17.8655 7.598,18.0655 7.554,18.268 L7.554,18.268 L7.537,18.3405 C7.53,18.367 7.52,18.3995 7.5125,18.428 C7.345,19.0495 6.929,20.0935 6.9105,20.14 C6.852,20.2865 6.711,20.3755 6.5625,20.3755 C6.5165,20.3755 6.469,20.367 6.4235,20.3485 C6.231,20.2715 6.1375,20.053 6.2145,19.861 C6.219,19.8495 6.6715,18.7155 6.809,18.16 L6.809,18.16 L6.8215,18.1075 C6.826,18.0885 6.8375,18.074 6.844,18.0565 C6.909,17.886 7.0845,17.78 7.268,17.8215 Z M15.0575,6.4 C15.1685,6.2245 15.4,6.1725 15.575,6.283 C16.398,6.8025 17.083,7.486 17.608,8.28 C18.0235,8.9055 18.3415,9.5985 18.5335,10.344 C18.571,10.48 18.6205,10.68 18.675,10.9315 C18.6746713,10.9317944 18.6743427,10.9320888 18.674014,10.9323831 C18.8008276,11.5154416 18.951098,12.4062994 19.041,13.5985 C19.1035,14.4305 19.136,15.4065 19.108,16.5295 C18.9627519,16.6762242 18.8131461,16.8189392 18.6591826,16.9569247 L18.8583333,16.7744259 L18.8583333,16.7744259 L19.1085,16.53 C19.0885,17.37 19.0355,18.2875 18.9355,19.288 C18.9165,19.481 18.753,19.6255 18.563,19.6255 C18.5505,19.6255 18.5375,19.625 18.525,19.6235 C18.319,19.603 18.1685,19.419 18.1895,19.213 C18.2595,18.512 18.3045,17.8565 18.333,17.2375 L18.333,17.2375 L18.3514665,16.7570306 C18.3820612,15.8142959 18.3695714,14.9747857 18.331,14.2385 L18.331,14.2385 L18.3108575,13.8871765 C18.24347,12.857905 18.1289,12.0511 18.02,11.4715 L18.02,11.4715 L17.9868469,11.300102 C17.9212143,10.9711429 17.8603571,10.7255714 17.8175,10.57 C17.6395,9.8775 17.3475,9.2415 16.967,8.6715 L16.967,8.6715 C16.4995,7.972 15.8965,7.3735 15.1745,6.9175 C14.9995,6.8065 14.947,6.575 15.0575,6.4 Z M13.8345,17.0005 C14.0415,17.013 14.199,17.1905 14.1865,17.3965 C14.1835,17.4485 14.1335,18.2205 13.896,19.3145 C13.633,19.365 13.367,19.407 13.097,19.4365 C13.38,18.239 13.437,17.3655 13.438,17.3525 C13.4505,17.146 13.621,16.986 13.8345,17.0005 Z M5.438,14.034 C5.705,14.2665 5.9815,14.4865 6.272,14.69 C6.3425,15.4625 6.3355,16.3445 6.0775,17.5445 L6.077,17.543 C6,17.9077 5.90024,18.29842 5.771552,18.725364 L5.6695,19.0525 C5.618,19.2115 5.471,19.3125 5.3125,19.3125 C5.2745,19.3125 5.236,19.3065 5.1975,19.2945 C5.0005,19.231 4.892,19.02 4.9555,18.8225 C5.1785,18.13 5.325,17.5395 5.419,17.0165 L5.419,17.017 C5.62795833,15.8523333 5.57062847,15.033941 5.46718837,14.2478293 Z M11.99,11.757 C12.195,11.717 12.391,11.85 12.43,12.0525 C12.4405,12.105 12.5395,12.632 12.611,13.469 C12.6106672,13.4690205 12.6103344,13.469041 12.6100017,13.4690615 C12.677034,14.2428607 12.7179685,15.2804923 12.642,16.4675 C12.591,17.2635 12.4885,18.1235 12.3045,19.0135 C12.268,19.1905 12.112,19.3125 11.938,19.3125 C11.9125,19.3125 11.887,19.31 11.8615,19.3045 C11.6585,19.2625 11.528,19.0645 11.57,18.8615 C11.7405,18.0385 11.836,17.2395 11.8855,16.494 L11.8855,16.494 L11.9061675,16.141268 C11.956365,15.09554 11.91645,14.17925 11.8575,13.493 L11.8575,13.493 L11.8413266,13.3145567 C11.7753757,12.6251657 11.6968077,12.2080769 11.6945,12.197 C11.6545,11.994 11.787,11.797 11.99,11.757 Z M4.0215,9.5105 C4.2045,9.7535 4.3985,9.987 4.6025,10.212 C4.454,10.8115 4.375,11.4325 4.375,12.0625 C4.375,12.405 4.3925,12.714 4.418,13.0085 L4.418,13.0085 L4.45353704,13.387537 C4.48027778,13.6350556 4.51116667,13.8725 4.5425,14.1055 C4.6365,14.8015 4.7235,15.4755 4.679,16.296 C4.63692491,16.2507065 4.59528117,16.2050433 4.55406876,16.1590084 L4.6795,16.2965 C4.6575,16.7185 4.6025,17.1765 4.492,17.702 C4.455,17.879 4.299,18 4.1255,18 C4.1,18 4.0735,17.9975 4.048,17.992 C3.845,17.9495 3.7155,17.7505 3.758,17.548 C3.941,16.6795 3.9665,16.0105 3.928,15.3855 C4.02232783,15.5144417 4.11952384,15.6410069 4.21958803,15.7651293 L4.16633333,15.6988519 L4.16633333,15.6988519 L3.9275,15.385 C3.903,14.987 3.853,14.606 3.799,14.205 C3.713,13.5665 3.6245,12.9065 3.6245,12.062 C3.6245,12.028 3.627,11.994 3.6275,11.9595 C3.74202381,12.1345 3.86187642,12.305305 3.98678787,12.4720769 L3.87640741,12.3213889 L3.87640741,12.3213889 L3.6285,11.96 C3.6385,11.12 3.7735,10.295 4.0215,9.5105 Z M20.3965,14.938 C20.611,14.927 20.7775,15.0915 20.7855,15.2985 C20.8025,15.756 20.8125,16.2405 20.8125,16.7495 C20.8125,16.9565 20.6445,17.1245 20.4375,17.1245 C20.2305,17.1245 20.0625,16.9565 20.0625,16.7495 C20.0625,16.287 20.0535,15.8485 20.039,15.4295 C20.0375,15.396 20.0375,15.36 20.036,15.3265 C20.0285,15.1245 20.183,14.956 20.3835,14.941 C20.388,14.941 20.392,14.938 20.3965,14.938 Z M12,6.875 C13.5685,6.875 15.03,7.5875 16.009,8.8305 C16.077,8.9165 16.098,9.0225 16.0815,9.123 C16.067,9.212 16.023,9.2965 15.9465,9.357 C15.811,9.463 15.629,9.456 15.496,9.359 C15.469,9.3395 15.441,9.3215 15.4195,9.2945 C14.5835,8.2335 13.3375,7.625 12,7.625 C10.5865,7.625 9.3315,8.311 8.531,9.369 C8.53066319,9.36887569 8.5303264,9.36875137 8.52998961,9.36862704 C7.96520294,10.1178133 7.625,11.0494422 7.625,12.0625 C7.625,12.2175 7.6305,12.355 7.6385,12.488 L7.6385,12.488 L7.6557963,12.7273889 C7.66938889,12.8851667 7.68683333,13.0418333 7.7065,13.2125 C7.7675,13.7445 7.8405,14.3935 7.8655,15.597 C7.77916667,15.5578333 7.69333333,15.5177778 7.60812963,15.4766296 L7.8655,15.5975 C7.8705,15.836 7.8745,16.088 7.87500112,16.374 C7.8755,16.5815 7.708,16.7495 7.501,16.75 L7.501,16.75 C7.293,16.75 7.125,16.583 7.125,16.376 C7.1235,15.928 7.1165,15.548 7.1055,15.2155 L7.1055,15.2155 L7.0954605,14.9495635 C7.062795,14.185855 7.0083,13.70755 6.9615,13.2985 C6.9155,12.8985 6.8765,12.5515 6.8755,12.0755 L6.8755,12.0755 L6.875,12.0625 C6.875,10.9495 7.226,9.92 7.8175,9.0745 L7.8175,9.0745 L7.96135287,8.87870794 C8.90015,7.6610775 10.359825,6.875 12,6.875 Z M14.166,13.2585 C14.2505,13.9535 14.309,14.733 14.3125,15.436 C14.3135,15.643 14.1465,15.8115 13.9375,15.8125 C13.731,15.8125 13.5635,15.6455 13.5625,15.439 C13.559,14.743 13.501,14.017 13.425,13.3875 C13.6745,13.3515 13.9225,13.3125 14.166,13.2585 Z M2.75713994,9.06342566 L2.8335,9.0765 C3.033,9.132 3.15,9.339 3.0935,9.5385 C2.999,9.878 2.9285,10.224 2.8725,10.573 L2.872,10.57 C2.814125,10.941625 2.774375,11.3139063 2.75817969,11.6885781 L2.75,12.064 C2.75,12.593 2.776,13.06 2.829,13.4815 L2.829,13.4815 L2.86825219,13.7546487 C2.95388776,14.2870918 3.08864286,14.7440714 3.2785,15.1555 C3.365,15.344 3.283,15.5665 3.095,15.6535 C3.044,15.677 2.9905,15.688 2.938,15.688 C2.796,15.688 2.6605,15.607 2.597,15.47 C2.184,14.575 2,13.5245 2,12.064 C2,11.6235 2.0305,11.185 2.087,10.7515 L2.087,10.754 C2.133,10.392125 2.1975,10.036625 2.28147656,9.68576563 L2.372,9.3365 C2.378,9.3155 2.3915,9.3 2.4005,9.281 L2.399,9.281 C2.46557143,9.14214286 2.60571429,9.05397959 2.75713994,9.06342566 Z M12,5.25 C12.5835,5.25 13.1625,5.325 13.721,5.4735 C13.9215,5.5265 14.04,5.7315 13.9875,5.932 C13.935,6.1325 13.7305,6.252 13.529,6.1985 C13.0325,6.0665 12.5185,6 12,6 C11.337,6 10.701,6.1135 10.104,6.315 C9.97690299,6.29070896 9.85069013,6.26401103 9.72539223,6.23493701 L10.1045,6.315 C8.842,6.741 7.7635,7.5765 7.0305,8.6695 C6.8135,8.545 6.5975,8.4185 6.391,8.2785 L6.81403704,8.54401852 L6.81403704,8.54401852 L7.0305,8.6695 C6.4775,9.494 6.1225,10.463 6.028,11.507 L6.028,11.507 L5.79581481,11.3283148 L5.79581481,11.3283148 L6.028,11.507 C6.0115,11.6905 6,11.875 6,12.0625 C6,12.6655 6.073,13.1755 6.1505,13.7145 C6.1955,14.031 6.241,14.35 6.272,14.6895 C5.9815,14.486 5.7045,14.266 5.438,14.0335 C5.4285,13.9625 5.418,13.8915 5.408,13.8205 C5.3305,13.279 5.25,12.7185 5.25,12.062 C5.25,11.683 5.2885,11.314 5.348,10.9515 L5.348,10.952 C5.48977778,10.0848333 5.78918519,9.27110494 6.22234294,8.54613374 L6.391,8.2785 L6.391,8.2785 L6.56995567,8.02215627 C7.18550413,7.18247934 7.98918182,6.49272727 8.916,6.01 C9.0348976,6.0484533 9.15474154,6.08473002 9.27550271,6.11880104 L8.9155,6.01 C9.8415,5.5275 10.8885,5.25 12,5.25 Z M12,3.625 C13.8,3.625 15.495,4.213 16.886,5.2205 C17.6535,5.777 18.329,6.46 18.875,7.249 C19.3475,7.9315 19.7195,8.692 19.9775,9.5115 C20.012,9.621 20.051,9.728 20.0815,9.84 C20.144,10.07 20.31,10.739 20.4685,11.801 C20.5375,12.2625 20.605,12.791 20.662,13.403 C20.6815,13.609 20.53,13.792 20.3235,13.811 C20.312,13.812 20.3,13.8125 20.2885,13.8125 C20.097,13.8125 19.9335,13.6665 19.9155,13.472 C19.89,13.2005 19.8625,12.946 19.8335,12.7045 L19.8335,12.7045 L19.8023667,12.453297 C19.6552422,11.3081489 19.4850333,10.5439667 19.4015,10.2075 L19.4015,10.2075 L19.3841111,10.1396481 C19.3736667,10.0981667 19.365,10.0648333 19.359,10.0435 C19.1335,9.2095 18.776,8.439 18.313,7.752 C17.7325,6.8905 16.986,6.16 16.126,5.6015 L16.126,5.6015 L15.8655907,5.43931815 C14.7207474,4.7591301 13.3937857,4.375 12,4.375 C11.032,4.375 10.0895,4.555 9.1975,4.911 C9.005,4.987 8.787,4.894 8.71,4.7015 C8.6335,4.509 8.727,4.2905 8.9195,4.214 C9.9005,3.823 10.937,3.625 12,3.625 Z M12,10.125 C13.0485,10.125 13.514,10.814 13.773,11.331 C13.904,11.5925 14.0565,12.353 14.166,13.257 C13.9225,13.311 13.6745,13.3505 13.425,13.386 C13.3195,12.511 13.1795,11.822 13.102,11.667 C12.817,11.0965 12.508,10.8745 12,10.8745 C11.3795,10.8745 10.875,11.407 10.875,12.062 C10.875,12.2435 10.9065,12.519 10.946,12.868 C10.966,13.045 10.988,13.2415 11.009,13.4495 C10.7495,13.424 10.496,13.381 10.243,13.336 C10.2285,13.202 10.214,13.0725 10.2005,12.953 C10.1585,12.5805 10.125,12.2865 10.125,12.0625 C10.125,10.994 10.966,10.125 12,10.125 Z M12,8.5 C13.0135,8.5 13.9545,8.9365 14.618,9.642 L14.618,9.642 C14.981,10.0285 15.2635,10.4925 15.421,11.017 C15.483,11.214 15.639,11.7885 15.753,12.765 C15.5155,12.8615 15.2745,12.952 15.028,13.0305 C14.916,11.9685 14.75,11.382 14.707,11.2455 C14.5365,10.68 14.1775,10.1945 13.715,9.8425 L13.715,9.8425 L13.5488834,9.72460082 C13.0939259,9.42540741 12.5564444,9.25 12,9.25 C11.699,9.25 11.404,9.2995 11.1215,9.396 L11.1215,9.396 L11.0655,9.416 C10.872,9.487 10.656,9.387 10.585,9.192 C10.514,8.9975 10.6145,8.7825 10.809,8.7115 L10.809,8.7115 L10.88,8.6865 C11.2385,8.563 11.616,8.5 12,8.5 Z M13.7426699,2.16041699 L13.8185,2.1675 C15.515,2.4815 17.0405,3.2215 18.306,4.258 L18.306,4.258 C18.9335,4.772 19.494,5.3605 19.9795,6.009 C20.3875,6.5535 20.7465,7.136 21.0385,7.7565 L21.0385,7.7565 L21.2018672,8.12439063 C21.3576562,8.4956875 21.490875,8.878375 21.603,9.2695 C21.743,9.7595 21.8435,10.264 21.909,10.779 C21.963,11.201 22,11.6285 22,12.064 L22,12.064 L22,12.125 C22,12.332 21.832,12.5 21.625,12.5 C21.597,12.5 21.5725,12.49 21.546,12.484 C21.378,12.447 21.2495,12.304 21.2495,12.125 L21.2495,12.125 L21.2495,12.064 C21.2495,11.558 21.204,11.0615 21.126,10.575 L21.126,10.575 L21.05194,10.169088 C20.94082,9.63192 20.7833,9.1112 20.5845,8.61 C20.749,8.334 20.9005,8.0495 21.0385,7.757 L20.7446481,8.33068519 L20.7446481,8.33068519 L20.5845,8.6095 C20.3015,7.8955 19.935,7.2235 19.4925,6.607 C18.9825,5.897 18.3735,5.2635 17.684,4.722 L17.684,4.722 C16.5435,3.8255 15.186,3.183 13.682,2.905 C13.4785,2.867 13.3435,2.6715 13.3815,2.468 C13.4185,2.264 13.6145,2.127 13.8185,2.1675 Z M7.1325,5.1955 C7.3015,5.075 7.5355,5.113 7.656,5.2805 C7.7095,5.355 7.727,5.4425 7.7215,5.528 C7.7135,5.6345 7.665,5.7365 7.5715,5.804 C6.825,6.342 6.1915,7.005 5.6895,7.7535 C5.62433333,7.7005 5.56038889,7.64616667 5.49733333,7.59087037 L5.689,7.7535 C5.1875,8.501 4.8195,9.3335 4.6025,10.2115 C4.3985,9.9865 4.205,9.753 4.0215,9.51 C4.276,8.7055 4.649,7.944 5.1265,7.2505 L5.1265,7.2505 L5.33370898,6.96306641 C5.83014844,6.30219531 6.424875,5.7111875 7.1065,5.2155 L7.1065,5.2155 Z M4.0205,6.01 C4.1755,6.2155 4.3365,6.4145 4.5065,6.607 C4.225,6.9995 3.968,7.4145 3.7455,7.856 C3.676,7.994 3.524,8.088 3.3745,8.088 C3.324,8.088 3.2735,8.0775 3.227,8.054 C3.042,7.961 2.9515,7.7675 3.044,7.5825 L3.044,7.5825 L3.0595,7.552 C3.3365,7.002 3.662,6.4895 4.0205,6.01 Z M11.875,2.002 C12.08,2.002 12.2475,2.1665 12.25004,2.372 C12.253,2.5795 12.087,2.7495 11.88,2.752 C9.8165,2.7785 7.8765,3.4915 6.3125,4.7205 C5.6315,5.2555 5.0225,5.888 4.5075,6.607 C4.3375,6.4145 4.1765,6.215 4.0215,6.01 C4.5125,5.354 5.073,4.766 5.6935,4.257 L5.6935,4.257 L5.9681802,4.03919507 C7.64061219,2.76243767 9.69273684,2.02994737 11.875,2.002 Z" id="path-1"></path>
    </defs>
    <g id="icons-/-24x24-/-touch-id" stroke="none" stroke-width="1" fill="none" fill-rule="evenodd">
        <g id="icon">
            <mask id="mask-2" fill="white">
                <use xlink:href="#path-1"></use>
            </mask>
            <use id="shape" fill="#001E3E" fill-rule="nonzero" xlink:href="#path-1"></use>
        </g>
    </g>
</svg>