<svg width="24" height="24" viewBox="0 0 24 24" fill="none" xmlns="http://www.w3.org/2000/svg">
<path d="M13.8965 19.315C13.741 20.03 13.506 20.882 13.149 21.7655C13.09 21.9115 12.9495 22 12.801 22C12.7545 22 12.707 21.991 12.6605 21.973C12.4685 21.895 12.376 21.6765 12.4535 21.4845C12.7455 20.7625 12.951 20.057 13.0975 19.437C13.3675 19.4075 13.6335 19.3655 13.8965 19.315ZM11.0815 20.5065C11.147 20.3105 11.358 20.2035 11.556 20.2695C11.7525 20.3345 11.8585 20.547 11.793 20.7435L11.4595 21.7435C11.4075 21.9005 11.261 22 11.104 22C11.065 22 11.025 21.994 10.985 21.981C10.789 21.9155 10.6825 21.703 10.748 21.5065L11.0815 20.5065ZM15.754 12.765C15.8095 13.243 15.856 13.809 15.875 14.4895C15.8865 14.9055 15.883 15.315 15.874 15.721C15.847 16.7955 15.7465 17.834 15.5715 18.8315L15.464 19.3959C15.3104 20.1422 15.1156 20.8652 14.876 21.56C14.8225 21.715 14.677 21.8125 14.5215 21.8125C14.481 21.8125 14.4395 21.806 14.399 21.792C14.2035 21.7245 14.0995 21.511 14.167 21.315C14.411 20.608 14.606 19.8695 14.7575 19.1065C14.8498 19.08 14.9414 19.052 15.0324 19.0226L14.7575 19.106C14.955 18.114 15.0735 17.076 15.114 15.999L15.1292 15.5078C15.1356 15.1789 15.1353 14.8468 15.126 14.5105C15.11 13.937 15.0735 13.4505 15.029 13.0305C15.2755 12.952 15.516 12.8615 15.754 12.765ZM10.243 13.3365C10.496 13.381 10.75 13.4245 11.009 13.45C11.09 14.2475 11.1585 15.265 11.07 16.4535L11.041 16.7904C10.9631 17.589 10.8119 18.4575 10.5455 19.382C10.5037 19.3759 10.4619 19.3697 10.4202 19.3633L10.5455 19.382C10.353 20.0505 10.102 20.747 9.774 21.4675C9.7115 21.6055 9.575 21.687 9.4325 21.687C9.3805 21.687 9.328 21.6765 9.2775 21.6535C9.089 21.568 9.006 21.3455 9.0915 21.157C9.3905 20.5 9.622 19.8625 9.8015 19.2495L9.90967 18.8602C10.1457 17.9602 10.2693 17.1176 10.324 16.3485L10.3449 15.992C10.3933 14.9381 10.3181 14.0385 10.243 13.3365ZM9.5895 9.69495C9.635 9.70145 9.682 9.71195 9.723 9.72945C9.749 9.74195 9.776 9.74995 9.7995 9.76845C9.9615 9.89695 9.9895 10.133 9.861 10.295C9.461 10.8005 9.25 11.4115 9.25 12.0625C9.25 12.347 9.29 12.712 9.337 13.1305L9.34025 13.1632L9.344 13.1965C9.436 14.007 9.547 15.0095 9.494 16.1705C9.2425 16.1055 8.9945 16.033 8.751 15.9495L8.84003 15.9797C9.05503 16.0508 9.27341 16.1134 9.4945 16.171C9.455 17.043 9.3215 18.005 9.0155 19.0465C9.01516 19.0463 9.01483 19.0462 9.01449 19.0461C8.83925 19.6431 8.60983 20.2643 8.306 20.9095C8.242 21.0455 8.107 21.125 7.9665 21.125C7.913 21.125 7.8585 21.1135 7.807 21.0895C7.6195 21.0015 7.5395 20.778 7.6275 20.5905C7.9215 19.966 8.141 19.365 8.307 18.787C8.30733 18.7871 8.30766 18.7872 8.308 18.7873C8.60408 17.7578 8.72501 16.8067 8.7515 15.95C8.783 14.914 8.6815 14.0155 8.5985 13.2805C8.582 13.1365 8.57 13.01 8.556 12.878C8.55633 12.8781 8.55666 12.8782 8.55699 12.8783C8.52544 12.5788 8.5 12.2997 8.5 12.0625C8.5 11.2525 8.7745 10.4595 9.2725 9.82945C9.352 9.72995 9.4715 9.68795 9.5895 9.69495ZM16.485 10.395C16.6805 10.328 16.8945 10.4325 16.961 10.629C17.0725 10.956 17.167 11.308 17.242 11.6745C17.261 11.767 17.2795 11.8685 17.2975 11.9705L17.3406 12.2276C17.4526 12.9361 17.5394 13.8245 17.571 14.8045C17.602 15.7675 17.5775 16.815 17.4685 17.867C17.367 18.844 17.1945 19.822 16.9215 20.7325C16.873 20.8955 16.7235 21 16.5625 21C16.527 21 16.4905 20.995 16.455 20.9845C16.2565 20.9245 16.144 20.7155 16.2035 20.5175C16.4095 19.8295 16.554 19.0935 16.653 18.3475L16.7155 17.8253C16.8066 16.9529 16.8377 16.0782 16.8265 15.257L16.8188 14.8908C16.7911 13.9257 16.7083 13.0546 16.603 12.372C16.6823 12.3306 16.7608 12.288 16.8386 12.2443L16.603 12.372C16.5725 12.175 16.541 11.9885 16.5075 11.8255C16.4385 11.4895 16.3525 11.1685 16.251 10.871C16.184 10.675 16.289 10.462 16.485 10.395ZM7.19015 17.8125L7.268 17.8215C7.47 17.8655 7.598 18.0655 7.554 18.268L7.537 18.3405C7.53 18.367 7.52 18.3995 7.5125 18.428C7.345 19.0495 6.929 20.0935 6.9105 20.14C6.852 20.2865 6.711 20.3755 6.5625 20.3755C6.5165 20.3755 6.469 20.367 6.4235 20.3485C6.231 20.2715 6.1375 20.053 6.2145 19.861C6.219 19.8495 6.6715 18.7155 6.809 18.16L6.8215 18.1075C6.826 18.0885 6.8375 18.074 6.844 18.0565C6.909 17.886 7.0845 17.78 7.268 17.8215L7.19015 17.8125ZM15.0575 6.39995C15.1685 6.22445 15.4 6.17245 15.575 6.28295C16.398 6.80245 17.083 7.48595 17.608 8.27995C18.0235 8.90545 18.3415 9.59845 18.5335 10.344C18.571 10.48 18.6205 10.68 18.675 10.9315C18.6747 10.9317 18.6743 10.932 18.674 10.9323C18.8008 11.5154 18.9511 12.4063 19.041 13.5985C19.1035 14.4305 19.136 15.4065 19.108 16.5295C18.9628 16.6762 18.8131 16.8189 18.6592 16.9569L18.8583 16.7744L19.1085 16.53C19.0885 17.37 19.0355 18.2875 18.9355 19.288C18.9165 19.481 18.753 19.6255 18.563 19.6255C18.5505 19.6255 18.5375 19.625 18.525 19.6235C18.319 19.603 18.1685 19.419 18.1895 19.213C18.2595 18.512 18.3045 17.8565 18.333 17.2375L18.3515 16.757C18.3821 15.8142 18.3696 14.9747 18.331 14.2385L18.3109 13.8871C18.2435 12.8579 18.1289 12.0511 18.02 11.4715L17.9868 11.3001C17.9212 10.9711 17.8604 10.7255 17.8175 10.57C17.6395 9.87745 17.3475 9.24145 16.967 8.67145C16.4995 7.97195 15.8965 7.37345 15.1745 6.91745C14.9995 6.80645 14.947 6.57495 15.0575 6.39995ZM13.8345 17.0005C14.0415 17.013 14.199 17.1905 14.1865 17.3965C14.1835 17.4485 14.1335 18.2205 13.896 19.3145C13.633 19.365 13.367 19.407 13.097 19.4365C13.38 18.239 13.437 17.3655 13.438 17.3525C13.4505 17.146 13.621 16.986 13.8345 17.0005ZM5.438 14.034C5.705 14.2665 5.9815 14.4865 6.272 14.69C6.3425 15.4625 6.3355 16.3445 6.0775 17.5445L6.077 17.543C6 17.9077 5.90024 18.2984 5.77155 18.7253L5.6695 19.0525C5.618 19.2115 5.471 19.3125 5.3125 19.3125C5.2745 19.3125 5.236 19.3065 5.1975 19.2945C5.0005 19.231 4.892 19.02 4.9555 18.8225C5.1785 18.13 5.325 17.5395 5.419 17.0165V17.017C5.62796 15.8523 5.57063 15.0339 5.46719 14.2478L5.438 14.034ZM11.99 11.757C12.195 11.717 12.391 11.85 12.43 12.0525C12.4405 12.105 12.5395 12.632 12.611 13.469C12.6107 13.469 12.6103 13.469 12.61 13.469C12.677 14.2428 12.718 15.2804 12.642 16.4675C12.591 17.2635 12.4885 18.1235 12.3045 19.0135C12.268 19.1905 12.112 19.3125 11.938 19.3125C11.9125 19.3125 11.887 19.31 11.8615 19.3045C11.6585 19.2625 11.528 19.0645 11.57 18.8615C11.7405 18.0385 11.836 17.2395 11.8855 16.494L11.9062 16.1412C11.9564 15.0955 11.9165 14.1792 11.8575 13.493L11.8413 13.3145C11.7754 12.6251 11.6968 12.208 11.6945 12.197C11.6545 11.994 11.787 11.797 11.99 11.757ZM4.0215 9.51045C4.2045 9.75345 4.3985 9.98695 4.6025 10.212C4.454 10.8115 4.375 11.4325 4.375 12.0625C4.375 12.405 4.3925 12.714 4.418 13.0085L4.45354 13.3875C4.48028 13.635 4.51117 13.8725 4.5425 14.1055C4.6365 14.8015 4.7235 15.4755 4.679 16.296C4.63692 16.2507 4.59528 16.205 4.55407 16.159L4.6795 16.2965C4.6575 16.7185 4.6025 17.1765 4.492 17.702C4.455 17.879 4.299 18 4.1255 18C4.1 18 4.0735 17.9975 4.048 17.992C3.845 17.9495 3.7155 17.7505 3.758 17.548C3.941 16.6795 3.9665 16.0105 3.928 15.3855C4.02233 15.5144 4.11952 15.641 4.21959 15.7651L4.16633 15.6988L3.9275 15.385C3.903 14.987 3.853 14.606 3.799 14.205C3.713 13.5665 3.6245 12.9065 3.6245 12.062C3.6245 12.028 3.627 11.994 3.6275 11.9595C3.74202 12.1345 3.86188 12.3053 3.98679 12.472L3.87641 12.3213L3.6285 11.96C3.6385 11.12 3.7735 10.295 4.0215 9.51045ZM20.3965 14.938C20.611 14.927 20.7775 15.0915 20.7855 15.2985C20.8025 15.756 20.8125 16.2405 20.8125 16.7495C20.8125 16.9565 20.6445 17.1245 20.4375 17.1245C20.2305 17.1245 20.0625 16.9565 20.0625 16.7495C20.0625 16.287 20.0535 15.8485 20.039 15.4295C20.0375 15.396 20.0375 15.36 20.036 15.3265C20.0285 15.1245 20.183 14.956 20.3835 14.941C20.388 14.941 20.392 14.938 20.3965 14.938ZM12 6.87495C13.5685 6.87495 15.03 7.58745 16.009 8.83045C16.077 8.91645 16.098 9.02245 16.0815 9.12295C16.067 9.21195 16.023 9.29645 15.9465 9.35695C15.811 9.46295 15.629 9.45595 15.496 9.35895C15.469 9.33945 15.441 9.32145 15.4195 9.29445C14.5835 8.23345 13.3375 7.62495 12 7.62495C10.5865 7.62495 9.3315 8.31095 8.531 9.36895C8.53066 9.36883 8.53033 9.3687 8.52999 9.36858C7.9652 10.1178 7.625 11.0494 7.625 12.0625C7.625 12.2175 7.6305 12.355 7.6385 12.488L7.6558 12.7273C7.66939 12.8851 7.68683 13.0418 7.7065 13.2125C7.7675 13.7445 7.8405 14.3935 7.8655 15.597C7.77917 15.5578 7.69333 15.5177 7.60813 15.4766L7.8655 15.5975C7.8705 15.836 7.8745 16.088 7.875 16.374C7.8755 16.5815 7.708 16.7495 7.501 16.75C7.293 16.75 7.125 16.583 7.125 16.376C7.1235 15.928 7.1165 15.548 7.1055 15.2155L7.09546 14.9495C7.06279 14.1858 7.0083 13.7075 6.9615 13.2985C6.9155 12.8985 6.8765 12.5515 6.8755 12.0755L6.875 12.0625C6.875 10.9495 7.226 9.91995 7.8175 9.07445L7.96135 8.87866C8.90015 7.66103 10.3598 6.87495 12 6.87495ZM14.166 13.2585C14.2505 13.9535 14.309 14.733 14.3125 15.436C14.3135 15.643 14.1465 15.8115 13.9375 15.8125C13.731 15.8125 13.5635 15.6455 13.5625 15.439C13.559 14.743 13.501 14.017 13.425 13.3875C13.6745 13.3515 13.9225 13.3125 14.166 13.2585ZM2.75714 9.06338L2.8335 9.07645C3.033 9.13195 3.15 9.33895 3.0935 9.53845C2.999 9.87795 2.9285 10.224 2.8725 10.573L2.872 10.57C2.81413 10.9416 2.77437 11.3139 2.75818 11.6885L2.75 12.064C2.75 12.593 2.776 13.06 2.829 13.4815L2.86825 13.7546C2.95389 14.287 3.08864 14.744 3.2785 15.1555C3.365 15.344 3.283 15.5665 3.095 15.6535C3.044 15.677 2.9905 15.688 2.938 15.688C2.796 15.688 2.6605 15.607 2.597 15.47C2.184 14.575 2 13.5245 2 12.064C2 11.6235 2.0305 11.185 2.087 10.7515V10.754C2.133 10.3921 2.1975 10.0366 2.28148 9.68572L2.372 9.33645C2.378 9.31545 2.3915 9.29995 2.4005 9.28095H2.399C2.46557 9.1421 2.60571 9.05393 2.75714 9.06338ZM12 5.24995C12.5835 5.24995 13.1625 5.32495 13.721 5.47345C13.9215 5.52645 14.04 5.73145 13.9875 5.93195C13.935 6.13245 13.7305 6.25195 13.529 6.19845C13.0325 6.06645 12.5185 5.99995 12 5.99995C11.337 5.99995 10.701 6.11345 10.104 6.31495C9.9769 6.29066 9.85069 6.26396 9.72539 6.23489L10.1045 6.31495C8.842 6.74095 7.7635 7.57645 7.0305 8.66945C6.8135 8.54495 6.5975 8.41845 6.391 8.27845L6.81404 8.54397L7.0305 8.66945C6.4775 9.49395 6.1225 10.463 6.028 11.507L5.79581 11.3283L6.028 11.507C6.0115 11.6905 6 11.875 6 12.0625C6 12.6655 6.073 13.1755 6.1505 13.7145C6.1955 14.031 6.241 14.35 6.272 14.6895C5.9815 14.486 5.7045 14.266 5.438 14.0335C5.4285 13.9625 5.418 13.8915 5.408 13.8205C5.3305 13.279 5.25 12.7185 5.25 12.062C5.25 11.683 5.2885 11.314 5.348 10.9515V10.952C5.48978 10.0848 5.78919 9.27106 6.22234 8.54609L6.391 8.27845L6.56996 8.02211C7.1855 7.18243 7.98918 6.49268 8.916 6.00995C9.0349 6.04841 9.15474 6.08468 9.2755 6.11875L8.9155 6.00995C9.8415 5.52745 10.8885 5.24995 12 5.24995ZM12 3.62495C13.8 3.62495 15.495 4.21295 16.886 5.22045C17.6535 5.77695 18.329 6.45995 18.875 7.24895C19.3475 7.93145 19.7195 8.69195 19.9775 9.51145C20.012 9.62095 20.051 9.72795 20.0815 9.83995C20.144 10.07 20.31 10.739 20.4685 11.801C20.5375 12.2625 20.605 12.791 20.662 13.403C20.6815 13.609 20.53 13.792 20.3235 13.811C20.312 13.812 20.3 13.8125 20.2885 13.8125C20.097 13.8125 19.9335 13.6665 19.9155 13.472C19.89 13.2005 19.8625 12.946 19.8335 12.7045L19.8024 12.4532C19.6552 11.3081 19.485 10.5439 19.4015 10.2075L19.3841 10.1396C19.3737 10.0981 19.365 10.0648 19.359 10.0435C19.1335 9.20945 18.776 8.43895 18.313 7.75195C17.7325 6.89045 16.986 6.15995 16.126 5.60145L15.8656 5.43927C14.7207 4.75908 13.3938 4.37495 12 4.37495C11.032 4.37495 10.0895 4.55495 9.1975 4.91095C9.005 4.98695 8.787 4.89395 8.71 4.70145C8.6335 4.50895 8.727 4.29045 8.9195 4.21395C9.9005 3.82295 10.937 3.62495 12 3.62495ZM12 10.125C13.0485 10.125 13.514 10.814 13.773 11.331C13.904 11.5925 14.0565 12.353 14.166 13.257C13.9225 13.311 13.6745 13.3505 13.425 13.386C13.3195 12.511 13.1795 11.822 13.102 11.667C12.817 11.0965 12.508 10.8745 12 10.8745C11.3795 10.8745 10.875 11.407 10.875 12.062C10.875 12.2435 10.9065 12.519 10.946 12.868C10.966 13.045 10.988 13.2415 11.009 13.4495C10.7495 13.424 10.496 13.381 10.243 13.336C10.2285 13.202 10.214 13.0725 10.2005 12.953C10.1585 12.5805 10.125 12.2865 10.125 12.0625C10.125 10.994 10.966 10.125 12 10.125ZM12 8.49995C13.0135 8.49995 13.9545 8.93645 14.618 9.64195C14.981 10.0285 15.2635 10.4925 15.421 11.017C15.483 11.214 15.639 11.7885 15.753 12.765C15.5155 12.8615 15.2745 12.952 15.028 13.0305C14.916 11.9685 14.75 11.382 14.707 11.2455C14.5365 10.68 14.1775 10.1945 13.715 9.84245L13.5489 9.72455C13.0939 9.42536 12.5564 9.24995 12 9.24995C11.699 9.24995 11.404 9.29945 11.1215 9.39595L11.0655 9.41595C10.872 9.48695 10.656 9.38695 10.585 9.19195C10.514 8.99745 10.6145 8.78245 10.809 8.71145L10.88 8.68645C11.2385 8.56295 11.616 8.49995 12 8.49995ZM13.7427 2.16037L13.8185 2.16745C15.515 2.48145 17.0405 3.22145 18.306 4.25795C18.9335 4.77195 19.494 5.36045 19.9795 6.00895C20.3875 6.55345 20.7465 7.13595 21.0385 7.75645L21.2019 8.12434C21.3577 8.49564 21.4909 8.87833 21.603 9.26945C21.743 9.75945 21.8435 10.264 21.909 10.779C21.963 11.201 22 11.6285 22 12.064V12.125C22 12.332 21.832 12.5 21.625 12.5C21.597 12.5 21.5725 12.49 21.546 12.484C21.378 12.447 21.2495 12.304 21.2495 12.125V12.064C21.2495 11.558 21.204 11.0615 21.126 10.575L21.0519 10.169C20.9408 9.63187 20.7833 9.11115 20.5845 8.60995C20.749 8.33395 20.9005 8.04945 21.0385 7.75695L20.7446 8.33064L20.5845 8.60945C20.3015 7.89545 19.935 7.22345 19.4925 6.60695C18.9825 5.89695 18.3735 5.26345 17.684 4.72195C16.5435 3.82545 15.186 3.18295 13.682 2.90495C13.4785 2.86695 13.3435 2.67145 13.3815 2.46795C13.4185 2.26395 13.6145 2.12695 13.8185 2.16745L13.7427 2.16037ZM7.1325 5.19545C7.3015 5.07495 7.5355 5.11295 7.656 5.28045C7.7095 5.35495 7.727 5.44245 7.7215 5.52795C7.7135 5.63445 7.665 5.73645 7.5715 5.80395C6.825 6.34195 6.1915 7.00495 5.6895 7.75345C5.62433 7.70045 5.56039 7.64612 5.49733 7.59082L5.689 7.75345C5.1875 8.50095 4.8195 9.33345 4.6025 10.2115C4.3985 9.98645 4.205 9.75295 4.0215 9.50995C4.276 8.70545 4.649 7.94395 5.1265 7.25045L5.33371 6.96302C5.83015 6.30215 6.42488 5.71114 7.1065 5.21545L7.1325 5.19545ZM4.0205 6.00995C4.1755 6.21545 4.3365 6.41445 4.5065 6.60695C4.225 6.99945 3.968 7.41445 3.7455 7.85595C3.676 7.99395 3.524 8.08795 3.3745 8.08795C3.324 8.08795 3.2735 8.07745 3.227 8.05395C3.042 7.96095 2.9515 7.76745 3.044 7.58245L3.0595 7.55195C3.3365 7.00195 3.662 6.48945 4.0205 6.00995ZM11.875 2.00195C12.08 2.00195 12.2475 2.16645 12.25 2.37195C12.253 2.57945 12.087 2.74945 11.88 2.75195C9.8165 2.77845 7.8765 3.49145 6.3125 4.72045C5.6315 5.25545 5.0225 5.88795 4.5075 6.60695C4.3375 6.41445 4.1765 6.21495 4.0215 6.00995C4.5125 5.35395 5.073 4.76595 5.6935 4.25695L5.96818 4.03915C7.64061 2.76239 9.69274 2.0299 11.875 2.00195Z" fill="#001E3E"/>
</svg>
