<svg width="24" height="24" viewBox="0 0 24 24" fill="none" xmlns="http://www.w3.org/2000/svg">
<path d="M20 5C21.1046 5 22 5.89543 22 7V10C20.8954 10 20 10.8954 20 12C20 13.1046 20.8954 14 22 14V17C22 18.1046 21.1046 19 20 19H4C2.89543 19 2 18.1046 2 17V14C3.10457 14 4 13.1046 4 12C4 10.8954 3.10457 10 2 10V7C2 5.89543 2.89543 5 4 5H20ZM20 7H4L4.00111 8.53577C5.1961 9.22755 6 10.5199 6 12C6 13.4801 5.1961 14.7725 4.00111 15.4642L4 17H20L19.9999 15.4648C18.8043 14.7732 18 13.4805 18 12C18 10.5195 18.8043 9.22683 19.9999 8.5352L20 7ZM14 13C14.5523 13 15 13.4477 15 14C15 14.5523 14.5523 15 14 15C13.4477 15 13 14.5523 13 14C13 13.4477 13.4477 13 14 13ZM14.5 9L11 15H9.5L13 9H14.5ZM10 9C10.5523 9 11 9.44772 11 10C11 10.5523 10.5523 11 10 11C9.44772 11 9 10.5523 9 10C9 9.44772 9.44772 9 10 9Z" fill="#001E3E"/>
</svg>
