<?xml version="1.0" encoding="UTF-8"?>
<svg width="24px" height="24px" viewBox="0 0 24 24" version="1.1" xmlns="http://www.w3.org/2000/svg" xmlns:xlink="http://www.w3.org/1999/xlink">
    <title>ic-voucher</title>
    <g id="Icons" stroke="none" stroke-width="1" fill="none" fill-rule="evenodd">
        <g transform="translate(-3357.000000, -800.000000)"></g>
        <g id="Price-and-payment/voucher" fill="#001E3E" fill-rule="nonzero">
            <path d="M20,5 C21.1045695,5 22,5.8954305 22,7 L22,10 C20.8954305,10 20,10.8954305 20,12 C20,13.1045695 20.8954305,14 22,14 L22,14 L22,17 C22,18.1045695 21.1045695,19 20,19 L4,19 C2.8954305,19 2,18.1045695 2,17 L2,14 L2,14 C3.1045695,14 4,13.1045695 4,12 C4,10.8954305 3.1045695,10 2,10 L2,7 C2,5.8954305 2.8954305,5 4,5 L20,5 Z M20,7 L4,7 L4.00110922,8.53577067 C5.19610023,9.22754725 6,10.5198932 6,12 C6,13.4801068 5.19610023,14.7724528 4.00110922,15.4642293 L4,17 L20,17 L19.9998796,15.4648015 C18.8043432,14.7731656 18,13.480515 18,12 C18,10.519485 18.8043432,9.22683444 19.9998796,8.53519846 L20,7 Z M14,13 C14.5522847,13 15,13.4477153 15,14 C15,14.5522847 14.5522847,15 14,15 C13.4477153,15 13,14.5522847 13,14 C13,13.4477153 13.4477153,13 14,13 Z M14.5,9 L11,15 L9.5,15 L13,9 L14.5,9 Z M10,9 C10.5522847,9 11,9.44771525 11,10 C11,10.5522847 10.5522847,11 10,11 C9.44771525,11 9,10.5522847 9,10 C9,9.44771525 9.44771525,9 10,9 Z" id="shape"></path>
        </g>
    </g>
</svg>