<?xml version="1.0" encoding="UTF-8"?>
<svg width="24px" height="24px" viewBox="0 0 24 24" version="1.1" xmlns="http://www.w3.org/2000/svg" xmlns:xlink="http://www.w3.org/1999/xlink">
    <!-- Generator: Sketch 62 (91390) - https://sketch.com -->
    <title>icons / 24x24 / wallet</title>
    <desc>Created with Sketch.</desc>
    <g id="icons-/-24x24-/-wallet" stroke="none" stroke-width="1" fill="none" fill-rule="evenodd">
        <g id="icon" fill="#001E3E" fill-rule="nonzero">
            <path d="M19,12.5104076 L18.9922086,12.3849698 C18.930502,11.8918928 18.5098013,11.5104076 18,11.5104076 L18,11.5104076 L5,11.5104076 L5,20.5104076 L17,20.5104076 L17,22.5104076 L3,22.5104076 L3,9.51040764 L4.72138615,9.5101194 L11.6464466,2.58578644 C12.4274952,1.80473785 13.6938252,1.80473785 14.4748737,2.58578644 L14.4748737,2.58578644 L19.4246212,7.53553391 C20.0757842,8.18669691 20.1840703,9.27694982 19.7495889,10.0731357 C20.5068559,10.6176988 21,11.5064632 21,12.5104076 L21,12.5104076 L21,22.5104076 L19,22.5104076 L19,12.5104076 Z M15.5,15.0104076 C16.3284271,15.0104076 17,15.6819805 17,16.5104076 C17,17.3388348 16.3284271,18.0104076 15.5,18.0104076 C14.6715729,18.0104076 14,17.3388348 14,16.5104076 C14,15.6819805 14.6715729,15.0104076 15.5,15.0104076 Z M13.0606602,4 L7.54839906,9.5101194 L12.6105765,9.50941229 L15.5807887,6.51871435 L13.0606602,4 Z M16.8514596,7.78938524 L15.1123203,9.50941229 L17.4500153,9.50941229 L18.0104076,8.94974747 L16.8514596,7.78938524 Z" id="shape"></path>
        </g>
    </g>
</svg>