<svg width="24" height="24" viewBox="0 0 24 24" fill="none" xmlns="http://www.w3.org/2000/svg">
<path fill-rule="evenodd" clip-rule="evenodd" d="M13.4287 1.58579L18.4998 6.65685C18.9273 7.0843 19.1208 7.65708 19.0804 8.21612C19.3216 8.30597 19.5545 8.4224 19.7496 8.56273C20.5069 9.10729 21 9.99605 21 11V21H19V11L18.9922 10.8746C18.9305 10.3815 18.5098 10 18 10H5V19H17V21H3V8C3.26932 7.99996 3.6761 7.99992 4.18629 7.9999L10.6003 1.58579C11.3814 0.804738 12.6477 0.804738 13.4287 1.58579ZM7.01475 7.99985C8.39856 7.99985 9.9674 7.99987 11.5 7.99989L14.2572 5.24264L12.0145 3L7.01475 7.99985ZM14.3283 7.99995C15.3466 7.99997 16.2706 7.99998 17.0145 7.99999L15.6714 6.65685L14.3283 7.99995Z" fill="#001E3E"/>
<path d="M17 15C17 14.1716 16.3284 13.5 15.5 13.5C14.6716 13.5 14 14.1716 14 15C14 15.8284 14.6716 16.5 15.5 16.5C16.3284 16.5 17 15.8284 17 15Z" fill="#001E3E"/>
</svg>
