<svg xmlns="http://www.w3.org/2000/svg" width="132" height="100">
    <g fill="none" fill-rule="evenodd">
        <path fill="#FFF1FF" d="M0 0h100v100H0z"/>
        <g fill-rule="nonzero">
            <path fill="#001E3E" d="M8 8l19 10v9h9v29h-8v17c0 2 2 4 4 4h10V10h50v75H32c-7 0-12-5-13-12V56h-8V27h8v-4L4 16l4-8zm76 11H51v58h33V19zM28 35h-9v13h9V35z"/>
            <path fill="#069D4F" d="M59 26h17v42H59z"/>
        </g>
        <text fill="#001E3E" font-family="OpenSans-Regular, Open Sans" font-size="12">
            <tspan x="111" y="55">2px</tspan>
        </text>
    </g>
</svg>
