<svg xmlns="http://www.w3.org/2000/svg" width="205" height="100">
    <g fill="none" fill-rule="evenodd">
        <path fill="#FFF1FF" d="M0 0h100v100H0z"/>
        <text fill="#001E3E" font-family="OpenSans-Regular, Open Sans" font-size="12">
            <tspan x="121" y="42">2px open edge</tspan>
        </text>
        <path fill="#001E3E" fill-rule="nonzero" d="M67 8c9 0 16 8 16 17v8h-8v-8c0-5-4-8-8-8H33c-4 0-8 3-8 8v50c0 5 4 8 8 8h34c4 0 8-3 8-8V42h8v33c0 9-7 17-16 17H33c-9 0-16-8-16-17V25c0-9 7-17 16-17h34zM38 67a4 4 0 110 8 4 4 0 010-8zm12 0a4 4 0 110 8 4 4 0 010-8zm13-13c2 0 4 2 4 4v13a4 4 0 11-9 0V58c0-2 2-4 5-4zm-25 0a4 4 0 110 8 4 4 0 010-8zm12 0a4 4 0 110 8 4 4 0 010-8zM38 42a4 4 0 110 8 4 4 0 010-8zm12 0a4 4 0 110 8 4 4 0 010-8zm13 0a4 4 0 110 8 4 4 0 010-8zm4-17v8H33v-8h34z"/>
        <path stroke="#C6CDD4" stroke-dasharray="4" d="M75 42l37-1M75 34h37"/>
    </g>
</svg>
