<?xml version="1.0" encoding="utf-8"?>
<svg xmlns="http://www.w3.org/2000/svg" id="logo" x="0" y="0" version="1.1" viewBox="0 0 2199.05 795.6">
  <circle cx="397.8" cy="397.8" r="397.8" />
    <path d="M-69.16 301.16 29.74 401" style="fill-opacity:0;stroke:#b82930;stroke-width:35.0467;stroke-miterlimit:10"
          transform="matrix(.87997 0 0 .85402 164.101 82.36686)"/>
    <path d="m-361.07 175.98-127.25 127.24c-11.53 9.87-24.88 15.83-42.87 15.83-18.78 0-35.85-7.48-47.74-20.44l-55.19-57.39s-22.76-28.49-54.39-28.49c-36.76 0-56.87 25.41-60.25 28.79-30.67 30.67-61.34 63.86-92.01 94.53l-83.86-84.78"
          style="fill-opacity:0;stroke:var(--wave-s-color-background-page-default);stroke-width:35.0467;stroke-miterlimit:10"
          transform="matrix(.87997 0 0 .85402 1001.601038 207.863999)"/>
    <path d="m1369.15 251.89-113.4 299.7h-29.7l-77.4-196.2-77.4 196.2h-30.15l-113.85-299.7h65.7l65.7 184.95 74.7-187.65h30.15l74.25 187.2 65.7-184.5h65.7zM1564.9 494.89h-132.75l-23.85 54h-65.25l140.4-299.7h30.15l140.4 299.7h-65.25l-23.85-54zm-110.7-49.95h88.65l-44.1-102.15-44.55 102.15zM1918.59 251.89l-133.2 299.7h-30.15l-133.65-299.7h68.4l80.1 192.15 80.1-192.15h68.4zM1956.39 251.89h216.9v54.9h-156.15v64.8h141.75v51.75h-141.75v70.65h158.4v54.9h-219.15v-297z"
          class="st0"/>
</svg>

