<?xml version="1.0" encoding="utf-8"?>
<!-- Generator: Adobe Illustrator 27.5.0, SVG Export Plug-In . SVG Version: 6.00 Build 0)  -->
<svg version="1.1" id="Layer_1" xmlns="http://www.w3.org/2000/svg" xmlns:xlink="http://www.w3.org/1999/xlink" x="0px" y="0px"
	 viewBox="0 0 1810.9 795.6" style="enable-background:new 0 0 1810.9 795.6;" xml:space="preserve">
<style type="text/css">
	.st0{fill:#C4C4C4;}
</style>
<g>
	<path class="st0" d="M301.91,414.51c0,16.06-11.11,28.16-26.4,28.16c-7.92,0-14.85-3.19-18.92-8.69v7.48h-10.78v-82.5h11.55v35.09
		c4.07-4.95,10.56-7.81,18.04-7.81C290.8,386.24,301.91,398.45,301.91,414.51z M290.03,414.4c0-10.45-7.26-17.6-16.5-17.6
		c-8.14,0-16.28,5.5-16.28,17.71c0,12.32,8.25,17.6,16.28,17.6C282.88,432.11,290.03,424.85,290.03,414.4z"/>
	<path class="st0" d="M363.84,387.45l-26.29,60.17c-4.51,10.34-10.67,14.85-19.8,14.85c-2.97,0-6.27-0.44-8.91-1.1v-9.79
		c2.53,0.22,4.62,0.44,6.38,0.44c4.95,0,8.91-1.43,11.77-7.92l2.2-5.06l-21.56-51.59h12.43l15.51,39.27l15.95-39.27H363.84z"/>
</g>
<g>
	<g>
		<g>
			<g>
				<path class="st0" d="M1223.41,460.43l-37.69-101.03h20.71l0.42,1.17l22.9,64.09l25.57-65.26h11l0.15,0.38l25.43,64.87
					l23.16-65.25h20.71l-37.68,101.44h-11.02l-26.24-67.63l-26.08,67.63h-11.17L1223.41,460.43z M969.96,460.84V359.39h11.5
					l57.05,64.6v-64.6h19.25v101.44h-11.24l-57.31-64.75v64.75H969.96z M1128.7,375.68c19.05,0,33.4,14.74,33.4,34.29
					c0,20.04-14.05,34.58-33.4,34.58c-19.34,0-33.4-14.54-33.4-34.58C1095.3,390.1,1109.36,375.68,1128.7,375.68 M1128.55,462.47
					c29.86,0,53.25-23,53.25-52.35c0-29.36-23.39-52.36-53.25-52.36c-29.77,0-53.09,23-53.09,52.36
					C1075.46,439.47,1098.78,462.47,1128.55,462.47"/>
			</g>
			<g>
				<path class="st0" d="M871.96,460.84V359.4h73.55v17.63h-54.3v23.17h49.56v17.19h-49.56v25.84h54.3v17.62H871.96z M694.24,403.31
					v-26.44h23.01c10.17,0,16.48,5.13,16.48,13.38c0,8.18-6.16,13.06-16.48,13.06H694.24z M730.36,419.22
					c14.31-4.11,23.08-15.07,23.08-29.13c0-18.04-14.71-30.64-35.77-30.69h-42.68v101.44h19.25v-39.9h15.39l26.55,39.9h22.22
					L730.36,419.22z M581.97,460.84V359.4h72.22v17.63h-52.97v23.32h48.51v17.62h-48.51v42.88H581.97z M776.01,460.84V359.4h73.55
					v17.63h-54.3v23.17h49.56v17.19h-49.56v25.84h54.31v17.62H776.01z"/>
			</g>
		</g>
		<g>
			<polygon class="st0" points="1548.84,285.15 1548.81,285.18 1428.8,405.23 1428.8,337.96 1358.18,285.17 1358.17,285.15 
				1321.73,285.15 1321.93,285.29 1404.92,347.58 1404.92,461.39 1404.92,461.59 1405.06,461.46 1581.48,285.29 1581.62,285.15 			
				"/>
		</g>
	</g>
</g>
</svg>
