<?xml version="1.0" encoding="utf-8"?>
<!-- Generator: Adobe Illustrator 27.5.0, SVG Export Plug-In . SVG Version: 6.00 Build 0)  -->
<svg version="1.1" id="Layer_1" xmlns="http://www.w3.org/2000/svg" xmlns:xlink="http://www.w3.org/1999/xlink" x="0px" y="0px"
	 viewBox="0 0 94 31" style="enable-background:new 0 0 94 31;" xml:space="preserve">
<style type="text/css">
	.st0{opacity:0.7;clip-path:url(#SVGID_00000057117981213222332540000000113370783593264002_);}
	.st1{fill:#FFFFFF;}
	.st2{fill-rule:evenodd;clip-rule:evenodd;fill:#FFFFFF;}
</style>
<g>
	<defs>
		<rect id="SVGID_1_" x="0.1" y="0" width="93" height="31"/>
	</defs>
	<clipPath id="SVGID_00000130625184536083114060000009721163117305875134_">
		<use xlink:href="#SVGID_1_"  style="overflow:visible;"/>
	</clipPath>
	<g style="opacity:0.7;clip-path:url(#SVGID_00000130625184536083114060000009721163117305875134_);">
		<path class="st1" d="M37.2,5.6v15.5l2,0v-7.4h4.8v-2h-4.8V7.6h6.3v-2L37.2,5.6L37.2,5.6z M49.2,8.8c0.2,0,0.3,0,0.5-0.1
			c0.2-0.1,0.3-0.2,0.4-0.3c0.1-0.1,0.2-0.3,0.3-0.4c0.1-0.2,0.1-0.3,0.1-0.5c0-0.7-0.6-1.3-1.3-1.3c-0.2,0-0.3,0-0.5,0.1
			c-0.2,0.1-0.3,0.2-0.4,0.3C48.1,6.7,48,6.8,47.9,7c-0.1,0.2-0.1,0.3-0.1,0.5C47.8,8.2,48.4,8.8,49.2,8.8z M48.1,10.7v10.4h2V10.7
			H48.1z M57.6,10.4c-2.7,0-4.5,2.2-4.5,4.9c0,2.7,1.9,4.9,4.5,4.9c1.2,0,2.2-0.5,3-1.2v1.4c0,1.7-1.4,3.2-3.1,3.2h0
			c-0.6,0-1.3-0.2-1.8-0.6l-1,1.7c0.6,0.4,1.2,0.6,1.9,0.7c0.7,0.1,1.3,0.1,2,0c0.7-0.1,1.3-0.4,1.8-0.8c0.6-0.4,1-0.9,1.4-1.4
			c0.5-0.8,0.8-1.8,0.8-2.8v-9.6h-2v0.9C59.8,10.9,58.8,10.4,57.6,10.4z M55.1,15.3c0-1.7,1.3-3,2.7-3c1.5,0,2.7,1.3,2.7,3
			c0,1.7-1.3,2.9-2.7,2.9C56.3,18.3,55.1,17,55.1,15.3z M69.8,12.4c-0.6,0-1.1,0.2-1.5,0.7s-0.6,1-0.6,1.5v6.6h-2V10.7h2v1
			c0.3-0.4,0.7-0.7,1.1-0.9c0.5-0.2,0.9-0.3,1.4-0.3c1.4,0,2.5,0.7,3.1,1.8c0.3-0.5,0.8-1,1.4-1.3c0.6-0.3,1.2-0.5,1.8-0.5
			c2.3,0,3.7,1.8,3.7,4.1v6.6h-2v-6.6c0-1.2-0.9-2.2-2.1-2.2c-0.6,0-1.1,0.2-1.5,0.7s-0.6,1-0.6,1.5v6.6h-2v-6.6
			C71.9,13.4,71,12.4,69.8,12.4z M90.9,11.9c-0.5-0.5-1-0.9-1.6-1.1c-0.6-0.3-1.3-0.4-1.9-0.4c-3,0-5.1,2.5-5.1,5.5
			c0,3,2.1,5.5,5.1,5.5c0.7,0,1.3-0.1,1.9-0.4c0.6-0.3,1.2-0.6,1.6-1.1v1.2h2V10.7h-2V11.9z M84.3,15.9c0-2,1.5-3.6,3.3-3.6
			c1.8,0,3.3,1.6,3.3,3.6c0,2-1.5,3.6-3.3,3.6C85.8,19.5,84.3,17.9,84.3,15.9z"/>
		<path class="st2" d="M6.9,0.1h10c3.5,0,6.3,2.7,6.3,6c0,1.9-1,3.6-2.5,4.7c1.5,1.1,2.5,2.8,2.5,4.7c0,3.3-2.8,6-6.3,6
			c-1.4,0-2.7-0.4-3.8-1.2V25c0,3.3-2.8,6-6.3,6c-3.5,0-6.3-2.7-6.3-6c0-1.9,1-3.6,2.5-4.7c-1.5-1.1-2.5-2.8-2.5-4.7
			c0-1.9,1-3.6,2.5-4.7C1.5,9.7,0.6,8,0.6,6.1C0.6,2.8,3.4,0.1,6.9,0.1z M10.6,21.5H6.9c-2,0-3.8,1.6-3.8,3.5c0,1.9,1.7,3.5,3.8,3.5
			c2,0,3.8-1.6,3.8-3.5V21.5z M13.1,15.5c0-1.9,1.7-3.5,3.8-3.5c2,0,3.8,1.6,3.8,3.5c0,1.9-1.7,3.5-3.8,3.5
			C14.8,19,13.1,17.4,13.1,15.5z M6.8,12c-2,0-3.7,1.6-3.7,3.5c0,1.9,1.7,3.5,3.8,3.5h3.8v-7L6.8,12L6.8,12z M10.6,9.6v-7H6.9
			c-2,0-3.8,1.6-3.8,3.5c0,1.9,1.7,3.5,3.8,3.5L10.6,9.6L10.6,9.6z M13.1,9.6h3.8c2,0,3.8-1.6,3.8-3.5c0-1.9-1.7-3.5-3.8-3.5h-3.8
			V9.6L13.1,9.6z"/>
	</g>
</g>
</svg>
