<?xml version="1.0" encoding="utf-8"?>
<!-- Generator: Adobe Illustrator 27.5.0, SVG Export Plug-In . SVG Version: 6.00 Build 0)  -->
<svg version="1.1" id="Layer_1" xmlns="http://www.w3.org/2000/svg" xmlns:xlink="http://www.w3.org/1999/xlink" x="0px" y="0px"
	 viewBox="0 0 18 18" style="enable-background:new 0 0 18 18;" xml:space="preserve">
<style type="text/css">
	.st0{fill:#0ACF83;}
	.st1{fill:#A259FF;}
	.st2{fill:#F24E1E;}
	.st3{fill:#FF7262;}
	.st4{fill:#1ABCFE;}
</style>
<path class="st0" d="M7.59,13.23c0.78,0,1.41-0.63,1.41-1.41v-1.41H7.59c-0.78,0-1.41,0.63-1.41,1.41
	C6.18,12.59,6.81,13.23,7.59,13.23z"/>
<path class="st1" d="M6.18,9c0-0.78,0.63-1.41,1.41-1.41H9v2.82H7.59C6.81,10.41,6.18,9.78,6.18,9z"/>
<path class="st2" d="M6.18,6.18c0-0.78,0.63-1.41,1.41-1.41H9v2.82H7.59C6.81,7.59,6.18,6.96,6.18,6.18z"/>
<path class="st3" d="M9,4.77h1.41c0.78,0,1.41,0.63,1.41,1.41s-0.63,1.41-1.41,1.41H9V4.77z"/>
<circle class="st4" cx="10.41" cy="9" r="1.41"/>
</svg>
