<?xml version="1.0" encoding="utf-8"?>
<!-- Generator: Adobe Illustrator 27.5.0, SVG Export Plug-In . SVG Version: 6.00 Build 0)  -->
<svg version="1.1" id="Layer_1" xmlns="http://www.w3.org/2000/svg" xmlns:xlink="http://www.w3.org/1999/xlink" x="0px" y="0px"
	 viewBox="0 0 105 26" style="enable-background:new 0 0 105 26;" xml:space="preserve">
<style type="text/css">
	.st0{opacity:0.7;}
	.st1{fill:#FFFFFF;}
</style>
<g class="st0">
	<path class="st1" d="M12.8,0.1C5.7,0.1,0,5.8,0,12.9C0,18.5,3.7,23.3,8.8,25c0.6,0.1,0.9-0.3,0.9-0.6c0-0.3,0-1.3,0-2.4
		c-3.6,0.8-4.3-1.5-4.3-1.5c-0.6-1.5-1.4-1.9-1.4-1.9C2.7,17.9,4,17.9,4,17.9c1.3,0.1,2,1.3,2,1.3c1.1,2,3,1.4,3.7,1.1
		c0.1-0.8,0.4-1.4,0.8-1.7c-2.8-0.3-5.8-1.4-5.8-6.3c0-1.4,0.5-2.5,1.3-3.4C5.8,8.4,5.4,7.1,6.1,5.4c0,0,1.1-0.3,3.5,1.3
		c1-0.3,2.1-0.4,3.2-0.4c1.1,0,2.2,0.1,3.2,0.4c2.4-1.7,3.5-1.3,3.5-1.3c0.7,1.8,0.3,3.1,0.1,3.4c0.8,0.9,1.3,2,1.3,3.4
		c0,4.9-3,6-5.9,6.3c0.5,0.4,0.9,1.2,0.9,2.4c0,1.7,0,3.1,0,3.5c0,0.3,0.2,0.7,0.9,0.6c5.1-1.7,8.8-6.5,8.8-12.2
		C25.6,5.8,19.9,0.1,12.8,0.1z"/>
	<path class="st1" d="M4.9,18.5c0,0.1-0.1,0.1-0.2,0c-0.1,0-0.1-0.1-0.1-0.2c0-0.1,0.1-0.1,0.2,0C4.8,18.3,4.9,18.4,4.9,18.5z
		 M5.4,19c-0.1,0.1-0.2,0-0.3-0.1c-0.1-0.1-0.1-0.2,0-0.3c0.1-0.1,0.2,0,0.3,0.1C5.4,18.9,5.4,19,5.4,19z M5.9,19.8
		c-0.1,0.1-0.2,0-0.3-0.1c-0.1-0.1-0.1-0.3,0-0.3c0.1-0.1,0.2,0,0.3,0.1C6,19.6,6,19.7,5.9,19.8z M6.6,20.5c-0.1,0.1-0.2,0.1-0.3,0
		c-0.1-0.1-0.1-0.2-0.1-0.3c0.1-0.1,0.2-0.1,0.3,0C6.6,20.3,6.6,20.4,6.6,20.5z M7.5,20.9c0,0.1-0.2,0.1-0.3,0.1
		C7.1,21,7,20.9,7,20.8c0-0.1,0.2-0.1,0.3-0.1C7.5,20.7,7.6,20.8,7.5,20.9z M8.6,21c0,0.1-0.1,0.2-0.3,0.2C8.2,21.2,8,21.1,8,21
		c0-0.1,0.1-0.2,0.3-0.2C8.5,20.8,8.6,20.9,8.6,21z M9.6,20.8c0,0.1-0.1,0.2-0.2,0.2c-0.1,0-0.3,0-0.3-0.1c0-0.1,0.1-0.2,0.2-0.2
		C9.4,20.7,9.5,20.7,9.6,20.8z M45.8,12.2h-6.2c-0.1,0-0.1,0-0.2,0.1c-0.1,0.1-0.1,0.1-0.1,0.2v3c0,0.2,0.1,0.3,0.3,0.3H42v3.7
		c0,0-0.5,0.2-2,0.2c-1.8,0-4.2-0.6-4.2-6.1c0-5.4,2.6-6.1,5-6.1c2.1,0,3,0.4,3.5,0.5c0.2,0.1,0.3-0.1,0.3-0.3l0.7-2.9
		c0,0,0-0.1,0-0.1c0,0,0-0.1-0.1-0.1c-0.2-0.2-1.6-1-5.2-1c-4.1,0-8.3,1.8-8.3,10.2s4.8,9.7,8.9,9.7c3.4,0,5.4-1.4,5.4-1.4
		c0.1,0,0.1-0.2,0.1-0.2v-9.4c0-0.1,0-0.1-0.1-0.2S45.8,12.2,45.8,12.2z M77.5,4.7c0-0.2-0.1-0.3-0.3-0.3h-3.5c0,0-0.1,0-0.1,0
		c0,0-0.1,0-0.1,0.1c0,0,0,0.1-0.1,0.1c0,0,0,0.1,0,0.1v6.7h-5.4V4.7c0-0.2-0.1-0.3-0.3-0.3h-3.5c-0.1,0-0.1,0-0.2,0.1
		C64.1,4.6,64,4.7,64,4.7v18.2c0,0.2,0.1,0.3,0.3,0.3h3.5c0.2,0,0.3-0.1,0.3-0.3v-7.8h5.4l0,7.8c0,0.2,0.1,0.3,0.3,0.3h3.5
		c0.2,0,0.3-0.1,0.3-0.3V4.7z M52.3,7.1c0-1.2-1-2.3-2.2-2.3c-0.3,0-0.6,0.1-0.9,0.2c-0.3,0.1-0.5,0.3-0.7,0.5
		C48.3,5.7,48.1,6,48,6.3c-0.1,0.3-0.2,0.6-0.2,0.9c0,1.2,1,2.3,2.2,2.3C51.3,9.4,52.3,8.4,52.3,7.1z M52.1,22.7v-12
		c0,0,0-0.1,0-0.1c0,0,0-0.1-0.1-0.1c0,0-0.1,0-0.1-0.1c0,0-0.1,0-0.1,0h-3.5c-0.2,0-0.3,0.2-0.3,0.3v12c0,0.4,0.2,0.5,0.5,0.5h3.1
		C52,23.2,52.1,23,52.1,22.7z M90.7,10.4h-3.4c-0.1,0-0.1,0-0.2,0.1C87,10.6,87,10.6,87,10.7v8.9c0,0-0.9,0.6-2.1,0.6
		c-1.2,0-1.6-0.6-1.6-1.8v-7.8c0-0.2-0.1-0.3-0.3-0.3h-3.5c-0.1,0-0.1,0-0.2,0.1c-0.1,0.1-0.1,0.1-0.1,0.2v8.4c0,3.6,2,4.5,4.8,4.5
		c2.3,0,4.1-1.3,4.1-1.3s0.1,0.7,0.1,0.7c0,0.1,0.1,0.2,0.3,0.2l2.2,0c0.2,0,0.3-0.1,0.3-0.3l0-12.2c0-0.1,0-0.2-0.1-0.2
		C90.9,10.5,90.8,10.4,90.7,10.4z M98.8,20.2c-1.2,0-2-0.6-2-0.6v-5.8c0,0,0.8-0.5,1.8-0.6c1.2-0.1,2.4,0.3,2.4,3.2
		C101,19.7,100.5,20.3,98.8,20.2z M100.1,10c-2,0-3.3,0.9-3.3,0.9V4.7c0-0.2-0.1-0.3-0.3-0.3h-3.5c0,0-0.1,0-0.1,0
		c0,0-0.1,0-0.1,0.1c0,0,0,0.1-0.1,0.1c0,0,0,0.1,0,0.1v18.2c0,0.2,0.1,0.3,0.3,0.3h2.4c0.1,0,0.2-0.1,0.3-0.2
		c0.1-0.1,0.1-0.8,0.1-0.8s1.4,1.3,4.1,1.3c3.2,0,5-1.6,5-7.2S102.1,10,100.1,10z M62,10.4h-2.6l0-3.4c0-0.1-0.1-0.2-0.2-0.2h-3.5
		c-0.1,0-0.2,0.1-0.2,0.2v3.6c0,0-1.8,0.4-1.9,0.5c-0.1,0-0.1,0.1-0.2,0.1c0,0.1-0.1,0.1-0.1,0.2v2.2c0,0.2,0.1,0.3,0.3,0.3h1.8v5.4
		c0,4,2.8,4.4,4.7,4.4c0.9,0,1.9-0.3,2.1-0.3c0.1,0,0.2-0.1,0.2-0.3l0-2.5c0-0.1,0-0.1-0.1-0.2c-0.1-0.1-0.1-0.1-0.2-0.1
		c-0.2,0-0.5,0.1-0.9,0.1c-1.3,0-1.7-0.6-1.7-1.4v-5.1H62c0.2,0,0.3-0.1,0.3-0.3v-2.8c0,0,0-0.1,0-0.1s0-0.1-0.1-0.1
		c0,0-0.1,0-0.1-0.1C62.1,10.4,62.1,10.4,62,10.4z"/>
</g>
</svg>
