<?xml version="1.0" encoding="utf-8"?>
<!-- Generator: Adobe Illustrator 27.5.0, SVG Export Plug-In . SVG Version: 6.00 Build 0)  -->
<svg version="1.1" id="Layer_1" xmlns="http://www.w3.org/2000/svg" xmlns:xlink="http://www.w3.org/1999/xlink" x="0px" y="0px"
	 viewBox="0 0 18 18" style="enable-background:new 0 0 18 18;" xml:space="preserve">
<style type="text/css">
	.st0{fill:#FFFFFF;}
</style>
<path class="st0" d="M5.93,11.3c0,0.27,0.22,0.49,0.49,0.49c0.27,0,0.49-0.22,0.49-0.49s-0.22-0.49-0.49-0.49
	C6.14,10.81,5.93,11.03,5.93,11.3z M5.93,8.87c0,0.27,0.22,0.49,0.49,0.49c0.27,0,0.49-0.22,0.49-0.49c0-0.27-0.22-0.49-0.49-0.49
	C6.14,8.38,5.93,8.6,5.93,8.87z M5.93,6.44c0,0.27,0.22,0.49,0.49,0.49c0.27,0,0.49-0.22,0.49-0.49S6.68,5.95,6.41,5.95
	C6.14,5.95,5.93,6.17,5.93,6.44z M12.24,11.3c0,0.13-0.05,0.25-0.14,0.34c-0.09,0.09-0.22,0.14-0.34,0.14H7.87
	c-0.27,0-0.49-0.22-0.49-0.49s0.22-0.49,0.49-0.49h3.89c0.13,0,0.25,0.05,0.34,0.14C12.19,11.05,12.24,11.17,12.24,11.3z
	 M12.24,6.44c0,0.13-0.05,0.25-0.14,0.34c-0.09,0.09-0.22,0.14-0.34,0.14H7.87c-0.27,0-0.49-0.22-0.49-0.49S7.6,5.95,7.87,5.95h3.89
	c0.13,0,0.25,0.05,0.34,0.14C12.19,6.19,12.24,6.31,12.24,6.44z M12.24,8.87c0,0.13-0.05,0.25-0.14,0.34
	c-0.09,0.09-0.22,0.14-0.34,0.14H7.87c-0.27,0-0.49-0.22-0.49-0.49c0-0.27,0.22-0.49,0.49-0.49h3.89c0.13,0,0.25,0.05,0.34,0.14
	C12.19,8.62,12.24,8.74,12.24,8.87z"/>
</svg>
