<?xml version="1.0" encoding="utf-8"?>
<!-- Generator: Adobe Illustrator 27.5.0, SVG Export Plug-In . SVG Version: 6.00 Build 0)  -->
<svg version="1.1" id="Layer_1" xmlns="http://www.w3.org/2000/svg" xmlns:xlink="http://www.w3.org/1999/xlink" x="0px" y="0px"
	 viewBox="0 0 18 18" style="enable-background:new 0 0 18 18;" xml:space="preserve">
<style type="text/css">
	.st0{fill-rule:evenodd;clip-rule:evenodd;fill:#FFFFFF;}
</style>
<path class="st0" d="M5.27,8.72c-0.17,0-0.31,0.14-0.31,0.31S5.1,9.34,5.27,9.34h7.45c0.17,0,0.31-0.14,0.31-0.31
	s-0.14-0.31-0.31-0.31H5.27z M9.27,12.39v-2.12c0-0.15-0.12-0.28-0.28-0.28c-0.15,0-0.28,0.12-0.28,0.28v2.12l-0.77-0.77v0
	c-0.11-0.1-0.28-0.1-0.39,0.01c-0.11,0.11-0.11,0.28-0.01,0.39l1.24,1.24c0.11,0.11,0.28,0.11,0.39,0l1.24-1.24
	c0.06-0.05,0.09-0.12,0.09-0.2c0-0.07-0.03-0.15-0.08-0.2c-0.05-0.05-0.13-0.08-0.2-0.08c-0.08,0-0.15,0.04-0.2,0.09L9.27,12.39
	L9.27,12.39z M9.19,4.79c-0.11-0.11-0.28-0.11-0.39,0L7.56,6.04c-0.1,0.11-0.1,0.28,0.01,0.39c0.11,0.11,0.28,0.11,0.39,0.01
	l0.77-0.76v2.12c0,0.15,0.12,0.28,0.28,0.28c0.15,0,0.28-0.12,0.28-0.28V5.67l0.77,0.77v0c0.11,0.1,0.28,0.1,0.39-0.01
	c0.11-0.11,0.11-0.28,0.01-0.39L9.19,4.79z"/>
</svg>
