<?xml version="1.0" encoding="utf-8"?>
<!-- Generator: Adobe Illustrator 27.5.0, SVG Export Plug-In . SVG Version: 6.00 Build 0)  -->
<svg version="1.1" id="Layer_1" xmlns="http://www.w3.org/2000/svg" xmlns:xlink="http://www.w3.org/1999/xlink" x="0px" y="0px"
	 viewBox="0 0 18 18" style="enable-background:new 0 0 18 18;" xml:space="preserve">
<style type="text/css">
	.st0{fill:#FFFFFF;}
</style>
<path class="st0" d="M11.71,6.96V6.49c0-0.41-0.34-0.75-0.75-0.75H9.99c-0.41,0-0.75,0.34-0.75,0.75v5.06
	c0,0.41,0.34,0.75,0.75,0.75c0.08,0,0.14,0.06,0.14,0.14v0.15c0,0.08-0.06,0.14-0.14,0.14H8.06c-0.08,0-0.14-0.06-0.14-0.14v-0.15
	c0-0.08,0.06-0.14,0.14-0.14c0.41,0,0.75-0.34,0.75-0.75V6.49c0-0.41-0.34-0.75-0.75-0.75H7.04c-0.41,0-0.75,0.34-0.75,0.75v0.47
	c0,0.08-0.06,0.14-0.14,0.14H6c-0.08,0-0.14-0.06-0.14-0.14l0.02-1.42c0-0.13,0.11-0.23,0.24-0.23h5.79c0.13,0,0.24,0.11,0.24,0.24
	v1.41c0,0.08-0.06,0.14-0.14,0.14h-0.15C11.77,7.11,11.71,7.04,11.71,6.96L11.71,6.96z M11.9,4.71H6.11c-0.46,0-0.84,0.37-0.84,0.83
	L5.25,6.96c0,0.41,0.34,0.75,0.75,0.75h0.15c0.41,0,0.75-0.34,0.75-0.75V6.49c0-0.08,0.06-0.14,0.14-0.14h1.02
	c0.08,0,0.14,0.06,0.14,0.14v5.06c0,0.08-0.06,0.14-0.14,0.14c-0.41,0-0.75,0.34-0.75,0.75v0.15c0,0.41,0.34,0.75,0.75,0.75h1.92
	c0.41,0,0.75-0.34,0.75-0.75v-0.15c0-0.41-0.34-0.75-0.75-0.75c-0.08,0-0.14-0.06-0.14-0.14l0-5.06c0-0.08,0.06-0.14,0.14-0.14h0.97
	c0.08,0,0.14,0.06,0.14,0.14v0.47c0,0.41,0.34,0.75,0.75,0.75H12c0.41,0,0.75-0.34,0.75-0.75l0-1.41
	C12.74,5.09,12.37,4.71,11.9,4.71z"/>
</svg>
