<?xml version="1.0" encoding="utf-8"?>
<!-- Generator: Adobe Illustrator 27.5.0, SVG Export Plug-In . SVG Version: 6.00 Build 0)  -->
<svg version="1.1" id="Layer_1" xmlns="http://www.w3.org/2000/svg" xmlns:xlink="http://www.w3.org/1999/xlink" x="0px" y="0px"
	 viewBox="0 0 18 18" style="enable-background:new 0 0 18 18;" xml:space="preserve">
<style type="text/css">
	.st0{fill:#CA0928;}
	.st1{fill:#FFFFFF;}
</style>
<path class="st0" d="M13.21,11.02L10.18,5.6C9.95,5.14,9.5,4.91,8.99,4.91S8.03,5.14,7.8,5.6l-3.03,5.42
	c-0.23,0.41-0.23,0.96,0,1.38c0.23,0.41,0.69,0.69,1.19,0.69h6.06c0.5,0,0.92-0.27,1.19-0.69C13.49,11.98,13.44,11.48,13.21,11.02z"
	/>
<path class="st1" d="M8.99,7.58c-0.27,0-0.46,0.18-0.46,0.46v1.38c0,0.27,0.18,0.46,0.46,0.46s0.46-0.18,0.46-0.46V8.04
	C9.45,7.76,9.27,7.58,8.99,7.58z"/>
<path class="st1" d="M9.45,10.79c0,0.61-0.92,0.61-0.92,0C8.53,10.18,9.45,10.18,9.45,10.79"/>
</svg>
