<?xml version="1.0" encoding="utf-8"?>
<!-- Generator: Adobe Illustrator 27.5.0, SVG Export Plug-In . SVG Version: 6.00 Build 0)  -->
<svg version="1.1" id="Layer_1" xmlns="http://www.w3.org/2000/svg" xmlns:xlink="http://www.w3.org/1999/xlink" x="0px" y="0px"
	 viewBox="0 0 1366 768" style="enable-background:new 0 0 1366 768;" xml:space="preserve">
<style type="text/css">
	.st0{fill-rule:evenodd;clip-rule:evenodd;fill:#FFFFFF;}
	.st1{filter:url(#Adobe_OpacityMaskFilter);}
	.st2{mask:url(#b_00000012470768822911951370000001812899752972135603_);}
	.st3{fill:none;stroke:#F7F9FC;stroke-width:5.617;}
	.st4{fill:none;stroke:#F7F9FC;stroke-width:14.043;}
	.st5{filter:url(#Adobe_OpacityMaskFilter_00000061432299521352111890000004850293300546231734_);}
	.st6{mask:url(#b_00000030467421962439234020000010541174573291727237_);fill-rule:evenodd;clip-rule:evenodd;fill:url(#SVGID_1_);}
	.st7{filter:url(#Adobe_OpacityMaskFilter_00000176005567403282816080000014616728979497484988_);}
	.st8{mask:url(#b_00000028299218540361343500000013103492662250095242_);fill-rule:evenodd;clip-rule:evenodd;fill:#FFFFFF;}
</style>
<g>
	<g>
		<path id="a_00000062888162201968643020000012805540171627093937_" class="st0" d="M0.48-2.38h1440v900H0.48V-2.38z"/>
	</g>
	<g>
		<g>
			<path id="a_00000044884518210001891930000003853264713798601602_" class="st0" d="M50.09-2.38h1440v900h-1440V-2.38z"/>
		</g>
		<defs>
			<filter id="Adobe_OpacityMaskFilter" filterUnits="userSpaceOnUse" x="-156.61" y="-501.68" width="1714.3" height="1563.4">
				<feColorMatrix  type="matrix" values="1 0 0 0 0  0 1 0 0 0  0 0 1 0 0  0 0 0 1 0"/>
			</filter>
		</defs>
		
			<mask maskUnits="userSpaceOnUse" x="-156.61" y="-501.68" width="1714.3" height="1563.4" id="b_00000012470768822911951370000001812899752972135603_">
			<g class="st1">
				<path id="a_00000114778621731708533690000013004111457219729590_" class="st0" d="M50.09-2.38h1440v900h-1440V-2.38z"/>
			</g>
		</mask>
		<g class="st2">
			<g>
				<path class="st3" d="M701.25-1.35L502.89,342.22c-3.88,6.72-1.58,15.3,5.14,19.18l100.6,58.08l34.69,59.45"/>
				<path class="st3" d="M440.68-140.71l8.41,4.86l365,210.73 M727.59-125.36l10.49,6.06l455.35,262.9"/>
				<path class="st3" d="M760.66-182.64l8.41,4.86L1065.44-6.68l0.53,150.6 M987.77-110.66l5.5,3.17l238.52,137.71 M422.27-13.35
					c0,0,37.78,103.12,42.43,105.81l254.44,146.9 M402.94,138.11l6.25,3.61L680.23,298.2 M735.69,330.22l6.66,3.85l289.11,166.92
					 M701.15,391.59l4.16,2.4l180.7,104.32 M771.57,269.62l5.41,3.12l234.9,135.62 M855.85,123.64l5.41,3.13l234.9,135.62
					 M376.98,204.43l5.16,2.98L606.2,336.77 M409.73-87.12l4.83,2.79L624.17,36.69 M923.33-300.62L354.67,684.33 M1116.38-250.77
					L531.71,761.91 M1064.3-83.72L586.32,744.16 M1001.55,101.81L651.61,707.94 M1034.83,121.02l-296.6,513.73 M1068.1,140.23
					l-72.55,125.66 M1206.8-100l-147.23,255.02 M709.58,154.99l-435.3,753.96 M543.21,58.94L107.91,812.9 M552.35-157.54
					L458.46,5.08 M362.04-45.66l-0.58,1.01l-50.63,87.69 M321.38-69.14l-51.21,88.7 M841.34-73.23L746.47,91.09
					c-3.88,6.72-12.47,9.02-19.18,5.14l-95.06-54.88"/>
				<path class="st3" d="M637.88-100.77l-32.01,55.44l-85.33,19.72l-24.55,42.53"/>
			</g>
			<g>
				<path class="st4" d="M1306.34-37.61L878.05-284.88c-26.87-15.51-61.22-6.31-76.73,20.56L37.75,1058.21 M1135.98-498.17
					L344.33,873.01 M393.6-365l-544.13,942.45"/>
				<path class="st4" d="M216.84-16.15l171.34,98.92c26.87,15.51,36.07,49.86,20.56,76.73l-180.1,311.94
					c-15.51,26.87-6.31,61.22,20.56,76.73l502.24,289.97 M1186.1-456.91L394.45,914.27 M389.85-46.85l57.27-99.19
					c15.51-26.87,49.86-36.07,76.73-20.56l816.5,471.4 M260.16-116.8l1294.02,747.1 M-6.25,148.26l1294.02,747.1"/>
			</g>
		</g>
		<defs>
			
				<filter id="Adobe_OpacityMaskFilter_00000147921797333104032380000013606608373183996814_" filterUnits="userSpaceOnUse" x="50.09" y="-2.38" width="1440" height="239">
				<feColorMatrix  type="matrix" values="1 0 0 0 0  0 1 0 0 0  0 0 1 0 0  0 0 0 1 0"/>
			</filter>
		</defs>
		
			<mask maskUnits="userSpaceOnUse" x="50.09" y="-2.38" width="1440" height="239" id="b_00000030467421962439234020000010541174573291727237_">
			<g style="filter:url(#Adobe_OpacityMaskFilter_00000147921797333104032380000013606608373183996814_);">
				<path id="a_00000045615936271868303270000005414531677360531130_" class="st0" d="M50.09-2.38h1440v900h-1440V-2.38z"/>
			</g>
		</mask>
		
			<linearGradient id="SVGID_1_" gradientUnits="userSpaceOnUse" x1="0.3528" y1="771.5853" x2="0.3528" y2="770.5853" gradientTransform="matrix(1440 0 0 -239 262 184406.5)">
			<stop  offset="0" style="stop-color:#FFFFFF;stop-opacity:0"/>
			<stop  offset="1" style="stop-color:#FFFFFF"/>
		</linearGradient>
		<path class="st6" d="M50.09-2.38h1440v239h-1440V-2.38z"/>
		<defs>
			
				<filter id="Adobe_OpacityMaskFilter_00000140695358203504326420000014519837752803746216_" filterUnits="userSpaceOnUse" x="50.09" y="236.62" width="1440" height="661">
				<feColorMatrix  type="matrix" values="1 0 0 0 0  0 1 0 0 0  0 0 1 0 0  0 0 0 1 0"/>
			</filter>
		</defs>
		
			<mask maskUnits="userSpaceOnUse" x="50.09" y="236.62" width="1440" height="661" id="b_00000028299218540361343500000013103492662250095242_">
			<g style="filter:url(#Adobe_OpacityMaskFilter_00000140695358203504326420000014519837752803746216_);">
				<path id="a_00000096037379923448329470000016610725205253682343_" class="st0" d="M50.09-2.38h1440v900h-1440V-2.38z"/>
			</g>
		</mask>
		<path class="st8" d="M50.09,236.62h1440v661h-1440V236.62z"/>
	</g>
</g>
</svg>
