<svg xmlns="http://www.w3.org/2000/svg" xmlns:xlink="http://www.w3.org/1999/xlink" viewBox="0 0 1847 462" width="1847" height="462" preserveAspectRatio="xMidYMid meet" style="width: 100%; height: 100%; transform: translate3d(0px, 0px, 0px); content-visibility: visible;"><defs><clipPath id="__lottie_element_2"><rect width="1847" height="462" x="0" y="0"></rect></clipPath></defs><g clip-path="url(#__lottie_element_2)"><g transform="matrix(1,0,0,1,923.5,231)" opacity="1" style="display: block;"><g opacity="1" transform="matrix(1,0,0,1,37.71900177001953,12.913999557495117)"><path fill="rgb(3,15,30)" fill-opacity="1" d=" M961.218994140625,-255.91400146484375 C961.218994140625,-255.91400146484375 961.218994140625,255.91400146484375 961.218994140625,255.91400146484375 C961.218994140625,255.91400146484375 -961.218994140625,255.91400146484375 -961.218994140625,255.91400146484375 C-961.218994140625,255.91400146484375 -961.218994140625,-255.91400146484375 -961.218994140625,-255.91400146484375 C-961.218994140625,-255.91400146484375 961.218994140625,-255.91400146484375 961.218994140625,-255.91400146484375z"></path></g></g><g transform="matrix(0.8799700140953064,0,0,0.8540199995040894,21.016998291015625,-57.51222229003906)" opacity="1" style="display: none;"><g opacity="1" transform="matrix(1,0,0,1,162.6009979248047,163.78900146484375)"><path stroke-linecap="butt" stroke-linejoin="miter" fill-opacity="0" stroke-miterlimit="10" stroke="rgb(251,19,33)" stroke-opacity="1" stroke-width="110" d="M0 0"></path></g><g opacity="1" transform="matrix(1,0,0,1,0,0)"><path fill="rgb(255,0,0)" fill-opacity="1" d="M0 0"></path><path stroke-linecap="butt" stroke-linejoin="miter" fill-opacity="0" stroke-miterlimit="4" stroke="rgb(251,19,33)" stroke-opacity="1" stroke-width="110" d="M0 0"></path></g></g><g style="display: block;" transform="matrix(0.8799700140953064,0,0,0.8540199995040894,21.016998291015625,-57.51222229003906)" opacity="1"><g opacity="1" transform="matrix(1,0,0,1,162.6009979248047,163.78900146484375)"><path stroke-linecap="butt" stroke-linejoin="miter" fill-opacity="0" stroke-miterlimit="10" stroke="rgb(251,19,33)" stroke-opacity="1" stroke-width="110" d=" M-202.80999755859375,-204.57899475097656 C-202.80999755859375,-204.57899475097656 107.60099792480469,108.78800201416016 107.60099792480469,108.78800201416016"></path></g><g opacity="1" transform="matrix(1,0,0,1,0,0)"><path fill="rgb(255,0,0)" fill-opacity="1" d=" M2061,-60.57699966430664"></path><path stroke-linecap="butt" stroke-linejoin="miter" fill-opacity="0" stroke-miterlimit="4" stroke="rgb(251,19,33)" stroke-opacity="1" stroke-width="110" d=" M2061,-60.57699966430664"></path></g></g><g transform="matrix(0.8799700140953064,0,0,0.8540199995040894,9.523681640625,-214.2012176513672)" opacity="1" style="display: block;"><g opacity="1" transform="matrix(1,0,0,1,1127.3990478515625,494.2099914550781)"><path stroke-linecap="butt" stroke-linejoin="miter" fill-opacity="0" stroke-miterlimit="10" stroke="rgb(255,255,255)" stroke-opacity="1" stroke-width="110" d=" M916.4219970703125,-283.1860046386719 C916.4219970703125,-283.1860046386719 517.0150146484375,116.17400360107422 517.0150146484375,116.17400360107422 C480.822998046875,147.14500427246094 438.92401123046875,165.8489990234375 382.4530029296875,165.8489990234375 C323.510986328125,165.8489990234375 269.927001953125,142.36300659179688 232.61000061035156,101.69999694824219 C232.61000061035156,101.69999694824219 59.39400100708008,-78.43800354003906 59.39400100708008,-78.43800354003906 C59.39400100708008,-78.43800354003906 -12.034000396728516,-167.86700439453125 -111.31099700927734,-167.86700439453125 C-226.6820068359375,-167.86700439453125 -289.8110046386719,-88.10299682617188 -300.4179992675781,-77.49600219726562 C-396.6789855957031,18.766000747680664 -492.9410095214844,122.9469985961914 -589.2030029296875,219.20899963378906 C-589.2030029296875,219.20899963378906 -852.3989868164062,-46.893001556396484 -852.3989868164062,-46.893001556396484"></path></g><g opacity="1" transform="matrix(1,0,0,1,0,0)"><path fill="rgb(255,0,0)" fill-opacity="1" d="M0 0"></path><path stroke-linecap="butt" stroke-linejoin="miter" fill-opacity="0" stroke-miterlimit="4" stroke="rgb(255,255,255)" stroke-opacity="1" stroke-width="110" d="M0 0"></path></g><g opacity="1" transform="matrix(1,0,0,1,0,0)"><path fill="rgb(255,0,0)" fill-opacity="1" d="M0 0"></path><path stroke-linecap="butt" stroke-linejoin="miter" fill-opacity="0" stroke-miterlimit="4" stroke="rgb(255,255,255)" stroke-opacity="1" stroke-width="110" d="M0 0"></path></g><g opacity="1" transform="matrix(1,0,0,1,0,0)"><path fill="rgb(255,0,0)" fill-opacity="1" d=" M2034.7030029296875,219.78599548339844"></path><path stroke-linecap="butt" stroke-linejoin="miter" fill-opacity="0" stroke-miterlimit="4" stroke="rgb(255,255,255)" stroke-opacity="1" stroke-width="110" d=" M2034.7030029296875,219.78599548339844"></path></g></g></g></svg>