<?xml version="1.0" encoding="utf-8"?>
<!-- Generator: Adobe Illustrator 27.5.0, SVG Export Plug-In . SVG Version: 6.00 Build 0)  -->
<svg version="1.1" id="Layer_1" xmlns="http://www.w3.org/2000/svg" xmlns:xlink="http://www.w3.org/1999/xlink" x="0px" y="0px"
	 viewBox="0 0 2199.05 795.6" style="enable-background:new 0 0 2199.05 795.6;" xml:space="preserve">
<style type="text/css">
	.st0{fill:#030F1E;}
	.st1{fill-opacity:0;stroke:#B82930;stroke-width:35.0467;stroke-miterlimit:10;}
	.st2{fill:#FF0000;stroke:#B82930;stroke-miterlimit:10;}
	.st3{fill-opacity:0;stroke:#B82930;stroke-width:35.0467;}
	.st4{fill-opacity:0;stroke:#FFFFFF;stroke-width:35.0467;stroke-miterlimit:10;}
	.st5{fill:#FF0000;}
	.st6{fill-opacity:0;stroke:#FFFFFF;stroke-width:35.0467;}
</style>
<circle class="st0" cx="397.8" cy="397.8" r="397.8"/>
<g>
	<g transform="matrix(0.8799700140953064,0,0,0.8540199995040894,21.016998291015625,-57.51222229003906)">
		<g transform="matrix(1,0,0,1,162.6009979248047,163.78900146484375)">
			<path class="st1" d="M-69.16,301.16L29.74,401"/>
		</g>
		<g transform="matrix(1,0,0,1,0,0)">
			<path class="st2" d="M762.9,458.64"/>
			<path class="st3" d="M762.9,458.64"/>
		</g>
	</g>
	<g transform="matrix(0.8799700140953064,0,0,0.8540199995040894,9.523681640625,-214.2012176513672)">
		<g transform="matrix(1,0,0,1,1127.3990478515625,494.2099914550781)">
			<path class="st4" d="M-361.07,175.98l-127.25,127.24c-11.53,9.87-24.88,15.83-42.87,15.83c-18.78,0-35.85-7.48-47.74-20.44
				l-55.19-57.39c0,0-22.76-28.49-54.39-28.49c-36.76,0-56.87,25.41-60.25,28.79c-30.67,30.67-61.34,63.86-92.01,94.53l-83.86-84.78
				"/>
		</g>
		<g transform="matrix(1,0,0,1,0,0)">
			<path class="st5" d="M115.16,602.96"/>
			<path class="st6" d="M115.16,602.96"/>
		</g>
		<g transform="matrix(1,0,0,1,0,0)">
			<path class="st5" d="M115.16,602.96"/>
			<path class="st6" d="M115.16,602.96"/>
		</g>
		<g transform="matrix(1,0,0,1,0,0)">
			<path class="st5" d="M763.42,672.98"/>
			<path class="st6" d="M763.42,672.98"/>
		</g>
	</g>
</g>
<path class="st0" d="M1369.15,251.89l-113.4,299.7h-29.7l-77.4-196.2l-77.4,196.2h-30.15l-113.85-299.7h65.7l65.7,184.95
	l74.7-187.65h30.15l74.25,187.2l65.7-184.5H1369.15z"/>
<path class="st0" d="M1564.9,494.89h-132.75l-23.85,54h-65.25l140.4-299.7h30.15l140.4,299.7h-65.25L1564.9,494.89z M1454.2,444.94
	h88.65l-44.1-102.15L1454.2,444.94z"/>
<path class="st0" d="M1918.59,251.89l-133.2,299.7h-30.15l-133.65-299.7h68.4l80.1,192.15l80.1-192.15H1918.59z"/>
<path class="st0" d="M1956.39,251.89h216.9v54.9h-156.15v64.8h141.75v51.75h-141.75v70.65h158.4v54.9h-219.15V251.89z"/>
</svg>
