<?xml version="1.0" encoding="UTF-8"?>
<svg width="24px" height="24px" viewBox="0 0 24 24" version="1.1" xmlns="http://www.w3.org/2000/svg" xmlns:xlink="http://www.w3.org/1999/xlink">
    <!-- Generator: Sketch 62 (91390) - https://sketch.com -->
    <title>icons / 24x24 / brands / american-express colored</title>
    <desc>Created with Sketch.</desc>
    <g id="icons-/-24x24-/-brands-/-american-express-colored" stroke="none" stroke-width="1" fill="none" fill-rule="evenodd">
        <g id="icon">
            <polygon id="frame-shape" fill="#016FD0" points="20 4 20 20 4 20 4 4.00691805"></polygon>
            <path d="M9.75585501,12.6404725 L10.0399384,13.0119223 L10.3334156,12.6404725 L20,12.6404725 L20,14.9503294 C20,14.9503294 19.6930363,15.146223 19.4023457,15.1487311 L14.0805563,15.1487311 L13.7602635,14.7533405 L13.7602635,15.1487311 L12.7106882,15.1487311 L12.7106882,14.4737874 C12.7106882,14.4737874 12.5673147,14.5680016 12.2573507,14.5680016 L11.9001009,14.5680016 L11.9001009,15.1487311 L10.3109554,15.1487311 L10.0272779,14.7693149 L9.73924487,15.1487311 L7.10802635,15.1487311 L7.10802635,12.6404725 L9.75585501,12.6404725 Z M12.1457102,12.9496889 L11.1116877,12.9496889 L11.1116877,14.8277926 L11.5921269,14.8277926 L11.5921269,14.2347067 L12.0848853,14.2347067 C12.5018285,14.2347067 12.8178632,14.0128464 12.8178632,13.5813862 C12.8178632,13.2239664 12.5699955,12.9496889 12.1457102,12.9496889 Z M19.9624735,12.9493718 L19.0508709,12.9493718 C18.5040334,12.9493718 18.3163531,13.2397758 18.3163531,13.5409137 C18.3163531,13.8785393 18.5212987,14.1034186 18.8892941,14.1034186 L18.8892941,14.1034186 L19.3126483,14.1034186 C19.4514587,14.1034186 19.5112926,14.1832392 19.5112926,14.2621918 C19.5112926,14.3445958 19.4512703,14.4197301 19.3126483,14.4197301 L19.3126483,14.4197301 L18.3757921,14.4197301 L18.3757921,14.8274771 L19.3734691,14.8274771 C19.785675,14.8274771 19.9840319,14.5583471 19.9840319,14.2297578 C19.9840319,13.9241209 19.8060263,13.6907291 19.395802,13.6907291 L19.395802,13.6907291 L18.9523192,13.6907291 C18.8371848,13.6907291 18.7798539,13.6048705 18.7798539,13.5270134 C18.7798539,13.4512657 18.8262473,13.3719447 18.9769571,13.3719447 L18.9769571,13.3719447 L19.7653701,13.3719447 L19.9624735,12.9493718 Z M18.2443641,12.9493718 L17.3327612,12.9493718 C16.7859237,12.9493718 16.5982434,13.2397758 16.5982434,13.5409137 C16.5982434,13.8785393 16.8031888,14.1034186 17.1711842,14.1034186 L17.1711842,14.1034186 L17.5945391,14.1034186 C17.7333495,14.1034186 17.7931823,14.1832392 17.7931823,14.2621918 C17.7931823,14.3445958 17.7331602,14.4197301 17.5945391,14.4197301 L17.5945391,14.4197301 L16.6576822,14.4197301 L16.6576822,14.8274771 L17.65536,14.8274771 C18.067565,14.8274771 18.2659222,14.5583471 18.2659222,14.2297578 C18.2659222,13.9241209 18.0879162,13.6907291 17.677692,13.6907291 L17.677692,13.6907291 L17.2342095,13.6907291 C17.1190751,13.6907291 17.061744,13.6048705 17.061744,13.5270134 C17.061744,13.4512657 17.1081375,13.3719447 17.2588474,13.3719447 L17.2588474,13.3719447 L18.0472607,13.3719447 L18.2443641,12.9493718 Z M16.4408687,12.9493718 L14.9133178,12.9493718 L14.9133178,14.8274771 L16.4408687,14.8274771 L16.4408687,14.4197301 L15.3863658,14.4197301 L15.3863658,14.0861197 L16.4113032,14.0861197 L16.4113032,13.6907291 L15.3863658,13.6907291 L15.3863658,13.3694751 L16.4408687,13.3694751 L16.4408687,12.9493718 Z M14.0628479,12.9493718 L13.0211261,12.9493718 L13.0211261,14.8274771 L13.4892465,14.8274771 L13.4892465,14.1602547 L13.6863497,14.1602547 L14.2476323,14.8274771 L14.8196939,14.8274771 L14.2037459,14.1355435 C14.4565346,14.1141445 14.7172925,13.8965317 14.7172925,13.5586739 C14.7172925,13.1634563 14.4080187,12.9493718 14.0628479,12.9493718 Z M9.58721661,12.9493718 L8.99744655,12.9493718 L9.7589121,13.9000072 L9.01515497,14.8274771 L9.59645589,14.8274771 L10.0260795,14.2490619 L10.4664048,14.8274771 L11.0560816,14.8274771 L10.3109554,13.8884244 L11.0624118,12.9493718 L10.4957397,12.9493718 L10.0407082,13.5370507 L9.58721661,12.9493718 Z M8.95587002,12.9493718 L7.42831936,12.9493718 L7.42831936,14.8274771 L8.95587002,14.8274771 L8.95587002,14.4197301 L7.90136735,14.4197301 L7.90136735,14.0861197 L8.9312321,14.0861197 L8.9312321,13.6907291 L7.90136735,13.6907291 L7.90136735,13.3694751 L8.95587002,13.3694751 L8.95587002,12.9493718 Z M12.111063,13.374424 C12.245761,13.374424 12.3420434,13.4572284 12.3420434,13.5906531 C12.3420434,13.7159976 12.246247,13.8068821 12.1095232,13.8068821 L11.5921269,13.8068821 L11.5921269,13.374424 L12.111063,13.374424 Z M14.0243511,13.3694751 C14.1527154,13.3694751 14.2460923,13.4701854 14.2460923,13.5671688 C14.2460923,13.6919431 14.1251066,13.7648641 14.0312805,13.7648641 L13.4892465,13.7648641 L13.4892465,13.3694751 L14.0243511,13.3694751 Z M5.64567872,9.35379059 L5.98453749,10.1358975 L5.98453749,9.35379059 L7.26817293,9.35379059 L7.46989573,9.91907427 L7.66545916,9.35379059 L13.4276516,9.35379059 L13.4276516,9.63797718 C13.4276516,9.63797718 13.730565,9.35379059 14.2283839,9.35379059 L16.0980045,9.36034434 L16.4310135,10.1322154 L16.4310135,9.35379059 L17.5052265,9.35379059 L17.8008816,9.79716837 L17.8008816,9.35379059 L18.8849498,9.35379059 L18.8849498,11.8620476 L17.8008816,11.8620476 L17.5175455,11.4172332 L17.5175455,11.8620476 L15.9392885,11.8620476 L15.7805725,11.4666571 L15.3562838,11.4666571 L15.2001511,11.8620476 L14.1298322,11.8620476 C13.7014747,11.8620476 13.4276516,11.5836637 13.4276516,11.5836637 L13.4276516,11.8620476 L11.8138683,11.8620476 L11.4935752,11.4666571 L11.4935752,11.8620476 L5.49270307,11.8620476 L5.33409645,11.4666571 L4.91116072,11.4666571 L4.75367505,11.8620476 L4,11.8620476 L4,10.7500124 L4.61306387,9.35379059 L5.64567872,9.35379059 Z M10.4834208,9.66268829 L8.95587002,9.66268829 L8.95587002,11.5407936 L10.4834208,11.5407936 L10.4834208,11.1330466 L9.428918,11.1330466 L9.428918,10.7994362 L10.4587829,10.7994362 L10.4587829,10.4040456 L9.428918,10.4040456 L9.428918,10.0827916 L10.4834208,10.0827916 L10.4834208,9.66268829 Z M11.7961597,9.66300541 L10.7544378,9.66300541 L10.7544378,11.5411091 L11.2225582,11.5411091 L11.2225582,10.8738883 L11.4196615,10.8738883 L11.980944,11.5411091 L12.5530057,11.5411091 L11.9370577,10.8491772 C12.1898465,10.8277814 12.4506042,10.6101654 12.4506042,10.2723091 C12.4506042,9.87708989 12.1413305,9.66300541 11.7961597,9.66300541 Z M17.3366108,9.66268829 L16.7414512,9.66268829 L16.7414512,11.5407936 L17.2095716,11.5407936 L17.2095716,10.3299107 L17.9887457,11.5407936 L18.5646569,11.5407936 L18.5646569,9.66268829 L18.0965365,9.66268829 L18.0965365,10.8426827 L17.3366108,9.66268829 Z M13.1196778,9.66268829 L12.6417022,9.66268829 L12.6417022,11.5407936 L13.1196778,11.5407936 L13.1196778,9.66268829 Z M14.795056,9.66268829 L14.2776597,9.66268829 C13.647268,9.66268829 13.3475784,10.0593329 13.3475784,10.6094639 C13.3475784,11.1463319 13.6506614,11.5407936 14.1498505,11.5407936 L14.1498505,11.5407936 L14.2530218,11.5407936 L14.450125,11.1305754 L14.3269356,11.1305754 C14.0288022,11.1305754 13.8218582,10.9778146 13.8218582,10.6140973 C13.8218582,10.3078102 14.0028393,10.1075027 14.2587435,10.1075027 L14.2587435,10.1075027 L14.795056,10.1075027 L14.795056,9.66268829 Z M15.8822039,9.66300541 L15.2716455,9.66300541 L14.4662938,11.5411091 L14.9906194,11.5411091 L15.1392168,11.1650274 L16.0030838,11.1650274 L16.1509111,11.5411091 L16.6867858,11.5411091 L15.8822039,9.66300541 Z M8.63557717,9.66268829 L7.89643976,9.66268829 L7.47344415,10.8763467 L7.04007106,9.66546386 L6.29497517,9.66268829 L6.29497517,11.5407936 L6.76309557,11.5407936 L6.76309557,10.1569265 L7.26069669,11.5407936 L7.67123928,11.5407936 L8.16745677,10.1569265 L8.16745677,11.5407936 L8.63557717,11.5407936 L8.63557717,9.66268829 Z M5.43495792,9.66300541 L4.82439968,9.66300541 L4.01904781,11.5411091 L4.54337343,11.5411091 L4.69197086,11.1650274 L5.55583776,11.1650274 L5.70366531,11.5411091 L6.23953996,11.5411091 L5.43495792,9.66300541 Z M15.5696104,10.1000969 L15.8329281,10.7572805 L15.3055227,10.7572805 L15.5696104,10.1000969 Z M5.12236439,10.1000969 L5.38568224,10.7572805 L4.85827673,10.7572805 L5.12236439,10.1000969 Z M11.7576629,10.0831071 C11.8860271,10.0831071 11.9794042,10.183819 11.9794042,10.2808024 C11.9794042,10.4055752 11.8584185,10.4784977 11.7645924,10.4784977 L11.2225582,10.4784977 L11.2225582,10.0831071 L11.7576629,10.0831071 Z" id="name-shape" fill="#FFFFFF" fill-rule="nonzero"></path>
        </g>
    </g>
</svg>