<svg width="24" height="24" viewBox="0 0 24 24" fill="none" xmlns="http://www.w3.org/2000/svg">
<path d="M20 12.6404V4L4 4.00692V10.75L4.61306 9.35376H5.64568L5.98454 10.1359V9.35376H7.26817L7.4699 9.91904L7.66546 9.35376H13.4277V9.63795C13.4277 9.63795 13.7306 9.35376 14.2284 9.35376L16.098 9.36031L16.431 10.1322V9.35376H17.5052L17.8009 9.79714V9.35376H18.885V11.862H17.8009L17.5175 11.4172V11.862H15.9393L15.7806 11.4666H15.3563L15.2002 11.862H14.1298C13.7015 11.862 13.4277 11.5836 13.4277 11.5836V11.862H11.8139L11.4936 11.4666V11.862H5.4927L5.3341 11.4666H4.91116L4.75367 11.862H4V20H20V14.9503C20 14.9503 19.693 15.1462 19.4023 15.1487H14.0806L13.7603 14.7533V15.1487H12.7107V14.4738C12.7107 14.4738 12.5673 14.568 12.2574 14.568H11.9001V15.1487H10.311L10.0273 14.7693L9.73924 15.1487H7.10803V12.6404H9.75585L10.0399 13.0119L10.3334 12.6404H20Z" fill="#016FD0"/>
<path fill-rule="evenodd" clip-rule="evenodd" d="M11.1117 12.9497H12.1457C12.57 12.9497 12.8179 13.2239 12.8179 13.5814C12.8179 14.0128 12.5018 14.2347 12.0849 14.2347H11.5921V14.8278H11.1117V12.9497ZM12.342 13.5906C12.342 13.4572 12.2458 13.3744 12.1111 13.3744H11.5921V13.8069H12.1095C12.2462 13.8069 12.342 13.716 12.342 13.5906Z" fill="#016FD0"/>
<path d="M19.0509 12.9493H19.9625L19.7654 13.3719H18.977C18.8262 13.3719 18.7799 13.4512 18.7799 13.527C18.7799 13.6048 18.8372 13.6907 18.9523 13.6907H19.3958C19.806 13.6907 19.984 13.9241 19.984 14.2297C19.984 14.5583 19.7857 14.8274 19.3735 14.8274H18.3758V14.4197H19.3126C19.4513 14.4197 19.5113 14.3446 19.5113 14.2622C19.5113 14.1832 19.4515 14.1034 19.3126 14.1034H18.8893C18.5213 14.1034 18.3164 13.8785 18.3164 13.5409C18.3164 13.2397 18.504 12.9493 19.0509 12.9493Z" fill="#016FD0"/>
<path d="M17.3328 12.9493H18.2444L18.0473 13.3719H17.2588C17.1081 13.3719 17.0617 13.4512 17.0617 13.527C17.0617 13.6048 17.1191 13.6907 17.2342 13.6907H17.6777C18.0879 13.6907 18.2659 13.9241 18.2659 14.2297C18.2659 14.5583 18.0676 14.8274 17.6554 14.8274H16.6577V14.4197H17.5945C17.7332 14.4197 17.7932 14.3446 17.7932 14.2622C17.7932 14.1832 17.7333 14.1034 17.5945 14.1034H17.1712C16.8032 14.1034 16.5982 13.8785 16.5982 13.5409C16.5982 13.2397 16.7859 12.9493 17.3328 12.9493Z" fill="#016FD0"/>
<path d="M14.9133 12.9493H16.4409V13.3694H15.3864V13.6907H16.4113V14.0861H15.3864V14.4197H16.4409V14.8274H14.9133V12.9493Z" fill="#016FD0"/>
<path fill-rule="evenodd" clip-rule="evenodd" d="M13.0211 12.9493H14.0628C14.408 12.9493 14.7173 13.1634 14.7173 13.5586C14.7173 13.8965 14.4565 14.1141 14.2037 14.1355L14.8197 14.8274H14.2476L13.6863 14.1602H13.4892V14.8274H13.0211V12.9493ZM14.2461 13.5671C14.2461 13.4702 14.1527 13.3694 14.0244 13.3694H13.4892V13.7648H14.0313C14.1251 13.7648 14.2461 13.6919 14.2461 13.5671Z" fill="#016FD0"/>
<path d="M8.99745 12.9493H9.58722L10.0407 13.537L10.4957 12.9493H11.0624L10.311 13.8884L11.0561 14.8274H10.4664L10.0261 14.249L9.59646 14.8274H9.01515L9.75891 13.9L8.99745 12.9493Z" fill="#016FD0"/>
<path d="M7.42832 12.9493H8.95587V13.3694H7.90137V13.6907H8.93123V14.0861H7.90137V14.4197H8.95587V14.8274H7.42832V12.9493Z" fill="#016FD0"/>
<path d="M8.95587 9.66266H10.4834V10.0828H9.42892V10.404H10.4588V10.7994H9.42892V11.133H10.4834V11.5408H8.95587V9.66266Z" fill="#016FD0"/>
<path fill-rule="evenodd" clip-rule="evenodd" d="M10.7544 9.66298H11.7962C12.1413 9.66298 12.4506 9.87706 12.4506 10.2723C12.4506 10.6101 12.1898 10.8278 11.9371 10.8491L12.553 11.5411H11.9809L11.4197 10.8739H11.2226V11.5411H10.7544V9.66298ZM11.9794 10.2808C11.9794 10.1838 11.886 10.0831 11.7577 10.0831H11.2226V10.4785H11.7646C11.8584 10.4785 11.9794 10.4055 11.9794 10.2808Z" fill="#016FD0"/>
<path d="M16.7415 9.66266H17.3366L18.0965 10.8427V9.66266H18.5647V11.5408H17.9887L17.2096 10.3299V11.5408H16.7415V9.66266Z" fill="#016FD0"/>
<path d="M12.6417 9.66266H13.1197V11.5408H12.6417V9.66266Z" fill="#016FD0"/>
<path d="M14.2777 9.66266H14.7951V10.1075H14.2587C14.0028 10.1075 13.8219 10.3078 13.8219 10.6141C13.8219 10.9778 14.0288 11.1305 14.3269 11.1305H14.4501L14.253 11.5408H14.1499C13.6507 11.5408 13.3476 11.1463 13.3476 10.6094C13.3476 10.0593 13.6473 9.66266 14.2777 9.66266Z" fill="#016FD0"/>
<path fill-rule="evenodd" clip-rule="evenodd" d="M15.2716 9.66298H15.8822L16.6868 11.5411H16.1509L16.0031 11.165H15.1392L14.9906 11.5411H14.4663L15.2716 9.66298ZM15.8329 10.7572L15.5696 10.1001L15.3055 10.7572H15.8329Z" fill="#016FD0"/>
<path d="M7.89644 9.66266H8.63558V11.5408H8.16746V10.1569L7.67124 11.5408H7.2607L6.7631 10.1569V11.5408H6.29498V9.66266L7.04007 9.66543L7.47344 10.8763L7.89644 9.66266Z" fill="#016FD0"/>
<path fill-rule="evenodd" clip-rule="evenodd" d="M4.8244 9.66298H5.43496L6.23954 11.5411H5.70367L5.55584 11.165H4.69197L4.54337 11.5411H4.01905L4.8244 9.66298ZM5.38568 10.7572L5.12236 10.1001L4.85828 10.7572H5.38568Z" fill="#016FD0"/>
</svg>
