<svg width="24" height="24" viewBox="0 0 24 24" fill="none" xmlns="http://www.w3.org/2000/svg">
<path d="M22.5 4.5C23.3284 4.5 24 5.17157 24 6V18C24 18.8284 23.3284 19.5 22.5 19.5H1.5C0.671573 19.5 0 18.8284 0 18V6C0 5.17157 0.671573 4.5 1.5 4.5H22.5ZM22.5 5H1.5C0.947715 5 0.5 5.44772 0.5 6V18C0.5 18.5523 0.947715 19 1.5 19H22.5C23.0523 19 23.5 18.5523 23.5 18V6C23.5 5.44772 23.0523 5 22.5 5ZM17.9788 10.4848L18.971 13.6516H18.9897L19.9819 10.4848H20.8388L19.3618 14.5847C19.0236 15.525 18.6365 15.8336 17.8172 15.8336C17.7534 15.8336 17.5466 15.8262 17.4903 15.8112V15.1683C17.5429 15.1756 17.6707 15.183 17.7383 15.183C18.1104 15.183 18.3208 15.027 18.4486 14.6255L18.5238 14.3876L17.0994 10.4848H17.9788ZM6.59082 10.0092C6.77868 10.0236 7.32058 10.0808 7.66739 10.5882C7.63849 10.6099 7.02434 10.9601 7.03164 11.6965C7.03881 12.5759 7.81175 12.8692 7.81901 12.8764C7.81175 12.898 7.6964 13.2913 7.41458 13.6986C7.16892 14.0563 6.91596 14.4066 6.51134 14.4138C6.12117 14.4209 5.99104 14.1849 5.54333 14.1849C5.0953 14.1849 4.95084 14.4066 4.58225 14.4209C4.19213 14.435 3.89608 14.0416 3.65041 13.6843C3.14455 12.962 2.76163 11.6466 3.28183 10.7598C3.53475 10.3165 3.9972 10.0378 4.49559 10.0306C4.87851 10.0236 5.23255 10.281 5.46386 10.281C5.69507 10.281 6.10668 9.98073 6.59082 10.0092ZM15.1855 10.4365C16.1475 10.4365 16.7751 10.9345 16.7751 11.7076V14.3764H15.9972V13.7335H15.9784C15.7567 14.1535 15.2681 14.4173 14.7382 14.4173C13.9566 14.4173 13.4117 13.9564 13.4117 13.2651C13.4117 12.5774 13.9416 12.1834 14.9186 12.124L15.9671 12.0608V11.7634C15.9671 11.3285 15.6777 11.0906 15.1629 11.0906C14.7382 11.0906 14.4301 11.3062 14.3662 11.637H13.607C13.6296 10.9419 14.291 10.4365 15.1855 10.4365ZM11.4178 9.01278C12.4701 9.01278 13.2028 9.73018 13.2028 10.7747C13.2028 11.8229 12.4551 12.544 11.3915 12.544H10.2265V14.3764H9.38465V9.01278H11.4178ZM15.9671 12.6183L15.0314 12.6778C14.5052 12.7112 14.2309 12.9045 14.2309 13.2428C14.2309 13.5699 14.5165 13.7818 14.9637 13.7818C15.5349 13.7818 15.9671 13.4212 15.9671 12.9194V12.6183ZM11.1961 9.71533H10.2265V11.8452H11.1923C11.9251 11.8452 12.3422 11.4549 12.3422 10.7784C12.3422 10.1019 11.9251 9.71533 11.1961 9.71533ZM6.59461 8.60377C6.63091 8.94813 6.49324 9.28512 6.29037 9.53608C6.0802 9.78003 5.74713 9.97343 5.41376 9.94483C5.3703 9.61491 5.53705 9.26381 5.72543 9.04873C5.93524 8.79755 6.29763 8.61839 6.59461 8.60377Z" fill="black"/>
</svg>
