<svg width="24" height="24" viewBox="0 0 24 24" fill="none" xmlns="http://www.w3.org/2000/svg">
<path d="M19.93 8.82217C18.7377 7.07795 16.8747 6.88134 16.2289 6.8319C14.5644 6.73385 13.1494 7.76618 12.3545 7.76618C11.5593 7.76618 10.3421 6.88134 9.02567 6.90516C7.31225 6.93005 5.7224 7.88826 4.85287 9.41222C3.0645 12.461 4.38092 16.9833 6.12004 19.4663C6.96462 20.6948 7.98242 22.0473 9.3236 21.9987C10.5908 21.9496 11.0874 21.1872 12.6277 21.1872C14.1669 21.1872 14.6143 21.9987 15.9556 21.9741C17.3467 21.9496 18.2163 20.7451 19.0609 19.5155C20.0297 18.1152 20.4263 16.763 20.4513 16.6888C20.4263 16.6642 17.769 15.6559 17.7444 12.6325C17.7192 10.101 19.8307 8.89684 19.93 8.82217Z" fill="black"/>
<path d="M15.1959 5.20519C15.8934 4.34241 16.3667 3.18388 16.2419 2C15.2209 2.05026 13.9751 2.6662 13.2537 3.52973C12.6061 4.26915 12.0328 5.4762 12.1823 6.61043C13.3283 6.70876 14.4734 6.04387 15.1959 5.20519Z" fill="black"/>
</svg>
