<svg width="24" height="24" viewBox="0 0 24 24"  xmlns="http://www.w3.org/2000/svg">
<path d="M4 21V18.3635H6.13141V5.63753H4V3H12.5278C16.4433 3 18.8288 4.76824 18.8288 7.84094C18.8288 9.858 17.6196 11.1 16.0928 11.6887C18.2878 12.2795 19.8474 13.7989 19.8474 15.8785C19.8474 19.1682 17.2385 20.9989 12.9746 20.9989H4V21ZM9.06012 5.63859V10.542H12.2419C14.6285 10.542 15.8694 9.67271 15.8694 8.08977C15.8694 6.47612 14.5967 5.63753 12.2101 5.63753H9.06118L9.06012 5.63859ZM9.06012 18.3625H12.6876C15.4893 18.3625 16.8891 17.4625 16.8891 15.7249C16.8891 14.0171 15.3919 13.0874 12.4653 13.0874H9.06012V18.3625Z" fill="#001E3E"/>
</svg>
