<?xml version="1.0" encoding="UTF-8"?>
<svg width="24px" height="24px" viewBox="0 0 24 24" version="1.1" xmlns="http://www.w3.org/2000/svg" xmlns:xlink="http://www.w3.org/1999/xlink">
    <!-- Generator: Sketch 62 (91390) - https://sketch.com -->
    <title>icons / 24x24 / brands / miles and more</title>
    <desc>Created with Sketch.</desc>
    <defs>
        <path d="M12,22 C6.50255319,22 2,17.4991489 2,12.0038298 C2,6.50808511 6.50255319,2 12,2 C17.4974468,2 22,6.50808511 22,12.0038298 C22,17.4923404 17.4974468,22 12,22 L12,22 Z M17.9276602,5.4327976 C16.3093658,3.9808835 14.1808598,3.15918182 12.0055455,3.15918182 C9.51874238,3.15918182 7.09832214,4.23960676 5.42726197,6.08896745 C3.97492472,7.7000304 3.15918182,9.83449732 3.15918182,12.0089642 C3.15918182,14.4949203 4.23364755,16.9144934 6.08385627,18.5787479 C7.70172508,20.0370449 9.83703956,20.8523636 12.0055455,20.8523636 C14.4923485,20.8523636 16.9127688,19.7783217 18.577446,17.928961 C20.0361662,16.3115151 20.8519091,14.1766226 20.8519091,12.0089642 C20.8519091,9.51662515 19.7778689,7.09662647 17.9276602,5.4327976 L17.9276602,5.4327976 Z M19.9149433,11.3715042 C18.4621754,10.9549105 16.9638756,10.6293801 15.4528098,10.5383168 L15.2834479,10.7791666 C16.5145133,10.8638471 17.7455788,11.0787396 18.9379207,11.3910785 L19.3613255,11.5017163 L19.6672834,11.5800138 L19.1787721,11.9966075 C17.7783448,11.6191625 16.3255769,11.3523553 14.8664261,11.3455469 L14.7166387,11.5344821 C16.156215,11.5863967 17.5566423,11.8472465 18.9574952,12.1791598 L18.5013244,12.5634132 C17.1204716,12.2766061 15.7328102,12.1008623 14.3191913,12.0812879 L14.1757869,12.2766061 L14.4557873,12.2766061 C15.6089802,12.2766061 16.7749392,12.445967 17.9021747,12.6804339 L18.2800475,12.7651144 L17.8043022,13.1625592 C16.9574926,12.9995813 16.0974915,12.8953265 15.2311074,12.8953265 C14.0979145,12.8953265 12.93153,13.1038361 11.9021669,13.5923444 C13.1272749,14.9468058 14.8140856,16.0731833 16.7034497,16.0731833 L16.7230242,16.0731833 L16.110683,16.7638182 C13.8174886,16.0668003 11.7068475,14.9076571 9.75280243,13.5336212 C8.67790742,12.7783058 7.68088485,11.9055441 6.59960685,11.1566116 C5.85066971,10.642146 5.08854106,10.1736377 4.28045491,9.76342694 L4.00045455,9.62002339 L4.20258247,9.26172727 L5.24471148,9.78938426 L5.47279688,9.3919394 L9.49195103,11.6583113 L9.38769558,11.8472465 L7.04939467,10.7072521 C7.94811924,11.5085248 9.05578025,12.3617121 10.3196117,12.3617121 C11.7787625,12.3617121 12.9511045,11.2089518 13.5894032,9.9910854 C13.921744,9.96512808 14.2540849,9.93917076 14.5928087,9.93917076 C16.2928109,9.93917076 18.0583451,10.271084 19.6932409,10.7464009 L20.2536671,10.9093788 L20.4034545,10.9485275 L19.9149433,11.3715042 L19.9149433,11.3715042 Z" id="path-1"></path>
    </defs>
    <g id="icons-/-24x24-/-brands-/-miles-and-more" stroke="none" stroke-width="1" fill="none" fill-rule="evenodd">
        <g id="icon">
            <mask id="mask-2" fill="white">
                <use xlink:href="#path-1"></use>
            </mask>
            <use id="shape" fill="#001E3E" fill-rule="nonzero" xlink:href="#path-1"></use>
        </g>
    </g>
</svg>