<svg width="24" height="24" viewBox="0 0 24 24" fill="none" xmlns="http://www.w3.org/2000/svg">
<path d="M20.8595 1H3.1405C2.5105 1 2 1.5185 2 2.158V21.842C2 22.4815 2.5105 23 3.1405 23H20.8595C21.4895 23 22 22.4815 22 21.842V2.158C22 1.5185 21.4895 1 20.8595 1ZM5.81669 20.006C6.05305 20.006 6.2586 19.8615 6.35456 19.672L6.77222 19.8755C6.60808 20.161 6.32021 20.4395 5.81669 20.4395C5.13186 20.4395 4.60056 19.9575 4.60056 19.2525C4.60056 18.5465 5.13186 18.0645 5.81669 18.0645C6.32021 18.0645 6.61111 18.34 6.77222 18.626L6.35456 18.832C6.2586 18.646 6.05305 18.4985 5.81669 18.4985C5.40205 18.4985 5.10105 18.8185 5.10105 19.2525C5.10105 19.6855 5.40205 20.006 5.81669 20.006ZM8.25296 20.4395C7.56459 20.4395 7.06056 19.9435 7.06056 19.2525C7.06056 18.56 7.56459 18.0645 8.25296 18.0645C8.94487 18.0645 9.44789 18.56 9.44789 19.2525C9.44789 19.9435 8.94487 20.4395 8.25296 20.4395ZM11.9859 20.414H11.5152L10.4112 18.9015V20.414H9.95056V18.0985H10.4399L11.4864 19.5445V18.0985H11.9859V20.414ZM13.6909 20.006C13.9273 20.006 14.1329 19.8615 14.2288 19.672L14.647 19.8755C14.4829 20.161 14.195 20.4395 13.6909 20.4395C13.0066 20.4395 12.4758 19.9575 12.4758 19.2525C12.4758 18.5465 13.0066 18.0645 13.6909 18.0645C14.195 18.0645 14.4859 18.34 14.647 18.626L14.2288 18.832C14.1329 18.646 13.9273 18.4985 13.6909 18.4985C13.2773 18.4985 12.9758 18.8185 12.9758 19.2525C12.9758 19.6855 13.2773 20.006 13.6909 20.006ZM14.8667 15.4875C14.0611 15.982 12.7738 16.251 11.7157 16.259C8.01618 16.286 5.13789 13.381 5.13789 9.95202C5.13789 6.21502 8.06365 3.48902 11.5924 3.61352C13.0374 3.61352 14.3844 4.12852 15.3217 4.73652C15.5687 4.89702 15.5642 4.97452 15.5116 5.04802C15.3041 5.33802 14.7384 6.17902 14.4536 6.76952C14.4536 6.76952 14.3773 6.92252 14.2222 6.82052C13.6172 6.42302 12.8005 6.03602 11.4495 6.03602C9.36214 6.03602 7.77325 7.67602 7.77325 9.90752C7.77325 12.14 9.62628 13.804 11.7132 13.8005C12.4329 13.799 13.1808 13.543 13.4359 13.449C13.5601 13.4035 13.6132 13.518 13.6132 13.518C14.1142 14.5895 14.7808 15.084 14.9354 15.2995C15.0137 15.409 14.8667 15.4875 14.8667 15.4875ZM17.0939 19.4795C17.0939 20.0505 16.7712 20.4395 16.0757 20.4395C15.3808 20.4395 15.0586 20.0475 15.0586 19.4825V18.0985H15.5575V19.466C15.5575 19.7855 15.7434 20.006 16.0969 20.006C16.4495 20.006 16.6328 19.7855 16.6328 19.466V18.0985H17.0939V19.4795ZM15.5238 12.1916C15.5238 11.1965 16.3263 10.39 17.3172 10.39C18.3076 10.39 19.1107 11.1965 19.1107 12.1916C19.1107 13.1876 18.3076 13.9941 17.3172 13.9941C16.3263 13.9941 15.5238 13.1876 15.5238 12.1916ZM18.9637 20.414L18.5152 19.565H18.1692V20.414H17.6702V18.0985H18.741C19.2167 18.0985 19.5081 18.4135 19.5081 18.8405C19.5081 19.2465 19.2546 19.4725 19.0081 19.5305L19.5218 20.414H18.9637ZM8.25296 18.4985C8.67416 18.4985 8.94789 18.8225 8.94789 19.2525C8.94789 19.6785 8.67416 20.006 8.25296 20.006C7.83176 20.006 7.56056 19.6785 7.56056 19.2525C7.56056 18.8225 7.83176 18.4985 8.25296 18.4985ZM18.6692 18.523C18.8647 18.523 19.0111 18.6385 19.0111 18.8315C19.0111 19.024 18.8647 19.1405 18.6692 19.1405H18.1692V18.523H18.6692Z" fill="#001E3E"/>
</svg>
