<svg width="24" height="24" viewBox="0 0 24 24"  xmlns="http://www.w3.org/2000/svg">
<path d="M19 5.63636C19 7.64467 17.3285 9.27273 15.2667 9.27273C13.2048 9.27273 11.5333 7.64467 11.5333 5.63636C11.5333 3.62806 13.2048 2 15.2667 2C17.3285 2 19 3.62806 19 5.63636Z" fill="#001E3E"/>
<path d="M19 18.3636C19 20.3719 17.3285 22 15.2667 22C13.2048 22 11.5333 20.3719 11.5333 18.3636C11.5333 16.3553 13.2048 14.7273 15.2667 14.7273C17.3285 14.7273 19 16.3553 19 18.3636Z" fill="#001E3E"/>
<path d="M8.73333 15.6364C10.7952 15.6364 12.4667 14.0083 12.4667 12C12.4667 9.99169 10.7952 8.36364 8.73333 8.36364C6.67147 8.36364 5 9.99169 5 12C5 14.0083 6.67147 15.6364 8.73333 15.6364Z" fill="#001E3E"/>
</svg>
