<svg width="24" height="24" viewBox="0 0 24 24"  xmlns="http://www.w3.org/2000/svg">
<path d="M22 11.9999C22 6.47705 17.5229 1.9999 12 1.9999C6.47715 1.9999 2 6.47705 2 11.9999C2 16.9912 5.65686 21.1282 10.4375 21.8784V14.8905H7.89844V11.9999H10.4375V9.79678C10.4375 7.29053 11.9304 5.90615 14.2146 5.90615C15.3087 5.90615 16.4531 6.10146 16.4531 6.10146V8.5624H15.1921C13.9499 8.5624 13.5625 9.33324 13.5625 10.1241V11.9999H16.3359L15.8926 14.8905H13.5625V21.8784C18.3431 21.1282 22 16.9912 22 11.9999Z" fill="#1877F2"/>
<path d="M15.8926 14.8906L16.3359 12H13.5625V10.1242C13.5625 9.33334 13.9499 8.5625 15.1921 8.5625H16.4531V6.10156C16.4531 6.10156 15.3087 5.90625 14.2146 5.90625C11.9304 5.90625 10.4375 7.29062 10.4375 9.79688V12H7.89844V14.8906H10.4375V21.8785C10.9466 21.9584 11.4684 22 12 22C12.5316 22 13.0534 21.9584 13.5625 21.8785V14.8906H15.8926Z" fill="white"/>
</svg>
