<svg width="24" height="24" viewBox="0 0 24 24" fill="none" xmlns="http://www.w3.org/2000/svg">
<path d="M17.617 5.5265C18.4053 5.5265 19.1713 5.68575 19.8926 5.99775C20.5915 6.3 21.217 6.73225 21.7596 7.2815C22.2989 7.83075 22.7234 8.471 23.0202 9.18275C23.3266 9.91725 23.483 10.6972 23.483 11.5C23.483 12.3027 23.3266 13.0827 23.0202 13.8172C22.7234 14.529 22.2989 15.166 21.7596 15.7185C21.2202 16.2677 20.5915 16.7 19.8926 17.0022C19.1713 17.3142 18.4053 17.4735 17.617 17.4735H6.38298C5.59468 17.4735 4.82872 17.3142 4.10745 17.0022C3.40851 16.7 2.78298 16.2677 2.24043 15.7185C1.70106 15.1692 1.2766 14.529 0.979787 13.8172C0.673404 13.0827 0.517021 12.3027 0.517021 11.5C0.517021 10.6972 0.673404 9.91725 0.979787 9.18275C1.2766 8.471 1.70106 7.834 2.24043 7.2815C2.77979 6.73225 3.40851 6.3 4.10745 5.99775C4.82872 5.68575 5.59468 5.5265 6.38298 5.5265H17.617ZM17.617 5H6.38298C2.87234 5 0 7.925 0 11.5C0 15.075 2.87234 18 6.38298 18H17.617C21.1277 18 24 15.075 24 11.5C24 7.925 21.1277 5 17.617 5Z" fill="#3C4043"/>
<path d="M11.4699 11.7792V13.7057H10.8583V8.94824H12.4795C12.8904 8.94824 13.2408 9.08517 13.5274 9.35903C13.8205 9.63289 13.967 9.96725 13.967 10.3621C13.967 10.7665 13.8205 11.1009 13.5274 11.3716C13.244 11.6422 12.8936 11.776 12.4795 11.776H11.4699V11.7792ZM11.4699 9.53417V11.1932H12.4923C12.7344 11.1932 12.9382 11.1105 13.0975 10.948C13.2599 10.7856 13.3427 10.5882 13.3427 10.3653C13.3427 10.1456 13.2599 9.95133 13.0975 9.78893C12.9382 9.62015 12.7375 9.53736 12.4923 9.53736H11.4699V9.53417Z" fill="#3C4043"/>
<path d="M15.5659 10.3428C16.0182 10.3428 16.3749 10.4638 16.6361 10.7058C16.8972 10.9478 17.0278 11.279 17.0278 11.6993V13.7055H16.445V13.2533H16.4195C16.1679 13.6259 15.8302 13.8106 15.4098 13.8106C15.0499 13.8106 14.7505 13.7055 14.5084 13.4921C14.2664 13.2788 14.1453 13.0145 14.1453 12.696C14.1453 12.3585 14.2727 12.091 14.5275 11.8936C14.7823 11.693 15.1231 11.5942 15.5468 11.5942C15.9099 11.5942 16.2093 11.6611 16.4418 11.7949V11.6547C16.4418 11.4414 16.359 11.2631 16.1901 11.1134C16.0213 10.9637 15.8239 10.8905 15.5977 10.8905C15.2569 10.8905 14.9862 11.0338 14.7887 11.3236L14.2504 10.986C14.5466 10.5561 14.9862 10.3428 15.5659 10.3428ZM14.776 12.7056C14.776 12.8648 14.8429 12.9986 14.9798 13.1037C15.1136 13.2087 15.2728 13.2629 15.4544 13.2629C15.7124 13.2629 15.9417 13.1673 16.1424 12.9763C16.343 12.7852 16.445 12.5623 16.445 12.3044C16.2538 12.1547 15.9895 12.0783 15.6487 12.0783C15.4002 12.0783 15.1932 12.1388 15.0276 12.2566C14.8588 12.3808 14.776 12.5305 14.776 12.7056Z" fill="#3C4043"/>
<path d="M20.353 10.4482L18.3145 15.1357H17.6839L18.4419 13.4957L17.0978 10.4482H17.7635L18.7318 12.7856H18.7445L19.6873 10.4482H20.353Z" fill="#3C4043"/>
<path d="M9.03741 11.3904C9.03741 11.1911 9.01957 11.0003 8.98645 10.8169H6.4231V11.8677L7.89938 11.8681C7.8395 12.2177 7.6468 12.5158 7.35155 12.7145V13.3963H8.23031C8.74343 12.9215 9.03741 12.2196 9.03741 11.3904Z" fill="#4285F4"/>
<path d="M7.35186 12.7147C7.10725 12.8796 6.79224 12.9761 6.42373 12.9761C5.71186 12.9761 5.10797 12.4965 4.8917 11.8501H3.98523V12.5532C4.43433 13.4442 5.35736 14.0556 6.42373 14.0556C7.16076 14.0556 7.77994 13.8133 8.23063 13.3961L7.35186 12.7147Z" fill="#34A853"/>
<path d="M4.80637 11.3286C4.80637 11.147 4.83663 10.9716 4.89173 10.8066V10.1035H3.98526C3.79957 10.472 3.6951 10.8878 3.6951 11.3286C3.6951 11.7693 3.79989 12.1852 3.98526 12.5536L4.89173 11.8505C4.83663 11.6855 4.80637 11.5101 4.80637 11.3286Z" fill="#FABB05"/>
<path d="M6.42373 9.68059C6.826 9.68059 7.18624 9.81911 7.47067 10.0898L8.24942 9.31183C7.77643 8.87143 7.1598 8.60107 6.42373 8.60107C5.35768 8.60107 4.43433 9.21248 3.98523 10.1035L4.8917 10.8066C5.10797 10.1602 5.71186 9.68059 6.42373 9.68059Z" fill="#E94235"/>
</svg>
