<svg width="24" height="24" viewBox="0 0 24 24"  xmlns="http://www.w3.org/2000/svg">
<path d="M21.7874 12.2252C21.7874 11.5668 21.7291 10.9418 21.6291 10.3335H12.2124V14.0918H17.6041C17.3624 15.3252 16.6541 16.3668 15.6041 17.0752V19.5752H18.8207C20.7041 17.8335 21.7874 15.2668 21.7874 12.2252Z" fill="#4285F4"/>
<path d="M12.2124 21.9999C14.9124 21.9999 17.1708 21.0999 18.8208 19.5749L15.6041 17.0749C14.7041 17.6749 13.5624 18.0415 12.2124 18.0415C9.6041 18.0415 7.39577 16.2832 6.6041 13.9082H3.28743V16.4832C4.9291 19.7499 8.3041 21.9999 12.2124 21.9999Z" fill="#34A853"/>
<path d="M6.60407 13.9083C6.39574 13.3083 6.2874 12.6666 6.2874 11.9999C6.2874 11.3333 6.40407 10.6916 6.60407 10.0916V7.5166H3.2874C2.60407 8.8666 2.2124 10.3833 2.2124 11.9999C2.2124 13.6166 2.60407 15.1333 3.2874 16.4833L6.60407 13.9083Z" fill="#FBBC05"/>
<path d="M12.2124 5.95833C13.6874 5.95833 15.0041 6.46667 16.0458 7.45834L18.8958 4.60833C17.1708 2.99167 14.9124 2 12.2124 2C8.3041 2 4.9291 4.25 3.28743 7.51667L6.6041 10.0917C7.39577 7.71667 9.6041 5.95833 12.2124 5.95833Z" fill="#EA4335"/>
</svg>
