<svg width="24" height="24" viewBox="0 0 24 24" fill="none" xmlns="http://www.w3.org/2000/svg">
<path d="M12 22C6.50255 22 2 17.4991 2 12.0038C2 6.50809 6.50255 2 12 2C17.4974 2 22 6.50809 22 12.0038C22 17.4923 17.4974 22 12 22ZM12.0055 3.15918C7.18342 3.15918 3.15918 7.19873 3.15918 12.009C3.15918 16.8275 7.19673 20.8524 12.0055 20.8524C16.8233 20.8524 20.8519 16.8188 20.8519 12.009C20.8519 7.18895 16.8188 3.15918 12.0055 3.15918ZM19.9149 11.3715C18.4622 10.9549 16.9639 10.6294 15.4528 10.5383L15.2834 10.7792C16.5145 10.8638 17.7456 11.0787 18.9379 11.3911L19.3613 11.5017L19.6673 11.58L19.1788 11.9966C17.7783 11.6192 16.3256 11.3524 14.8664 11.3455L14.7166 11.5345C16.1562 11.5864 17.5566 11.8472 18.9575 12.1792L18.5013 12.5634C17.1205 12.2766 15.7328 12.1009 14.3192 12.0813L14.1758 12.2766H14.4558C15.609 12.2766 16.7749 12.446 17.9022 12.6804L18.28 12.7651L17.8043 13.1626C16.9575 12.9996 16.0975 12.8953 15.2311 12.8953C14.0979 12.8953 12.9315 13.1038 11.9022 13.5923C13.1273 14.9468 14.8141 16.0732 16.7034 16.0732H16.723L16.1107 16.7638C13.8175 16.0668 11.7068 14.9077 9.7528 13.5336C8.67791 12.7783 7.68088 11.9055 6.59961 11.1566C5.85067 10.6421 5.08854 10.1736 4.28046 9.76343L4.00045 9.62002L4.20258 9.26173L5.24471 9.78938L5.4728 9.39194L9.49195 11.6583L9.3877 11.8472L7.04939 10.7073C7.94812 11.5085 9.05578 12.3617 10.3196 12.3617C11.7788 12.3617 12.9511 11.209 13.5894 9.99109C13.9217 9.96513 14.2541 9.93917 14.5928 9.93917C16.2928 9.93917 18.0583 10.2711 19.6932 10.7464L20.2537 10.9094L20.4035 10.9485L19.9149 11.3715Z" fill="#001E3E"/>
</svg>
