<svg width="24" height="24" viewBox="0 0 24 24" fill="none" xmlns="http://www.w3.org/2000/svg">
<path fill-rule="evenodd" clip-rule="evenodd" d="M22 12C22 17.5229 17.5229 22 12 22C6.47715 22 2 17.5229 2 12C2 6.47715 6.47715 2 12 2C17.5229 2 22 6.47715 22 12ZM12 20C9.20156 20 6.7387 18.5631 5.30898 16.3869L12 13.76L18.691 16.3869C17.2613 18.5631 14.7985 20 12 20ZM19.1454 15.6016L13.5242 11.12L12.4537 4.01264C16.661 4.24782 20 7.734 20 12C20 13.2955 19.692 14.5191 19.1454 15.6016ZM11.5463 4.01264C7.3391 4.2479 4 7.73402 4 12C4 13.2956 4.30793 14.5192 4.85468 15.6017L10.4758 11.12L11.5463 4.01264Z" fill="#001E3E"/>
</svg>
