<svg width="24" height="24" viewBox="0 0 24 24"  xmlns="http://www.w3.org/2000/svg">
<path d="M10.4026 9.81916C10.3414 10.0489 10.275 10.3169 10.2036 10.6233C10.1507 10.8493 9.93657 11.8124 9.92818 11.8509C9.86829 12.1295 9.8102 12.4086 9.75389 12.6881C9.71831 12.864 9.68342 13.0381 9.64882 13.2108C9.61056 13.4022 9.57254 13.5936 9.53478 13.7851C9.46647 14.1303 9.39969 14.4759 9.33443 14.8218C9.27808 15.1207 9.22227 15.4196 9.16698 15.7187C9.13907 15.8361 9.12656 15.8877 9.0874 15.9401C9.0481 15.9924 8.95756 16.0549 8.85829 16.061C8.83337 16.0626 8.80346 16.0618 8.76845 16.0588C8.73343 16.0557 8.69313 16.0477 8.64743 16.0348C8.52581 16.0004 8.38599 16.0001 8.26953 15.9654C8.15265 15.9309 8.01266 15.9275 7.91499 15.8733C7.81705 15.8191 7.7108 15.7862 7.64872 15.7058C7.58679 15.626 7.63153 15.4156 7.62437 15.2951C7.62126 15.2429 7.63223 15.0898 7.63933 15.042C7.657 14.8361 7.68661 14.5781 7.72805 14.2684C7.76947 13.9585 7.81959 13.6233 7.87783 13.2623C7.9387 12.8862 8.00245 12.5106 8.06906 12.1356C8.10081 11.9556 8.23793 11.195 8.27437 10.9962C8.34228 10.627 8.40895 10.2799 8.47442 9.95552C8.53991 9.63113 8.60087 9.35399 8.6571 9.12469C8.69854 8.98554 8.74752 8.88662 8.80389 8.82795C8.86029 8.76912 8.93804 8.73679 9.03741 8.73065C9.10193 8.72656 9.18096 8.73622 9.27464 8.75905C9.36805 8.78214 9.78123 8.83131 9.86582 8.82606C9.97361 8.81919 10.3226 8.89192 10.3226 8.89192C10.4261 8.95907 10.4459 9.02739 10.492 9.09016C10.538 9.15295 10.504 9.29209 10.5094 9.38104C10.514 9.45963 10.4264 9.71803 10.4026 9.81916ZM14.2997 13.9619C14.2997 13.9619 14.352 14.4159 14.3384 14.6976C14.3299 14.8709 14.2438 15.2524 14.191 15.2969C14.138 15.3419 14.0399 15.3892 13.8965 15.4396C13.8965 15.4396 12.0092 15.9754 11.9468 15.9869C11.8843 15.9986 11.5804 16.0963 11.4247 16.0489C10.8944 15.888 10.6751 15.309 10.6296 15.2239C10.5843 15.1387 10.5579 15.0369 10.5509 14.9182C10.5487 14.8823 10.5491 14.8445 10.5517 14.8055C10.5544 14.7665 10.5618 14.7209 10.5738 14.6683L10.5673 14.6843C10.5944 14.4601 10.7846 13.3043 10.8483 12.9742C10.9146 12.6315 10.9839 12.2894 11.0564 11.9481C11.0894 11.7912 11.1229 11.6361 11.1568 11.4823C11.1635 11.4523 11.4439 10.2469 11.5242 9.93902C11.6044 9.63129 11.68 9.35357 11.7511 9.10572C11.838 8.86747 11.9722 8.74267 12.1532 8.73128C12.2739 8.72375 12.4153 8.74356 12.5772 8.7903C12.739 8.83732 12.893 8.90016 13.0392 8.97898C13.185 9.05796 13.3103 9.14447 13.4143 9.23896C13.5183 9.33331 13.5731 9.42707 13.5786 9.51977C13.5812 9.56024 13.5785 9.60088 13.5707 9.6406C13.5629 9.67993 13.5482 9.72874 13.5264 9.78715L13.5335 9.77885C13.4492 10.0637 13.3595 10.3785 13.2638 10.7235C13.168 11.0685 13.0733 11.4302 12.9798 11.8086C12.8846 12.1931 12.7912 12.5781 12.6998 12.9635C12.6092 13.345 12.5207 13.7271 12.4344 14.1097C12.6238 14.0669 12.8093 14.0243 12.9914 13.9818C13.1731 13.9395 13.5189 13.8316 13.7404 13.8177C13.866 13.81 14.2335 13.7047 14.2997 13.9619ZM17.8585 10.0768C17.8149 10.2184 17.7726 10.3604 17.7317 10.5029C17.7193 10.5459 17.5678 11.0666 17.5163 11.2303C17.7449 11.1912 17.975 11.1625 18.2059 11.1441L18.2615 11.1409C18.4154 11.1318 18.5387 11.1477 18.6319 11.1882C18.725 11.2287 18.8166 11.2655 18.8831 11.3891C18.8831 11.3891 18.9939 11.6484 19.027 11.751C19.0601 11.8539 19.0882 12.0608 19.0909 12.1067C19.1033 12.3167 18.9107 12.3843 18.7861 12.4327C18.7094 12.4624 17.708 12.6434 17.552 12.6799C17.365 12.7236 17.1789 12.7715 16.9939 12.8235C16.958 12.9278 16.9137 13.2707 16.8788 13.3927C16.8439 13.5148 16.8099 13.6309 16.8051 13.7231C17.0045 13.6759 17.7427 13.4959 17.9789 13.46C18.1615 13.4323 18.3717 13.3369 18.5244 13.4303C18.7968 13.5971 18.8686 13.858 18.9158 13.9971C18.9158 13.9971 19.0817 14.3723 19.0284 14.6239C19.0039 14.7389 18.9678 14.8063 18.9125 14.8556C18.8569 14.9047 18.7533 14.9491 18.6014 14.9885C18.3223 15.0644 17.181 15.3714 17.1067 15.3914C16.9768 15.4266 16.6858 15.4786 16.6858 15.4786C16.5395 15.5228 16.3171 15.5672 16.2164 15.5731C16.0997 15.58 15.9967 15.5707 15.9073 15.5452C15.8177 15.5197 14.9973 15.0567 14.9726 14.7748C14.9635 14.6722 14.8459 14.5822 14.8374 14.4498C14.8326 14.3729 14.8356 14.2957 14.8466 14.2196C14.8466 14.2196 15.3823 11.6168 15.693 10.1067C15.7096 10.0266 15.9031 9.0857 15.9089 9.05704C15.9332 8.93931 16.0033 8.88457 16.0033 8.88457C16.1758 8.72108 16.3162 8.64273 16.565 8.57469C16.7415 8.5263 18.1656 8.3573 18.3068 8.33124C18.591 8.27895 19.392 8.15964 19.5891 8.33688C19.6737 8.4129 19.7628 8.49285 19.8188 8.62216L19.8185 8.61449C19.8789 8.72845 19.9221 8.82302 19.9483 8.89788C19.9742 8.97305 19.9185 9.06473 19.9398 9.15017C19.9398 9.15017 19.9718 9.27601 19.9763 9.34712C19.9851 9.4844 19.9594 9.58301 19.8993 9.64267C19.8391 9.7025 19.7222 9.74753 19.5483 9.77807C19.2742 9.81963 19.0717 9.85424 18.782 9.9042C18.4924 9.95432 18.1846 10.0118 17.8585 10.0769V10.0768ZM7.71372 9.66813C7.82505 9.82984 7.86739 9.98992 7.83616 10.1313C7.77645 10.4014 7.69889 10.7589 7.61137 11.164C7.4813 11.7669 7.35165 12.37 7.22243 12.9732C7.21087 13.0269 7.19933 13.0805 7.18791 13.1341C7.17209 13.2075 7.09912 13.5475 7.07858 13.6433C6.92304 14.3675 6.78046 15.0294 6.68481 15.4649C6.62622 15.7315 6.52556 16.1231 6.42148 16.4464C6.32384 16.7493 5.88444 16.6198 5.58819 16.5524C5.16633 16.4568 4.911 16.2472 4.95606 15.9406C5.00354 15.6176 5.00297 15.5346 5.01224 15.4104C5.02221 15.2753 5.17533 14.5041 5.24646 14.1656C5.37478 13.5554 5.70452 12.3594 5.63439 11.8864C5.45461 12.2122 5.20855 12.838 4.97002 13.4447C4.70415 14.1207 4.45294 14.7596 4.26874 15.0655C4.25406 15.0898 4.24152 15.1155 4.22896 15.1409C4.16209 15.2765 4.07898 15.4443 3.75195 15.3929C3.27549 15.3167 3.02258 15.1674 2.95085 14.8818C2.86747 14.5499 2.61697 13.4455 2.57635 13.2623C2.53872 13.0921 2.50109 12.922 2.463 12.752C2.46173 12.7459 2.46029 12.7398 2.45902 12.7339C2.45902 12.7339 2.00608 14.8439 1.93067 15.1905C1.90285 15.3182 1.86836 15.4728 1.83143 15.6379C1.74846 16.0094 1.65438 16.4302 1.59905 16.7168C1.57583 16.8377 1.52337 16.9214 1.44309 16.9656C1.40715 16.9854 1.36653 16.997 1.32092 16.9998C1.23694 17.0052 0.910332 16.8837 0.856425 16.8613C0.763615 16.8228 0.302556 16.478 0.216026 16.411C0.0516399 16.2839 -0.0100921 15.9689 0.00132219 15.8026C0.0162755 15.5829 0.0468051 15.3433 0.0867303 15.0511C0.104251 14.9223 0.136749 15.0053 0.158431 14.8665C0.190506 14.6605 0.226718 14.4449 0.266219 14.2235C0.331939 13.8554 0.40693 13.4714 0.487029 13.0897C0.500737 13.0245 0.552898 12.782 0.56516 12.7262C0.77002 11.7945 1 10.9125 1.19818 10.3538C1.45378 9.63383 1.52835 9.63606 2.43008 9.89208C2.5611 9.92918 2.67771 10.0037 2.79048 10.0755C2.82998 10.1009 2.86931 10.1259 2.90881 10.149C2.94318 10.1692 2.97311 10.1961 2.99933 10.2196C3.02856 10.2459 3.05864 10.2728 3.0799 10.2768C3.66582 10.3815 3.70946 10.7036 3.70375 11.0527C3.6975 11.4479 3.76977 12.5013 3.77732 12.6274C3.9929 12.2499 4.27616 11.5765 4.55073 10.9232C4.84399 10.226 5.121 9.5676 5.32788 9.22649C5.48254 8.97137 5.72065 8.89058 6.09971 8.96437C6.28591 9.00047 6.47796 9.02186 6.67484 9.04264C7.0482 9.08155 7.49488 9.3505 7.71372 9.66813ZM23.1933 8.47506C24.0205 9.1212 24.2016 9.84671 23.7823 10.8352C23.6591 11.1256 23.5902 11.3311 23.3984 11.4153C23.2305 11.4889 22.9896 11.401 22.7738 11.3145C22.6329 11.258 22.3189 11.1403 22.2353 10.9808C22.107 10.736 22.2156 10.4702 22.3079 10.213C22.35 10.0955 22.4398 9.97224 22.4877 9.85684C22.5341 9.68017 22.4012 9.58946 22.2442 9.64459C22.1097 9.7475 21.9435 9.8783 21.856 10.0126C21.5785 10.439 21.6649 10.9448 21.9375 11.3712C22.0744 11.585 22.2253 11.7922 22.3871 11.9896C22.4266 12.0378 22.5975 12.2347 22.6435 12.2847C22.7442 12.3942 22.8336 12.5044 22.9113 12.6151C23.5261 13.4921 23.4004 14.3939 22.3176 15.0979C21.8493 15.4025 21.4105 15.729 20.8054 15.5671C20.1485 15.3915 19.6519 14.9874 19.3569 14.3926C19.1446 13.9647 19.2826 13.4958 19.5396 13.1081C19.6882 12.8839 19.9191 12.9189 20.091 13.1219C20.265 13.3275 20.3963 13.579 20.5961 13.7509C20.7376 13.8725 21.0006 14.0306 21.1495 13.9619C21.2732 13.9948 21.2448 13.5264 21.1679 13.3725C21.0656 13.1683 20.9485 12.9718 20.8266 12.7777C20.6884 12.5578 20.5441 12.3411 20.4082 12.1198C20.2163 11.8071 20.0928 11.4745 20.0333 11.1388C20.0029 10.9685 20.0009 10.4002 20.0161 10.2882C20.1248 9.49453 20.5803 8.76285 21.3172 8.32369C21.3554 8.30075 21.5016 8.22256 21.536 8.20595C22.0803 7.94343 22.6106 7.86466 23.0739 8.37834C23.1079 8.41613 23.1528 8.44347 23.1933 8.47506Z" fill="#001E3E"/>
</svg>
