<svg width="24" height="24" viewBox="0 0 24 24"  xmlns="http://www.w3.org/2000/svg">
<path fill-rule="evenodd" clip-rule="evenodd" d="M20.0415 12.7144L16.6753 16.2197C16.5764 16.3267 16.4578 16.4119 16.3266 16.47C16.1954 16.5282 16.0543 16.5581 15.9117 16.5581C15.7691 16.5581 15.6279 16.5282 15.4967 16.47C15.3655 16.4119 15.2469 16.3267 15.148 16.2197C15.0453 16.1168 14.9635 15.9933 14.9077 15.8566C14.8519 15.72 14.8231 15.573 14.8231 15.4246C14.8231 15.2761 14.8519 15.1291 14.9077 14.9925C14.9635 14.8558 15.0453 14.7323 15.148 14.6294L16.6753 13.0714H5.1429C4.5507 13.0714 4.08317 12.617 4.08317 12.0004C4.08317 11.3837 4.5507 10.9617 5.1429 10.9617H16.7376L15.1792 9.24152C14.9773 9.0237 14.8645 8.73281 14.8645 8.4301C14.8645 8.12739 14.9773 7.83649 15.1792 7.61868C15.3778 7.41255 15.6468 7.29681 15.9272 7.29681C16.2077 7.29681 16.4767 7.41255 16.6753 7.61868L20.0415 11.1565C20.2395 11.3633 20.3506 11.6434 20.3506 11.9354C20.3506 12.2275 20.2395 12.5076 20.0415 12.7144ZM16.8 4.53492C15.0277 4.53344 13.3177 5.21565 12 6.44988C10.9711 5.47251 9.69104 4.82841 8.31629 4.59626C6.94155 4.36412 5.53164 4.55399 4.25884 5.14268C2.98604 5.73136 1.90547 6.69337 1.14916 7.91116C0.392856 9.12894 -0.00643598 10.5498 7.84579e-05 12C-0.00643598 13.4502 0.392856 14.8711 1.14916 16.0888C1.90547 17.3066 2.98604 18.2686 4.25884 18.8573C5.53164 19.446 6.94155 19.6359 8.31629 19.4037C9.69104 19.1716 10.9711 18.5275 12 17.5501C13.0289 18.5275 14.309 19.1716 15.6837 19.4037C17.0584 19.6359 18.4684 19.446 19.7412 18.8573C21.014 18.2686 22.0945 17.3066 22.8508 16.0888C23.6071 14.8711 24.0064 13.4502 23.9999 12C23.9999 11.0169 23.8135 10.0435 23.4513 9.13572C23.0891 8.2279 22.5582 7.40351 21.8892 6.70988C21.2202 6.01626 20.4263 5.46707 19.5529 5.09383C18.6796 4.72058 17.744 4.53065 16.8 4.53492Z" fill="#001E3E"/>
</svg>
