<svg width="24" height="24" viewBox="0 0 24 24" fill="none" xmlns="http://www.w3.org/2000/svg">
<path fill-rule="evenodd" clip-rule="evenodd" d="M16.8805 5.27812C16.1178 4.38333 14.7399 4 12.977 4H7.85949C7.49925 4 7.19252 4.26989 7.13634 4.6363L5.00547 18.549C4.96338 18.8235 5.16949 19.0717 5.43933 19.0717H8.59856L8.38055 20.4954C8.34382 20.7355 8.52394 20.9528 8.76006 20.9528H11.4229C11.7382 20.9528 12.0065 20.7165 12.0556 20.3961L12.0818 20.2567L12.5834 16.9815L12.6158 16.8005C12.6649 16.4799 12.9332 16.2438 13.2484 16.2438H13.6467C16.2265 16.2438 18.2465 15.1646 18.8367 12.0438C19.0833 10.7397 18.9559 9.65121 18.3037 8.88593C18.1063 8.65455 17.8609 8.46305 17.5747 8.30696C17.7756 6.98826 17.5733 6.09089 16.8805 5.27812Z" fill="#009CDE"/>
<path fill-rule="evenodd" clip-rule="evenodd" d="M16.8805 5.27824C16.1178 4.38337 14.7399 4 12.977 4H7.85948C7.49925 4 7.19252 4.26991 7.13634 4.63636L5.00547 18.5504C4.96338 18.8249 5.16949 19.0731 5.43933 19.0731H8.59856L9.39215 13.8914L9.36749 14.0539C9.42367 13.6875 9.72789 13.4174 10.0881 13.4174H11.5898C14.5387 13.4174 16.8477 12.1837 17.5223 8.61596C17.5423 8.51044 17.5594 8.40804 17.5747 8.30736C17.7756 6.98854 17.5733 6.09108 16.8805 5.27824Z" fill="#012169"/>
<path fill-rule="evenodd" clip-rule="evenodd" d="M10.6008 7.83264C10.685 7.7912 10.7789 7.76806 10.8773 7.76806H14.8887C15.364 7.76806 15.807 7.80018 16.2121 7.86735C16.3279 7.88652 16.4405 7.90863 16.55 7.93367C16.6593 7.95853 16.7657 7.98651 16.8685 8.01759C16.9199 8.03296 16.9704 8.04919 17.0202 8.06629C17.2191 8.13416 17.4043 8.21446 17.5747 8.30736C17.7756 6.98854 17.5733 6.09108 16.8805 5.27824C16.1178 4.38337 14.7399 4 12.977 4H7.85948C7.49925 4 7.19252 4.26991 7.13634 4.63636L5.00547 18.5504C4.96338 18.8249 5.16949 19.0731 5.43933 19.0731H8.59856L10.2446 8.32498C10.2785 8.10445 10.4158 7.924 10.6008 7.83264Z" fill="#003087"/>
</svg>
