<svg width="24" height="24" viewBox="0 0 24 24" fill="none" xmlns="http://www.w3.org/2000/svg">
<path fill-rule="evenodd" clip-rule="evenodd" d="M6.48909 2H17.5109C19.9902 2 22 4.00983 22 6.48909V17.5109C22 19.9902 19.9902 22 17.5109 22H6.48909C4.00983 22 2 19.9902 2 17.5109V6.48909C2 4.00983 4.00983 2 6.48909 2ZM12.246 9.06616C11.6087 9.06616 11.2138 9.28092 11.2138 9.75892C11.2138 10.2783 11.8859 10.5057 12.7175 10.787C14.0712 11.245 15.8474 11.846 15.8345 14.0817C15.8345 16.2986 14.0888 17.5456 11.5602 17.5456C10.4163 17.5422 9.28498 17.3065 8.23493 16.8528V13.9501C9.26544 14.5364 10.4179 14.8755 11.6017 14.9408C12.2737 14.9408 12.7656 14.7607 12.7656 14.1995C12.7656 13.6225 12.0376 13.3605 11.1591 13.0442C9.82269 12.5631 8.13794 11.9566 8.13794 9.92518C8.13794 7.74992 9.78671 6.46138 12.2529 6.46138C13.286 6.45024 14.3115 6.63841 15.2734 7.01559V9.84898C14.3385 9.35699 13.3022 9.089 12.246 9.06616Z" fill="#6772E5"/>
</svg>
