<svg width="24" height="24" viewBox="0 0 24 24" fill="none" xmlns="http://www.w3.org/2000/svg">
<path fill-rule="evenodd" clip-rule="evenodd" d="M15.6552 8.12598C16.5488 8.12598 17.406 8.45198 17.406 8.45198L17.1284 10.0578C16.2954 9.59878 14.3996 9.49018 14.3996 10.3356C14.3996 11.1806 17.1162 11.3618 17.1162 13.3056C17.1162 15.1774 15.112 15.8654 13.7838 15.8654C12.4554 15.8654 11.5864 15.443 11.5864 15.443L11.876 13.7644C12.6728 14.4042 15.0878 14.5856 15.0878 13.5714C15.0878 12.557 12.3954 12.533 12.3954 10.6012C12.3954 8.54838 14.6892 8.12598 15.6552 8.12598ZM11.6038 8.25978L10.387 15.7368H8.44041L9.65701 8.25978H11.6038ZM3.14901 8.25978C3.99341 8.25978 4.07241 8.93318 4.07241 8.93318L4.72761 12.2954L4.94681 13.4024L6.80281 8.25978H8.89781L5.80081 15.7368H3.77261L2.08141 9.24118C0.98381 8.58138 0.0454102 8.38638 0.0454102 8.38638L0.0812102 8.25978H3.14901ZM22.3428 8.25978L23.9012 15.7368H22.1138L21.8856 14.6262H19.411L19.005 15.7368H16.9762L19.8792 8.81698C19.8792 8.81698 20.055 8.25978 20.7778 8.25978H22.3428ZM20.9948 10.2938L19.9718 13.0918H21.5702L20.9948 10.2938Z" fill="url(#paint0_linear_2961_235129)"/>
<defs>
<linearGradient id="paint0_linear_2961_235129" x1="0.0454102" y1="11.9957" x2="23.9012" y2="11.9957" gradientUnits="userSpaceOnUse">
<stop stop-color="#1A1E5A"/>
<stop offset="1" stop-color="#122D98"/>
</linearGradient>
</defs>
</svg>
