<?xml version="1.0" encoding="UTF-8"?>
<svg width="24px" height="24px" viewBox="0 0 24 24" version="1.1" xmlns="http://www.w3.org/2000/svg" xmlns:xlink="http://www.w3.org/1999/xlink">
    <!-- Generator: Sketch 62 (91390) - https://sketch.com -->
    <title>icons / 24x24 / brands / visa colored</title>
    <desc>Created with Sketch.</desc>
    <defs>
        <linearGradient x1="0%" y1="50%" x2="100%" y2="50%" id="linearGradient-1">
            <stop stop-color="#1A1E5A" offset="0%"></stop>
            <stop stop-color="#122D98" offset="100%"></stop>
        </linearGradient>
    </defs>
    <g id="icons-/-24x24-/-brands-/-visa-colored" stroke="none" stroke-width="1" fill="none" fill-rule="evenodd">
        <g id="icon" fill="url(#linearGradient-1)">
            <path d="M15.6552,8.1258 C16.5488,8.1258 17.406,8.4518 17.406,8.4518 L17.406,8.4518 L17.1284,10.0576 C16.2954,9.5986 14.3996,9.49 14.3996,10.3354 C14.3996,11.1804 17.1162,11.3616 17.1162,13.3054 C17.1162,15.1772 15.112,15.8652 13.7838,15.8652 C12.4554,15.8652 11.5864,15.4428 11.5864,15.4428 L11.5864,15.4428 L11.876,13.7642 C12.6728,14.404 15.0878,14.5854 15.0878,13.5712 C15.0878,12.5568 12.3954,12.5328 12.3954,10.601 C12.3954,8.5482 14.6892,8.1258 15.6552,8.1258 Z M11.6038,8.2596 L10.387,15.7366 L8.4404,15.7366 L9.657,8.2596 L11.6038,8.2596 Z M3.149,8.2596 C3.9934,8.2596 4.0724,8.933 4.0724,8.933 L4.0724,8.933 L4.7276,12.2952 L4.9468,13.4022 L6.8028,8.2596 L8.8978,8.2596 L5.8008,15.7366 L3.7726,15.7366 L2.0814,9.241 C0.9838,8.5812 0.0454,8.3862 0.0454,8.3862 L0.0454,8.3862 L0.0812,8.2596 Z M22.3428,8.2596 L23.9012,15.7366 L22.1138,15.7366 L21.8856,14.626 L19.411,14.626 L19.005,15.7366 L16.9762,15.7366 L19.8792,8.8168 C19.8792,8.8168 20.055,8.2596 20.7778,8.2596 L20.7778,8.2596 L22.3428,8.2596 Z M20.9948,10.2936 L19.9718,13.0916 L21.5702,13.0916 L20.9948,10.2936 Z" id="shape"></path>
        </g>
    </g>
</svg>